<svg xmlns="http://www.w3.org/2000/svg">
<defs>
<font id="CharuChandanHardStroke" horiz-adv-x="0" >
  <font-face 
    font-family="Charu Chandan Hard Stroke"
    font-weight="400"
    font-stretch="normal"
    units-per-em="1000"
    panose-1="2 0 5 6 0 0 0 2 0 4"
    ascent="800"
    descent="-200"
    x-height="491"
    cap-height="487"
    bbox="-687 -391 1139 791"
    underline-thickness="30"
    underline-position="-105"
    unicode-range="U+0020-2122"
  />
<missing-glyph horiz-adv-x="516" 
d="M243 199l-53 -66l-25 -24l-24 22l22 9l48 57l-19 49l-42 44l17 43l14 -18l16 -21l-8 -10l36 -35l77 53q4 7 8.5 13.5t8.5 13.5q7 -12 9 -14.5t9 -13.5l-10 -16l3 1l-35 -28l-28 -24l41 -60l63 -42l-49 -4l13 -7l-44 30h2l-23 21zM57 88l-7 69l-2 -2l6 12l-3 20v-1
q1 12 2.5 26t2.5 26l6 43l-10 20l6 59l-4 34l-9 21l7 6l-3 59v30l-7 -4l29 20l-6 -1l19 3h-2l58 3l32 -10l38 -18l-12 -4l-52 1l-64 8l-3 -51l-6 -67l7 -47l-10 -28l9 -17l-7 -62q1 -13 2.5 -27.5t2.5 -27.5l1 -5l6 -29l14 -52l-4 -44l3 -30l-9 -48q29 -3 43.5 -4t23.5 -1
l39 -10q4 -2 7.5 -6t7.5 -7l1 -4l-39 2h-34h-35q-2 0 -4 -0.5t-4 -0.5l-16 5l-16 -3l-6 15l-12 25q0 5 1 11t1 11v-1l7 54l3 25zM473 -39q-4 -4 -6 -11q-12 -3 -19.5 -5.5t-18.5 -5.5l-68 10l-38 -1h-12q1 5 2 7t2 7l6 1q7 2 14.5 6t14.5 7l72 -3l-3 31l7 35l-12 54l-2 -2
l11 24l1 52v21v25v39l1 58l1 34l1 24l2 86l1 65l-91 -16h4l-26 -2q8 11 13 17.5t13 17.5l38 -4l63 4h-1q7 0 11.5 1t11.5 1l6 -5l-24 -23q7 -20 5.5 -37.5t5.5 -34.5l-1 2q0 -7 0.5 -13.5t0.5 -13.5l-3 -54l-3 -43q0 -5 -1 -11t-1 -11l-3 -39l-5 -60l15 -29l-2 3l-3 -18
q1 -17 2.5 -33.5t2.5 -33.5v-7l-2 -57l16 -59h1z" />
    <glyph glyph-name=".notdef" horiz-adv-x="516" 
d="M243 199l-53 -66l-25 -24l-24 22l22 9l48 57l-19 49l-42 44l17 43l14 -18l16 -21l-8 -10l36 -35l77 53q4 7 8.5 13.5t8.5 13.5q7 -12 9 -14.5t9 -13.5l-10 -16l3 1l-35 -28l-28 -24l41 -60l63 -42l-49 -4l13 -7l-44 30h2l-23 21zM57 88l-7 69l-2 -2l6 12l-3 20v-1
q1 12 2.5 26t2.5 26l6 43l-10 20l6 59l-4 34l-9 21l7 6l-3 59v30l-7 -4l29 20l-6 -1l19 3h-2l58 3l32 -10l38 -18l-12 -4l-52 1l-64 8l-3 -51l-6 -67l7 -47l-10 -28l9 -17l-7 -62q1 -13 2.5 -27.5t2.5 -27.5l1 -5l6 -29l14 -52l-4 -44l3 -30l-9 -48q29 -3 43.5 -4t23.5 -1
l39 -10q4 -2 7.5 -6t7.5 -7l1 -4l-39 2h-34h-35q-2 0 -4 -0.5t-4 -0.5l-16 5l-16 -3l-6 15l-12 25q0 5 1 11t1 11v-1l7 54l3 25zM473 -39q-4 -4 -6 -11q-12 -3 -19.5 -5.5t-18.5 -5.5l-68 10l-38 -1h-12q1 5 2 7t2 7l6 1q7 2 14.5 6t14.5 7l72 -3l-3 31l7 35l-12 54l-2 -2
l11 24l1 52v21v25v39l1 58l1 34l1 24l2 86l1 65l-91 -16h4l-26 -2q8 11 13 17.5t13 17.5l38 -4l63 4h-1q7 0 11.5 1t11.5 1l6 -5l-24 -23q7 -20 5.5 -37.5t5.5 -34.5l-1 2q0 -7 0.5 -13.5t0.5 -13.5l-3 -54l-3 -43q0 -5 -1 -11t-1 -11l-3 -39l-5 -60l15 -29l-2 3l-3 -18
q1 -17 2.5 -33.5t2.5 -33.5v-7l-2 -57l16 -59h1z" />
    <glyph glyph-name="NULL" 
 />
    <glyph glyph-name="nonmarkingreturn" horiz-adv-x="500" 
 />
    <glyph glyph-name="space" unicode=" " horiz-adv-x="350" 
 />
    <glyph glyph-name="space" unicode="&#xa0;" horiz-adv-x="350" 
 />
    <glyph glyph-name="space" unicode="&#xa0;" horiz-adv-x="350" 
 />
    <glyph glyph-name="exclam" unicode="!" horiz-adv-x="330" 
d="M222 80v0l-2 14l13 18l4 -12l13 52l-10 92l-3 -6l-8 46l3 7q4 43 9 86l6 17l-14 49l10 -12l-33 24h-2q-2 0 -4 1l-1 1q1 0 6 -2l-38 -21l10 1l-11 -21l7 -48l5 -65l-14 4l26 -47l-9 -1l15 -32l-16 -43q-3 -15 -5 -30l-5 -39l-3 5v-1q0 -4 3 -7q4 -3 7 -10l-7 -2zM195 -74
v0l16 9l19 19l4 -18l13 65l-16 22h2l-4 2q-19 0 -19 3v1l-12 -23l-27 -41l2 -21v8z" />
    <glyph glyph-name="numbersign" unicode="#" horiz-adv-x="465" 
d="M141 -3v0l47 77l-11 13l99 21l4 -6h8t17 9l8 -81q1 0 9 -5q1 7 10 7q6 0 15 -3l20 17l-16 49l14 -3l52 32v36l8 11h-34l-35 -12l-9 59l-3 33l3 3l6 2l54 4l2 4q2 1 8 24l13 16l-30 -2l-62 11l-3 77q-11 3 -17 4q-6 0 -16 -2q-6 -3 -9 -3t-10 16l31 -105l-105 15l-60 -45
l30 105l27 8l-77 2l11 -18l-17 -32l10 -41l-74 23l-22 -18l20 -26l-27 -4l66 -18l-3 -1q15 -4 24 -4t36 -12l-12 -61l-39 -19l-38 6q-5 -13 -11 -19q-5 -7 -7 -17l-1 3q2 -12 4 -14q2 -3 2 -6t-2 -8l47 10l9 -3l31 22l-6 -35l1 -23l-18 -48zM308 139v0l-83 16l-39 -2l-16 26
l6 40l-13 6l9 28l81 15l9 11l37 -3l-7 -54l29 -40z" />
    <glyph glyph-name="dollar" unicode="$" horiz-adv-x="610" 
d="M373 -22v0l67 10l22 9l41 -9q17 27 21 40t7 31l-14 9l20 33q4 3 4 12q0 4 -1 9q-3 16 -6 36l1 19l20 4l-94 51l3 -5l-16 1l-44 24l-46 -12q0 -22 6 -39q6 -18 6 -33q0 -4 -1 -8l9 -12l-39 -59q93 7 103 8l-22 89l26 -6l49 -44l4 -11l-21 -54l-19 -38l-31 -14
q-7 -7 -14 -8h-8q-10 0 -13 7l-41 -3q-3 1 -7 1t-9 -1q-11 -3 -15 -8l-14 46l3 19l-2 -1q-2 7 -2 13q0 9 4 16q5 12 13 17q-1 25 -3 50q-1 24 -3 39q-1 15 -5 38l10 57l-7 74l11 33h33l-3 1q8 5 12 6q3 1 8 3q4 2 10 3q5 1 13 3h-9h-10l-5 1q-9 0 -19 -5l-70 20l16 63l-15 5
q-8 2 -12 23l-56 12l-11 -24l-109 -12l1 -10l-41 -11l-9 -6v-22l2 -1h1q1 0 3 -4l38 38l31 17l129 5l-11 -103l-34 3l-34 -7l-3 -1h1q0 1 -2 3l19 -8q3 1 7 1t9 -1q5 -2 9 -2q6 0 12 3t13 3q3 0 8 -2q9 -2 9 -4l-1 -1l5 -44q10 -9 10 -23q0 -4 -1 -8q-1 -5 -1 -11
q0 -15 6 -31l12 -24l-7 -53l-25 -80q-3 -19 -5 -42q1 -3 1 -6v-3q0 -2 1 -3v-7l-3 -8l23 -26v9l19 -23l-9 11l53 -32z" />
    <glyph glyph-name="percent" unicode="%" horiz-adv-x="483" 
d="M108 312v0l16 14h28l38 20l-5 -7l20 36l8 -13l-19 42l24 52q-11 12 -36 12q-11 0 -13 -5l-47 5l-58 2l-54 -70l83 -79h-6zM67 22v0q23 32 45 65l-4 -4l19 19l48 67l35 28l20 13l3 -3l26 43l36 26l2 -11l31 56l18 5l59 61l19 -5v11l7 10q-2 3 -2 6v2q0 3 -8 4l-28 32l15 5
l-29 1l-45 -18q-26 -61 -50 -123l-81 -37l-38 -52q-20 -24 -39 -47l17 5l-52 -54l-51 -34l-5 15l-10 -58l13 -11l-3 1q2 -5 10 -8q7 -2 22 -10zM120 310v0l-44 83l27 55l1 -1l43 25l35 -42l-32 -88zM283 -10v0l75 10q3 5 21 20l16 54l-28 64l4 -4l-49 31l-33 -13h2l-12 -3
l-4 -2l-37 -43l14 10l-8 -39l3 -48l34 -28l-10 3zM309 9v0l-32 131l69 -10l38 -9l-35 -66l6 7l-26 -29l-42 -17z" />
    <glyph glyph-name="ampersand" unicode="&#x26;" 
d="M3 -152q-5 -13 -9.5 -24t-9.5 -24l2 1q-3 -4 -4 -6t-4 -6l-14 13h-1l-39 35l-41 30l-40 32l-27 32l35 -11l-3 1l59 -36l74 -29z" />
    <glyph glyph-name="quotesingle" unicode="'" horiz-adv-x="253" 
d="M134 522l-2 -66q0 -5 -1 -11.5t-1 -11.5l9 4q-3 -1 -9 -5q-10 2 -17.5 5t-16.5 5q0 16 0.5 31.5t0.5 31.5l40 25h1z" />
    <glyph glyph-name="quotedbl" unicode="&#x22;" horiz-adv-x="372" 
d="M151 432l-49 -3l17 23q1 14 2.5 28.5t2.5 28.5l21 19l21 3l-6 -37v-59zM257 522l-2 -66q0 -5 -1 -11.5t-1 -11.5l9 4q-3 -1 -9 -5q-10 2 -17.5 5t-16.5 5q0 16 0.5 31.5t0.5 31.5l40 25h1z" />
    <glyph glyph-name="zero" unicode="0" horiz-adv-x="496" 
d="M313 15v0q17 8 27 19q9 11 18 11h1l22 19l-2 -14l43 71l14 -20l1 80l11 59l-11 14q-6 7 -10 18q-3 10 -6 16l4 -2q-5 7 -16 25q-10 17 -15 26l-5 3l-16 23l-4 -1l-13 19l12 -3l-42 21l2 -2l-19 -7l-83 34q-10 3 -16 3q-5 0 -17 -3l1 -1q-5 2 -9 2q-9 0 -21 -9l-19 -5
l-3 -11l-37 -11l-23 -35l4 20l-27 -89l-2 3v-4q0 -15 -2 -25t-2 -20v-6l3 5q-8 -14 -8 -24q0 -4 1 -8q4 -12 5 -24l4 -1q-2 -4 -2 -9q0 -6 2 -13q5 -13 7 -20l1 -17l-11 11l37 -51l-17 25l99 -89h3q8 0 24 -1h7q17 0 38 5zM266 25v0q-52 22 -64 28l-60 34l-8 23l13 -9
l-51 65l7 27q4 6 4 14v7q0 11 19 36l-9 65l14 29l33 24l-15 8l32 24l73 5l22 7l24 -44l63 -46l16 -51h5l16 -34l-1 -28l-20 -63h10l-55 -82l-20 -17z" />
    <glyph glyph-name="one" unicode="1" horiz-adv-x="466" 
d="M214 -4v0l48 21l58 8l-15 -6q63 47 64 47l4 6l19 -19v93l6 3l-6 23l1 10l-15 44q0 11 -11 43l9 4l-21 9l-11 7l-36 55l-50 28l-2 -2l-12 20q-13 4 -33 14q-20 9 -38 15l7 3l-17 23l-87 -4l-44 12q1 -3 2 -7l-3 2l38 -28l7 11l58 -40l-12 20l94 -37l15 -18l-4 3l43 -14
l43 -52l29 -40q7 -29 18 -84l-15 -30l-35 -40l-16 -26l3 12l-1 -37l-129 -26l-51 22l-5 26l16 37l13 42l37 2q7 0 11 3l-2 12l17 27q-10 6 -37 48l1 7l-25 5l-10 -10v-30l-43 -69q-2 -5 -4 -7t-23 -2l-4 -57l-1 -40l-3 3q4 -8 10 -12q5 -3 5 -4h-1h-2l74 -17q6 3 11 3
q2 0 4 -1h4q4 0 4 5v1z" />
    <glyph glyph-name="two" unicode="2" horiz-adv-x="463" 
d="M382 -7v0l20 24l-1 -4l24 5l-2 15l13 32l-131 20l-4 3q-2 -4 -6 -4h-6q-5 0 -5 1l-85 51l5 4l-13 -1l67 41l33 12l35 8l-10 8l56 44l-2 -5q2 6 2 17q0 6 -1 15q-1 8 -1 16q0 10 2 17l-7 2l-8 35l-9 -1l-14 38l23 -3l-84 40l6 -5l-25 8l-24 13l-14 14l-67 4h2l-6 1
q2 -2 8 -12l-67 30q-6 -22 -6 -37v-4q6 -1 10 -1q3 0 4 1h3q4 0 10 -1q0 9 19 9q7 0 11 -4l53 -15l73 -17l5 -40l44 -60l-9 -43l12 -28l-70 -26l-84 -50l-49 27h-2q-15 8 -22 9q-6 1 -25 15l-3 -32l10 -4l4 -16l76 -12q29 -21 107 -77l10 -7l15 11l44 -49h4q12 0 23 -9
q12 -10 29 -23z" />
    <glyph glyph-name="three" unicode="3" horiz-adv-x="568" 
d="M232 16v0l40 10l20 -4q1 0 7 -4q2 -1 4 -1q7 0 17 11l16 -5l32 5l9 -2l25 19l-4 -11l35 33l1 -3q21 4 36 21q16 17 26 22l25 50l-10 5l2 42l16 17l-37 57v-3l3 13l-34 54l8 4l-19 13l3 15l-51 17l-2 3l-13 3v-2l-40 14q-24 -5 -44 -5q-17 1 -24 8l-38 -1q-1 -1 -5 -4
q-5 -2 -7 -4l6 6q-10 -18 -10 -33q0 -7 10 -50l-8 -12l26 1l-4 -146h4l1 -1v1q0 2 -2 9l50 3l11 7l-7 15l25 30q-9 2 -22 7t-31 24l13 33q-3 6 -3 13q0 3 1 6v2q0 8 -11 13l12 69l109 -40l26 -35l27 -57l9 -63l-2 -25l-10 -33l-25 -62l8 3l-16 -36l-88 10l-69 -18l-25 -1
l-52 38l-32 38l-18 44l-9 29l1 3l-11 12l-10 8l-14 25l-19 25l-30 -27l24 -42l-15 -3l34 -39l-2 -11l36 -29l11 -29l10 -6l32 -26l-13 3l40 -11z" />
    <glyph glyph-name="four" unicode="4" horiz-adv-x="437" 
d="M232 -9v0l35 13l8 -9l13 28l78 26l-6 2q14 3 17 14q2 12 10 22v-2v4q0 6 2 13q2 8 2 17q2 4 2 8q0 2 -1 5q-3 4 -3 11l6 -10l-23 26l-29 45l5 -9l-29 42l21 11l-10 6q14 29 29 59l17 24l5 18l-12 52l8 -7q-18 20 -27 24q-9 5 -24 16q-13 6 -24 7q-12 1 -24 15l-47 9
l-56 -16q-4 -3 -11 -3q-8 0 -12 -1l-7 9l-41 -23l16 4l-50 -40l11 24l-14 -67l-4 -89l59 -10l38 -42l-57 -4l14 -16l-59 -60l6 1l-9 -27l-7 2l6 -9l18 -47l2 5l-5 -19q32 -16 60 -27t58 -13l-10 3zM211 258v0l-57 34l-25 20l-20 20l-1 34l31 60l44 24l13 -5l76 -9q6 1 10 1
q12 0 21 -7q8 -7 21 -7q3 0 7 1l-3 -44l7 6l28 -28l-63 -59q-7 -17 -13 -17q-8 0 -26 9zM175 22v0l-54 49l-12 36l61 80l62 55l51 -20l48 -48l30 -40l-15 -51l16 8l-98 -68l-35 9z" />
    <glyph glyph-name="five" unicode="5" horiz-adv-x="439" 
d="M249 -17v0l89 33l28 40l48 2l-78 38l-31 25l-33 10l-5 30l-5 12l-9 28l-5 30l39 22l61 41l59 43l-5 16q-6 0 -10 1q-3 1 -4 1q-7 0 -17 -8l-34 -5q-5 -7 -10 -9q-6 -3 -6 -9q0 -3 1 -7l-43 4l-34 68v24l7 28q-12 13 -18 16t-17 12q-8 0 -12 -4t-7 -4q-2 0 -4 1l-20 -19
l12 -9l-46 -25l-7 -7l-31 -49l-6 6l-7 -23l-29 -55l10 -3l-13 -50l4 -47l2 -74l13 -47l-10 -6q34 -12 45 -14q27 -20 33 -22l52 -21q3 -1 7 -1q2 0 5 1q4 1 11 1l1 2q2 -1 5 -1t8 1h1q9 0 15 -17zM256 8v0l-58 26l-51 33l-20 11l-43 71l10 39l8 44l-4 4l3 29l12 36l26 36
l51 42l12 -19l-3 -1l31 -20l-12 -6l75 -25l-9 -21l-39 -16l-24 -53l13 10l-17 -53l128 -106l1 -7l-57 -23l-7 1z" />
    <glyph glyph-name="six" unicode="6" horiz-adv-x="504" 
d="M245 0v0l53 7q28 5 56 9q4 6 20 12q15 5 30 7l-9 4l19 10l-11 -6l40 48h1v4q0 10 5 19q7 14 7 33v3q-1 3 -1 8l2 -11l-10 61l9 6l-29 70l-19 34l-5 -11l4 -6l-129 -53l4 130l31 60q-3 -1 -6 -1q-6 0 -12 2l-19 5h-2q-4 0 -7 2h-2h-1h-6q2 -4 2 -9q0 -3 -1 -8v-4
q0 -5 5 -5l3 1l-19 -53v-8v-6q0 -2 -3 -2q-5 0 -23 10l7 -101l-13 11l10 -65q2 -2 15 -23q6 3 11 3q3 0 5 -1h3q6 0 10 4l47 11l41 12l63 29l-7 -18l20 -79l-36 -64l-23 -9l-62 -50l-75 9l-39 15l-10 8l-64 95l-19 41q3 71 3 93l5 14l-32 -11h-21q-1 -2 -1 -3t-1 -2l-19 13
l24 -117l-9 10l27 -42l1 20l43 -89l-9 5l19 -17l-9 -2q40 -27 81 -54q1 -2 7 -2q3 0 7 1h3q10 0 20 -7z" />
    <glyph glyph-name="seven" unicode="7" horiz-adv-x="417" 
d="M313 -5v0q9 3 20 4q5 1 27 12l-8 30l3 1q2 8 2 15q0 13 -4 22q-7 14 -7 33v2l-7 14l-3 -2l-2 48l-29 52l21 42q-1 2 -1 4q0 7 6 7l3 -1l-15 60l22 69q-4 7 -4 14t7 14l-29 13l-36 -6l-64 30l-32 -13l-19 1l-1 4q-21 -5 -32 -6q-10 0 -18 -8l-33 -22q-3 -7 -9 -12t-10 -9
l-6 7l-15 -43l5 3q-1 -17 -3 -27q-3 -10 -5 -27l-1 -6l21 -28l15 -50l22 3l68 -31q6 3 14 3q7 0 15 -3q16 -6 31 -7l-2 -1l15 1l-17 4l64 1l-23 -75l20 -59l8 -44l-1 -27zM286 224v0l-35 17l-77 -4l-52 48q-20 35 -27 45l-20 31l32 53q12 0 14 10q1 9 5 9q2 0 6 -3l75 14
l32 -6l37 -14q3 0 9 4l1 -15l12 21l7 -75l-5 -59l3 -30z" />
    <glyph glyph-name="eight" unicode="8" horiz-adv-x="493" 
d="M77 -23v0l84 11q39 1 40 2q2 1 2 2t-7 4l55 4l4 -1q12 0 28 11q14 10 33 10q7 0 14 -1l21 32l-3 -9l11 43q-2 7 -2 15t9 13l-10 42v-20l-33 90l54 14l43 -1l27 9l-9 -5l33 38l-56 1l-31 -9l-45 -37l-121 31l-14 -9q-13 2 -24 2q-19 0 -35 -5q-10 -3 -22 -3q-18 0 -41 7
l23 111l11 40l-2 31l7 -9l-23 26l-22 7h-34l22 -74l2 -21l9 -52l-1 -35l-6 -32q-3 -61 -3 -90l-13 -40v6q7 -12 7 -22q0 -5 -1 -9q-3 -6 -3 -15q0 -7 2 -16l-12 -32l-2 -27q-1 -1 -1 -2t1 -3q1 -3 4 -3q1 -3 8 -3l5 1q11 0 17 -18zM119 16v0l-32 18q13 13 20 22l-10 53l2 11
l24 38l-20 67l34 18l49 3l33 -9l11 -10l-14 -1l47 -27l41 -36v-25l4 -22l-6 -30l6 8l6 -67l-96 -4l-12 -4l-12 7z" />
    <glyph glyph-name="nine" unicode="9" horiz-adv-x="450" 
d="M203 1v0q20 5 32 5q7 0 15 -1l-3 19l77 -16l17 26l43 53q10 9 12 16q1 8 7 13l16 -8l-19 73l1 -12l-17 57l-7 37l-4 44l-28 29l-63 56l3 3l-14 5l8 -2l-50 27q-3 3 -6 4t-3 2q0 5 14 24l-118 -9l25 -65l39 -21l32 33l101 -52l8 -17l7 8l29 -69l-4 -78l-3 2q2 -15 8 -35
t8 -42l-7 -42l-90 -3l-50 -31l-2 3l-26 -1l-37 14l5 18l34 29l7 -6l15 40l-12 -10l30 81l-13 28l-4 16q-17 -2 -30 -2q-19 0 -30 12l-47 -3l-57 -46l25 -46l25 -2l21 9v2v1q-1 1 -1 2l1 1h-1l-13 2l85 45l-20 -72l15 -6l-72 -100l4 3v-3q0 -3 -1 -5q0 -2 -6 -3l51 -26z" />
    <glyph glyph-name="at" unicode="@" horiz-adv-x="473" 
d="M186 23v0l18 30l92 -19l11 8q-1 6 -3 9q-2 4 -11 19l-28 -9l-77 -20l-14 15l-43 32l-41 49l-18 50l8 35l17 65l-6 7l7 24l29 47l39 22l52 32l73 3q1 -1 6 -1q1 0 1 1q0 2 -13 14l96 -58l35 -46l-10 -86q-15 -24 -69 -115l-38 71l8 47l3 63l6 -3l-11 24q-15 7 -18 7
q-1 0 -2 -1q-3 -1 -19 -4l-55 2q-1 -2 -16 -11q-15 -10 -22 -17l5 -3v-2q0 -12 -12 -20q-13 -10 -18 -24l3 5q-4 -7 -4 -14v-6q3 -9 3 -25l-1 -16q17 -23 17 -34t8 -26l5 9l12 -47l83 34l31 -16h21q3 -2 7 -2q6 0 13 4q11 6 21 6h9l8 -18l42 60l8 16l22 88l3 60
q-17 13 -52 43l15 2l-57 33l-33 30q-4 -1 -5 -1h-1q0 -2 5 -11l-71 26h-63l-37 -10l-19 -26l-9 -47l-43 -16l2 1q-5 -7 -8 -12q-3 -6 -8 -12l17 13l-39 -71q-5 -72 -5 -80v-5q0 -11 -5 -29l29 -56v3q2 -13 11 -22q8 -9 19 -18h-1l17 -14l13 14l40 -36l-6 -1h4q2 -1 17 -13z
M193 138v0l-25 72l23 85l12 24q46 5 59 8l7 -6q-1 0 -1 -1q0 -4 3 -12v-57l3 -41l-1 -53z" />
    <glyph glyph-name="A" unicode="A" horiz-adv-x="793" 
d="M688 -47v0q11 3 21 4q9 0 16 6v9v7v6v9l23 24l-19 61l-3 45l-9 17l10 35l-6 57l-8 44l3 52l9 28l2 30l25 49l43 12l56 7l40 -1l13 36l-43 -19l-63 -4l-37 10l-27 -1l-27 9l-23 1l-8 -7l-19 8l-16 -10l-40 9l-28 -11l-75 15l-65 -25l-139 9l-77 12l-93 7l-92 -19l-28 -8
l-4 -12q12 -1 21 -1q12 0 18 1q3 1 7 1q12 0 37 -6l50 14l12 -5l72 1l31 -20l74 20l55 -20l37 7l29 -16l92 20l29 -3l80 -11l45 4l1 -37l-10 -66l5 -25l-13 -91q5 -26 19 -83l-104 67l-8 17h-5l14 51l-40 24l13 -10l-50 36l-17 3l-9 15l19 11l-63 10l6 2q-1 -1 -2 -1t-2 1
q-2 1 -3 1h-1l-5 1v-1q-10 3 -18 8q-7 4 -14 17l-34 -26l-51 9l-52 8q-6 -1 -8 -2q-1 -1 -7 -5q6 -2 14 -9q9 -7 12 -17l-14 -35l23 -50l-6 -41l6 -42l-16 -27l9 -11l-4 -9h5l6 -4q3 -6 15 -6q13 0 31 -11l28 23l-4 1l11 13l-1 -2h-12l16 49l-2 1l-3 -3l-35 20l14 26l-3 58
l24 45l38 -23l60 -25l27 -23l2 -16l4 -8l25 -27l5 -50h-7q-4 -6 -5 -24v-28v-17l-27 -46h-6l-21 -27l-62 -21l-12 -9l-13 6l-70 1l-18 6l4 1q-15 7 -58 29l-74 54v36l-1 3q-5 -7 -7 -13l-5 1l5 47l-19 48l-34 15l-8 -3h-17l-33 -7l2 -23q16 -30 30 -49l7 -35l-21 13l49 -29
l70 -80l33 -25l-5 12l64 -23l21 7l57 -22l42 -9l52 29l-11 7l36 3l69 37l-5 -4q27 33 32 40l23 22l-7 -6v9l3 2l-2 -1v1v3q3 8 12 12l22 57l48 -23l43 -21l-21 -17l-17 2l30 -84l-22 -47v-1q0 -3 6 -10q8 -10 11 -17z" />
    <glyph glyph-name="B" unicode="B" horiz-adv-x="522" 
d="M431 -80v0q7 5 20 45l8 20h-34l-9 6l-1 -4q-23 21 -33 26q-10 6 -32 21l-17 -5l-77 37l-6 -2l-39 20l9 37l26 -3q6 0 14 3q9 3 19 3v4l88 52l12 24l-18 3l33 57q0 26 6 29l-7 18l2 -9l-17 47v1l-20 36l22 -6l-44 67l67 -14l16 8l17 -4l15 -19l56 38q1 -1 4 -1q9 0 27 11
l47 -16l-50 33l-73 -14l-24 2l-6 9l-24 14l7 30l14 25q-11 5 -21 16q-11 12 -18 27l9 -10l-44 37v-6l-38 17h2h-2q-2 0 -10 -10l-62 16l-42 -8l-10 14l-60 -17q-23 -8 -76 -28l-23 21l-71 -31l-29 -5l25 -32l23 16q1 4 9 5t24 5l17 40l92 7h68l13 15l87 -29l28 -1l25 -35
l11 -72l-27 -35l7 15l-116 -13l-3 27l-68 -15l-36 2q-5 -3 -12 -3h-19v2q-5 -12 -13 -12t-29 11l-57 -33l15 -13l-63 22l10 -14h3h6l3 -1q4 0 5 5l22 -20l107 -20l20 5l-37 -71l-2 -79l16 -9l5 -6q10 4 15 4h1q5 0 14 15l45 8l-15 3l18 16l-32 38l2 54l-1 -1q-2 3 -2 9
q0 8 2 12l22 37l63 13l84 -19l-7 -71q26 -55 52 -109l-39 -38l-7 -30l-72 -28l-54 -34l-34 -9l-43 33l1 12l-45 1l4 6l-5 -37l24 -20l36 -22q1 2 5 2q6 0 16 -7q16 -11 27 -13q2 1 4 1q3 0 3 2q0 3 -5 13q77 -60 81 -64l33 -28l44 -29q52 -25 58 -27l8 27z" />
    <glyph glyph-name="C" unicode="C" horiz-adv-x="588" 
d="M545 -41v0l-6 38l-32 -8l-49 5l12 23l-104 24l-13 30l-8 38l9 43l-37 83l23 9l61 67q26 33 52 67l54 14l-33 29l-32 -5q-12 -10 -12 -16q0 -5 11 -5l7 1l-121 -78l-5 50l-38 83l71 14l37 -17l40 22l73 -24h63l44 -11l59 23l11 2l24 10l1 15l-73 -8h9h-1h-2q-1 1 -1 11v10
l-131 -28l-67 10l-9 3q2 23 2 31q0 7 -1 10l4 36l11 1l-41 50l6 2h-1q-13 0 -22 6q-10 6 -23 14l-3 -15l-48 29l-26 11h-5q-5 0 -10 -2q-3 -1 -7 -1q-5 0 -11 3l-17 -7l-53 6l-6 -26l-73 -2l-58 -32l-38 9l-11 -6l3 -19l2 -2h1v0q0 2 -3 9l39 6l-2 1l35 3l30 -9l39 21l10 39
q119 -29 154 -37l26 5l30 -39l13 -6q19 -61 17 -91l-41 -2l-93 -5l-77 7l-28 7l5 1h-2q-19 0 -37 6t-36 8l-29 -14h2v2l10 -5l-92 -6q-13 -11 -22 -17q-10 -5 -26 -6l-18 19l120 -21l12 -40l-7 2l25 -1l-16 -57l-11 -87l1 1q0 2 -3 5l30 -22q16 8 32 18q16 11 27 15l-8 -2
q3 5 4 5q1 1 11 9l11 21l6 15q-15 1 -21 4t-7 3t-1 -1t1 -2l-11 45l-23 19l67 61l84 -48l30 -8l-22 -16l44 -106l-24 -37l-23 -45l-65 -51l12 -15l-60 -15l-39 -76l-25 -5l-29 -29l25 -14l83 20l15 10l11 -13l30 71l-5 -5q13 25 68 118l42 -86l10 -52v-10h7q18 0 33 -16
q17 -19 39 -39l-8 3l29 -18q4 2 9 2t13 -2q3 -1 7 -1q9 0 14 9l69 -29z" />
    <glyph glyph-name="D" unicode="D" horiz-adv-x="616" 
d="M316 -50v0q4 0 8 1q10 2 19 2h5l9 12l47 3q8 3 38 17l3 11l28 20l44 11l-23 10l65 69q-2 7 -2 12q0 2 1 5v5q0 4 -1 7l8 -4l-21 70l-1 -3l-20 38v20l21 15l-55 39l4 -2l-4 4q-1 -3 -9 -4q-9 -1 -11 -4q-1 -1 -9 -14q-8 -14 -15 -16l-11 -34l-50 -20l-49 -21l-18 21
q2 27 10 125h-1l2 53l32 6l76 47l53 -24l66 17l2 -13q71 12 82 15l-5 -8l46 29l5 5h-7l-5 -1q-8 0 -11 10l-74 5l-124 -9l-10 15l8 21l-2 -2l7 17l-11 14l22 -15l-65 80l7 -7l-27 23l-67 4l-47 5l-75 3l-40 -4l-33 -9l-41 -18h7l-50 -18l-41 1l1 -35q6 2 11 5t24 13l66 22
l17 35q87 -6 101 -6l4 -1q6 -5 16 -5q7 0 14 2q12 2 21 2q6 0 10 -1l55 -1l59 -44l9 -14l-5 -37l-8 -22l-44 -30l-21 10l5 -1l-10 1l3 -2l-49 4l-13 -12q-10 3 -61 22l-68 -16l21 -2l-66 35l-97 -27q-24 0 -37 -4t-27 -17q2 -5 5 -7q3 -1 9 -15l22 15l36 -10l107 -10
q34 8 45 10h32l75 13l18 -56l-7 -70l-20 -65l9 -33l1 -48l8 -8l2 -34h4h5q18 -4 20 -4q9 0 22 5q18 7 30 20l8 10l33 30l73 40l28 -58l17 -40l-22 -69l-28 -17l-41 -51l-41 -6l-49 -29l-12 -1l-53 15l-37 17l-15 -8l-33 73l-58 59l-9 26l5 3l-12 25l11 7l-26 19
q-9 -2 -12 -2q-6 0 -18 6q-5 5 -10 5q-3 0 -6 -2q-6 -5 -19 -5q-5 0 -12 1l15 -48l3 -27l-2 6q6 -16 18 -29q12 -14 24 -30l5 -3l26 -34l16 -13l26 -32l-17 8l47 -15l33 -22h11q15 0 32 -6q23 -9 39 -13q10 -4 18 -4z" />
    <glyph glyph-name="E" unicode="E" horiz-adv-x="684" 
d="M394 -46v0q4 0 8 1q12 3 23 5q12 3 57 8q9 4 38 18l5 -10l19 39l52 13l-23 9l64 72q-3 4 -3 10l2 17l12 -12l-25 79l-4 -5l-15 38l-2 21l11 18l-44 37l4 -2l-5 6q-6 0 -12 -4t-12 -5q-6 -12 -9 -19q-4 -6 -4 -11q0 -4 1 -7l-17 -4l-36 -62l-79 5l-2 13l-21 41l27 84
l14 14l-24 63q12 -19 188 13l32 9l16 -10l57 15l9 -1l-13 9l53 6l9 7q-2 -1 -5 -1t-7 1h-1q-8 0 -22 -25l-57 51l-111 -19l-13 22l11 15l-3 -5l8 16l-11 17l18 23l-59 47l17 -16l-42 19l-44 17l-76 10l-63 1l-26 -19l-59 -8q-32 -10 -45 -15q-42 -13 -64 -18l-6 -32
q9 4 11 6t3 2q7 0 30 -10l48 43l21 -2l95 34l10 -2l-1 -1q13 -3 22 -3t15 3q12 6 35 16l31 -28l78 -25v-39v-24l-16 -9l-37 -40l-17 7l3 1q-3 0 -5 1t-4 1q-4 0 -9 -3l-30 -2l-11 -5l-30 -9l-18 -8l-90 7l-56 14l-5 -43l-164 57q-16 -12 -30 -16q-14 -3 -30 -12q0 -3 2 -7
q2 -3 2 -5v-2l34 -9h72l56 10l37 -14l109 12l16 17l60 -6l23 -56l-11 -43l18 -106l-6 -19l1 -50l-2 -11l12 -32v0q4 0 8 -5q21 3 40 9q20 6 34 6l15 10l36 42l67 61l37 -71l-8 -64l-23 -42l-24 -36q-26 -50 -40 -74h-82l-25 13l-43 -7l-35 20l-7 -11l-44 34l-54 108l-13 20
l-6 -5l1 33l2 -6l-15 34q-6 -1 -11 -1h-5q-6 0 -13 -1q-12 8 -17 8q-4 0 -4 -3v-2q0 -9 -5 -12l-21 17l15 -81l-5 1q22 -6 29 -23q7 -16 15 -30l9 9l24 -32l29 -27l9 -32l-4 -4l51 -19l18 -2q25 -7 42 -11q17 -3 41 -9q10 -4 19 -4zM283 -30v0l-78 59l-61 17l-27 42l-24 13
l-20 27l-31 54l-25 -5l15 -3l-14 -51l85 -61l44 -27v-4l29 -1l34 -21l66 -26z" />
    <glyph glyph-name="F" unicode="F" horiz-adv-x="642" 
d="M555 -57v0l5 24l26 -2l-23 43l-9 63v124l11 4l-15 66l12 27l3 75l10 -2l-24 24l26 60h24l40 -8l66 31l-16 14l-47 -12l-79 5l3 4l-58 16l-14 -15l7 4l-2 -6q11 -8 13 -16q1 -8 4 -23l12 -44l-25 -18l3 -145l-4 -58q0 -6 -13 -6q-3 0 -5 1l-14 -8q-7 -1 -14 -1
q-12 0 -29 5q-11 0 -17 -15l7 83l-9 29l5 33l-20 65l13 53l15 14l-65 66l-5 -3q2 -7 2 -12q0 -4 -1 -4t-2 6l-8 -74l-51 -28l18 60l-66 52q-9 12 -23 19l-1 -16l3 -37l-33 -73l-75 1l6 51l11 13l-26 18q-26 -19 -42 -19q-5 0 -9 1l4 -52l-12 -3l38 -44l6 -2l38 -41l23 16
l31 16l-1 2l5 4l-1 -9l43 63l-8 20l19 46l37 -60v3l-5 -17l-9 -11l-52 -62q-36 -54 -41 -61l15 5l-12 -49l-84 -61l-34 -22l4 -3l-11 -11q6 -2 13 -8q6 -5 14 -5q2 0 51 9l44 41l16 8q23 -7 47 -14l40 -13l57 -49l36 -36l-32 -71l-2 5q1 -5 4 -8q2 -4 2 -7v-1l18 -5h30
l39 25q-7 14 -13 21q-5 7 -27 26l31 42l-20 22l40 52l48 -17l25 -63l-9 -31l25 -21l-16 -34l2 1q6 -4 6 -30zM372 116l-145 77l-69 -31l68 77l31 60l35 5l86 125l8 -161l-21 -57z" />
    <glyph glyph-name="G" unicode="G" horiz-adv-x="587" 
d="M514 -49v0l14 15l-8 61l-3 74l-2 -1q-3 8 -3 17q0 6 4 36l-11 51l6 10l5 28l21 61l-24 58l1 47l-11 5q-16 12 -23 12q-8 1 -21 9l-14 8l12 -9l-69 36l2 6l-30 3l-38 -1l4 1q-12 -3 -25 -3q-14 0 -34 11l-24 -10q-10 -2 -17 -10q-7 -9 -19 -14l-24 -16l-50 -66l6 3v-11
q0 -9 -2 -16q-3 -7 -3 -15v-7l-5 5l11 -26l12 5l16 -52l9 -22l-5 28l68 -110l52 5l-2 -2q7 3 12 3q6 0 11 10l38 10l-11 -2q4 11 4 18q0 9 -13 22l33 49l-18 -5l30 61l-22 22q-5 0 -5 -1q0 -2 9 -8l-71 -20q-2 -2 -2 -4t1 -3q2 -4 2 -10l-5 -6l16 -20l1 -15l21 4l-28 -44
l1 2q4 -4 4 -9q0 -3 -1 -7q-1 -2 -1 -3q0 -2 2 -2q4 0 14 6l-84 16l-26 98l-3 46l37 29l66 43l45 10l49 11l4 -1l45 -46l18 -47l6 -74l-5 -24l4 -39q6 -14 6 -27q0 -11 -5 -22q-10 -19 -10 -42v-11q3 -4 3 -8q0 -3 -1 -6q-4 -7 -6 -14l5 -56l-94 13l-15 -18l-83 21l-6 12
l-38 -8l-3 -8l-26 18l-46 -4l-50 -19l-26 -8l-42 -8q0 -1 -1 -3l18 -6l29 -4l15 -21q6 2 13 6q7 5 17 5l4 -6l17 16l-1 15l49 26l58 -20q4 2 9 2q6 0 12 -2q12 -4 26 -4h4q3 8 3 11t-9 3h-5l131 -58l25 -28q8 2 14 2q4 0 7 -1q5 -2 13 -2h2l-4 -1z" />
    <glyph glyph-name="H" unicode="H" horiz-adv-x="719" 
d="M522 162v0l-19 12l51 15l23 2l2 -1l43 37l-3 -8l18 37l11 3l6 68l-21 18q-7 18 -18 50v3q0 20 -14 37q-15 18 -21 42l-2 -5l2 35l-30 39l-5 9l-64 63l-2 2q-3 -9 -6 -13q-4 -3 -4 -9q0 -3 1 -7l31 -35l24 -21l43 -41l10 -57l16 -48l18 -48l2 -44l-10 -21l-51 -25l-23 -27
q-16 -5 -24 -6q-9 -1 -16 -2l-19 -16l21 -34zM514 -49v0l14 15l-8 61l-3 74l-2 -1q-3 8 -3 17q0 6 4 36l-11 51l6 10l5 28l21 61l-24 58l1 47l-11 5q-16 12 -23 12q-8 1 -21 9l-14 8l12 -9l-69 36l2 6l-30 3l-38 -1l4 1q-12 -3 -25 -3q-14 0 -34 11l-24 -10q-10 -2 -17 -10
q-7 -9 -19 -14l-24 -16l-50 -66l6 3v-11q0 -9 -2 -16q-3 -7 -3 -15v-7l-5 5l11 -26l12 5l16 -52l9 -22l-5 28l68 -110l52 5l-2 -2q7 3 12 3q6 0 11 10l38 10l-11 -2q4 11 4 18q0 9 -13 22l33 49l-18 -5l30 61l-22 22q-5 0 -5 -1q0 -2 9 -8l-71 -20q-2 -2 -2 -4t1 -3
q2 -4 2 -10l-5 -6l16 -20l1 -15l21 4l-28 -44l1 2q4 -4 4 -9q0 -3 -1 -7q-1 -2 -1 -3q0 -2 2 -2q4 0 14 6l-84 16l-26 98l-3 46l37 29l66 43l45 10l49 11l4 -1l45 -46l18 -47l6 -74l-5 -24l4 -39q6 -14 6 -27q0 -11 -5 -22q-10 -19 -10 -42v-11q3 -4 3 -8q0 -3 -1 -6
q-4 -7 -6 -14l5 -56l-94 13l-15 -18l-83 21l-6 12l-38 -8l-3 -8l-26 18l-46 -4l-50 -19l-26 -8l-42 -8q0 -1 -1 -3l18 -6l29 -4l15 -21q6 2 13 6q7 5 17 5l4 -6l17 16l-1 15l49 26l58 -20q4 2 9 2q6 0 12 -2q12 -4 26 -4h4q3 8 3 11t-9 3h-5l131 -58l25 -28q8 2 14 2
q4 0 7 -1q5 -2 13 -2h2l-4 -1z" />
    <glyph glyph-name="I" unicode="I" horiz-adv-x="571" 
d="M371 -39v0l25 19l47 2q19 21 22 25l24 19l14 60l-6 60q-12 44 -14 47l3 37l14 48l3 -7l3 29l8 -13l-5 90l-30 30l-46 23l-5 26q-4 -2 -12 -2q-6 0 -15 1q-20 3 -38 6h-8q-16 0 -39 6l-4 20l-79 -41l-7 -27l8 -8l2 -38q3 -10 19 -57l16 -39l-5 5l14 -18q3 3 9 3q2 0 5 -1
h6q5 0 8 2l39 29q-9 12 -9 28l-9 -7l-26 32l-3 -7l-12 68l-18 33l88 -24l48 22l9 -58l43 -49l-3 -44l-16 -39l-33 -49l-60 -10l-46 -10l10 3q-10 -6 -34 -24l18 -24l40 18l20 -7l43 28l-1 -2h6q7 0 15 4q10 5 17 7l14 -5l-6 12l20 -65l15 -42l-38 -55q-51 -11 -102 -23
l-24 14l-70 13l-30 18l-39 52l-13 26l-6 25l-22 41l-4 34l3 27l-13 16l-43 32l-27 14h-1q-1 0 -5 2q-3 2 -17 7l10 -34q12 -16 12 -30q1 -15 19 -15h4l-4 -87l-3 21l46 -69l-1 -7l69 -69l33 -25l-3 3q6 -10 32 -18h-2h2q14 0 24 -4q8 -4 22 -4l6 1l50 -17q0 -1 7 -2t22 -12z
" />
    <glyph glyph-name="J" unicode="J" horiz-adv-x="679" 
d="M484 159v0l22 7l-4 2l37 17l22 5l-5 1q12 1 23 13q12 13 27 20l10 -7l4 37l-5 -11l24 85l-25 14l-9 29l-11 25q-16 29 -17 41q-2 15 -17 40v3l-31 59l19 13l-81 57l-3 5q-4 -9 -4 -14v-3q0 -6 -34 -31l55 -19l16 -10l43 -58l13 -47l36 -29l12 -62l-5 -35l-23 -34l-19 -37
l-39 -11q-13 -7 -22 -8q-8 -1 -20 -4l-4 -4zM371 -39v0l25 19l47 2q19 21 22 25l24 19l14 60l-6 60q-12 44 -14 47l3 37l14 48l3 -7l3 29l8 -13l-5 90l-30 30l-46 23l-5 26q-4 -2 -12 -2q-6 0 -15 1q-20 3 -38 6h-8q-16 0 -39 6l-4 20l-79 -41l-7 -27l8 -8l2 -38
q3 -10 19 -57l16 -39l-5 5l14 -18q3 3 9 3q2 0 5 -1h6q5 0 8 2l39 29q-9 12 -9 28l-9 -7l-26 32l-3 -7l-12 68l-18 33l88 -24l48 22l9 -58l43 -49l-3 -44l-16 -39l-33 -49l-60 -10l-46 -10l10 3q-10 -6 -34 -24l18 -24l40 18l20 -7l43 28l-1 -2h6q7 0 15 4q10 5 17 7l14 -5
l-6 12l20 -65l15 -42l-38 -55q-51 -11 -102 -23l-24 14l-70 13l-30 18l-39 52l-13 26l-6 25l-22 41l-4 34l3 27l-13 16l-43 32l-27 14h-1q-1 0 -5 2q-3 2 -17 7l10 -34q12 -16 12 -30q1 -15 19 -15h4l-4 -87l-3 21l46 -69l-1 -7l69 -69l33 -25l-3 3q6 -10 32 -18h-2h2
q14 0 24 -4q8 -4 22 -4l6 1l50 -17q0 -1 7 -2t22 -12z" />
    <glyph glyph-name="K" unicode="K" horiz-adv-x="633" 
d="M371 -50v0q4 0 8 5l31 33l-3 -3q0 9 1 12v5q0 5 -2 12l3 -6l-7 24l5 -5l-19 32l16 27l-13 -2l-2 19l15 14q-3 60 -5 121l-21 50l10 112l62 10l36 -11q8 -12 27 -36l32 -57l-1 2l-38 -45l-1 6l-10 -41l27 -8l35 -18l9 3l12 15l-12 41l17 18l-20 71h-4l-15 32l-40 18l-4 -9
l-63 45h41l25 15l75 12l76 -11l67 19l6 -6l-59 15l-60 8l-47 -22l-33 -4l-42 23l-46 -27l-68 30q-18 -4 -30 -7q-11 -3 -16 -15h-94l-67 16l-53 -11l-61 -6l-74 2l-18 -19q1 -4 4 -7q8 5 16 5h2q9 0 32 9l94 -1l55 -17l42 -11l33 4l-13 -4l-24 -41l-16 -34l-17 -15l15 11
q-48 -54 -98 -108q-11 -17 -22 -27q-12 -10 -22 -28l20 -36l27 -2v1q0 5 4 11q5 7 21 23l29 20l64 17l44 -31l42 3l49 -49q7 -44 9 -67l-1 -91l-13 -16l12 -10l-8 3q19 -5 24 -8q5 -2 8 -2zM315 182v0l-37 35l-24 -7q-80 22 -100 22q-2 0 -4 -1l26 35l11 43l54 59h1
q8 9 12 13t9 17l14 13l3 -10l28 27l38 17l21 -28l-25 -109l8 8l-19 -38l-2 -23z" />
    <glyph glyph-name="L" unicode="L" horiz-adv-x="549" 
d="M461 -53v0l37 17q-1 8 -5 11t-4 5l1 1q-6 39 -7 55l-8 42h1q-2 6 -2 8l1 8l-2 52l15 36l-29 58l1 41l-4 68l-8 31l33 58l-2 7l47 2l-2 -3q19 1 24 4q4 3 14 3h10l19 22l-68 2q-9 4 -16 4h-4q-8 0 -17 7l-15 -4l-31 1l4 -2q-8 0 -13 -3q-5 -2 -12 -7q2 -7 2 -13
q0 -4 -1 -8q-2 -10 -6 -32l2 -17l-2 -82q7 -46 15 -92l-6 -64l6 -68l-46 41q-18 5 -40 15q-23 11 -37 14l-10 4l-48 3l45 20q-2 7 -2 14q0 14 9 25q13 14 22 34h-1q0 5 1 7t1 3q0 4 -9 20l34 29h-5q-4 19 -4 30v6q1 7 1 17q0 12 -1 21l-46 46l-5 -2l-108 48l1 -14v-26l8 -40
v-97l-41 57l-18 38l-5 19h8l-25 26l-16 -14l1 -14l-15 -64l-10 2l44 -35l13 -28q57 -11 60 -11q19 0 20 18t13 27l15 32l-2 -5l6 73q6 -8 58 -63l9 -34l-13 -42l-1 -16l-3 -12l-59 -68l4 6l-106 -80l-34 -28l12 -27l-19 14l47 -33q7 16 27 24q21 7 35 14l-7 9l33 18l-7 1
l17 33l89 14l58 -51l10 -24q3 1 6 1q8 0 15 -15q7 -14 7 -21q0 -4 -2 -6l-5 -37l6 -54l-1 1v1q2 0 7 -3q11 -5 18 -8q3 -1 6 -1q4 0 6 1t4 1q4 0 7 -2z" />
    <glyph glyph-name="M" unicode="M" horiz-adv-x="531" 
d="M432 -58v0l9 15l33 19l2 11l-11 28l14 6l-12 92l-16 40l-2 2l-2 5l-8 50l14 5l-26 46l27 112h3q-2 6 -2 12q0 12 12 25l23 47l44 -14q2 2 5 2q2 0 4 -1q6 -2 17 -18q52 32 68 41l-6 3l8 6q-14 4 -25 4q-13 0 -24 -4q-21 -8 -26 -25l-73 29l-24 3l-4 6q-18 -2 -26 -2
q-9 0 -18 3l4 -11l-5 -67l-58 28l-15 9l-39 17l2 -1l-31 10l-3 -2l-35 4l8 4l-97 -23q-2 -1 -7 -4t-6 -5l-14 -11h-12l-29 -49l4 -79l91 39l25 -15l4 -49q8 -12 8 -28q0 -6 -1 -8l-5 -3l-64 -79q14 -7 33 -21h7q11 0 18 6q7 7 20 7q3 0 8 -1l2 5l-14 17l35 61l-2 2q7 5 7 15
q1 10 1 20l-5 -6v45l-78 51l-44 -6l14 23l23 14l60 65l24 3l101 -67q26 -37 34 -50l37 -65l-6 -25l3 -88l-15 -14l1 -57q-12 -65 -24 -129l38 4z" />
    <glyph glyph-name="N" unicode="N" horiz-adv-x="493" 
d="M409 -53v0l29 16l-6 25l5 -7l-21 48l7 33l-3 -1q-4 23 -6 36q-2 14 -8 30q7 5 7 8q0 2 -3 3l10 59q-1 5 -1 9q0 5 2 9q2 6 23 19l-30 78q-2 78 -3 92q0 4 -7 13l1 14l90 20q23 2 31 10q9 7 24 11l-4 2l5 5h-28q-24 0 -43 -2l-65 21l-35 -17l-23 -4l-47 16l-70 -43l-82 20
l-19 13l7 -8l-35 12l-21 -12l-22 -19l-54 6l-51 -18l25 1l100 12l-34 -40l4 -2l-18 -31q4 -6 16 -20l13 -31l-14 8l34 -20l-6 2q10 -7 28 -7h6l-1 1q0 -1 4 -1l12 1q11 0 13 -7l-13 -43l-51 -70l1 16l-27 -67v-1l5 -5q7 -5 9 -7l-8 2q8 -4 13 -4q7 0 23 7l29 6l-3 1l9 11h2
l36 50l23 -7l56 -29l50 -36l16 -18l34 -45l2 -48l11 -17l-1 -58h18l-1 2l8 -2l1 6l36 2zM350 150v0l-69 42l-3 -17l-96 54l3 10l7 80q-4 11 -6 14t-5 19l-29 -15l7 -12l-23 -31l-50 113l15 38h13q12 4 69 29q66 -29 102 -44l70 -1l16 -55l-20 -52l16 -111l-9 -13z" />
    <glyph glyph-name="O" unicode="O" horiz-adv-x="639" 
d="M385 -48v0l-14 5l49 -3l55 27l-13 2l42 22l2 5l10 15l-17 19l76 61l-9 6l25 21l-7 58q-7 5 -19 24q-11 19 -28 30l6 50l-94 -42l6 4l-18 -31l-80 -23l-15 26l26 40l63 61l-11 23l2 -6l-24 30q-18 12 -35 25q-7 5 -24 9q-18 4 -35 5l-12 -11l-18 3l24 -79l-3 -44l-61 16
l-1 26l8 74q3 9 3 16q0 3 -1 5q-2 7 -3 17l-1 -6l-25 29q-11 -3 -16 -5l-11 -6q2 -5 2 -11q0 -4 -1 -7q-1 -6 -6 -6q-6 0 -17 6l19 -86l14 -37l-4 -43l40 4l37 -36l12 -6l-6 -18l-6 -6l23 -52l-2 12l11 -16l44 11l47 18l-5 -2q19 16 27 22l19 19q5 5 12 16q6 10 14 15l26 2
l38 -37l-8 -16l-2 -55q8 -2 8 -14q0 -5 -1 -12q-1 -6 -1 -11q0 -12 6 -15l-34 -40l11 6l-5 -35l-106 -17l-32 -24l-53 -18l-82 85l-23 37l-45 57l2 29l-23 51h2q-4 9 -9 13q-5 5 -10 13l10 29l-26 1l2 -2q-8 5 -14 5q-4 0 -7 -2q-5 -3 -12 -3q-5 0 -10 2l-20 7q-1 -7 -1 -13
q0 -10 8 -41l10 -8l11 -52h-3q8 -14 16 -23q7 -10 18 -24l6 2l18 -30l27 -40l-4 23l56 -78l-9 4l24 -14h3q5 0 13 -4q10 -6 15 -8v0h3q5 0 17 -5q16 -7 29 -9l-13 2l62 7zM349 273v0l-12 38l14 48l49 -38z" />
    <glyph glyph-name="P" unicode="P" horiz-adv-x="415" 
d="M87 -60v0l41 18q-3 -1 -7 -1q1 11 3 15t2 13q0 6 -1 14l59 32l11 12l22 -8l41 66l30 25l16 50l72 57l32 18l-64 23l13 28l-105 7l-20 -3l-57 40l-42 25l-13 58l33 12l106 18l39 -10l43 7l32 -8l46 1l25 3l36 7l-24 -6h68l22 12l-36 8l-83 4l-19 -7l-46 2l-42 13l-76 -12
l-53 -7l-70 12l-5 14l-35 4l10 1q-148 -40 -153 -42l-3 -3l108 -16l27 -43l-7 -24l5 -17l-24 -49l22 -91q2 -9 2 -16q0 -8 -2 -8t-4 7l6 -101l-4 -17l11 -80l-14 -24zM99 69v0l23 63l-9 21l7 11l24 102l-36 102l45 -44l16 8l11 -10l-5 -10l45 4l53 -32v-4q24 -13 38 -17
q13 -3 25 -3h10l-4 -18l-38 -16l19 -10l-67 -33q-29 -15 -42 -30q-12 -15 -29 -50z" />
    <glyph glyph-name="Q" unicode="Q" horiz-adv-x="482" 
d="M426 -112v0h3t1 6l28 49l-3 2l16 -21l-86 64l-2 -18l-87 59l8 27l99 36l-4 5l26 13l-4 -4q7 8 9 20q2 11 8 22q-9 14 -12 24t-7 16l-3 2l8 10l-25 34l-29 9l-5 31q-1 0 -1 6v8l-29 12q-12 9 -22 10q-11 1 -26 6l-12 -4l-42 5l-78 65l-5 32l-28 22l51 -4l54 6l17 11
l106 -15l74 24l47 -15l45 20l64 3l-11 2l8 4l-22 12l-75 5l-58 -33l-50 11l-1 17l-64 -32l-71 21l-34 -7l12 -20l-72 5l-30 23l5 -2l-38 25l-28 -24l-69 -7l-12 -13l76 -30l34 -95l-11 -54l-3 -1l-7 -67l10 -39l-5 9q-3 -18 -3 -43q0 -37 6 -90l38 -4h4v1q0 7 30 25l16 31
l29 31l23 14l52 40l-6 -4l-12 23l56 22l60 33l-2 -17l-10 1l26 -28l35 6l-20 -86l-104 -64l3 1l11 15l-96 -51l3 -2l4 -8l5 7l76 -52l91 -54l31 -28zM129 128v0l-15 81l-1 51l9 7l-8 57l11 21l-8 11l122 -47l16 5l36 -27l-27 -48l-17 -22l-70 -39l1 -19z" />
    <glyph glyph-name="R" unicode="R" horiz-adv-x="695" 
d="M608 -30v0l35 7l-19 73l13 31l-15 18l10 43l7 36q-13 10 -15 19t-5 9q-2 0 -4 -2l26 94l62 31l-61 23q-6 -5 -13 -5q-8 -1 -18 -2l-42 6l-14 18l-70 48l17 16l26 19l48 -28l140 29l16 1l10 7l22 5l8 -4l17 -2l-78 12l-12 36l-138 -27l-7 -16l-43 7l-47 5l-28 7l-11 -1
l-22 15q-10 -1 -19 -3q-8 -3 -24 -30l-105 3l-20 8q-5 1 -9 1q-3 1 -23 6l-17 -19l-123 1l-56 14l3 1q-23 -5 -33 -5h-10l-17 -1l-2 -1v-2q1 -1 1 -2v0q0 -1 -1 -3l3 37l168 -49l-4 -3q16 4 29 4q7 0 13 -1l5 -1q14 0 26 22l80 -38l1 -44l-21 -34l1 -1q1 -5 1 -9v-4
q0 -2 1 -2l1 1l-36 -69l1 14l-6 -71l-6 6l17 -17q2 1 5 1q8 0 20 -5q13 -6 21 -6q3 0 5 1l53 -18l86 44l-21 9l66 28l22 -49l-12 -22l-11 -71l-19 -62l-33 6l-38 -73l-46 15l-55 14l-51 -7l-38 29l-8 48l-35 52l-3 8l-34 37l23 14l-22 58l2 -1l-16 17q-9 5 -14 5q-4 0 -6 -3
q-2 -2 -8 -2q-10 0 -34 7l9 -45v-4l1 -10v-6q0 -4 -1 -8l-1 24l37 -106l5 4l14 -39l-6 -3l25 -17l8 11l27 -44h-8l50 -22q5 -7 17 -10q13 -3 17 -9q3 2 7 2q7 0 15 -5q11 -6 21 -8l-11 -7h80q14 4 20 4q8 0 8 -4l76 23l4 -2l41 27q20 16 33 23q12 6 25 17l-26 -6l17 75
l13 29l-15 59h2l-25 54v3q0 8 -4 15q-4 9 -10 19h4q-5 2 -6 5q-2 2 -3 2l-2 2l-29 11l-45 -90l-116 19l1 61l-8 13l19 59l47 35l-4 20l61 -25l18 -10l-5 -5l41 -20l6 19l51 -52q17 -15 25 -15q7 0 12 9l85 -22l-35 -46l-8 -82l-14 8q13 -27 13 -48q0 -13 -5 -24
q-13 -29 -16 -69l-18 12l31 -70l-8 -21q9 -3 20 -7q10 -3 10 -11v-3z" />
    <glyph glyph-name="S" unicode="S" horiz-adv-x="641" 
d="M345 -52v0l42 9l16 11l-10 3l10 6l-7 14q1 28 1 102l-18 82l54 -21l26 -67l46 -62l-19 21q1 -8 1 -15q0 -24 -8 -52q2 -3 8 -20l43 -4l26 1q1 10 6 10q2 0 6 -1l-5 56l-5 -7l-14 45l11 44q6 18 6 30t8 16l-10 110l-13 61v37l-15 36l19 44l57 13h8q12 0 18 4q5 4 14 4
l5 -1l6 13l-15 -10l-111 22l-13 6q-2 -4 -14 -12q-11 -7 -19 -15l2 -27l37 -59l-29 -79l1 -57l-1 1q-4 -10 -4 -16l1 -4v-6q0 -5 -1 -11l-1 25l1 -128l-89 81l18 51l-35 75l8 63l-8 41l2 23l6 -6q-10 22 -15 28q-5 7 -12 21q-7 -8 -23 -11q-15 -3 -27 -15l-21 25l-1 5
q-6 0 -41 9l-92 -26l-65 7l-46 8q-37 -8 -50 -11q-3 1 -6 1t-6 -2q-1 -1 -2 -1q-6 0 -20 8l-69 1l10 -42l70 13l1 3q9 -6 18 -6h6q3 1 5 1t2 -1t-1 -2q122 -14 161 -18l26 -4l-9 -9l13 11l-28 -43l3 -1h-29l-34 -73l17 -16l-41 -54l-64 -45l-14 -7l29 -29l-9 7l30 -22l20 -8
q12 29 17 40q4 12 11 24l34 31l27 -13l13 14l52 -22l22 6l48 -56l-11 5l25 -25l19 -63l-12 -40q-2 -6 -2 -11q0 -6 5 -15l2 -48q15 -4 15 -8v-1zM322 177v0l-26 20l-5 -7l-42 38q-4 3 -11 3q-19 0 -22 -8l-31 3l-22 10l-24 7l3 19l27 15l52 79l32 3l36 82l14 -2l26 -5
l28 -35l-27 -74l-2 -36l2 -74z" />
    <glyph glyph-name="T" unicode="T" horiz-adv-x="729" 
d="M449 -50v0q15 5 26 5q4 0 8 -1q3 -1 9 -1q9 0 24 5q2 3 3 7q1 5 5 5q3 0 9 -3l-13 60l3 4l-15 7l39 7l24 11l41 -5l6 -2q20 16 32 24q13 8 22 23l-9 -8l13 43q0 3 1 3t6 -4l-2 31l-37 33l11 19l-3 12l31 37l-2 -3q1 2 1 5q0 2 -1 6t-1 8v2l1 -1q-3 4 -6 12q-4 7 -12 16
l6 -10l-43 25l-8 25l-73 24l-24 -21l-5 37l6 -5l-15 30t-3 4l6 -2q-4 9 -12 11q-7 2 -19 14l-34 12q-2 -2 -5 -2q-6 0 -13 4q-13 6 -27 9l-32 9l17 13l-67 -6l8 -3l-58 16l-41 -22l23 -19l-87 -22l4 14l-32 -52h2q-9 -6 -11 -16l5 8q-9 -15 -9 -35q0 -24 8 -47l-3 -20l3 -12
h-2l23 -52h-6l41 -45l-5 1q15 -5 21 -11l-13 -5l73 -10q9 -3 16 -3q8 0 31 12l41 12l-8 -1l-1 11v-2q5 6 5 17q0 6 -1 13q-2 9 -2 17q0 10 3 16q6 -8 13 -8q5 0 10 5l33 88q-37 15 -44 16q-6 2 -20 5l-36 -14l20 4l-41 -41l35 -43l-45 -46l-35 19l-39 37l-28 70l5 32l16 39
l66 34l72 10l66 -7l2 -17l52 -41l8 -13l13 -31l4 -78q-10 -52 -21 -105q0 -2 -1 -9q0 -8 -6 -8l-3 1l-1 -69l-3 -39l-57 -1l1 12l-46 -8l-80 15q-23 -3 -36 -3q-2 0 -2 2q0 3 6 13l-82 -22l-28 -3l7 -36l-82 18l-22 2l-17 30l21 10l24 -22l41 -12l102 5h30q55 3 88 -5v-3
l34 6l54 -30l22 -30zM567 64v0l-46 23l-8 -6l-16 35l1 42l9 26l1 -2q1 14 3 22q1 9 1 11q0 3 -1 3l-3 44l35 53l33 -2l76 -28l-49 -58l-30 -19l-1 -3l-11 -6q7 0 10 -2l6 -2l12 -19l26 -2l9 -47z" />
    <glyph glyph-name="U" unicode="U" horiz-adv-x="488" 
d="M210 -30v0l87 4l11 -1q15 18 31 22q15 4 29 13l-9 -6l50 48l-2 -1l4 6l-3 -1q12 17 15 26q2 10 5 21l18 14l-32 56l12 9l-29 23l3 -8l-30 42q-24 12 -35 12h-2q-11 0 -31 8l-25 8q-7 -4 -16 -4t-34 6l-13 -14l-7 -22l11 -2l5 -51l-15 6l6 -87l-7 6l17 -20q1 0 4 -1
q3 0 14 -3h37l28 42q-6 11 -7 23q0 12 -1 24h5q-2 9 -13 20q-11 10 -18 27l14 25l80 -71l13 -27l-11 -23l-5 15l28 -65l-36 -13l-59 -64l-61 1l-33 -3l-55 18l-35 24q5 11 9 22l-3 -4q0 9 1 23q2 13 2 17q0 18 -8 37q12 13 12 34q0 10 -3 22q-8 37 -19 61l10 11l-3 -5
q-3 20 -3 34q0 10 1 17q2 4 2 10q0 12 -7 29l9 16l26 65l40 32l95 -11l46 5l44 12l40 -20l49 15l20 -10l35 -1l23 18l2 -13l63 17l-1 7h-32l-153 7l-23 -8l-43 4l-16 5l32 65l-39 19l-8 51v-1q-3 0 -15 8q-16 10 -25 14l-8 -3l-23 12l-5 -5q-52 10 -105 21l-45 -29l-55 -22
l-62 8l11 -14l-86 8q5 -17 5 -25t-4 -10l9 1q5 -5 11 -5t14 5q15 9 26 15l-1 1q4 -1 7 -1q7 0 11 4q5 6 13 6h2l39 14l58 1l30 8l20 -10h69q52 -37 106 -72l-72 -62l-28 -12l-57 13l-53 26l-35 -14h-27l-47 -23q-33 10 -53 10t-33 -10l-18 3l17 -25l13 -15l46 17l-15 -3
l102 -6l14 -34l-1 -10l2 -48h24l-31 -111q-2 -23 -10 -31l14 -64l-1 -39l-8 -26l-11 -23l16 -71q5 -1 12 -7q14 3 41 11l65 -14z" />
    <glyph glyph-name="V" unicode="V" horiz-adv-x="499" 
d="M253 -33v0l39 11l-2 3q11 0 19 2q9 2 40 7l40 39l12 14l-16 21l63 43h-7l7 14l-3 -2q0 19 1 29q2 10 2 22l1 15l-29 80l-3 -10l-33 71h3h3v0q0 1 -4 5q-5 5 -5 18q0 7 2 18l-66 46l-25 11l41 35l24 -15l54 25l99 -18l35 12l48 4l3 12h-2h-3q-2 0 -10 4l-32 -12l-40 8
l-27 -15q-75 9 -149 17q-17 -7 -34 -7q-9 0 -17 1q-26 5 -60 5l-13 13l-38 -9l-5 155l44 10l21 59l7 42l112 -10l-26 22l-69 -13l21 -20l-50 -4l-5 -2l-31 -33l11 -12l-43 -17l-28 -22l24 19l-39 -82l4 -2l3 -54q0 -4 3 -15q4 -11 25 -37l-133 19l-7 10q-23 -6 -98 -30
l-5 -10l79 6l3 5v2q0 10 25 10q15 0 42 -4q73 -11 105 -13l10 -46l12 -43q-19 -54 -25 -68l-28 -55l-11 9l-11 -54l-18 -38l-27 -40l-9 -3q-33 -56 -48 -83h2q8 0 39 -25l-3 3l17 -2l41 -23l-5 -1q30 -10 36 -10q4 0 7 2q24 -2 38 -2t31 3zM142 -10v0l-38 68q1 21 2 24
l38 41l21 41l23 39h9l-4 88l11 22l-3 -1q-1 5 -1 10q0 10 4 19q2 3 2 6q0 8 -17 13l31 61l68 -52l50 -34l8 -40l38 -55l12 -12l-12 -39l-14 17l8 -109q-27 -30 -53 -62q-1 -1 -8 -16l-18 -10l-77 -15l-27 9q-7 0 -15 1q-9 1 -10 1q-15 0 -28 -15z" />
    <glyph glyph-name="W" unicode="W" horiz-adv-x="576" 
d="M279 -35v0l17 6q4 0 6 4t8 10l51 -2q55 15 110 31l8 -11l40 61l-10 -7q18 44 36 87q6 16 6 27l-1 6q-1 10 -1 26v17l-15 19l3 -4q-15 17 -22 23q-6 6 -14 19l-12 21q-3 7 -16 26l-9 -33l-50 -21l-26 -50l-32 -21l-2 6q-9 4 -48 29l14 71l1 39l10 38q-4 9 -4 16t3 13
q5 13 8 30l-1 1l86 15l101 -16l26 6l18 -14l45 17h7q9 0 18 4q12 7 20 9l33 -15l8 18l-16 6l-38 -10l-22 22l-89 -14q-3 -2 -7 -2q-3 0 -7 1h-1q-9 0 -10 -24l-127 42l-46 -1q-4 1 -10 1q-5 0 -12 -1h-6q-12 0 -27 6l-37 -24l-27 8l21 -7l-126 18l-80 -16h-19t-27 -3
q-8 -9 -12 -10q-5 -2 -11 -14q8 3 10 4h3q5 0 15 -11l35 -1l73 25l49 -24l39 26l72 -11l17 -57l-1 -59l-23 -20l8 -53l-1 7l25 -13l-23 -79l14 -9l56 2q5 -1 9 -1q8 0 13 3q7 5 16 17v37l90 11l15 20l26 -117l-40 -84l12 12l-47 -51l-56 -23l-18 1q-7 -3 -10 -3q-2 0 -2 2
q0 1 4 7l-104 8l-57 36l-30 35l-25 26l-14 40l2 -1l-9 26l9 16l-4 -4v5l3 -2l7 27l-38 41l-47 -43q5 -4 5 -12q1 -8 4 -14l5 -7q-2 -1 -2 -5q0 -8 13 -27q20 -29 31 -53l4 6l16 -35l-6 11l38 -47l-11 5l49 -34l8 4l41 -24z" />
    <glyph glyph-name="X" unicode="X" horiz-adv-x="486" 
d="M324 -34v0l63 72l1 2l12 3l17 37l-4 87l-7 4l-34 54h9l-24 14l19 -25l-105 50q-5 -3 -12 -3q-8 0 -30 8l-26 -14q1 -3 10 -19q-1 -35 -3 -49l-8 -7l-36 -8l38 -87q12 -1 19 -1t23 25l19 56l2 -12l-12 91l83 -72l34 -55l16 -33l-46 -32l-35 -50l-92 12l-68 -3l-40 25
l-3 17l20 71l-24 20l2 41l-1 57q1 1 1 3q0 5 -3 10q-2 3 -2 5q0 3 5 4l4 50l-12 46q-1 8 -1 15q0 9 2 17q2 5 2 12q0 11 -4 27l65 -8l43 20l11 -5q47 12 70 12q20 0 67 -9l44 6l44 12l35 -18l50 21q8 0 20 2q5 1 21 11l-7 5l-31 -6l-58 -4l-78 21l-49 -10l-13 -16l-57 6
l-55 18l-52 9l-54 -14l-11 5l-1 -7l-32 1l-28 3l-99 -19q-14 -5 -43 -17l20 10l34 -12l86 12l19 -48l-13 -2l2 -69l6 -100q3 -5 3 -12t-2 -15q-5 -19 -7 -35l18 -10l-14 -69q2 -64 4 -88l37 -33l41 20l23 -20l50 -3l33 -9l28 22z" />
    <glyph glyph-name="Y" unicode="Y" horiz-adv-x="529" 
d="M444 -54v0l28 22l6 12l-4 23l-7 24l6 53l-24 16l18 17l-17 105l10 80q-6 13 -6 21v6q2 4 2 9q0 6 -2 12l-3 22l20 38l-9 38h51l17 -17l58 35l-3 1l16 4q-2 1 -10 1l1 -1q-6 3 -10 3q-3 0 -28 -10l-86 13l18 2l-54 10l-6 -12l-28 -11l5 5v-1q0 -2 1 -4t5 -52l-55 37l4 -13
l-62 34l-22 -13l-51 25l-60 -39q-34 -8 -38 -10l-21 -41l-25 -16q6 -20 20 -20q8 0 20 4l-31 -80l19 -45l-6 2l41 -46l6 -11l30 -16l-5 18l68 -32q7 -2 10 -2q3 -1 8 -3q14 1 21 14q8 13 13 19l-13 -6l20 62l-1 29l19 25l4 35q-5 9 -14 11q-10 1 -17 6q-7 -5 -13 -5
q-4 0 -4 3l-26 -15l1 -1q-2 -4 -9 -10q-6 -7 -7 -9l24 -22l-23 -27l15 14l-51 -54l-57 7l14 42l-37 109l42 37l42 55l105 -5l29 -20q2 3 7 3l8 -1q1 0 1 1l-2 2l54 -57l25 -12l-23 -63l2 -1q-4 -2 -4 -12v-14q0 -10 -2 -15l-15 7q13 -126 15 -139l12 -104l-4 -30l-6 -19
l-1 -26q19 -7 20 -8h10q3 0 11 -3z" />
    <glyph glyph-name="Z" unicode="Z" horiz-adv-x="616" 
d="M125 431v0l93 23q6 -2 13 -2q4 0 7 1q11 1 15 3l121 -17l79 6l76 13l30 -13l30 15l43 -11l34 -4l40 -12l29 39l7 4l-23 12l-52 -16l-50 6l-10 -6l-72 13l-49 -17l-108 3l-83 5l-1 9l-73 -17l-68 4l-59 2l-99 7l-28 3l-18 2l-12 -3l8 -45l123 22q2 -1 5 -1h4q5 0 48 -28z
M290 -44v0l34 14q35 3 100 10l3 5l47 -2l47 47l-7 11l33 22l-2 1q11 8 16 14q5 7 9 14l-5 1q3 3 3 13q0 8 -3 30l-14 20l15 78l30 20l-71 39l8 -9l-46 29l-68 55q-11 6 -17 8q-6 3 -6 5l1 1l-49 -8l-81 10l-16 -2q0 -6 1 -8l-9 -4l24 -18l5 -34l-14 -32l7 -67l-3 -70l3 -23
q8 0 16 -3q7 -2 10 -2q6 0 7 6l51 1l-12 2l16 16l-6 -17l8 64l-2 1l6 -11l-43 34l-9 13l18 70l36 26l32 -5l66 -24l32 -28l4 -20l-5 -2l23 -4l10 -75h-5q1 -9 1 -16q0 -12 -3 -20q-5 -14 -25 -27l-15 -56l-28 5l-68 -63l-40 -29l-73 43l-1 2q-15 2 -24 7q-10 5 -26 6l-18 43
l-62 64l1 8q-8 -14 -23 -14q-11 0 -26 8l13 92l-27 8l-28 -10l6 -69l-8 -1l40 -15l21 -59l16 6l36 -37l38 -55h-22q73 -20 117 -33z" />
    <glyph glyph-name="underscore" unicode="_" horiz-adv-x="484" 
d="M404 -50v0l12 4q5 9 21 12l-23 116l-17 74l16 39l4 59l-18 24l15 76q4 5 4 11q0 4 -1 9q-1 3 -1 5q0 5 5 5h2l29 55l72 20q0 2 5 4q5 1 7 3h-1h-4q-3 1 -5 1l2 -1q-4 1 -6 1h-1q-4 0 -26 20l-79 -13l-12 16q-7 -4 -17 -4h-7q-11 0 -16 -1l-16 7l-4 -24l10 9
q-6 -13 -6 -25q0 -8 3 -16q8 -17 12 -44l18 -38l-16 -36l7 -35l30 42l-68 -169l-25 -2h-49q-10 6 -19 6q-3 0 -6 -1q-11 -3 -25 -3l-4 5l47 53l-5 -2q9 5 11 18l-3 -18l8 84v7q0 2 1 2q4 0 13 -8l-21 83l20 18l-74 29l13 2l-49 22q-4 2 -7 3t-7 5q-3 -5 -12 -5h-6
q-7 0 -13 -1l5 -8l-23 -4l13 17l-60 -52l1 9l-18 -44l3 1q1 -4 1 -7q0 -6 -2 -10q-4 -6 -4 -14l10 -1l-7 -64q1 -1 9 -25l-12 7l64 -42l26 59q-4 11 -7 18t-4 12l4 -1l-8 1q-2 3 -6 3q-2 0 -5 -1q-8 -2 -14 -2l3 35l-15 9l91 91l52 -77l9 -18l-9 -22l-3 6l6 -24l-17 -14
l20 18l-44 -94l-38 -38l-22 -24q-71 -48 -78 -54l5 -26l-1 4l39 -7l37 10l-3 -13l64 59l32 31l70 -33l29 -17l40 -84l-17 -67q-1 0 -2 3l-1 4q0 1 3 1q13 0 66 -14z" />
    <glyph glyph-name="grave" unicode="`" horiz-adv-x="395" 
d="M294 -58v0q11 2 19 3t23 5q3 13 3 23t-6 32l21 40l-41 70l11 32l-13 55l-9 -8l8 132l8 22l-8 20h1q-1 5 -2 5v-1v0v0q0 1 15 21q-64 -61 -75 -73l-9 -77l-19 -23l-92 -9l-24 -8l16 51l-38 56l13 80l2 52l16 21l61 -16l15 1l105 -4l64 16l39 -1q41 0 69 -3l45 11l-31 -10
l-77 33l-73 -32l-98 2l-52 9l-41 4l-33 42l-72 -34l-50 -2q-8 -3 -13 -3q-4 0 -8 2l-31 -16l43 -9l71 13l-3 -53l23 -9l-28 -115l6 4l5 -29l-21 -20l-6 -71l20 -10l33 1l7 -1q3 0 9 1l37 -9l67 59l-3 4l6 12l51 29l32 -91l-13 4q4 -26 4 -42q0 -11 -2 -18q-2 -6 -2 -14
q0 -17 7 -46l-11 -36q-2 -4 -2 -12q0 -15 2 -24l8 -2l11 -31z" />
    <glyph glyph-name="a" unicode="a" horiz-adv-x="519" 
d="M420 -51v0q2 0 44 16l7 10l-6 9q-5 6 -34 33l17 71l-8 6l3 36l-5 40v18l-7 67l11 60l-5 30l38 16l-15 79l54 2l31 7q6 3 8 7q1 4 1 10q0 5 -1 12l-47 -6l-43 9l5 -2q-5 -2 -14 -2q-8 0 -19 2l-42 6h-13l-22 -6l-25 5h-4h-3t-4 10l-30 -18l9 -6l-24 -23q-1 -3 -8 -12h4
q-2 -2 -4 -8q-1 -6 -9 -6h-2l-19 -22l-11 -4l-61 7l1 53l-21 26l69 59l-52 14l-2 -19l-39 1l-9 -43l2 -8l-5 -13l5 -24l-4 -4l25 -21l5 -7l9 -10l41 -35l6 -23l25 -7l-14 -15l42 38l-144 -143l3 -1l-21 -11l-7 -26l9 -4l-2 -25h2q4 0 9 -3q4 -4 14 -11l-5 15l53 27q7 4 7 14
q0 5 -3 12l22 8l64 -1l26 -22l59 -2l27 -22l24 -55l9 -39l-32 -6l13 -69v-10q0 -5 -2 -11l4 -8l6 11l24 -32h4h4q1 -1 2 -1zM391 195v0l-47 52l-91 -27l-52 40q16 12 43 31l45 41l29 74l7 10l7 17l67 -26l14 -61l-16 -57v-77z" />
    <glyph glyph-name="b" unicode="b" horiz-adv-x="505" 
d="M362 -54v0q11 4 26 7q15 2 24 2q6 0 11 -1v-1l22 21l6 29l-19 58l24 7l-21 79l-9 28l-9 9v33l-16 87l21 44q2 3 2 8q0 2 -1 4l21 61l38 14l41 12l-5 -2q8 7 15 9t14 6l15 -19l56 3l-1 40l-65 -6l-47 10l-72 -18l-36 9q0 -1 -2 -1t-5 1q-5 2 -12 4q-1 -7 -8 -19l-40 19
l-44 -22l-59 27l-108 -21l-68 -9l-43 2l2 -2l-63 -1l-5 -15q3 0 4 -1h2h1l1 7l75 -15l35 -5l53 28l55 6l113 -10l89 -11l2 -64l5 -43l2 -5l-14 -24l-16 -18l-7 -2l-135 18q-8 5 -21 5h-10q-16 0 -32 22l-72 -73l-6 4l-11 -20h4l-19 -28h-7l3 -52l-1 -25l4 1l17 -38l8 12
l37 -32l6 -74q6 -8 26 -13t54 -23l50 16l14 -4q-6 19 -6 33q0 7 2 14q5 18 15 27l10 74l-2 1q1 7 3 14l6 14v-1q0 1 -1 3l-1 1v1l-26 10l-49 -14l-20 -38l22 1l2 -93l-83 39l-1 21l-37 100l25 5l44 93l121 -5l64 -25l41 2l-6 -71l7 -92l-24 -50l-2 -75l-2 3l3 -13q-2 2 -3 2
l2 -2q3 -4 6 -5t3 -4q0 -2 -2 -5z" />
    <glyph glyph-name="c" unicode="c" horiz-adv-x="512" 
d="M370 -52v0l28 3q15 3 24 3h3q8 -1 20 -2l18 41l-24 93q-1 1 -2 5q-1 3 -2 3h-1l-6 25l14 23l-12 68l3 62q-4 9 -4 15q0 4 1 6t1 4q0 6 -8 12v60l22 54l3 12l53 5l39 -5l57 11l19 8l-13 12l-11 15l-67 -24l-70 10l-20 23l-38 1l-24 -13l24 -5l-2 -105l-99 89l2 -6l-115 25
q-5 -1 -8 -2l5 -2l-67 -21q-1 -2 -25 -26l7 1l-65 -58l13 -14l8 -1q19 -2 36 -3q16 -2 16 -8l69 -30l16 -89l-25 9l-29 -68l39 -16q6 0 7 -1l2 -1q2 0 4 4l18 18l37 11l-7 5l39 29l37 9l93 57l-7 -57l10 -45l-20 -67v1q-2 -4 -2 -9q0 -4 14 -14l-7 -63l-29 -64l-11 4z
M205 241v0l36 68l-13 20q-14 10 -22 10q-2 0 -40 -5l-71 20l34 53l40 48q37 -6 40 -6q9 0 17 2q4 1 7 1q5 0 9 -2t9 -2q4 0 8 1l2 1q8 0 17 -17l78 -69l29 -22l1 -11l-34 -7l11 12z" />
    <glyph glyph-name="d" unicode="d" horiz-adv-x="627" 
d="M365 -51v0v10h59q-1 4 -1 7t1 5q2 4 2 8q0 1 -2 7l-11 43l-9 58l-1 18l24 32l-11 76l4 38l-23 101l99 15l-3 -2l23 -65l-11 -21l-35 -14l28 -25l12 -33l9 -8l33 30v1q0 3 11 32l18 56l-19 36l-7 23l-68 22l-60 -24l-23 4q-8 -5 -15 -5l-8 1q-6 0 -12 -3q-2 -5 -3 -13
q0 -8 -9 -8q-4 0 -9 2l11 -77l-1 -51q-4 -4 -4 -11q0 -4 2 -9q2 -7 2 -14q0 -5 -1 -10l-6 -2l21 -46l-16 1l-166 71l39 72l4 3l-6 17l13 26v-1q-1 5 -1 8t-4 4q-8 11 -21 43q-14 33 -35 53h34l31 9l15 2l-2 -14l64 23l36 -28l137 -3l95 15l39 13l2 5l13 -7q42 12 85 22h-3
q-1 0 -2 1t-2 1v-1q-9 3 -11 3q-4 0 -9 -11l-45 -5l-59 32l-59 -55l-168 43l-52 -8l-50 -10l-38 -1l-69 19l-32 7l-12 7q-4 -11 -10 -11q-8 0 -34 16q-75 -23 -90 -26l-3 -31l35 23l62 -12l43 -16l29 -17l46 -64l-12 -58l2 2q-1 -3 -1 -5q0 -9 13 -17l-29 -56l-22 -27
l-72 -57l-31 -16l10 -11l29 -11q25 4 70 36l-13 -4l30 34l101 10l43 -48l23 -15l21 -31l4 -31l-13 -88q2 -2 5 -3t12 -6z" />
    <glyph glyph-name="e" unicode="e" horiz-adv-x="474" 
d="M350 -54v0q17 12 25 13t12 1q10 0 22 -2l-1 17l7 58l-12 11l2 47l-7 30l1 -30l-1 92v6q0 7 -1 19q-3 23 -3 41q0 15 5 29q2 6 2 11q0 8 -7 11l17 -23q5 7 5 20q0 25 -11 55l4 69l45 48l45 -17q5 0 9 2q4 1 4 2q0 2 -5 5l34 19q-2 -1 -5 -1t-7 1q-9 1 -25 13l-41 -15l1 4
q-18 -11 -27 -12q-10 -1 -12 -1q-13 0 -22 9l-44 20l-34 -17l-65 -2l-5 -7l-53 16l-73 -16l-100 6l-18 4l-72 -30h1l-6 -2l16 13l54 -13l12 -6l102 20l100 -29l-33 -42l-17 -41l-16 -24l-75 -79q-13 -11 -17 -17t-4 -13q0 -5 2 -12l-36 -20h3q-5 -2 -6 -7q-1 -6 -1 -11v0
q13 0 33 -18l8 1q6 0 20 -3q6 4 9 12q3 9 9 9q3 0 7 -2l21 56l15 11l49 -10l95 -46l10 -13q9 -9 49 -55l-4 -52l-8 -43l-11 11l18 -73l4 1zM303 190v0l-62 35l8 -4q-20 3 -30 5q-11 1 -21 7h-10l-22 -1h-15h-11v14l18 -7l32 92l34 36l15 2l35 32l25 39l70 27l-36 -54l20 -22
l1 -27q-7 -8 -7 -19v-5q2 -13 10 -13h1l-25 -72v-35z" />
    <glyph glyph-name="f" unicode="f" horiz-adv-x="643" 
d="M466 438v0l47 13l33 -8l47 13l8 -2l38 2l11 -13l29 18l-96 8l-55 -16l-91 26l-63 -1l-73 -14l-67 10l-11 10l-67 -19l-46 18l-43 -12l-27 -4q-31 6 -47 8l-3 8l-23 -22l-89 7l133 -24l38 -1l118 8l73 9l16 -17q78 -2 157 -3zM304 -22v0q10 0 65 9l64 -5h15q12 2 16 5t9 3
q9 0 28 -7l30 76l-4 -3l25 31v1q7 6 10 12t6 14l-3 16l19 36l-6 53l2 -6q-12 20 -17 29t5 -16l-47 65l1 -1q-7 8 -10 11q-2 3 -16 29l-67 -85l-38 -29l-59 4l-17 62l51 33l-3 -4q-3 11 -3 18v5q2 7 4 8t2 3q0 5 -13 25l-65 9l-5 -5l10 14l-23 -59l-3 6l-7 -37l3 -3
q3 -11 3 -19q0 -7 -2 -13q-5 -12 -5 -26l12 13l4 -52l-2 -2l21 -22h3q6 0 14 -2q7 -1 11 -1h4l-1 10q41 6 82 15l-7 8l30 14l40 6l40 42l7 -54l2 -39l15 -71l-32 -37l-15 -13h3l-25 -19l-94 -39l-50 13l-55 -11l-37 26l-18 48l-80 50l-13 36l27 22l-25 47l5 1l-3 17l-29 -6
l-13 21l-53 -43l21 -31l11 -12l9 -33l1 2l8 -18l7 9l29 -59l-4 7l23 -18l34 -43h-4q5 -2 7 -4q3 -2 15 -22l50 8q44 -23 70 -23z" />
    <glyph glyph-name="g" unicode="g" horiz-adv-x="524" 
d="M416 -52v0q18 6 23 6h1h10h7l-8 37l11 33l-16 44l14 79v55l-23 43v46l4 35l-7 77l50 31l38 13l49 5q3 7 3 9q1 2 5 6h-3q-3 0 -5 1v0q-4 0 -8 -7l-24 20l-75 -12l-28 12q-9 -10 -17 -10q-3 0 -3 4l1 4l-45 -26l-97 17v2q-4 -4 -9 -4q-6 0 -6 6t4 17l-94 -17l1 1
q-10 -1 -17 -1q-7 -1 -7 -9l-48 15l-90 -14l8 4q-24 -16 -59 -23l6 1l-5 -7l6 -4q20 18 45 18h8q25 0 60 4l52 -45l29 -91l6 -34l-45 -7l-2 4q-38 -36 -75 -72h4l14 1l-7 -109l-1 14l22 -56l-13 7l35 -33h-3l32 -22l-15 -3l66 -21l-1 2q12 -5 22 -5t28 6l38 -16l13 9l-18 -5
l9 34l11 49l-4 37q9 14 11 32q3 18 14 36l-18 -7l-60 2l-26 -23l6 1l-2 -6l3 -12l-2 1l16 -20l1 4l14 -5q-1 -2 -1 -5q-1 -3 -16 -5l-14 -46l-65 9l-7 60l-10 60l11 63l26 21l76 27l56 17l73 -37l32 -32l9 -58l-1 -1l8 -64l-18 -77l-1 -1q-1 -2 -1 -6v-8q1 -5 1 -8
q0 -5 -1 -8l5 -24l-27 -13q21 -9 27 -14q7 -5 24 -8zM396 280v0l-16 12l-117 24l-58 -3v22l-1 39v5l1 12l-24 38l33 14l69 -14l96 27l17 -78l-1 1q2 -8 3 -11q2 -3 2 -4q0 -3 -5 -3q-3 0 -8 1z" />
    <glyph glyph-name="h" unicode="h" horiz-adv-x="514" 
d="M400 -53v0q4 0 6 5l38 13q-4 5 -4 13q0 22 18 24l-9 62l-33 15l16 75l-10 8l2 64l13 46l-14 33l1 56l-1 15l5 38v4v4q0 2 -4 10l18 20l26 -4q11 -3 19 -3l9 1q10 0 22 -6l56 11l1 19l-18 13l-101 -13l-39 9q-4 -7 -12 -10t-14 -9l-21 27l-115 -17l-52 1q-7 2 -13 2
q-21 0 -21 -18q0 -4 2 -11l-69 41q-8 4 -14 4q-5 0 -18 -4v3q-11 -5 -12 -6q-2 -1 -5 -1t-11 1q-1 -3 -1 -9q0 -5 -2 -5t-5 4l-89 -16l13 -7q4 -3 18 -3q11 0 29 2q20 2 32 2q11 0 16 -2l-7 9l123 -64l12 -12l5 9l18 -35l1 -60l-7 -31l-26 -33l-21 -35l-54 -47l-30 -43
q12 -1 24 -1h14q30 2 44 30q6 12 18 25l38 -3l35 3l117 -53l5 -46l-3 5l11 -32l18 -7l-8 -73q18 -7 20 -7zM358 112v0l-54 68l-27 -3v0h-8h-1q0 -2 12 -9l-88 10l23 20q1 13 16 29q16 15 31 15l-18 84l5 29l-7 -7l-14 52l23 4l-71 39q97 -8 120 -9q14 5 25 5q5 0 10 -1h4
q12 0 23 16l13 -113l-2 -44l16 -106z" />
    <glyph glyph-name="i" unicode="i" horiz-adv-x="473" 
d="M353 -54v0q17 12 25 13t12 1q10 0 22 -3l-1 18l7 58l-12 10l2 48l-7 30l1 -30l-1 91v6q0 8 -1 19q-3 24 -3 42q0 15 5 29q2 6 2 11q0 7 -7 11l17 -23q5 7 5 20q0 25 -11 55l4 69l45 48l45 -18q5 1 9 2q4 2 4 3q0 2 -5 4l34 20q-2 -1 -5 -1t-7 1q-9 1 -25 13l-41 -15l1 4
q-17 -11 -27 -12q-9 -1 -12 -1q-13 0 -22 9l-44 20l-34 -17l-65 -2l-5 -7l-53 16l-73 -16l-100 6l-18 4l-71 -31v1l-5 -3l16 14l53 -13l12 -6l102 20l100 -29l-32 -42l-18 -41l-16 -25l-74 -78q-14 -11 -18 -17q-3 -6 -3 -13q0 -6 1 -13l-36 -20l3 1q-5 -2 -6 -7
q-1 -6 -1 -12v0q13 0 34 -17l7 1q6 0 20 -3q6 4 9 12t9 8q3 0 7 -1l21 56l15 11l50 -10l94 -47l10 -12q9 -9 49 -55l-4 -52l-8 -43l-11 11l18 -73h4zM200 5v0q3 0 15 11q14 13 20 13l-1 27l17 -18l-50 65l-5 3l-6 -4h-17q-4 -9 -15 -10q-12 -2 -21 -7q4 -6 4 -12v-6
q0 -10 14 -29l29 -32l15 -1h1zM307 189v0l-63 36l8 -4q-20 3 -30 5q-11 1 -21 7h-10l-30 6l32 92l34 36l15 2l35 32l26 38l69 27l-35 -53l19 -22l1 -27q-7 -8 -7 -19v-5q2 -13 10 -13h1l-25 -72v-35z" />
    <glyph glyph-name="j" unicode="j" horiz-adv-x="552" 
d="M461 -62v0l21 19l1 3l9 4l-1 1q4 2 4 3h1q2 0 14 -6l-20 49q2 28 4 85l-5 -6l-40 95l11 51l10 21l12 13l-7 98l1 18q4 7 4 18v10v3q0 16 37 23l24 2q14 10 19 10h11h12q14 5 20 9q6 3 21 14l-24 -3l-86 7q-6 1 -11 1h-5h-2q-8 0 -29 11q-3 -3 -9 -8q-5 -5 -30 -20l-69 27
l-85 -17l-96 4l19 20l-108 -17l-8 12q-69 -14 -85 -17q-11 -11 -25 -11q-13 -1 -24 -11l44 1l27 3l55 -17l54 21l51 3l48 -12l29 5l79 -3l63 -11l51 -67l-43 -61l-24 32l-23 2l-3 10l-39 -26l9 11l6 -57l-68 42l-33 11v-1q-12 0 -23 4q-11 5 -17 17l-44 -19l8 -4l-50 -13
l2 12l-34 -37l-10 7l-44 -60l-12 -47l17 -35v15l34 -73l7 -18l-8 -6l64 -56q14 4 39 4q18 0 23 -5q12 29 26 58l15 58h-3q18 5 32 24l-25 10l-19 19q-5 -3 -11 -3h-4q-2 1 -3 1q-4 0 -4 -5l1 -5l-42 -22l7 -10l5 5l14 -21l8 -34l-33 -15l-53 41l-16 26v55l2 11l18 -18
l59 109l22 -8l59 23l44 -79l-1 -18l39 -35q1 -2 6 -2q3 0 7 1l3 21q-3 31 -3 45q0 12 12 13l78 22v-55l11 -25l-14 -44l1 -50l-1 -84l-10 -22l2 -46q5 1 11 1h6q7 0 7 2l-7 -11l1 -1l1 -1l-3 -1q1 2 2 2q3 0 12 -7q5 -3 13 -6l8 3l-7 2z" />
    <glyph glyph-name="k" unicode="k" horiz-adv-x="507" 
d="M413 -50v0l36 13q-4 4 -4 9v7q0 6 1 11l7 -3l-10 60l-9 33l9 12l-4 -3q-4 5 -4 11q0 4 2 4q5 0 19 -9l-66 128l31 69l-11 77q20 52 24 63l10 35l70 -8q6 0 12 1q6 2 26 5l37 -6l1 14q-6 3 -10 3h-3q-1 -1 -2 -1q-7 0 -22 7l-64 3l-38 -6l-23 2l2 14l-35 -33l6 -98l-96 86
v-4l-33 22q-4 4 -9 4q-5 1 -12 3h-1q-1 0 -6 -3q-11 -1 -17 -8q-6 -6 -12 -7l11 -6l-59 -23l-38 9l-20 14l-14 12q-13 1 -20 3t-7 8q0 3 2 7l-58 -7v-1q-6 -4 -13 -4q-4 0 -7 1q-10 3 -24 5l8 -5l-38 3l-2 -8l-4 7l54 -14l24 17l67 -35l25 -24l29 -41l1 -28l-100 -77h3
q0 -4 -4 -6q-4 -3 -8 -9q2 -1 4 -5q1 -3 8 -19l50 5l1 -56l71 121l60 -19l28 -70l43 35l-29 32l-4 6l-37 13l-17 37l14 82l39 32l67 -18l16 -29l32 -55l9 -9l-1 -14l-18 -28l2 -77l13 -57l-9 -40l13 -39l-23 -74l12 4l5 -55l3 -8l41 1z" />
    <glyph glyph-name="l" unicode="l" horiz-adv-x="492" 
d="M372 -54v0h-2h6q9 0 21 2q2 1 9 5q8 4 17 7l3 -4l9 28l1 -6l12 39q-32 61 -35 67l-20 25l3 23l17 37l-17 60l11 42q4 13 4 23t-3 18q-4 8 -4 15t4 12l12 33l17 11l-25 61l31 7q2 -1 4 -1l3 1q4 0 15 -10l36 7l53 21l1 14q-5 2 -11 2q-8 0 -19 -3q-20 -6 -41 -11l-31 5
q-8 -5 -16 -5q-1 0 -1 1q0 3 9 13l-98 -2l2 23l-140 -30l-40 -6l-29 -8l-53 45l-12 -14q-44 -7 -89 -13q-12 -14 -25 -16t-25 -14q5 -3 11 -3q3 0 53 6l83 -21l26 14l38 -24l43 -79q-3 -6 -11 -56l-2 9l10 -49l-24 -38l-57 -50l-48 -15l-47 -18l45 -25l29 -4q12 5 19 12
q6 6 12 14l-2 13l36 13l31 27l78 -30l45 -9l44 -56l3 -22l4 -52l-19 13zM361 136v0l-80 37q-5 5 -13 5q-4 0 -7 -1q-15 -2 -29 -4l-37 10l-19 8l5 -6l18 37l-1 14l34 39l2 1v42l34 -27l61 -31l56 -55zM373 278v0l-70 25l14 10l-59 4l-23 37l-2 23l-46 47l-8 20l66 1
q90 -5 125 -8l-20 -40l-11 -64z" />
    <glyph glyph-name="m" unicode="m" horiz-adv-x="505" 
d="M434 -56v0l19 30l2 2l-11 20l5 52l-1 18l-26 25l3 28l15 52l-5 27l-21 19l5 72l28 39l-12 74l-1 33l13 -2l-3 21l54 1l3 -2l45 3q-1 3 -5 7q-3 4 -4 10l-98 13l-18 8l-34 -8l-33 5l-38 8l-77 -21l-41 8l-87 -11l-4 8l-39 -3l-54 37l-37 -53l-51 -6q-8 -2 -15 -8
q-7 -5 -13 -7l5 7l2 -4h1q1 0 2 1q2 1 4 1l-10 7l60 7l37 -11l12 -11q6 5 12 5q9 0 20 -15l45 -30l49 -66q1 -6 53 -111l-31 -65l-12 -32l-13 11l-21 -60l-75 -1l-18 5q4 -3 4 -8t-4 -13q-7 -15 -7 -25v-3q1 -1 4 -1l9 -1q9 0 14 3q6 2 6 4q0 1 -1 2l52 17l39 19l53 66
l24 -21v102l43 -5l69 11l31 -54q25 -32 34 -41l-10 -21l-4 -52l-6 -67l-9 -26q10 -3 15 -3l17 1l-31 -10zM349 214v0l-40 23l-56 10l-31 14v5l-5 32l-6 6l-7 43l11 -12l-31 70l-37 26l-30 25l58 7l55 -16l64 -8l47 26l32 -3l42 -85l-28 -132z" />
    <glyph glyph-name="n" unicode="n" horiz-adv-x="511" 
d="M447 -82v0q5 4 10 5t5 3t-2 5l25 29l2 -6l22 2l-13 2l-42 27v1q-3 5 -9 7q-6 1 -13 3l10 27l-96 14l-30 -2l-53 40l-4 -14l-53 33l24 5l42 39l54 -1l9 7l-8 -7l76 59l-9 2l29 19l-22 -8l23 58l-4 -4l16 10l-24 50l-12 41l16 -11l-46 40l-4 27l34 15l8 1l-3 -14l84 13
l64 13l28 -16l-31 35l20 6l-132 8l9 2l-60 -16l-58 -2l3 -8l-48 6l-13 1l-13 -18l-51 24l-23 25l-77 -32l-29 9l-52 -11l-36 -3l-10 -10l-59 -8h2q3 0 7 1q6 1 19 2l38 -3l34 5l-14 12l114 -19l-2 -41l-14 -12l-1 -52l11 -36l-8 -42q11 -10 29 -10q5 0 9 2l-2 -9
q12 10 29 23q16 13 25 26l1 42l-27 40l6 43l2 -5l-22 44l85 -17l34 -12l62 25l17 -91l-7 -3l33 -16l-6 -67l3 -40l-35 -41l-30 -19h-1q-10 0 -36 -16q-28 -17 -41 -34l-46 -10l-69 53l2 2l-67 -17h4l65 -50l-5 9l38 -9l38 -31l40 -19l53 -30l80 -55l-12 18l73 -57z" />
    <glyph glyph-name="o" unicode="o" horiz-adv-x="588" 
d="M268 -32v0l17 5q4 0 6 4t8 10l51 -2q54 15 109 31l8 -11l40 61l-10 -7q18 44 35 87q6 15 6 26v7q-1 10 -1 25v17l-15 19l2 -4q-14 17 -21 23q-6 6 -14 19t-12 21q-3 7 -16 26l-9 -33l-50 -22l-25 -49l-33 -21l-1 6q-9 4 -49 29l14 71l1 38l11 38q-4 9 -4 17q0 6 2 12
q5 13 9 30l-1 1l85 15l101 -17l26 7l18 -14l44 17q4 -1 7 -1q9 0 18 5q12 6 20 8l33 -14l7 18l-15 6l-37 -10l-23 22l-88 -14q-3 -3 -8 -3q-2 0 -6 1l-2 1q-8 0 -9 -24l-127 42l-45 -2q-4 1 -10 1t-12 -1h-6q-12 0 -27 6l-37 -24l-27 9l21 -7l-125 18l-79 -16h-19t-27 -4
q-8 -8 -13 -9q-4 -2 -10 -14q8 3 10 3q2 1 3 1q4 0 15 -12h34l73 25l49 -25l39 27l71 -11l17 -57l-1 -58l-23 -21l8 -52l-1 7l25 -13l-23 -78l14 -9l55 1q5 -1 10 -1q8 0 13 3q7 5 16 18v36l89 11l15 20l26 -116l-40 -84l12 12l-46 -50l-56 -24l-19 1q-7 -3 -9 -3t-2 2t4 7
l-104 8l-57 36l-29 35l-25 26l-14 40l2 -1l-9 25l9 16l-4 -3v4l3 -2l7 27l-37 40l-47 -42q4 -4 5 -12q0 -8 4 -14l5 -6q-3 -2 -3 -5q0 -9 14 -28q19 -28 30 -52l4 6l16 -35l-6 11l38 -47l-11 5l49 -34l8 5l41 -25zM320 -162v0q4 0 15 11q14 13 20 13v26l16 -17l-49 63l-5 2
l-6 -3h-16q-4 -9 -15 -11q-11 -1 -20 -6q3 -5 3 -12v-5q0 -10 14 -28l28 -33h14h1z" />
    <glyph glyph-name="p" unicode="p" horiz-adv-x="498" 
d="M340 -42v0l64 72l1 2l13 3l17 38l-4 89l-8 3l-34 55l4 -11l-107 51q-5 -4 -11 -4q-9 0 -31 9l-26 -14q0 -4 10 -19q-1 -37 -3 -50l-8 -7l-36 -9l37 -87q13 -2 20 -2t23 26l19 56l3 -12l-13 92l85 -73l33 -55l17 -34l-46 -32l-36 -51l-93 12l-69 -3l-40 26l-3 17l20 72
l-25 20l2 42v57v3q0 5 -3 10q-1 3 -1 5q0 4 4 4l5 52l-12 46q-1 7 -1 15q0 9 2 17q1 5 1 12q0 11 -4 27l66 -8l43 21l12 -5q47 12 70 12q21 0 69 -9l45 6l44 12l35 -18l51 21q8 0 20 2q5 1 22 12l-8 4l-31 -5l-59 -5l-79 21l-49 -10l-13 -16l-59 6l-55 18l-53 10l-55 -14
l-11 4v-6l-33 1l-29 3l-100 -20q-14 -5 -44 -17l21 11l34 -13l87 13l19 -50l-12 -2l2 -69l6 -102q3 -5 3 -12t-3 -15q-5 -19 -6 -35l18 -10l-14 -70q2 -65 3 -90l39 -33l41 19l23 -19l51 -3l34 -9l28 22zM222 -179v0q4 0 16 11q14 14 19 14v27l17 -18l-50 64l-6 3l-5 -3h-17
q-4 -9 -15 -11q-12 -2 -21 -7q4 -5 4 -12l-1 -6q0 -9 15 -28l29 -33l14 -1h1z" />
    <glyph glyph-name="q" unicode="q" horiz-adv-x="483" 
d="M269 5l-57 -43q-4 1 -6.5 1.5t-6.5 0.5q-9 3 -19.5 5.5t-19.5 5.5l-2 63q18 27 29 20t31 -1q3 -5 5 -6t5 -6l-1 1l9 -20l-1 1l17 -18zM371 -53v0q4 0 6 5l38 13q-4 5 -4 13q0 22 18 24l-9 62l-33 16l16 74l-10 8l2 65l13 45l-14 33l1 56l-1 15l5 38v4v4q0 3 -4 10l18 20
l26 -4q11 -2 19 -2h9q10 0 22 -6l56 11l1 20l-18 12l-101 -12l-39 9q-4 -8 -12 -11q-9 -2 -14 -8l-21 27l-115 -18l-52 1q-7 2 -13 2q-21 0 -21 -17q0 -5 2 -11l-69 40q-8 4 -14 4q-5 0 -18 -3v2q-11 -4 -12 -6q-2 -1 -5 -1t-11 2q-1 -4 -1 -9q0 -6 -2 -6t-5 4l-89 -15
l13 -8q4 -2 18 -2q10 0 28 1q21 2 33 2q11 0 16 -1l-7 8l123 -63l12 -13l5 9l18 -35l1 -59l-7 -32l-26 -32l-21 -36l-54 -47l-30 -43q12 -1 24 -1h13q31 2 45 30q6 12 18 25l38 -3l29 4l123 -54l5 -46l-4 5l12 -32l18 -7l-8 -73q18 -7 20 -7zM329 113v0l-54 68l-27 -3v-1h-9
v0q0 -1 12 -9l-88 11l23 19q1 14 16 29q16 15 31 16l-18 84l5 28l-7 -6l-14 51l23 4l-71 40q97 -9 120 -10q14 6 25 6q5 0 10 -1q2 -1 4 -1q12 0 23 16l12 -113l-2 -44l17 -106z" />
    <glyph glyph-name="r" unicode="r" horiz-adv-x="466" 
d="M342 -32v0q6 0 13 1q7 27 7 31q0 6 -4 14l3 11l-21 16l-39 62l10 -6l-32 20v2q-10 3 -20 19l8 10l-97 20l-27 26l-22 96l35 21l19 74l24 22l40 2l67 -59l7 -68l-17 -14l-16 -14l12 -43v-1q0 -5 21 -12l-8 -1l13 -6l60 47q-1 16 -1 24l-13 66l17 -5l-42 60l10 -5l-39 35
l-1 -5l-47 37v0v0q0 1 6 10l-77 -22l-45 -37v-8l-22 -11q-13 -4 -17 -12q-5 -8 -15 -12l-11 3l-18 -55q0 -24 4 -47l-8 1l22 -24l16 5l25 -52l7 -6l35 -17l31 -11l-7 -1q1 2 4 2q9 0 20 -19l55 -27l10 -37h-1l-2 -3v-29l16 -65l4 3h10q12 0 19 -3q8 -3 19 -3z" />
    <glyph glyph-name="s" unicode="s" horiz-adv-x="412" 
d="M367 -28v0l27 16l1 27l10 20l1 -2l-36 20l-18 5l-62 44l2 -7l-57 18l-23 12l-27 26l-34 -9l-73 70l-32 9q0 -1 -1 -1l-4 1q-2 0 -2 -1t4 -3l-3 -29l-10 4l13 -11l-7 -14l73 -16l22 -18l-9 -5l54 -25h2q11 0 18 -6t22 -15l18 -17v4l13 -38l89 -20l21 -36zM174 253v0l27 15
l46 -8l43 72l-7 2q1 2 1 6q0 7 -3 17q-5 17 -5 32l-6 -2l-15 33l11 -4q-14 2 -26 9q-13 6 -31 15q-6 -3 -13 -4q-6 0 -10 -1l19 4l-73 -35l-17 -42l12 -66l-6 9l20 -29l-11 4zM173 268v0l-29 91l60 79l43 -101l-46 -42z" />
    <glyph glyph-name="t" unicode="t" horiz-adv-x="330" 
d="M169 231v0l50 14l15 -12l28 49l5 -10l-6 49h-8l-5 33l2 -3q-7 13 -11 17t-12 13l8 -9l-33 28l-17 8q-6 -10 -18 -12t-19 -2q-5 0 -9 1l-38 -22l-17 -34l4 -38l4 -12l-24 7l73 -49l-20 -4zM213 -3v0l27 32l22 52l-1 -7q-8 15 -8 27q-1 13 -2 21l1 6l-24 26l14 -9l-52 20
h-15q-7 0 -15 2l-6 -2l18 3l-73 -21v-9v-14q-1 -8 -1 -17q0 -11 1 -24l-2 -18v3l18 -42l-1 5l27 -21l8 -1l28 -8h-3h15h3q6 0 21 -4zM214 36v0l-65 5l-10 44l45 58l27 -36l-10 -23zM160 238v0l-19 84l9 30l37 15q23 -37 46 -73z" />
    <glyph glyph-name="u" unicode="u" 
d="M-112 554v0q11 0 24 10l61 -8l35 86v2l8 7v18q-6 -2 -13 -2q-6 0 -13 1l-5 -31l-78 -59l-60 37q-7 48 -9 56l-55 -16l37 -53l-5 -5l29 -19l32 -10l10 -14h2zM-86 633v0l10 2q2 0 7 7q3 4 5 4q1 0 2 -2q4 12 4 19q0 5 -2 7q-4 4 -5 15v-1h-1t-6 4q-8 5 -14 10l-2 1l-14 -3
l-12 -19l2 -5l-5 -2l21 -35z" />
    <glyph glyph-name="v" unicode="v" horiz-adv-x="194" 
d="M113 -55v0h5l27 21l-25 86l28 16l-37 71l4 60l13 55l-13 43l11 50l6 33l-3 48l-11 15l54 17l43 -1l-2 -4q13 -2 31 -2q14 0 31 1l9 27l-19 -2l6 -3l-71 4l-17 -3l-71 -1l13 13l-3 5l16 13l-55 -9l-13 -13l7 4l-62 17l-94 -38l-6 -14q14 -9 30 -9q7 0 15 2q9 2 20 2
q21 0 48 -6l40 -26l14 -53l-8 -24l2 -27l-6 -50l-27 -28l38 -114l-22 2q0 -98 2 -145l8 -2l21 -22h-1q13 -2 16 -5q3 -4 8 -4z" />
    <glyph glyph-name="w" unicode="w" horiz-adv-x="192" 
d="M130 -53v0q2 9 15 98q-1 10 -1 16v6l-20 30l-15 -11l-5 127l40 64l-28 99l11 46v1v2h1q0 1 -3 1l-7 -1l50 31l59 6l12 -1l31 11l-32 6l2 -1q-9 1 -12 1q-4 0 -4 3t6 13l-97 -8l-24 8l11 6q-2 10 -2 16t1 10q1 1 1 3q0 6 -8 13l21 40l34 53l7 29l81 3l60 14l53 9l38 -27
l60 -2l43 -31l49 -32q9 25 14 30q5 6 15 15l-6 9l-121 31l14 1l-50 16l-38 -7l7 5q-14 -3 -27 -3q-15 0 -28 3q-12 3 -24 3q-13 0 -27 -3l-52 11l-27 -14l-12 14l-86 -40l-29 -27l10 6q-5 -20 -12 -34q-8 -14 -17 -31l5 4l8 -16l-18 -58h-6l26 -39l-77 20l-20 -6l-11 -29
l91 -27l26 -51l-17 -41l4 -92l-8 -14l4 -60q2 -3 2 -7v-5q-1 -2 -1 -5q0 -6 3 -16l-11 -13l8 -83l-15 -16l-9 -59l55 -15l-1 1q10 -3 16 -4q5 -1 14 -5z" />
    <glyph glyph-name="x" unicode="x" horiz-adv-x="197" 
d="M119 -46v0l26 1l-21 60v26l2 72l-2 -9l5 22l-5 34l-6 83l2 46l10 15l-10 3l-3 29l7 84l16 -8l-14 55l65 -15l-20 12l76 -4l85 19l-21 -2l8 -33l-147 30l-43 7l-4 20l12 7l3 44l-17 50l-3 4l-10 24l12 -10l-51 41l-6 20l-56 11l-2 7l-28 1l11 -10l-38 22l-42 -3l8 -10
l-32 -5l-71 -1l-16 5l-35 1l-58 -27q-15 -7 -22 -7q-3 0 -4 1l37 -13h7l22 1q7 0 7 -2q0 -1 -1 -2l73 -28l65 -6l37 -31l29 -7l-1 -65l-9 -33l-10 -20l-8 -2l56 -5l16 -17l31 41l45 -99l-15 10l28 -73l4 -47l-23 -15l-2 -122l-10 -24l1 -62l3 2v-7q0 -12 -2 -23
q-3 -15 -7 -22h-5q-3 -3 -3 -8l1 -7q0 -7 -11 -15l62 -10l18 3zM69 505v0l-27 15l-45 -12l-2 20l-2 -2l-9 18q-6 9 -10 21l-4 2l-20 27q-2 2 -6 2t-18 17l-52 31l-33 26l-60 -14l-28 12l9 -5l69 21l23 2l8 -6l32 8l38 7l32 -29l72 2l28 -81q7 -38 10 -62z" />
    <glyph glyph-name="y" unicode="y" 
d="M-130 -261v0q6 0 11 2q9 3 19 3q6 0 13 -1q7 11 19 12t19 7l-6 -3q2 7 9 14t15 14l-5 -4q3 9 8 18t8 22l-10 2l4 57l16 9l-61 34l29 2l59 -38l31 -32l8 -38l-5 -9l20 8l-12 -40l26 -19l32 -16l24 33l-39 38l-8 25l15 -3l-81 73h7l-52 20l6 5l-33 -1l-48 4q-3 1 -7 1
q-5 0 -10 -2q-9 -4 -16 -6l14 4l-64 -11l5 -3q-8 2 -14 2q-10 0 -16 -6q-10 -10 -26 -12q-6 -2 -12 -6t-10 -7l12 -2l-23 -20l4 1q-4 -11 -4 -22l1 -25l2 11l18 -36l17 -26l3 15l48 -20l27 -12l-2 -12q8 -4 15 -4zM-118 -252v0l-47 29l-32 21l-6 37l-7 2l18 72l93 2l46 -79
l4 -41z" />
    <glyph glyph-name="z" unicode="z" 
d="M-300 -238v0q6 0 11 2q9 3 19 3q6 0 13 -1q7 11 19 12t19 7l-6 -3q2 7 9 14t15 14l-5 -4q3 9 8 18t8 22l-10 2l4 57l16 9l-61 34l29 2l59 -38l31 -32l8 -38l-5 -9l20 8l-12 -40l26 -19l32 -16l24 33l-39 38l-8 25l15 -3l-81 73h7l-52 20l6 5l-33 -1l-48 4q-3 1 -7 1
q-5 0 -10 -2q-9 -4 -16 -6l14 4l-64 -11l5 -3q-8 2 -14 2q-10 0 -16 -6q-10 -10 -26 -12q-6 -2 -12 -6t-10 -7l12 -2l-23 -20l4 1q-4 -11 -4 -22l1 -25l2 11l18 -36l17 -26l3 15l48 -20l27 -12l-2 -12q8 -4 15 -4zM-288 -229v0l-47 29l-32 21l-6 37l-7 2l18 72l93 2l46 -79
l4 -41z" />
    <glyph glyph-name="asciitilde" unicode="~" 
d="M143 -259l-27 18h-8l-28 12l4 -1l-71 98l-19 -20l-1 -2l-65 -35l-20 1q-12 0 -25 0.5t-26 1.5l-32 62h2q-3 6 -7 17t-9 21l20 21l-2 12l58 13l21 -8l-25 -10l-36 -62l40 -46l-14 8v-7l45 -11l32 15l8 22h-2l10 18l33 13l47 -22q-2 2 4 -4l8 -8l52 -61l23 -26l17 -31l-8 9
z" />
    <glyph glyph-name="quotesinglbase" unicode="&#x201a;" 
d="M139 -259l-27 18h-8l-28 12l4 -1l-71 98l-19 -20l-1 -2l-65 -35l-20 1q-12 0 -25 0.5t-26 1.5l-32 62h2q-3 6 -7 17t-9 21l20 21l-2 12l58 13l21 -8l-25 -10l-36 -62l40 -46l-14 8v-7l45 -11l32 15l8 22h-2l10 18l33 13l47 -22q-2 2 4 -4l8 -8l52 -61l23 -26l17 -31l-8 9
z" />
    <glyph glyph-name="quotedblbase" unicode="&#x201e;" 
d="M-143 -187l-30 17l5 25l5 31l31 33l22 20l23 22l-23 3q-11 -1 -16.5 -2t-16.5 -2l-14 -23l-23 -33l3 3l-3 -30l-61 -50l72 -38l60 -37l14 -12q8 0 14.5 -0.5t16.5 -0.5q4 5 9.5 10.5l10.5 10.5l-34 17z" />
    <glyph glyph-name="dagger" unicode="&#x2020;" horiz-adv-x="261" 
d="M282 -77v0l-23 58h-5q-2 0 -29 -10l-26 -15l-42 13l-45 57l13 38l-5 -2q3 15 7 32q3 18 20 32l-9 57q6 5 6 15t-15 19l30 54v0q0 1 1 1l-7 -3l28 40l28 77l-2 1l46 38q58 29 60 31q3 -1 7 -1q7 0 14 5q8 5 16 5q5 0 11 -2l45 -14l-87 16l-51 2l-74 19l6 3l-34 -10
l-15 -35l9 -18l-8 -9q-7 -3 -7 -11q0 -3 1 -6v-6q0 -10 -8 -13l22 -38l-28 -86l-27 -25l-11 -45l1 1q0 -2 13 -10l-54 -52l-8 18l-14 -77l5 12l11 -29v0v0l4 1l22 -5l22 1l-11 -8q1 -4 5 -8l4 -5q12 -13 30 -34q26 -13 38 -5l94 -57z" />
    <glyph glyph-name="daggerdbl" unicode="&#x2021;" horiz-adv-x="261" 
d="M0 436v0l107 22l61 -16q17 24 26 44l8 -3l-44 -18l-50 11l-50 -8q-60 2 -80 6q-9 1 -16 1q-12 0 -12 -5q0 -4 5 -9q14 -17 14 -20v0q12 3 19 3q12 0 12 -7v-1zM282 -77v0l-23 58h-5q-2 0 -29 -10l-26 -15l-42 13l-45 57l13 38l-5 -2q3 15 7 32q3 18 20 32l-9 57q6 5 6 15
t-15 19l30 54v0q0 1 1 1l-7 -3l28 40l28 77l-2 1l46 38q58 29 60 31q3 -1 7 -1q7 0 14 5q8 5 16 5q5 0 11 -2l45 -14l-87 16l-51 2l-74 19l6 3l-34 -10l-15 -35l9 -18l-8 -9q-7 -3 -7 -11q0 -3 1 -6v-6q0 -10 -8 -13l22 -38l-28 -86l-27 -25l-11 -45l1 1q0 -2 13 -10
l-54 -52l-8 18l-14 -77l5 12l11 -29v0v0l4 1l22 -5l22 1l-11 -8q1 -4 5 -8l4 -5q12 -13 30 -34q26 -13 38 -5l94 -57z" />
    <glyph glyph-name="copyright" unicode="&#xa9;" 
d="M-25 697l9 18l-5 12q-1 1 -1 0.5t-2 0.5q-14 -7 -27 -12t-27 -12q-8 -5 -16 -12.5t-16 -12.5h1l-38 -30l-50 -41l-19 -16l26 -21q2 -1 6.5 -2t11.5 -2l31 30h-1l17 27l75 67z" />
    <glyph glyph-name="parenleft" unicode="(" horiz-adv-x="340" 
d="M198 -138v0q8 0 16 1l-6 30l2 -1l-21 25l22 -6l-68 58h-1q-16 0 -31 17q-12 15 -20 15h-3l3 67l11 24l-24 76l22 46l-22 48v48l27 45l8 45l22 43l19 87l40 9l29 50l24 10l-16 12l-26 -23l-1 -27l-60 -41l14 -14l-55 -35q-1 -3 -15 -28l3 2q1 -2 1 -3q0 -2 1 -2l6 14
l-42 -60l12 -2l-47 -119q-4 -33 -4 -45q0 -14 6 -35q-2 -5 -2 -14q0 -6 1 -15l1 -5q0 -16 -14 -21q27 -65 38 -98l-5 2l11 -14l-25 -5l70 -62l-3 -6l28 -18l7 -20l9 -4l23 -28l-12 2l37 -20l-15 -4q14 -1 22 -1h3z" />
    <glyph glyph-name="parenright" unicode=")" horiz-adv-x="414" 
d="M239 -124v0l28 20l-5 13l36 19l23 34l27 38l5 -3l3 27v-3q-3 10 -3 17q0 5 1 9q2 3 2 7q0 6 -5 13l-4 53l58 142l-33 67l-4 29l-9 11l-16 57l-5 1l-15 32l13 12l-48 34q-8 9 -36 35l-1 7l-21 10l-1 -2l-12 1l-37 19l4 10l44 -24l30 -33l28 -13l9 -67l-1 3q12 -30 35 -100
l21 -70l2 -38l14 -28l-26 -32l-9 -96l-7 -23l-80 -127l-21 -21l-28 -24v-1q0 -2 4 -10q7 2 13 2q4 0 8 -1z" />
    <glyph glyph-name="bracketleft" unicode="[" horiz-adv-x="350" 
d="M186 -122v0l36 9v8l-16 14l10 -2q-27 1 -58 28l-47 -20l-27 70l-2 23l11 66l21 -5l-39 80l-6 22l-20 18l9 50l-6 63l1 42l32 69l-23 29l2 63l36 44l65 2l42 10q12 1 12 4q0 2 -5 4l-35 20l1 -8l-50 36l-60 -20q-3 -3 -34 -20l-11 -38l16 -79l-6 -30l-3 -26l11 -98
l-11 -130l3 -21l-4 -25l6 -64l2 -2l-5 -36q-8 -7 -9 -25q0 -18 -5 -37v-28l12 7l10 -53l3 -4q2 5 8 5h4q5 0 5 3l26 -9l3 1q3 0 14 -4q40 -2 81 -6z" />
    <glyph glyph-name="bracketright" unicode="]" horiz-adv-x="429" 
d="M313 -129v0q16 1 27 5q10 5 22 10l8 14l-21 21l2 56v69l12 18l-12 68q-1 27 -1 34l-27 30l13 74q11 47 11 54q0 6 -9 28l20 29q-7 94 -7 98q0 5 2 12l23 -11l-34 92l27 34q-3 0 -4 2l-26 24l-73 -24l-59 3q-21 -12 -35 -52l10 20l118 -8l-11 -42l19 -127q-2 -1 -2 -11
q0 -11 -9 -11l-3 1l6 -55l-6 -68v-45l15 -25l-25 -37l15 -64l-9 -24h5q-6 -9 -6 -19v-6q2 -15 7 -17l-27 -53l-4 -45l-50 -3q-3 1 -6 1q-7 0 -13 -5q-11 -9 -26 -12q0 -3 -2 -7q-1 -5 -1 -11h9q3 0 7 -11l48 27z" />
    <glyph glyph-name="braceleft" unicode="{" horiz-adv-x="364" 
d="M165 -149v0v2q0 4 3 6t3 4l-1 2l-35 10l12 80l-12 41v11q0 7 2 11l-1 11l4 -3l-4 23l6 13l-8 5l1 33l-10 16l-18 49l-3 -2l-6 14l35 82l20 55l3 -7l-2 28h25l-48 69v2l-5 6l-14 45v24l40 66l50 22h23l-3 24l-63 -15q-9 -5 -14 -9q-4 -4 -9 -7l-4 4q-8 -13 -22 -22
q-15 -10 -24 -22l12 -4l-22 -23l-8 -34l1 -9q0 -7 -2 -13l3 -7l11 -13l9 -44l-10 7l15 -16l-5 -105l-46 -31l-14 -24l32 -34l13 -32l3 -29q-3 -1 -8 -2l16 -70v-40l-8 -9l8 -33l-9 -47v-3l-4 -16l73 -37l-3 2q8 -2 12 -2h1q3 0 9 -3z" />
    <glyph glyph-name="braceright" unicode="}" horiz-adv-x="414" 
d="M295 -141v0l33 19l8 37l3 -10l5 75q-2 5 -2 13q0 7 8 10l-10 44l-7 47l-6 4v16l17 51l40 45l-2 -4q-3 2 -4 4v2q-1 0 -2 -5l-22 14l-47 42l16 50l6 74l4 21l7 8l-2 -5q-2 12 -2 22q0 13 3 20t3 16t-2 19l4 -6q-2 19 -16 30q-15 11 -25 24l4 -2l-10 7l-8 31l-62 17l-43 -9
l-10 3q-2 -1 -4 -3l12 23l44 -16l35 -24l23 -25l29 -40l-37 -44l-7 -88h3q-7 -3 -7 -12l1 -10q0 -7 -1 -13q0 -4 12 -13v-45l-9 22l53 -66l-14 -33l-19 -65h3q-1 -13 -6 -18q-6 -5 -6 -17v-2q-6 -6 -6 -18l1 -20q0 -7 -1 -14v-13l16 -5l13 -71l-18 -63l-59 -31l2 4q7 3 16 3
l28 -2z" />
    <glyph glyph-name="bar" unicode="|" horiz-adv-x="413" 
d="M344 -2v0l4 83l4 -6l2 32q-19 74 -21 82l8 79v3q0 3 2 6v1q0 3 -12 4q9 54 18 107q-8 6 -10 8q-32 2 -39 2l-22 -19l8 -40l-6 -16l24 -109l-20 -22l11 -74l-6 -20v1q5 -12 5 -22q0 -5 -1 -9q-4 -10 -4 -20v-1l-8 -22l-2 8l13 -28q24 3 47 4z" />
    <glyph glyph-name="plus" unicode="+" horiz-adv-x="600" 
d="M292 29v0q4 0 9 2q4 2 6 2q1 0 1 -1l9 17l5 -11l-6 34l15 61l-11 64l1 9l42 -20q97 7 120 8q2 6 2 12v7q0 6 1 11l4 -3l-9 21q-5 5 -9 5h-5h-7h-2q-9 0 -10 -1l-13 4l-18 -26l-109 11l1 65l-5 31l18 52l1 -1v2q0 4 -2 6l8 -4q-12 9 -17 14q-6 6 -14 9q-6 -2 -10 -2
q-3 0 -5 1h-5q-5 0 -13 -1q1 -11 1 -19v-27l-8 -4l19 -32l-8 -29l-3 -58l-94 13q-32 -1 -33 -1q-12 1 -13 3t-6 2t-14 -2l2 -22q0 -12 3 -19l-6 -3q6 -6 6 -14v-3q7 4 15 4h7q9 0 11 14l77 -21l21 6l33 -36l9 -22l-10 -48l-2 -27l-10 -13l24 -19q3 -1 6 -1z" />
    <glyph glyph-name="hyphen" unicode="-" horiz-adv-x="481" 
d="M290 186h1h-54l-42 3q-14 -1 -28.5 -2.5t-28.5 -2.5q-11 4 -21.5 8t-21.5 8l37 34l11 -3l38 3q13 0 25.5 0.5t25.5 0.5l31 -12l24 6h-1l22 4l32 6q6 1 13.5 3t14.5 4l42 -24l-12 -1l8 -17v1q0 -4 -0.5 -7.5t-0.5 -8.5q-14 -1 -21 -2t-21 -2h2l-52 3z" />
    <glyph glyph-name="hyphen" unicode="&#x2010;" horiz-adv-x="481" 
d="M290 186h1h-54l-42 3q-14 -1 -28.5 -2.5t-28.5 -2.5q-11 4 -21.5 8t-21.5 8l37 34l11 -3l38 3q13 0 25.5 0.5t25.5 0.5l31 -12l24 6h-1l22 4l32 6q6 1 13.5 3t14.5 4l42 -24l-12 -1l8 -17v1q0 -4 -0.5 -7.5t-0.5 -8.5q-14 -1 -21 -2t-21 -2h2l-52 3z" />
    <glyph glyph-name="hyphen" unicode="&#x2010;" horiz-adv-x="481" 
d="M290 186h1h-54l-42 3q-14 -1 -28.5 -2.5t-28.5 -2.5q-11 4 -21.5 8t-21.5 8l37 34l11 -3l38 3q13 0 25.5 0.5t25.5 0.5l31 -12l24 6h-1l22 4l32 6q6 1 13.5 3t14.5 4l42 -24l-12 -1l8 -17v1q0 -4 -0.5 -7.5t-0.5 -8.5q-14 -1 -21 -2t-21 -2h2l-52 3z" />
    <glyph glyph-name="asterisk" unicode="*" horiz-adv-x="473" 
d="M288 255l-1 -24l59 -1l4 2l62 1h7l10 -22l10 -22l-10 -9l-67 8l-12 2l-80 1l17 -17l-4 2l12 -30l25 -16l-10 -2l30 -58q1 -4 5 -12l-48 -4l-12 24l-37 69l-53 -80l-15 -29l-13 2h4q-12 5 -23 9.5t-23 9.5l16 17q9 17 18.5 33.5t18.5 33.5l19 32l-92 14l-29 -5
q-3 8 -6.5 17t-5.5 17h1l-2 15l10 -3l114 1l-26 50l-28 55h1l-6 13l29 27l-8 -1l16 4l6 -17l10 -25l33 -80l21 -21l35 80l20 44l-10 3l38 17l19 -8q2 -2 5 -3t6 -3l-23 -59l2 1l-15 -22h1z" />
    <glyph glyph-name="slash" unicode="/" horiz-adv-x="620" 
d="M137 -89v0l82 23h-19l30 49l-4 -24l38 99l1 37l25 -3l32 102l17 37l-8 8l24 21l30 69l4 -3v6q0 11 8 24q10 15 19 33l2 11l16 33l22 -7l5 77l-1 -3l4 28l-41 2l2 -1q-7 2 -9 3q-2 0 -7 5l-9 -11l9 14l-25 -90l-21 -42h-5l-39 -85l-13 -66l-35 -47l-14 -35l-27 -56l20 -16
l-61 -66l-7 -39q-28 -46 -30 -48z" />
    <glyph glyph-name="equal" unicode="=" horiz-adv-x="623" 
d="M302 149l-53 9l-54 -8l-33 -4l-20 22l5 -6l19 41h8l49 4l53 -10l43 -8l52 6q7 0 17.5 -0.5t17.5 -0.5l76 -3h6q2 -8 4 -15.5t4 -15.5l-4 -12l-56 -2l-34 3l-36 4h-45zM346 279h2l-32 4h-20l-61 -5l-55 -4l-30 -3l-9 21l4 14l-2 -1l17 32l31 -7l56 -1q7 0 15 0.5t15 1.5
l34 -17l31 14l28 -7l76 9l44 -6l8 -26q0 -6 0.5 -12t1.5 -11l-32 3l-26 1h-56h-40z" />
    <glyph glyph-name="Ntilde" unicode="&#xd1;" horiz-adv-x="470" 
d="M254 344l-31 5l-37 -4l-75 -7l-21 -2l-39 29l36 31l24 -1l-5 -1l30 3h-4l63 -7l91 -11l9 8l-1 1l-2 1l59 1q6 1 12 2.5t12 2.5l23 -8l26 2q-2 -11 -3 -19.5t-3 -19.5l-112 -10l3 -3l32 -4h-49z" />
    <glyph glyph-name="comma" unicode="," horiz-adv-x="213" 
d="M177 -21q-1 -15 -2.5 -29.5t-3.5 -25.5h8l-45 -32l-15 -11h1l-35 -27l-2 -2l66 69q0 13 -1 25t-1 25v-1l7 40l-42 -26l-39 -15q-5 8 -7.5 12.5t-7.5 12.5l16 13q6 11 12.5 20t15.5 14l-11 3l47 17l15 -3l8 -17l24 -54z" />
    <glyph glyph-name="semicolon" unicode=";" horiz-adv-x="212" 
d="M177 -21q-1 -15 -2.5 -29.5t-3.5 -25.5h8l-45 -32l-15 -11h1l-35 -27l-2 -2l66 69q0 13 -1 25t-1 25v-1l7 40l-42 -26l-39 -15q-5 8 -7.5 12.5t-7.5 12.5l16 13q6 11 12.5 20t15.5 14l-11 3l47 17l15 -3l8 -17l24 -54zM81 155q-1 3 -3.5 9t-4.5 10l10 11q10 3 19 6.5
t17 6.5q8 -3 17 -6t16 -7l-10 -6l26 -27l-28 -41l11 -11l-37 9l-38 4l3 39z" />
    <glyph glyph-name="period" unicode="." horiz-adv-x="185" 
d="M40 42l25 31l22 5q11 -3 23 -4t16 -9l-11 3l5 -9q0 -5 2 -9l1 -16q0 -4 -0.5 -8.5t-0.5 -8.5l2 2q-3 -7 -8 -15t-9 -15l-25 -9q-3 0 -7 2q-5 1 -8 2t-8 3l-14 44z" />
    <glyph glyph-name="colon" unicode=":" horiz-adv-x="226" 
d="M90 374l3 11l-9 2l27 14l55 -13l-22 -3l3 6l19 -27l-4 -14l-4 -14l2 1q-3 -6 -8 -13.5l-9 -13.5q-8 -2 -11.5 -2t-9.5 -1q-4 1 -7 0.5t-6 0.5l-27 20l6 18zM87 108l3 23l28 11q1 0 5 2l35 -15l-9 -1l21 -20l-4 -13l2 1l-16 -30l3 2l-19 -20l-24 2l-31 39l6 2v17z" />
    <glyph glyph-name="less" unicode="&#x3c;" horiz-adv-x="465" 
d="M270 141l29 -21l34 -25l-8 -2l1 -36q-12 -2 -19.5 -3t-17.5 -3l6 10q-9 10 -20 23t-20 24l-32 38l-32 23l-32 23h1l-43 33l30 27l40 34l28 37l38 50l-2 8l81 21l21 -3l-6 -10l12 4l-54 -44l-52 -50l-31 -34l-40 -45l16 -8l-8 -5l20 -21z" />
    <glyph glyph-name="greater" unicode="&#x3e;" horiz-adv-x="441" 
d="M260 185l19 28l-6 -1l16 8l-40 45l-32 34l-52 50l-53 44l12 -4l-6 10l20 3l88 -31h-12l42 -48l28 -37l39 -34l32 -27l-44 -33h1l-32 -23l-32 -23q-8 -8 -16.5 -19t-15.5 -19l-40 -47q3 -6 6 -10l-21 3t-16 3v42l-7 -4l33 25q7 5 15 10.5t15 10.5h-1z" />
    <glyph glyph-name="question" unicode="?" horiz-adv-x="547" 
d="M263 62v0q-2 6 -7 19t-11 26l1 9l-16 36l85 74l47 14q39 14 50 17l35 28l-5 26l-1 63l6 -7q-15 13 -24 24q-10 10 -20 17l-7 15l-73 31q-4 -1 -9 -1q-4 0 -9 1t-11 1q-5 0 -11 -1l-45 20l-51 -77l9 3l-22 -29l4 8l-7 -22l-7 -58l-17 -15q18 -15 36 -16q18 0 42 -9l8 16
l14 44l-12 5l-5 31l-14 36l32 47l100 -5l33 -74l14 -22l1 -22l11 -17l-23 -19l11 -2l-12 -14l-36 -8l-24 10l-58 -72l-2 10l-49 -26l-19 -49l-7 -8q3 -4 3 -9q0 -4 -2 -10q-5 -13 -5 -24q0 -2 2 -2h1q11 -10 25 -10q4 0 8 1q7 1 13 1q14 0 30 -5zM233 -73v0l47 36l-10 27
l-1 -5l-6 19l5 -2l-14 14l4 1q-3 2 -10 5q-6 4 -18 6l-16 -11l-17 -21v4q0 -8 -2 -13q-2 -6 -2 -11v-3l13 -16v-15l26 -14l5 1z" />
    <glyph glyph-name="quotedblright" unicode="&#x201d;" horiz-adv-x="295" 
d="M87 -49v0l40 18q-3 -1 -6 -1q1 11 3 15q1 4 1 12v15l58 31l10 12l22 -8l41 66l29 24l16 49l72 57l31 18l-63 22l12 28l-103 6l-20 -2l-56 39l-41 24l-14 58l34 12l104 17l39 -10l42 8l31 -9l46 2l24 2l36 8l-23 -7h67l22 13l-36 8l-83 4l-18 -8l-45 3l-42 13l-75 -13
l-52 -6l-69 11l-6 14l-34 4l10 1q-146 -40 -151 -42l-3 -3l106 -15l28 -43l-8 -24l5 -16l-23 -48l21 -90q2 -9 2 -16q0 -8 -2 -8q-1 0 -3 7l5 -99l-4 -17l11 -80l-13 -23zM99 78v0l23 63l-9 20l7 11l24 101l-37 101l45 -44l16 8l11 -10l-5 -10l45 4l51 -31l1 -5
q23 -12 37 -16q13 -3 25 -3h10l-5 -17l-37 -16l19 -10l-66 -33q-29 -15 -41 -29q-13 -15 -29 -50z" />
    <glyph glyph-name="quoteright" unicode="&#x2019;" horiz-adv-x="400" 
d="M316 -46v0l12 5q5 8 21 11l-23 116l-17 74l16 39l4 60l-18 24l15 75q4 5 4 12q0 4 -1 8q-1 3 -1 6q0 5 5 5l2 -1l29 55l72 20q0 2 5 4t7 3h-1q-1 0 -4 1h-5h2q-4 1 -6 1h-1q-4 0 -26 20l-79 -14l-12 16q-7 -3 -17 -3h-8q-10 0 -15 -2l-16 7l-4 -24l10 9q-7 -13 -7 -24
q0 -9 4 -16q8 -17 11 -45l19 -38l-16 -36l6 -35l31 42l-68 -168l-26 -2h-48q-10 6 -19 6q-3 0 -6 -1q-11 -3 -25 -3l-4 5l47 52l-5 -2q8 5 11 18l-3 -17l8 84v6q0 2 1 2q4 0 13 -7l-21 83l20 17l-74 29l12 3l-48 21q-4 2 -7 3t-7 5q-3 -5 -12 -5h-6q-7 0 -13 -1l5 -7l-24 -4
l14 17l-60 -53v9l-17 -44l3 1q1 -3 1 -6q0 -6 -2 -10q-4 -6 -4 -14l10 -1l-7 -64q1 -1 9 -26l-12 8l64 -42l26 59q-4 10 -8 17q-3 7 -3 12l3 -1l-8 1q-1 3 -5 3q-2 0 -5 -1q-8 -2 -14 -2l3 35l-15 10l91 91l51 -78l10 -18l-9 -22l-4 6l7 -24l-17 -13l20 18l-45 -95l-37 -37
l-22 -24q-71 -48 -78 -55l5 -26l-1 5l39 -8l37 10l-3 -12l64 58l32 32l70 -33l29 -18l40 -83l-17 -68q-1 0 -3 4l-1 3q0 2 4 2q12 0 66 -15z" />
    <glyph glyph-name="quoteleft" unicode="&#x2018;" horiz-adv-x="203" 
d="M-107 -63v0l30 12q31 3 89 9l2 5l42 -3l41 42l-6 10l29 19l-2 1q10 8 14 13q5 6 9 12l-5 1q2 3 2 12q0 7 -2 26l-12 18l13 69l27 18l-63 34l7 -8l-41 25l-60 50q-10 5 -15 7t-5 4v1l-43 -7l-71 9l-15 -2q0 -5 1 -7l-8 -3l21 -16l5 -31l-13 -28l7 -60l-3 -61l3 -21
q7 0 14 -2q6 -2 8 -2q6 0 7 5l45 1l-11 2l14 14l-5 -15l7 56l-1 1l5 -9l-38 30l-9 12l17 61l32 23l28 -4l58 -22l29 -24l3 -18l-4 -1l20 -4l9 -67l-4 1q1 -8 1 -15q0 -10 -3 -18q-4 -12 -22 -23l-13 -50l-26 4l-60 -55l-35 -26l-65 38l-1 2q-13 2 -21 6q-8 5 -23 6l-16 38
l-54 56l-31 60l-28 -14l-16 -34l47 -58l14 6l32 -34l34 -48h-20q65 -18 104 -29zM-200 444v0l72 23q4 -2 10 -2q3 0 5 1q8 1 12 4l93 -18l60 7l59 12l23 -13l56 15l33 -11l-12 29l-7 -6l-89 14l-38 -18l-82 3l-64 5l-1 9l-56 -16l-52 3l-26 -35zM-80 -248v0q6 0 11 2
q9 3 19 3q6 0 13 -1q7 11 19 12t19 7l-6 -3q2 7 9 14t15 14l-5 -4q3 9 8 18t8 22l-10 2l4 57l16 9l-61 34l29 2l59 -38l31 -32l8 -38l-5 -9l20 8l-12 -40l26 -19l32 -16l24 33l-39 38l-8 25l15 -3l-81 73h7l-52 20l6 5l-33 -1l-48 4q-3 1 -7 1q-5 0 -10 -2q-9 -4 -16 -6
l14 4l-64 -11l5 -3q-8 2 -14 2q-10 0 -16 -6q-10 -10 -26 -12q-6 -2 -12 -6t-10 -7l12 -2l-23 -20l4 1q-4 -11 -4 -22l1 -25l2 11l18 -36l17 -26l3 15l48 -20l27 -12l-2 -12q8 -4 15 -4zM-68 -239v0l-47 29l-32 21l-6 37l-7 2l18 72l93 2l46 -79l4 -41z" />
    <glyph glyph-name="circumflex" unicode="&#x2c6;" horiz-adv-x="266" 
d="M289 -82v0l-28 58h-2h-2h-3h-5l-50 -24l-50 28l-31 37l5 44l3 2q-5 9 -5 20q0 24 22 59l-5 41q4 10 4 18q1 8 11 20l5 51q0 1 1 2v0q0 2 -3 33l23 22l30 62q6 8 38 44l66 25l-1 4q10 2 23 6t37 9l43 -6l-97 -1l-56 23l-6 11l4 27l-1 -1l-1 3q0 5 4 11v2q0 9 -7 33l-3 -11
l-41 80l5 3l-13 6h2q-13 18 -31 23l-17 10l-75 26l3 2q-1 0 -7 7q-5 5 -28 5q-8 0 -18 -1l-81 19l-15 -40l58 15l65 -14l33 -15q1 -1 4 -1l5 1q6 0 7 -8l28 -11l-16 1l42 -17l38 -40l-4 -35l1 -42l-3 -51l11 -4l-54 -8l1 -32l11 -15l-16 -6q-3 -6 -3 -14q0 -4 1 -9v-4
q0 -11 -8 -12l14 -55l-35 -64l-16 -34l-9 -50l1 3l1 -2q-1 0 -6 9l-37 -71l11 -18l-32 -44l8 10l8 -26q1 0 7 -1q7 -2 14 -3l22 5l-6 -11q5 -7 7 -10q3 -4 4 -4t2 1q6 -7 29 -28q22 -21 35 -37l-4 -1l29 -31l78 10l22 -19h5z" />
    <glyph glyph-name="perthousand" unicode="&#x2030;" horiz-adv-x="266" 
d="M289 -82v0l-28 58h-2h-2h-3h-5l-50 -24l-50 28l-31 37l5 44l3 2q-5 9 -5 20q0 24 22 59l-5 41q4 10 4 18q1 8 11 20l5 51q0 1 1 2v0q0 2 -3 33l23 22l30 62q6 8 38 44l66 25l-1 4q10 2 23 6t37 9l43 -6l-97 -1l-56 23l-6 11l4 27l-1 -1l-1 3q0 5 4 11v2q0 9 -7 33l-3 -11
l-41 80l5 3l-13 6h2q-13 18 -31 23l-17 10l-75 26l3 2q-1 0 -7 7q-5 5 -28 5q-8 0 -18 -1l-81 19l-15 -40l58 15l65 -14l33 -15q1 -1 4 -1l5 1q6 0 7 -8l28 -11l-16 1l42 -17l38 -40l-4 -35l1 -42l-3 -51l11 -4l-54 -8l1 -32l11 -15l-16 -6q-3 -6 -3 -14q0 -4 1 -9v-4
q0 -11 -8 -12l14 -55l-35 -64l-16 -34l-9 -50l1 3l1 -2q-1 0 -6 9l-37 -71l11 -18l-32 -44l8 10l8 -26q1 0 7 -1q7 -2 14 -3l22 5l-6 -11q5 -7 7 -10q3 -4 4 -4t2 1q6 -7 29 -28q22 -21 35 -37l-4 -1l29 -31l78 10l22 -19h5zM95 428v0l74 15q9 20 46 42l-27 16l-13 -36
l-85 6l-31 -9q-60 10 -86 20q-15 -7 -15 -16q0 -2 2 -5q5 -12 7 -12q5 -4 11 -4q4 0 9 2h4q10 0 21 -11z" />
    <glyph glyph-name="Scaron" unicode="&#x160;" horiz-adv-x="203" 
d="M74 -50v0q13 5 23 10q9 6 19 9q7 5 31 30h3l16 73l-40 42l9 115l-25 58l12 39l-7 25l13 30q18 27 52 77l37 -2v1q9 1 25 3l41 -4l-19 48l-79 -21l-21 3l-20 8l-23 16l24 56l-1 18l3 -3q-4 7 -11 18q-7 12 -11 23l-3 3l-4 18l12 15l-59 22q-41 12 -44 12t-6 -1l-19 7
l-49 -18l-23 14l-17 -7l-7 14l-54 -15l-49 23l-45 -2l1 45q4 5 11 15t7 17l-1 4q-8 -1 -8 -2t4 -5l-48 3l14 -3l-20 3l8 -65l-8 8l33 -39l-14 16l63 -35q16 -3 28 -3q14 0 40 6l47 6l57 -6l58 3l51 -52l7 -37l1 -41l-2 -21l-6 -24h-1l-3 -3h4l19 8l-85 -17l-68 -6h-13
l-13 -2l12 -20q13 3 22 12l-19 -20h11q4 0 6 -5l39 6l16 19l66 -12l6 -3l10 -27l-8 -42l16 -15l-13 -68l3 -33l-2 -54l-23 -50l6 -78l7 -37l-13 -53z" />
    <glyph glyph-name="macron" unicode="&#xaf;" horiz-adv-x="490" 
d="M470 457l124 1l-15 16q-12 5 -19 5h-7q-7 0 -19 4l-20 10q-9 -10 -32 -10q-22 0 -35 1l-20 4l-4 9l-17 2l-34 -4l-58 -21l-66 35l-83 -31l-44 15l-32 12l-15 -10l-11 6l-28 -9l1 -17l-94 3l-43 -21l12 -3q2 3 4 3t6 -7l34 14l75 -22l26 36q67 -71 81 -86l40 -55l-19 -34
l5 -66l-59 -33l-48 -7l-35 -2l26 -22v-35l82 27l25 32l4 -4l14 22l-19 2l48 50q2 3 3 9q0 7 2 11l-4 -2l10 15l60 40q22 -14 89 -54l27 -26l-8 -46q4 -5 9 -5t12 -5q6 2 11 10q4 7 6 7q1 0 2 -2l6 63l2 7l-30 37l-44 19l-29 2q-8 7 -18 7q-4 0 -8 -1q-3 -1 -7 -1
q-16 0 -43 11l-57 10l-23 49l19 23l17 -2l83 1l109 17zM366 463l42 -86l-28 -131l26 -28l6 71l28 39l-12 74l-1 33l13 -1l-3 21l-5 31l-18 9l-34 -8z" />
    <glyph glyph-name="emdash" unicode="&#x2014;" horiz-adv-x="21" 
d="M-178 -145v0l30 12q31 3 89 9l2 5l42 -3l41 42l-6 10l29 19l-2 1q10 8 14 13q5 6 9 12l-5 1q2 3 2 12q0 7 -2 26l-12 18l13 69l27 18l-63 34l7 -8l-41 25l-60 50q-10 5 -15 7t-5 4v1l-43 -7l-71 9l-15 -2q0 -5 1 -7l-8 -3l21 -16l5 -31l-13 -28l7 -60l-3 -61l3 -21
q7 0 14 -2q6 -2 8 -2q6 0 7 5l45 1l-11 2l14 14l-5 -15l7 56l-1 1l5 -9l-38 30l-9 12l17 61l32 23l28 -4l58 -22l29 -24l3 -18l-4 -1l20 -4l9 -67l-4 1q1 -8 1 -15q0 -10 -3 -18q-4 -12 -22 -23l-13 -50l-26 4l-60 -55l-35 -26l-65 38l-1 2q-13 2 -21 6q-8 5 -23 6l-16 38
l-54 56l-31 60l-28 -14l-16 -34l47 -58l14 6l32 -34l34 -48h-20q65 -18 104 -29z" />
    <glyph glyph-name="Iacute" unicode="&#xcd;" horiz-adv-x="150" 
d="M-108 -63v0l30 12q31 3 89 9l2 5l42 -3l41 42l-6 10l29 19l-2 1q10 8 14 13q5 6 9 12l-5 1q2 3 2 12q0 7 -2 26l-12 18l13 69l27 18l-63 34l7 -8l-41 25l-60 50q-10 5 -15 7t-5 4v1l-43 -7l-71 9l-15 -2q0 -5 1 -7l-8 -3l21 -16l5 -31l-13 -28l7 -60l-3 -61l3 -21
q7 0 14 -2q6 -2 8 -2q6 0 7 5l45 1l-11 2l14 14l-5 -15l7 56l-1 1l5 -9l-38 30l-9 12l17 61l32 23l28 -4l58 -22l29 -24l3 -18l-4 -1l20 -4l9 -67l-4 1q1 -8 1 -15q0 -10 -3 -18q-4 -12 -22 -23l-13 -50l-26 4l-60 -55l-35 -26l-65 38l-1 2q-13 2 -21 6q-8 5 -23 6l-16 38
l-54 56l-31 60l-28 -14l-16 -34l47 -58l14 6l32 -34l34 -48h-20q65 -18 104 -29zM-201 444v0l72 23q4 -2 10 -2q3 0 5 1q8 1 12 4l93 -18l60 7l59 12l23 -13l56 15l33 -11l-12 29l-7 -6l-89 14l-38 -18l-82 3l-64 5l-1 9l-56 -16l-52 3l-26 -35z" />
    <glyph glyph-name="currency" unicode="&#xa4;" horiz-adv-x="509" 
d="M520 448l-1 -1v0h-1l2 1v0zM628 485l-58 -14l-6 2l-43 -12l-58 29l-64 -10l-16 8h-7t-5 -1q-11 -10 -137 -23l-84 7l-1 -1l-72 5l-6 4h6l-11 2h-1q-3 0 -15 8q-11 -4 -49 -18v-2l-100 7l36 -26l-1 1l3 -3l85 -2l49 -11l36 -43l-15 -28l-37 -20l1 -1q-30 -35 -33 -39
l5 -60l6 9l8 -43l-7 -3l22 -25h1l9 -11l7 11l31 -50l18 21l48 34l-4 -3q0 2 -1 2q-1 12 30 32l9 54l-24 23l-44 -2l-18 -4q-2 -6 -2 -15q0 -10 2 -19q3 -9 3 -15q0 -5 -1 -10q-1 -2 -1 -4q0 -11 10 -32l-68 93l18 2l36 68l104 -25l53 -75l-4 8l32 -30l1 -6l38 -7q6 1 17 2
q10 1 13 10l58 3q10 13 12 25t5 28l-2 11l10 18l-13 65l-5 -10l-15 60l56 6l41 7q5 7 15 8l12 1l83 3l-1 26v0zM368 247l-22 -7l-39 38l11 -6q-28 34 -43 52q-8 9 -32 41q-17 11 -26 11h-3q-9 0 -25 2l-12 -3l-40 31l-51 48l175 -20q57 12 58 12q2 0 4 -1h2q3 0 6 4l26 -16
l11 -32l13 -20l5 -48l4 -71l-22 -15v0z" />
    <glyph glyph-name="section" unicode="&#xa7;" horiz-adv-x="350" 
d="M203 -52v0q20 3 35 4t27 7q3 8 14 26l10 31l-18 44l5 14l-14 80l6 25l-12 -12l14 70l-10 45l5 70q1 2 1 6q-1 0 -5 -13l22 79l19 10l62 17l-2 -2q6 8 13 10t14 5l11 -9l54 2l-11 8l-52 10l-26 -19l-77 14l-49 12q-4 0 -7 2l-12 4q-1 -7 -4 -7l-62 8l-23 -20l-68 22
l-95 -8l-28 -17l2 -22v9l72 4l62 -33l147 6l-15 -49l6 -37l7 -16l-15 -25l-57 -42l-100 47q-15 8 -27 8q-13 0 -30 -17l-79 -37l1 -6l-18 -9l5 7l-20 -37l-10 17l6 -68v-26l-11 1l30 -38l5 13l49 -31l-9 -76q20 -4 36 -12q17 -8 44 -13l60 3l12 -6q-5 17 -5 43q0 27 14 63
l11 45q1 6 5 13q2 11 2 17q-1 3 -4 5l-16 -9l-40 -13l-31 -23l14 -11l-10 -48l-66 3l-9 34l-28 92l13 25l84 66l49 -4l26 11l81 -21l30 -41l-1 -74l9 -61l-7 -60q-15 -59 -18 -68v0q0 -5 8 -7v0q3 0 3 -2t-4 -8z" />
    <glyph glyph-name="brokenbar" unicode="&#xa6;" 
d="M-85 -281v0q11 4 17 10q6 5 24 28l-16 38l7 -4l-19 66l-9 61q4 54 5 69q-1 5 -1 19q0 12 9 17l-4 46l-48 4l-8 6l-36 31q3 -35 -5 -40l-9 -3l-20 -18v-27l-47 -53l-61 -23l1 -19l-70 -79l2 3q0 -11 -2 -11q-1 0 -3 2l32 -27q5 2 17 5q12 2 22 5l9 25l87 -3l53 -26l32 -47
l2 -50q5 2 10 2q4 0 8 -2q9 -4 21 -5zM-141 -165v0l-34 14h-2q-24 16 -49 17q-25 0 -43 -4l33 61l-7 -6l34 46l4 45l81 58l-12 -39l10 -62l3 1q4 -19 4 -29q0 -8 -3 -8h-3l14 -66z" />
    <glyph glyph-name="exclamdown" unicode="&#xa1;" 
d="M-76 -309v0q11 4 17 10q6 5 24 28l-16 38l7 -4l-19 66l-9 61q4 54 5 69q-1 5 -1 19q0 12 9 17l-4 46l-48 4l-8 6l-36 31q3 -35 -5 -40l-9 -3l-20 -18v-27l-47 -53l-61 -23l1 -19l-70 -79l2 3q0 -11 -2 -11q-1 0 -3 2l32 -27q5 2 17 5q12 2 22 5l9 25l87 -3l53 -26l32 -47
l2 -50q5 2 10 2q4 0 8 -2q9 -4 21 -5zM-132 -193v0l-34 14h-2q-24 16 -49 17q-25 0 -43 -4l33 61l-7 -6l34 46l4 45l81 58l-12 -39l10 -62l3 1q4 -19 4 -29q0 -8 -3 -8h-3l14 -66z" />
    <glyph glyph-name="asciicircum" unicode="^" 
d="M-69 -76v0q11 4 17 10q6 5 24 28l-16 38l7 -4l-19 66l-9 61q4 54 5 69q-1 5 -1 19q0 12 9 17l-4 46l-48 4l-8 6l-36 31q3 -35 -5 -40l-9 -3l-20 -18v-27l-47 -53l-61 -23l1 -19l-70 -79l2 3q0 -11 -2 -11q-1 0 -3 2l32 -27q5 2 17 5q12 2 22 5l9 25l87 -3l53 -26l32 -47
l2 -50q5 2 10 2q4 0 8 -2q9 -4 21 -5zM-125 40v0l-34 14h-2q-24 16 -49 17q-25 0 -43 -4l33 61l-7 -6l34 46l4 45l81 58l-12 -39l10 -62l3 1q4 -19 4 -29q0 -8 -3 -8h-3l14 -66z" />
    <glyph glyph-name="Ydieresis" unicode="&#x178;" horiz-adv-x="290" 
d="M309 459l-9 -8q10 6 10 8h-1v0zM329 489q-4 0 -27 -13l-40 7l4 -2q-10 6 -21 6q-8 0 -17 -4q-20 -8 -28 -18l-28 31l-45 -28l-69 15l-10 -9l-60 12l-51 -15l-37 13l4 -48l99 4l-32 -37l-23 -48l-1 -44l-57 -51l5 -85l37 46l32 19l39 -37l84 -18l5 -14l-15 4l45 -49
l19 -68q-12 -37 -13 -42l9 -57l2 3l11 -15q28 7 54 19l34 11l-25 61l3 7q-14 55 -20 71l-16 -41l20 107q0 11 3 23q2 12 2 18q0 13 -5 26q-5 11 -5 21q0 6 3 12q2 6 2 10q0 2 -1 4l12 -17q3 12 3 21q0 12 -5 21q-5 11 -5 23q0 2 10 74l3 47l81 -7q2 0 9 1h2v0l29 27
q-5 3 -9 3v0zM154 408l-3 -38q-8 -7 -8 -22v-3q0 -15 -11 -23l9 -78l22 -74l-71 45l-52 14l8 1q-19 8 -32 8q-12 0 -23 -1q-13 7 -23 7q-5 0 -10 -2l21 71l44 65l13 -3l18 53l30 28l79 -10l-30 -26l19 -12v0z" />
    <glyph glyph-name="ordfeminine" unicode="&#xaa;" 
d="M-53 -140l-11 21l-1 61l1 -2l-23 59l12 65q0 6 -1 14.5t-1 14.5l3 -3l-7 10l-35 4l-8 -83l4 3q-1 -9 -2.5 -19t-2.5 -19l-9 -54h-64l-27 3h1q-20 2 -39 4t-39 4h1q-14 0 -27.5 1t-27.5 1l-34 5l-68 -12h1q-12 -3 -18 -5.5t-18 -5.5l-3 -15q0 -4 -0.5 -8t-0.5 -9
q15 2 27 4t29 4l9 9l67 14l59 11l26 -13q15 0 32.5 0.5t31.5 0.5l28 -17l33 1l38 -55l55 7z" />
    <glyph glyph-name="guillemotleft" unicode="&#xab;" 
d="M-227 -121l-7 26l-7 39l1 -1l-20 50l10 61l-41 -34l2 1l-18 -26l-12 -11l9 -54l-61 18l-33 13l-46 10l-31 7l-43 -6l-10 1l-19 -6l-22 -2h1l-69 -6l-27 -2l-17 -10l10 -17l-5 2l15 -12l48 15l43 2q8 3 16 5.5t16 5.5l48 8l31 -13q17 -2 35 -4t35 -4h-1q2 0 9 -1t9 -1
l47 -22l15 -22l-8 2l37 -16l41 4h19z" />
    <glyph glyph-name="Odieresis" unicode="&#xd6;" 
d="M-102 -77l13 1l53 14q-2 8 -4 18t-4 18l7 9l-62 26l-25 -24l-24 6h1l-70 16l-70 16q-3 0 -5.5 -0.5t-4.5 -0.5l-50 -1q-2 -1 -4 -3t-3 -2l-41 -1q-2 -2 -5.5 -4t-6.5 -3l-87 1l-20 -5q21 -21 29 -24t18 -5l90 17l40 7l31 4l27 3l53 -8l29 -5l31 -19q7 0 16.5 -0.5
t15.5 -15.5l12 -19q1 -3 6.5 -7t13.5 -9z" />
    <glyph glyph-name="dieresis" unicode="&#xa8;" horiz-adv-x="289" 
d="M95 -51v0q1 0 1 1l-3 2l37 16l19 -8q15 4 28 9q14 5 43 6l-23 64l18 45q-1 17 -8 27t-8 21l1 -9l-23 36l-60 43l-20 9l7 101l6 39l31 23l-2 -2q7 15 9 22q1 7 8 31l53 15l58 -7l59 5l36 20l-1 17l-12 -13l-57 -7l-75 28l-52 6q-5 2 -7 2h-1q0 -1 2 -2l-22 -4l-1 -1
l-66 -16q-20 1 -41 1l-10 -4l-68 -6l-3 -11l48 -23l106 14l-27 -57q-3 -3 -3 -5t11 -9l-38 -44l6 -39l-26 25q9 -33 25 -52q16 -18 38 -47l3 2l14 -17l19 -8l15 -12l42 -68l-12 -42q-1 -8 -1 -14v-3q0 -8 10 -17l-34 -14l-17 -35l-34 -33z" />
    <glyph glyph-name="registered" unicode="&#xae;" horiz-adv-x="442" 
d="M329 450l103 14l19 -12l75 25l4 6l14 -7q-3 0 -6 1t-9 8l-27 -5l-112 5l-13 14h-1l-43 -5l-11 -4zM385 244l-6 -3q5 10 5 18q0 4 -2 7q-5 9 -13 10l2 92l10 70l4 53l-12 8l-33 -11l1 -15l-86 16l-50 5l-68 -14l-58 12q-37 -19 -49 -26l-67 -3l-67 15l8 -30h1h-1l69 12
l92 -17l46 -22l35 -28l26 -27l-5 -8l-74 -81l-38 -34l-2 1l1 -2l-1 -1h2l27 -48l37 24l51 44l-10 -14l71 25l42 -7l29 -22l33 -50l26 24l-5 -3l29 30v0zM320 251l-43 26q-12 -1 -23 -1q-27 0 -40 4l-36 3l9 6l4 7v1q0 28 36 59l55 15q36 -52 42 -59l-4 -61v0zM272 376l-5 1
l-32 19l19 18l-105 25l59 18l69 -24l33 18l27 -105l-65 30v0zM-91 448h-4h7h-3v0z" />
    <glyph glyph-name="guilsinglleft" unicode="&#x2039;" horiz-adv-x="418" 
d="M157 -50v0q4 0 8 5l32 33l-3 -3v12v5q0 5 -1 12l3 -6l-7 24l4 -5l-19 32l16 27l-13 -2l-1 19l14 14q-2 61 -4 121l-22 50l11 112l61 10l37 -11q8 -12 27 -36l31 -56v1l-39 -45v6l-11 -41l27 -8l35 -18l10 3l12 15l-12 41l17 18l-20 71h-5l-15 32l-40 18l-3 -9l-63 45h41
l24 15l76 12l76 -11l67 19l5 -6l-58 15l-60 8l-47 -22l-33 -4l-42 23l-46 -27l-69 30q-18 -4 -29 -7q-12 -3 -16 -15h-94l-67 16l-53 -11l-61 -6l-74 2l-18 -19q1 -4 4 -7q8 5 16 5h2q9 0 32 9l94 -1l55 -17l42 -11l33 4l-13 -4l-24 -41l-16 -34l-17 -15l15 11l-98 -108
q-11 -17 -23 -27t-22 -28l20 -36l27 -2v1q0 5 5 11q5 7 21 23l28 20l64 17l45 -31l41 3l50 -49q6 -44 9 -67l-1 -91l-13 -16l12 -10l-8 3q18 -5 24 -8q5 -2 7 -2zM102 182v0l-37 35l-24 -7q-81 22 -100 22q-3 0 -4 -1l26 35l11 43l54 59h1q7 9 11 13t9 17l15 13l3 -10l28 27
l38 17l21 -28l-25 -109l7 8l-19 -38l-2 -23z" />
    <glyph glyph-name="OE" unicode="&#x152;" horiz-adv-x="420" 
d="M157 -50v0q4 0 8 5l32 33l-3 -3v12v5q0 5 -1 12l3 -6l-7 24l4 -5l-19 32l16 27l-13 -2l-1 19l14 14q-2 61 -4 121l-22 50l11 112l61 10l37 -11q8 -12 27 -36l31 -56v1l-39 -45v6l-11 -41l27 -8l35 -18l10 3l12 15l-12 41l17 18l-20 71h-5l-15 32l-40 18l-3 -9l-63 45h41
l24 15l76 12l76 -11l67 19l5 -6l-58 15l-60 8l-47 -22l-33 -4l-42 23l-46 -27l-69 30q-18 -4 -29 -7q-12 -3 -16 -15h-94l-67 16l-53 -11l-61 -6l-74 2l-18 -19q1 -4 4 -7q8 5 16 5h2q9 0 32 9l94 -1l55 -17l42 -11l33 4l-13 -4l-24 -41l-16 -34l-17 -15l15 11l-98 -108
q-11 -17 -23 -27t-22 -28l20 -36l27 -2v1q0 5 5 11q5 7 21 23l28 20l64 17l45 -31l41 3l50 -49q6 -44 9 -67l-1 -91l-13 -16l12 -10l-8 3q18 -5 24 -8q5 -2 7 -2zM102 182v0l-37 35l-24 -7q-81 22 -100 22q-3 0 -4 -1l26 35l11 43l54 59h1q7 9 11 13t9 17l15 13l3 -10l28 27
l38 17l21 -28l-25 -109l7 8l-19 -38l-2 -23zM204 -46l-11 21l-1 61l1 -2l-70 -8h-64l-27 3h1q-20 2 -39 4t-39 4h1q-14 0 -27.5 1t-27.5 1l-34 5l-68 -12h1q-12 -3 -18 -5.5t-18 -5.5l-3 -15q0 -4 -0.5 -8t-0.5 -9q15 2 27 4t29 4l9 9l67 14l59 11l26 -13q15 0 32.5 0.5
t31.5 0.5l28 -17l33 1l38 -55l55 7z" />
    <glyph glyph-name="Ograve" unicode="&#xd2;" horiz-adv-x="459" 
d="M72 541l47 35h-1l49 30l17 5l-17 -14l-48 -34l-7 -17l-7 -76l33 -14l39 20q3 -5 4.5 -6t3.5 -6l-33 -52l3 1l-23 -23l6 1q-8 -3 -14.5 -6t-14.5 -6l-26 32l-9 -6l-1 51l-1 64v21zM237 508l-3 -2l45 67l-3 -1l22 18l-3 -1h17l-32 -25q-10 -11 -10 -13l1 2l-20 -58l15 -30
l24 -2l46 19h-1l8 3l-6 -48l4 3l-35 -40l-9.5 -9.5l-9.5 -9.5l-21 -2h-11l-9 19l1 -1l-4 7l-15 41l1 -2q0 8 -1 16t-5 15l-7 -5z" />
    <glyph glyph-name="Oacute" unicode="&#xd3;" horiz-adv-x="479" 
d="M443 440l-47 -35h1l-49 -30l-17 -5l17 14l48 34l7 17l7 76l-33 14l-39 -20q-3 5 -4.5 6t-3.5 6l33 52l-3 -1l23 23l-6 -1q8 3 14.5 6t14.5 6l26 -32l9 6l1 -51l1 -64v-21zM278 473l3 2l-45 -67l3 1l-22 -18l3 1h-17l32 25q10 11 10 13l-1 -2l20 58l-15 30l-24 2l-46 -19
h1l-8 -3l6 48l-4 -3l35 40l9.5 9.5l9.5 9.5l21 2h11l9 -19l-1 1l4 -7l15 -41l-1 2q0 -8 1 -16t5 -15l7 5z" />
    <glyph glyph-name="Ocircumflex" unicode="&#xd4;" horiz-adv-x="221" 
d="M54 464l6 59l-6 -3l46 38l41 33h-3q1 0 2.5 1t2.5 1q-3 -4 -2.5 -3.5t1 1.5t1 1.5t-2.5 -3.5h1l-46 -51l-9 -56l21 -32l62 29l3 -10l-29 -53l2 1l-14 -16q-15 -5 -29 -10l-28 -10l-6 3l6 -1l-12 12l4 -2l-17 39z" />
    <glyph glyph-name="Otilde" unicode="&#xd5;" horiz-adv-x="289" 
d="M243 439l3 2l-45 -67l3 1l-22 -18l3 1h-17l32 25q10 11 10 13l-1 -2l20 58l-15 30l-24 2l-46 -19h1l-8 -3l6 48l-4 -3l35 40l9.5 9.5l9.5 9.5l21 2h11l9 -19l-1 1l4 -7l15 -41l-1 2q0 -8 1 -16t5 -15l7 5z" />
    <glyph glyph-name="endash" unicode="&#x2013;" 
d="M-288 -391v0q6 0 11 2q9 3 19 3q6 0 13 -1q7 11 19 12t19 7l-6 -3q2 7 9 14t15 14l-5 -4q3 9 8 18t8 22l-10 2l4 57l16 9l-61 34l29 2l59 -38l31 -32l8 -38l-5 -9l20 8l-12 -40l26 -19l32 -16l24 33l-39 38l-8 25l15 -3l-81 73h7l-52 20l6 5l-33 -1l-48 4q-3 1 -7 1
q-5 0 -10 -2q-9 -4 -16 -6l14 4l-64 -11l5 -3q-8 2 -14 2q-10 0 -16 -6q-10 -10 -26 -12q-6 -2 -12 -6t-10 -7l12 -2l-23 -20l4 1q-4 -11 -4 -22l1 -25l2 11l18 -36l17 -26l3 15l48 -20l27 -12l-2 -12q8 -4 15 -4zM-276 -382v0l-47 29l-32 21l-6 37l-7 2l18 72l93 2l46 -79
l4 -41z" />
    <glyph glyph-name="degree" unicode="&#xb0;" horiz-adv-x="547" 
d="M294 -50v0q10 8 17 8h4q8 0 23 1l17 20l-16 6l7 86l-4 82l-9 9l-2 38l102 -10l30 -37l3 -37l-75 -43l7 3q-4 -7 -7 -10q-3 -2 -4 -9l28 -19q6 -6 16 -6q9 0 29 6l28 20q3 3 4 6t11 12l2 52l-10 11l3 -8l-24 58l-11 14l-39 11l-10 9l-29 12l-35 -3l-10 92l-1 52l-12 1
l9 82l53 1l45 -72l-12 -47l5 25l-44 -97l37 -4l42 -17h1v1l8 -4q17 26 21 68l-2 -3q-5 13 -5 24v8q0 9 -2 15l7 -5l-27 53l1 2q-7 6 -17 24l6 -12l-40 17l145 13l25 10l34 -1l25 2l11 17q-1 1 -4 1q-8 0 -13 -5l-56 -6l-88 23l-96 -4l-47 -5l-5 8q-8 -1 -13 -1t-8 1
q-5 2 -24 16l-36 -34q-50 22 -52 22q-6 0 -15 -4q-9 -3 -18 -3h-6l-12 -6l-47 -6l-30 6l-57 -18l-66 -2l-27 -7q8 -1 14 -3q4 5 12 5q4 0 7 -1q4 -1 7 -1q10 0 19 8l137 -20l8 -10l-21 -42l-50 -52l-13 -30l-40 -33l-8 9l9 -3l18 5l41 -20l26 27l42 -12l59 -28l-6 -11
q-1 -1 -1 -4v-4q0 -7 -11 -25l-28 -47l-20 -18l-24 -54l-50 -28l-1 1v-48l47 -5q2 1 12 13l20 32l20 -4l38 2l53 -33l8 -66zM286 229v0l-97 34l-60 27l3 11q2 1 2 5q1 5 2 9v-1l19 61l41 47l3 -12l24 35l27 3l8 11l49 -21l-30 -44q-5 -10 -5 -19q0 -7 2 -13q6 -15 10 -37
q-1 0 -1 -2q0 -8 10 -34q5 -13 5 -25q0 -19 -12 -35zM276 5v0l-59 52l-59 7l-13 -2l-2 2l22 51l51 44l-7 2q10 10 19 27q8 17 12 35l41 3l-26 -41q11 -90 21 -180z" />
    <glyph glyph-name="plusminus" unicode="&#xb1;" horiz-adv-x="679" 
d="M502 -40v0l71 53l-3 -11l38 54l-9 3l22 26l2 -1l-6 20q-11 18 -12 31q-2 12 -15 36l-3 22l-22 16l-39 23l-35 13q-4 -1 -8 -1t-8 1h-1q-6 0 -9 -13l-55 -4q7 -5 17 -24l2 -61l-16 -50l3 -43h2q3 0 5 -1t5 -1l10 4l-1 1q0 1 51 2l5 46q-1 5 -8 31l22 -10l-34 49l40 1
l23 -17q13 0 20 -18q6 -17 13 -33l11 -35l-23 -50l-9 -6l-87 -35l-32 19l-78 2l-34 27l-1 16l10 77l9 56l-8 37l-11 -6l7 69l7 21l-8 123l24 32l55 -68l1 -19l-53 -19h11l-7 -7v6l-1 -13v2q3 -2 3 -10q0 -4 -1 -5q-5 4 -6 4q0 -1 4 -4q8 -7 15 -12q16 -1 25 -1q9 -1 22 -6
l14 15l-2 -1l2 5l-16 10l4 56v4l-16 25l10 -7l-31 26l16 4l84 7l21 20l121 -2l50 -14l22 -4l33 19l18 18l-18 -8l-45 18l-112 -25l-60 26l25 49l2 12q-29 45 -32 48l-14 11l-4 -1l-26 17l22 10q-20 -5 -30 -5l-6 1q-9 0 -22 -16l-72 28l-46 -17l-105 8l-55 -19
q-19 -5 -19 -14q0 -10 -4 -10q-5 0 -20 13l-17 -27l1 -14h10l33 -4l31 39l47 -2l66 23l46 14l29 -16q31 -27 71 -34q32 -5 34 -43l31 -23l7 -28l-84 -7l-79 -11l-37 18q-3 -10 -18 -10q-6 0 -6 7q0 1 1 4l-63 1l-12 -7h-17l-42 -17l-72 13l-52 -9l-14 1l-7 -20q2 -1 2 -14
l61 5l2 -23l89 14l-31 -25l-4 3l-18 -30l-39 -46l1 -2l-8 -15l-26 -16l-13 -22l22 -18l-16 5l53 -27l-6 -3l35 39l42 -11q4 -1 13 -2q8 0 8 -5v-2l59 -44l55 -24l-13 -84v-8q0 -10 6 -27l-20 -32l-2 -10l13 -37l-16 19q4 -16 5 -19l1 -4l-2 15l118 -38l40 -4h40l51 13z
M138 265v0l-47 31l-6 57l112 71l49 15l7 -126q4 -1 4 -8q0 -5 -2 -15q-1 -3 -1 -6q0 -5 4 -5q5 0 18 9l-120 -17z" />
    <glyph glyph-name="uni00B2" unicode="&#xb2;" horiz-adv-x="753" 
d="M664 -49v0l29 17q-5 13 -6 41v42h-1q-2 11 -2 15v7l-21 -5l1 52l23 65l-5 43l3 47l12 40l-14 104l-3 -3l-8 6l90 15l37 14l14 1l13 26l-12 -18l-89 8q-29 10 -59 19q-2 -8 -11 -8q-10 0 -19 -5l1 -7l-44 10l-27 -35l-80 51l-81 -16l-9 10l-8 4q-5 -5 -11 -6q-5 -2 -12 -3
l-8 2l-19 2l-24 -16l-16 -6l-98 4l-83 7l-13 10l-114 -14l12 -6l10 10q47 -26 95 -53l21 -21q26 -35 40 -53l-143 -11l82 -58q3 0 12 6q10 6 29 14q27 -50 36 -66l13 -31l-110 -42l-49 -27l16 -45l15 -20l-20 -15l73 27l-4 3l11 1l-21 -14l71 62l-2 -3q5 20 12 27q7 8 15 19
l12 -4l-9 38l75 -15l11 -28l12 -25l-12 -42l-5 -1l11 -7l15 -50q2 -8 22 -31q20 -24 24 -35l36 -13l9 -2l-6 -6l60 -2q0 2 -5 7l-2 60l20 11l-3 55l44 43l-28 7q-8 -1 -14 -1q-3 0 -6 1h-2q-6 0 -17 -10l-22 -9l28 -33l-1 -50l-14 -50l-86 62l-16 30l5 55l17 28l17 4v15
l43 16l35 16q9 11 20 7q10 -3 18 -4q11 13 30 10l52 -21l49 -54l17 -31l11 -11l-25 -18l17 -108l-5 -25zM365 198l-72 22v17l-64 1l-27 6l-28 49l10 -6l-36 27l22 38l5 33q-4 5 -13 22l-87 42l141 1l25 -21l-8 -23q3 -6 20 -29l-7 -1l26 -7l36 15l50 -12l10 -30l-20 -82
l7 15zM317 374v0l-66 42l-3 8l92 33l4 -20zM550 198v0l-23 5q-13 16 -21 16q-7 0 -12 5q-11 8 -23 8q-17 0 -23 -14l-26 31l-32 58l19 97q23 -22 45 -20l34 -76l-22 -47l4 -3q10 4 12 4q4 0 17 -2l6 29l13 9l2 38l12 27l-20 15l15 -22l-71 41l-19 26l7 49l86 -31l40 2l54 -7
l8 -49l-3 -2l-26 -59l15 -98l7 -7z" />
    <glyph glyph-name="uni00B3" unicode="&#xb3;" horiz-adv-x="537" 
d="M278 -88v0q8 0 19 7l14 1l69 19l20 -3l27 37l-20 14l56 37l8 -15l-5 65l2 11l-27 42q-3 11 -8 20l-22 34l23 -26l-90 76v72l5 39l10 23l-8 42l3 37l-3 14l58 -42l1 -51l-21 -25l3 3q2 -7 6 -13t4 -14v-3l10 -1q2 1 4 1h1l4 5l35 18l5 27l-22 33l-3 -3l-14 16l-14 37
l16 12l82 -11l33 9l61 -5l17 2l-16 30l-39 -3l-47 -11l-28 12l-98 -2l-28 -9l-67 11q-4 1 -8 1q-6 0 -12 -5q-5 -6 -14 -6q-4 0 -8 1l-34 16h1l-14 9l-25 -27l-22 -14l-89 15v-1h-7q-5 0 -11 1q-10 2 -10 18l-51 -36l-28 2q-2 -2 -2 -4q0 -4 4 -22l97 15q2 -1 5 -1h1
q4 0 17 -3l34 9l41 -15l-22 -32v-12q-103 -100 -126 -124q12 2 20 2q12 0 17 -4q8 -6 29 -9q12 1 24 10q13 9 14 18q63 -9 126 -17l26 -51l-27 3l-23 -11l-4 -6l-2 -18l13 -9l-5 -45l3 -73q-5 -10 -5 -18q0 -4 2 -8q4 -9 8 -24l-1 6l50 11l19 4l3 62q-18 -35 -40 5l8 74
l44 14l36 -34l43 -27l28 -72l-8 -28l-32 -50l5 1l1 -2q0 -4 -3 -9q-1 -2 -1 -4q0 -8 8 -23l-76 -18l-36 18l-64 -1l-5 13l-30 25q-28 43 -58 86l-1 10l-3 2l-37 44l7 -4l-18 7q-5 -3 -6 -8q-1 -4 -3 -9v6q-5 -9 -5 -23v-7l1 -15q0 -9 -1 -17l9 -8l18 -27l33 -30l-6 -21
l68 -23l29 -2l5 -14l43 4l22 -9zM276 241v0l-66 40l19 -12l-70 26l-16 10l36 60l-4 2l48 43l19 56l57 -10l-18 -92l-4 -42v-10v-13q-1 -9 -2 -16l-1 -1l8 -5z" />
    <glyph glyph-name="acute" unicode="&#xb4;" horiz-adv-x="692" 
d="M569 -45v0l4 12l18 3l32 2l-7 2l25 13l-3 -2l8 -3l-19 56l2 35l2 10q-7 11 -14 17q-6 7 -12 21l12 28l13 20l3 80l5 23l-8 -12l-11 102l2 29l6 8l-5 30l41 33l56 11l53 -8l-4 6q-3 -1 -7 -1q-3 0 -6 1q-2 1 -3 1l9 -3l-84 6h1q-14 4 -23 4h-1h-19l-8 7v3q-13 -3 -17 -3
q-4 -1 -12 -6l-15 2l-6 -6l11 -2q-10 -6 -51 -30l-95 26l5 7l-88 -6q-49 17 -58 23q-11 -5 -15 -8q-5 -3 -31 -21l-48 18l-25 4l-5 -13l10 -3l-57 -15l-70 27l-61 -14l-19 -18q15 -2 49 -4l1 -1h5h7q7 0 36 -29l76 34l-8 -31l-29 -29l10 -5l-39 -31l-22 -20l-5 6l-24 -46h7
l-15 -15q12 -9 17 -9q3 0 5 3l22 -7l38 11l56 -5l1 -2q3 5 13 5q19 0 31 -13l20 -19l22 -2l-29 -29l4 7q-2 -8 -2 -16q0 -14 11 -55l-10 -24l10 -21l13 12l12 -51v-3l24 -27l63 -46l58 -4q21 1 22 1h1l-4 -7l31 50l8 91l-11 9l22 40q-1 2 -2 2q-1 1 -1 2q0 2 14 18l-84 -26
l9 11l-40 -50l15 -10l-14 -76l-74 36l3 75l-26 41l20 33l120 66q46 -7 133 -19l14 -29l18 5l-14 -57l-18 -54l12 -87l-3 -43q-1 0 -1 -2q0 -1 1 -3v-1q0 -1 -1 -1q-2 0 -6 3l1 -39zM274 275v0q8 0 23 4l-122 2l-2 -2l-36 28l22 58l17 16l47 70l40 17l13 -77l6 -47l-20 -28
l10 -5q-6 -25 -6 -26q0 -4 2 -7q0 -3 6 -3zM581 282v0l-60 12q-28 13 -63 13h-4q-7 -4 -14 -4q-3 0 -6 1h-9t-8 -1l-19 2l-61 1l-1 2q-4 16 -4 30v6l9 19l-3 1q-1 2 -1 5q0 4 2 10v3q0 7 -9 12l10 65l27 -11l27 -31l21 -19l-24 -27l-16 4q-5 0 -18 -15q4 -7 8 -10q5 -4 8 -9
l-2 -2q8 -2 12 -7q4 -4 17 -10q15 15 22 19q8 4 13 9q-3 1 -3 14q0 18 4 29l2 -21l-36 54l114 38l54 -4l22 -88l-22 -56l-2 -21q0 -9 13 -13zM375 376v0h-1v0h1z" />
    <glyph glyph-name="mu" unicode="&#xb5;" horiz-adv-x="653" 
d="M373 -50v0q4 0 8 5l31 33l-3 -3q0 9 1 13v4q0 5 -2 12l3 -6l-7 24l5 -5l-19 33l16 26l-13 -2l-2 20l15 14q-3 60 -5 120l-21 50l10 112l62 10l36 -11q8 -12 27 -35l32 -57l-1 1l-38 -45l-1 6l-10 -40l27 -8l35 -19l9 3l12 15l-12 41l17 18l-20 71l-4 1l-15 32l-40 17
l-4 -9l-63 45h41l25 15l75 12l76 -10l67 18l6 -6l-59 16l-60 7l-47 -22l-33 -4l-42 23l-46 -27l-68 30q-18 -4 -30 -7q-11 -3 -16 -14q-64 0 -94 -1l-67 16l-53 -10l-61 -6l-74 1l-18 -19q1 -4 4 -7q8 6 16 6h2q9 0 32 8h94l55 -18l42 -11l33 4l-13 -4l-24 -41l-16 -34
l-17 -15l15 11q-48 -54 -98 -108q-11 -16 -22 -27q-12 -10 -22 -28l20 -36l27 -2v1q0 5 4 11q5 7 21 23l29 20l64 17l44 -30l42 3l49 -50q7 -43 9 -67l-1 -90l-13 -16l12 -11l-8 4q19 -6 24 -8q5 -3 8 -3zM317 182v0l-37 36l-24 -7q-80 21 -100 21h-4l26 34l11 44l54 58h1
q8 10 12 14q4 3 9 16l14 13l3 -10l28 27l38 17l21 -28l-25 -108l8 8l-19 -39l-2 -23zM420 -46l-11 21l-1 61l1 -2l-70 -8h-64l-27 3h1q-20 2 -39 4t-39 4h1q-14 0 -27.5 1t-27.5 1l-34 5l-68 -12h1q-12 -3 -18 -5.5t-18 -5.5l-3 -15q0 -4 -0.5 -8t-0.5 -9q15 2 27 4t29 4
l9 9l67 14l59 11l26 -13q15 0 32.5 0.5t31.5 0.5l28 -17l33 1l38 -55l55 7z" />
    <glyph glyph-name="mu" unicode="&#x3bc;" horiz-adv-x="653" 
d="M373 -50v0q4 0 8 5l31 33l-3 -3q0 9 1 13v4q0 5 -2 12l3 -6l-7 24l5 -5l-19 33l16 26l-13 -2l-2 20l15 14q-3 60 -5 120l-21 50l10 112l62 10l36 -11q8 -12 27 -35l32 -57l-1 1l-38 -45l-1 6l-10 -40l27 -8l35 -19l9 3l12 15l-12 41l17 18l-20 71l-4 1l-15 32l-40 17
l-4 -9l-63 45h41l25 15l75 12l76 -10l67 18l6 -6l-59 16l-60 7l-47 -22l-33 -4l-42 23l-46 -27l-68 30q-18 -4 -30 -7q-11 -3 -16 -14q-64 0 -94 -1l-67 16l-53 -10l-61 -6l-74 1l-18 -19q1 -4 4 -7q8 6 16 6h2q9 0 32 8h94l55 -18l42 -11l33 4l-13 -4l-24 -41l-16 -34
l-17 -15l15 11q-48 -54 -98 -108q-11 -16 -22 -27q-12 -10 -22 -28l20 -36l27 -2v1q0 5 4 11q5 7 21 23l29 20l64 17l44 -30l42 3l49 -50q7 -43 9 -67l-1 -90l-13 -16l12 -11l-8 4q19 -6 24 -8q5 -3 8 -3zM317 182v0l-37 36l-24 -7q-80 21 -100 21h-4l26 34l11 44l54 58h1
q8 10 12 14q4 3 9 16l14 13l3 -10l28 27l38 17l21 -28l-25 -108l8 8l-19 -39l-2 -23zM420 -46l-11 21l-1 61l1 -2l-70 -8h-64l-27 3h1q-20 2 -39 4t-39 4h1q-14 0 -27.5 1t-27.5 1l-34 5l-68 -12h1q-12 -3 -18 -5.5t-18 -5.5l-3 -15q0 -4 -0.5 -8t-0.5 -9q15 2 27 4t29 4
l9 9l67 14l59 11l26 -13q15 0 32.5 0.5t31.5 0.5l28 -17l33 1l38 -55l55 7z" />
    <glyph glyph-name="mu" unicode="&#x3bc;" horiz-adv-x="653" 
d="M373 -50v0q4 0 8 5l31 33l-3 -3q0 9 1 13v4q0 5 -2 12l3 -6l-7 24l5 -5l-19 33l16 26l-13 -2l-2 20l15 14q-3 60 -5 120l-21 50l10 112l62 10l36 -11q8 -12 27 -35l32 -57l-1 1l-38 -45l-1 6l-10 -40l27 -8l35 -19l9 3l12 15l-12 41l17 18l-20 71l-4 1l-15 32l-40 17
l-4 -9l-63 45h41l25 15l75 12l76 -10l67 18l6 -6l-59 16l-60 7l-47 -22l-33 -4l-42 23l-46 -27l-68 30q-18 -4 -30 -7q-11 -3 -16 -14q-64 0 -94 -1l-67 16l-53 -10l-61 -6l-74 1l-18 -19q1 -4 4 -7q8 6 16 6h2q9 0 32 8h94l55 -18l42 -11l33 4l-13 -4l-24 -41l-16 -34
l-17 -15l15 11q-48 -54 -98 -108q-11 -16 -22 -27q-12 -10 -22 -28l20 -36l27 -2v1q0 5 4 11q5 7 21 23l29 20l64 17l44 -30l42 3l49 -50q7 -43 9 -67l-1 -90l-13 -16l12 -11l-8 4q19 -6 24 -8q5 -3 8 -3zM317 182v0l-37 36l-24 -7q-80 21 -100 21h-4l26 34l11 44l54 58h1
q8 10 12 14q4 3 9 16l14 13l3 -10l28 27l38 17l21 -28l-25 -108l8 8l-19 -39l-2 -23zM420 -46l-11 21l-1 61l1 -2l-70 -8h-64l-27 3h1q-20 2 -39 4t-39 4h1q-14 0 -27.5 1t-27.5 1l-34 5l-68 -12h1q-12 -3 -18 -5.5t-18 -5.5l-3 -15q0 -4 -0.5 -8t-0.5 -9q15 2 27 4t29 4
l9 9l67 14l59 11l26 -13q15 0 32.5 0.5t31.5 0.5l28 -17l33 1l38 -55l55 7z" />
    <glyph glyph-name="paragraph" unicode="&#xb6;" horiz-adv-x="654" 
d="M406 -43v0q6 0 20 5q1 2 3 2h2q3 0 4 2v3q0 3 1 9q2 9 4 20q-9 18 -9 30q0 13 4 30q-8 8 -10 20q-3 13 -11 20l3 15v9v11q0 11 -5 11q17 143 24 178l43 -3l74 -12l9 -61l-7 -3l-23 -67q13 -1 22 -1t14 1h7t3 -1l11 26l-2 49l-13 10l6 53l-68 43l-24 -4l2 -1q-8 4 -15 4
h-5q-9 -3 -20 -3l-22 8l-4 15l9 8l1 57l51 45l116 -37l44 6v9l46 -1l2 16h-21h-14l3 -2q-18 0 -30 2q-12 1 -47 22l-99 -21l14 4l-69 -11l-9 21l-4 1q-4 0 -15 -7l-20 -2l-5 1l-43 -13l-43 2l-65 -15l-112 23q-4 0 -8 -1l-5 3l-22 -5l-6 2q0 -3 -9 -8l-75 -8l-19 -11l48 -19
l80 25l26 -39l22 -45l-24 -38l-39 -27l12 -6q-25 -1 -45 -1q-17 0 -31 1l34 -61l17 23l22 3l21 35l49 -57l21 -26l-13 -63q-40 -25 -122 -76h-12v-1q0 -4 10 -14q10 -11 18 -17l-3 -5l14 -8q16 2 22 7q7 4 25 5q-1 1 -12 22l63 19l-11 -14l48 69l-2 -6l2 17v2l5 -5l16 15
l43 -13l79 -46q2 -13 2 -15l-2 -7l38 -130q9 -2 15 -2zM371 133v0l-56 26l-88 26l-2 22l13 8l-41 28l-32 88l19 19l-2 -1q2 4 2 8v1q-1 4 -1 8l-2 1l-3 15t-3 18l21 16l-80 34l107 -14l7 -37l12 -6l-7 -34l7 -3l16 -25l-16 3l48 -24l46 -21l34 16l1 -18l-5 -1l15 -45l2 -72z
M351 320v0l-58 17l-25 21l-4 60l3 24l9 -6l119 35l-6 -64l2 -19z" />
    <glyph glyph-name="ydieresis" unicode="&#xff;" horiz-adv-x="656" 
d="M406 -43v0q6 0 20 5q1 2 3 2h2q3 0 4 2v3q0 3 1 9q2 9 4 20q-9 18 -9 30q0 13 4 30q-8 8 -10 20q-3 13 -11 20l3 15v9v11q0 11 -5 11q17 143 24 178l43 -3l74 -12l9 -61l-7 -3l-23 -67q13 -1 22 -1t14 1h7t3 -1l11 26l-2 49l-13 10l6 53l-68 43l-24 -4l2 -1q-8 4 -15 4
h-5q-9 -3 -20 -3l-22 8l-4 15l9 8l1 57l51 45l116 -37l44 6v9l46 -1l2 16h-21h-14l3 -2q-18 0 -30 2q-12 1 -47 22l-99 -21l14 4l-69 -11l-9 21l-4 1q-4 0 -15 -7l-20 -2l-5 1l-43 -13l-43 2l-65 -15l-112 23q-4 0 -8 -1l-5 3l-22 -5l-6 2q0 -3 -9 -8l-75 -8l-19 -11l48 -19
l80 25l26 -39l22 -45l-24 -38l-39 -27l12 -6q-25 -1 -45 -1q-17 0 -31 1l34 -61l17 23l22 3l21 35l49 -57l21 -26l-13 -63q-40 -25 -122 -76h-12v-1q0 -4 10 -14q10 -11 18 -17l-3 -5l14 -8q16 2 22 7q7 4 25 5q-1 1 -12 22l63 19l-11 -14l48 69l-2 -6l2 17v2l5 -5l16 15
l43 -13l79 -46q2 -13 2 -15l-2 -7l38 -130q9 -2 15 -2zM371 133v0l-56 26l-88 26l-2 22l13 8l-41 28l-32 88l19 19l-2 -1q2 4 2 8v1q-1 4 -1 8l-2 1l-3 15t-3 18l21 16l-80 34l107 -14l7 -37l12 -6l-7 -34l7 -3l16 -25l-16 3l48 -24l46 -21l34 16l1 -18l-5 -1l15 -45l2 -72z
M351 320v0l-58 17l-25 21l-4 60l3 24l9 -6l119 35l-6 -64l2 -19z" />
    <glyph glyph-name="periodcentered" unicode="&#xb7;" horiz-adv-x="670" 
d="M551 -41v0q10 3 17 3l7 -1q7 0 16 8l15 15l-4 -2q3 7 3 19q0 10 -2 17l4 -4l12 14l-27 77l-2 15l-6 80l3 3v82l8 59l-2 38l-5 54l9 17l40 -3l43 10l23 -10l14 23q-2 1 -5 5q-13 4 -24 4q-9 0 -16 -3q-7 -2 -14 -2q-11 0 -22 4l-37 -9l-23 17q-1 2 -4 2h-3q-5 -1 -12 -2
l-14 -12l-30 -3l-35 19l-79 -15l-78 11l-33 1l-53 -2h-45h-19l-9 4l7 -12q-10 -2 -17 -2q-6 0 -10 -4l-33 9l-108 -14l9 5l-51 -4l-16 -11l11 -1l1 -17q4 8 15 8l9 -1q9 0 9 9v2l91 -11l29 -9l27 4l5 -12l-31 -41l-18 -14l-30 -41l12 -4l-44 -49l-38 -1q72 -21 74 -21
q16 0 16 4q0 1 -1 3l4 30l59 7l48 -18q8 -1 18 -5t22 -18l42 -76l-35 -79l5 1q-5 -13 -14 -22q-8 -10 -15 -10l-3 1l-54 -17l-29 8l-8 -41l-4 7l92 -15l32 60l58 29l-10 6l33 14l-23 -8l19 81l79 -4l26 -21l91 -40l26 -72l7 -26l-16 -15l-5 -56l12 6zM269 279v0l-80 32
l-84 -4l18 16l4 -5l7 19l-5 -8l47 78l55 42l33 -97l8 -29zM490 188v0l-19 14l11 -13l-76 33q-7 -2 -13 -3h-6l-33 5q-1 -2 -8 -2q-11 0 -17 1l-2 -5q-7 31 -10 46q-3 14 -4 36v27l-27 62l24 47l61 -20q5 -24 21 -81l-25 -8q-1 -3 -10 -10q-3 -6 -22 -33l10 -11l-11 11
l48 -42l18 12l8 9l32 19l-6 -8l-1 37l12 10q-14 30 -23 46q-9 17 -13 34l19 -19l-64 68l80 3l95 24l-7 -95l-11 -62l6 -47l-3 -31l-3 -51z" />
    <glyph glyph-name="cedilla" unicode="&#xb8;" horiz-adv-x="567" 
d="M148 192l17 23l35 55l-10 59l-42 9l-94 -9l5 39l46 54l-18 1l65 53l46 13h28l26 3l100 -52l28 -34l36 42l10 31l10 -17l2 -18l-3 -19l-16 -29l-16 -72l-22 -35l2 38l-58 64l17 2l-54 43l-56 24l-41 -14l5 14l-64 -33l-5 -41l-9 -33l96 1l6 -5l22 -13l1 -21l-20 -96l2 -39
zM322 211l69 -2l56 46l-1 42l7 81l-6 22l-36 45l15 46l38 -39l57 -119l-21 1l1 -51l-47 -74l87 -75l-28 -67l1 -27l-66 -74l-44 -13h-125l-44 -12l-25 31l-39 32l-45 41l-40 39l28 -3l-51 75l-6 51l-26 71l19 -4l36 -55l18 11l21 -83l-5 -20l31 -44l34 -50l90 -25l-10 -14
l136 13l-43 3l71 27l25 11l9 48l14 25l-40 58l-54 -7l-46 -15z" />
    <glyph glyph-name="uni00B9" unicode="&#xb9;" horiz-adv-x="828" 
d="M730 -49v0l21 10q20 6 30 22l-5 -5q-4 13 -12 47l5 13l-1 2q4 5 4 12q0 6 -3 14q-6 16 -9 32q-5 8 -7 15q-1 8 -15 27q19 61 19 63v2q0 4 4 22l-2 36q1 2 1 8q0 20 -5 20q-2 0 -7 -5l12 115l20 -11l-12 75l57 -11l22 6l32 2l-12 -2l30 20q-3 3 -10 3q-6 0 -14 -2
q-20 -4 -34 -7l-35 -14l-61 33q-18 2 -20 2q-3 0 -19 3q-3 -5 -3 -10v-3q0 -7 -2 -25l-4 -52q-20 12 -82 53l-45 12h3q-13 1 -21 1q-8 1 -21 4h3q-5 -1 -8 -1q-2 0 -4 1h-1q-4 0 -7 -11l-70 -10l9 -5l-25 -21l-52 -8q-26 9 -56 15l-34 25l-11 -12l-63 29h-2q-9 0 -31 -7
l-24 -39l-47 -14l6 15l-52 -67l19 -6l26 -12l77 10q1 -1 27 -17l-35 -73l-28 -22l5 -1l-8 -4l12 -12l54 -4l19 3q12 37 21 55l-4 -8l20 47v-3v4q0 8 2 14q1 5 2 11l1 -3q-1 0 -2 6q-1 5 -4 10h-2q-5 0 -10 2t-14 3h-4q-5 0 -15 7l-27 -5l-39 4l-45 12l57 15l9 38l45 22
l91 -39l19 -17l43 -11l-18 -62l82 12l69 1l9 -28l13 -22l-2 -60l-42 -39l-39 -23l21 -10l60 -18l-12 28l30 52l-15 13l39 40l-9 13l6 52l10 -11l-19 39q-22 2 -40 2q-24 0 -43 -5q-31 -8 -53 -10l9 12l-4 -3q-1 8 -3 10l-27 31l81 41l65 16l40 -7q53 -47 62 -58l43 12
l27 -98l21 -28l-11 -49l-23 -60l3 5q-7 -13 -7 -24q0 -15 16 -48l-25 -23l12 -66q-1 -1 -1 -4q0 -4 7 -13l-12 -30q6 0 6 2l-1 1z" />
    <glyph glyph-name="ordmasculine" unicode="&#xba;" horiz-adv-x="696" 
d="M586 -43v0q2 0 13 2q17 2 23 6t10 18l2 12q-10 49 -17 99l-15 25l6 57l14 20l8 22l-5 77q-3 4 -3 12q0 4 1 8v7q0 10 -3 19l23 32l-32 3l-42 -24l13 11l-23 -24l-42 -82l-58 -16l-47 -35l7 67l14 -9l-2 16q1 3 1 7q0 17 -10 43q-11 32 -12 49l-6 66l1 16l115 7l10 -19
l111 2l54 5h16l14 6q17 5 22 10q5 6 11 12h-14l-7 -9l-58 31l-56 -45l-146 15l-74 5q2 5 2 8q0 6 -7 6h-3q-13 -3 -17 -5q-1 -1 -3 -11q-1 -11 -4 -31l-5 -18l-44 1l-51 40h-5q-8 0 -24 7q-21 9 -31 15l-6 -8h-17l14 -13l-70 -32l-3 -6l-37 -30v10l-14 -39l-1 1l-3 -5
l-18 14q57 -23 64 -27q8 7 18 7t22 -6l19 15l35 -37l19 -45l-48 -14l1 -2l-33 -27l-10 -6l12 -11h-4q2 1 5 1q9 0 33 -16l30 22l-8 7l26 22l10 36q-2 5 -2 13q0 5 1 11q2 15 2 40q-45 15 -117 17l34 56l20 22l98 -16l42 -25l41 -28l13 -29l-14 -8l6 -62q2 -4 2 -9
q0 -4 -2 -10q-3 -11 -3 -21v-2l22 7l-9 -92l28 -1q6 2 10 2h3q5 0 23 13l32 3l-3 -7l57 13l23 71l14 -118l-6 -53l14 -17l-13 -103l16 -14h5h2z" />
    <glyph glyph-name="guillemotright" unicode="&#xbb;" horiz-adv-x="685" 
d="M585 -75v0l7 5v5l20 -8q6 4 18 14l-5 14l5 91l-31 53q4 39 7 79v-6l9 68l-16 27v6l9 6q-9 1 -16 1q-10 0 -16 -2q-12 -5 -25 -5q-3 2 -16 2q-14 0 -21 -3q-8 -3 -12 -3q-5 0 -9 3q-7 5 -10 7l1 49l-4 30v5q0 45 -10 68v-3l21 -6l71 36l44 -4l80 2l-6 9l65 -14l2 9l-3 5
l5 -1l-23 9l-19 16l-48 -16l-62 3q-30 18 -51 18q-6 0 -12 -2q-13 -4 -28 -4q-13 0 -27 3l-13 14l-57 -20l19 -62l-57 29l-28 16l-33 6q-21 1 -35 3q-13 3 -39 16h-49l-52 -40q-3 -10 -21 -19q-17 -8 -39 -18l8 -63l10 -5l-7 -14l62 27l79 -33l-1 -36l4 -49l-39 -9l-34 -57
q6 -11 28 -20l-14 -2l24 -8l40 -7l21 89l-7 2l29 35l-4 61l-2 -4l-1 18h-7q-11 0 -22 6t-20 6h-3q-19 3 -27 4q-8 2 -19 7q-20 -6 -40 -13l19 44l30 54l29 9l40 22l63 -48l51 -32l29 -24l12 -39l10 -51l16 -44l-47 -31l2 2l-30 -12l-37 -59q-60 -52 -91 -81l-27 -25l5 2v-4
v-4q3 1 5 1q4 0 8 -2q5 -4 16 -11l18 -8l-5 -10l57 40l42 9l19 -8l69 -48l1 -58h3q8 0 16 1q4 1 7 1q8 0 18 -3q0 37 1 51q2 13 3 35l4 -7l-7 19l8 12q-2 8 -3 23q-1 16 -12 45l-9 45l8 8l-17 15l20 44l-4 15l44 18l47 -33l-5 -17v-9q0 -11 -3 -18q-4 -10 -6 -28
q9 -24 10 -34t1 -16t-1 -12q3 -12 20 -64l-9 -53l-23 -26l25 -20h13zM414 15v0l-56 39l-23 19l12 22l9 67l68 14q3 -31 7 -62q2 -3 2 -7q0 -5 -2 -10q-2 -8 -2 -14q0 -4 1 -8z" />
    <glyph glyph-name="backslash" unicode="\" horiz-adv-x="430" 
d="M223 -11v0l25 5l-22 31l4 32l-18 33q16 61 16 65q0 9 -3 21q-5 19 -7 49q-2 35 -5 70l12 47l1 21l19 26q-6 3 -10 3h-2h-3q-5 0 -15 3l-37 5l-10 -27l7 -23l16 -132l-10 -49l-8 -23h-1q-1 -11 -3 -17q-1 -6 -1 -10t1 -8q5 -12 5 -24q0 -5 -1 -10q-2 -12 -2 -18l1 -4
l-9 -32l8 -13l-18 7l53 -25zM355 -13v0l5 85l4 -6l1 32q-19 75 -20 84l8 80v4q0 3 1 6v1q0 3 -11 4q8 54 17 109q-7 6 -10 8q-28 1 -40 2l-21 -20l8 -40l-7 -16l24 -112l-19 -23l11 -75l-6 -20v1q5 -12 5 -22q0 -5 -1 -9q-4 -11 -4 -20v-2l-9 -22l-1 7l12 -28q25 3 49 5z
" />
    <glyph glyph-name="onequarter" unicode="&#xbc;" horiz-adv-x="988" 
d="M302 50v0l57 27l-1 -1q6 2 11 5t5 5v2l59 -18l29 106l-3 -3q3 8 3 13v2q0 5 2 10l3 -3q-7 12 -7 22q0 4 2 9q3 11 3 20v3l7 -3q-20 5 -25 19q-6 15 -12 29l-3 -2l-29 22l-12 36q-4 -14 -10 -19q-5 -6 -14 -23l-4 -59l-85 1l18 34l35 32l-7 -5l22 32l1 -8l-6 19l5 -3
l-28 55h-1q-13 0 -32 7q-20 7 -34 7l-6 2l-22 -18q5 -7 5 -14q0 -5 -3 -10q-6 -12 -6 -30l-2 -30l-38 14l6 28q-6 93 -7 101q-24 -8 -40 -12l-1 -8q0 -3 9 -13l1 -75l13 -57q3 -1 7 -5q4 -3 9 -3h8l38 -19l-5 -42l8 1l39 -30h2q9 0 17 7t23 10l-16 25l100 44l25 -62v-23
q0 -8 3 -14v-2q0 -7 -10 -15l-29 -55l8 9l-14 -28l-66 -7q-16 0 -18 -17l-43 3l-81 64l-35 34l-26 59l-17 40l7 19l4 1l-11 28l2 -6l-31 16l-28 -16l15 17l12 -111l-14 4l38 -49l-2 -4l19 -18l1 -15l26 -37q8 -1 16 -8q9 -8 15 -9l4 -11l79 -4l49 -9h-1l8 2q5 0 7 -12z
M254 313v0l-13 27l14 37l18 18l31 -7l-13 -52zM721 -63v0q10 9 18 9h2l-3 99l-5 28l-2 1l-10 14q6 11 6 29q0 13 -10 27l18 62l1 2l-3 64q2 6 2 12v1q0 5 15 25l-25 40l18 60l-4 2l-24 55l113 -60l42 -44l25 -29l-24 -42v3h-4l-29 -43l4 3q1 -11 2 -21q9 -3 17 -3q12 0 22 6
q11 7 28 7q7 0 14 -1v4t1 4v1q0 3 -6 5q-4 39 -10 77l13 -11l-46 53l-6 -7l-43 57l-41 24l33 13l57 -14l70 4l5 11l48 -24l61 28l3 9q-3 1 -6 1h-2h-2q-3 0 -7 6l-32 -8l-37 13l-54 -16h-88l-108 11l-15 22l-34 6q-5 -6 -9 -11t-4 -10q0 -3 2 -7l-47 13l-10 -28l-109 18
l-54 -7l-21 10l-44 -31l-8 -1q18 -7 27 -7l4 1h8q7 0 15 -1l26 6q25 -1 123 -9l-21 -12l15 10l-38 -67l-38 -21l-60 -93q9 -48 19 -95l24 23l24 18l6 15l25 -4l85 -35l45 -52l35 -65l-3 -18l1 24l-18 -66l-3 -59l8 -9zM703 161v0l-90 44l9 -6l-91 35l-38 -8l7 -7l-32 3
l-2 36l43 30l-5 5h27l15 64l47 43l15 -22q11 13 30 37q19 23 33 27l20 10l-10 -47q5 -19 5 -28t-3 -18l5 -71z" />
    <glyph glyph-name="onehalf" unicode="&#xbd;" horiz-adv-x="588" 
d="M553 -32v0l21 12l9 44l-52 -26l-30 4l-53 -1q-39 35 -47 46l-27 19l-9 60l3 29q-6 11 -6 19v5q1 2 1 4q0 8 -10 13l9 70l70 52l44 29l-8 -7q51 46 66 58l-14 11l11 -5l-35 18q-10 -4 -13 -7q-3 -2 -8 -6l-8 13q-40 -47 -28 -55l-44 -19l-41 -47l-36 50l-2 54l-20 47
l57 -60l52 -30l67 83l22 -14l92 27l27 -22l42 25l16 9q0 1 1 2l-1 -1l-14 6q-2 -2 -5 -2q-5 0 -31 11l-49 -7q-4 6 -40 8q-37 3 -70 14l-60 -14l-113 14l-69 -26l-51 19l-12 23l-72 -26l-42 -12l-17 12l-64 -31l-45 1l-2 -7q9 -3 16 -3q4 0 8 1t9 1q6 0 13 -1l92 2l-7 -33
q5 -11 5 -12v0l-1 1l24 -58l-13 -54l-6 -40l-4 12l60 6l-10 9l40 20l-4 -4q0 2 1 3v0q0 1 -1 1l8 14l6 16q-2 10 -14 15t-18 17l-5 21l-6 46l17 11l67 4l64 -27l10 -15l24 -135l-10 -30l-24 -25l-60 -46l-67 -72l48 31l-130 -101l-11 -20l72 -16l-6 4l17 -8q-1 2 -1 3
q0 4 3 7t9 3h3l12 42l49 33l-12 6l52 54l31 8l47 91l-11 -102l-11 18l29 -70l-8 4l21 -26h-3q15 -8 38 -42l25 -17q1 1 1 3q0 5 -10 15l73 -34zM365 395v0l-29 63l96 -8l-23 -23z" />
    <glyph glyph-name="threequarters" unicode="&#xbe;" horiz-adv-x="880" 
d="M185 139v0l87 11l37 26l12 -9l12 53l1 -4q4 18 4 28l-1 10q0 9 1 20q-1 10 -9 66l-28 18l18 2l42 -6q11 -2 27 -5q16 -4 28 -4h4l-9 7v4l-30 2l-26 11l-60 51l-27 35l23 2l43 12l80 -16q16 0 26 8l3 7l-6 2l8 -1l-22 1l-7 37l-167 -17l-3 13l-38 -14l-25 7l-41 -13h-43
l-104 1v-1l-18 -4l8 3q-15 -9 -17 -11q-3 -2 -16 -6l23 4l62 -1l9 -8q65 -7 129 -12l-22 -9l-21 -127l28 -36q9 -5 15 -5q6 -1 13 -3q4 0 10 2q7 1 17 3h5q21 0 42 6q23 7 33 25l16 -45l-18 -34l-24 -30l-58 -33l-41 16l-2 4l-69 46l-4 52l-7 48l-7 10l16 8l-43 -2
q-6 -4 -13 -4q-8 0 -15 18l22 -99l-8 6l26 -36l-9 8l30 -43l-5 19l62 -56q1 0 9 -2q8 -3 11 -4q8 -1 17 -1q10 -1 10 -4q0 -2 -6 -7zM507 -17v0l21 15l53 2l1 -3q16 5 25 16q10 12 25 14l-8 5l40 23l31 26l18 -23l-21 101v28l8 27q-2 13 -12 52l-6 14l-31 36l-12 22
q-14 -16 -20 -26q-6 -11 -21 -24l-16 -12l-36 -33l-33 -8l-46 -1l-35 12l26 58l-1 78l41 46l16 22l53 -15l-2 1q9 0 9 -7v-1q-1 0 -3 3l38 -26l-4 3q15 -3 29 -16q14 -22 19 -22h1l18 -26l109 -15l-10 -35l-8 -97l9 11l-11 -54l-11 -23l-1 -16l-4 -24l2 -70q-2 -3 -2 -7v-7
q1 -6 1 -10v-7l1 5l52 -5l34 14l-24 84l-9 -25l6 32l8 19l-5 -7q6 18 6 28v7q-4 8 -7 27l-8 7l20 85l22 3l5 72q-2 8 -3 22l-18 -6l-24 -11l-31 5l-57 26l-31 37l-45 37l89 8l46 28l179 -29l36 3l-8 26v-9l-4 2l-53 8l-21 -11l-70 -14l-86 13l-44 19l-119 -11l-12 21
l-16 -11l-52 8l-18 4q-49 -12 -97 -22q-13 -5 -21 -5q-4 0 -7 1q-9 2 -29 20l-50 -19l-46 -11l-46 14l1 -13l-72 -4l21 -9q9 -4 17 -4q6 0 11 1q3 1 5 1q10 0 10 -15l83 15l7 -8l86 19l89 -18l-31 -39l-18 -40l2 2l1 -5q0 -7 -3 -11q-3 -6 -13 -33l-8 -75l13 -32l47 -13
l23 9l47 -1l56 25l-11 22l76 14l5 -2l-2 -28l5 -18l-4 5l8 -26v-102l-20 -28l6 -5l-30 -7l-38 -41l-60 -21l-14 5q-15 4 -75 12l-52 65l-30 29l-44 54l-5 21q-1 -2 -3 -2t-4 2q-17 -5 -21 -17q-5 -11 -13 -12l6 -37q6 -8 17 -28l-8 -8l54 -35l-1 -5l39 -29l51 -9l11 -9
l61 16zM194 291v0l4 45l-6 34l55 93q41 -91 48 -99l-57 -69z" />
    <glyph glyph-name="questiondown" unicode="&#xbf;" horiz-adv-x="74" 
d="M-40 -153v0l1 1l-3 5l51 4l-9 48l-2 5h1t9 -9l-24 123l6 24l-27 33l25 98q-5 0 -13 3q-9 2 -12 2q-7 0 -7 -5l-50 49h-8q-30 0 -43 14l-27 -4l-77 -35l8 16l-43 -47l6 -7l-29 -29l2 -1q-1 -3 -1 -8q0 -7 3 -18q3 -12 3 -21q0 -8 -2 -14l-2 2l-1 -1q0 -4 8 -14q6 -7 6 -14
q0 -4 -2 -7l45 -42l8 14l12 -42l81 -3q3 5 9 18t6 25v2l1 -2q2 12 2 18v6q-2 7 -2 23l22 18l-11 9l22 35l-34 4l-29 -16l-26 4l-17 -21l15 -23q23 4 56 26l-60 -91l-34 50l-22 42l3 40l22 30l35 30l35 11l9 -7l18 22l79 -52l-3 -43v3l-1 -10q0 -22 7 -22q1 0 3 1l-19 -51
l-4 -62l18 -86l-83 16q-7 10 -25 10l-11 -1q-19 0 -32 11l-38 -6l-18 13l-56 -23q-34 -4 -116 -17q2 -2 24 -6h13l7 4l23 -11l5 -14q10 8 11 8q3 0 12 -6l76 14l30 26q35 -8 40 -10l52 -11l13 -13l-16 23z" />
    <glyph glyph-name="Aacute" unicode="&#xc1;" horiz-adv-x="735" 
d="M311 -44v0l76 6l65 47l34 22l3 28q6 32 23 40q10 -8 9 6l5 -2l-30 148v58l-3 -18l-33 -1l-57 -53l-90 -10l-14 3l-36 64l6 31l8 6l-32 22l58 84l53 -35l16 -9l10 -45q6 -3 33 -20l-7 -10l83 -36q15 3 15 4l-1 1l30 -3l-54 38l-3 -4l-22 46l-66 63l63 5l139 14l61 18
l59 -24l44 17l40 -10q8 1 15 6t13 6l29 16l-30 13l-156 2l-54 -12l-45 14l-25 -24l-83 17v2l-8 -11l-34 6l-18 27l-75 -40l-74 13l-39 -7l-40 -12l-46 4l-49 6l-81 5l-22 3l-31 -14l6 -1l-24 -10l8 12l158 -39l71 -4l56 -10l-6 -15l-3 -74l-4 11q-4 -47 -6 -95l9 20l18 -60
l42 -16l93 6l23 10l18 15l48 23l27 -11l-3 -65l-22 -27l-20 -82l1 -1l-6 -14l-53 -64l-70 -3l-30 14l-56 11l-26 37l-33 43l-41 40l-17 49l-4 -1l-7 17l-12 58q-18 9 -23 10t-23 5l-6 -17l12 -5l-19 -34l9 -30l-13 8l44 -81l9 4q16 -38 21 -49l19 -21l2 -9l39 -12
q13 -2 26 -11q14 -10 29 -10l48 -29h44l10 1zM564 38v0l14 5q15 28 49 28t61 9q2 4 36 33l-6 -1q4 11 15 18l-18 24l8 -9l-36 48l31 82l-10 38l4 9l-39 22l8 1l-32 6l-10 10l-47 -2q-4 1 -8 1q-6 0 -11 -2l-11 -4l-27 -2q-9 -17 -21 -43l-48 -44q14 -11 23 -11q16 0 19 31
l96 66l48 -8l37 -63l-9 -41l-72 -29l-22 5l1 -20q4 1 9 2q4 0 16 6l33 -27l26 -48l-2 -34l-45 -35l-53 28l-27 52l9 -7l-46 33l-3 -21l3 1q-12 -9 -15 -12q-3 -2 -3 -10q0 -4 1 -10v-3q11 -34 15 -7q-6 -15 39 -44z" />
    <glyph glyph-name="Acircumflex" unicode="&#xc2;" horiz-adv-x="702" 
d="M392 -41l-20 1l-36 9q-5 21 -5 33t1 38l9 35l-18 63l-56 2l-29 15l-58 26l-106 -15q14 -14 14 -16l-1 -1v-1l-4 1l-42 -9l-11 12l-10 1l34 30l77 19l15 -9h4q4 0 11 -1q3 -1 6 -1q4 0 6 3l70 -12l6 -7l70 18l2 74l-3 70l16 10l3 2l-18 57l-56 41l-51 18l-13 -30l-52 -45
l-15 -56l44 -20l23 -9l18 18l-7 6l-7 14l6 10l-7 -3l19 15l81 10l-54 -98q-3 -6 -9 -12q-4 -5 -4 -13v-4q-25 18 -41 18l-6 -1q-6 -1 -12 -1q-10 0 -18 4l-41 12l8 2l-20 32l6 -1l-2 68l-18 17l26 30l26 38v-8l9 10q24 1 39 5q12 2 23 2q5 0 14 -1q10 0 44 -14l-2 2h21
l73 -46l11 41l44 14l-8 7h13l26 2h39l73 6l54 -15l167 -18l-55 39l-13 -16l-25 13l-55 -23l-33 -13l-100 13l19 -19l19 -29l-4 -9l4 -9q-7 -12 -19 -24l-50 -13l70 -18q-10 -41 -20 -58l-32 -24l-31 -10l73 -52q19 7 23 7t9 -4h1l67 -27l-18 -30l-33 -41l-32 -9l-18 -39
l-13 7l-48 -35l6 6l-48 -20q-27 -31 -30 -39t-5 -18v0zM437 303l56 5l-48 53l34 37l-27 50l-67 -3l-4 -73l2 -66l54 -3v0zM405 7q-4 11 -4 18q0 9 8 13t25 11q16 7 23 15t20 21l18 7l43 35l49 57l-13 -14q-26 5 -44 18q-16 11 -23 11h-1q-4 1 -51 23l-40 10l-3 20l-21 23
v-57l4 -85l-4 -34l14 -92v0z" />
    <glyph glyph-name="AE" unicode="&#xc6;" horiz-adv-x="490" 
d="M217 43v0l41 12l19 -11l98 26l15 12l-20 17l69 40l-11 7l18 23h-3q-1 11 -1 17v7q1 8 2 22l4 1q-6 2 -25 42l9 -16l-36 43l-38 25q-5 12 -22 13t-32 3l3 1h-3v0q0 -1 6 -9l-60 12q-6 -4 -9 -10q-2 -7 -7 -13l-1 -2l13 -42l-7 -18l-8 -14v-8q0 -9 2 -19q3 -9 3 -18
q0 -4 -1 -9l-6 -19h6h7q4 1 7 1q4 0 7 -1l11 -5q14 5 28 17q14 13 34 30l-32 21l-28 78l124 -67l1 -16l7 5l13 -23l13 -35l-50 -50l-53 -41l-39 -14l-26 5q-13 6 -22 6q-4 0 -7 -1q-2 -1 -5 -1q-11 0 -35 12l-30 50l-9 44l-14 38l-2 64l-3 35q-5 2 -10 2q-7 0 -7 -2
q0 -3 13 -11l6 133l-1 2q0 2 1 3v1t-3 5l-18 46l121 -27l79 2l54 -14l67 4l22 -11l44 8l25 1l8 2q10 13 33 13q5 0 11 -1l3 17l-40 -51l-162 48l-25 23l18 47q-15 30 -31 59l-58 35l-40 1q-4 2 -11 2q-13 0 -13 -6q0 -2 1 -4l-39 18l-39 -5q1 1 1 2v0q-5 0 -61 -28l-57 -6v5
l-50 -29l-49 4l-41 -15l21 -7l31 2l16 -23l57 48l39 7l13 20l100 9l26 -11l18 2l47 -6l34 -41l23 -49l21 -71l-81 15l-25 2l-25 8l-64 -17l-19 22l-23 2q-3 -1 -11 -4q-9 -3 -12 -8l-34 -20l-105 20l-25 -14q29 -5 33 -6t4 -5q0 -2 -1 -6l113 23l7 -63l-19 -34l14 -69l1 -2
q0 -4 3 -22q3 -17 11 -37l13 -25l-4 -41l15 -26l-25 -52v2l9 -15l-8 -22l13 -11l-2 -9q7 -1 12 -1q4 0 7 1h3q5 0 12 -5l24 11l60 -7zM248 -88v0l12 14l15 -5q35 54 58 86l-1 11l26 44l-1 -5v15q0 3 1 17l-7 -4l8 21l-71 -50l9 -7l-40 -30l-42 -39l-71 13l-13 -12l-86 55
l6 -2l-37 32l4 30l-6 -4l-14 37l-13 -12h3l-4 -7l14 -29l7 -4l6 -22l17 -9l24 -50l-13 3l43 -30l-3 -2q6 -3 27 -17l44 -15l-2 -9l59 4z" />
    <glyph glyph-name="Ccedilla" unicode="&#xc7;" horiz-adv-x="803" 
d="M516 -29v0q10 0 24 1q13 2 23 2q9 0 15 -1l10 3l26 -1l30 23l71 19l-3 -2l57 48l10 67l-8 -6l21 58l-36 67l9 3l-19 23l7 4l-21 27l-12 -1l-27 46l-10 -43l-63 -18l-77 -66l-2 79l3 40l13 43l-3 47l27 -9l35 35l75 -25l43 20l83 1l44 -7l6 1v8v2q0 5 -7 16l-33 2
q-8 -1 -16 -1q-7 0 -15 1q-13 2 -13 11v2l-160 -30l-60 23l-15 17q-5 -5 -22 -9t-17 -13q0 -4 2 -9l-108 -19l-112 35q-3 1 -11 1q-10 0 -18 -1l-38 8q-9 -3 -10 -9q-2 -5 -41 -20l-91 16l-28 -16l-45 13l-32 14l-44 -12l9 -28l5 1l5 -1q4 0 7 11l32 -20l109 -2l88 9l-3 -54
l14 -75l-14 -43l-5 6q9 -11 13 -14q4 -4 10 -11h3q9 0 16 -1q3 -1 5 -1q5 0 7 3l27 -4l45 18l35 1l23 -30l-43 -19l-68 -96l-58 24l-42 35l-35 42l-23 50q-6 9 -20 25q-16 8 -23 8q-4 0 -7 -1q-2 -1 -4 -1h-2q-1 0 -1 -5v-9l-10 -30l-6 2q25 -37 38 -55t20 -36l21 -33
l56 -14q15 -5 17 -5h1q0 3 -6 10l76 -14l9 -11l45 9l22 -14l26 -48l8 9l68 -58q9 -11 25 -18q16 -6 26 -7q2 -1 9 -5q13 -8 33 -8zM556 -19v0l-46 20l-28 8l-68 47l-30 35l-12 9l-15 31l6 28l6 39l19 100l-1 -4l-5 56q-22 -23 -33 -23l-6 -1q-10 0 -27 4q-9 -5 -13 -11
t-9 -21l-60 25l22 48l-8 66l81 6l7 -7h-1q0 3 115 8l44 -2l-14 -75q-1 -10 -1 -17q0 -15 3 -23q5 -12 10 -41l7 -63l-11 -55l18 -11l40 18l-1 11l56 4l36 19l46 48l20 -19l21 -55l-15 -70l11 -30l-27 -41l3 2q-1 -2 -2 -8t-1 -11q0 -8 2 -21l-96 -7z" />
    <glyph glyph-name="Egrave" unicode="&#xc8;" horiz-adv-x="827" 
d="M434 -35v0l15 4v1q0 6 7 6h2q5 -1 7 -1q4 0 5 1l12 -3q7 -2 13 -2q15 0 17 19l56 -18l-2 -2q8 5 15 5q5 0 8 -2q4 -2 6 -2q5 0 9 7l45 -10l40 -3q12 4 19 15q6 12 14 19q21 19 41 39l-4 -3v7q0 13 7 21q10 9 17 18v-4q-3 31 -3 41t3 19l-5 12l-5 -12l-32 74l14 11l-52 15
q-15 0 -28 5q-14 6 -28 8l8 19l-46 -4q-7 2 -11 2h-3h-6h-9q-5 -4 -8 -6l-6 -2l-3 -21l-10 -32l21 -110l22 -17q9 2 15 2t13 2q9 19 9 26v1q0 7 10 21l-9 -9l-21 45l32 47l37 -2l57 -71l-8 -89l-23 -5l-44 -37l-70 -29l-26 16l-59 17l-12 25l-14 66l-14 46l10 31l-23 61
l18 69q-1 3 -1 6t5 4v6q0 15 -4 33q-4 23 -10 48l-2 -5l-17 50l60 18l87 -20l42 -5l49 9l12 19l87 -27l14 15l104 11v20l-37 -20l-115 17l-44 -8q-8 2 -13 2h-6q-8 -3 -26 -6l25 87l10 4l-19 18l-4 -8l-34 50q-6 3 -25 10t-31 9l16 14h-98l-62 -6l-15 -14l-102 -21l-5 -11
l-67 3l-16 -25l29 -8l11 5l1 -5l27 11l62 39l69 -11l43 25l84 -27l28 -21l62 -18l-9 -49l29 -28l-108 -30l-47 19l-50 -19l-2 21q-9 1 -15 5q-5 4 -16 8q-11 -1 -18 -5q-8 -4 -16 -5q-3 -8 -3 -14q0 -9 6 -18l-31 -17l-11 13l-60 6l1 -4l-71 17q-1 4 -9 4q-5 0 -14 -2
q-13 -3 -23 -3q-7 0 -12 1l-7 -5l-9 19l-53 -42l6 -1l-35 -61l-4 1l-4 -21l-8 -1l-4 -43l5 6l2 -28l-1 -36l-1 9l24 -73l30 -35l-18 -10q32 -12 48 -13q15 -2 24 -2q16 0 35 3l-12 6l54 -9v0q6 -3 14 -3q7 0 14 2v-11l11 51v-4q-2 9 -2 15t1 11q4 9 6 18q5 8 5 18q0 4 -1 7
v9q0 12 4 28l12 17v-9l-5 14l9 26l-5 1l7 1q-22 -4 -38 -4l-19 1q-13 0 -26 -1l-16 -17l4 1l-3 -13l5 -12q13 -2 19 -4t28 -14l-41 -50l7 -15l25 -1l-116 28l-12 26l6 18l-45 99l62 41l-6 -4q4 5 4 11q0 3 -1 6q-3 7 -10 7h-2l116 28l21 -9q60 -11 89 -15l37 -60l10 -38
l-4 -70q1 -5 1 -9q0 -3 -6 -24l1 -44q-3 -9 -3 -17q0 -11 16 -47l-14 -38l-2 -31h12h4t1 1q0 2 -9 11l-2 -92q7 -2 18 -5l-7 -7z" />
    <glyph glyph-name="Eacute" unicode="&#xc9;" horiz-adv-x="712" 
d="M393 -35v0l50 12l-1 -5l11 13l20 -9l48 -4l39 3l20 29q15 9 31 20q15 11 24 17l16 19l-4 1l19 16v-4q2 32 7 50q5 17 16 31l-3 -1q-2 5 -2 14q-1 10 -5 22l-8 9l-10 40v4q0 7 -5 15q-8 11 -11 21v-3l-42 69l-4 -1l-71 86l-20 20h37l92 18l50 -18h66l38 13q24 22 28 25
l-18 6l-32 -2l-52 3l-62 -8l-69 -16l-102 3l-53 39q-3 13 -23 86l18 22l4 60l74 52l-8 5l113 23l-19 6l-5 15l-14 10q-6 -26 -27 -30q-21 -5 -34 -7l-19 -16l-1 16l-45 -73l-30 -28l-33 -22q-5 -9 -12 -16t-10 -15l5 1q-1 -14 -4 -24q-3 -9 -7 -24q4 -8 5 -16q2 -8 4 -14
l-9 9l20 -46l-1 7l27 -15l-60 -5l-1 2l-19 5l-2 -26l-87 20l-60 8h-2q-3 0 -10 -3q-10 -5 -15 -11l14 -8l-68 -43v5q1 -3 1 -6q0 -11 -10 -23q-11 -15 -21 -28l4 3q-2 -15 -2 -24q0 -10 3 -34l11 -38l14 -1l22 -52l38 -30l-3 -3l36 -3l47 -30q8 1 13 1q8 0 13 -1q3 -1 7 -1
q6 0 13 2q1 7 1 10q0 4 11 10l-21 29l21 69l10 78l-33 -6q-11 -5 -16 -5v0q-5 0 -15 -9l-12 -13l-10 -23l35 -25v-19l-67 -71l-27 69l-25 49l-4 55l38 33l28 84l41 -8l41 3l39 -14l-17 12l78 -37l18 -53l4 -78l-7 -48l-25 -10l-28 -65l-37 -63l-36 -38l2 3q-1 -6 -2 -10
q-1 -3 -1 -6q0 -4 3 -11l4 -12l-16 10l45 -63zM488 -16v0q-25 9 -84 26l-32 21l-15 61l17 37l-3 2l9 5l32 50l9 -8l9 39l-2 -3q7 10 7 19v1q0 5 6 5q7 0 18 -4l-10 96l14 8l-10 43l2 14l-11 54l49 -36q24 -19 37 -29q13 -9 30 -9q4 0 9 1l19 -50l-1 -23l30 -87l8 -60l-9 5
l50 14l-98 -140l-24 -28z" />
    <glyph glyph-name="Edieresis" unicode="&#xcb;" horiz-adv-x="541" 
d="M641 443v0l-169 53l-193 -44l-97 28l-40 -7l-55 -5l-51 -5l-60 14h-2v0l-4 2l3 -2l-2 -2l28 -10l6 -34l80 22l3 -1q0 1 -11 5l139 -22l119 -2l108 18zM406 -35v0l30 33l1 -19l28 86l-14 14l7 62q7 12 7 14q0 8 -8 22q-10 16 -15 26l6 29l27 14l-15 4q8 11 8 19q0 6 -5 22
l4 11l-15 27l8 -15l-61 60l5 -6l-28 21l-43 7l-13 24l-69 -25l-5 6l-22 -19l-20 -8l-8 -11l36 -72l-13 -2l24 -41l11 -32l7 -3l12 6l35 11l3 18l2 28l-17 13l-22 4l-7 65l27 12l2 -12l78 -11l39 -13l5 -57v-49l-24 -30l-79 -21l-55 -14l-5 7l23 -30l30 -8l52 18l19 18l49 13
l-5 -53l13 2l3 -62l-39 -31l-64 -28l-27 -7l-72 20l-17 15l-3 6l-14 11l-27 37l-2 9l17 -23l-38 100l-25 44l18 15q-2 4 -9 8q-8 3 -13 8v-1l-41 38l-14 7h3l-4 1q3 -7 3 -11h-2l-1 -5q0 -13 7 -24q6 -10 6 -24v-4l15 9l16 -59l11 -79l-17 1l55 -48q9 -7 10 -11q2 -4 8 -9
q6 -6 12 -11h-1q14 -9 16 -9q4 0 6 12l66 -43l-9 8q80 -12 106 -16z" />
    <glyph glyph-name="Igrave" unicode="&#xcc;" horiz-adv-x="559" 
d="M450 -52v0q3 0 19 -3l32 24l-21 38l2 12l13 -14l-20 77h-8l4 92l10 45l14 -1q-2 10 -2 18v6l1 3q0 8 -7 16l10 50l20 5l-22 69l-1 45l13 20l26 -16l46 16q5 6 13 7q9 2 16 6l-7 -3q4 4 4 5q-12 1 -23 3t-15 17l-50 -9l-24 5l6 9l-23 -6q-2 -4 -6 -5q-4 -2 -8 -7l-7 10v-2
q0 -3 -3 -6q-3 -4 -4 -8l-10 9l1 -54l7 -62l-10 -22l34 -33l-42 -130l4 -33l-21 5l23 -5l-76 16l3 -1q-4 4 -105 10l50 36l-7 -3l34 23l27 8l13 86l2 -4q3 9 3 18q0 16 -5 30l6 2l-18 6l-21 57l12 4l-32 4l-39 62l-51 -64l-98 59l-40 -47l-20 11l-19 -84v-34l5 -35l6 -9
q17 -9 81 -37l14 5q-1 4 -1 7q0 8 2 8q1 0 2 -2l17 43l-1 14l-20 16l-36 -3q-5 -5 -12 -5q-5 0 -5 4q0 2 -1 5q-1 4 -1.5 11t3.5 15l28 75l69 -52l-16 -29q20 -18 33 -25q6 3 10 7q5 3 8 4l4 -6l37 93l66 -133l-37 -66l-18 -5l-37 -2l-52 -68l-31 -11l-55 -54l-28 -33
l29 -17q3 -1 8 -2t13 -2l9 -11l76 80l10 1l75 33l66 -43l16 -3l34 -30l-3 -120q7 -1 13 -4h5q5 0 8 -1q1 -1 4 -1z" />
    <glyph glyph-name="Icircumflex" unicode="&#xce;" horiz-adv-x="576" 
d="M468 -52v0q9 2 16 4q7 3 9 3h1l25 15l-6 -5q-4 10 -4 17v4q2 6 2 14l2 2l2 11l-35 81l14 107l-14 33l9 41l24 8l-11 57q1 3 1 7v6q0 6 1 8q-3 3 -5 3q-1 1 -4 2l1 8l-37 9l34 -14l-114 47l-2 -4l-37 14l-4 5l-23 3l1 4l-86 -14q-49 -31 -70 -46l-21 -29l2 7
q-3 -38 -3 -47q0 -12 3 -29l-4 17l38 -64l12 -52l-6 -4l37 -51l60 -3l16 18l38 -34l-1 41l26 71l14 9l8 73q-2 1 -9 4q-7 4 -14 5q-5 2 -9 3q-4 0 -10 4q-4 -9 -15 -11q-10 -2 -19 -5l-4 -1q-3 -1 -4 -2l-1 -1l8 6l20 -59l-36 -28l-47 -16l-10 13l-14 62l-9 75l31 51l60 9
l43 -19l63 -8l36 -34q1 -4 15 -35l-5 -23l27 -80l-27 -43l2 -67q-1 -5 -1 -12q0 -16 5 -27q6 -16 15 -57l-92 46l-71 1l-21 4q-6 -2 -14 -2q-5 0 -12 1q-16 3 -31 3l21 17l-85 -23l-19 -1l-17 15l-47 -20q-8 -14 -23 -17q-16 -3 -37 -4l3 -4q19 -4 28 -13l21 -10l21 8l4 -2
l6 1l24 -5l47 33l57 15l25 -6l25 -10l-6 -1l53 -4l38 -29l-4 1h2q10 0 16 -13l24 -10h7l47 -20zM76 439v0l63 15l22 9l74 -21l39 23l46 -12l48 4l39 -8l26 13l52 -19l53 13l76 -12l43 33l-61 5l-10 15l-101 -21l-33 5l-58 -13l-40 6l-67 23l-49 -19l-37 -5l-21 10l-70 -10
l-33 -1l2 -2q-5 -5 -12 -7q-7 -1 -18 -7z" />
    <glyph glyph-name="Idieresis" unicode="&#xcf;" horiz-adv-x="561" 
d="M441 -61v0l27 25h17q-4 7 -4 16v0q1 0 3 -5l-15 68q-5 8 -5 17q0 10 6 10q4 0 8 -2l-23 86l12 81l20 36l-12 23l10 34l-57 10l-4 -29v-51l-23 -56l-107 -47l-17 72l8 33l-12 65l11 38q-2 0 -5 1t-16 10l-30 -30l14 -2q-8 -9 -9 -17q0 -7 -5 -22l-10 -7l-34 -49l-65 -32
l-34 -19l8 64l4 2q-9 13 -9 32q0 18 4 46l1 -1l1 6q0 7 -2 12q-4 9 -4 17l7 20q-5 4 -5 11l1 4q1 10 4 14l1 17l29 -1l6 13l83 -7l28 -10l37 26l75 28l150 -35l136 21l-6 -2v1v0q-1 0 -1 1v1l4 -10l-58 12l-43 -1l-41 -3l-79 9l-43 -16l-50 -4l-59 3l-35 -1l-51 3l-34 14
l-54 -10l2 8h10l-6 -3l-18 14q-28 -11 -55 -23l-45 -8l-35 17l-20 -43l12 17l72 -17l20 7l9 -46l5 -45l-4 2q12 -7 12 -23v-7q-1 -8 -1 -15q0 -13 3 -24l-12 -2l31 -23l-40 -84l10 -17h4q3 0 5 -1h1q2 0 2 5l42 3l-5 6l26 4l-10 -4l35 16l58 42l26 48l22 -73l-17 -62l7 8
l-14 -51q26 13 29 13v0q5 -1 11 -1l9 8l32 -5l17 23l-2 -3l29 35l10 -8l16 71l34 -91l2 -17l10 -50l12 -37l-29 -20l3 1q12 -12 12 -26v-4q-1 -8 -1 -16q0 -11 2 -23l-1 3l9 9z" />
    <glyph glyph-name="multiply" unicode="&#xd7;" horiz-adv-x="549" 
d="M273 -82v0l42 34l27 12q5 9 5 19q0 9 -3 19q-2 9 -2 21q0 14 4 33l-2 19l3 71l-20 44l11 34l24 -6l64 11l13 -44l-12 -33l3 -44l-11 -86q3 -12 3 -21q0 -5 -1 -10q-2 -6 -2 -15q0 -6 1 -14l-11 5l25 -36q2 1 3 1q1 1 11 4l22 15l-11 42l13 39q-5 13 -5 21q0 3 1 6
q2 4 2 9q0 7 -3 15l-6 -5l7 57l3 3q-4 6 -11 24q-6 18 -12 32l10 11l16 57q-31 7 -42 11q-2 0 -4 1l-18 6q-1 -5 -17 -14t-33 -9q-9 0 -47 5l22 43q1 3 1 8q0 19 -15 49l11 40l-36 8l-24 -26l13 -33l-16 -7l-66 -54l-36 -38l15 -3l-50 -47l17 116l-21 57v27l-1 -3l-47 61
l135 -23l87 7l37 -2l-10 -2h48l103 24l71 -17l24 3q13 5 25 10q12 6 20 8l-4 -7l-45 10l-5 5l-14 -1l-126 4l11 7l-54 -23l-79 14l-24 14l-50 -14l-53 4l-56 -8l1 13q-1 -2 -5 -2h-5q-5 0 -5 -3l1 -2l-40 10q-5 -8 -14 -12l-30 4l-48 -21l11 -5l-42 -14l-6 -7h62l61 16
l16 -51l-7 -82l17 6l-30 -104q2 -4 4 -6q2 -3 5 -6h-1q1 0 28 -15l4 -2l-2 16l41 -15l-16 1l100 66l7 8l-2 7l56 29q-19 -77 -24 -96l-56 -26l9 -4l-27 -14l-24 -23l-9 11l-35 -62l-52 -39l16 -16l-12 -3l52 -22q17 29 24 44l82 -17l48 -46l14 -17zM271 25v0l-69 35
q-7 4 -19 4q-7 0 -16 -1l-16 -3l5 1l43 63l33 29l45 57l-9 -61l11 -65l2 2q5 -18 5 -27q1 -8 1 -13l-1 -20z" />
    <glyph glyph-name="Oslash" unicode="&#xd8;" horiz-adv-x="407" 
d="M273 -82v0l42 34l27 12q5 9 5 19q0 9 -3 19q-2 9 -2 21q0 14 4 33l-2 19l3 71l-20 44l11 34l-25 38l22 43q1 3 1 8q0 19 -15 49l11 40l-36 8l-24 -26l13 -33l-16 -7l-66 -54l-36 -38l15 -3l-50 -47l17 116l-21 57v27l-1 -3l-47 61l135 -23l87 7l37 -2l-10 -2h48l103 24
l-54 15l11 7l-54 -23l-79 14l-24 14l-50 -14l-53 4l-56 -8l1 13q-1 -2 -5 -2h-5q-5 0 -5 -3l1 -2l-40 10q-5 -8 -14 -12l-30 4l-48 -21l11 -5l-42 -14l-6 -7h62l61 16l16 -51l-7 -82l17 6l-30 -104q2 -4 4 -6q2 -3 5 -6h-1q1 0 28 -15l4 -2l-2 16l41 -15l-16 1l100 66l7 8
l-2 7l56 29q-19 -77 -24 -96l-56 -26l9 -4l-27 -14l-24 -23l-9 11l-35 -62l-52 -39l16 -16l-12 -3l52 -22q17 29 24 44l82 -17l48 -46l14 -17zM271 25v0l-69 35q-7 4 -19 4q-7 0 -16 -1l-16 -3l5 1l43 63l33 29l45 57l-9 -61l11 -65l2 2q5 -18 5 -27q1 -8 1 -13l-1 -20z" />
    <glyph glyph-name="Ugrave" unicode="&#xd9;" horiz-adv-x="660" 
d="M79 214v0q9 0 14 2q8 3 18 8q1 -1 3 -1q7 0 16 10q12 12 22 14v-7l30 10l26 4l43 69l-26 -52l5 7q-3 -4 -3 -15v-3l-1 -1l8 -20q3 2 9 8q7 6 42 44l-5 -5q2 21 6 79l-7 43l-12 2q-4 0 -12 -4q-7 -3 -10 -3q-2 0 -3 1l-7 -49l4 5l-11 -13l-71 -64l-43 -19l-29 -10l-27 89
l22 33l-1 -1q2 4 2 7l-1 3q-3 9 -11 42l5 27l88 -6l27 3l53 -11l55 3l1 19l80 -26l36 12l43 4l49 22q-8 1 -16 1h-7l5 -3l-6 -20l-128 16l-81 -4l-116 20q-34 -3 -43 -5l-32 4l-53 -2q-2 0 -5 -6q-2 -7 -8 -7l-2 1l-28 -3l-30 5l-16 -11l1 1q-5 -4 -8 -5t-5 -2q-1 -2 -16 -5
q17 4 27 4q7 0 11 -2q9 -5 27 -8l37 -12l34 -29l-9 -34l6 -36l-8 -13l-12 4l11 -49l-9 -34l-1 8l6 -24l7 -9l30 12l3 -13h7zM542 -55v0l37 19q1 5 3 12q1 8 1 11q0 10 -8 22l10 21l-11 94l-10 23l-3 36q4 40 9 80l11 23l-16 78l-6 28l17 29q3 0 112 48l34 -3q0 1 2 3l9 -32
q-118 29 -137 33l-16 8l8 4l-13 -1q-20 0 -42 7l-9 -5q-4 -10 -37 -10h-2l-1 2l-22 14l-41 -7l-91 -3l-25 -12l60 -18l-14 -1l43 -5l73 7l45 -20l-8 -28l3 -58l-3 -14l18 -48q-71 9 -96 12l-1 -5q-25 14 -45 14q-21 0 -36 -2l3 1l-29 -14l-48 6l14 11l-52 -37l13 12l-45 -40
l1 5q-10 -34 -19 -54q-1 -5 -3 -54l-8 -28l2 -1l2 -8l-1 -3l6 -16l88 -76l82 -20h1q3 0 4 -4l18 -14l19 83l6 -3q-9 17 -9 31q0 16 10 28q15 18 15 41q0 6 -1 12l-44 16q-4 -10 -25 -30q12 -28 5 -41l16 -14l-53 -40q-42 28 -84 55l6 53l-7 -9l-8 30l26 81l69 10l40 4l65 11
l70 -27l36 -27l-5 -37q4 -25 4 -41q0 -21 -10 -50q1 -2 1 -4q0 -1 -1 -2v-2v1l-3 -63q-2 -2 -2 -27q0 -4 4 -21q4 -18 7 -36z" />
    <glyph glyph-name="Uacute" unicode="&#xda;" horiz-adv-x="609" 
d="M463 -16v0l52 62l15 -16l36 110l-5 -10l12 71l-29 79q-3 8 -7 13q-3 5 -5 8l9 -5l-28 38l-8 -15l-44 70l2 -11l-36 43l-47 31l85 6l23 4l-3 7q11 5 28 5q9 0 20 -1q8 -1 15 -1q20 0 33 8l59 -24l55 32l-2 1q5 0 5 1v0q-1 0 -1 -1v0q1 0 2 7l-116 -22q-52 7 -105 16h-43
l-61 4v0l-24 -8l-54 106l3 45l71 20q59 54 118 107l-24 -1l14 19l-102 -26l3 -16l19 -17l-56 -18l-36 -10l-39 -57h15l-29 -48l-6 -20q2 -18 9 -33t30 -43l-74 9l-63 -21q-64 5 -79 7l-17 -10h-49q-2 -4 -2 -6t-2 -6l30 15l67 -7l78 7l24 -16l75 -12l28 -17l-22 -2l11 -92
l-67 47h-3q-5 0 -13 -2h-5q-10 0 -22 6l-29 -9l-16 1h-2l27 6l-103 -34h8l-9 -8l11 -11l-40 -45l12 -45l16 -43l-6 7l35 -33l23 -30q8 -3 12 -3q5 0 9 -5l23 32l34 17q13 35 25 70l-14 22l-20 16l-26 -98l-71 60l-9 1l3 99l76 7l16 6l16 3l77 -47l14 -59l-17 -27l22 9
l-84 -105l-14 -39l12 -13l-39 -38l4 7l-9 -27l52 -9l-31 -27l152 -1q2 1 5 1q4 0 9 -3q8 -4 16 -6q6 1 8 1h3q4 0 7 11l35 -9zM368 13v0l-42 16v0q0 -2 -4 -2q-3 0 -9 1q-13 3 -36 5l-33 38l-3 -1l-35 27l47 30l-9 -5l39 38l22 42h-1l18 34l8 -3l3 34l-1 -20l25 103l-5 20
l-28 88l63 -45l37 -28l30 -9l8 -20l-10 -11l49 -78v-43l-9 -60l20 -41l-52 -63l-26 -23z" />
    <glyph glyph-name="Ucircumflex" unicode="&#xdb;" horiz-adv-x="583" 
d="M308 -25v0l55 27l93 9l25 18q12 7 18 21q5 13 18 20l-11 -4l20 42l15 16l-29 43l14 63l2 -4v1q0 5 -7 13q-5 5 -5 8q0 1 2 2l-76 108l-20 -50l6 -13l-29 -42l-10 -7l-43 -45l-11 65q1 6 1 11q0 11 -3 18q-5 9 -6 32l3 24l5 -12l-10 34l-6 35l45 59l53 -26l94 -4l51 9
l22 -4l29 -1l17 26q-7 2 -13 2h-6h-1q-9 0 -23 29l-137 -25l-19 4l-40 -7l-53 12l-6 3q-78 -11 -157 -21l-85 12l-40 -11l-46 4l-21 12l-49 -15l8 -21l-5 14l76 -22l42 13l8 19l92 -20l-13 -25l141 46l-8 -77l-26 -74l-49 52l20 -17l-79 33q-5 0 -5 1t8 2l-66 -11l-58 -21
l-24 -43l20 -62l3 -21l-5 14l19 -36l51 -45q5 9 11 18l60 59q3 7 15 26l-4 -6l2 23q-12 0 -17 2q-6 3 -14 3l-8 -1q-1 1 -2 1q-5 0 -11 -5q-9 -7 -18 -7l15 -4q-7 -9 -29 -45l-41 42l-12 24l101 82l62 -23l37 -18l23 -35l14 -16l3 -57l-16 -43l17 -12l-3 -12l22 21l64 -1
l-3 1l14 9l44 24l-14 19l63 61q11 -58 23 -115l20 -12l-2 -73l-27 -48l-58 -6l-20 -40l-71 4l-19 9l-43 -4l-39 25l6 1l-53 63l7 -3q-20 -7 -31 -12t-25 -10q7 -2 12 -7q5 -4 14 -12l22 -20l-4 19l63 -59l22 5z" />
    <glyph glyph-name="Udieresis" unicode="&#xdc;" horiz-adv-x="544" 
d="M290 -74v0q7 9 17 9l4 -1h9q8 0 16 2q1 4 3 4q2 1 2 6v8l14 41l-15 74l-8 46l-15 27l19 41l-2 -1q2 8 2 13v1q0 4 5 6l55 36l31 -48l10 -34l-18 -22l5 -91l-3 -38l12 -54l-3 5l10 -20l-8 -2l8 -4q21 9 57 24l-32 17l14 56l2 39l-7 59l1 -2l1 5q0 6 -2 9q-2 5 -6 16l5 27
l-2 4q1 4 1 7q0 6 -4 10q-5 5 -5 14q0 3 8 43l-10 8l4 2q-7 2 -16 5q-8 3 -14 3t-14 -3q-6 2 -11 2q-10 0 -17 -6q-10 -8 -20 -8h-4q-10 0 -23 -3l-26 81l4 1l-5 8l10 26l-2 -8l-3 23l21 38l64 18l61 9l2 6l75 -5l-2 -3q12 2 18 4q7 2 15 3q5 0 5 4v2q-7 5 -17 8q-5 2 -13 2
h-10q-13 0 -22 3l-25 38l-106 -36l-40 -3l-20 13q-5 -4 -14 -4q-8 0 -17 3q-13 4 -23 4q-7 0 -12 -2l12 -16l-60 5l-25 -14l-25 -17l-152 18l-51 12q-10 -14 -19 -14h-1q-10 0 -24 -12q7 1 13 1t12 -1h2q3 0 3 3q0 5 -9 17l140 -40l53 10l136 -11l29 -51l-139 14l-1 -2
q-8 4 -22 6q-13 2 -20 2q-12 0 -23 -4h-1q0 -1 -1 -1t-10 12q-23 -48 -28 -59l-27 -32l4 -1q-4 -6 -4 -29q0 -9 1 -16l9 -10l5 -29h-1l17 -20l7 1l34 -29l-18 11q53 -15 57 -16l12 11l20 69l-4 2q8 11 10 23t4 19l-5 18l-7 -4q-13 0 -38 4l-17 -7l19 -50l-14 -6l3 -2
l-36 -24l-19 47l-5 48l13 25l38 22l77 -4l11 -8l-8 -3l62 3l25 -68l1 -53q-16 -12 -98 -71l18 15l-51 -57l-8 -22l-50 -34l-13 13l-14 -54q21 -8 36 -19l11 3l5 60l92 -31l42 -34l34 -71l-8 -4zM265 17v0q-68 39 -103 59l41 60l52 25l28 35l4 -47l19 15l-19 -105z" />
    <glyph glyph-name="Yacute" unicode="&#xdd;" horiz-adv-x="612" 
d="M496 -53v0l7 8q10 3 16 3h4q8 0 23 9l8 13q1 2 1 5q0 4 -1 8q-2 4 -2 9v5l-25 11l26 51l6 -7l-16 31v7l-15 18l8 36q6 8 6 17l-1 8q0 4 2 4h2l1 52l13 -20l-23 127l-7 49l7 61l47 12l73 -13l20 7l-5 -1q3 3 7 5q3 2 4 5q2 3 6 5q3 2 26 9l-91 -14l-56 10l-23 14l-38 -1
l-16 -8l-12 -4l-8 11l-40 -18l-25 21l-77 -26l-101 22q-8 -3 -19 -3q-10 0 -43 4q-26 -5 -51 -11l-29 1l-1 -14q-34 2 -109 6l-4 -19l34 27l84 -30l-2 1q5 -2 10 -2h3h6h7l-7 -3l39 3l35 -2l23 -59l5 -5q9 -6 15 -13q7 -6 11 -21q4 -14 11 -20t13 -22l-59 31q-5 0 -19 7
q-14 8 -14 26v5l-75 -22q-5 -8 -32 -11l15 -12l-40 -15l2 1q-1 -2 -4 -7t-8 -5l-15 -6q-1 -4 -1 -8q0 -12 5 -28q8 -23 10 -39l-17 11l54 -75l2 3l-2 -18l-21 12l92 39l-8 5l27 5l14 27l5 18l-36 10q-4 0 -12 -8t-15 -8q-4 0 -8 2l-41 9l9 7l18 49l41 20q49 -3 99 -5l39 -67
l12 -45l-17 8l-14 -82l-21 -84l-77 19l-19 8q-9 -8 -10 -22t-5 -25v-8l36 1l1 4q6 1 14 1h12q15 -2 47 -3l21 35l48 58l-3 -3l34 65l-5 -3l-9 56l57 -19l136 -68l-29 -117v-36l5 -18zM475 184v0l-53 41l-106 34l5 31l-10 -11l-9 53l3 -4q-12 29 -24 40q-13 11 -13 15l17 64
l87 -9l40 -2h51l34 -17l-14 -44v-23l8 -57l-7 -34v3q-4 -7 -4 -15q0 -9 6 -18q3 -6 3 -13q0 -14 -14 -34z" />
    <glyph glyph-name="Thorn" unicode="&#xde;" horiz-adv-x="795" 
d="M394 -25v0l25 14q7 1 11 9l81 -13l-9 5l38 -7l19 8l68 -13l47 35l-12 6l40 24l30 21l-23 52l7 54l7 4q-17 20 -22 28t-17 21v6l-21 -13l-68 52l25 13l-102 -15l-12 -5v-3v-3q1 -3 1 -4l-1 -1l9 -33l7 -52l-12 -49l1 -24q2 3 8 3q8 0 26 -12l35 26l-5 6q19 21 39 42
l-53 43l57 15l38 -45l24 -16l-14 -70l-13 -17l-35 -63l-69 -4l-1 12l-60 -3l-71 46l-17 7q6 95 7 101q2 9 15 31l-19 61q0 10 10 13l-1 62l5 37l-10 40l17 12l-50 27l28 -2l25 -5l18 17l38 -4l34 15l121 2l117 -22l38 8l27 11l25 14l-10 1q-2 0 -2 -3l1 -2l-61 -15l-98 37
l-44 12l-3 25l-9 11l-22 44l-29 38q-9 -1 -10 -3l-6 10q-21 3 -43 11q-2 3 -8 3q-3 0 -9 -2q-11 -4 -16 -7l-42 19l-43 -6l-34 -28h-72l1 -7l-31 -2l-5 -9l-78 -12l31 -40l48 46l3 -12q11 5 28 11q16 6 46 18l6 -5l66 12l37 -17l69 6h5l82 -37l-3 -22l-23 -59l7 -12l-30 4
l-60 3l-49 -12l-16 4l-27 3q-3 -1 -5 -1q-3 0 -6 1l-1 1q-6 0 -22 -21l-9 -17q-83 12 -91 13l-22 11l-1 -13l-46 28q-14 0 -19 1q-5 0 -17 2v-47l-68 -23l-15 -12q-4 -5 -4 -14v-3q0 -9 -3 -17l19 -10q8 1 13 1h6q8 -1 11 -15l57 -3l20 -21l8 -21l-41 -31l-30 -45l-10 -9
q7 0 7 -1t-5 -5l38 12l40 -14l18 10q7 8 10 13q2 4 16 10l-7 4l119 101l-13 -63l10 -35l-5 -78l12 -42l5 -27l-11 -36l-7 -44h1q2 -3 2 -11q0 -5 -1 -13l-3 2l9 -8l-5 5zM260 304v0l-45 31l3 24q-1 5 -8 8l-56 11l-18 1q-14 0 -18 -9l25 50l51 24l84 -25l11 -6l-1 -12
l54 -11l-28 -21z" />
    <glyph glyph-name="germandbls" unicode="&#xdf;" horiz-adv-x="576" 
d="M316 -89v0l44 29l-1 7l31 3l3 4l27 11v-2q13 0 18 5q5 6 5 10q0 8 -8 19l62 50q5 8 5 15q0 3 -1 5v5q0 9 5 22l-1 16l-43 53v-1l-43 34l-13 25q10 52 10 56q0 6 -1 10q-4 8 -7 16l21 40l-19 59l14 31l42 25l29 -3l48 9l37 -18q14 0 14 3q0 4 -7 15l72 -12l-11 30l-55 -10
l-6 -8l-68 20l-49 17l-88 -14q-11 -3 -16 -4t-8 -13l7 -93l-98 77l9 -10l-58 30l-35 5l-35 -3q-4 -8 -4 -12t3 -12l-35 -39l-54 -25l6 4v-4q0 -3 4 -14q7 -1 13 -1t33 5l24 -17l28 -5l15 -78l-24 -32h8l-20 -20q8 -4 14 -4q5 -1 13 -3h13l-12 2l45 5h-1q0 2 5 6q3 2 5 2
q3 0 3 -5l33 34h-8l36 5l69 84l-11 -106l-20 -23l-47 -3l7 -2q-26 -8 -34 -9q-9 -17 -9 -29q0 -5 2 -9l15 -42l-12 -38l5 -13v-53q13 -1 17 -2h7h6l9 8l30 4q-3 1 -4 2l-1 1v-2l15 19q-3 6 -4 14q0 9 -1 20l-13 -3l1 27l-7 44l31 4q5 -2 9 -2q8 0 15 7q8 10 18 10h1
q40 -43 80 -88l-28 -65l-5 -31q-42 -27 -86 -52l-30 -5l-53 18l-40 1l-24 66l-46 46l-11 20l23 7l-10 13l3 8q-9 5 -15 7q-5 -5 -12 -5q-13 0 -16 4q-3 -1 -22 -10h-3l7 -68l35 -28l10 -11l20 -16l17 15l31 -53l-6 -1l1 10l85 -26zM227 256v0q-10 88 -12 103h9h-2h-1
q0 -2 10 -9l-83 30l-6 17l8 8l17 33l42 -6l37 -38l75 -16l13 6l15 -4l-31 -2q-53 -48 -76 -68l-5 13z" />
    <glyph glyph-name="agrave" unicode="&#xe0;" horiz-adv-x="832" 
d="M737 -55v0q5 0 9 5h9l24 16v2q-7 3 -9 7q-3 5 -3 6q0 4 10 6l20 -2q-33 79 -49 115l3 27l-1 40q5 22 5 37v8q-2 16 -3 31l5 58l9 35l-10 22l-4 81h17l42 17l83 -17l22 35q-4 0 -11 -7l-93 -7l-57 -2l1 19l-7 5q-20 -6 -33 -6q-6 0 -12 1l-9 -5l1 -46q2 -1 3 -1l-1 1
l-12 -20l-49 25v-1q0 -1 -1 -1q-2 0 -9 3q-4 2 -7 2q-5 0 -6 -6l-49 31h1h-1q-5 0 -16 6q-12 6 -20 14l-30 -8l4 7l-32 -16l8 -17l-59 -9l6 -2h-8l-58 -41l-45 13l-17 18l17 -15l-65 36l4 -2l-38 23l-75 -32l-28 -27l-6 7l-14 -57l23 -23l32 16l50 -24l13 -12l-20 -63
l-39 -40l30 -10l2 4l3 -4l40 -1l56 49l3 5l9 8l14 23l85 58l-2 -1l-2 30l88 -45l-3 -1l46 2l3 -73l-1 -27q1 -2 1 -3t1 -1q3 0 19 7l-59 -72q9 -1 17 -2t13 -5l16 7l26 15l-16 12l46 24l77 86l34 -27l10 -75l-16 -65q-3 -74 -3 -148l36 -35q6 -1 10 -1h2zM230 272v0
q2 27 3 55l3 15q-3 -1 -7 -1q-7 0 -16 6q-8 4 -16 4q-6 0 -13 -3l-30 -3l59 70l46 -5l25 -12l13 -19l56 -27l-38 -21zM535 202v0l34 96l-12 9l-4 4l9 18l-58 15q-16 7 -27 8q-12 2 -36 12l-20 5l1 28l78 39l62 7l1 4l61 -43l46 -7l38 -55l-23 -17l-31 -31l-59 -42l1 -1
q0 -4 -10 -6q-11 -2 -20 -6q-8 -5 -14 -12q-6 -8 -17 -25z" />
    <glyph glyph-name="aacute" unicode="&#xe1;" horiz-adv-x="695" 
d="M568 -52v0q2 0 3 2q14 11 29 11q14 1 30 6l-4 -2l6 5q1 5 1 12q0 9 -2 21q-1 11 -1 20t2 15l-13 9l6 33l-9 -1l-6 47l7 37l2 26l8 -10l-2 58l-1 -2q-2 9 -2 17q0 7 2 13q3 13 19 27l-15 65l-5 52l-1 23l-6 1l21 7l15 -16l76 30h1q8 6 13 7q6 1 8 4t9 4q7 0 14 3
q-23 3 -28 4q-6 1 -8 1q-12 0 -47 -8l-52 8l-12 8l6 1q-6 0 -6 3q0 1 1 3l-28 -7q-5 1 -9 1q-11 0 -20 -5q-8 -5 -18 -5q-5 0 -12 1l-6 -15l-64 -2l-75 -4l-57 17l-41 -2q-26 14 -27 14t-5 -18l-69 14l-6 -19l40 -29l39 -34l32 -41l-15 2l-18 1l-77 25l13 -4l-93 -7l14 -9
l-23 -9l-46 -46l11 -2l-37 -16l23 -18l60 11l30 -1l15 -53l-4 -27l-14 -52l3 1q-3 -5 -3 -10l2 -22l3 -1q4 0 10 3l7 -2q7 5 14 5t20 -4l19 7l17 33q70 62 86 77l31 40l6 -55l-7 4l8 -8l-8 -14l10 -1q-10 -19 -26 -53l-25 -53l-75 -20l-29 -13l-15 -31l1 -6q0 -3 -1 -6l32 9
v-7l63 31l-2 -2l47 27l10 -2v1q0 10 8 16q7 7 12 15l9 11l12 41l-15 -8l46 90l45 -19l66 -21l45 -52l-4 -42l-4 23q-11 -19 -11 -37q0 -23 23 -72l-25 -52l-2 3l20 -28q4 -1 5 -1zM268 232v0l-62 14l-3 23l-24 15q0 -4 -7 -4t-19 3q-26 6 -39 8l13 29l4 14l23 19l35 -6
l49 13l62 -58l1 -6l9 -27zM551 234v0l-46 10l-46 -4q-12 1 -61 2v58l-2 -8l-15 47l-1 9l-64 120l64 -14l-12 -31l140 17l18 9l33 -19l-3 -46l18 -20l5 -91z" />
    <glyph glyph-name="uacute" unicode="&#xfa;" horiz-adv-x="442" 
d="M297 -52v0l27 3q15 3 24 3h3q8 -1 20 -2l18 41l-24 93q-1 1 -2 5q-1 3 -2 3h-1l-6 25l14 23l-12 68l3 62q-4 9 -4 15q0 4 1 6q1 3 1 5q0 5 -8 12v59l22 54l3 13l53 4l39 -5l57 11l20 8l-14 12l-11 15l-66 -24l-71 10l-20 23l-38 1l-23 -13l23 -5l-2 -105l-99 89l2 -6
l-115 25q-5 -1 -8 -2l5 -2l-67 -21q-1 -2 -25 -25h7l-65 -58l13 -14l8 -1q19 -2 36 -3q16 -2 17 -8l68 -30l16 -89l-25 9l-28 -68l38 -16q6 0 8 -1l1 -1q2 0 4 4l18 18l37 12l-6 4l38 29l37 9l93 57l-7 -57l11 -45l-20 -67l-1 1q-2 -4 -2 -9q0 -4 14 -14l-6 -63l-30 -64
l-10 4zM131 241v0l36 68l-12 20q-15 10 -23 10q-2 0 -40 -5l-70 20l34 53l39 48q37 -6 40 -6q9 0 17 2q4 1 8 1q5 0 9 -2t8 -2t8 1l2 1q8 0 17 -17l78 -69l30 -22v-11l-34 -7l12 12z" />
    <glyph glyph-name="thorn" unicode="&#xfe;" horiz-adv-x="660" 
d="M563 -62v0l27 33l9 10l-8 -3l-5 79l1 58l-21 -3v73l3 69q2 3 2 9q1 7 2 7l1 -2l11 81l-41 16q-5 -5 -16 -5q-6 0 -11 3l-50 -16l1 11l-45 -23l4 91l9 -7l-39 42l83 -27l73 9h-1h14q3 0 6 -7q65 7 130 15l-10 2l20 7l-12 11q-4 -7 -15 -7q-7 0 -15 3q-19 4 -33 4h-7v-5
q-7 -1 -13 -1q-13 0 -22 4h-5q-12 0 -20 -23l-99 27l-23 -3l-25 7l3 6l-19 2l-13 -9l-63 31l-150 -31l-24 -2l-36 10l-21 -4l3 -2h-2q-4 0 -10 2q-7 2 -25 16q-30 -14 -46 -14q-9 0 -14 4l-36 -39q9 -2 15 -2q14 0 14 9q0 3 -3 9l94 -20l33 -20l12 -44l20 -16l-62 -51l-52 3
l33 -51l1 3l44 6l77 -67l-25 -30l-22 -62l-28 -7l8 -2l-48 -7l-46 -10l20 -25l-35 -13q7 -8 27 -13t49 -14l13 32l44 9l48 35l10 5l10 31l2 19l13 31l72 -34l34 -47l34 -45l-18 -23h3q-4 -2 -4 -13v-5q0 -12 -3 -18q3 -16 9 -26l10 -15t5 -13l24 -1q8 13 10 19q12 6 42 15
l-23 77l5 7l-17 23q2 4 14 35l-19 -15l18 83l13 -6l-23 31l4 35l-1 76l71 -12l32 -22l-19 -2l33 -62l-34 -72l20 -54q-1 -10 -1 -19v-11q0 -10 -13 -16l7 -68q0 -4 -2 -10q-2 -5 -4 -9l24 -7l-2 -14zM275 146v0l-39 41l-13 5l-12 32l-2 -2q-1 15 -12 24q-10 9 -19 22l-5 -5
l-22 34l46 37l-19 22l-12 20l-5 44l-8 17l48 25l88 -11l30 -20l37 -8l19 -35l-32 -66q-23 1 -125 8l-38 13l-19 -28l40 -21l84 15l13 -15l72 -39l7 -24l-15 -25q5 -8 5 -28t23 -30z" />
    <glyph glyph-name="yacute" unicode="&#xfd;" horiz-adv-x="668" 
d="M447 -82v0q5 4 10 5t5 3t-2 5l25 29l2 -6l22 2l-13 2l-42 27v1q-3 5 -9 7q-6 1 -13 3l10 27l-96 14l-30 -2l-53 40l-4 -14l-53 33l24 5l42 39l54 -1l9 7l-8 -7l76 59l-9 2l29 19l-22 -8l23 58l-4 -4l16 10l23 44l19 -3l-6 19l2 17l-39 -4l-23 -23l-12 41l16 -11l-46 40
l-4 27l34 15l8 1l67 -14l84 13l64 13l28 -16l29 12l43 15l23 -9l10 14l-44 18l-92 -15l20 6l-132 8l-61 2l-60 -16l-58 -2l3 -8l-48 6l-13 1l-13 -18l-51 24l-23 25l-77 -32l-29 9l-52 -11l-36 -3l-10 -10l-59 -8h2q3 0 7 1q6 1 19 2l38 -3l34 5l-14 12l114 -19l-2 -41
l-14 -12l-1 -52l11 -36l-8 -42q11 -10 29 -10q5 0 9 2l-2 -9q12 10 29 23q16 13 25 26l1 42l-27 40l6 43l2 -5l-22 44l85 -17l34 -12l62 25l17 -91l-7 -3l33 -16l-6 -67l3 -40l-35 -41l-30 -19h-1q-10 0 -36 -16q-28 -17 -41 -34l-46 -10l-69 53l2 2l-67 -17h4l65 -50l-5 9
l38 -9l38 -31l40 -19l53 -30l80 -55l-12 18l73 -57zM541 149v0q7 0 13 5q3 1 4 1q3 0 4 -5l65 69l-1 -1q-1 2 -1 4q0 5 4 12q3 7 3 13q0 3 -1 5l6 43l-63 76l-1 -1l-40 12q-13 -21 -41 -29q-27 -8 -46 -27l-16 -3l2 -21l-21 -41l5 -3h-7l-1 4l27 27l16 26l89 35l58 -43
l5 -52l-4 -7l8 -34l-55 -8q-2 19 -5 38l-11 5l-5 10l-6 3h3q-6 0 -8 2q-3 2 -5 2l-5 3l-4 6l-34 -18l28 -45l-5 -3q6 -12 12 -22q7 -9 13 -27l-11 -3q30 -8 32 -8z" />
    <glyph glyph-name="udieresis" unicode="&#xfc;" horiz-adv-x="637" 
d="M453 -80v0l16 8l-1 9q0 8 3 11q3 4 4 29l-34 14q-12 10 -19 13q-7 2 -18 7q-5 0 -15 5l-15 6h-3q-11 0 -20 1q-8 2 -8 13v8l-45 -3l-56 26l-14 16v0v-1q-3 0 -31 25l99 21l22 20l32 14l-7 7l37 15l-8 10l43 17l-12 15l29 66q0 24 -15 40q-15 17 -26 33l22 -5l-56 67
l-12 3l51 30l96 -40l153 18l35 -1l27 21l48 10l-91 8l-90 -8l-131 -3l-28 -1l-16 25l-91 -28l-37 14l-60 -2l-49 8l-16 6q-12 -1 -20 -4q-8 -2 -17 -5l16 2l-74 -14l-45 20l-55 -42l10 -1l-11 -1l-1 13l37 17l133 -18l-11 -49l-3 -27l15 -91l-14 -34l-6 3q54 -7 58 -8l27 15
q4 8 20 32l-9 29l-34 33l-9 59l20 18l51 1l57 2l23 -24l42 -62l42 -23l-12 -59l17 -22l-27 -54l-79 -41l-28 -4l-59 -22v-1q0 -5 -6 -8h-3q-8 0 -17 11l-20 12l-2 5l-20 8l3 -1q-7 5 -18 7h-20q-7 -4 -20 -9q-12 -5 -26 -13q1 1 3 1q7 0 19 -9q16 -13 24 -17l7 26l112 -78
l-3 4l23 -15l15 -14l45 -27l-10 -7l68 -26l-13 11l72 -34l15 -15zM504 38v0l9 4l-3 -1l9 3h6l14 -5q3 3 6 3q2 0 3 -1l12 21l-12 12l-7 66l-3 45l2 44l-4 44l-11 8l14 40l-3 40v1l13 10q-11 1 -20 1q-11 0 -19 -2q-13 -4 -23 -4h-3q-20 7 -27 7q-8 0 -14 -5q-4 -3 -9 -3
q-6 0 -15 6q-4 3 -10 3q-10 0 -22 -12l18 -45l60 25l30 -22v-22l1 -1q-8 -2 -8 -12v-6q1 -4 1 -9q0 -11 -4 -24q11 -12 11 -25q0 -4 -1 -7q-1 -7 -1 -14q0 -9 3 -16l-11 10l3 -85l-4 -29l-6 -15z" />
    <glyph glyph-name="ucircumflex" unicode="&#xfb;" horiz-adv-x="511" 
d="M446 -83v0l15 9l-1 8q0 8 4 12q3 3 3 29l-34 14q-12 10 -19 12q-7 3 -18 8q-5 0 -15 4q-10 5 -15 7h-3q-11 0 -20 1q-8 2 -8 13v8l-45 -3l-57 26l-13 17v-1q0 -1 -1 -1q-2 0 -17 8l86 39l22 20l32 13l-7 8l37 15l-8 10l43 16l-12 16l29 66q0 24 -15 41t-26 33l22 -6
l-56 68l-12 3l52 30l91 -22h87l27 20l40 34l-83 -15l-34 23l-82 -35l-28 -1l-16 26l-92 -29l-37 15l-60 -3l-49 8l-17 6q-11 0 -19 -3t-17 -5l15 2l-74 -15l-45 21l-56 -43l11 -1l-12 -1l-1 13l38 17l133 -18l-10 -49l-3 -27l15 -91l-15 -35l-5 3q54 -7 57 -8l28 15
q4 8 20 32l-9 30l-34 33l-10 59l21 18l51 1l58 2l23 -24l42 -62l42 -24l-12 -59l17 -22l-27 -54l-80 -42l-28 -3l-59 -22v-1q0 -5 -6 -8q-2 -1 -4 -1q-7 0 -16 12l-20 12l-2 4l-20 8h3q-8 5 -18 7h-21q-7 -5 -19 -10q-13 -5 -27 -12q2 1 4 1q6 0 19 -10q15 -13 23 -17l7 27
l113 -79l-3 4l23 -16l15 -13l45 -27l-9 -7l68 -27l-13 11l72 -34l16 -15zM379 -247v0q6 0 11 2q9 3 19 3q6 0 13 -1q7 11 19 12t19 7l-6 -3q2 7 9 14t15 14l-5 -4q3 9 8 18t8 22l-10 2l4 57l16 9l-61 34l29 2l59 -38l31 -32l8 -38l-5 -9l20 8l-12 -40l26 -19l32 -16l24 33
l-39 38l-8 25l15 -3l-81 73h7l-52 20l6 5l-33 -1l-48 4q-3 1 -7 1q-5 0 -10 -2q-9 -4 -16 -6l14 4l-64 -11l5 -3q-8 2 -14 2q-10 0 -16 -6q-10 -10 -26 -12q-6 -2 -12 -6t-10 -7l12 -2l-23 -20l4 1q-4 -11 -4 -22l1 -25l2 11l18 -36l17 -26l3 15l48 -20l27 -12l-2 -12
q8 -4 15 -4zM391 -238v0l-47 29l-32 21l-6 37l-7 2l18 72l93 2l46 -79l4 -41z" />
    <glyph glyph-name="ugrave" unicode="&#xf9;" horiz-adv-x="815" 
d="M585 -39v0q11 8 17 9q7 0 12 10l12 21l-4 17l1 69l-17 21l6 19l3 1q0 11 -1 22q-2 12 -2 19q0 10 2 20l14 30l-15 92v-9l14 67l9 20l74 -4l10 -66l7 -22l-25 -15l-2 10l-30 -34l2 -5l-9 5l24 -6q11 -25 13 -31l10 4l12 -13l34 58l8 29q-1 3 -1 6q0 4 2 11q4 10 12 14
l26 11l-99 51l5 1q-3 0 -3 1q0 2 5 19l-61 -15l-77 -10l2 2l-9 -1q0 -7 1 -9v-1q0 -4 -5 -19l2 -33l31 -46l-32 -77l-20 -38l-141 41l2 19l23 56l6 35l-27 89l-14 -6l-28 40h9l70 -7l81 29l80 -17l88 18h1l74 6l63 -18l47 11l8 9l-11 17l-4 2q-46 -13 -55 -13h-1l7 4
l-41 -11l-50 15l2 -7q-25 1 -48 6q-23 4 -64 9q-5 -14 -40 -14q-7 0 -15 1q-50 3 -79 9l21 14l-195 -16l-31 14l-6 -5h-1q-19 0 -29 -9q-9 -9 -24 -17l-11 17q-7 -1 -11 -1q-5 0 -7 1q-5 2 -22 14l-29 -34l-49 35q-1 1 -5 2q-3 0 -6 9l-32 -26l-12 -18l-69 14l-33 -41l89 12
l18 -4l72 1l32 -46l-1 6l25 -33l21 -49l-1 -74l-60 -27l-37 -32l-43 19l1 -76l62 14l32 27l-4 -4l37 24l-4 8l24 10h-3l20 20l9 -14l3 73l-3 71l95 -60l39 -14l37 -6l5 -66l-66 -29q-36 -37 -72 -73l-37 -6l-9 -12q7 -1 17 -1q17 0 42 2q6 -1 9 -1t9 2q8 4 19 5q10 1 17 5
l-5 5l19 11l3 35l31 13l32 -4l27 15l40 -46l38 -36l46 -48l-9 -58l12 -25zM348 337v0l-46 25l-3 -17l-78 22q-2 4 -23 69l-32 7l15 3l26 9l11 8l34 -10l29 15l76 -56l25 -26l28 -33z" />
    <glyph glyph-name="divide" unicode="&#xf7;" horiz-adv-x="801" 
d="M594 -33v0l44 23l32 23l-9 5l42 18l-2 -4l27 45l-2 -2q-2 6 -2 16q0 4 1 6l-1 40l3 -2q-11 11 -11 19q0 7 -8 15q-4 14 -8 33t-17 31q-12 5 -31 9q-20 3 -43 12l-8 19l-51 -5l-20 5q-8 -2 -12 -2q-3 0 -13 4v-14v-23q1 -17 11 -25l-6 -63l-8 -26l7 -29q5 -3 10 -3t8 -5
q21 2 31 10q10 9 25 16l1 -9l13 26q-1 6 -5 12q-4 7 -5 13l-5 6l-25 -12l15 76l48 -5l56 -67l-4 -30l-5 -2l47 -20l-85 -66l-2 8l-13 -26l-79 -12l5 -25l-115 54l-4 16l8 9l-4 -8l12 51l-1 12l-32 147l21 13l-4 -6v4q0 4 -2 11t-2 11v4l3 90l6 45l19 24l27 24l106 -17
l45 -18l47 12l12 11q39 -2 78 -5h32q8 1 18 3q11 2 15 2q14 0 31 -9l-8 30q-49 -10 -52 -11l-75 -2l-58 6h-1l-56 27l14 45l-9 36l1 -5l-21 30l22 14l-96 21l2 -1l-1 14l-61 -17l-23 8l-39 6l-80 -20l24 21l-93 -42l4 -4l-31 -9l-9 10l-38 -18l22 -10h3q1 -1 2 -1t1 3
q12 9 25 9h3q7 0 7 2q0 1 -3 2l92 24l40 2l68 -6l28 18l52 -28l6 1l33 -50l-16 -79l-86 6l-33 -9l-28 13l-19 -4l-21 -15l-65 -5l-97 16q-4 3 -11 3q-11 0 -24 -5l-37 14h-41l-25 -4l-5 1q-8 0 -12 -2h-5q-5 0 -13 3l-7 -18l-43 9l-38 -5l-9 -7q4 -5 4 -6h-4q-5 0 -18 1
l131 -1l31 -39l-12 -11l67 -80l39 -18l-12 -30l11 -81l-31 -31l-55 -35l-43 3l-14 -17l5 6q1 -5 1 -10t-2 -8q-4 -6 -4 -15l16 8l6 8l102 36l14 -5l41 47l21 12l-7 4q-1 14 -3 75l61 -13l54 -18l35 -11l2 -21l-2 -28l-8 -45h1v-10q0 -6 4 -13l22 6l-23 -117v-26l8 -1l13 -8
q5 -1 11 -1t12 1q13 1 28 2l6 -2l72 7l33 6zM276 308v0q-58 9 -75 9h-4l-5 -6l-39 60l-9 61q-4 5 -10 14t-24 10l91 4l37 -3l-20 -6l125 22l-4 -56l-9 -27l43 -80z" />
    <glyph glyph-name="odieresis" unicode="&#xf6;" horiz-adv-x="909" 
d="M56 147v0l81 27l21 15l59 75l-13 1l67 87l30 -27l65 -37l-6 -20q54 -16 59 -16h2q4 0 14 -3l5 23l-13 1l-2 51l19 -1l-18 107q5 8 5 21q0 14 4 23q1 3 1 7v6q-1 8 -2 22l-32 -1q-20 -7 -28 -23l-36 -18l-104 38l-59 -24l-39 8l-25 3l-27 -1l-56 -6l3 -1q-10 -3 -34 -6
q-13 -4 -23 -4q-15 0 -24 10l56 -31l33 -10l61 6l37 -44l24 -32l9 -33l13 -72l-36 -11l27 -4l-58 -54l-34 -20l-65 3q14 -15 37 -34l26 4zM263 334v0l-54 27l-17 23l-14 49l-10 6l20 15l88 -8l40 -2l43 -13l12 -58l10 -31l-91 -1zM835 -56v0l5 64q4 17 4 26v5q-2 9 -5 27
l1 11l-4 -11l1 39l-9 46l3 -3l-4 41l15 -15l-6 47l-25 40l16 65l17 21l-7 62l-13 64l27 -7l53 -12l-5 8l34 -9l48 19l-4 4l6 10l-8 -2l17 -3l-92 -6l-46 11l-42 12q-3 2 -7 2h-4q-4 -2 -9 -2l-6 1q-5 -35 -10 -59l-9 -2v-60l23 -57l-3 -32l13 -14l11 -49l-32 -124l-32 48
l-28 18q-71 2 -71 15v1l-48 -38l51 80l15 31l1 -13l19 69q-1 7 -1 13q0 9 3 21h2q-7 6 -7 24v2q0 19 -6 7l-96 103q-3 -1 -8 -3q-4 -2 -10 -2q-7 0 -19 2q7 -12 9 -16q1 -4 1 -8t-1 -7l10 -13l10 -41l-61 -32l-28 38l6 13l3 -4l-16 28l1 17q-6 -5 -13 -5q-8 0 -12 -10
l-41 -15l11 2l-20 -19q22 -15 31 -22q8 -8 16 -23l45 -46l4 -36l40 5l35 81l21 27l-8 41l61 -58l17 -18l-25 -67l-3 -15l-20 -30l-2 -1q-9 -16 -20 -32l-50 -50l-40 -6l-39 -43l7 -6l-21 -17l2 3q1 -3 2 -4v-3l3 -6h12l67 -7l36 51l-1 -1q0 4 1 5l1 1q0 2 -3 6l43 -3l103 9
l12 -28l27 -21l12 5l10 -34l-26 -63l-3 -3l21 -38q14 -7 20 -7q7 0 14 4z" />
    <glyph glyph-name="acircumflex" unicode="&#xe2;" horiz-adv-x="699" 
d="M650 -33v0l-13 71l15 15l-56 31l29 64l-1 60l19 39l10 47l14 20l15 32v-2l-55 -2l-4 -19q-49 24 -98 47l-45 33l-17 33l69 8l39 -8l35 26l84 -23l79 2l47 10l30 -2l28 31l-56 -24l-37 21l-24 -14l-101 11l-34 -5l-54 -12l-62 11l-40 2l-59 14l23 26l-91 -34l-28 16
q-12 -3 -27 -3h-18q-13 0 -19 -2l-32 4l-8 6q-6 -2 -9 -2l-8 -2q-8 -6 -15 -11q-6 -6 -30 -6l-32 -10l-51 -19q-65 14 -130 26l-32 -31l37 -1l105 2l5 7l45 1l15 -10l66 14l-72 -76l-16 -23l-26 -24v-1q0 -1 2 -3l1 1v-1q0 -3 -44 -39l-6 2q32 -28 89 -32l-1 -11l113 4
l9 -34l45 -40l36 -7l-1 2l12 -3q10 6 22 10q12 3 20 9l-13 -18l87 56l32 -45l20 -46l-92 -121l-18 -10l-67 -2q-39 3 -78 7l-44 34l-37 14l-40 60l-4 16l5 6l-14 36l-20 18l-25 -14q-13 -11 -13 -36l3 -7l-4 -3l56 -70l6 8l26 -26l24 -36l-8 4q14 -6 33 -18q18 -11 32 -18
q12 9 25 9h5q16 -3 41 -4l26 5l53 -6l32 6l4 10l17 21l75 26l11 -4l22 57l-2 -1v2q0 7 4 24h-1v11q0 6 5 17l4 20l-1 -2q2 5 2 9q0 2 -1 4q-1 3 -1 5q0 3 1 6l-6 11l15 8l-31 75l-29 24q-1 4 -2 4v0v0q-1 0 -12 10q-2 -7 -5 -10q-2 -3 -2 -4t1 -1l2 1l-29 -61l-53 -2
l-72 -29l6 23l-6 8l16 67q-5 20 -27 64l24 36l-38 66l118 -43l81 -69l-4 5q25 -18 36 -28l52 -17l-13 -7l70 -7l1 -15l-10 -35l33 10l-48 -143l-4 29l-7 -40l-17 -76l-1 2v-12v-12q1 -8 15 -24l30 -5l15 -25q3 2 8 2q4 0 8 -1q11 -3 11 -5zM276 260v0q-93 10 -127 13l-31 22
l1 33l30 45l68 69l46 6l-11 -36l1 -8q0 -3 -1 -3q-3 0 -9 6l9 -76l19 -16z" />
    <glyph glyph-name="atilde" unicode="&#xe3;" horiz-adv-x="566" 
d="M464 -42v0q6 5 10 7q5 1 8 5l4 -10l14 43l-3 -3v6q0 6 5 15l-4 15l9 26l-22 65l6 -15l-19 140l8 51q0 28 -1 35l2 2q-7 10 -15 17t-13 18l-4 -4l-15 7l10 -57l-31 -51l-24 -24l-109 -45l27 34l-31 74l27 50l15 114l41 -12l62 2l41 -14l38 7l22 -17l55 20l14 11l-10 5v1
q-59 5 -61 5l-3 1q-5 0 -12 -20l-85 26q-13 -7 -25 -9q-12 -1 -23 -1q-19 0 -42 4q-19 4 -30 7l14 8l-40 -2q-12 -3 -24 -3l-8 1q-16 1 -29 1l-22 -11l-45 11v-1q0 -2 1 -5v-1q-1 0 -9 17l-96 -34l-59 -5l7 5l-18 -1l38 -12l85 -5l49 -5l-12 -10l-52 -56l-28 -31h1l-19 -3
l-14 -47l5 -5l-3 5q8 -11 18 -17q10 -5 34 -7l17 12l53 8l60 1l64 -59l-34 -55l10 -16l-7 1l1 -1q2 0 2 3l21 3l-2 9l74 -1l50 32l39 60l-1 -70l-5 -34l11 -40l29 -45l-40 -98q3 -7 3 -10q1 -3 5 -11h7q9 0 33 -7zM223 280v0l-80 21l-9 12l-66 13l93 64l24 32l7 -8l6 45
l30 -3l-5 -26q6 -32 10 -63l2 -6l-5 -22l-9 -5q6 -19 6 -30q0 -12 -4 -24z" />
    <glyph glyph-name="adieresis" unicode="&#xe4;" horiz-adv-x="610" 
d="M96 152v0q0 8 8 16q8 9 13 19l-2 -2q2 4 2 5v1q0 1 11 12l10 15l54 31l87 -52l11 -9q11 2 13 6q2 3 22 15l-28 6l-21 11q-15 4 -26 5q-11 0 -25 5q-18 15 -41 16t-30 3l17 23l-7 -7l51 32l34 86l18 30l-2 5l110 37l-18 -61l-6 -53l-3 1l10 3l8 -102l-8 4l4 -9l28 34v0
q-1 4 -1 8q0 10 16 44l5 -2l4 50l15 32l32 28l82 40l69 -21h-1q2 -1 4 -1q5 0 8 2q4 4 10 4l-21 12l79 18l11 -2l-6 -2l-31 18l-95 -14l-91 -6q-1 1 -7 1q-3 0 -3 -5q0 -4 3 -12l-71 28l-4 -1q-4 1 -14 13l-53 -36l-61 11q-1 -2 -4 -2q-4 -1 -4 -3t2 -5l-47 1l-48 -11
l-134 21q-3 1 -6 1q-1 0 -1 -1q0 -2 2 -5l-86 -9l-17 -14l-8 5q2 2 5 2h3q5 0 5 3l33 -5l31 14l61 -16l50 24l129 -25l-36 -56l-35 -46l-23 -45l-40 -33l-11 -15v-15l-37 -23l2 5q2 -8 2 -15t-3 -12q-6 -9 -18 -23l29 -18q7 -5 13 -6q5 0 18 -6zM544 -77v0l13 37l-2 -4l8 45
l-5 24l-13 11l-5 54l-19 5l17 46l4 -2q-7 14 -7 24q0 11 10 36l-9 17l-10 96q-6 -1 -12 -1q-8 0 -16 2h-4q-11 0 -17 -8l-39 5l-28 11l-16 -20l-45 -19l-11 -28l-29 -46l-8 -2l-64 -50l15 19l-58 -50l-41 -58h7l-14 -27l25 -9q13 3 17 3q5 0 16 6l25 35l67 -55l45 -45
l11 -30l-5 2l17 -9l11 1h2q12 0 16 3t14 7q5 12 5 21v5v5q0 9 4 17l6 44q-8 9 -8 25q0 7 1 15q2 8 2 17q0 16 -7 30l10 29l-24 5l18 74l51 43l28 -52q16 -113 16 -118q0 -18 -4 -28q-3 -10 -5 -27l1 -1q1 -3 1 -7t-2 -9q-2 -6 -2 -11q0 -6 3 -13l-7 -30l6 -37zM367 39v0
l-51 20l-10 12q-30 24 -50 24q-9 0 -12 -7l52 35l45 62l14 -41l27 4z" />
    <glyph glyph-name="aring" unicode="&#xe5;" horiz-adv-x="544" 
d="M313 440v0l56 5l29 8l58 2l58 11l34 -9l22 -3l76 26l-3 2h19l-8 -6l-39 20l-52 -13l-88 5l-24 -5l-48 16l-70 -23l-54 12l-11 -17l-84 13l-49 10l-47 -13l-53 7l-35 -5l-11 14l-46 -27h-9l17 -10l-71 6l80 -3l33 -22l50 4l63 27l58 -19l1 15l78 -14zM415 -40v0l62 4l6 -2
l6 36l-6 21l8 3l-34 55l4 56l16 45q-3 71 -5 100l3 13l-68 80l-8 -21l-41 -35l-38 -68l-49 -19l-12 34l-14 44l44 15q5 8 5 15q0 4 -1 7t-1 7q0 6 3 13l1 21q-2 1 -13 2l-20 20l1 -3l-6 9l-24 6q-11 0 -15 -1l-12 -4q-7 -2 -11 -11t-7 -17l-4 10l-4 -77h3q1 -11 1 -20
q0 -11 -2 -18t-2 -18q0 -8 1 -18l-2 3q1 -6 12 -27l5 -2l12 -25l14 -5h15l85 14l6 34l60 41l4 -2l23 6q0 -3 -2 -3q-3 0 -12 3l12 -73l-15 -5l23 -115l-16 -28l16 -30q-12 -8 -16 -15l-62 28l-11 2l-14 23l-71 -11l-1 -2q-10 -8 -22 -8q-6 0 -12 2q-19 4 -38 7l12 3l-39 10
l-97 -25l-42 -8l50 -45q11 29 26 29q2 0 4 -1q14 -4 21 -4q1 0 18 3q6 4 33 14l70 1q12 1 17 3t7 2q6 0 11 -8l43 14l47 -33l22 -13l15 -11z" />
    <glyph glyph-name="ccedilla" unicode="&#xe7;" horiz-adv-x="717" 
d="M492 -43v0q7 3 11 3h3q3 -1 14 -1h9l22 26l-12 -16l10 85l-5 37h-7h-4t-4 -3l15 51l-18 44q-1 16 -3 24q-2 7 -24 30l22 56l10 49l8 19l-11 7l84 8l35 -26l-7 -22l2 7l14 -11l-5 -29l-55 -47l1 -1q1 0 9 -8q9 -9 14 -13v5l31 -15q5 16 19 24q13 7 24 12l-7 -4l3 6
q0 2 1 2t8 -9l-7 79q2 3 2 9q0 9 -10 43l-41 7l3 2q-3 -1 -8 -1q-3 0 -28 3l-20 -8l-58 6l-1 2l-5 1q-6 0 -10 -2q-7 -3 -21 -4q-2 -2 -3 -5q-1 -2 -3 -5l-9 9l-2 -126q2 -3 2 -5t-1 -2q-1 -1 -1 -2q0 -3 12 -12l-35 -92l-45 42l6 -1q-10 3 -13 5q-4 3 -12 3l-6 -1
q-7 -1 -16 -1q-8 0 -18 1q-5 1 -8 1q-5 0 -5 -2q0 -1 3 -4l-7 84l48 70l-2 45l-6 29q0 8 -2 14q-3 5 -4 12l2 5l1 21l27 -12l2 20l93 -32l52 31l72 19l156 -28l86 9q9 3 9 5v0l-41 -4l-45 41l-133 -19l-138 8l-55 -16l-18 -13l-41 13l-23 4l-7 -4l-31 9q-10 3 -19 3
q-5 0 -11 -1q-14 -4 -14 -15l-41 11q-9 -4 -15 -4q-5 0 -5 3q0 4 6 14l-95 -25l-14 23l-71 -19q-9 13 -18 13q-3 -1 -5 -1t-10 3l5 5l-33 -3l-12 -9l8 2l-11 -16l-57 -8l35 -16h71l25 -4l30 -69l-53 -17l8 1q-4 -11 -7 -21t-10 -21l5 -2q-6 -10 -12 -19l20 -45l-15 -4
l38 -24l9 -12l28 -18l20 39l65 34l-2 -4q-5 5 -5 12q0 3 1 6q2 8 2 20v5q-11 -5 -21 -5q-6 0 -10 3q-24 -9 -25 -11q-1 -1 -2 -8l6 -19l-24 -16l-11 2l-18 21l-5 38q3 4 12 28q7 6 16 20q9 13 20 18l21 -6l17 -1l13 -3q26 -16 41 -25l-35 27l65 -82l15 -16q1 1 4 1
q5 0 16 -7q17 -9 26 -13l-40 -9l-24 -72l-15 -10l-10 20l-30 -71l2 -4t3 -4l-5 -6h44h17l11 14l15 -9l67 85l63 -18l56 -57q8 -42 10 -61l11 -94zM317 303v0l-47 9l-19 7l-20 33l23 -16l-59 52q-5 -2 -10 -2q-10 0 -24 7q-22 10 -44 12l-7 42l59 11l69 3l-1 -1q2 2 5 2
q9 0 20 -19l53 -12l8 -29l17 -27l-15 -29l12 12z" />
    <glyph glyph-name="eacute" unicode="&#xe9;" horiz-adv-x="863" 
d="M661 -52v0q-12 39 -12 50q0 16 13 32q-15 57 -18 65l7 31l-18 25l-6 -21l16 84l11 5q1 5 1 10q0 8 -4 17q-2 4 -2 6q0 7 14 7l-33 69l-2 30l11 66l20 -15l77 -17l30 -67l-18 -23l-15 -14l-21 -33q2 -2 2 -5v-1l-9 11l17 -26l25 -15l52 -3q2 1 3 1v0l-1 -4l18 45l-10 57
l-1 -9l-7 34v-5l-19 35l-32 33l1 11l-46 24l8 13l71 -7l60 15l31 -2l-10 3l37 1l27 -2q15 7 20 11l-53 12l-98 13l-61 -3l-45 -11l-35 14l-33 -12l-18 9q-4 2 -7 2h-3q-3 -2 -9 -2h-2q-2 0 -8 -8q-6 -6 -10 -6q-2 0 -4 1l-34 7l-19 1l11 -12l-55 9l3 -2l-38 10l-77 -15
l-75 -8l-107 21l-56 -6q-54 -13 -67 -17l-50 13l-32 -2l-13 -5q-19 -1 -32 -3q-12 -1 -24 -1h-14l-5 -14l-1 10l45 -4l49 -1l25 -4l64 12l28 -10l56 22l70 -20l11 10l72 -14l37 1l68 12l39 -11l11 -8l-19 -70l-82 19l-3 8q-4 1 -8 1q-8 0 -17 -3h-6q-9 0 -9 10l-92 -38
l-68 27l-28 -8l-60 10l-27 -32l-7 -33l1 2q2 -6 2 -12q0 -7 -2 -11q-3 -7 -5 -7h-1l-2 -67l17 -27l9 4l15 -41l-1 -8l23 -1q18 -11 21 -11h4q6 0 15 6l44 25l-5 3l11 19l11 -10l6 62l-14 12h-1l-1 2h-3q-6 0 -11 -2t-17 -6l-11 -16l1 -22l-37 -14l-28 33l-1 19l4 67l35 30
l-1 6l19 14l22 -6l35 -25l34 -37l7 -23l13 12l22 -29l13 36l39 50l54 7l28 -24l-33 -39h1q-3 -8 -8 -13q-9 -10 -38 -36l15 7l-44 -43l1 6l-29 -55l22 -15l-14 4l48 -17l13 -1l10 13l-28 11l72 60l24 6l38 -19l31 -12l10 8l18 -46l71 6l1 -146l-15 -19l-1 -46l34 -10
q22 3 43 10l17 -7zM590 176v0l-76 41q-4 -2 -8 -2q-8 0 -14 5q-5 3 -8 3q-6 0 -9 -6q-58 28 -71 34l34 67l6 21l42 28q23 44 44 89l41 -34l-5 -9l-1 -57q4 -11 4 -18q0 -5 -1 -9q-3 -6 -3 -13q0 -5 1 -10q8 -9 8 -24q0 -5 -1 -11t-1 -12q0 -19 10 -41z" />
    <glyph glyph-name="ecircumflex" unicode="&#xea;" horiz-adv-x="876" 
d="M357 421v0l103 33l3 6l22 2l22 -3v-9l45 25l-5 -2l1 5l10 -11l-12 6l5 -1q-7 2 -10 2t-8 -1l-62 12l-48 -10l-42 -3l-69 -27l-104 26l-90 15l-92 -14l-55 8l-1 -1l-2 1l4 -4h2h1q0 -1 1 -1h1v-4h20l-1 1l58 -13l51 1l63 15l59 -20q13 8 28 8q8 0 16 -2q24 -7 43 -8z
M787 -42v0l16 10h-4l11 17l-7 10l4 33l11 22l-23 29l-12 37l18 80l3 38l5 2q3 15 3 28t-3 23q-2 8 -2 17q0 16 6 38l-25 36l7 34l2 28l-9 19l37 4h42l22 2l44 8l5 13q-2 1 -4 1q-1 0 -6 4l-32 -6l18 -9l-108 -6l-34 26q-4 -2 -9 -2t-11 2q-4 -5 -6 -13q-2 -7 -7 -7l-15 -41
l-48 29q-20 1 -38 5t-38 8q-11 7 -18 28l-64 -22l-41 -12l-12 -11l2 3l-82 -72l-54 29l-25 -3l-11 -13l8 -3l-41 -30q-39 13 -78 25l-59 21l-32 -6l-29 -32l3 1l-5 -5l21 -18l-50 -44h2q1 0 1 -2q0 -9 -12 -9h-4l2 -58l8 -20l24 -28l-9 -2l47 -19l1 7l31 -31l36 20
q3 11 7 26t20 28l11 25l-10 38h-31q-12 -13 -23 -20q-12 -7 -18 -17l20 -13l-2 -9l-10 -5l1 -9l-59 24l22 60l3 39l9 23l57 21l62 -25l-2 -43q3 2 5 2q6 0 12 -6q11 -10 46 -17l-1 27v8l1 4q0 5 -5 5h-2l57 30l83 -13l60 -11l44 9l12 -40q6 -12 10 -18t4 -15v-7l35 -36
l-74 -42l1 2l-9 -30l23 -6q8 -3 16 -4q9 -1 18 -4q1 7 5 10q5 2 8 8l-1 -12l23 73l-10 4l23 41l10 1l-8 41l-2 1l-17 37l-29 2l-4 7l-51 16l-44 -2l18 30l44 49l28 -4l42 25l19 -27l83 -56l60 -25l-12 -69l9 -32l17 -14l-5 -61l-4 -27l-29 -38l9 -82l8 -8l-7 -30l-10 -19
q-1 -1 -1 -4v-3q0 -3 -1 -5q7 -5 12 -5h5q9 0 18 6l19 -17l-5 -1h7h4z" />
    <glyph glyph-name="edieresis" unicode="&#xeb;" horiz-adv-x="828" 
d="M578 -33v0l68 8q8 1 18 4t36 23l43 26l-6 9l28 14l-5 -6q10 15 12 31q2 17 9 30l-2 -3q-1 9 -1 16v6q1 8 12 8l-15 47l-3 -20l-20 46l-92 49l-1 -9l-24 18q-12 -7 -22 -7h-5q-6 1 -12 1t-13 -1l-28 -10l14 -37l-4 -27l6 -40l-15 -43l-4 -18q7 -1 13 -1h4q7 0 7 6v2l80 -7
l-21 56l10 -2l1 78l22 -11l34 -27l23 -47l8 -47l-15 -41l-72 -39l-25 -21l-71 5l-42 12l-13 52l-1 17q2 7 2 18t-1 19l3 22l-54 83l32 94l-18 -17l1 72l9 85l10 8l79 -5l77 14l43 -11l28 14l27 -11l57 -16l114 36l18 -15l4 23h-3v0q0 -1 4 -8l-35 14l-18 -8l-82 11l-115 -18
l10 39l-5 -7l5 33v6v3q0 7 -4 12l-1 -5l-11 36l-3 25l-32 17h2l-55 28v-21l-86 27l-52 -13l-28 -18q-13 -3 -24 -3h-7h-3q-12 0 -25 -11l-31 7q-29 -19 -47 -34q-19 -15 -41 -26l-24 -6l23 -24l51 48l50 28l3 26h97l28 -21l52 3l67 -7l17 -21l28 -25q-3 -52 -4 -78l19 -37
l-99 35l-65 -4l-57 7l-26 -9h-13l-4 6l-37 -7l-48 15l-60 -16l-143 11l-48 -14l-41 10l-19 -14q-33 -18 -38 -23l89 25l94 -22l88 11l65 3l53 -6l66 -16l-2 -9l1 -9l12 -12l-6 -33l-9 -27l-59 14q-3 -7 -24 -16q-22 -9 -38 -9q-17 0 -36 7l-59 17q-10 -1 -19 -1q-26 0 -26 5
q0 1 1 2l-94 -46l9 -7l-27 -16l9 -8l-23 -37l1 3q-1 -3 -2 -4v-5l13 -10l10 -68l-30 -48l74 -17l72 -9l-2 5l8 9l17 63l16 27q-1 6 -1 10v5l-1 8l14 -7l-27 27l-18 -9q-30 -2 -46 -4l-5 -24l44 2l-61 -69l-26 56l7 59l23 16l10 56l92 -12l15 -34h-4q1 -2 14 -17l-8 10
l41 -33v-2l-6 3l10 -3q3 7 7 12q5 4 18 10l13 40l12 7v8l44 -3l66 -56l13 -35l-13 -63l15 -27l-23 -39l-1 5q-1 -9 -1 -21v-10q1 -19 10 -35l-19 -41l3 -3q11 0 15 -1h5q3 0 7 1l-3 -14l-14 10q1 1 3 1q4 0 8 -4q29 -10 30 -10q2 0 5 1q5 3 13 5q14 2 61 9z" />
    <glyph glyph-name="igrave" unicode="&#xec;" horiz-adv-x="712" 
d="M458 -28v0q1 5 7 5q3 0 6 -1q4 -1 6 -1q5 0 5 4v2q56 3 76 5l-13 19l88 24l35 37l-7 8l40 61l13 22l-22 36l-19 56l9 -10q-29 57 -34 65l-52 32l6 -26l-28 -54q-33 -29 -87 -80l-24 97l14 82l13 20v59l31 31l55 -2l28 -22l104 20l13 -12l71 25l31 9q-11 5 -21 5
q-4 0 -8 -1q-9 -2 -18 -2l-9 1l-9 -7l-74 5l-34 5l-28 11l-93 -20l-57 5q-11 9 -23 9l-39 3l-9 -14l-16 15l-112 -5l-98 6l-49 -13l-17 13l-30 -22l-67 7l-26 -2l-8 2q-21 -10 -25 -16t-24 -11l27 15l64 -20l24 20l87 -20l35 -17l79 5l46 15l2 6l39 -32l77 9l11 -39l-16 -28
l-33 3l2 -1q-14 4 -17 4q-6 0 -16 -7l-40 -7l-4 -11l4 -42l-90 65l-16 4q-3 0 -15 3q-6 -3 -13 -3q-6 0 -21 -6l-21 2l-42 -14v3q-7 -4 -19 -16q-12 -11 -17 -19l-15 -15l-7 -46l-6 4l-8 -101l65 -37l2 6l44 -30q9 5 15 5t35 -17l16 74q2 -6 4 -13q2 -6 4 -6q4 0 7 16
q4 26 18 59l-53 19l-5 8l-25 -34q2 -2 4 -5q1 -3 1 -4v-1v1l-12 -26l3 -35l-49 44l7 61q-6 12 -6 22q0 16 20 41l19 38l35 -2l25 -7q7 -5 57 -51l-14 -19l-3 6l54 -37l13 -12q10 29 11 35t1 12q0 11 -1 31l32 28l20 1l41 -27l19 -43l-4 3l-5 -90q7 -4 9 -6l16 -3h6
q11 0 48 -7l23 10l22 8l7 5l63 75l23 -29l30 -49l2 -26l-22 -39l-38 -78l-50 -43l-44 4l-21 -8l-42 -10l-36 32l-41 13l-35 29l-12 35h-7h-10h-1q-7 0 -27 -4l-15 -27q34 -22 38 -24l35 -28l7 10l32 -23l26 -11q4 -8 26 -12q23 -3 41 -7z" />
    <glyph glyph-name="iacute" unicode="&#xed;" horiz-adv-x="847" 
d="M278 440v0l34 4l52 3l22 9l54 4l36 -5l-7 -3l13 18l-11 2l4 -2q-3 1 -5 1t-9 5l-2 -6l-81 10q-7 -4 -22 -4q-8 0 -19 1t-20 1q-16 0 -26 -3h-41l-89 13l-102 2l-80 -18l-27 5v-2q0 -10 -9 -10q-10 0 -33 13l-6 -23l112 12l115 -26l101 3zM709 -39v0q-3 1 -16 12l63 -8
l9 5l26 1l-20 79l3 39v3q-7 2 -7 8q0 2 1 4q1 1 1 4q0 8 -14 26l21 55l2 -2q-1 4 -1 7q0 5 1 11v2q0 9 -15 21l10 72l-22 112l19 41l23 2l60 13l45 5l-7 -2l10 8q-7 -1 -13 -1q-15 0 -16 10l-40 -1l-76 5l-5 6q-9 -1 -45 -3v-2v-3l-10 11l25 -65l-35 -10l-90 66l-62 -10
q-1 2 -1 3l-1 1q-1 0 -3 -2t-3 -2l9 -12l-74 31l-50 -53l-7 8l-35 -44l2 -21l-72 31l-10 -6q0 -4 -2 -5q-2 -2 -15 -24l3 5l-85 21q-2 6 -8 6h-3q-6 0 -15 3q-29 -8 -57 -15l-38 -42l-47 -35l6 7l-8 -23l2 -1q2 -9 2 -18t-2 -14l14 -16l13 -41l1 10l50 -57l-8 -8l38 -9l19 3
v18l28 27l6 54q0 5 -6 11q-8 6 -13 17l-12 2l-42 -12l7 -19q5 -3 10 -3q4 0 7 1q7 3 9 5l-17 -14l-6 -8l-67 -8q22 83 42 166l57 -12l19 3l26 -22l29 -49l-11 -4l44 -18h11h2h15q-3 10 -3 22q0 5 3 5q5 0 15 -7l15 73l42 -14l-5 2q26 -13 41 -16q14 -3 38 -14l-12 3l60 -15
l34 -19l-7 -23l24 -59l-53 -42l-3 11l14 -30l69 14l-14 11l56 4l22 71l85 35l-10 -41q8 -6 8 -28q0 -6 -1 -14q-3 -34 -7 -51q-1 -8 -1 -15q0 -14 3 -26q6 -21 6 -36l-3 -10l-6 -83l2 -28zM591 275v0h-1l1 1l-37 53l-7 1l-23 36h-46q-12 7 -23 7q-6 0 -12 -2q-16 -6 -39 -10
l50 40l53 64l42 -8l2 -3h12q14 0 26 1h3q13 0 22 -9l27 -5q51 -72 80 -111l-51 -37l-75 -18l2 2q-5 -2 -6 -2z" />
    <glyph glyph-name="icircumflex" unicode="&#xee;" horiz-adv-x="807" 
d="M593 4v0l5 104l6 23l-17 48l11 40l1 50q-11 19 -11 33q0 3 1 6t1 6q0 12 -9 21l22 35l-8 -8l6 27l57 3l34 -24q6 -36 13 -73l-10 -19l-45 -7l-13 -14q10 -6 17 -8t8 -14l45 -19l25 -4l1 19l22 12q-1 7 -1 12t3 20l-16 87q-13 6 -21 9q-8 2 -15 5l-4 6l-8 6l-87 28l-34 -3
l-12 -24q-2 -3 -2 -9v-7q0 -6 -9 -49l27 -61l-40 -76l-25 -8l-28 6l-4 -11l-39 37l-40 -26l19 99l-2 -3q6 5 6 21v10l21 36v1q0 20 -11 28t-22 21l-19 20l38 6l50 18l42 36l74 5l108 -15l27 11l72 -19l27 -1l15 9l-30 19l-26 -5q-53 -2 -106 -2l-11 12l-66 -12l-50 16
l-56 -15l-79 7l-31 -9l-25 -14l-81 33q-1 1 -2 1h-1v1l-2 -1l-7 6l-90 -14l-31 8l-71 -13l-55 -4l-30 -10l-15 8l75 -21l-4 2h11q9 0 16 -1h3q9 0 13 9l39 20l100 -28h31l76 -27l13 -54l-69 -12q-2 -1 -2 -3t3 -6l-51 -13l-64 42l-11 3l-35 -2l-17 -6l10 -4l-25 -19l-59 -15
l-10 -53v2q1 -1 1 -2l-2 -12l-1 4q1 -3 5 -11q3 -9 3 -12q0 -1 -13 -40l44 -49l-4 1h1q4 0 11 -5l5 -4l-2 2l45 -29l33 10l17 12l3 5l-21 17l14 74q-5 -1 -7 -1h2q-5 -4 -9 -4h-2q-5 0 -16 -6q0 -6 -1 -6q-3 0 -10 9l-27 -58l-22 77l13 43l41 35l28 27l58 -45l11 -31l1 -12
l-11 -6l30 -10l-2 -2l15 -3l15 -14l16 44l66 91l25 -44l10 -25l-7 -40l20 -55l-27 1l-68 -52l-17 -6v-14l-36 -21q5 -3 11 -4q7 -1 25 -10l22 -6l19 22l5 3v0q10 0 13 10q3 9 8 15l27 33l88 -6l47 -38l19 -58l19 -28l-22 -78q5 -5 9 -7t8 -5q5 0 27 -8l34 18z" />
    <glyph glyph-name="idieresis" unicode="&#xef;" horiz-adv-x="537" 
d="M390 404l15 42l13 58l15 -6l7 -40l-13 -72l-25 -14zM398 367l-8 24l-72 56l-11 -22l-14 -40l5 -45l33 -34l14 -32l-51 -8h-24l9 18l-25 89l-20 -35l3 -48l-49 -39l-65 29l51 47l18 16l4 47l-26 46l-24 20l-69 7l-35 3l59 12l72 -5l33 -7l29 -51l6 -44l12 61l3 1l44 36
l3 -1l85 -16l-10 -13l37 -48zM335 215l65 8l71 83l-19 -10l5 59l-40 71l-10 25l6 48l40 -50l37 -69l10 -27l17 -52l-14 -33l-62 -55l65 -66l15 -21l-26 -86l-8 -16l-23 -30l-46 -29l-58 -27l-28 2l-63 17l-61 11l-48 39l-6 20l-57 49l-17 52l-7 54l-14 -1l-19 116l16 -22
l15 -8l43 -88l28 -67l-8 -11l2 -12l42 -48l90 -53l12 7l68 -5l16 8l85 57l-14 5l29 33l8 58l-33 25l-62 -11l-17 -7z" />
    <glyph glyph-name="eth" unicode="&#xf0;" horiz-adv-x="763" 
d="M453 -38v0l19 29l41 30l48 46l-1 -2l-8 30l74 35l-15 6l58 56l2 13l58 51l-45 2l-53 22l-52 21l-31 16l-32 14l-62 73l18 57l66 -12l52 24l53 6l82 -28l43 11l-12 -14l65 21l18 8l-11 12l-37 -11l-64 13l-41 -11l-38 -3l-106 11l-74 1l-49 6l-33 -18l-4 -25l1 3l11 -16
l-6 -4l-38 18l3 3l-17 8l-66 9l-17 -9l-20 17q-4 -31 -13 -52q-8 -20 -35 -27l-40 43l-12 33q-21 8 -35 8q-12 0 -32 -4v2q-2 -3 -6 -3q-8 0 -24 6q-16 -15 -27 -16h-16q-13 0 -24 1h-1q-1 0 -11 -3l74 -20h65l35 -5l-4 -5l25 -9l5 -51l1 -30l-69 -29l-27 -44l2 -38l62 -13
l15 14l-18 12l48 35l24 7l31 -60l37 7q16 5 32 11l7 3l-20 27l6 28l-26 11q-20 23 -37 60l30 35l51 28l48 -9l16 -35l18 -29l10 -39l3 -28l-11 -79l5 5q9 -33 9 -50t-7 -36l13 -35l16 -36l-36 -24l5 -69q5 -1 16 -9q3 2 8 2q6 0 13 -2zM463 52v0l-20 34l32 72h2q-5 13 -5 23
q0 13 6 42q-22 77 -26 86l1 6l-5 23l48 -15l2 -3l7 -3l-4 3v0l68 -31l71 -25l-20 -17l-26 -31l-28 -56l-29 24z" />
    <glyph glyph-name="ntilde" unicode="&#xf1;" horiz-adv-x="815" 
d="M690 255v0l-32 -2l70 -59l4 -7h-1l39 -70l-108 -44l-23 -8l-41 -3l-21 -16l-28 -23l-5 1l61 -26l34 -21l26 -18l48 -36h-2l47 -30h3q8 12 22 19l16 12l-35 33h2l-47 32l-17 4l-46 31l29 20l45 31l45 30l15 24l-20 35l4 -2l-15 18l-47 52zM453 -38v0l19 29l41 30l48 46
l-1 -2l-8 30l74 35l-15 6l58 56l2 13l58 51l-45 2l-53 22l-52 21l-31 16l-32 14l-62 73l18 57l66 -12l52 24l53 6l82 -28l43 11l-12 -14l65 21l18 8l-11 12l-37 -11l-64 13l-41 -11l-38 -3l-106 11l-74 1l-49 6l-33 -18l-4 -25l1 3l11 -16l-6 -4l-38 18l3 3l-17 8l-66 9
l-17 -9l-20 17q-4 -31 -13 -52q-8 -20 -35 -27l-40 43l-12 33q-21 8 -35 8q-12 0 -32 -4v2q-2 -3 -6 -3q-8 0 -24 6q-16 -15 -27 -16h-16q-13 0 -24 1h-1q-1 0 -11 -3l74 -20h65l35 -5l-4 -5l25 -9l5 -51l1 -30l-69 -29l-27 -44l2 -38l62 -13l15 14l-18 12l48 35l24 7
l31 -60l37 7q16 5 32 11l7 3l-20 27l6 28l-26 11q-20 23 -37 60l30 35l51 28l48 -9l16 -35l18 -29l10 -39l3 -28l-11 -79l5 5q9 -33 9 -50t-7 -36l13 -35l16 -36l-36 -24l5 -69q5 -1 16 -9q3 2 8 2q6 0 13 -2zM463 52v0l-20 34l32 72h2q-5 13 -5 23q0 13 6 42q-22 77 -26 86
l1 6l-5 23l48 -15l2 -3l7 -3l-4 3v0l68 -31l71 -25l-20 -17l-26 -31l-28 -56l-29 24z" />
    <glyph glyph-name="ograve" unicode="&#xf2;" horiz-adv-x="637" 
d="M391 -41v0h4t4 2q1 -1 2 -1q4 0 10 4q8 4 9 6q2 8 6 12q5 3 8 8l-4 -5l3 32q-4 8 -4 15v6q0 8 -24 9l12 73l63 -6l32 6h18l15 3l-4 4l2 16l45 30l7 38l-16 23l-17 10l8 19l29 6l-5 79l2 -1l-54 45h-10h-15q-15 0 -30 -11l-34 13q-1 -4 -4 -9t-6 -9q-3 -5 -7 -5q-2 0 -4 1
q-5 1 -5 36q0 20 1 51q1 6 1 11q0 22 -16 22q-19 0 -41 -9l-15 -16l-26 19q-9 1 -17 1q-11 0 -19 -2q-8 -3 -8 -5t3 -4l-122 -3l-27 12l-32 8l-14 7l-51 -32l-62 4q-8 -10 -12 -12l-10 -4l13 -8l71 -13q15 3 27 3q19 0 31 -6q16 -9 39 -9h6l32 -15l27 -42l8 -23
q-24 -49 -31 -65l4 -3l-23 3l-14 -51l-46 -14l-35 -52l-39 -29q3 -1 13 -10t19 -20q5 1 11 1h7q9 -2 16 -2l5 -6l10 15l3 -14l31 57l6 26l34 -8l41 5l62 -33l32 -31l41 -32v-27l-11 -19l-9 13l-1 -66l25 -20l-2 -2h28zM351 275v0l-43 21l-23 37l-1 13l-47 15l-8 23
q-11 15 -24 28l-35 32l5 -1l9 2l23 24l114 -39l22 -6l33 -50l10 -54zM372 144v0l-61 13l-30 33l-94 -7l6 34l60 36l28 46l81 -97zM494 152v0l-25 18q-14 1 -22 5q-7 4 -10 4q-2 0 -2 -3q0 -2 1 -4l-15 77l4 11l24 120l78 2l9 -54l14 1l-27 -69l-9 -12l39 -21v-42l-27 -31
l-28 3q-2 0 -4 1v0q-1 0 -1 -2q0 -1 1 -4z" />
    <glyph glyph-name="oacute" unicode="&#xf3;" horiz-adv-x="766" 
d="M503 -35v0l70 16l-14 4l56 8l-7 -2l26 10l-5 -3q12 5 23 11t12 6v0l29 49l8 7l7 83l-7 17v-6l-12 25l-23 39l-30 -19q-81 42 -96 45q-5 1 -8 1q-7 0 -12 -2q-4 -1 -11 -1t-15 1v-3q0 -5 -1 -9t-1 -9l-1 2q1 -8 2 -13q2 -4 12 -73l-27 -43l25 -27h31q1 2 6 3q2 23 13 30
q12 7 15 28l-14 19l4 38l47 -10l51 -54l-1 -28l-10 -24l-18 -30l-14 -56l-77 -9h-8l-124 54l17 23l3 45q-17 68 -35 136l21 58l-3 39l5 102h23l76 8l35 -18l94 -6l56 31l48 -7l49 -3l53 29l7 -10l-3 7l-38 -8l-66 22l-71 -17l-99 10l39 22l-4 -4q1 3 1 5q-1 1 -3 1t-6 -1
l7 49l7 -5l-13 39l-41 39h-22q0 1 -2 1l-3 -1q-5 -1 -7 -5l-23 7q-24 11 -35 11h-2q-2 -1 -5 -1q-10 0 -26 4h-8l-27 -29l-145 12l-58 -31l-1 -3q-27 -17 -32 -19l21 -38l48 46l14 36l77 -9l12 14l56 12l53 -22h29l64 -33l22 -38l-11 -46l-4 -10l-28 -14l-67 15l-41 4
l-40 -2l-47 -7q-5 -2 -5 -7t3 -17l-124 19l-68 -13l-3 18q-2 0 -34 8q-3 -6 -11 -12q-8 -5 -15 -14l-55 7l-17 20v0q0 -2 -28 -22q-30 -21 -42 -34l-3 8l27 -11l35 17l78 -7l1 2l-4 1l47 -5l72 -68l-22 -105l-43 -13l2 -4q-6 -3 -26 -15t-25 -20q1 -4 1 -8q0 -3 -1 -6
l-3 -17q4 2 9 2q8 0 29 -11l32 13l37 34l33 21l29 5l48 -23l18 -28l38 -43l-1 -35l4 -21l-17 2l24 -72l-32 -41l59 -19l43 17l38 -17zM335 346v0l-44 46l-84 37q0 -2 -2 -2q-3 0 -9 4q-10 6 -16 9l-6 20l122 -12l54 -19zM335 220v0l-50 22l-37 1l-59 26l25 -18v103l28 8
l35 -38l40 -13l10 5l-6 -22l17 20z" />
    <glyph glyph-name="ocircumflex" unicode="&#xf4;" horiz-adv-x="649" 
d="M406 -41v0l72 16l14 14l46 25l52 51l-8 9l16 27q5 8 9 20q5 12 10 18l-6 4l-4 45l-14 16l-32 95l9 5h-18l-78 102l14 -20l-61 45l4 9l59 3l64 22l68 -14l47 2q4 3 5 4q1 2 8 3l-2 5l9 3h-16l9 7l-77 16l-64 -15q-3 -6 -13 -6q-8 0 -20 4q-27 10 -58 17l-57 -10l-43 44
l-6 45l20 60q18 41 37 80l57 20l55 9q-9 15 -11 15q-1 1 -3 1l-13 -1l-10 -9l-56 -25q-13 -14 -28 -24l17 10l-81 -66l-34 8v-120l12 -36l-25 2l-26 -14h-101l-39 9l6 -3l-33 15l-23 -21l-49 -5l-49 4l-11 -25l27 -12l47 -14l55 16l24 -23l47 -14l30 -31l-1 -23l-50 -49
l19 -7l-60 -46l-31 -7h1l-13 -8l8 5v-1v-1q-1 -1 -1 -2t1 -4q5 1 9 1q10 0 17 -4q10 -6 30 -26l28 47l-2 -14l108 52l41 -44l6 -28l-17 -33l-29 -77q-42 -31 -58 -44l5 -27l7 -26l48 -4l14 -8l-1 2q11 -6 20 -9q9 -4 34 -18l76 1l7 -1zM170 283v0q38 34 41 36l1 14l9 47
q78 -43 95 -53l-15 -42l-65 3l-21 7zM350 362v0l-96 29l-19 41l84 26l10 -75zM371 -11v0l-46 42l-54 28l-2 14v-6l31 96l52 35l-17 -10l37 94l7 3l-3 26l9 33q3 9 3 19q0 16 -8 44q0 3 -3 5q-2 3 -3 3t-1 -1v0l30 -4l38 -29l39 -6l31 -80l-1 10l22 -46q-1 0 -1 -2
q0 -4 7 -14q4 -6 4 -12q0 -5 -4 -10l11 -58l16 -26q-48 -62 -52 -66l-17 -54l-42 -22l-71 10z" />
    <glyph glyph-name="otilde" unicode="&#xf5;" horiz-adv-x="754" 
d="M554 -55v0l29 6l-16 45v44l-6 46l8 -5l-13 45l-21 51l8 45l28 11l9 -19l-20 117l-15 54l87 -6l11 -17l10 -62l-15 -14l8 -2l-17 7l-25 -60q11 -2 15 -2q4 -1 7 -1h7l-3 -11l36 -2l8 -3l3 -1q4 5 6 7q1 2 2 5q11 17 13 26q2 10 15 26l7 38q-3 11 -8 22q-5 10 -14 18
q0 1 -7 5t-37 28l-41 16l-26 -8q-14 -2 -20 -14l-56 18l-16 -11q-2 -8 -2 -17q0 -20 12 -36l5 -42l-5 -66l-16 7l19 -117l-49 43l-8 15l-57 15l1 8l-26 -9l7 59l2 -4q-3 7 -3 15q0 7 2 14l6 31h1q1 3 1 6t5 23l-1 46l4 19l-14 18l23 9l7 21l89 -5l38 24l86 -16l9 25
q152 -25 156 -25q4 3 8 3q5 0 30 -16l1 14l-53 14l-17 5l-80 -3q-3 4 -10 4h-6q-11 0 -28 13l-69 -22l-62 38l-104 -42l-49 27q-4 -2 -9 -2q-6 0 -12 2q-12 4 -30 5l-5 -9l24 -11l-67 17l-112 -17l-26 19q-1 -2 -3 -2q-4 0 -14 4l-25 -7l-1 -3q-9 -2 -19 -2h-4
q-12 0 -38 -10l-32 4v0q0 -10 -16 -10q-20 0 -63 13l17 -30l-8 -2l110 5l14 -9q33 0 92 -2l38 -43l21 -53l-34 -27l-33 -23l2 9l-25 -42l-54 -31l57 -7q2 1 9 5q6 4 7 4t1 -1v-1l75 48l30 -13l18 41l76 -65l-13 -31l-16 -30l-43 -10l-37 -52l9 -7l-2 -2q22 -14 23 -14l46 11
l21 53l23 11l19 -3l-9 22l102 -48l7 1l53 -91l2 -28l-3 -37l16 -33q3 -1 6 -1h3q3 2 5 2zM336 340v0l-91 72l-94 19l17 -20l104 26l38 -5l28 -48l3 5zM339 251v0l-78 35l-13 -6l-72 2l35 20l13 68l96 -29l17 -42l6 -3l-10 -19v1v0q-1 0 -1 -3q0 -2 1 -7q2 -11 6 -17z" />
    <glyph glyph-name="oslash" unicode="&#xf8;" 
d="M-52 -211v0q-3 65 -12 82t-10 40l2 19l-15 17l19 50q-6 10 -6 22v6q2 14 7 52l-6 136l4 20l2 -10q2 4 2 6t-3 2q-12 0 -49 2l2 -183q4 -41 -1 -82l-18 12l-7 14l-76 -45l-13 14l-21 16l-32 -1l-37 9l-16 -6q-21 -3 -30 -11q-8 -9 -11 -28l-33 -49l10 -27l-11 -17l43 -39
l16 7l56 -43l21 22l-4 33l16 22l-9 29l-17 1l-9 -2q-4 -2 -8 -14t-12 -23q-9 -10 -17 -17t-16 10l-2 52q-2 4 -4 6q-2 3 -2 4q0 4 11 10l54 36l52 -40l-2 14l44 -41l20 1q3 0 3 3q5 6 5 14l-1 9q0 8 6 13l20 57l21 -64h-6l-6 -21l17 -73q4 -5 8 -32h2q6 0 15 14q3 2 3 4
q0 1 -3 3z" />
    <glyph glyph-name="Agrave" unicode="&#xc0;" horiz-adv-x="906" 
d="M761 -53v0q33 14 88 19l7 59l-22 93l-2 76l-16 69l13 64l-1 49v2q0 2 -1 5v2q0 3 2 7v18l-14 44l58 3l63 -7l-5 1q15 4 19 5q4 2 14 5l-13 6q-2 -2 -6 -2q-11 0 -33 21l-70 -13h-1l-3 1q-1 0 -1 -1q0 -3 5 -11l-68 15l-13 -7l3 3l-4 -13l3 1l-5 -8l2 3q-1 -3 -1 -5
q0 -3 -3 -3q-4 0 -14 4l7 -107l15 -39l-2 -58q1 -7 1 -10t1 -9h-4q-1 -4 -1 -9q0 -13 10 -28q9 -12 9 -28q0 -9 -3 -20l-21 -6l-21 28l-20 -10h-45l-29 83l14 60q6 3 6 12t-3 9q-2 0 -3 -2l15 51l2 36l-1 13l14 12l-18 25l-45 41l-33 -33l-61 6q-2 -1 -5 -1q-19 0 -20 14
l-40 5l-45 -39l-160 27l-31 17l-47 -20l-46 -6l-20 12l-92 -7l-69 -12q-13 -12 -25 -14t-12 -8v-3l67 6l25 8l80 -14l37 3l43 1l8 -33l-29 -44l-11 -10q7 -21 7 -35q0 -7 -2 -13t-2 -14q0 -11 5 -25l6 -5h10q12 0 18 -2q8 -2 34 -2l21 -1q24 0 72 22l13 -51l-11 -10l-45 -50
l-7 -10q-2 -3 -18 -6t-22 -6q-16 1 -32 1l-40 32v13l-47 28l-13 70l7 -5l-21 41q-5 -2 -10 -2t-10 2q-11 4 -18 4v0l-7 1l-4 -6l12 -39l-8 21l33 -84l-4 1q4 -5 23 -26q20 -22 27 -33l-9 11l41 -32h-5l11 -3v-4q4 2 9 2q6 0 13 -3q9 -4 59 -24l49 11l68 22l37 33l27 39
l68 -1l36 -4q46 -30 91 -60l7 -48l-1 -5l-11 11q4 -8 4 -17q0 -4 -1 -8q-3 -13 -3 -28l16 -31l-7 -44l-13 10l28 -38l74 29l-14 27l10 97l-13 52l31 -13l20 -7l41 -39l-2 -65l-11 -60l-7 1zM372 241v0q-50 72 -70 72q-6 0 -10 -7l-58 -19l-48 -8l20 57v58l-10 9l17 22l28 6
l27 -19l51 -29h-13l58 -17l70 -4l-24 -36l10 14l-42 -58v2l-8 -14t-4 -12q0 -8 6 -17zM388 374v0l-24 10l1 -2q-35 4 -57 34l-28 33l50 -8l46 6l67 -19l36 -19q-23 -10 -91 -35zM604 193v0q-4 0 -13 11l-80 13h1q-6 0 -11 3q-5 4 -15 7l-69 -5l29 58l5 6l21 43l28 29l7 -20
l43 65l16 30l50 13l-4 -48l11 -59l-20 -12l15 -92l-11 -24l-1 1q-1 -1 -1 -6v-9q0 -4 -1 -4z" />
    <glyph glyph-name="sterling" unicode="&#xa3;" horiz-adv-x="91" 
d="M-31 -153v0l54 11l-4 24l6 15l-8 79q-2 42 -3 85l4 -5l-5 5l7 54l-12 6l-4 10l-39 49l-27 33q-9 -44 -10 -55q-2 -11 -10 -25l13 7l-17 -37l-57 -31l-33 -13l2 -1l-6 -12l-25 -21l-20 136l54 24l21 14l-4 10q-33 6 -41 13l-24 -1q-4 -3 -6 -4l-1 -1l1 -1l-19 5l-1 -1h-2
v0q-2 0 -9 9l-11 -52l2 -41l9 -58l8 -41v-10l19 -10l18 -1l-5 3q12 2 21 2q13 0 22 -4l43 -16l55 91l40 15l1 -59l-13 -13q1 -67 3 -95l-2 -21l1 -4l-26 -7l-42 21l-21 -3q-60 8 -119 14l21 21l-114 -30l-30 -11l-37 -4l6 -2l36 -16q2 1 5 1q2 0 4 -1t4 -1q3 0 7 2
q14 7 53 26l42 -8l40 12l33 -11l65 -4l36 -9z" />
    <glyph glyph-name="yen" unicode="&#xa5;" horiz-adv-x="266" 
d="M131 62l1 -63l-1 -39l-1 -32l-1 -42l7 -37l1 -4l11 -3l23 -11l20 17l6 2h-6l9 -2l2 10l22 -9l-12 66l1 54l-2 42l-19 9l-1 102l10 53l-5 24l9 102l-5 25l-14 20l8 51l13 25l-20 15l7 18l88 -7l38 5l57 32l11 -2l12 10l-82 -3l-16 3l-62 -18l-37 20l8 10l-56 -12l-11 -7
v-8l-75 6l-46 2l-34 5l-62 -1l-6 -46l64 2l69 7l42 3l47 -6l-6 -18l7 -16l1 -10l3 -26l-3 -50l-4 -110l-2 -72l9 -56zM147 68l-75 23q-12 -2 -15 -2q-1 0 -1 1q0 2 13 15l-112 -10l-4 2l-68 -33l8 3l-36 -19l-8 1l-12 -58l-2 -21l11 -36l-1 1q3 -8 22 -24t39 -39l20 -24
q5 1 10 1h8q8 -2 17 -2q23 8 34 13t17 7q-1 7 -1 12q0 9 4 14q4 4 4 12q0 3 -1 8l8 13l-7 -1l5 34l33 34l-41 7l-45 -1l-18 -3l7 -21h-9l30 -11l-5 -53l-71 -3l-9 34l-10 55l12 16l66 69l46 -10l11 16l122 -55z" />
    <glyph glyph-name="Aring" unicode="&#xc5;" horiz-adv-x="1061" 
d="M985 -61v0l21 25v4l2 12l-19 45l-6 58l5 -6l-6 18l-5 24l2 21l37 78l-26 99l-9 40l-7 92l17 6l108 -9l40 1l-13 18q-8 4 -9 19l-52 -2l-67 -17l-2 -3l-24 17h-1h-1q0 -1 7 -3l-48 -21l10 6l-1 -6q0 -5 1 -9q1 -2 1 -4q0 -5 -2 -12l-3 -74l-4 -15l3 -52q2 -4 2 -9
q0 -17 -16 -40l26 -50l-19 -67l-52 47l-39 23l-9 16l15 91l-25 56l7 29l6 -12l-8 65l5 -2l-37 47h5q-6 13 -18 33l-86 -38l-33 -9l-46 -1l-14 1l-75 -5l-17 -3l-8 16l-49 -34q1 1 1 2h-1q-2 0 -8 -1q14 4 30 4q31 0 93 -24l77 -5l9 -18l-28 -29l-5 8l-18 -38l1 2
q-16 -6 -16 -23q0 -5 4 -5q1 0 4 1l-78 -77l-5 25v59l1 -4q-5 5 -9 14q-3 10 -7 15q-6 2 -14 6q-9 4 -13 16l-39 9l-35 27l-29 36l-67 14l-25 -8l-68 17q-6 3 -11 3h-4q-6 0 -16 10l-38 -59l-5 6l-8 -41l-4 1l1 -53q5 -7 10 -27q4 -19 5 -33l3 -17q18 -9 27 -10t19 -4
q30 5 45 8l19 15l1 -2q1 14 16 33t40 35l14 15l-71 17q-12 -13 -23 -27q3 1 6 1q6 0 13 -7l-19 -14l-19 -87l-48 144l10 27l31 34l36 21l32 -10l77 -42l-5 -33l15 -79l11 -7l-10 -68q-7 -5 -7 -19v-5q1 -8 1 -17q0 -14 -2 -32l-48 8l-47 19l-39 2v-2q-13 5 -24 5
q-8 0 -23 -2l3 1q-21 -10 -34 -10q-14 0 -17 19l-91 -32l12 6l-6 -10h12l-4 -16l85 -1l34 22l81 17l3 -16l27 -26l54 -16l-5 -13l51 -9q19 3 29 7q2 6 2 11v2q-1 0 -4 -5l3 51l45 14l36 -16l9 -11h1h3t1 -4l28 25l-18 -9l44 48l12 -3l-6 34l134 -38l39 -74l19 -11l-1 -6
q0 -13 9 -20q11 -8 19 -15q-4 -5 -17 -28l-1 -64l15 -27l6 6l46 -5l7 5l9 24q-3 2 -3 11v7q0 10 -2 17l1 13q0 18 -5 36l5 -5l-24 36l14 22l-14 8l-1 38l55 -19l-2 -10l51 -33l-8 -16l11 -44l-2 -19l-5 12l7 -27l4 -51v0q3 0 8 -3t8 -4l-13 14zM411 182v0l-5 59l-7 26l5 36
q0 3 -1 5t-1 3v0l2 -1l-12 -2l28 46l58 -15l8 -37l-26 -27h-11q-1 -4 -6 -7l16 3l5 -11l2 -59zM777 147v0l-45 55l14 -12l-92 25l-48 34l-13 14l31 25l11 11l18 32l-7 7l21 8l59 113l53 -55l-11 -12q1 -6 1 -11q0 -7 -3 -16q12 -27 12 -44v-8q0 -15 8 -24l-15 -89z" />
    <glyph glyph-name="Adieresis" unicode="&#xc4;" horiz-adv-x="769" 
d="M380 -50v0l13 -7l33 12l45 20q15 2 34 23l-2 -3l34 22l20 48l31 37l-2 -2l-7 34l23 18l-6 45l-10 27l-2 -18l-26 76l-19 11l84 21q4 1 20 2q15 1 26 6t21 5q5 0 9 -1l-45 -54l6 5q0 -15 -7 -28q-6 -13 -10 -25l-8 8l19 -79l-2 -68l-17 -63q-3 -2 -9 -10q-5 -9 -5 -13
l-5 -3l22 -31q14 8 21 8q6 0 22 -4l28 37l-15 34l13 49l-20 47l2 75v33l21 70l13 14v-8l27 29l-30 13l-18 -12l-39 -7l-61 3l4 1q-8 7 -22 7h-12h-19q-3 -1 -6 -1q-13 0 -32 8l-39 29l39 26l8 12l-11 42q-37 18 -50 23q-7 1 -11 1q-5 0 -6 -4h-49l-18 30l-59 -52l-30 6
l-46 20l-42 8l-29 -2q-5 -7 -22 -10q-16 -3 -28 -5h4q-14 -13 -27 -23t-21 -17l-20 -28l7 -2l-10 -16l-6 -57l50 -74l36 14q22 -22 35 -22h3q7 2 15 2q9 0 19 -2l12 25l11 42l51 53l-38 3l-36 7l-17 -4l6 -32l-6 -3l-11 -55l-56 17l-19 41l8 7l10 41l-13 2l17 59l71 7l54 12
l52 -46l5 -16l8 -24v-45l8 -54l-50 -79l15 14l60 -44l27 -15h3q20 0 20 5t-6 14l141 46l6 -47l-4 -42l2 -49l-29 -67l-62 -48l-59 -14l-70 4l-47 34l-43 2l-29 55l-16 68l-24 20l1 -14l-13 72l-13 4l-21 10l-25 -39l5 3q-2 -3 -2 -5t1 -3q2 -3 2 -5v-1l-2 1q0 -18 9 -29
q9 -10 12 -25l-3 19l49 -93l50 -39q28 -18 29 -18h3q5 0 24 -6l87 -46l6 17q1 0 2 1zM364 220v0l-29 10l13 11l10 38l45 -7l85 3l47 20l-6 -3l2 -1l2 7l-45 -57l8 -6zM366 308v0l-11 64l-1 75l44 16l29 6l20 2l26 -6l8 -37l-5 -14l-45 -25l61 -24l4 -38l-36 -20zM518 429v0
l62 14l60 8l27 10l41 -23l58 19l45 -19q3 15 11 21l14 14l-34 22l-67 -26l-24 3l-66 -5h-70l-14 12l-46 -8l-22 -27h4q4 0 9 1h2q8 0 10 -16z" />
    <glyph glyph-name="Atilde" unicode="&#xc3;" horiz-adv-x="757" 
d="M349 87v0l36 58l-5 38l7 92l37 -20l40 -15l2 10h24l-1 16l25 16q6 16 26 30l-56 42l38 11q10 17 20 27l-9 12l3 6l-24 24l29 22l52 -3l80 -15l64 2l13 -2l37 17l37 8l-154 32l-116 -32l-60 10l-44 -10q-22 4 -46 6l-36 -26l15 -21l-85 27l-28 1l7 5q-20 2 -36 6t-31 4
q-10 0 -22 -1q-9 -4 -13 -7q-5 -2 -11 -2t-13 1l-9 -10l-4 7l-12 -26l-36 -33l1 -26l16 -60l-7 4l16 -41l5 5l35 -25q12 -6 22 -6q6 0 11 2q6 3 13 3q11 0 28 -6v3q0 9 4 16q1 2 1 3q0 7 20 13l30 83l-53 -11l-29 -14l6 1l-10 -9l8 -14v-6l-10 -12l-22 -3l-13 15l-6 95
l35 36l34 -7l25 1l88 -53l9 -44l1 -1l-19 -8l3 -94l-12 -62l-70 -13l-33 4l-49 16q0 2 -4 2q-2 0 -7 -1q-10 -2 -14 -2h-1l-2 -26l-76 5l-44 -17l11 -3l8 6q41 -6 48 -8q0 2 2 2q1 0 24 -16l52 23l68 -7l45 2l42 -25zM671 -153v0l31 34l-6 -4l26 29l-2 -2v1q0 3 2 9
q-18 0 -30 5t-29 16q0 -5 -2 -12l-69 56l16 37l40 27l-1 12l50 27l5 8l-28 39l-3 7l-10 2l-34 42l14 24l-60 17l-53 6l-52 44l-6 12q-77 3 -143 5q-4 -40 2 -81l4 -21l-1 -17l17 -25l-15 -16l9 -57q-29 -49 -32 -55l28 -16l-1 1q7 -4 12 -6q4 -1 18 -2l14 13l-3 -25l91 96
l14 9l55 24l38 46l69 -18v-40l-5 -27l-34 -26l-72 -33h-22l4 -16l-14 -4l63 -58l71 -29l32 -46zM428 103v0l-41 -22l-8 108l-3 40l-10 36l64 -3l37 -34l1 11l56 -37l35 -8l-48 -24l-26 -38l-15 18zM448 298v0l-57 21l-1 33l14 74l57 5l37 -50l-42 -26l33 -56z" />
    <glyph glyph-name="logicalnot" unicode="&#xac;" 
d="M-282 50l14 -70l-55 18l-45 -46h-6l-64 33l3 -1q4 0 1 1t-9.5 2.5t-14 3.5t-11.5 3l-26 -10l-31 -7q-5 -11 -12 -22t-12 -22l-30 -29q1 -6 2.5 -12.5t2.5 -12.5l-2 -8l-1 1q3 -11 7 -21.5t7 -21.5l-3 2l27 -31l-5 1l29 -16l31 -9q10 0 13.5 0.5t14.5 0.5l10 28l10 10
l-6 35l19 26q-10 1 -17.5 2t-18.5 2l-30 -6l7 -12l-2 -9l-27 -2l-19 32l3 14l54 72l51 -16l19 -25l18 -33h10l25 -7q4 10 10 25.5t13 31.5t11.5 17.5t12.5 -11.5l10 -27l7 -83l-4 -21v1q0 -10 1 -19.5t1 -19.5l-2 -7l-3 -12l47 -9q5 2 9 5.5t9 5.5h-1l25 18l-10 30v3
q-3 -2 -6 -3.5t-4 -1.5v30l-3 19l12 8q-1 10 -2.5 19.5t-2.5 19.5l-3 26v53l1 47q-16 4 -31 8t-28 9z" />
    <glyph glyph-name="ae" unicode="&#xe6;" horiz-adv-x="153" 
d="M32 386q-3 0 -34 -8l12 -3q-7 -19 -13 -28q-7 -10 -13 -23l5 -2l-29 -47l35 -19l4 7l5 2q3 1 6 3q2 1 8 1l-3 1l6 3l6 10l10 6q4 19 -4 48l66 -18l-7 -35l3 -7l-5 -54l-59 -44l-92 36l-16 27l-41 53l-13 -20l15 -28l20 -13l13 -27l17 -3q19 -20 47 -28q29 -9 43 -30
l41 13l1 -2l64 79l-5 44q1 3 1 5q0 6 -4 14q-3 7 -3 12v4l2 -1l-68 71q0 -5 -4 -5q-1 0 -4 2q-6 4 -13 4v0zM-118 472v0l-23 -34l37 11l8 1l73 -11l90 10l69 10l30 -12l31 8l47 11l25 -6l10 10l-47 13l-99 -11l21 5l-142 5l-65 2z" />
    <glyph glyph-name="oe" unicode="&#x153;" 
d="M-264 -278v0l-2 26l39 49l6 16l29 11q-1 19 -21 25q-19 7 -30 18l-13 3l-4 7q-6 -6 -6 -16q0 -4 1 -9q3 -13 12 -13h4l-56 -73l-31 104l45 50l36 24l24 -8l-4 -2l27 -8l67 -26l26 -92l-6 -25q6 -6 6 -20q1 -13 4 -20q7 -6 15 -8q8 -1 22 -12l31 16l7 11l-1 10l5 5
q-15 13 -15 30q0 16 7 27l-35 70l17 59l-9 38q11 37 11 47q0 3 -5 19q-4 11 -11 17q-7 5 -13 17l-17 -3l-4 -17l-3 -54q-6 -16 -6 -32q0 -14 5 -27q5 -15 5 -24q0 -8 -4 -10l-43 17l-19 1l-67 18q-6 -6 -20 -7q-14 -2 -16 -16l-75 -19l2 -4l-18 -19l-3 -6l4 1q-1 -12 -5 -20
q-4 -7 -7 -18q8 -18 8 -23q0 -7 -3 -24l43 -49l15 -10v13z" />
    <glyph glyph-name="guilsinglright" unicode="&#x203a;" horiz-adv-x="219" 
d="M306 494l-18 2l-8 6l-7 -10h-33l-40 -11l-127 10l-41 -12l-26 1l-12 2q-21 -5 -33 -9q-12 -3 -20 -3h-3q-8 -4 -17 -7q-9 -2 -17 -5q25 0 28 -2l27 -11l82 2l-6 24l104 -20l47 -3l-14 -10h-1l28 -6l53 14l37 -9l-4 -89l-96 38q-7 -1 -13 -1q-10 0 -10 2t13 7l-140 -7
l-15 2l-17 8l-2 -98v2q-7 -13 -8 -41q10 -13 12 -22q1 -10 4 -18l-8 -2l30 -26l3 -7l-2 16l43 -35l1 -3l34 -2q6 -1 11 -2q-1 4 -1 8q0 9 3 14q3 8 7 22l24 -8l28 97l-1 -3q-1 1 -1 3q0 1 -5 1h-2l-35 14l-13 11l-28 -63l1 2l1 -10q-1 -4 -3 -7l12 -18l-51 14l-30 30l11 52
l11 26l43 27l36 -6q2 0 65 -26l81 -61l-5 -22l-4 -56q11 -5 15 -9q5 -5 10 -21l46 22l-9 37l9 7l7 109l-10 83l6 26l98 4l24 10l25 13q-17 0 -27.5 1t-27.5 1l-24 1l-84 14l-12 -3z" />
    <glyph glyph-name="scaron" unicode="&#x161;" horiz-adv-x="409" 
d="M306 494l-18 2l-8 6l-7 -10h-33l-40 -11l-127 10l-41 -12l-26 1l-12 2q-21 -5 -33 -9q-12 -3 -20 -3h-3q-8 -4 -17 -7q-9 -2 -17 -5q25 0 28 -2l27 -11l82 2l-6 24l104 -20l47 -3l-14 -10h-1l28 -6l53 14l37 -9l-4 -89l-96 38q-7 -1 -13 -1q-10 0 -10 2t13 7l-140 -7
l-15 2l-17 8l-2 -98v2q-7 -13 -8 -41q10 -13 12 -22q1 -10 4 -18l-8 -2l30 -26l3 -7l-2 16l43 -35l1 -3l34 -2q6 -1 11 -2q-1 4 -1 8q0 9 3 14q3 8 7 22l24 -8l28 97l-1 -3q-1 1 -1 3q0 1 -5 1h-2l-35 14l-13 11l-28 -63l1 2l1 -10q-1 -4 -3 -7l12 -18l-51 14l-30 30l11 52
l11 26l43 27l36 -6q2 0 65 -26l81 -61l-5 -22l-4 -56q11 -5 15 -9q5 -5 10 -21l46 22l-9 37l9 7l7 109l-10 83l6 26l128 4l24 10l25 13q-17 0 -27.5 1t-27.5 1l-54 1l-84 14l-12 -3z" />
    <glyph glyph-name="bullet" unicode="&#x2022;" horiz-adv-x="406" 
d="M373 345l-1 -2l2 -6l-1 8v0zM50 323zM310 40l-1 1v-1v0h1v0zM349 273l44 -2l-54 -32l-1 20zM497 218q4 12 4 22v2q-15 6 -20 19q-6 16 -13 31l-3 -3l-31 25l-12 38q-5 -15 -11 -20q-6 -6 -16 -25l-2 -36l28 12l26 -67v-24q0 -8 3 -15v-3q0 -7 -10 -16l-32 -59l9 9
l-15 -29l-71 -8q-17 0 -19 -18l-47 4l-87 68l-37 36l-29 64l-18 43l8 21l4 1l-12 30l2 -7l-33 17l-13 -7l12 -111l-16 4l41 -52l-2 -5l21 -19l1 -16l28 -40q8 -1 18 -9q9 -8 15 -9l5 -12l84 -4l52 -9q5 1 9 1q5 0 7 -13l62 30l-1 -2q7 2 12 5q5 4 5 7v2l63 -20l32 114l-3 -3
q3 8 3 13v3q0 5 2 11l3 -4q-7 13 -7 24q0 5 1 9v0zM319 281l38 35l-8 -6l23 33l-5 14l6 -4l-31 59h-1q-13 0 -34 8q-22 7 -36 8l-7 2l-23 -19q4 -8 4 -15q0 -6 -2 -11q-7 -13 -7 -32l-2 -33l-41 15l6 31q-6 99 -7 108q-25 -9 -44 -13l-1 -8q0 -4 11 -14l1 -82l14 -61
q3 -1 7 -5t10 -4q4 0 8 1l41 -20l-5 -46l8 2l43 -33h2q9 0 18 8q9 7 24 10l12 28l-10 7l-32 1l20 36v0zM274 313l-14 28l15 40l20 20l33 -8l-14 -56l-40 -24v0zM501 243v-1q4 -1 7 -2l-7 3v0z" />
    <glyph glyph-name="tilde" unicode="&#x2dc;" horiz-adv-x="282" 
d="M314 33v0l27 31l5 11q-1 2 -1 4v3q1 2 1 3v1h-5l9 30l-23 32l-6 -8l-17 68l26 -15l-9 74l2 -2q1 5 1 9q0 7 -3 12q-4 8 -11 28l5 39l-2 37h-2q-3 0 -10 3q-4 1 -7 1q-4 0 -8 -3l-32 -16l4 3q2 -6 2 -10q0 -5 -2 -9q-1 -1 -1 -2q0 -3 5 -3q2 0 5 1l-49 -78l-44 -8l-59 -38
l22 12l-18 109l3 -8l9 112l17 -7l62 22l73 -25h102l-3 3l26 16l-69 9q-25 -5 -41 -5q-23 0 -29 11l-45 -10l-69 6l-40 2q1 5 10 27q-87 -19 -93 -21l23 -12l-40 5q-9 -3 -22 -4q-12 -1 -20 -1l-17 -18q4 3 9 3h5q2 0 2 1t-1 2l79 -4l27 -29l-13 -69l5 -28l-12 -11l6 -3
l-12 -21l2 -42l-11 -13l49 -37q8 -1 15 -1h7q7 0 18 -5l14 -15l71 68l31 45l16 -88l13 -15l-3 -76l-19 -62q3 -1 9 -8q6 -8 10 -10q3 -3 6 -3t7 2q3 1 8 1q7 0 20 -3z" />
    <glyph glyph-name="trademark" unicode="&#x2122;" horiz-adv-x="510" 
d="M276 152v0q25 11 28 11h1q5 -1 10 -1l10 8l17 8v85l-18 24l2 64l5 31q-3 1 -5 1h-4h-3l-34 -16l8 -3q-8 -7 -8 -13v-1q1 -3 1 -7q0 -5 -3 -25l-23 -22l-67 -44l-29 4l-15 36v-2q6 5 6 15q0 8 -4 19q-5 15 -5 26q0 7 2 12h-1v6q0 6 -9 26l11 15q-2 5 -2 10q0 11 4 19l11 4
l21 1l9 21l76 -16l6 9l26 43l270 -47l68 33v-28q-161 7 -321 14l-34 -2l-50 4l-34 11l-53 -8l2 7l10 -1l-6 -2l-18 12l-54 -20l-44 -6l-34 14l-20 -37l12 15l71 -15l20 6l8 -40l5 -39l-4 2q12 -6 12 -20v-6q-1 -7 -1 -13q0 -11 3 -21l-11 -2l29 -20l-39 -72l11 -16q1 1 3 1
q3 0 5 -1l1 -1q2 0 2 5l41 3l-5 5l26 3l-11 -3l35 13l57 37l26 42l22 -63l-18 -55l7 8z" />
    <glyph glyph-name="cent" unicode="&#xa2;" horiz-adv-x="48" 
d="M-132 -113l32 13l55 12q3 1 6 4l38 42l26 55l-1 -2q0 6 -1 12t-1 12l4 57l-28 35l-1 8l-33 27l5 -21l-69 -68l-63 36l-3 25v6l2 28l12 -20l13 49l-15 14q-12 1 -26.5 2.5t-25.5 2.5l-27 4q-1 -1 -1.5 -2t-2.5 -2l10 -87l10 -45l5 -24l47 -13l73 17l50 46l18 -55l-8 -39
l-7 -30l-18 -25h1l-26 -44l-71 -21q-9 7 -17 5l-45 12l-37 19l-24 18l-68 64l3 5l6 30v-1q-1 10 -2.5 20.5t-2.5 20.5v3q-3 0 -9 -1t-9 -1l-54 7l7 -48l-1 1l37 -79l-2 1l18 -24l46 -28l37 -21q18 -3 35 -7t36 -7q11 0 26.5 1t26.5 1h14z" />
    <glyph glyph-name="ellipsis" unicode="&#x2026;" 
d="M-340 -187l65 -36l34 -17l-10.5 -10.5t-9.5 -10.5q-10 0 -16.5 0.5t-14.5 0.5l-14 12l-60 37l-72 38l61 50l3 30l-3 -3l23 33l14 23q11 1 16.5 2t16.5 2l23 -3l-23 -22l-22 -20l-31 -33l-5 -31l-5 -25z" />
    <glyph glyph-name="florin" unicode="&#x192;" horiz-adv-x="165" 
d="M94 71l-21 34q4 40 7 81v-7l9 69l-16 27v7l9 5q-9 1 -16 1q-10 0 -17 -2q-11 -5 -24 -5q-3 2 -17 2t-22 -3q-7 -3 -52 -3q-4 0 -8 3q-7 5 -11 7v3l-18 -7l9 -36l83 18l49 -33l-6 -17v-9q0 -12 -2 -19q-4 -10 -7 -28q9 -25 10 -34q2 -10 2 -16q0 -7 -1 -13q3 -12 10 -45
l-9 -53l-23 -26l24 -20h14l-1 -3l7 5v6l20 -8q6 3 18 13l-5 15l5 91v0zM224 459l-22 9l-18 16l-47 -16l-60 3q-29 18 -49 18q-7 0 -12 -2q-13 -4 -27 -4q-12 0 -26 3l-12 13l-55 -20l16 -53l47 -14q-1 7 -4 12l19 -5l69 34l42 -3l78 1l-6 9l63 -13l2 8l-3 5l5 -1v0z" />
    <glyph glyph-name="egrave" unicode="&#xe8;" horiz-adv-x="3" 
d="M-419 -317v0l-3 27l42 51l6 17l30 11q0 20 -21 27t-32 18l-13 3l-4 8q-7 -7 -7 -17q0 -4 1 -9q4 -14 14 -14h2l-58 -76l-32 108l47 54l38 24l24 -9l-4 -1l29 -8l69 -29l29 -96l-7 -26q6 -6 7 -20q0 -14 4 -22q6 -5 15 -7t23 -14l32 17l8 12l-2 15q-10 22 -10 42
q0 15 8 32l-2 33l-8 90l-67 33q7 -45 7 -58q0 -6 -3 -7l-45 18h-19l-70 19q-7 -6 -22 -7q-14 -1 -17 -16l-78 -20l2 -5l-18 -20l-3 -6l4 1q-2 -13 -6 -20q-4 -8 -7 -19q8 -19 8 -24q0 -8 -3 -25l45 -52l15 -10l1 13z" />
    <glyph glyph-name="Eth" unicode="&#xd0;" horiz-adv-x="650" 
d="M440 6v0l21 1q15 1 27 6q12 4 21 18l30 -10l29 54l-9 9l29 32l-4 4l15 22l11 19l-28 72l-3 -5l-8 29l-11 9l-26 42l-16 14l6 10l-34 15l1 -44l-21 -40l-15 -32l-69 6l19 49l-11 41l-1 15l-3 1q0 8 -3 18q-2 10 -16 23l31 43l-4 -3l-1 6q55 1 110 3l44 23l94 -6l33 9
l11 21l-72 11l-70 -24l-57 17l-18 -15l-46 6l-13 -2l-16 5l-4 12l-32 -13l-18 5q6 -6 6 -22v-7q0 -7 1 -7t3 6l-111 9l1 -1h-1q-8 0 -8 7q0 4 5 15l-72 -17l-45 -20l-20 12l-30 -79q2 -3 2 -6q0 -5 -4 -11q-6 -9 -12 -22l28 -52l-5 -2l21 -25l2 4l22 -24l-5 15l49 -36l8 -17
l60 2l2 -6q8 10 8 25q0 14 3 31l11 -14l12 116h-2h-3h-4q-2 -1 -19 -11h-46q0 -7 -1 -44q8 -6 14 -12l-7 -56l-87 70l18 20l-22 76l20 43l90 -2l39 -7l46 2l29 -55l15 -25l-11 -30l7 -75l-22 -47v-7q0 -4 4 -8l17 -1l-8 4q16 -2 30 -7q15 -5 28 -5q6 10 16 12q10 1 16 5
l28 21l50 53l34 -61v2q-18 -23 -18 -58q0 -36 5 -67l-5 -20q-31 -11 -122 -47l-20 11l-48 -4l-27 17l-45 14l-43 81l6 4l-24 20l-2 -3l-13 21l-10 -11l-24 2q-11 -13 -16 -19q1 -2 5 -3q4 -2 19 -15l1 -18l50 -65l35 -9l35 -22l-4 13l70 -14l67 -13h25z" />
    <glyph glyph-name="minus" unicode="&#xad;" 
d="M-178 -34l-35 22l-44 -24l-9 17h-48l-65 12l-17 -18l-7 11l-29 -33l4 1l-8 -14l-16 -2l-17 -61l33 -51l-20 -10l67 -20l15 9l47 -20l10 -2l-8 30l7 -7l2 71l-11 1q-12 -4 -18 -4t-21 -2l14 -36l-52 -4l-6 56l20 29l23 38l3 -4l15 27l24 -17l-10 2l39 -10l4 -27l26 -12
l-16 -8q18 -12 30 -12h4q6 1 11 1q7 0 12 -1l-15 41l47 27l22 -10l-20 -13l27 -9l-13 -28l6 -45l-3 -37l-15 -22q7 -2 11 -8l16 -4q4 2 24 5l35 6l8 13l-9 7l5 16l-4 28l-10 37l-1 23l15 17l7 -18l-10 73l-4 163l-14 -15l-41 62l-14 -17l7 -184l-15 -18l4 -10zM-282 -94
l-2 -1l4 4z" />
    <glyph glyph-name="minus" unicode="&#x2212;" 
d="M-178 -34l-35 22l-44 -24l-9 17h-48l-65 12l-17 -18l-7 11l-29 -33l4 1l-8 -14l-16 -2l-17 -61l33 -51l-20 -10l67 -20l15 9l47 -20l10 -2l-8 30l7 -7l2 71l-11 1q-12 -4 -18 -4t-21 -2l14 -36l-52 -4l-6 56l20 29l23 38l3 -4l15 27l24 -17l-10 2l39 -10l4 -27l26 -12
l-16 -8q18 -12 30 -12h4q6 1 11 1q7 0 12 -1l-15 41l47 27l22 -10l-20 -13l27 -9l-13 -28l6 -45l-3 -37l-15 -22q7 -2 11 -8l16 -4q4 2 24 5l35 6l8 13l-9 7l5 16l-4 28l-10 37l-1 23l15 17l7 -18l-10 73l-4 163l-14 -15l-41 62l-14 -17l7 -184l-15 -18l4 -10zM-282 -94
l-2 -1l4 4z" />
    <glyph glyph-name="minus" unicode="&#x2212;" 
d="M-178 -34l-35 22l-44 -24l-9 17h-48l-65 12l-17 -18l-7 11l-29 -33l4 1l-8 -14l-16 -2l-17 -61l33 -51l-20 -10l67 -20l15 9l47 -20l10 -2l-8 30l7 -7l2 71l-11 1q-12 -4 -18 -4t-21 -2l14 -36l-52 -4l-6 56l20 29l23 38l3 -4l15 27l24 -17l-10 2l39 -10l4 -27l26 -12
l-16 -8q18 -12 30 -12h4q6 1 11 1q7 0 12 -1l-15 41l47 27l22 -10l-20 -13l27 -9l-13 -28l6 -45l-3 -37l-15 -22q7 -2 11 -8l16 -4q4 2 24 5l35 6l8 13l-9 7l5 16l-4 28l-10 37l-1 23l15 17l7 -18l-10 73l-4 163l-14 -15l-41 62l-14 -17l7 -184l-15 -18l4 -10zM-282 -94
l-2 -1l4 4z" />
    <glyph glyph-name="quotedblleft" unicode="&#x201c;" 
d="M-130 -261v0q6 0 11 2q9 3 19 3q6 0 13 -1q7 11 19 12t19 7l-6 -3q2 7 9 14t15 14l-5 -4q3 9 8 18t8 22l-10 2l4 57l16 9l-61 34l29 2l59 -38l31 -32l8 -38l-5 -9l20 8l-12 -40l26 -19l32 -16l24 33l-39 38l-8 25l15 -3l-81 73h7l-52 20l6 5l-33 -1l-48 4q-3 1 -7 1
q-5 0 -10 -2q-9 -4 -16 -6l14 4l-64 -11l5 -3q-8 2 -14 2q-10 0 -16 -6q-10 -10 -26 -12q-6 -2 -12 -6t-10 -7l12 -2l-23 -20l4 1q-4 -11 -4 -22l1 -25l2 11l18 -36l17 -26l3 15l48 -20l27 -12l-2 -12q8 -4 15 -4zM-118 -252v0l-47 29l-32 21l-6 37l-7 2l18 72l93 2l46 -79
l4 -41z" />
    <glyph glyph-name="Ecircumflex" unicode="&#xca;" horiz-adv-x="655" 
d="M440 6v0l21 1q15 1 27 6q12 4 21 18l30 -10l29 54l-9 9l29 32l-4 4l15 22l11 19l-28 72l-3 -5l-8 29l-11 9l-26 42l-16 14l6 10l-34 15l1 -44l-21 -40l-15 -32l-69 6l19 49l-11 41l-1 15l-3 1q0 8 -3 18q-2 10 -16 23l31 43l-4 -3l-1 6q55 1 110 3l44 23l94 -6l33 9
l11 21l-72 11l-70 -24l-57 17l-18 -15l-46 6l-13 -2l-16 5l-4 12l-32 -13l-18 5q6 -6 6 -22v-7q0 -7 1 -7t3 6l-111 9l1 -1h-1q-8 0 -8 7q0 4 5 15l-72 -17l-45 -20l-20 12l-30 -79q2 -3 2 -6q0 -5 -4 -11q-6 -9 -12 -22l28 -52l-5 -2l21 -25l2 4l22 -24l-5 15l49 -36l8 -17
l60 2l2 -6q8 10 8 25q0 14 3 31l11 -14l12 116h-2h-3h-4q-2 -1 -19 -11h-46q0 -7 -1 -44q8 -6 14 -12l-7 -56l-87 70l18 20l-22 76l20 43l90 -2l39 -7l46 2l29 -55l15 -25l-11 -30l7 -75l-22 -47v-7q0 -4 4 -8l17 -1l-8 4q16 -2 30 -7q15 -5 28 -5q6 10 16 12q10 1 16 5
l28 21l50 53l34 -61v2q-18 -23 -18 -58q0 -36 5 -67l-5 -20q-31 -11 -122 -47l-20 11l-48 -4l-27 17l-45 14l-43 81l6 4l-24 20l-2 -3l-13 21l-10 -11l-24 2q-11 -13 -16 -19q1 -2 5 -3q4 -2 19 -15l1 -18l50 -65l35 -9l35 -22l-4 13l70 -14l67 -13h25z" />
    <glyph glyph-name="Dcroat" unicode="&#x110;" horiz-adv-x="739" 
d="M613 -48v0q2 0 33 1l33 10q-5 10 -5 14v0q0 4 -1 10l6 6l-3 24l-18 71l-9 14l2 41l8 57l20 45l-6 48l-11 48v0v2q0 9 -16 38l3 57l51 17l46 -14l24 22q3 2 4 4q0 1 6 4l-14 14l-45 -1l-32 -10l-26 2q-35 17 -36 17q-6 0 -11 -5q-6 -4 -13 -4h-1l-14 -17l-53 16l-5 -16
l-139 11q-3 -1 -10 -1h-11l-9 1q-10 0 -16 -3l-66 9q4 -5 4 -10q0 -8 -11 -15l14 -31l62 -38l53 -38l-41 -49l-25 24l-69 47q-8 1 -53 16l-22 -4h-21h4q-15 2 -22 5q-7 2 -16 3q-5 -7 -9 -11q-3 -3 -3 -7v0l-29 -20v-1q-4 -6 -9 -9q-6 -3 -10 -6l-4 3l7 -30l-58 -34l-1 -12
l9 1v-1q0 -1 3 -1t7 1h4q9 0 18 -6l16 10l40 3l40 -9l-1 -4l9 -24l-25 -25l-39 -56l-5 -3q2 -5 2 -8v-3q-1 0 -2 8l66 -14l33 9q14 19 17 32q2 13 23 20l-23 70l-25 11l13 -15l-63 25q-5 -2 -16 -2h-3q-10 0 -10 -4q0 -1 2 -4l18 65l15 3l62 35l66 -68l36 -63l-32 -24l1 -4
l-3 -46l-16 -3l9 -39l30 -64l-4 5l10 -13l-8 7l44 -44l-5 -8l28 -9l10 20l58 -41q5 3 9 3q6 0 30 -16l14 37l10 89l1 -2l7 23l1 1q1 9 1 15v8q0 10 2 20l-10 -1q-18 -6 -36 -7q-18 0 -43 -3l-2 -27l12 -7l9 -32l5 -62l-74 55l-39 39l-6 38l28 77l53 48l49 6l56 -2l18 -12
l37 -7l43 -54l3 -44l8 -19l-20 -55l3 -66l-8 -22l2 2q7 -8 7 -21q1 -13 3 -26zM501 278v0l-77 37l3 27l-7 12l-3 28l-12 -11l-47 67l98 23l65 -14q53 -18 74 -26l28 -17l-13 -76l5 -40l-53 4l-24 -9z" />
    <glyph glyph-name="dcroat" unicode="&#x111;" horiz-adv-x="779" 
d="M668 -51v0l40 13l11 19l-10 58l-9 2l10 117l-11 68l-2 -8v33l-8 -6l7 98l10 30l-1 57q0 4 -1 11q-1 9 -10 20l96 -15q2 0 7 -8l36 37l-40 8l-82 -10l-22 13q-5 1 -9 1q-11 0 -20 -6l2 2q-3 -10 -12 -10t-33 26l-99 -47l-67 23l2 1q-2 -1 -5 -1h-4q-2 1 -5 1q-5 0 -12 -1
l-49 5l-20 11q-2 30 -5 59l12 5l-45 57l-44 13l-12 7q-4 -4 -12 -4q-5 0 -11 2q-38 12 -43 12q-3 0 -5 -1h-2q-5 0 -11 6l-38 -16l-47 -16l-85 14l-89 -19l-47 -15l24 -30q12 10 17 10h2q4 0 8 13l46 8l-10 4l36 -5l34 20l60 25l30 -18l49 -13l84 9l43 -57l7 -22l-6 -44
l-3 -9l-3 -9l-18 8l-51 -5l-86 -1l-20 -3l-17 7q-14 -1 -28 -4q-14 -4 -15 -20l-66 6q-6 1 -10 1q-5 0 -8 -2q-4 -3 -12 -3h-5q-31 1 -37 2l-39 6l4 -20q2 -1 5 -1h6q3 0 3 -1v0l17 12l118 -9l8 -25l21 -21l13 -58l-3 -25l-21 -95l20 22l-22 -97l4 -29l9 -12q7 8 20 8
q14 0 50 -7l-6 -1l36 -2h9q9 1 29 15l49 -15q3 12 25 12q28 0 38 -28l45 -67q19 -18 25 -23l-11 -17l84 5q3 1 7 1q8 0 20 -3q10 -2 17 -2q6 0 11 1l3 -6q9 14 9 35v9q-3 28 -11 34l17 46l-2 -7q-7 21 -7 35v4q1 14 1 25l-27 2q-7 -2 -11 -3q-5 -2 -6 -2q-2 0 -2 3q0 2 2 5
l-17 -41q16 -6 18 -6h1l24 -19l-50 -62l-67 38l-3 20l-15 36l-3 -17l-16 45l58 87l6 -1l-13 27l103 -2l30 5l20 -12l106 -20l-17 -81l11 -35l-3 -66q-5 -3 -5 -9l1 -4q0 -8 -9 -15l13 -31l-3 -49q5 -1 12 -1t10 -5zM211 116v0l-51 24q-16 3 -22 3h-7q-12 0 -13 7l-16 28
l12 49l-5 15l-6 67h28l-29 108l3 5l68 16h20l72 -18l81 17l43 1l28 -77l5 -18l-8 -34h1l2 -8l-1 -14l-22 3l-3 -14l-43 -8l-35 71l6 -3q-7 2 -69 20q-10 0 -16 1q-7 0 -23 10l-35 -33q3 -9 3 -14v-5q0 -4 1 -4v0l-14 -70l-1 -36l21 4l-5 4q32 2 43 11t35 10l-31 40
q-3 14 -11 59l84 -59l34 -35l-50 -68l-35 -42zM668 251v0l-44 31l-17 -13l-113 54l-40 -27l9 49l-24 72l12 22l20 -2l-4 3q13 1 24 1h11q10 0 10 20v8l125 -2l-1 -96l-3 -22z" />
    <glyph glyph-name="Emacron" unicode="&#x112;" horiz-adv-x="800" 
d="M713 -49v0q9 10 21 14q13 3 35 10l-31 41l11 20l-1 -3q-4 14 -4 31l-23 15l8 45l-12 27l-8 42l4 18l15 154l5 -12l-2 56l-3 6l17 -4l96 36l15 29l-17 5q0 5 -9 5t-42 -9l-58 7h-51l-2 -2q-2 0 -3 5l-31 -5l-13 -4l-33 24l-110 -35l-63 3l-28 23l4 -2h1q0 1 -1 1
q-1 1 -6 2q-5 0 -10 2q-4 2 -7 2q-8 -1 -15 -7q-6 -6 -20 -6h-2l-30 -17l-72 7l-15 29l-35 -9v-3h-11l-58 -14q-79 4 -98 6l-20 9q-3 -3 -14 -13t-17 -20q10 -3 17 -3q6 0 10 2q10 4 25 4l72 2l51 -4l27 -30l-3 -14l-3 18l8 -76l12 -38l-3 -1l13 -47l35 -25l3 2l5 -13l49 42
l25 45l37 -55q0 -37 4 -86l-19 -20l-17 -32l-135 -7l-32 44l-22 23h26q-119 117 -125 125l-9 -28q7 -20 10 -29q2 -9 9 -21l-8 9l28 -46l-1 3l9 -14l-22 13l70 -69q9 -4 26 -7t35 -7l-10 -2l35 -9l66 -8q11 1 16 7q4 5 17 7t20 6q6 5 6 7q0 1 -1 2l13 -31l-6 -14l46 -62
l21 -35l55 -14l51 10v2q3 1 6 1q5 0 10 -2q8 -4 17 -5q-14 32 -14 43q0 13 14 27l7 53q3 12 6 12v-1v-2l25 44l-46 9q-12 -5 -21 -8q-8 -3 -24 -8q-1 -2 -2 -5l-3 -3q0 -2 -6 -6l9 -17l26 -10l-13 -9l4 5q-10 -14 -10 -28q0 -7 2 -12v-7q0 -20 -29 -55l-73 61l-21 94l19 38
l5 26l65 61l74 -6l63 20l54 -29l9 -9l37 -5l-20 -79l20 -62l-26 -71q1 -5 1 -17q-1 -12 -3 -14l-9 -29q18 -19 18 -25v-1zM231 244v0l11 95l-6 -5l2 78l-2 -13l48 47h67l52 -32l33 -74l-40 -53q-16 18 -53 62l-24 -17l10 -7l-4 1zM637 279v0l-55 36l-60 9l-29 7l-12 26
l-12 60l-2 2l18 9l16 14l73 -8l114 31l-6 -78l4 -53l19 -4l-16 -41z" />
    <glyph glyph-name="emacron" unicode="&#x113;" horiz-adv-x="785" 
d="M236 181v0l-3 19l20 26l-3 1q8 7 8 18v5v6q0 9 4 15l-2 42l9 -4v1q0 1 1 2t4 6l-17 8l-28 24l-25 -10q-5 -3 -8 -4t-9 -5q1 0 2 -3v-4l3 -5q2 -4 2 -6l1 -8l20 -20l-27 -48l-48 12l-29 72l9 35l1 36l22 48l42 2l48 -17l91 12l14 -29l45 -15l7 34l-16 -13l-38 34l-11 13
l-35 2l-5 5l-19 3q-3 -2 -8 -2q-22 0 -38 19l-53 -18v6l-47 -23l4 -1l-17 -5l1 4q-4 -10 -11 -14t-11 -4h-4q-13 -23 -15 -42q-3 -19 -7 -42l7 -5l-6 -35l9 -23l-7 -6l41 -47l3 11l25 -34l1 -3l45 -16l-6 17zM667 -52v0l56 31l12 20l-15 75l-1 12l-4 7q3 5 3 11q0 5 -2 10
q-3 9 -9 9q-1 0 -3 -1q11 68 20 137l-9 42q-1 6 -1 12q0 8 1 17q2 10 2 17t-2 12l-2 53l2 -4l-9 37l79 10l58 16l2 5h-2q-5 0 -11 1h-6q-7 0 -16 -2l-49 -2l-55 21q-5 -3 -10 -3q-8 0 -11 4l-22 -22l8 7l-19 -1l-15 -35l-106 17l-75 -3q9 -3 17 -8q8 2 15 2q16 0 27 -10
l25 -17l75 -8l43 22l5 -51l-32 -35l36 -80l-65 25v-8l-38 20l-89 -18q-43 12 -60 15q-12 -1 -17 -10q-6 -10 -22 -18l-6 -21l-72 -50l7 -43l-9 -14q8 -15 16 -26q8 -10 27 -13l14 -77l-3 8l13 -25l11 -13l39 -5l28 -26l96 -19l-5 116v2q1 0 1 3l-1 7l17 30l3 17l-3 22l10 8
l-34 15l-41 -21l-2 -39l9 1l-12 -33l17 4l-42 -33l-60 38l-27 104l25 3l9 88l86 17l75 -30l34 -7l43 -2l12 -49l-2 -45l-5 -31l17 -100l1 -24l-26 -24l7 -5l2 -29h2zM335 246v0l46 3l30 36l-3 3l12 22q-4 2 -17 12l25 73q-7 9 -8 16t-1 10q0 11 6 28l52 1l20 7l38 7
q-8 -3 -15 -3t-13 4q-13 7 -28 11l4 -12l-74 16l-28 13q-11 -2 -17 -6q-5 -5 -5 -6v0v-3q0 -6 4 -6q2 0 6 2l-10 -45l25 -9q-16 -93 -21 -119q0 -6 3 -20l-5 2l2 -7z" />
    <glyph glyph-name="Ebreve" unicode="&#x114;" horiz-adv-x="898" 
d="M783 -51v0l-8 5l58 43l1 -2l-7 46l-1 11q-4 19 -25 110l12 55l-2 39l21 21l-14 73l2 44l-18 11v46l82 -7l55 14l3 6l-24 1l1 -3q-11 -5 -22 -5q-12 0 -23 6q-33 14 -68 19q-29 -2 -103 -10l-53 10l-65 -18l-26 17l-47 -20l-38 17l-24 -9l-25 1l-7 1l-32 -7l-18 -1
l-108 16l-62 -25l-70 24l-38 -14l-45 -1l-26 3l-10 -9l-39 14l12 -41l79 5l75 14l117 -15l50 5l4 16l84 -12l25 -5l8 1l13 -6l17 -4l18 15l41 -57l28 -19l-10 -65l-30 -20l-8 -3l-38 -67l-39 104v-5l-30 35l4 7l-23 2q-27 8 -57 22l-23 -2l-60 -2q10 -19 10 -41v-5l-13 -36
l3 -10l-9 -35l2 1q-4 -4 -4 -10q0 -2 1 -5v-3q0 -9 -10 -26v-42q5 0 6 -3q2 -3 9 -7l50 -4l24 35l9 19l-2 -2q3 3 3 6v3v6v7h-5q-11 0 -22 6l3 2l2 31l-5 -7l1 64l10 20l30 -12l46 -3l26 -49l34 -43l10 -68l-16 -31l-7 -32l-60 -40l-61 -6l-7 7l-41 -30l-82 73l-23 24
l-10 61l-22 50q-33 6 -42 6t-21 -3v-7v-7v-6v-8l-4 5l9 -26l-1 -4q4 -18 17 -27q12 -9 17 -29l-2 4l12 -16l9 -21l43 -33l-8 1l48 -14q3 -2 5 -3q2 -2 3 -2l-7 4l52 -24l49 3l27 25l41 3h50l26 49l54 -63l3 -6l15 -6l-12 11l55 -43l42 -19l-8 -5l62 7l-16 27l10 61l17 46
l3 15v3q0 14 2 29l-11 -2l-29 2l-42 -17l-1 -5h1t4 2l-5 -27l5 14l7 -37l-3 -46l2 -26l-108 57l6 41l-18 52l19 39l33 33l-6 8l22 45l76 -11l40 1l86 -20l28 -45l-9 -37q-1 0 -1 -3q0 -2 1 -5q2 -7 2 -11v-1l-7 10l-5 -49l12 -77q5 -9 5 -18q0 -4 -1 -8q-3 -10 -3 -19v-5
l-23 -10zM768 272v0l-85 23l-11 -2l-48 13l-58 15l12 44l4 2l-9 14l-13 23l-30 51l73 -2l23 -16l42 24l82 -29l10 -22l10 -66z" />
    </font>
</defs>
</svg>
