<?xml version="1.0" standalone="no"?>
<!DOCTYPE svg PUBLIC "-//W3C//DTD SVG 1.1//EN" "http://www.w3.org/Graphics/SVG/1.1/DTD/svg11.dtd" >
<svg xmlns="http://www.w3.org/2000/svg" xmlns:xlink="http://www.w3.org/1999/xlink" version="1.1">
<metadata>
Created by FontForge 20160407 at Sun Oct 30 05:47:00 2016
 By Jimmy Warting
This Font Software is licensed under the SIL Open Font License, Version 1.0. No modification of the license is permitted, only verbatim copy is allowed. This license and a FAQ is also available at: http://scripts.sil.org/OFL
</metadata>
<defs>
<font id="SolaimanLipiNormal" horiz-adv-x="1138" >
  <font-face 
    font-family="SolaimanLipi"
    font-weight="400"
    font-stretch="normal"
    units-per-em="2048"
    panose-1="3 0 6 9 0 0 0 0 0 0"
    ascent="1638"
    descent="-410"
    x-height="1073"
    cap-height="1493"
    bbox="-1372 -752 2224 2020"
    underline-thickness="160"
    underline-position="-297"
    unicode-range="U+000C-25CC"
  />
<missing-glyph horiz-adv-x="884" 
d="M68 0v1364h682v-1364h-682zM135 68h547v1228h-547v-1228z" />
    <glyph glyph-name="IJ" unicode="IJ" horiz-adv-x="569" 
d="M1092 1493h190v-1120q0 -254 -184 -363q-100 -57 -237 -57q-254 0 -361 176q-55 92 -55 219v131h194v-96q0 -227 166 -264l58 -6q118 0 182 92q47 69 47 237v1051zM397 1493v-1493h-192v1493h192z" />
    <glyph glyph-name="ij" unicode="ij" horiz-adv-x="454" 
d="M454 1073h170v-1296q0 -211 -262 -223h-31l-36 2l-21 4v145l39 -2h2q107 0 129 66q10 28 10 75v1229zM624 1493v-215h-170v215h170zM307 1073v-1073h-170v1073h170zM307 1493v-215h-172v215h172z" />
    <glyph glyph-name="Ldot" unicode="L&#xb7;" 
d="M954 874v-256h-254v256h254zM354 1493v-1325h738v-168h-928v1493h190z" />
    <glyph glyph-name="ldot" unicode="l&#xb7;" horiz-adv-x="454" 
d="M887 874v-256h-254v256h254zM311 1493v-1493h-172v1493h172z" />
    <glyph glyph-name=".notdef" horiz-adv-x="884" 
d="M68 0v1364h682v-1364h-682zM135 68h547v1228h-547v-1228z" />
    <glyph glyph-name=".null" horiz-adv-x="0" 
 />
    <glyph glyph-name=".null" horiz-adv-x="0" 
 />
    <glyph glyph-name="nonmarkingreturn" horiz-adv-x="682" 
 />
    <glyph glyph-name="nonmarkingreturn" unicode="&#xd;" horiz-adv-x="682" 
 />
    <glyph glyph-name="space" unicode=" " horiz-adv-x="569" 
 />
    <glyph glyph-name="exclam" unicode="!" horiz-adv-x="569" 
d="M426 1493v-692l-45 -457h-80l-45 457v692h170zM426 213v-213h-172v213h172z" />
    <glyph glyph-name="quotedbl" unicode="&#x22;" horiz-adv-x="727" 
d="M106 1452h191v-227l-55 -275h-80l-56 275v227zM434 1452h191v-227l-56 -275h-80l-55 275v227z" />
    <glyph glyph-name="numbersign" unicode="#" 
d="M993 1427l-73 -401h190v-139h-217l-64 -357h215v-139h-239l-80 -432h-156l78 432h-254l-80 -432h-155l78 432h-207v139h233l64 357h-222v139h248l74 401h156l-74 -401h256l72 401h157zM737 887h-254l-65 -357h256z" />
    <glyph glyph-name="dollar" unicode="$" 
d="M498 1577h120v-111q256 -18 353 -206q45 -84 45 -197h-162q-2 158 -119 227q-41 23 -90 31l-27 2v-510q177 -53 222 -74l24 -12l2 -2l21 -10q172 -99 174 -316q0 -213 -139 -338l-50 -36q-100 -60 -254 -72v-211h-120v211q-316 20 -404 260q-33 94 -26 213h161l7 -55
q10 -101 34 -144q4 -8 11 -16q71 -98 217 -117v557q-129 39 -183 64q-41 18 -75 43q-146 104 -146 299q0 299 287 385q53 16 117 24v111zM498 829v492q-197 -27 -232 -182l-6 -62q0 -184 238 -248zM618 633v-539q125 15 189 76q86 82 86 205q0 125 -96 186q-60 37 -179 72z
" />
    <glyph glyph-name="percent" unicode="%" horiz-adv-x="1820" 
d="M408 1403q172 0 276 -135h2q72 -94 72 -219q0 -162 -129 -267q-97 -80 -219 -80q-166 0 -273 129q-78 97 -78 222q0 166 129 272q97 78 220 78zM408 1260q-111 0 -172 -95h-3q-32 -51 -32 -112q0 -109 92 -172q53 -35 117 -35q110 0 172 92q34 51 34 113q0 116 -98 178
q-49 31 -110 31zM1247 1452h135l-809 -1493h-135zM1409 659q174 0 279 -135q71 -94 71 -217q0 -162 -129 -266q-96 -80 -219 -80q-166 0 -272 129q-78 96 -78 221q0 166 131 271q96 77 217 77zM1409 516q-111 0 -172 -92q-35 -51 -35 -113q0 -112 96 -174h2v-2h3q0 -2 2 -2
q49 -29 106 -29q111 0 172 93q35 49 35 110q0 117 -98 178v0l-2 2q-35 21 -76 27q-8 0 -33 2z" />
    <glyph glyph-name="ampersand" unicode="&#x26;" horiz-adv-x="1366" 
d="M1010 684h164q0 -74 -21 -152q-29 -116 -98 -223l250 -309h-224l-127 160q-92 -88 -141 -123l-16 -10q-115 -74 -271 -74q-237 0 -352 168q-68 100 -68 239q0 166 107 275l10 10l10 8q70 66 205 144q-143 180 -166 333l4 -49q0 4 -2 9l-2 40q0 156 131 252q97 70 220 70
q184 0 278 -135v-2q55 -78 55 -185q0 -139 -106 -235q-62 -55 -176 -121l272 -334q31 56 49 127q17 64 15 117zM584 883q133 84 176 141q35 49 35 111q0 106 -93 153q-38 21 -86 21q-122 0 -163 -103q-13 -32 -13 -73l4 -50q7 -20 17 -41q24 -47 123 -159zM856 281l-328 409
q-147 -94 -200 -168q-49 -65 -49 -147q0 -133 110 -211q72 -51 158 -51q65 0 125 24q84 37 184 144z" />
    <glyph glyph-name="quotesingle" unicode="'" horiz-adv-x="391" 
d="M98 1452h193v-227l-55 -275h-82l-56 275v227z" />
    <glyph glyph-name="parenleft" unicode="(" horiz-adv-x="681" 
d="M483 1493h113q-199 -322 -258 -696q-23 -133 -23 -267q0 -118 17 -239q57 -387 264 -725h-113q-213 278 -295 643q-38 166 -38 321q0 158 40 328q84 361 293 635z" />
    <glyph glyph-name="parenright" unicode=")" horiz-adv-x="681" 
d="M190 -434h-112q198 321 258 696q22 133 22 266q0 119 -16 240q-57 387 -264 725h112q213 -279 295 -643q39 -166 39 -322q0 -157 -41 -327q-84 -361 -293 -635z" />
    <glyph glyph-name="asterisk" unicode="*" horiz-adv-x="796" 
d="M328 1493h129l-11 -229l218 77l38 -120l-221 -62l144 -182l-105 -74l-127 191l-129 -191l-102 74l141 182l-221 62l39 120l217 -77z" />
    <glyph glyph-name="plus" unicode="+" horiz-adv-x="1196" 
d="M1094 547v-144h-424v-423h-144v423h-424v144h424v424h144v-424h424z" />
    <glyph glyph-name="comma" unicode="," horiz-adv-x="569" 
d="M178 213h215v-246q0 -268 -215 -268v78q88 4 109 67q14 37 14 119v37h-123v213z" />
    <glyph glyph-name="hyphen" unicode="-" horiz-adv-x="681" 
d="M582 639v-147h-488v147h488z" />
    <glyph glyph-name="period" unicode="." horiz-adv-x="569" 
d="M391 213v-213h-213v213h213z" />
    <glyph glyph-name="slash" unicode="/" horiz-adv-x="569" 
d="M469 1493h113l-486 -1534h-112z" />
    <glyph glyph-name="zero" unicode="0" 
d="M563 1452q211 0 330 -154q2 -4 4 -6q141 -192 141 -602q0 -555 -282 -696q-86 -41 -193 -41q-360 0 -448 442q-27 133 -27 307q0 400 141 590q111 146 306 160h28zM563 1292q-291 0 -291 -592q0 -598 287 -598q242 0 285 394q10 92 10 211q0 585 -291 585z" />
    <glyph glyph-name="one" unicode="1" 
d="M530 1034h-321v129l16 2q199 27 260 76q54 43 90 158l17 53h119v-1452h-181v1034z" />
    <glyph glyph-name="two" unicode="2" 
d="M1036 178v-178h-966q14 262 116 399q60 76 162 148q55 39 129 82l189 106q194 111 196 287q0 147 -123 227q-71 45 -164 45q-153 0 -235 -116q-6 -9 -10 -19l-4 -6q-35 -66 -43 -205h-181q7 205 78 316q123 188 402 188q202 0 329 -115q136 -120 136 -311
q0 -270 -308 -438l-204 -111q-109 -63 -164 -117q-82 -75 -99 -182h764z" />
    <glyph glyph-name="three" unicode="3" 
d="M453 666v153q172 2 239 31q115 47 117 197q0 174 -143 229q-50 18 -113 18q-160 0 -231 -108l-3 -2l-10 -19q-30 -59 -33 -182h-180q8 430 389 467l66 2q285 0 391 -190q51 -88 51 -209q0 -222 -202 -301q190 -66 231 -222q14 -53 14 -124q0 -252 -192 -375
q-123 -78 -299 -78q-303 0 -416 211q-53 98 -63 258h180q16 -270 231 -303q35 -6 74 -6q213 0 278 161q23 56 23 129q0 265 -301 265l-76 -2h-22z" />
    <glyph glyph-name="four" unicode="4" 
d="M670 348h-613v191l660 913h133v-942h215v-162h-215v-348h-180v348zM670 510v635l-455 -635h455z" />
    <glyph glyph-name="five" unicode="5" 
d="M975 1452v-178h-604l-58 -406l23 17q110 71 246 71q245 0 376 -178q93 -125 93 -305q0 -264 -179 -412q-131 -108 -319 -108q-227 0 -360 137l-33 37q-49 61 -78 178l-10 51h180q63 -243 297 -243q207 0 285 166q32 71 32 170q0 223 -155 309q-70 39 -162 39
q-123 0 -205 -72q-29 -25 -61 -63h-166l108 790h750z" />
    <glyph glyph-name="six" unicode="6" 
d="M1020 1073h-180q-37 178 -183 213q-28 6 -61 6q-227 0 -297 -295q-27 -110 -27 -256q119 162 334 162q228 0 355 -170q90 -121 90 -291q0 -243 -168 -383q-127 -106 -308 -106q-243 0 -364 180q-119 180 -123 506v23q0 378 131 583q115 172 320 203q34 4 69 4
q236 0 348 -190q48 -80 64 -189zM584 743q-174 0 -256 -135q-45 -71 -45 -170q0 -176 125 -270q73 -55 170 -55q155 0 237 129q51 80 51 186q0 209 -145 285q-59 30 -137 30z" />
    <glyph glyph-name="seven" unicode="7" 
d="M1065 1452v-152q-178 -237 -299 -460q-215 -398 -291 -840h-192q77 342 596 1274l-400 -668q129 283 400 668h-785v178h971z" />
    <glyph glyph-name="eight" unicode="8" 
d="M801 764q248 -119 250 -363q0 -229 -177 -354q-129 -94 -311 -94q-254 0 -391 168q-96 117 -96 282q0 242 248 361q-52 33 -86 61q-103 86 -111 213v2v25q0 203 166 311q113 76 270 76q238 0 359 -156q77 -96 77 -231q0 -139 -92 -225l-26 -23zM563 1292
q-164 0 -225 -118l-2 -3v0q-25 -47 -25 -108q0 -143 125 -201q56 -26 127 -26q164 0 225 116q3 0 3 2q24 45 24 107q0 153 -133 209q-51 22 -119 22zM563 684q-182 0 -262 -131q-41 -66 -41 -154q0 -168 135 -245q70 -41 164 -41q186 0 266 133q41 65 41 153q0 168 -137 246
q-72 39 -166 39z" />
    <glyph glyph-name="nine" unicode="9" 
d="M109 332h180q37 -178 182 -213q29 -6 61 -6q228 0 297 295q27 110 27 256q-131 -158 -332 -162q-229 0 -356 170q-90 121 -90 291q0 243 168 383q127 106 307 106q244 0 367 -180q118 -180 122 -506v-23q0 -378 -133 -583q-108 -166 -307 -201l-82 -6q-235 0 -348 190
q-47 82 -63 189zM551 1294q-156 0 -238 -131l-2 -2q-49 -78 -49 -184q0 -209 146 -285q59 -30 137 -30q170 0 254 133q47 73 47 172q0 178 -125 272q-76 55 -170 55z" />
    <glyph glyph-name="colon" unicode=":" horiz-adv-x="569" 
d="M438 213v-213h-213v213h213zM438 1073v-213h-213v213h213z" />
    <glyph glyph-name="semicolon" unicode=";" horiz-adv-x="569" 
d="M440 1073v-213h-213v213h213zM225 213h215v-246q0 -268 -215 -268v78q88 4 109 67q14 37 14 119v37h-123v213z" />
    <glyph glyph-name="less" unicode="&#x3c;" horiz-adv-x="1196" 
d="M92 406v141l1002 424v-162l-807 -330l807 -336v-161z" />
    <glyph glyph-name="equal" unicode="=" horiz-adv-x="1196" 
d="M1094 723v-143h-992v143h992zM1094 371v-144h-992v144h992z" />
    <glyph glyph-name="greater" unicode="&#x3e;" horiz-adv-x="1196" 
d="M1104 547v-141l-1002 -424v161l807 330l-807 336v162z" />
    <glyph glyph-name="question" unicode="?" 
d="M676 408h-184v112q0 78 28 131l29 47l20 27l6 8q5 6 11 12l119 109q86 76 122 145q31 58 31 125q0 144 -125 205h-2q-59 29 -135 29q-168 0 -229 -119q-35 -70 -35 -201h-174q0 432 368 475l80 5q258 0 373 -170l2 -2v0v-3q61 -92 61 -219q0 -96 -41 -174
q-43 -84 -163 -192q-125 -117 -148 -170l-8 -21l-6 -61v-2v-96zM676 213v-213h-184v213h184z" />
    <glyph glyph-name="at" unicode="@" horiz-adv-x="2078" 
d="M1362 1026h170l-184 -573q-25 -70 -25 -103q0 -55 59 -82h2q19 -8 41 -8q131 0 240 148q104 145 104 323q0 246 -198 428q-203 189 -490 201h-32q-301 0 -533 -209l-63 -64q-209 -231 -209 -528q0 -289 215 -487q221 -205 553 -205q162 0 395 65l57 -137
q-127 -47 -264 -69q-102 -17 -199 -17q-368 0 -636 219q-250 205 -289 506l-6 94l2 52q16 315 221 567q47 57 100 106q221 201 529 252q20 2 39 6l114 7q340 0 592 -207q238 -193 275 -469q6 -43 6 -86l-4 -72q-25 -213 -172 -385q-156 -182 -381 -182q-197 0 -226 157
q-32 -34 -65 -61q-103 -86 -226 -86q-167 0 -264 141q-69 99 -69 234q0 223 161 395q158 170 365 172q170 0 250 -178zM1055 938q-135 0 -238 -145q-92 -129 -92 -293q0 -138 96 -207h2q47 -35 105 -35q119 0 209 133l12 19q39 69 70 178q26 90 28 153q6 113 -88 168
q-47 29 -104 29z" />
    <glyph glyph-name="A" unicode="A" horiz-adv-x="1366" 
d="M971 449h-576l-157 -449h-203l532 1493h246l524 -1493h-213zM918 608l-230 680l-246 -680h476z" />
    <glyph glyph-name="B" unicode="B" horiz-adv-x="1366" 
d="M162 0v1493h606q211 0 324 -104q118 -105 118 -275q0 -229 -206 -326q215 -83 258 -247q12 -41 14 -88v-27q0 -180 -115 -301q-114 -125 -325 -125h-674zM352 850h369q147 0 217 53q82 62 82 184q0 121 -82 185q-70 53 -217 53h-369v-475zM352 168h465q131 0 199 72
q69 71 69 184t-69 186q-66 72 -199 72h-465v-514z" />
    <glyph glyph-name="C" unicode="C" horiz-adv-x="1478" 
d="M1356 1030h-195q-31 154 -108 225q-97 91 -295 95q-262 0 -387 -236q-82 -153 -82 -383q0 -348 194 -510q121 -100 291 -100q223 0 328 158q12 16 20 34q45 86 68 232h196q-67 -592 -614 -592q-289 0 -457 174q-217 223 -217 602q0 375 209 602q168 187 473 187
q488 0 576 -488z" />
    <glyph glyph-name="D" unicode="D" horiz-adv-x="1478" 
d="M182 0v1493h576q334 0 495 -270q2 -2 2 -4q111 -187 111 -471q0 -429 -238 -623q-149 -125 -370 -125h-576zM373 168h352q356 0 432 371q19 92 19 206q0 504 -345 570q-51 10 -106 10h-352v-1157z" />
    <glyph glyph-name="E" unicode="E" horiz-adv-x="1366" 
d="M375 680v-512h880v-168h-1071v1493h1035v-168h-844v-477h813v-168h-813z" />
    <glyph glyph-name="F" unicode="F" horiz-adv-x="1251" 
d="M375 680v-680h-191v1493h1002v-168h-811v-477h712v-168h-712z" />
    <glyph glyph-name="G" unicode="G" horiz-adv-x="1593" 
d="M1452 788v-796h-121l-47 198q-213 -237 -510 -237q-313 0 -506 233q-178 213 -178 545q0 361 209 586q29 31 61 57q175 144 447 144q367 0 532 -242q68 -100 93 -236h-195q-43 201 -238 275q-86 35 -194 35q-270 0 -416 -213q-108 -160 -108 -396q0 -258 125 -430l32 -39
q135 -147 377 -151q234 0 369 164q100 123 100 295v41h-455v167h623z" />
    <glyph glyph-name="H" unicode="H" horiz-adv-x="1478" 
d="M1128 680h-766v-680h-192v1493h190v-645h768v645h191v-1493h-191v680z" />
    <glyph glyph-name="I" unicode="I" horiz-adv-x="569" 
d="M397 1493v-1493h-192v1493h192z" />
    <glyph glyph-name="J" unicode="J" horiz-adv-x="1024" 
d="M682 1493h190v-1120q0 -254 -184 -363q-100 -57 -237 -57q-254 0 -361 176q-55 92 -55 219v131h194v-96q0 -227 166 -264l58 -6q118 0 182 92q47 69 47 237v1051z" />
    <glyph glyph-name="K" unicode="K" horiz-adv-x="1366" 
d="M352 522v-522h-190v1493h190v-756l744 756h245l-608 -608l615 -885h-226l-526 766z" />
    <glyph glyph-name="L" unicode="L" 
d="M354 1493v-1325h738v-168h-928v1493h190z" />
    <glyph glyph-name="M" unicode="M" horiz-adv-x="1705" 
d="M958 0h-200l-424 1251v-1251h-180v1493h264l442 -1300l434 1300h265v-1493h-181v1251z" />
    <glyph glyph-name="N" unicode="N" horiz-adv-x="1478" 
d="M1323 1493v-1493h-215l-772 1210v-1210h-180v1493h206l781 -1221v1221h180z" />
    <glyph glyph-name="O" unicode="O" horiz-adv-x="1593" 
d="M797 1518q356 0 555 -252l2 -2l4 -4q123 -162 153 -396q9 -67 9 -141q0 -303 -168 -518q-41 -53 -90 -94q-187 -158 -463 -158q-342 0 -543 240q-178 213 -178 542q0 377 227 596q195 187 492 187zM797 1350q-267 0 -414 -209q-115 -162 -115 -406q0 -323 195 -493
q137 -121 336 -121q264 0 411 205q119 159 119 401q0 338 -201 508q-135 115 -331 115z" />
    <glyph glyph-name="P" unicode="P" horiz-adv-x="1366" 
d="M377 633v-633h-191v1493h617q330 0 426 -242q35 -84 35 -196q0 -199 -129 -316q-119 -106 -289 -106h-469zM377 801h397q209 0 270 151q21 47 21 111q0 184 -162 242h-2q-55 20 -127 20h-397v-524z" />
    <glyph glyph-name="Q" unicode="Q" horiz-adv-x="1593" 
d="M1501 -2l-96 -119l-215 178q-176 -104 -391 -104q-342 0 -543 240q-178 213 -178 542q0 377 227 596q197 187 494 187q340 0 540 -238q181 -211 181 -541q0 -352 -211 -583zM985 420l182 -150q162 183 162 467q0 322 -192 492q-140 121 -338 121q-269 0 -416 -209
q-115 -162 -115 -406q0 -325 195 -495q137 -119 334 -119q69 0 245 57l-114 -43q53 15 114 43l-151 127z" />
    <glyph glyph-name="R" unicode="R" horiz-adv-x="1478" 
d="M381 643v-643h-191v1493h689q348 0 432 -246q22 -67 22 -153q0 -201 -147 -306q-39 -26 -88 -51q127 -55 166 -137q34 -76 36 -252q5 -196 39 -252q19 -26 52 -49v-47h-232q-43 98 -43 244l2 133q0 223 -164 258q-36 8 -82 8h-491zM381 811h461q248 0 284 176q9 35 9 80
q0 135 -78 201q-66 57 -215 57h-461v-514z" />
    <glyph glyph-name="S" unicode="S" horiz-adv-x="1366" 
d="M1221 1055h-181q-2 227 -225 286q-65 17 -147 17q-213 0 -297 -127v0q-37 -55 -37 -125q0 -115 110 -172q52 -27 136 -49l374 -101q246 -67 303 -266q15 -51 15 -108v-29q-12 -172 -137 -291l-27 -22q-150 -115 -420 -115q-346 0 -502 213q-86 117 -88 309h181
q-3 -133 77 -229q105 -125 344 -125q183 0 275 63q92 66 104 181q2 6 2 14v12q0 156 -225 227q-22 9 -49 15l-371 98q-291 76 -293 348q0 254 213 369q131 70 318 70q360 0 489 -228q58 -100 58 -235z" />
    <glyph glyph-name="T" unicode="T" horiz-adv-x="1251" 
d="M725 1325v-1325h-190v1325h-492v168h1171v-168h-489z" />
    <glyph glyph-name="U" unicode="U" horiz-adv-x="1478" 
d="M1130 1493h191v-1049q0 -266 -213 -399q-147 -92 -363 -92q-337 0 -487 207q-82 116 -84 284v1049h191v-1049q0 -161 108 -245q109 -78 272 -78q252 0 345 162q38 67 40 161v1049z" />
    <glyph glyph-name="V" unicode="V" horiz-adv-x="1366" 
d="M803 0h-205l-537 1493h205l439 -1264l413 1264h203z" />
    <glyph glyph-name="W" unicode="W" horiz-adv-x="1933" 
d="M1524 0h-209l-344 1227l-334 -1227h-209l-383 1493h213l281 -1212l331 1212h205l340 -1212l275 1212h213z" />
    <glyph glyph-name="X" unicode="X" horiz-adv-x="1366" 
d="M801 766l528 -766h-235l-408 623l-410 -623h-231l528 766l-495 727h231l383 -586l385 586h228z" />
    <glyph glyph-name="Y" unicode="Y" horiz-adv-x="1366" 
d="M793 586v-586h-191v586l-575 907h235l438 -727l426 727h228z" />
    <glyph glyph-name="Z" unicode="Z" horiz-adv-x="1251" 
d="M1190 1493v-172l-893 -1153h897v-168h-1137v168l897 1157h-839v168h1075z" />
    <glyph glyph-name="bracketleft" unicode="[" horiz-adv-x="569" 
d="M512 1493v-147h-211v-1633h211v-147h-381v1927h381z" />
    <glyph glyph-name="backslash" unicode="\" horiz-adv-x="569" 
d="M96 1493l486 -1534h-113l-485 1534h112z" />
    <glyph glyph-name="bracketright" unicode="]" horiz-adv-x="569" 
d="M47 -434v147h211v1633h-211v147h381v-1927h-381z" />
    <glyph glyph-name="asciicircum" unicode="^" horiz-adv-x="960" 
d="M403 1452h150l317 -778h-141l-250 614l-248 -614h-141z" />
    <glyph glyph-name="underscore" unicode="_" 
d="M1184 -258v-102h-1229v102h1229z" />
    <glyph glyph-name="grave" unicode="`" horiz-adv-x="681" 
d="M276 1516l197 -304h-123l-305 304h231z" />
    <glyph glyph-name="a" unicode="a" 
d="M1096 100v-129q-60 -16 -95 -18h-2h-20q-145 0 -172 129l-4 29q-58 -54 -113 -86q-115 -72 -252 -72q-225 0 -313 153q-39 70 -39 164q0 209 188 287l23 8l70 21q18 4 39 8q61 10 212 29q150 18 173 77v2v3l6 36v45q0 132 -166 156q-35 4 -74 4q-211 0 -246 -153
q-4 -19 -6 -37h-172q6 147 74 223q112 125 356 125q361 0 400 -238q4 -24 4 -55v-631q0 -84 92 -84h4q12 0 22 2h2zM797 338v192l-21 -8q-33 -14 -78 -24l-176 -27q-217 -31 -250 -141l-8 -54v-2q0 -133 137 -163q33 -9 74 -9q148 0 254 97q27 24 43 47q25 37 25 92z" />
    <glyph glyph-name="b" unicode="b" 
d="M111 1493h170v-565q116 176 331 176q262 0 383 -221q76 -140 76 -342q0 -330 -186 -488q-117 -100 -281 -100q-219 0 -340 184v-137h-153v1493zM580 944q-170 0 -250 -172q-49 -100 -49 -244q0 -256 141 -362q67 -53 158 -53q172 0 258 161q55 105 55 248q0 260 -148 369
q-67 51 -165 53z" />
    <glyph glyph-name="c" unicode="c" horiz-adv-x="1024" 
d="M965 713h-172q-27 198 -199 229q-16 2 -55 4q-193 0 -265 -205q-32 -94 -32 -223q0 -280 161 -373q60 -34 140 -34q219 0 262 258h172q-23 -281 -236 -375q-88 -41 -202 -41q-265 0 -392 215q-84 141 -84 350q0 328 189 486q121 100 289 100q217 0 336 -139l16 -21
q59 -88 72 -231z" />
    <glyph glyph-name="d" unicode="d" 
d="M1014 1493v-1493h-152v141q-119 -170 -295 -186q-22 -2 -47 -2q-266 0 -389 229q-78 144 -78 357q0 315 183 469q116 96 278 96q221 0 330 -166v555h170zM543 944q-174 0 -258 -168q-41 -78 -52 -182q-2 -31 -2 -66q0 -249 144 -360q74 -55 170 -55q168 0 248 166
q51 102 51 245q0 269 -148 373q-67 47 -153 47z" />
    <glyph glyph-name="e" unicode="e" 
d="M1051 479h-791q2 -147 57 -229q89 -139 258 -139q209 0 281 215h172q-45 -248 -258 -336q-90 -37 -201 -37q-278 0 -407 225q-80 139 -80 344q0 324 192 482q123 100 299 100q236 0 369 -168q41 -51 66 -115q43 -110 43 -342zM264 618h602l2 13q0 164 -120 256
q-78 59 -177 59q-174 0 -258 -153q-41 -74 -49 -175z" />
    <glyph glyph-name="f" unicode="f" horiz-adv-x="569" 
d="M528 1073v-139h-178v-934h-170v934h-143v139h143v182q0 181 152 230q45 14 100 14l41 -2l55 -8v-141l-51 2h-8q-117 0 -119 -109v-168h178z" />
    <glyph glyph-name="g" unicode="g" 
d="M844 1073h157v-897q0 -315 -83 -446l-29 -39q-98 -123 -322 -135q-22 -2 -45 -2q-282 0 -385 180q-35 63 -43 143h174q13 -78 60 -119l6 -4q74 -57 194 -57q166 0 238 100q61 84 61 293v55l-14 -18q-119 -160 -274 -172q-19 -2 -37 -2h-19q-170 10 -288 143
q-136 156 -136 422q0 309 170 471q119 115 287 115q201 0 328 -186v155zM535 946q-181 0 -256 -184q-41 -96 -41 -234q0 -284 159 -381q60 -36 140 -36q182 0 254 188q36 94 36 223q0 307 -168 396q-55 28 -124 28z" />
    <glyph glyph-name="h" unicode="h" 
d="M143 1493h170v-567l37 43q109 123 262 133l45 2q226 0 306 -152q32 -61 32 -141v-811h-170v743q0 113 -69 162q-66 49 -152 49q-172 0 -248 -157q-43 -86 -43 -205v-592h-170v1493z" />
    <glyph glyph-name="i" unicode="i" horiz-adv-x="454" 
d="M307 1073v-1073h-170v1073h170zM307 1493v-215h-172v215h172z" />
    <glyph glyph-name="j" unicode="j" horiz-adv-x="454" 
d="M143 1073h170v-1296q0 -211 -262 -223h-31l-36 2l-21 4v145l39 -2h2q107 0 129 66q10 28 10 75v1229zM313 1493v-215h-170v215h170z" />
    <glyph glyph-name="k" unicode="k" horiz-adv-x="1024" 
d="M289 1493v-875l454 455h220l-373 -371l438 -702h-211l-362 582l-166 -164v-418h-170v1493h170z" />
    <glyph glyph-name="l" unicode="l" horiz-adv-x="454" 
d="M311 1493v-1493h-172v1493h172z" />
    <glyph glyph-name="m" unicode="m" horiz-adv-x="1705" 
d="M143 1073h158v-151q111 155 262 178q19 2 41 4h27q182 0 270 -133q10 -15 19 -31l59 64q104 98 270 100q250 0 301 -201q11 -45 11 -98v-805h-172v739q0 166 -129 205q-33 10 -70 10q-125 0 -201 -110q-51 -74 -51 -170v-674h-172v739q0 179 -145 209l-54 6
q-127 0 -202 -114q-50 -72 -50 -166v-674h-172v1073z" />
    <glyph glyph-name="n" unicode="n" 
d="M143 1073h158v-180q111 174 266 203q41 8 90 8q213 0 299 -141q39 -64 41 -152v-811h-170v743q0 142 -118 193q-45 18 -103 18q-172 0 -248 -157q-43 -86 -43 -205v-592h-172v1073z" />
    <glyph glyph-name="o" unicode="o" 
d="M557 1104q311 0 428 -264q59 -133 59 -320q0 -342 -208 -487q-115 -80 -277 -80q-295 0 -418 244q-67 135 -67 331q0 357 215 500q112 76 268 76zM559 946q-190 0 -268 -188q-39 -96 -39 -230q0 -280 160 -378q63 -39 147 -39q184 0 264 180q43 96 43 231q0 297 -168 391
q-61 33 -139 33z" />
    <glyph glyph-name="p" unicode="p" 
d="M111 -446v1519h157v-162q121 193 342 193q260 0 383 -227q78 -146 78 -359q0 -315 -182 -469q-80 -67 -187 -88q-43 -8 -90 -8q-198 0 -329 160v-559h-172zM582 944q-170 0 -250 -172q-49 -100 -49 -244q0 -256 141 -362q68 -53 158 -53q172 0 256 161q55 105 55 248
q0 260 -145 369q-72 53 -166 53z" />
    <glyph glyph-name="q" unicode="q" 
d="M1014 -446h-170v569q-117 -170 -332 -170q-262 0 -383 221q-76 139 -76 342q0 330 187 488q116 100 280 100q219 0 342 -174v143h152v-1519zM545 944q-172 0 -258 -166q-56 -102 -56 -250q0 -249 144 -360q74 -55 170 -55q168 0 250 166q49 102 49 243q0 269 -146 373
q-67 49 -153 49z" />
    <glyph glyph-name="r" unicode="r" horiz-adv-x="681" 
d="M141 1073h158v-194q51 84 100 135q86 90 193 90h22l43 -6v-174q-147 -2 -211 -45q-4 -2 -8 -5l-4 -4q-121 -88 -121 -313v-557h-172v1073z" />
    <glyph glyph-name="s" unicode="s" horiz-adv-x="1024" 
d="M897 774h-180q-6 172 -215 172q-168 0 -215 -100q-13 -27 -13 -62q0 -92 136 -137l63 -16l164 -39q242 -57 289 -201q14 -43 14 -98q0 -197 -184 -287q-107 -53 -258 -53q-398 0 -426 332l-2 34h180q12 -96 49 -137q68 -71 213 -71q172 0 229 96q21 31 21 72
q0 94 -111 133q-18 6 -39 12h-2l-14 4l-160 39q-243 59 -307 164q-18 33 -27 76l-6 69q0 191 172 277q101 51 240 51q297 0 369 -207q20 -55 20 -123z" />
    <glyph glyph-name="t" unicode="t" horiz-adv-x="569" 
d="M520 1073v-139h-176v-735q0 -78 45 -90l49 -7q51 0 82 9v-144q-80 -14 -139 -14q-182 0 -205 137l-2 33v811h-145v139h145v295h170v-295h176z" />
    <glyph glyph-name="u" unicode="u" 
d="M987 0h-153v150q-115 -162 -267 -189q-41 -8 -92 -8q-219 0 -303 143q-39 64 -39 150v827h170v-760q0 -143 121 -192q43 -19 100 -19q174 0 252 160q41 86 41 203v608h170v-1073z" />
    <glyph glyph-name="v" unicode="v" horiz-adv-x="1024" 
d="M584 0h-187l-377 1073h193l287 -870l303 870h192z" />
    <glyph glyph-name="w" unicode="w" horiz-adv-x="1478" 
d="M1135 0h-195l-217 842l-207 -842h-192l-312 1073h189l219 -835l205 835h209l210 -835l213 835h193z" />
    <glyph glyph-name="x" unicode="x" horiz-adv-x="1024" 
d="M598 555l371 -555h-199l-268 412l-273 -412h-194l379 547l-359 526h195l258 -389l258 389h192z" />
    <glyph glyph-name="y" unicode="y" horiz-adv-x="1024" 
d="M795 1073h184l-477 -1298l-8 -19v-2q-41 -100 -109 -149q-53 -39 -123 -49q-18 -2 -37 -2q-63 0 -114 26v154q55 -13 90 -13q92 0 129 82l8 23l65 170l-362 1077h182l275 -835z" />
    <glyph glyph-name="z" unicode="z" horiz-adv-x="1024" 
d="M907 1073v-151l-637 -772h666v-150h-873v154l642 770h-599v149h801z" />
    <glyph glyph-name="braceleft" unicode="{" horiz-adv-x="684" 
d="M565 1493v-133h-30q-97 0 -119 -55v0q-10 -29 -10 -82v-371q0 -201 -84 -272l-3 -2q-20 -19 -47 -31l-34 -17q168 -77 168 -323v-371q0 -102 51 -125q26 -12 78 -12h30v-133h-94q-168 0 -211 164q-12 45 -12 104v342q0 191 -72 246q-33 24 -88 37v141q111 23 139 113
q21 57 21 170v342q0 209 145 256q37 12 78 12h94z" />
    <glyph glyph-name="bar" unicode="|" horiz-adv-x="532" 
d="M205 1493h123v-1927h-123v1927z" />
    <glyph glyph-name="braceright" unicode="}" horiz-adv-x="684" 
d="M59 -434v133h33q98 0 121 55q8 23 10 82v371q0 246 168 321q-168 78 -168 324v371q0 102 -53 125q-27 12 -78 12h-33v133h97q170 0 213 -166q12 -45 12 -102v-342q0 -193 74 -248q30 -25 82 -35v-141q-107 -23 -138 -117q-18 -57 -18 -166v-342q0 -211 -150 -258
q-34 -10 -75 -10h-97z" />
    <glyph glyph-name="asciitilde" unicode="~" horiz-adv-x="1196" 
d="M932 842h108v-33q0 -174 -116 -236q-43 -24 -99 -24q-43 0 -92 18q-39 13 -74 35l-200 129l-15 8h-2l-28 11l-43 10q-60 0 -92 -72q-11 -26 -17 -88h-108q14 268 186 295l35 2l37 -4q37 -8 73 -29l240 -141q57 -35 102 -35q91 0 103 100z" />
    <glyph glyph-name="nonbreakingspace" unicode="&#xa0;" horiz-adv-x="569" 
 />
    <glyph glyph-name="exclamdown" unicode="&#xa1;" horiz-adv-x="681" 
d="M250 -420v692l45 457h80l45 -457v-692h-170zM248 860v213h172v-213h-172z" />
    <glyph glyph-name="cent" unicode="&#xa2;" 
d="M639 946v-837q197 20 233 260h172q-14 -254 -204 -361q-88 -49 -201 -55v-199h-86v201q-264 22 -379 252q-68 131 -68 311q0 334 201 490q105 79 246 94v184h86v-182q279 -19 365 -242q24 -67 28 -149h-172q-18 172 -158 221q-28 10 -63 12zM553 113v831
q-266 -49 -268 -426q0 -282 174 -375q43 -22 94 -30z" />
    <glyph glyph-name="sterling" unicode="&#xa3;" 
d="M750 770v-113h-279q31 -88 31 -145l-2 -37q-17 -110 -172 -280l-68 -70q121 80 250 80l43 -2q47 -4 125 -29q113 -33 162 -33q82 0 170 62l86 -135l-19 -17q-108 -98 -250 -98l-34 2q-78 4 -265 70l-67 16l-68 6q-108 0 -223 -76l-98 135q200 173 241 295q15 45 15 97
q0 39 -13 80q-14 40 -36 79h-226v113h166q-90 150 -102 211l-6 74q0 202 163 331q136 107 324 107q231 0 358 -152l35 -51q56 -94 58 -272h-181q-8 315 -278 315q-182 0 -256 -129q-33 -57 -33 -133l4 -59q6 -35 27 -78l57 -107l25 -43l2 -2l2 -6l2 -2l2 -4h328z" />
    <glyph glyph-name="currency" unicode="&#xa4;" 
d="M993 389l-119 -110l-108 108q-82 -61 -205 -61l-37 2q-90 8 -155 49l-105 -105l-114 117l98 100q-51 68 -64 164q-2 23 -2 45l2 37q11 99 64 172l-111 113l115 108l113 -112q90 53 198 53q119 0 201 -57l121 108l116 -119l-112 -112q37 -58 49 -137q4 -27 4 -54
q0 -102 -59 -198zM561 911q-117 0 -180 -96l-2 -2q-35 -53 -35 -117q0 -112 96 -176q56 -37 123 -37q113 0 178 92q39 54 39 119q0 119 -98 183q-55 34 -121 34z" />
    <glyph glyph-name="yen" unicode="&#xa5;" 
d="M1014 725v-104h-348v-158h348v-105h-348v-358h-181v358h-352v105h352v158h-352v104h309l-419 727h174l378 -659l367 659h174l-411 -727h309z" />
    <glyph glyph-name="brokenbar" unicode="&#xa6;" horiz-adv-x="532" 
d="M205 1493h123v-821h-123v821zM205 387h123v-821h-123v821z" />
    <glyph glyph-name="section" unicode="&#xa7;" 
d="M950 1073h-172v19v34q0 146 -112 193q-37 16 -86 16q-111 0 -160 -88l-2 -2v0q-19 -35 -21 -84q0 -45 117 -157l-86 71q12 -14 31 -31l55 -40l299 -193q59 -39 100 -74q115 -100 123 -241v-27q0 -236 -223 -319q66 -74 88 -132q21 -47 21 -110q0 -174 -146 -275
q-102 -69 -237 -69q-205 0 -312 141q-30 41 -47 90l-12 45q-10 39 -10 131h174q0 -110 37 -159q59 -91 172 -91q131 0 178 97q18 35 18 80q0 94 -90 163v0l-22 17l-349 239q-172 119 -186 285q-2 16 -2 37q0 172 162 276q22 15 53 31q-43 49 -63 92q-27 52 -27 117
q0 162 139 262q103 76 240 76q203 0 301 -152q57 -88 57 -211v-40v-17zM385 469l340 -252q147 78 149 209q0 125 -149 229l-330 224q-57 -37 -88 -70q-57 -57 -57 -137q0 -64 29 -105q26 -39 106 -98z" />
    <glyph glyph-name="dieresis" unicode="&#xa8;" horiz-adv-x="681" 
d="M274 1464v-211h-213v211h213zM606 1464v-211h-213v211h213z" />
    <glyph glyph-name="copyright" unicode="&#xa9;" horiz-adv-x="1509" 
d="M1114 895h-145q-41 158 -144 184q-24 6 -57 6q-154 0 -219 -155q-37 -82 -37 -197q0 -162 74 -254q53 -69 139 -90q23 -4 43 -4q168 0 213 233l4 21h145l-12 -61q-26 -111 -71 -177q-101 -143 -279 -143q-207 0 -317 174q-80 123 -80 299q0 268 164 399q100 82 239 82
q246 0 326 -264l2 -2q6 -24 12 -51zM756 1520q309 0 534 -211q221 -207 246 -508q2 -29 2 -62q0 -317 -217 -542q-211 -222 -524 -240l-52 -2q-296 0 -520 209q-219 207 -248 500q-4 34 -4 73q0 310 211 535q209 221 510 246zM756 1393q-264 0 -453 -191
q-188 -190 -190 -465q0 -266 186 -458q182 -191 449 -197q276 0 464 194q187 191 187 463q0 269 -189 461q-186 191 -454 193z" />
    <glyph glyph-name="ordfeminine" unicode="&#xaa;" horiz-adv-x="757" 
d="M655 725v-104h-567v104h567zM682 920v-91l-37 -10h-4l-2 -2h-2h-2h-19q-90 0 -110 76l-2 12q-101 -88 -215 -88q-152 0 -199 115q-14 37 -14 82q0 127 117 178l20 8q76 21 184 29q88 6 99 45v2v2v2l2 16v27q0 88 -138 90q-96 0 -122 -57q-11 -23 -17 -58h-121
q6 211 242 222h23q247 0 249 -193v-366q0 -48 48 -48zM498 1059v104h-2l-37 -12v0l-117 -21q-129 -16 -145 -81v-2v-3v-2v-2v-2l-2 -2v-16q0 -86 116 -96q107 0 162 71l2 2q23 29 23 62z" />
    <glyph glyph-name="guillemotleft" unicode="&#xab;" 
d="M201 465v182l311 250v-170l-217 -170l217 -170v-170zM621 465v182l311 250v-170l-217 -170l217 -170v-170z" />
    <glyph glyph-name="logicalnot" unicode="&#xac;" horiz-adv-x="1196" 
d="M82 768h1032v-592h-143v449h-889v143z" />
    <glyph glyph-name="softhyphen" unicode="&#xad;" horiz-adv-x="681" 
d="M582 639v-147h-488v147h488z" />
    <glyph glyph-name="registered" unicode="&#xae;" horiz-adv-x="1509" 
d="M557 666v-379h-143v911h422q286 0 288 -258q0 -100 -61 -162l-2 -2l-47 -39l24 -16q31 -23 43 -51q23 -41 25 -162q2 -125 29 -154l6 -6l10 -8l2 -2v-51h-162q-30 69 -30 157l2 82q0 121 -95 138h-2l-35 2h-274zM557 795h264q144 0 154 137q0 119 -107 133q0 2 -2 2
q-20 2 -45 2h-264v-274zM756 1520q309 0 534 -211q221 -207 246 -508q2 -29 2 -62q0 -317 -217 -542q-211 -222 -524 -240l-52 -2q-296 0 -520 209q-219 207 -248 500q-4 34 -4 73q0 310 211 535q209 221 510 246zM756 1393q-264 0 -453 -191q-188 -190 -190 -465
q0 -266 186 -458q182 -191 449 -197q276 0 464 194q187 191 187 463q0 269 -189 461q-186 191 -454 193z" />
    <glyph glyph-name="macron" unicode="&#xaf;" horiz-adv-x="681" 
d="M618 1436v-144h-561v144h561z" />
    <glyph glyph-name="degree" unicode="&#xb0;" horiz-adv-x="1241" 
d="M621 1405q151 0 243 -121q64 -82 66 -188q0 -156 -123 -248q-84 -64 -191 -64q-147 0 -241 121q-66 84 -66 191q0 151 123 245q82 64 189 64zM621 1288q-107 0 -164 -90q-31 -47 -31 -102q0 -105 90 -164q47 -31 100 -31q113 0 168 94q29 45 29 101q0 106 -90 164
q-47 28 -102 28z" />
    <glyph glyph-name="plusminus" unicode="&#xb1;" horiz-adv-x="1196" 
d="M1094 852v-143h-424v-424h-144v424h-424v143h424v424h144v-424h424zM1094 121v-144h-992v144h992z" />
    <glyph glyph-name="twosuperior" unicode="&#xb2;" horiz-adv-x="718" 
d="M662 700v-118h-623q8 176 88 262q31 33 78 65q2 2 6 2q37 27 88 54l119 63q119 64 121 162q0 92 -88 135q-39 18 -86 18q-105 0 -152 -79q-20 -35 -27 -123h-127q9 297 283 311h27q178 0 258 -121v0v0q24 -35 32 -76q9 -28 9 -61q0 -166 -197 -264l-129 -66l-41 -24
q-80 -52 -108 -140h469z" />
    <glyph glyph-name="threesuperior" unicode="&#xb3;" horiz-adv-x="718" 
d="M276 975v104q175 0 209 54q17 24 17 71q0 105 -101 133q-24 6 -55 6q-108 0 -147 -71q-19 -35 -19 -111h-129q6 291 295 291q197 0 262 -135q23 -47 23 -111q0 -121 -117 -174q143 -47 145 -205q0 -168 -145 -237q-74 -37 -172 -37q-231 0 -291 176q-18 49 -18 115h127
q8 -160 137 -178l49 -4q148 0 178 114l6 51q0 95 -81 131q-17 9 -37 13z" />
    <glyph glyph-name="acute" unicode="&#xb4;" horiz-adv-x="681" 
d="M385 1516h231l-305 -304h-123z" />
    <glyph glyph-name="mu" unicode="&#xb5;" 
d="M1114 100v-129q-55 -14 -88 -16q-12 -2 -29 -2q-161 0 -174 149q-2 11 -2 21q-121 -170 -334 -170q-110 0 -184 53v-457h-170v1524h170v-760q0 -143 119 -192q45 -19 100 -19q174 0 252 160q41 86 41 203v608h170v-893q0 -84 92 -84z" />
    <glyph glyph-name="paragraph" unicode="&#xb6;" horiz-adv-x="1099" 
d="M1069 1493v-131h-117v-1724h-131v1724h-168v-1724h-131v892q-157 9 -256 91q-149 124 -166 340q-2 18 -2 40q0 230 158 375q127 117 301 117h512z" />
    <glyph glyph-name="periodcentered" unicode="&#xb7;" horiz-adv-x="569" 
d="M432 874v-256h-254v256h254z" />
    <glyph glyph-name="cedilla" unicode="&#xb8;" horiz-adv-x="681" 
d="M338 0h78l-47 -115l51 4h6q143 0 160 -112l2 -25q0 -129 -135 -174q-52 -16 -117 -16l-64 4q-49 6 -118 35l-74 30l43 82l18 -8q101 -51 148 -57l35 -2q77 0 104 59q6 14 6 33q0 67 -94 76l-33 -4l-31 -13l-24 15z" />
    <glyph glyph-name="onesuperior" unicode="&#xb9;" horiz-adv-x="718" 
d="M328 1188h-203v94l31 2q125 12 161 53q25 29 45 97l5 18h88v-870h-127v606z" />
    <glyph glyph-name="ordmasculine" unicode="&#xba;" horiz-adv-x="747" 
d="M643 725v-104h-539v104h539zM373 1520q221 0 274 -217q17 -62 17 -140q0 -243 -162 -319q-56 -27 -129 -27q-207 0 -269 195q-22 67 -22 157q0 258 172 328q53 23 119 23zM373 1413q-121 0 -160 -137v-2v-2q-12 -45 -12 -103q0 -190 112 -235q29 -10 60 -10
q121 0 159 137v0v4q11 35 13 78v22q0 197 -117 240q-27 8 -55 8z" />
    <glyph glyph-name="guillemotright" unicode="&#xbb;" 
d="M516 649v-182l-315 -250v170l221 170l-221 170v170zM924 649v-182l-316 -250v170l221 170l-221 170v170z" />
    <glyph glyph-name="onequarter" unicode="&#xbc;" horiz-adv-x="1779" 
d="M328 1188h-203v94l31 2q125 12 161 53q25 29 45 97l5 18h88v-870h-127v606zM1317 1452h119l-926 -1493h-119zM1475 205h-385v121l417 544h95v-557h137v-108h-137v-205h-127v205zM1475 313v349l-265 -349h265z" />
    <glyph glyph-name="onehalf" unicode="&#xbd;" horiz-adv-x="1779" 
d="M328 1188h-203v94l31 2q125 12 161 53q25 29 45 97l5 18h88v-870h-127v606zM1268 1452h118l-925 -1493h-119zM1722 119v-119h-622q8 176 88 262q31 35 84 68v2l2 2l86 49l119 63q118 64 120 162q0 92 -88 135q-38 19 -86 19q-104 0 -151 -80q-21 -35 -27 -123h-127
q8 297 283 311h27q178 0 258 -120l2 -2q39 -60 39 -136q0 -166 -197 -264l-129 -65l-41 -25q-80 -51 -109 -139h469z" />
    <glyph glyph-name="threequarters" unicode="&#xbe;" horiz-adv-x="1779" 
d="M276 975v104q175 0 209 54q17 24 17 71q0 105 -101 133q-24 6 -55 6q-108 0 -147 -71q-19 -35 -19 -111h-129q6 291 295 291q197 0 262 -135q23 -47 23 -111q0 -121 -117 -174q143 -47 145 -205q0 -168 -145 -237q-74 -37 -172 -37q-231 0 -291 176q-18 49 -18 115h127
q8 -160 137 -178l49 -4q148 0 178 114l6 51q0 95 -81 131q-17 9 -37 13zM1337 1452h119l-926 -1493h-118zM1475 205h-385v121l417 544h95v-557h137v-108h-137v-205h-127v205zM1475 313v349l-265 -349h265z" />
    <glyph glyph-name="questiondown" unicode="&#xbf;" horiz-adv-x="1251" 
d="M563 666h185v-113q0 -78 -29 -131l-29 -47l-22 -27l-6 -8l-39 -39l-2 -2l-89 -80q-86 -76 -122 -145q-31 -58 -31 -125q0 -144 125 -205q55 -27 139 -29q168 0 229 119q35 70 35 201h174q0 -432 -368 -475l-80 -4q-264 0 -377 174q-59 90 -61 219q0 100 43 178
q43 82 161 188q127 115 150 166q10 23 12 49l2 39v97zM563 860v213h185v-213h-185z" />
    <glyph glyph-name="Agrave" unicode="&#xc0;" horiz-adv-x="1366" 
d="M971 449h-576l-157 -449h-203l532 1493h246l524 -1493h-213zM918 608l-230 680l-246 -680h476zM623 1923l196 -303h-123l-305 303h232z" />
    <glyph glyph-name="Aacute" unicode="&#xc1;" horiz-adv-x="1366" 
d="M971 449h-576l-157 -449h-203l532 1493h246l524 -1493h-213zM918 608l-230 680l-246 -680h476zM758 1923h231l-305 -303h-123z" />
    <glyph glyph-name="Acircumflex" unicode="&#xc2;" horiz-adv-x="1366" 
d="M971 449h-576l-157 -449h-203l532 1493h246l524 -1493h-213zM918 608l-230 680l-246 -680h476zM590 1925h194l197 -307h-129l-166 197l-162 -197h-131z" />
    <glyph glyph-name="Atilde" unicode="&#xc3;" horiz-adv-x="1366" 
d="M971 449h-576l-157 -449h-203l532 1493h246l524 -1493h-213zM918 608l-230 680l-246 -680h476zM889 1876h119q-31 -213 -183 -213h-16q-18 2 -41 8l-117 43q-71 27 -100 27q-47 0 -68 -76h-118q32 190 153 209q10 2 23 2l32 -2q9 0 19 -4h2l90 -33l25 -10q67 -27 104 -27
q51 0 76 76z" />
    <glyph glyph-name="Adieresis" unicode="&#xc4;" horiz-adv-x="1366" 
d="M971 449h-576l-157 -449h-203l532 1493h246l524 -1493h-213zM918 608l-230 680l-246 -680h476zM627 1872v-211h-213v211h213zM958 1872v-211h-213v211h213z" />
    <glyph glyph-name="Aring" unicode="&#xc5;" horiz-adv-x="1366" 
d="M971 449h-576l-157 -449h-203l532 1493h246l524 -1493h-213zM918 608l-230 680l-246 -680h476zM686 1952q102 0 156 -88v0q24 -41 24 -92q0 -101 -88 -154q-43 -25 -92 -25q-98 0 -154 86q-26 43 -26 95q0 96 86 151q43 27 94 27zM686 1862q-59 0 -84 -56l-6 -32
q0 -60 55 -82l35 -9q59 0 84 56l6 33q0 63 -57 83q-17 7 -33 7z" />
    <glyph glyph-name="AE" unicode="&#xc6;" horiz-adv-x="2048" 
d="M958 438h-550l-175 -438h-210l612 1493h1274v-168h-760v-477h721v-168h-721v-512h797v-168h-988v438zM958 606v719h-204l-283 -719h487z" />
    <glyph glyph-name="Ccedilla" unicode="&#xc7;" horiz-adv-x="1478" 
d="M776 -47l-26 -68l51 4h6q143 0 160 -112l2 -25q0 -129 -135 -174q-52 -16 -117 -16l-58 4q-67 8 -198 65l43 82l18 -8q103 -51 154 -57l29 -2q77 0 104 59q6 14 6 33q0 67 -94 76l-33 -4l-31 -13l-22 15l63 141q-166 24 -249 72l-56 34q-223 160 -278 486q-17 88 -17 184
q0 365 199 592l10 10q168 187 473 187q488 0 576 -488h-195q-31 154 -108 225q-95 88 -293 95q-264 0 -389 -236q-82 -153 -82 -383q0 -352 196 -514q121 -98 289 -98q223 0 328 157q12 17 20 35q45 88 68 234h196q-67 -592 -610 -592z" />
    <glyph glyph-name="Egrave" unicode="&#xc8;" horiz-adv-x="1366" 
d="M375 680v-512h880v-168h-1071v1493h1035v-168h-844v-477h813v-168h-813zM655 1923l197 -303h-123l-305 303h231z" />
    <glyph glyph-name="Eacute" unicode="&#xc9;" horiz-adv-x="1366" 
d="M375 680v-512h880v-168h-1071v1493h1035v-168h-844v-477h813v-168h-813zM750 1923h231l-305 -303h-123z" />
    <glyph glyph-name="Ecircumflex" unicode="&#xca;" horiz-adv-x="1366" 
d="M375 680v-512h880v-168h-1071v1493h1035v-168h-844v-477h813v-168h-813zM608 1925h195l196 -307h-129l-165 197l-162 -197h-131z" />
    <glyph glyph-name="Edieresis" unicode="&#xcb;" horiz-adv-x="1366" 
d="M375 680v-512h880v-168h-1071v1493h1035v-168h-844v-477h813v-168h-813zM645 1872v-211h-213v211h213zM977 1872v-211h-213v211h213z" />
    <glyph glyph-name="Igrave" unicode="&#xcc;" horiz-adv-x="569" 
d="M395 1493v-1493h-190v1493h190zM233 1923l197 -303h-123l-305 303h231z" />
    <glyph glyph-name="Iacute" unicode="&#xcd;" horiz-adv-x="569" 
d="M395 1493v-1493h-190v1493h190zM342 1923h231l-305 -303h-123z" />
    <glyph glyph-name="Icircumflex" unicode="&#xce;" horiz-adv-x="569" 
d="M395 1493v-1493h-190v1493h190zM195 1925h194l197 -307h-129l-166 197l-162 -197h-131z" />
    <glyph glyph-name="Idieresis" unicode="&#xcf;" horiz-adv-x="569" 
d="M395 1493v-1493h-190v1493h190zM231 1858v-211h-213v211h213zM563 1858v-211h-213v211h213z" />
    <glyph glyph-name="Eth" unicode="&#xd0;" horiz-adv-x="1478" 
d="M182 694h-141v137h141v662h578q334 0 493 -270l2 -2q99 -168 109 -410l2 -63q0 -431 -238 -625q-149 -123 -368 -123h-578v694zM373 694v-526h354q365 0 434 391q15 84 15 189q0 489 -330 565q-53 12 -119 12h-354v-494h350v-137h-350z" />
    <glyph glyph-name="Ntilde" unicode="&#xd1;" horiz-adv-x="1478" 
d="M1323 1493v-1493h-215l-772 1210v-1210h-180v1493h206l781 -1221v1221h180zM956 1876h119q-31 -213 -182 -213h-16q-19 2 -41 8l-117 43q-72 27 -101 27q-47 0 -67 -76h-119q33 190 154 209q10 2 22 2l33 -2q8 0 18 -4h3l90 -33l24 -10q68 -27 105 -27q51 0 75 76z" />
    <glyph glyph-name="Ograve" unicode="&#xd2;" horiz-adv-x="1593" 
d="M797 1518q356 0 555 -252l2 -2l4 -4q123 -162 153 -396q9 -67 9 -141q0 -303 -168 -518q-41 -53 -90 -94q-187 -158 -463 -158q-342 0 -543 240q-178 213 -178 542q0 377 227 596q195 187 492 187zM797 1350q-267 0 -414 -209q-115 -162 -115 -406q0 -323 195 -493
q137 -121 336 -121q264 0 411 205q119 159 119 401q0 338 -201 508q-135 115 -331 115zM735 1923l197 -303h-123l-305 303h231z" />
    <glyph glyph-name="Oacute" unicode="&#xd3;" horiz-adv-x="1593" 
d="M797 1518q356 0 555 -252l2 -2l4 -4q123 -162 153 -396q9 -67 9 -141q0 -303 -168 -518q-41 -53 -90 -94q-187 -158 -463 -158q-342 0 -543 240q-178 213 -178 542q0 377 227 596q195 187 492 187zM797 1350q-267 0 -414 -209q-115 -162 -115 -406q0 -323 195 -493
q137 -121 336 -121q264 0 411 205q119 159 119 401q0 338 -201 508q-135 115 -331 115zM856 1923h231l-305 -303h-123z" />
    <glyph glyph-name="Ocircumflex" unicode="&#xd4;" horiz-adv-x="1593" 
d="M797 1518q356 0 555 -252l2 -2l4 -4q123 -162 153 -396q9 -67 9 -141q0 -303 -168 -518q-41 -53 -90 -94q-187 -158 -463 -158q-342 0 -543 240q-178 213 -178 542q0 377 227 596q195 187 492 187zM797 1350q-267 0 -414 -209q-115 -162 -115 -406q0 -323 195 -493
q137 -121 336 -121q264 0 411 205q119 159 119 401q0 338 -201 508q-135 115 -331 115zM702 1925h195l197 -307h-129l-166 197l-162 -197h-131z" />
    <glyph glyph-name="Otilde" unicode="&#xd5;" horiz-adv-x="1593" 
d="M797 1518q356 0 555 -252l2 -2l4 -4q123 -162 153 -396q9 -67 9 -141q0 -303 -168 -518q-41 -53 -90 -94q-187 -158 -463 -158q-342 0 -543 240q-178 213 -178 542q0 377 227 596q195 187 492 187zM797 1350q-267 0 -414 -209q-115 -162 -115 -406q0 -323 195 -493
q137 -121 336 -121q264 0 411 205q119 159 119 401q0 338 -201 508q-135 115 -331 115zM1008 1876h118q-30 -213 -182 -213h-16q-19 2 -41 8l-117 43q-72 27 -100 27q-47 0 -68 -76h-119q33 190 154 209q10 2 22 2l33 -2q8 0 19 -4h2l90 -33l24 -10q68 -27 105 -27
q51 0 76 76z" />
    <glyph glyph-name="Odieresis" unicode="&#xd6;" horiz-adv-x="1593" 
d="M797 1518q356 0 555 -252l2 -2l4 -4q123 -162 153 -396q9 -67 9 -141q0 -303 -168 -518q-41 -53 -90 -94q-187 -158 -463 -158q-342 0 -543 240q-178 213 -178 542q0 377 227 596q195 187 492 187zM797 1350q-267 0 -414 -209q-115 -162 -115 -406q0 -323 195 -493
q137 -121 336 -121q264 0 411 205q119 159 119 401q0 338 -201 508q-135 115 -331 115zM739 1872v-211h-213v211h213zM1071 1872v-211h-213v211h213z" />
    <glyph glyph-name="multiply" unicode="&#xd7;" horiz-adv-x="1196" 
d="M897 874l100 -102l-299 -299l301 -301l-102 -102l-301 301l-299 -299l-102 100l301 301l-299 299l100 100l299 -297z" />
    <glyph glyph-name="Oslash" unicode="&#xd8;" horiz-adv-x="1593" 
d="M61 39l166 182q-155 217 -155 516q0 377 229 594q195 187 492 187q280 0 471 -166l178 194l82 -73l-183 -199q172 -215 172 -541q0 -377 -229 -594q-194 -186 -491 -186q-295 0 -494 184l-158 -172zM356 360l787 859q-150 131 -350 131q-271 0 -418 -211
q-113 -162 -113 -402q0 -213 94 -377zM1214 1135l-792 -863q151 -151 371 -151q270 0 417 211q113 162 113 401q0 234 -109 402z" />
    <glyph glyph-name="Ugrave" unicode="&#xd9;" horiz-adv-x="1478" 
d="M1130 1493h191v-1049q0 -266 -213 -399q-147 -92 -363 -92q-337 0 -487 207q-82 116 -84 284v1049h191v-1049q0 -161 108 -245q109 -78 272 -78q252 0 345 162q38 67 40 161v1049zM684 1923l197 -303h-123l-305 303h231z" />
    <glyph glyph-name="Uacute" unicode="&#xda;" horiz-adv-x="1478" 
d="M1130 1493h191v-1049q0 -266 -213 -399q-147 -92 -363 -92q-337 0 -487 207q-82 116 -84 284v1049h191v-1049q0 -161 108 -245q109 -78 272 -78q252 0 345 162q38 67 40 161v1049zM793 1923h231l-305 -303h-123z" />
    <glyph glyph-name="Ucircumflex" unicode="&#xdb;" horiz-adv-x="1478" 
d="M1130 1493h191v-1049q0 -266 -213 -399q-147 -92 -363 -92q-337 0 -487 207q-82 116 -84 284v1049h191v-1049q0 -161 108 -245q109 -78 272 -78q252 0 345 162q38 67 40 161v1049zM651 1925h195l196 -307h-129l-165 197l-162 -197h-131z" />
    <glyph glyph-name="Udieresis" unicode="&#xdc;" horiz-adv-x="1478" 
d="M1130 1493h191v-1049q0 -266 -213 -399q-147 -92 -363 -92q-337 0 -487 207q-82 116 -84 284v1049h191v-1049q0 -161 108 -245q109 -78 272 -78q252 0 345 162q38 67 40 161v1049zM688 1872v-211h-213v211h213zM1020 1872v-211h-213v211h213z" />
    <glyph glyph-name="Yacute" unicode="&#xdd;" horiz-adv-x="1363" 
d="M793 586v-586h-191v586l-575 907h235l438 -727l426 727h228zM748 1923h231l-305 -303h-123z" />
    <glyph glyph-name="Thorn" unicode="&#xde;" horiz-adv-x="1363" 
d="M377 387v-387h-191v1493h191v-246h426q284 0 399 -194q60 -101 60 -240q0 -225 -160 -344q-107 -82 -256 -82h-469zM377 555h397q205 0 264 154q19 47 19 108q0 187 -160 242q-53 20 -123 20h-397v-524z" />
    <glyph glyph-name="germandbls" unicode="&#xdf;" horiz-adv-x="1251" 
d="M618 715v168h19q170 0 246 110q28 43 32 94q3 11 3 23q0 133 -115 193q-55 30 -127 30q-164 0 -225 -123q-23 -47 -23 -108v-1102h-170v1102q0 184 107 278q131 113 325 113q230 0 340 -158q66 -92 66 -219q0 -213 -224 -295q236 -80 277 -268q10 -47 10 -104
q0 -287 -192 -416q-111 -74 -267 -74l-45 2l-45 6v160h17h57q168 0 250 133q47 74 47 176q0 178 -129 246q-27 14 -57 20l-37 7l-2 2q-33 4 -138 4z" />
    <glyph glyph-name="agrave" unicode="&#xe0;" 
d="M1096 100v-129q-60 -16 -95 -18h-2h-20q-145 0 -172 129l-4 29q-58 -54 -113 -86q-115 -72 -252 -72q-225 0 -313 153q-39 70 -39 164q0 209 188 287l23 8l70 21q18 4 39 8q61 10 212 29q150 18 173 77v2v3l6 36v45q0 132 -166 156q-35 4 -74 4q-211 0 -246 -153
q-4 -19 -6 -37h-172q6 147 74 223q112 125 356 125q361 0 400 -238q4 -24 4 -55v-631q0 -84 92 -84h4q12 0 22 2h2zM797 338v192l-21 -8q-33 -14 -78 -24l-176 -27q-217 -31 -250 -141l-8 -54v-2q0 -133 137 -163q33 -9 74 -9q148 0 254 97q27 24 43 47q25 37 25 92z
M512 1516l197 -304h-123l-305 304h231z" />
    <glyph glyph-name="aacute" unicode="&#xe1;" 
d="M1096 100v-129q-60 -16 -95 -18h-2h-20q-145 0 -172 129l-4 29q-58 -54 -113 -86q-115 -72 -252 -72q-225 0 -313 153q-39 70 -39 164q0 209 188 287l23 8l70 21q18 4 39 8q61 10 212 29q150 18 173 77v2v3l6 36v45q0 132 -166 156q-35 4 -74 4q-211 0 -246 -153
q-4 -19 -6 -37h-172q6 147 74 223q112 125 356 125q361 0 400 -238q4 -24 4 -55v-631q0 -84 92 -84h4q12 0 22 2h2zM797 338v192l-21 -8q-33 -14 -78 -24l-176 -27q-217 -31 -250 -141l-8 -54v-2q0 -133 137 -163q33 -9 74 -9q148 0 254 97q27 24 43 47q25 37 25 92z
M621 1516h231l-305 -304h-123z" />
    <glyph glyph-name="acircumflex" unicode="&#xe2;" 
d="M1096 100v-129q-60 -16 -95 -18h-2h-20q-145 0 -172 129l-4 29q-58 -54 -113 -86q-115 -72 -252 -72q-225 0 -313 153q-39 70 -39 164q0 209 188 287l23 8l70 21q18 4 39 8q61 10 212 29q150 18 173 77v2v3l6 36v45q0 132 -166 156q-35 4 -74 4q-211 0 -246 -153
q-4 -19 -6 -37h-172q6 147 74 223q112 125 356 125q361 0 400 -238q4 -24 4 -55v-631q0 -84 92 -84h4q12 0 22 2h2zM797 338v192l-21 -8q-33 -14 -78 -24l-176 -27q-217 -31 -250 -141l-8 -54v-2q0 -133 137 -163q33 -9 74 -9q148 0 254 97q27 24 43 47q25 37 25 92z
M467 1518h195l196 -308h-129l-166 197l-162 -197h-131z" />
    <glyph glyph-name="atilde" unicode="&#xe3;" 
d="M1096 100v-129q-60 -16 -95 -18h-2h-20q-145 0 -172 129l-4 29q-58 -54 -113 -86q-115 -72 -252 -72q-225 0 -313 153q-39 70 -39 164q0 209 188 287l23 8l70 21q18 4 39 8q61 10 212 29q150 18 173 77v2v3l6 36v45q0 132 -166 156q-35 4 -74 4q-211 0 -246 -153
q-4 -19 -6 -37h-172q6 147 74 223q112 125 356 125q361 0 400 -238q4 -24 4 -55v-631q0 -84 92 -84h4q12 0 22 2h2zM797 338v192l-21 -8q-33 -14 -78 -24l-176 -27q-217 -31 -250 -141l-8 -54v-2q0 -133 137 -163q33 -9 74 -9q148 0 254 97q27 24 43 47q25 37 25 92z
M766 1468h119q-31 -213 -183 -213h-16q-18 2 -41 9l-117 43q-71 26 -100 26q-47 0 -68 -76h-118q32 191 153 209q11 2 23 2l33 -2q26 -4 110 -36l25 -11q67 -26 104 -26q51 0 76 75z" />
    <glyph glyph-name="adieresis" unicode="&#xe4;" 
d="M1096 100v-129q-60 -16 -95 -18h-2h-20q-145 0 -172 129l-4 29q-58 -54 -113 -86q-115 -72 -252 -72q-225 0 -313 153q-39 70 -39 164q0 209 188 287l23 8l70 21q18 4 39 8q61 10 212 29q150 18 173 77v2v3l6 36v45q0 132 -166 156q-35 4 -74 4q-211 0 -246 -153
q-4 -19 -6 -37h-172q6 147 74 223q112 125 356 125q361 0 400 -238q4 -24 4 -55v-631q0 -84 92 -84h4q12 0 22 2h2zM797 338v192l-21 -8q-33 -14 -78 -24l-176 -27q-217 -31 -250 -141l-8 -54v-2q0 -133 137 -163q33 -9 74 -9q148 0 254 97q27 24 43 47q25 37 25 92z
M500 1464v-211h-213v211h213zM831 1464v-211h-213v211h213z" />
    <glyph glyph-name="aring" unicode="&#xe5;" 
d="M1096 100v-129q-60 -16 -95 -18h-2h-20q-145 0 -172 129l-4 29q-58 -54 -113 -86q-115 -72 -252 -72q-225 0 -313 153q-39 70 -39 164q0 209 188 287l23 8l70 21q18 4 39 8q61 10 212 29q150 18 173 77v2v3l6 36v45q0 132 -166 156q-35 4 -74 4q-211 0 -246 -153
q-4 -19 -6 -37h-172q6 147 74 223q112 125 356 125q361 0 400 -238q4 -24 4 -55v-631q0 -84 92 -84h4q12 0 22 2h2zM797 338v192l-21 -8q-33 -14 -78 -24l-176 -27q-217 -31 -250 -141l-8 -54v-2q0 -133 137 -163q33 -9 74 -9q148 0 254 97q27 24 43 47q25 37 25 92z
M563 1544q103 0 156 -88v0q24 -41 24 -92q0 -100 -88 -154q-43 -24 -92 -24q-98 0 -153 86q-27 43 -27 94q0 96 86 152q43 26 94 26zM563 1454q-59 0 -84 -55l-6 -33q0 -59 55 -84l35 -6q60 0 84 55l6 33q0 63 -57 84q-16 6 -33 6z" />
    <glyph glyph-name="ae" unicode="&#xe6;" horiz-adv-x="1820" 
d="M1538 326h172q-45 -240 -246 -330q-94 -43 -211 -43q-219 0 -340 137l-24 33l-4 8l-4 4l-25 43q-102 -106 -194 -160q-115 -65 -248 -65q-211 0 -299 147q-43 72 -45 170q0 207 190 287q98 43 342 64q143 12 168 65v2v0q10 21 10 53v45q0 160 -241 160q-211 0 -244 -158
q-4 -14 -6 -32h-172q6 147 73 223q113 125 353 125q262 0 358 -168q100 141 293 164q31 4 61 4q228 0 363 -164q31 -37 51 -80q10 -18 19 -39q43 -110 43 -342h-791q2 -147 57 -229q88 -139 258 -139q207 0 283 215zM780 322v206l-22 -8q-25 -10 -51 -16q-5 -2 -11 -2
l-190 -33q-211 -31 -248 -129q-10 -29 -10 -66q0 -124 123 -161q37 -11 82 -11q125 0 227 78q31 23 53 49q45 52 47 93zM944 618h602q0 191 -133 281q-70 47 -162 47q-174 0 -258 -153q-41 -74 -49 -175z" />
    <glyph glyph-name="ccedilla" unicode="&#xe7;" horiz-adv-x="1024" 
d="M541 -47l-27 -68l47 4h10q138 0 158 -102l4 -35q0 -129 -135 -174q-51 -16 -117 -16l-63 4q-56 8 -152 47l-41 16l43 84l19 -8q100 -53 155 -57l27 -2q78 0 104 59q7 14 7 33q0 67 -95 76l-30 -4l-33 -13l-25 15l64 145q-103 18 -164 57l-27 19q-184 131 -204 422l-3 63
q0 328 189 486q121 100 289 100q217 0 336 -139l16 -21q59 -88 72 -231h-172q-27 198 -199 229q-16 2 -55 4q-193 0 -265 -205q-32 -94 -32 -225q0 -280 161 -373q60 -34 140 -34q219 0 262 260h172q-14 -250 -201 -359q-102 -57 -235 -57z" />
    <glyph glyph-name="egrave" unicode="&#xe8;" 
d="M1051 479h-791q2 -147 57 -229q89 -139 258 -139q209 0 281 215h172q-45 -248 -258 -336q-90 -37 -201 -37q-278 0 -407 225q-80 139 -80 344q0 324 192 482q123 100 299 100q236 0 369 -168q41 -51 66 -115q43 -110 43 -342zM264 618h602l2 13q0 164 -120 256
q-78 59 -177 59q-174 0 -258 -153q-41 -74 -49 -175zM516 1516l197 -304h-123l-305 304h231z" />
    <glyph glyph-name="eacute" unicode="&#xe9;" 
d="M1051 479h-791q2 -147 57 -229q89 -139 258 -139q209 0 281 215h172q-45 -248 -258 -336q-90 -37 -201 -37q-278 0 -407 225q-80 139 -80 344q0 324 192 482q123 100 299 100q236 0 369 -168q41 -51 66 -115q43 -110 43 -342zM264 618h602l2 13q0 164 -120 256
q-78 59 -177 59q-174 0 -258 -153q-41 -74 -49 -175zM631 1516h231l-305 -304h-123z" />
    <glyph glyph-name="ecircumflex" unicode="&#xea;" 
d="M1051 479h-791q2 -147 57 -229q89 -139 258 -139q209 0 281 215h172q-45 -248 -258 -336q-90 -37 -201 -37q-278 0 -407 225q-80 139 -80 344q0 324 192 482q123 100 299 100q236 0 369 -168q41 -51 66 -115q43 -110 43 -342zM264 618h602l2 13q0 164 -120 256
q-78 59 -177 59q-174 0 -258 -153q-41 -74 -49 -175zM489 1518h195l197 -308h-129l-166 197l-162 -197h-131z" />
    <glyph glyph-name="edieresis" unicode="&#xeb;" 
d="M1051 479h-791q2 -147 57 -229q89 -139 258 -139q209 0 281 215h172q-45 -248 -258 -336q-90 -37 -201 -37q-278 0 -407 225q-80 139 -80 344q0 324 192 482q123 100 299 100q236 0 369 -168q41 -51 66 -115q43 -110 43 -342zM264 618h602l2 13q0 164 -120 256
q-78 59 -177 59q-174 0 -258 -153q-41 -74 -49 -175zM526 1464v-211h-213v211h213zM858 1464v-211h-213v211h213z" />
    <glyph glyph-name="igrave" unicode="&#xec;" horiz-adv-x="569" 
d="M362 1073v-1073h-169v1073h169zM221 1516l197 -304h-123l-305 304h231z" />
    <glyph glyph-name="iacute" unicode="&#xed;" horiz-adv-x="569" 
d="M362 1073v-1073h-169v1073h169zM330 1516h231l-305 -304h-123z" />
    <glyph glyph-name="icircumflex" unicode="&#xee;" horiz-adv-x="569" 
d="M362 1073v-1073h-169v1073h169zM182 1518h195l196 -308h-129l-165 197l-162 -197h-131z" />
    <glyph glyph-name="idieresis" unicode="&#xef;" horiz-adv-x="569" 
d="M362 1073v-1073h-169v1073h169zM219 1450v-211h-213v211h213zM551 1450v-211h-213v211h213z" />
    <glyph glyph-name="eth" unicode="&#xf0;" 
d="M449 1255l-199 -92l-74 80l174 82l-43 33l-18 10q-31 21 -107 64l90 90l25 -11l18 -8q50 -24 185 -110l198 92l82 -76l-184 -84q104 -80 168 -143q39 -39 72 -80l55 -74q2 -6 6 -10q47 -72 76 -137q71 -156 71 -351q0 -395 -247 -524q-103 -53 -238 -53q-317 0 -432 270
q-53 127 -53 305q0 363 213 500q106 72 233 72q15 0 27 -2q12 0 24 -2v0l2 -2l76 -21l-65 66l-11 8q-8 8 -20 18v0zM559 946q-190 0 -268 -188q-39 -96 -39 -230q0 -276 158 -376q61 -39 149 -41q184 0 264 180q43 96 43 231q0 297 -168 391q-61 33 -139 33z" />
    <glyph glyph-name="ntilde" unicode="&#xf1;" 
d="M143 1073h158v-180q111 174 266 203q41 8 90 8q213 0 299 -141q39 -64 41 -152v-811h-170v743q0 142 -118 193q-45 18 -103 18q-172 0 -248 -157q-43 -86 -43 -205v-592h-172v1073zM774 1468h119q-31 -213 -182 -213h-17q-18 2 -41 9l-116 43q-72 26 -101 26
q-47 0 -67 -76h-119q33 191 153 209q11 2 23 2l33 -2q26 -4 110 -36l25 -11q68 -26 104 -26q52 0 76 75z" />
    <glyph glyph-name="ograve" unicode="&#xf2;" 
d="M557 1104q311 0 428 -264q59 -133 59 -320q0 -342 -208 -487q-115 -80 -277 -80q-295 0 -418 244q-67 135 -67 331q0 357 215 500q112 76 268 76zM559 946q-190 0 -268 -188q-39 -96 -39 -230q0 -280 160 -378q63 -39 147 -39q184 0 264 180q43 96 43 231q0 297 -168 391
q-61 33 -139 33zM502 1516l196 -304h-123l-305 304h232z" />
    <glyph glyph-name="oacute" unicode="&#xf3;" 
d="M557 1104q311 0 428 -264q59 -133 59 -320q0 -342 -208 -487q-115 -80 -277 -80q-295 0 -418 244q-67 135 -67 331q0 357 215 500q112 76 268 76zM559 946q-190 0 -268 -188q-39 -96 -39 -230q0 -280 160 -378q63 -39 147 -39q184 0 264 180q43 96 43 231q0 297 -168 391
q-61 33 -139 33zM610 1516h232l-305 -304h-123z" />
    <glyph glyph-name="ocircumflex" unicode="&#xf4;" 
d="M557 1104q311 0 428 -264q59 -133 59 -320q0 -342 -208 -487q-115 -80 -277 -80q-295 0 -418 244q-67 135 -67 331q0 357 215 500q112 76 268 76zM559 946q-190 0 -268 -188q-39 -96 -39 -230q0 -280 160 -378q63 -39 147 -39q184 0 264 180q43 96 43 231q0 297 -168 391
q-61 33 -139 33zM463 1518h194l197 -308h-129l-166 197l-162 -197h-131z" />
    <glyph glyph-name="otilde" unicode="&#xf5;" 
d="M557 1104q311 0 428 -264q59 -133 59 -320q0 -342 -208 -487q-115 -80 -277 -80q-295 0 -418 244q-67 135 -67 331q0 357 215 500q112 76 268 76zM559 946q-190 0 -268 -188q-39 -96 -39 -230q0 -280 160 -378q63 -39 147 -39q184 0 264 180q43 96 43 231q0 297 -168 391
q-61 33 -139 33zM768 1468h119q-31 -213 -182 -213h-17q-18 2 -41 9l-117 43q-71 26 -100 26q-47 0 -68 -76h-118q32 191 153 209q11 2 23 2l33 -2q26 -4 110 -36l25 -11q67 -26 104 -26q51 0 76 75z" />
    <glyph glyph-name="odieresis" unicode="&#xf6;" 
d="M557 1104q311 0 428 -264q59 -133 59 -320q0 -342 -208 -487q-115 -80 -277 -80q-295 0 -418 244q-67 135 -67 331q0 357 215 500q112 76 268 76zM559 946q-190 0 -268 -188q-39 -96 -39 -230q0 -280 160 -378q63 -39 147 -39q184 0 264 180q43 96 43 231q0 297 -168 391
q-61 33 -139 33zM500 1464v-211h-213v211h213zM831 1464v-211h-213v211h213z" />
    <glyph glyph-name="divide" unicode="&#xf7;" horiz-adv-x="1196" 
d="M1094 555v-143h-992v143h992zM705 213v-213h-213v213h213zM705 967v-213h-213v213h213z" />
    <glyph glyph-name="oslash" unicode="&#xf8;" horiz-adv-x="1251" 
d="M1083 1047l-129 -146q90 -149 90 -373q0 -360 -217 -503q-112 -72 -266 -72q-209 0 -334 127l-125 -141l-65 57l135 151q-98 146 -98 381q0 359 217 502q112 74 268 74q207 0 340 -133l119 133zM829 760l-487 -551q88 -98 217 -98q191 0 268 188q39 96 39 229
q0 136 -37 232zM295 289l489 551q-84 104 -225 106q-190 0 -268 -188q-39 -96 -39 -230q0 -139 43 -239z" />
    <glyph glyph-name="ugrave" unicode="&#xf9;" 
d="M987 0h-153v150q-115 -162 -267 -189q-41 -8 -92 -8q-219 0 -303 143q-39 64 -39 150v827h170v-760q0 -143 121 -192q43 -19 100 -19q174 0 252 160q41 86 41 203v608h170v-1073zM498 1516l196 -304h-123l-305 304h232z" />
    <glyph glyph-name="uacute" unicode="&#xfa;" 
d="M987 0h-153v150q-115 -162 -267 -189q-41 -8 -92 -8q-219 0 -303 143q-39 64 -39 150v827h170v-760q0 -143 121 -192q43 -19 100 -19q174 0 252 160q41 86 41 203v608h170v-1073zM606 1516h232l-306 -304h-122z" />
    <glyph glyph-name="ucircumflex" unicode="&#xfb;" 
d="M987 0h-153v150q-115 -162 -267 -189q-41 -8 -92 -8q-219 0 -303 143q-39 64 -39 150v827h170v-760q0 -143 121 -192q43 -19 100 -19q174 0 252 160q41 86 41 203v608h170v-1073zM465 1518h194l197 -308h-129l-166 197l-162 -197h-131z" />
    <glyph glyph-name="udieresis" unicode="&#xfc;" 
d="M987 0h-153v150q-115 -162 -267 -189q-41 -8 -92 -8q-219 0 -303 143q-39 64 -39 150v827h170v-760q0 -143 121 -192q43 -19 100 -19q174 0 252 160q41 86 41 203v608h170v-1073zM502 1464v-211h-213v211h213zM834 1464v-211h-213v211h213z" />
    <glyph glyph-name="yacute" unicode="&#xfd;" horiz-adv-x="1024" 
d="M795 1073h184l-477 -1298l-8 -19v-2q-41 -100 -109 -149q-53 -39 -123 -49q-18 -2 -37 -2q-63 0 -114 26v154q55 -13 90 -13q92 0 129 82l8 23l65 170l-362 1077h182l275 -835zM555 1516h231l-305 -304h-123z" />
    <glyph glyph-name="thorn" unicode="&#xfe;" horiz-adv-x="1136" 
d="M111 -446v1908h170v-522q112 160 329 164q246 0 371 -215q88 -150 88 -371q0 -315 -182 -469q-80 -67 -187 -88q-43 -8 -90 -8q-198 0 -329 160v-559h-170zM580 944q-170 0 -250 -172q-49 -100 -49 -244q0 -256 141 -362q67 -53 158 -53q172 0 256 161q55 105 55 248
q0 260 -146 369q-71 53 -165 53z" />
    <glyph glyph-name="ydieresis" unicode="&#xff;" horiz-adv-x="1024" 
d="M795 1073h184l-477 -1298l-8 -19v-2q-41 -100 -109 -149q-53 -39 -123 -49q-18 -2 -37 -2q-63 0 -114 26v154q55 -13 90 -13q92 0 129 82l8 23l65 170l-362 1077h182l275 -835zM444 1464v-211h-213v211h213zM776 1464v-211h-213v211h213z" />
    <glyph glyph-name="Amacron" unicode="&#x100;" horiz-adv-x="1366" 
d="M971 449h-576l-157 -449h-203l532 1493h246l524 -1493h-213zM918 608l-230 680l-246 -680h476zM967 1843v-143h-561v143h561z" />
    <glyph glyph-name="amacron" unicode="&#x101;" 
d="M1096 100v-129q-60 -16 -95 -18h-2h-20q-145 0 -172 129l-4 29q-58 -54 -113 -86q-115 -72 -252 -72q-225 0 -313 153q-39 70 -39 164q0 209 188 287l23 8l70 21q18 4 39 8q61 10 212 29q150 18 173 77v2v3l6 36v45q0 132 -166 156q-35 4 -74 4q-211 0 -246 -153
q-4 -19 -6 -37h-172q6 147 74 223q112 125 356 125q361 0 400 -238q4 -24 4 -55v-631q0 -84 92 -84h4q12 0 22 2h2zM797 338v192l-21 -8q-33 -14 -78 -24l-176 -27q-217 -31 -250 -141l-8 -54v-2q0 -133 137 -163q33 -9 74 -9q148 0 254 97q27 24 43 47q25 37 25 92z
M842 1436v-144h-561v144h561z" />
    <glyph glyph-name="Abreve" unicode="&#x102;" horiz-adv-x="1366" 
d="M971 449h-576l-157 -449h-203l532 1493h246l524 -1493h-213zM918 608l-230 680l-246 -680h476zM379 1907h121q16 -135 188 -135q158 0 184 116l2 19h121q-22 -277 -311 -277q-176 0 -262 117l-4 6q-37 51 -39 154z" />
    <glyph glyph-name="abreve" unicode="&#x103;" 
d="M1096 100v-129q-60 -16 -95 -18h-2h-20q-145 0 -172 129l-4 29q-58 -54 -113 -86q-115 -72 -252 -72q-225 0 -313 153q-39 70 -39 164q0 209 188 287l23 8l70 21q18 4 39 8q61 10 212 29q150 18 173 77v2v3l6 36v45q0 132 -166 156q-35 4 -74 4q-211 0 -246 -153
q-4 -19 -6 -37h-172q6 147 74 223q112 125 356 125q361 0 400 -238q4 -24 4 -55v-631q0 -84 92 -84h4q12 0 22 2h2zM797 338v192l-21 -8q-33 -14 -78 -24l-176 -27q-217 -31 -250 -141l-8 -54v-2q0 -133 137 -163q33 -9 74 -9q148 0 254 97q27 24 43 47q25 37 25 92z
M256 1499h121q16 -135 188 -135q158 0 185 117l2 18h120q-22 -276 -311 -276q-176 0 -262 116l-4 7q-37 55 -39 153z" />
    <glyph glyph-name="Aogonek" unicode="&#x104;" horiz-adv-x="1366" 
d="M971 449h-576l-157 -449h-203l532 1493h246l524 -1493q-194 -92 -196 -215q0 -113 147 -113q76 0 129 21v-92l-63 -13l-92 -8l-70 6l-72 21q-127 49 -129 166q0 118 144 196l63 31h-74zM918 608l-230 680l-246 -680h476z" />
    <glyph glyph-name="aogonek" unicode="&#x105;" 
d="M1098 100v-129q-146 -57 -156 -186q0 -113 148 -113q77 0 131 21v-92l-41 -9q-35 -6 -68 -10v0l-37 -2q-35 0 -86 10q-35 7 -65 17q-125 41 -129 164q0 92 90 153h2v0l2 2q20 13 45 27q-117 20 -129 158q-166 -158 -365 -158q-225 0 -313 153q-39 70 -39 164
q0 207 191 287l20 8q27 10 55 17l15 4q61 12 254 37q143 18 168 71v2l2 2l6 43v45q0 158 -240 160q-213 0 -246 -158q-2 -14 -4 -32h-172q6 145 72 223q115 125 356 125q361 0 400 -238q4 -24 4 -55v-631q0 -84 92 -84h4q12 0 22 2h3zM797 338v192l-21 -8q-33 -14 -78 -24
l-176 -27q-217 -31 -250 -141l-8 -54v-2q0 -133 137 -163q33 -9 74 -9q148 0 254 97q27 24 43 47q25 37 25 92z" />
    <glyph glyph-name="Cacute" unicode="&#x106;" horiz-adv-x="1478" 
d="M1356 1030h-195q-31 154 -108 225q-97 91 -295 95q-262 0 -387 -236q-82 -153 -82 -383q0 -348 194 -510q121 -100 291 -100q223 0 328 158q12 16 20 34q45 86 68 232h196q-67 -592 -614 -592q-289 0 -457 174q-217 223 -217 602q0 375 209 602q168 187 473 187
q488 0 576 -488zM831 1923h232l-305 -303h-123z" />
    <glyph glyph-name="cacute" unicode="&#x107;" horiz-adv-x="1024" 
d="M965 713h-172q-27 198 -199 229q-16 2 -55 4q-193 0 -265 -205q-32 -94 -32 -223q0 -280 161 -373q60 -34 140 -34q219 0 262 258h172q-23 -281 -236 -375q-88 -41 -202 -41q-265 0 -392 215q-84 141 -84 350q0 328 189 486q121 100 289 100q217 0 336 -139l16 -21
q59 -88 72 -231zM610 1516h232l-305 -304h-123z" />
    <glyph glyph-name="Ccircumflex" unicode="&#x108;" horiz-adv-x="1478" 
d="M533 1883h194l197 -308h-129l-166 197l-162 -197h-131zM1356 1030h-195q-31 154 -108 225q-97 91 -295 95q-262 0 -387 -236q-82 -153 -82 -383q0 -348 194 -510q121 -100 291 -100q223 0 328 158q12 16 20 34q45 86 68 232h196q-67 -592 -614 -592q-289 0 -457 174
q-217 223 -217 602q0 375 209 602q168 187 473 187q488 0 576 -488z" />
    <glyph glyph-name="ccircumflex" unicode="&#x109;" horiz-adv-x="1024" 
d="M506 1463h194l197 -308h-129l-166 197l-162 -197h-131zM965 713h-172q-27 198 -199 229q-16 2 -55 4q-193 0 -265 -205q-32 -94 -32 -223q0 -280 161 -373q60 -34 140 -34q219 0 262 258h172q-23 -281 -236 -375q-88 -41 -202 -41q-265 0 -392 215q-84 141 -84 350
q0 328 189 486q121 100 289 100q217 0 336 -139l16 -21q59 -88 72 -231z" />
    <glyph glyph-name="Cdotaccent" unicode="&#x10a;" horiz-adv-x="1478" 
d="M895 1788v-213h-213v213h213zM1356 1030h-195q-31 154 -108 225q-97 91 -295 95q-262 0 -387 -236q-82 -153 -82 -383q0 -348 194 -510q121 -100 291 -100q223 0 328 158q12 16 20 34q45 86 68 232h196q-67 -592 -614 -592q-289 0 -457 174q-217 223 -217 602
q0 375 209 602q168 187 473 187q488 0 576 -488z" />
    <glyph glyph-name="cdotaccent" unicode="&#x10b;" horiz-adv-x="1024" 
d="M635 1368v-213h-213v213h213zM965 713h-172q-27 198 -199 229q-16 2 -55 4q-193 0 -265 -205q-32 -94 -32 -223q0 -280 161 -373q60 -34 140 -34q219 0 262 258h172q-23 -281 -236 -375q-88 -41 -202 -41q-265 0 -392 215q-84 141 -84 350q0 328 189 486q121 100 289 100
q217 0 336 -139l16 -21q59 -88 72 -231z" />
    <glyph glyph-name="Ccaron" unicode="&#x10c;" horiz-adv-x="1478" 
d="M1356 1030h-195q-31 154 -108 225q-97 91 -295 95q-262 0 -387 -236q-82 -153 -82 -383q0 -348 194 -510q121 -100 291 -100q223 0 328 158q12 16 20 34q45 86 68 232h196q-67 -592 -614 -592q-289 0 -457 174q-217 223 -217 602q0 375 209 602q168 187 473 187
q488 0 576 -488zM877 1618h-195l-197 307h129l166 -196l162 196h131z" />
    <glyph glyph-name="ccaron" unicode="&#x10d;" horiz-adv-x="1024" 
d="M965 713h-172q-27 198 -199 229q-16 2 -55 4q-193 0 -265 -205q-32 -94 -32 -223q0 -280 161 -373q60 -34 140 -34q219 0 262 258h172q-23 -281 -236 -375q-88 -41 -202 -41q-265 0 -392 215q-84 141 -84 350q0 328 189 486q121 100 289 100q217 0 336 -139l16 -21
q59 -88 72 -231zM641 1210h-195l-196 308h129l166 -197l162 197h131z" />
    <glyph glyph-name="Dcaron" unicode="&#x10e;" horiz-adv-x="1478" 
d="M182 0v1493h576q334 0 495 -270q2 -2 2 -4q111 -187 111 -471q0 -429 -238 -623q-149 -125 -370 -125h-576zM373 168h352q356 0 432 371q19 92 19 206q0 504 -345 570q-51 10 -106 10h-352v-1157zM791 1618h-195l-197 307h129l166 -196l162 196h131z" />
    <glyph glyph-name="dcaron" unicode="&#x10f;" horiz-adv-x="1300" 
d="M1014 1493v-1493h-152v141q-119 -170 -295 -186q-22 -2 -47 -2q-266 0 -389 229q-78 144 -78 357q0 315 183 469q116 96 278 96q221 0 330 -166v555h170zM543 944q-174 0 -258 -168q-41 -78 -52 -182q-2 -31 -2 -66q0 -249 144 -360q74 -55 170 -55q168 0 248 166
q51 102 51 245q0 269 -148 373q-67 47 -153 47zM1122 1493h205v-211q0 -156 -98 -221q-41 -27 -90 -27h-17v78q117 0 113 176h-113v205z" />
    <glyph glyph-name="Dcroat" unicode="&#x110;" horiz-adv-x="1478" 
d="M182 694h-141v137h141v662h578q334 0 493 -270l2 -2q99 -168 109 -410l2 -63q0 -431 -238 -625q-149 -123 -368 -123h-578v694zM373 694v-526h354q365 0 434 391q15 84 15 189q0 489 -330 565q-53 12 -119 12h-354v-494h350v-137h-350z" />
    <glyph glyph-name="dcroat" unicode="&#x111;" 
d="M1012 1337h129v-108h-129v-1229h-152v121q-143 -168 -344 -168q-242 0 -369 207q-94 153 -94 381q0 313 183 467q114 96 276 96q199 0 330 -160v285h-307v108h307v156h170v-156zM543 936q-174 0 -258 -166q-54 -100 -54 -242q0 -241 140 -350q73 -57 172 -57
q172 0 252 168q47 98 47 235q0 262 -148 365q-65 47 -151 47z" />
    <glyph glyph-name="Emacron" unicode="&#x112;" horiz-adv-x="1366" 
d="M375 680v-512h880v-168h-1071v1493h1035v-168h-844v-477h813v-168h-813zM987 1843v-143h-561v143h561z" />
    <glyph glyph-name="emacron" unicode="&#x113;" 
d="M1051 479h-791q2 -147 57 -229q89 -139 258 -139q209 0 281 215h172q-45 -248 -258 -336q-90 -37 -201 -37q-278 0 -407 225q-80 139 -80 344q0 324 192 482q123 100 299 100q236 0 369 -168q41 -51 66 -115q43 -110 43 -342zM264 618h602l2 13q0 164 -120 256
q-78 59 -177 59q-174 0 -258 -153q-41 -74 -49 -175zM864 1436v-144h-561v144h561z" />
    <glyph glyph-name="Ebreve" unicode="&#x114;" horiz-adv-x="1366" 
d="M393 1851h121q16 -135 188 -135q158 0 184 117l2 18h121q-22 -276 -311 -276q-176 0 -262 116l-4 7q-37 55 -39 153zM375 680v-512h880v-168h-1071v1493h1035v-168h-844v-477h813v-168h-813z" />
    <glyph glyph-name="ebreve" unicode="&#x115;" 
d="M262 1431h121q16 -135 188 -135q158 0 184 117l2 18h121q-22 -276 -311 -276q-176 0 -262 116l-4 7q-37 55 -39 153zM1051 479h-791q2 -147 57 -229q89 -139 258 -139q209 0 281 215h172q-45 -248 -258 -336q-90 -37 -201 -37q-278 0 -407 225q-80 139 -80 344
q0 324 192 482q123 100 299 100q236 0 369 -168q41 -51 66 -115q43 -110 43 -342zM264 618h602l2 13q0 164 -120 256q-78 59 -177 59q-174 0 -258 -153q-41 -74 -49 -175z" />
    <glyph glyph-name="Edotaccent" unicode="&#x116;" horiz-adv-x="1366" 
d="M375 680v-512h880v-168h-1071v1493h1035v-168h-844v-477h813v-168h-813zM813 1874v-213h-213v213h213z" />
    <glyph glyph-name="edotaccent" unicode="&#x117;" 
d="M1051 479h-791q2 -147 57 -229q89 -139 258 -139q209 0 281 215h172q-45 -248 -258 -336q-90 -37 -201 -37q-278 0 -407 225q-80 139 -80 344q0 324 192 482q123 100 299 100q236 0 369 -168q41 -51 66 -115q43 -110 43 -342zM264 618h602l2 13q0 164 -120 256
q-78 59 -177 59q-174 0 -258 -153q-41 -74 -49 -175zM690 1466v-213h-213v213h213z" />
    <glyph glyph-name="Eogonek" unicode="&#x118;" horiz-adv-x="1366" 
d="M375 680v-512h880v-168q-194 -92 -196 -217q0 -111 147 -111q76 0 129 21v-92l-65 -13q-39 -6 -68 -8h-20q-39 0 -86 10q-29 7 -58 17q-127 49 -129 166q0 125 156 202l2 2h2l47 23h-932v1493h1035v-168h-844v-477h813v-168h-813z" />
    <glyph glyph-name="eogonek" unicode="&#x119;" 
d="M1051 479h-791q2 -143 57 -229q93 -139 258 -139q207 0 283 215h172q-24 -129 -115 -240q-22 -27 -51 -55q-119 -123 -145 -254l6 51l-6 -51q0 -84 100 -101q23 -4 47 -4q78 0 131 21v-92q-65 -15 -112 -19h-29q-197 0 -262 105q-23 32 -23 75l7 43q14 54 51 97l2 2
q4 4 10 8l70 57l-95 -14q-20 -2 -45 -2q-290 0 -415 233q-74 138 -74 334q0 326 194 484q123 100 297 100q232 0 365 -162q41 -51 68 -115l2 -6q45 -116 43 -342zM868 618v13q0 164 -120 256q-78 59 -177 59q-174 0 -258 -153q-41 -74 -47 -175h602z" />
    <glyph glyph-name="Ecaron" unicode="&#x11a;" horiz-adv-x="1366" 
d="M375 680v-512h880v-168h-1071v1493h1035v-168h-844v-477h813v-168h-813zM803 1618h-195l-196 307h129l166 -196l161 196h131z" />
    <glyph glyph-name="ecaron" unicode="&#x11b;" 
d="M1051 479h-791q2 -147 57 -229q89 -139 258 -139q209 0 281 215h172q-45 -248 -258 -336q-90 -37 -201 -37q-278 0 -407 225q-80 139 -80 344q0 324 192 482q123 100 299 100q236 0 369 -168q41 -51 66 -115q43 -110 43 -342zM264 618h602l2 13q0 164 -120 256
q-78 59 -177 59q-174 0 -258 -153q-41 -74 -49 -175zM684 1210h-195l-196 308h129l166 -197l162 197h131z" />
    <glyph glyph-name="Gcircumflex" unicode="&#x11c;" horiz-adv-x="1593" 
d="M730 1880h194l197 -264h-129l-166 169l-162 -169h-131zM1452 788v-796h-121l-47 198q-213 -237 -510 -237q-313 0 -506 233q-178 213 -178 545q0 361 209 586q29 31 61 57q175 144 447 144q367 0 532 -242q68 -100 93 -236h-195q-43 201 -238 275q-86 35 -194 35
q-270 0 -416 -213q-108 -160 -108 -396q0 -258 125 -430l32 -39q135 -147 377 -151q234 0 369 164q100 123 100 295v41h-455v167h623z" />
    <glyph glyph-name="gcircumflex" unicode="&#x11d;" 
d="M418 1463h194l197 -308h-129l-166 197l-162 -197h-131zM844 1073h157v-897q0 -315 -83 -446l-29 -39q-98 -123 -322 -135q-22 -2 -45 -2q-282 0 -385 180q-35 63 -43 143h174q13 -78 60 -119l6 -4q74 -57 194 -57q166 0 238 100q61 84 61 293v55l-14 -18
q-119 -160 -274 -172q-19 -2 -37 -2h-19q-170 10 -288 143q-136 156 -136 422q0 309 170 471q119 115 287 115q201 0 328 -186v155zM535 946q-181 0 -256 -184q-41 -96 -41 -234q0 -284 159 -381q60 -36 140 -36q182 0 254 188q36 94 36 223q0 307 -168 396q-55 28 -124 28z
" />
    <glyph glyph-name="Gbreve" unicode="&#x11e;" horiz-adv-x="1593" 
d="M1452 788v-796h-121l-47 198q-213 -237 -510 -237q-313 0 -506 233q-178 213 -178 545q0 361 209 586q29 31 61 57q175 144 447 144q367 0 532 -242q68 -100 93 -236h-195q-43 201 -238 275q-86 35 -194 35q-270 0 -416 -213q-108 -160 -108 -396q0 -258 125 -430l32 -39
q135 -147 377 -151q234 0 369 164q100 123 100 295v41h-455v167h623zM510 1907h121q16 -135 188 -135q158 0 185 116l2 19h120q-22 -277 -311 -277q-176 0 -262 117l-4 6q-37 51 -39 154z" />
    <glyph glyph-name="gbreve" unicode="&#x11f;" 
d="M844 1073h157v-897q0 -315 -83 -446l-29 -39q-98 -123 -322 -135q-22 -2 -45 -2q-282 0 -385 180q-35 63 -43 143h174q13 -78 60 -119l6 -4q74 -57 194 -57q166 0 238 100q61 84 61 293v55l-14 -18q-119 -160 -274 -172q-19 -2 -37 -2h-19q-170 10 -288 143
q-136 156 -136 422q0 309 170 471q119 115 287 115q201 0 328 -186v155zM535 946q-181 0 -256 -184q-41 -96 -41 -234q0 -284 159 -381q60 -36 140 -36q182 0 254 188q36 94 36 223q0 307 -168 396q-55 28 -124 28zM270 1499h121q15 -135 189 -135q157 0 184 117l2 18h121
q-23 -276 -312 -276q-176 0 -262 116l-4 7q-37 55 -39 153z" />
    <glyph glyph-name="Gdotaccent" unicode="&#x120;" horiz-adv-x="1593" 
d="M918 1788v-213h-213v213h213zM1452 788v-796h-121l-47 198q-213 -237 -510 -237q-313 0 -506 233q-178 213 -178 545q0 361 209 586q29 31 61 57q175 144 447 144q367 0 532 -242q68 -100 93 -236h-195q-43 201 -238 275q-86 35 -194 35q-270 0 -416 -213
q-108 -160 -108 -396q0 -258 125 -430l32 -39q135 -147 377 -151q234 0 369 164q100 123 100 295v41h-455v167h623z" />
    <glyph glyph-name="gdotaccent" unicode="&#x121;" 
d="M627 1368v-213h-213v213h213zM844 1073h157v-897q0 -315 -83 -446l-29 -39q-98 -123 -322 -135q-22 -2 -45 -2q-282 0 -385 180q-35 63 -43 143h174q13 -78 60 -119l6 -4q74 -57 194 -57q166 0 238 100q61 84 61 293v55l-14 -18q-119 -160 -274 -172q-19 -2 -37 -2h-19
q-170 10 -288 143q-136 156 -136 422q0 309 170 471q119 115 287 115q201 0 328 -186v155zM535 946q-181 0 -256 -184q-41 -96 -41 -234q0 -284 159 -381q60 -36 140 -36q182 0 254 188q36 94 36 223q0 307 -168 396q-55 28 -124 28z" />
    <glyph glyph-name="Gcommaaccent" unicode="&#x122;" horiz-adv-x="1593" 
d="M1452 788v-796h-121l-47 198q-213 -237 -510 -237q-313 0 -506 233q-178 213 -178 545q0 361 209 586q29 31 61 57q175 144 447 144q367 0 532 -242q68 -100 93 -236h-195q-43 201 -238 275q-86 35 -194 35q-270 0 -416 -213q-108 -160 -108 -396q0 -258 125 -430l32 -39
q135 -147 377 -151q234 0 369 164q100 123 100 295v41h-455v167h623zM690 -123h205v-211q0 -180 -121 -231q-37 -17 -84 -17v78q117 0 113 176h-113v205z" />
    <glyph glyph-name="gcommaaccent" unicode="&#x123;" 
d="M844 1073h157v-897q0 -315 -83 -446l-29 -39q-98 -123 -322 -135q-22 -2 -45 -2q-282 0 -385 180q-35 63 -43 143h174q13 -78 60 -119l6 -4q74 -57 194 -57q166 0 238 100q61 84 61 293v55l-14 -18q-119 -160 -274 -172q-19 -2 -37 -2h-19q-170 10 -288 143
q-136 156 -136 422q0 309 170 471q119 115 287 115q201 0 328 -186v155zM535 946q-181 0 -256 -184q-41 -96 -41 -234q0 -284 159 -381q60 -36 140 -36q182 0 254 188q36 94 36 223q0 307 -168 396q-55 28 -124 28zM680 1212h-205v211q0 181 121 232q37 16 84 16v-78l-4 -2
q-115 -4 -109 -174h113v-205z" />
    <glyph glyph-name="Hcircumflex" unicode="&#x124;" horiz-adv-x="1478" 
d="M648 1883h194l197 -308h-129l-166 197l-162 -197h-131zM1128 680h-766v-680h-192v1493h190v-645h768v645h191v-1493h-191v680z" />
    <glyph glyph-name="hcircumflex" unicode="&#x125;" 
d="M132 1883h194l197 -308h-129l-166 197l-162 -197h-131zM143 1493h170v-567l37 43q109 123 262 133l45 2q226 0 306 -152q32 -61 32 -141v-811h-170v743q0 113 -69 162q-66 49 -152 49q-172 0 -248 -157q-43 -86 -43 -205v-592h-170v1493z" />
    <glyph glyph-name="Hbar" unicode="&#x126;" horiz-adv-x="1478" 
d="M1128 680h-766v-680h-192v1493h190v-645h768v645h191v-1493h-191v680z" />
    <glyph glyph-name="hbar" unicode="&#x127;" 
d="M313 1337h308v-108h-308v-303l37 43q109 123 262 133l45 2q226 0 306 -152q32 -61 32 -141v-811h-170v743q0 113 -69 162q-66 49 -152 49q-172 0 -248 -157q-43 -86 -43 -205v-592h-170v1229h-129v108h129v156h170v-156z" />
    <glyph glyph-name="Itilde" unicode="&#x128;" horiz-adv-x="569" 
d="M504 1787h118q-30 -213 -182 -213h-16q-19 2 -41 9l-117 43q-72 26 -100 26q-47 0 -68 -76h-119q33 191 154 209l22 2l33 -2q27 -4 111 -36l24 -11q68 -26 105 -26q51 0 76 75zM397 1493v-1493h-192v1493h192z" />
    <glyph glyph-name="itilde" unicode="&#x129;" horiz-adv-x="2048" 
d="M482 1368h118q-30 -213 -182 -213h-16q-19 2 -41 9l-117 43q-72 26 -100 26q-47 0 -68 -76h-119q33 191 154 209l22 2l33 -2q27 -4 111 -36l24 -11q68 -26 105 -26q51 0 76 75zM365 1073v-1073h-172v1073h172z" />
    <glyph glyph-name="Imacron" unicode="&#x12a;" horiz-adv-x="569" 
d="M397 1493v-1493h-192v1493h192zM561 1843v-143h-520v143h520z" />
    <glyph glyph-name="imacron" unicode="&#x12b;" horiz-adv-x="454" 
d="M305 1073v-1073h-170v1073h170zM473 1436v-144h-506v144h506z" />
    <glyph glyph-name="Ibreve" unicode="&#x12c;" horiz-adv-x="569" 
d="M-6 1851h121q16 -135 188 -135q158 0 184 117l2 18h121q-22 -276 -311 -276q-176 0 -262 116l-4 7q-37 55 -39 153zM397 1493v-1493h-192v1493h192z" />
    <glyph glyph-name="ibreve" unicode="&#x12d;" horiz-adv-x="2048" 
d="M-28 1431h121q16 -135 188 -135q158 0 184 117l2 18h121q-22 -276 -311 -276q-176 0 -262 116l-4 7q-37 55 -39 153zM365 1073v-1073h-172v1073h172z" />
    <glyph glyph-name="Iogonek" unicode="&#x12e;" horiz-adv-x="569" 
d="M397 1493v-1493q-80 -74 -104 -156q-10 -30 -10 -63q0 -82 69 -103l35 -4h14q31 2 78 19v-92l-61 -13l-60 -6q-149 0 -202 101q-21 34 -21 79q0 76 45 136q37 47 113 102h-88v1493h192z" />
    <glyph glyph-name="iogonek" unicode="&#x12f;" horiz-adv-x="454" 
d="M307 1073v-1073q-55 -49 -86 -121q-22 -49 -22 -90q0 -86 69 -108l33 -7h12q27 2 76 19v-92l-59 -13l-60 -6q-143 0 -198 96q-21 37 -21 84q0 60 27 105q31 57 125 133h-66v1073h170zM307 1493v-215h-172v215h172z" />
    <glyph glyph-name="Idotaccent" unicode="&#x130;" horiz-adv-x="569" 
d="M399 1493v-1493h-192v1493h192zM410 1874v-213h-213v213h213z" />
    <glyph glyph-name="dotlessi" unicode="&#x131;" horiz-adv-x="569" 
d="M365 1073v-1073h-172v1073h172z" />
    <glyph glyph-name="Jcircumflex" unicode="&#x134;" horiz-adv-x="1024" 
d="M680 1883h194l197 -308h-129l-166 197l-162 -197h-131zM682 1493h190v-1120q0 -254 -184 -363q-100 -57 -237 -57q-254 0 -361 176q-55 92 -55 219v131h194v-96q0 -227 166 -264l58 -6q118 0 182 92q47 69 47 237v1051z" />
    <glyph glyph-name="jcircumflex" unicode="&#x135;" horiz-adv-x="454" 
d="M143 1073h170v-1296q0 -211 -262 -223h-31l-36 2l-21 4v145l39 -2h2q107 0 129 66q10 28 10 75v1229zM131 1608h195l196 -308h-129l-166 197l-161 -197h-132z" />
    <glyph glyph-name="Kcommaaccent" unicode="&#x136;" horiz-adv-x="1366" 
d="M352 522v-522h-190v1493h190v-756l744 756h245l-608 -608l615 -885h-226l-526 766zM612 -123h205v-211q0 -180 -121 -231q-37 -17 -84 -17v78q117 0 113 176h-113v205z" />
    <glyph glyph-name="kcommaaccent" unicode="&#x137;" horiz-adv-x="1024" 
d="M289 1493v-875l454 455h220l-373 -371l438 -702h-211l-362 582l-166 -164v-418h-170v1493h170zM444 -123h205v-211q0 -180 -121 -231q-36 -17 -84 -17v78q117 0 113 176h-113v205z" />
    <glyph glyph-name="kgreenlandic" unicode="&#x138;" horiz-adv-x="1024" 
d="M289 1073v-455l454 455h220l-557 -532l622 -541h-211l-528 442v-442h-170v1073h170z" />
    <glyph glyph-name="Lacute" unicode="&#x139;" 
d="M354 1493v-1325h738v-168h-928v1493h190zM340 1923h231l-305 -303h-123z" />
    <glyph glyph-name="lacute" unicode="&#x13a;" horiz-adv-x="454" 
d="M311 1493v-1493h-172v1493h172zM326 1923h231l-305 -303h-123z" />
    <glyph glyph-name="Lcommaaccent" unicode="&#x13b;" 
d="M354 1493v-1325h738v-168h-928v1493h190zM526 -123h205v-211q0 -180 -121 -231q-37 -17 -84 -17v78q117 0 113 176h-113v205z" />
    <glyph glyph-name="lcommaaccent" unicode="&#x13c;" horiz-adv-x="454" 
d="M311 1493v-1493h-172v1493h172zM129 -123h205v-211q0 -180 -121 -231q-37 -17 -84 -17v78q117 0 113 168v8h-113v205z" />
    <glyph glyph-name="Lcaron" unicode="&#x13d;" 
d="M354 1493v-1325h738v-168h-928v1493h190zM559 1493h205v-211q0 -156 -98 -221q-41 -27 -91 -27h-16v78q117 0 113 176h-113v205z" />
    <glyph glyph-name="lcaron" unicode="&#x13e;" horiz-adv-x="598" 
d="M311 1493v-1493h-172v1493h172zM420 1493h205v-211q0 -156 -99 -221q-41 -27 -90 -27h-16v78q117 0 112 176h-112v205z" />
    <glyph glyph-name="Lslash" unicode="&#x141;" 
d="M354 831l351 248v-155l-351 -250v-506h776v-168h-966v573l-164 -116v157l164 115v764h190v-662z" />
    <glyph glyph-name="lslash" unicode="&#x142;" horiz-adv-x="454" 
d="M299 862l135 105v-131l-135 -105v-731h-170v641l-129 -102v131l129 102v721h170v-631z" />
    <glyph glyph-name="Nacute" unicode="&#x143;" horiz-adv-x="1478" 
d="M1323 1493v-1493h-215l-772 1210v-1210h-180v1493h206l781 -1221v1221h180zM797 1923h231l-305 -303h-123z" />
    <glyph glyph-name="nacute" unicode="&#x144;" 
d="M143 1073h158v-180q111 174 266 203q41 8 90 8q213 0 299 -141q39 -64 41 -152v-811h-170v743q0 142 -118 193q-45 18 -103 18q-172 0 -248 -157q-43 -86 -43 -205v-592h-172v1073zM635 1516h231l-305 -304h-123z" />
    <glyph glyph-name="Ncommaaccent" unicode="&#x145;" horiz-adv-x="1478" 
d="M1323 1493v-1493h-215l-772 1210v-1210h-180v1493h206l781 -1221v1221h180zM610 -123h205v-211q0 -180 -121 -231q-37 -17 -84 -17v78q117 0 113 176h-113v205z" />
    <glyph glyph-name="ncommaaccent" unicode="&#x146;" 
d="M143 1073h158v-180q111 174 266 203q41 8 90 8q213 0 299 -141q39 -64 41 -152v-811h-170v743q0 142 -118 193q-45 18 -103 18q-172 0 -248 -157q-43 -86 -43 -205v-592h-172v1073zM469 -123h205v-211q0 -180 -121 -231q-37 -17 -84 -17v78q117 0 113 176h-113v205z" />
    <glyph glyph-name="Ncaron" unicode="&#x147;" horiz-adv-x="1478" 
d="M1323 1493v-1493h-215l-772 1210v-1210h-180v1493h206l781 -1221v1221h180zM838 1618h-195l-197 307h129l166 -196l162 196h131z" />
    <glyph glyph-name="ncaron" unicode="&#x148;" 
d="M143 1073h158v-180q111 174 266 203q41 8 90 8q213 0 299 -141q39 -64 41 -152v-811h-170v743q0 142 -118 193q-45 18 -103 18q-172 0 -248 -157q-43 -86 -43 -205v-592h-172v1073zM668 1210h-195l-197 308h130l165 -197l162 197h131z" />
    <glyph glyph-name="napostrophe" unicode="&#x149;" 
d="M143 1073h158v-180q111 174 266 203q41 8 90 8q213 0 299 -141q39 -64 41 -152v-811h-170v743q0 142 -118 193q-45 18 -103 18q-172 0 -248 -157q-43 -86 -43 -205v-592h-172v1073z" />
    <glyph glyph-name="Eng" unicode="&#x14a;" horiz-adv-x="1478" 
d="M1143 459h180v-682q0 -178 -203 -215q-45 -8 -100 -8l-37 2l-20 4v145l38 -2h3q106 0 129 66q10 28 10 75v615zM1323 1493v-1493h-215l-772 1210v-1210h-180v1493h206l781 -1221v1221h180z" />
    <glyph glyph-name="eng" unicode="&#x14b;" 
d="M997 811v-1034q0 -211 -262 -223h-30l-37 2l-21 4v145l39 -2h2q107 0 129 66q10 28 10 75v899q0 142 -118 193q-45 18 -103 18q-172 0 -248 -157q-43 -86 -43 -205v-592h-172v1073h158v-180q111 174 266 203q41 8 90 8q213 0 299 -141q39 -64 41 -152z" />
    <glyph glyph-name="Omacron" unicode="&#x14c;" horiz-adv-x="1593" 
d="M797 1518q356 0 555 -252l2 -2l4 -4q123 -162 153 -396q9 -67 9 -141q0 -303 -168 -518q-41 -53 -90 -94q-187 -158 -463 -158q-342 0 -543 240q-178 213 -178 542q0 377 227 596q195 187 492 187zM797 1350q-267 0 -414 -209q-115 -162 -115 -406q0 -323 195 -493
q137 -121 336 -121q264 0 411 205q119 159 119 401q0 338 -201 508q-135 115 -331 115zM1079 1843v-143h-561v143h561z" />
    <glyph glyph-name="omacron" unicode="&#x14d;" 
d="M557 1104q311 0 428 -264q59 -133 59 -320q0 -342 -208 -487q-115 -80 -277 -80q-295 0 -418 244q-67 135 -67 331q0 357 215 500q112 76 268 76zM559 946q-190 0 -268 -188q-39 -96 -39 -230q0 -280 160 -378q63 -39 147 -39q184 0 264 180q43 96 43 231q0 297 -168 391
q-61 33 -139 33zM840 1436v-144h-561v144h561z" />
    <glyph glyph-name="Obreve" unicode="&#x14e;" horiz-adv-x="1593" 
d="M490 1851h121q16 -135 188 -135q158 0 184 117l2 18h121q-22 -276 -311 -276q-176 0 -262 116l-4 7q-37 55 -39 153zM797 1518q356 0 555 -252l2 -2l4 -4q123 -162 153 -396q9 -67 9 -141q0 -303 -168 -518q-41 -53 -90 -94q-187 -158 -463 -158q-342 0 -543 240
q-178 213 -178 542q0 377 227 596q195 187 492 187zM797 1350q-267 0 -414 -209q-115 -162 -115 -406q0 -323 195 -493q137 -121 336 -121q264 0 411 205q119 159 119 401q0 338 -201 508q-135 115 -331 115z" />
    <glyph glyph-name="obreve" unicode="&#x14f;" 
d="M250 1431h121q16 -135 188 -135q158 0 184 117l2 18h121q-22 -276 -311 -276q-176 0 -262 116l-4 7q-37 55 -39 153zM557 1104q311 0 428 -264q59 -133 59 -320q0 -342 -208 -487q-115 -80 -277 -80q-295 0 -418 244q-67 135 -67 331q0 357 215 500q112 76 268 76z
M559 946q-190 0 -268 -188q-39 -96 -39 -230q0 -280 160 -378q63 -39 147 -39q184 0 264 180q43 96 43 231q0 297 -168 391q-61 33 -139 33z" />
    <glyph glyph-name="Ohungarumlaut" unicode="&#x150;" horiz-adv-x="1593" 
d="M797 1518q356 0 555 -252l2 -2l4 -4q123 -162 153 -396q9 -67 9 -141q0 -303 -168 -518q-41 -53 -90 -94q-187 -158 -463 -158q-342 0 -543 240q-178 213 -178 542q0 377 227 596q195 187 492 187zM797 1350q-267 0 -414 -209q-115 -162 -115 -406q0 -323 195 -493
q137 -121 336 -121q264 0 411 205q119 159 119 401q0 338 -201 508q-135 115 -331 115zM745 1923h232l-305 -307h-123zM1102 1923h231l-305 -307h-123z" />
    <glyph glyph-name="ohungarumlaut" unicode="&#x151;" 
d="M557 1104q311 0 428 -264q59 -133 59 -320q0 -342 -208 -487q-115 -80 -277 -80q-295 0 -418 244q-67 135 -67 331q0 357 215 500q112 76 268 76zM559 946q-190 0 -268 -188q-39 -96 -39 -230q0 -280 160 -378q63 -39 147 -39q184 0 264 180q43 96 43 231q0 297 -168 391
q-61 33 -139 33zM489 1516h232l-305 -308h-123zM846 1516h231l-305 -308h-123z" />
    <glyph glyph-name="OE" unicode="&#x152;" horiz-adv-x="2048" 
d="M1266 670v-502h698v-168h-889v152q-133 -189 -377 -193q-268 0 -432 188q-178 205 -178 582q0 422 211 629q139 139 354 158q15 2 31 2h16q248 0 375 -181v156h879v-168h-688v-487h671v-168h-671zM1075 373v731q-121 246 -375 246q-206 0 -317 -160q-104 -156 -104 -453
q0 -295 104 -450q111 -160 315 -160q256 0 377 246z" />
    <glyph glyph-name="oe" unicode="&#x153;" horiz-adv-x="1933" 
d="M1647 326h172q-45 -246 -254 -334q-90 -39 -203 -39q-254 0 -385 190l-12 21q-127 -209 -398 -211q-317 0 -432 272q-53 127 -53 305q0 394 250 523q100 51 235 51q277 0 402 -217q110 180 321 211l74 6q235 0 369 -168q41 -51 65 -115q43 -110 43 -342h-790
q2 -147 57 -229q88 -139 258 -139q209 0 281 215zM567 946q-190 0 -268 -190q-33 -80 -39 -189v-37q0 -284 162 -380q63 -39 145 -39q187 0 267 182q40 96 40 231q0 293 -165 387q-35 19 -74 27zM1055 618h602q0 191 -133 281q-70 47 -162 47q-174 0 -258 -153
q-41 -74 -49 -175z" />
    <glyph glyph-name="Racute" unicode="&#x154;" horiz-adv-x="1478" 
d="M381 643v-643h-191v1493h689q348 0 432 -246q22 -67 22 -153q0 -201 -147 -306q-39 -26 -88 -51q127 -55 166 -137q34 -76 36 -252q5 -196 39 -252q19 -26 52 -49v-47h-232q-43 98 -43 244l2 133q0 223 -164 258q-36 8 -82 8h-491zM381 811h461q248 0 284 176q9 35 9 80
q0 135 -78 201q-66 57 -215 57h-461v-514zM784 1923h232l-305 -303h-123z" />
    <glyph glyph-name="racute" unicode="&#x155;" horiz-adv-x="681" 
d="M141 1073h158v-194q51 84 100 135q86 90 193 90h22l43 -6v-174q-147 -2 -211 -45q-4 -2 -8 -5l-4 -4q-121 -88 -121 -313v-557h-172v1073zM446 1516h232l-305 -304h-123z" />
    <glyph glyph-name="Rcommaaccent" unicode="&#x156;" horiz-adv-x="1478" 
d="M381 643v-643h-191v1493h689q348 0 432 -246q22 -67 22 -153q0 -201 -147 -306q-39 -26 -88 -51q127 -55 166 -137q34 -76 36 -252q5 -196 39 -252q19 -26 52 -49v-47h-232q-43 98 -43 244l2 133q0 223 -164 258q-36 8 -82 8h-491zM381 811h461q248 0 284 176q9 35 9 80
q0 135 -78 201q-66 57 -215 57h-461v-514zM653 -123h205v-211q0 -180 -121 -231q-37 -17 -84 -17v78q117 0 113 176h-113v205z" />
    <glyph glyph-name="rcommaaccent" unicode="&#x157;" horiz-adv-x="681" 
d="M141 1073h158v-194q51 84 100 135q86 90 193 90h22l43 -6v-174q-147 -2 -211 -45q-4 -2 -8 -5l-4 -4q-121 -88 -121 -313v-557h-172v1073zM133 -123h205v-211q0 -180 -121 -231q-37 -17 -84 -17v78q117 0 113 168v8h-113v205z" />
    <glyph glyph-name="Rcaron" unicode="&#x158;" horiz-adv-x="1478" 
d="M381 643v-643h-191v1493h689q348 0 432 -246q22 -67 22 -153q0 -201 -147 -306q-39 -26 -88 -51q127 -55 166 -137q34 -76 36 -252q5 -196 39 -252q19 -26 52 -49v-47h-232q-43 98 -43 244l2 133q0 223 -164 258q-36 8 -82 8h-491zM381 811h461q248 0 284 176q9 35 9 80
q0 135 -78 201q-66 57 -215 57h-461v-514zM827 1618h-194l-197 307h129l166 -196l162 196h131z" />
    <glyph glyph-name="rcaron" unicode="&#x159;" horiz-adv-x="681" 
d="M141 1073h158v-194q51 84 100 135q86 90 193 90h22l43 -6v-174q-147 -2 -211 -45q-4 -2 -8 -5l-4 -4q-121 -88 -121 -313v-557h-172v1073zM489 1210h-194l-197 308h129l166 -197l162 197h131z" />
    <glyph glyph-name="Sacute" unicode="&#x15a;" horiz-adv-x="1366" 
d="M1221 1055h-181q-2 227 -225 286q-65 17 -147 17q-213 0 -297 -127v0q-37 -55 -37 -125q0 -115 110 -172q52 -27 136 -49l374 -101q246 -67 303 -266q15 -51 15 -108v-29q-12 -172 -137 -291l-27 -22q-150 -115 -420 -115q-346 0 -502 213q-86 117 -88 309h181
q-3 -133 77 -229q105 -125 344 -125q183 0 275 63q92 66 104 181q2 6 2 14v12q0 156 -225 227q-22 9 -49 15l-371 98q-291 76 -293 348q0 254 213 369q131 70 318 70q360 0 489 -228q58 -100 58 -235zM741 1923h232l-305 -303h-123z" />
    <glyph glyph-name="sacute" unicode="&#x15b;" horiz-adv-x="1024" 
d="M897 774h-180q-6 172 -215 172q-168 0 -215 -100q-13 -27 -13 -62q0 -92 136 -137l63 -16l164 -39q242 -57 289 -201q14 -43 14 -98q0 -197 -184 -287q-107 -53 -258 -53q-398 0 -426 332l-2 34h180q12 -96 49 -137q68 -71 213 -71q172 0 229 96q21 31 21 72
q0 94 -111 133q-18 6 -39 12h-2l-14 4l-160 39q-243 59 -307 164q-18 33 -27 76l-6 69q0 191 172 277q101 51 240 51q297 0 369 -207q20 -55 20 -123zM563 1516h232l-306 -304h-122z" />
    <glyph glyph-name="Scircumflex" unicode="&#x15c;" horiz-adv-x="1366" 
d="M590 1928h194l197 -308h-129l-166 197l-162 -197h-131zM1221 1055h-181q-2 227 -225 286q-65 17 -147 17q-213 0 -297 -127v0q-37 -55 -37 -125q0 -115 110 -172q52 -27 136 -49l374 -101q246 -67 303 -266q15 -51 15 -108v-29q-12 -172 -137 -291l-27 -22
q-150 -115 -420 -115q-346 0 -502 213q-86 117 -88 309h181q-3 -133 77 -229q105 -125 344 -125q183 0 275 63q92 66 104 181q2 6 2 14v12q0 156 -225 227q-22 9 -49 15l-371 98q-291 76 -293 348q0 254 213 369q131 70 318 70q360 0 489 -228q58 -100 58 -235z" />
    <glyph glyph-name="scircumflex" unicode="&#x15d;" horiz-adv-x="1024" 
d="M414 1463h194l197 -308h-129l-166 197l-162 -197h-131zM897 774h-180q-6 172 -215 172q-168 0 -215 -100q-13 -27 -13 -62q0 -92 136 -137l63 -16l164 -39q242 -57 289 -201q14 -43 14 -98q0 -197 -184 -287q-107 -53 -258 -53q-398 0 -426 332l-2 34h180q12 -96 49 -137
q68 -71 213 -71q172 0 229 96q21 31 21 72q0 94 -111 133q-18 6 -39 12h-2l-14 4l-160 39q-243 59 -307 164q-18 33 -27 76l-6 69q0 191 172 277q101 51 240 51q297 0 369 -207q20 -55 20 -123z" />
    <glyph glyph-name="Scedilla" unicode="&#x15e;" horiz-adv-x="1366" 
d="M686 -49l-31 -66l47 4h11q143 0 159 -112l2 -25q0 -129 -135 -174q-51 -16 -116 -16l-58 4q-65 8 -198 65l43 82l18 -8q102 -51 154 -57l28 -2q78 0 105 59q6 14 6 33q0 67 -94 76q-13 0 -64 -15l35 13v0l-35 -13l-22 13l63 141l-22 6l-90 14q-240 52 -340 252
q-58 113 -54 250h181q-3 -133 77 -229q105 -125 344 -125q183 0 275 63q92 66 104 181q2 6 2 14v12q0 156 -225 227q-22 9 -49 15l-371 98q-291 76 -293 348q0 254 213 369q131 70 318 70q360 0 489 -228q58 -100 58 -235h-181q-2 227 -225 286q-65 17 -147 17
q-213 0 -297 -127v0q-37 -55 -37 -125q0 -115 110 -172q52 -27 136 -49l374 -101q246 -67 303 -266q15 -51 15 -108q0 -193 -146 -324q-57 -53 -129 -82l-8 -2q-110 -43 -303 -51z" />
    <glyph glyph-name="scedilla" unicode="&#x15f;" horiz-adv-x="1024" 
d="M500 -49l-29 -66l47 4h10q144 0 160 -112l2 -25q0 -129 -135 -174q-51 -16 -117 -16l-57 4q-66 8 -199 65l43 82l19 -8q102 -51 153 -57l29 -2q78 0 104 59q7 14 7 33q0 67 -95 76l-32 -4l-31 -11l-23 13l64 145q-344 35 -350 362h180q12 -96 49 -137q68 -71 213 -71
q172 0 229 96q21 31 21 72q0 94 -111 133q-18 6 -39 12h-2l-14 4l-160 39q-243 59 -307 164q-18 33 -27 76l-6 69q0 191 172 277q101 51 240 51q297 0 369 -207q20 -55 20 -123h-180q-6 172 -215 172q-168 0 -215 -100q-13 -27 -13 -62q0 -92 136 -137l63 -16l164 -39
q242 -57 289 -201q14 -43 14 -98q0 -162 -133 -258q-33 -23 -68 -39q-77 -35 -239 -45z" />
    <glyph glyph-name="Scaron" unicode="&#x160;" horiz-adv-x="1366" 
d="M1221 1055h-181q-2 227 -225 286q-65 17 -147 17q-213 0 -297 -127v0q-37 -55 -37 -125q0 -115 110 -172q52 -27 136 -49l374 -101q246 -67 303 -266q15 -51 15 -108v-29q-12 -172 -137 -291l-27 -22q-150 -115 -420 -115q-346 0 -502 213q-86 117 -88 309h181
q-3 -133 77 -229q105 -125 344 -125q183 0 275 63q92 66 104 181q2 6 2 14v12q0 156 -225 227q-22 9 -49 15l-371 98q-291 76 -293 348q0 254 213 369q131 70 318 70q360 0 489 -228q58 -100 58 -235zM778 1618h-194l-197 307h129l166 -196l162 196h131z" />
    <glyph glyph-name="scaron" unicode="&#x161;" horiz-adv-x="1024" 
d="M897 774h-180q-6 172 -215 172q-168 0 -215 -100q-13 -27 -13 -62q0 -92 136 -137l63 -16l164 -39q242 -57 289 -201q14 -43 14 -98q0 -197 -184 -287q-107 -53 -258 -53q-398 0 -426 332l-2 34h180q12 -96 49 -137q68 -71 213 -71q172 0 229 96q21 31 21 72
q0 94 -111 133q-18 6 -39 12h-2l-14 4l-160 39q-243 59 -307 164q-18 33 -27 76l-6 69q0 191 172 277q101 51 240 51q297 0 369 -207q20 -55 20 -123zM602 1210h-194l-197 308h129l166 -197l162 197h131z" />
    <glyph glyph-name="Tcedilla" unicode="&#x162;" horiz-adv-x="1251" 
d="M600 0h78l-47 -115l51 4h6q143 0 160 -112l2 -25q0 -129 -135 -174q-52 -16 -117 -16l-64 4q-49 6 -118 35l-74 30l43 82l18 -8q101 -51 148 -57l35 -2q77 0 104 59q6 14 6 33q0 67 -94 76l-33 -4l-31 -13l-24 15zM725 1325v-1325h-190v1325h-492v168h1171v-168h-489z
" />
    <glyph glyph-name="tcedilla" unicode="&#x163;" horiz-adv-x="569" 
d="M350 -46h78l-47 -115l51 4h6q143 0 160 -112l2 -25q0 -129 -135 -174q-52 -16 -117 -16l-64 4q-49 6 -118 35l-74 30l43 82l18 -8q101 -51 148 -57l35 -2q77 0 104 59q6 14 6 33q0 67 -94 76l-33 -4l-31 -13l-24 15zM520 1073v-139h-176v-735q0 -78 45 -90l49 -7
q51 0 82 9v-144q-80 -14 -139 -14q-182 0 -205 137l-2 33v811h-145v139h145v295h170v-295h176z" />
    <glyph glyph-name="Tcaron" unicode="&#x164;" horiz-adv-x="1251" 
d="M725 1325v-1325h-190v1325h-492v168h1171v-168h-489zM727 1618h-195l-196 307h129l166 -196l162 196h131z" />
    <glyph glyph-name="tcaron" unicode="&#x165;" horiz-adv-x="630" 
d="M520 1073v-139h-176v-735q0 -78 45 -90l49 -7q51 0 82 9v-144q-80 -14 -139 -14q-182 0 -205 137l-2 33v811h-145v139h145v295h170v-295h176zM453 1638h204v-211q0 -155 -98 -221q-41 -26 -90 -26h-16v77q116 0 112 177h-112v204z" />
    <glyph glyph-name="Tbar" unicode="&#x166;" horiz-adv-x="1251" 
d="M725 1325v-1325h-190v1325h-492v168h1171v-168h-489z" />
    <glyph glyph-name="tbar" unicode="&#x167;" horiz-adv-x="569" 
d="M520 1073v-139h-176v-735q0 -78 45 -90l49 -7q51 0 82 9v-144q-80 -14 -139 -14q-182 0 -205 137l-2 33v811h-145v139h145v295h170v-295h176z" />
    <glyph glyph-name="Utilde" unicode="&#x168;" horiz-adv-x="1478" 
d="M951 1787h118q-30 -213 -182 -213h-16q-19 2 -41 9l-117 43q-72 26 -100 26q-47 0 -68 -76h-119q33 191 154 209l22 2l33 -2q27 -4 111 -36l24 -11q68 -26 105 -26q51 0 76 75zM1130 1493h191v-1049q0 -266 -213 -399q-147 -92 -363 -92q-337 0 -487 207q-82 116 -84 284
v1049h191v-1049q0 -161 108 -245q109 -78 272 -78q252 0 345 162q38 67 40 161v1049z" />
    <glyph glyph-name="utilde" unicode="&#x169;" 
d="M762 1368h118q-30 -213 -182 -213h-16q-19 2 -41 9l-117 43q-72 26 -100 26q-47 0 -68 -76h-119q33 191 154 209l22 2l33 -2q27 -4 111 -36l24 -11q68 -26 105 -26q51 0 76 75zM987 0h-153v150q-115 -162 -267 -189q-41 -8 -92 -8q-219 0 -303 143q-39 64 -39 150v827
h170v-760q0 -143 121 -192q43 -19 100 -19q174 0 252 160q41 86 41 203v608h170v-1073z" />
    <glyph glyph-name="Umacron" unicode="&#x16a;" horiz-adv-x="1478" 
d="M1130 1493h191v-1049q0 -266 -213 -399q-147 -92 -363 -92q-337 0 -487 207q-82 116 -84 284v1049h191v-1049q0 -161 108 -245q109 -78 272 -78q252 0 345 162q38 67 40 161v1049zM1028 1843v-143h-561v143h561z" />
    <glyph glyph-name="umacron" unicode="&#x16b;" 
d="M987 0h-153v150q-115 -162 -267 -189q-41 -8 -92 -8q-219 0 -303 143q-39 64 -39 150v827h170v-760q0 -143 121 -192q43 -19 100 -19q174 0 252 160q41 86 41 203v608h170v-1073zM842 1436v-144h-561v144h561z" />
    <glyph glyph-name="Ubreve" unicode="&#x16c;" horiz-adv-x="1478" 
d="M439 1851h121q16 -135 188 -135q158 0 184 117l2 18h121q-22 -276 -311 -276q-176 0 -262 116l-4 7q-37 55 -39 153zM1130 1493h191v-1049q0 -266 -213 -399q-147 -92 -363 -92q-337 0 -487 207q-82 116 -84 284v1049h191v-1049q0 -161 108 -245q109 -78 272 -78
q252 0 345 162q38 67 40 161v1049z" />
    <glyph glyph-name="ubreve" unicode="&#x16d;" 
d="M252 1431h121q16 -135 188 -135q158 0 184 117l2 18h121q-22 -276 -311 -276q-176 0 -262 116l-4 7q-37 55 -39 153zM987 0h-153v150q-115 -162 -267 -189q-41 -8 -92 -8q-219 0 -303 143q-39 64 -39 150v827h170v-760q0 -143 121 -192q43 -19 100 -19q174 0 252 160
q41 86 41 203v608h170v-1073z" />
    <glyph glyph-name="Uring" unicode="&#x16e;" horiz-adv-x="1478" 
d="M1130 1493h191v-1049q0 -266 -213 -399q-147 -92 -363 -92q-337 0 -487 207q-82 116 -84 284v1049h191v-1049q0 -161 108 -245q109 -78 272 -78q252 0 345 162q38 67 40 161v1049zM748 1952q102 0 155 -88v0q25 -41 25 -92q0 -101 -88 -154q-43 -25 -92 -25
q-99 0 -154 86q-27 43 -27 95q0 96 86 151q43 27 95 27zM748 1862q-60 0 -84 -56l-7 -32q0 -60 56 -82l35 -9q59 0 83 56l7 33q0 63 -58 83q-16 7 -32 7z" />
    <glyph glyph-name="uring" unicode="&#x16f;" 
d="M987 0h-153v150q-115 -162 -267 -189q-41 -8 -92 -8q-219 0 -303 143q-39 64 -39 150v827h170v-760q0 -143 121 -192q43 -19 100 -19q174 0 252 160q41 86 41 203v608h170v-1073zM559 1544q103 0 156 -88v0q24 -41 24 -92q0 -100 -88 -154q-43 -24 -92 -24q-98 0 -153 86
q-27 43 -27 94q0 96 86 152q43 26 94 26zM559 1454q-59 0 -84 -55l-6 -33q0 -59 55 -84l35 -6q59 0 84 55l6 33q0 63 -57 84q-17 6 -33 6z" />
    <glyph glyph-name="Uhungarumlaut" unicode="&#x170;" horiz-adv-x="1478" 
d="M1130 1493h191v-1049q0 -266 -213 -399q-147 -92 -363 -92q-337 0 -487 207q-82 116 -84 284v1049h191v-1049q0 -161 108 -245q109 -78 272 -78q252 0 345 162q38 67 40 161v1049zM674 1923h231l-305 -307h-123zM1030 1923h232l-306 -307h-122z" />
    <glyph glyph-name="uhungarumlaut" unicode="&#x171;" 
d="M987 0h-153v150q-115 -162 -267 -189q-41 -8 -92 -8q-219 0 -303 143q-39 64 -39 150v827h170v-760q0 -143 121 -192q43 -19 100 -19q174 0 252 160q41 86 41 203v608h170v-1073zM498 1516h231l-305 -308h-123zM854 1516h231l-305 -308h-123z" />
    <glyph glyph-name="Uogonek" unicode="&#x172;" horiz-adv-x="1478" 
d="M1233 -307v-92l-62 -11l-92 -10q-39 0 -86 10q-28 7 -57 17q-127 49 -129 164q0 96 92 170q25 18 57 39q-82 -19 -129 -23q-34 -4 -77 -4q-344 0 -494 209q-82 117 -82 282v1049h191v-1049q0 -161 108 -245q109 -78 272 -78q252 0 345 162q38 67 40 161v1049h191v-1049
q0 -172 -102 -309l-19 -22q-2 -4 -6 -9q-16 -18 -55 -57v0l-2 -2v0l-2 -2l-45 -43q-132 -125 -134 -217q0 -111 148 -111q76 0 129 21z" />
    <glyph glyph-name="uogonek" unicode="&#x173;" 
d="M987 1073v-1073q-121 -68 -151 -174l-7 -47q0 -82 93 -103q20 -4 45 -4l28 2q23 2 47 11h2l23 8v-92l-27 -7l-61 -12h-18q-197 0 -259 111q-20 35 -20 80q0 125 188 223q4 2 9 4h-45v150q-115 -162 -267 -189q-41 -8 -92 -8q-219 0 -303 143q-39 64 -39 150v827h170v-760
q0 -143 121 -192q43 -19 100 -19q174 0 252 160q41 86 41 203v608h170z" />
    <glyph glyph-name="Wcircumflex" unicode="&#x174;" horiz-adv-x="1933" 
d="M877 1883h194l197 -308h-129l-166 197l-162 -197h-131zM1524 0h-209l-344 1227l-334 -1227h-209l-383 1493h213l281 -1212l331 1212h205l340 -1212l275 1212h213z" />
    <glyph glyph-name="wcircumflex" unicode="&#x175;" horiz-adv-x="1478" 
d="M633 1463h194l197 -308h-129l-166 197l-162 -197h-131zM1135 0h-195l-217 842l-207 -842h-192l-312 1073h189l219 -835l205 835h209l210 -835l213 835h193z" />
    <glyph glyph-name="Ycircumflex" unicode="&#x176;" horiz-adv-x="1366" 
d="M592 1883h194l197 -308h-129l-166 197l-162 -197h-131zM793 586v-586h-191v586l-575 907h235l438 -727l426 727h228z" />
    <glyph glyph-name="ycircumflex" unicode="&#x177;" horiz-adv-x="1024" 
d="M412 1463h194l197 -308h-129l-166 197l-162 -197h-131zM795 1073h184l-477 -1298l-8 -19v-2q-41 -100 -109 -149q-53 -39 -123 -49q-18 -2 -37 -2q-63 0 -114 26v154q55 -13 90 -13q92 0 129 82l8 23l65 170l-362 1077h182l275 -835z" />
    <glyph glyph-name="Ydieresis" unicode="&#x178;" horiz-adv-x="1366" 
d="M793 586v-586h-191v586l-575 907h235l438 -727l426 727h228zM639 1872v-211h-213v211h213zM971 1872v-211h-213v211h213z" />
    <glyph glyph-name="Zacute" unicode="&#x179;" horiz-adv-x="1251" 
d="M1190 1493v-172l-893 -1153h897v-168h-1137v168l897 1157h-839v168h1075zM711 1923h231l-305 -303h-123z" />
    <glyph glyph-name="zacute" unicode="&#x17a;" horiz-adv-x="1024" 
d="M907 1073v-151l-637 -772h666v-150h-873v154l642 770h-599v149h801zM569 1516h232l-305 -304h-123z" />
    <glyph glyph-name="Zdotaccent" unicode="&#x17b;" horiz-adv-x="1251" 
d="M1190 1493v-172l-893 -1153h897v-168h-1137v168l897 1157h-839v168h1075zM760 1874v-213h-213v213h213z" />
    <glyph glyph-name="zdotaccent" unicode="&#x17c;" horiz-adv-x="1024" 
d="M907 1073v-151l-637 -772h666v-150h-873v154l642 770h-599v149h801zM621 1466v-213h-213v213h213z" />
    <glyph glyph-name="Zcaron" unicode="&#x17d;" horiz-adv-x="1251" 
d="M1190 1493v-172l-893 -1153h897v-168h-1137v168l897 1157h-839v168h1075zM750 1618h-195l-197 307h129l166 -196l162 196h131z" />
    <glyph glyph-name="zcaron" unicode="&#x17e;" horiz-adv-x="1024" 
d="M907 1073v-151l-637 -772h666v-150h-873v154l642 770h-599v149h801zM610 1210h-194l-197 308h129l166 -197l162 197h131z" />
    <glyph glyph-name="longs" unicode="&#x17f;" horiz-adv-x="569" 
d="M350 0h-170v934h-143v139h143v182q0 181 152 230q45 14 100 14l41 -2l55 -8v-141l-51 2h-8q-117 0 -119 -109v-1241z" />
    <glyph glyph-name="uni0964" unicode="&#x964;" horiz-adv-x="914" 
d="M590 -21l-51 40l2 1105l123 -64v-1123z" />
    <glyph glyph-name="uni0965" unicode="&#x965;" horiz-adv-x="942" 
d="M499 -36l-50 38l-27 44l-7 45q-2 20 -3 41l-3 42q-1 20 -1 45v641q-1 10 -2.5 42t-3 69.5t-6 70.5t-11.5 44l-25 67l77 -34q1 -1 6.5 -5t11.5 -9l11 -7q6 -4 7 -4l29 -28q13 -15 17 -22.5t7 -26.5l6 -49v-814l3 -54q3 -27 3 -37q0 -8 0.5 -14t2 -16.5t7.5 -40.5l22 -57z
M745 -36l-50 38l-27 44l-6 45q-3 20 -4 41l-3 42q-1 20 -1 45v641q-1 10 -2.5 42t-3 69.5t-6 70.5t-11.5 44l-25 67l77 -34q1 -1 6.5 -5t11.5 -9l12 -7q5 -4 6 -4l29 -28q13 -15 17 -22.5t7 -26.5l6 -49v-814l3 -54q3 -27 3 -37q0 -8 0.5 -14t2 -16.5t7.5 -40.5l22 -57z" />
    <glyph glyph-name="bn_chandrabindu" unicode="&#x981;" horiz-adv-x="2" 
d="M-472 1837q18 29 59 29q30 0 54 -19.5t24 -49.5q0 -9 -1 -14.5t-4 -11.5q0 -24 -19 -45.5t-49 -29.5q-58 -7 -89 50l-5 27l8 34zM-167 1743q0 -110 -69 -194q-70 -81 -169.5 -81t-187.5 78q-60 56 -113 162l-24 65q-3 17 -9 31.5t-16 29.5l30 3q27 0 40 -7l49 -99
q18 -26 38.5 -46t41.5 -35l77 -38l61 -9l40 7q29 5 56.5 23t51.5 51l54 128q10 0 15 -1.5t11 -3.5l18 -17z" />
    <glyph glyph-name="bn_anusvar" unicode="&#x982;" horiz-adv-x="739" 
d="M546 723q-30 -31 -71.5 -53t-85.5 -22q-100 0 -190 98q-84 106 -84 218q0 54 18.5 99t63.5 80q75 61 159 61q107 0 185 -85q41 -42 61 -93t20 -108q0 -28 -5 -52.5t-15 -48.5q-7 -23 -21.5 -46.5t-34.5 -47.5zM696 -100l-199 164l-126 96q-61 48 -114 85t-97 63v277
l130 -113l52 -44l101 -98q20 -21 80 -89l160 -186l157 -190v-105zM420 819q26 18 44 34.5t29 32t17 31t8 32.5q0 18 -12.5 33.5t-33.5 27t-46 17.5t-50 6q-71 0 -104 -31q-61 -57 -61 -153q0 -91 72 -91q25 0 60 15t77 46z" />
    <glyph glyph-name="bn_bisarga" unicode="&#x983;" horiz-adv-x="769" 
d="M629 733q-21 -21 -39.5 -35t-38.5 -24l-40 -14l-44 -5q-105 0 -190 96q-42 50 -63.5 103.5t-21.5 114.5q0 19 0.5 32t2.5 24t6 22.5t13 29.5t27 36.5t42 39.5q84 62 167 62q103 0 184 -84q81 -81 81 -192q0 -113 -86 -206zM619 15q-14 -17 -32.5 -30t-40.5 -26
q-19 -7 -39.5 -12.5t-44.5 -9.5q-50 0 -96 24t-89 75q-80 98 -80 218q0 61 20.5 109.5t72.5 87.5q74 59 162 59q102 0 179 -84t77 -195q0 -21 -0.5 -35.5t-3 -26t-6 -22.5t-10.5 -26q-10 -25 -27.5 -51.5t-41.5 -54.5zM506 819q101 72 101 133q0 22 -12.5 39t-33.5 29
t-48 18.5t-56 6.5q-63 0 -93 -27q-66 -51 -66 -157q0 -42 15.5 -65.5t59.5 -30.5q28 0 61.5 13.5t71.5 40.5zM516 97q42 35 63 69t28 71q0 25 -16 47t-41.5 37t-56.5 23t-61 8q-22 0 -41.5 -5t-36.5 -17q-18 -18 -40 -66q-14 -44 -14 -92q0 -26 6 -50.5t17 -43t27.5 -29.5
t38.5 -11q17 0 30 3t26 9z" />
    <glyph glyph-name="bn_a" unicode="&#x985;" horiz-adv-x="1460" 
d="M1285 1148v-1255l-47 61l-14 40l-12 42l-20 73l-22 47l-66 110l-55 84q-11 14 -27 31t-39 35q-22 -38 -55 -72.5t-72.5 -60t-85 -41.5t-92.5 -16l-54 3q-19 0 -56 18q-102 37 -167 83q-28 24 -73.5 79t-106.5 143q-24 34 -53.5 100t-64.5 165t-55 166t-29 101l77 -31
l86 -234q8 -23 21 -50t33 -58l54 -77q58 -57 108.5 -95.5t93.5 -61.5q89 -38 191 -38q53 0 92 15t64 42t37.5 63.5t12.5 79.5q0 46 -10 88.5t-27.5 75.5t-39.5 53t-48 20q-15 0 -44 -38q-60 -85 -108 -85q-90 0 -140 34q-69 41 -69 119q0 33 29 108q7 18 23.5 30.5t36 20
t43 11.5t45.5 4q145 0 262 -89l35 -36l45 -52q50 -60 74 -144t24 -171l143 -248v808h-1163l-122 124h1560l124 -124h-277z" />
    <glyph glyph-name="bn_aa" unicode="&#x986;" horiz-adv-x="1904" 
d="M1325 1148h-40v-1255l-47 61l-14 40l-12 42l-20 73l-22 47l-66 110l-55 84q-11 14 -27 31t-39 35q-22 -38 -55 -72.5t-72.5 -60t-85 -41.5t-92.5 -16l-54 3q-19 0 -56 18q-54 18 -95 38.5t-72 44.5q-58 46 -180 222q-24 34 -53.5 101t-64.5 169l-56 166q-22 65 -28 96
l77 -31l86 -234q8 -23 21 -50t33 -58l54 -77q59 -57 109 -96.5t93 -60.5q82 -38 191 -38q53 0 92 15t64 42t37.5 63.5t12.5 79.5q0 46 -10 88.5t-27.5 75.5t-39.5 53t-48 20q-15 0 -44 -38q-60 -85 -108 -85q-86 0 -140 34q-69 41 -69 119q0 37 29 108q7 18 23.5 30.5t36 20
t43 11.5t45.5 4q148 0 262 -89l35 -36l45 -52q50 -61 74 -141t24 -174l143 -248v808h-1163l-122 124h1323h37l72 -3l88 -7q126 -16 185 -157l21 -47l21 -52l14 -51l-39 279l-10 148v54q0 18 -1 32.5t-4 23.5l49 -39l10 -64l10 -39l13 -27l26 -35l15 -16h150l122 -124h-272
v-1288l-118 126v838v42v42q0 18 -1 30.5t-4 18.5q-3 28 -11 47.5t-21 33.5l-59 61q-17 15 -38.5 26t-46.5 18z" />
    <glyph glyph-name="bn_i" unicode="&#x987;" horiz-adv-x="1153" 
d="M530 1148l23 -56l31 -29l54 -23l47 -12q102 -29 175 -140q74 -106 74 -214l-3 -24q0 -49 -22 -99t-66.5 -95.5t-109.5 -84t-151 -63.5l47 -42q98 -59 169.5 -110.5t115.5 -93.5l188 -172l38 -166q-90 102 -201.5 188t-242.5 162q-76 43 -134 71.5t-100 44.5
q-41 17 -105 37t-153 44l-148 307q38 -22 80 -40.5t90 -32.5l91 -18l91 -7q42 0 73 4t52 14l114 44q17 11 45.5 36t69.5 67q19 27 19 66q0 24 -5.5 49.5t-18.5 49.5q-24 55 -72 73q-45 23 -75 23q-14 0 -27.5 -2.5t-26.5 -8.5q0 -69 -42 -118l-59 -59q-61 -46 -133 -46
q-22 0 -46 5t-48 17q-35 22 -46 76q-12 43 32 113l30 42l44 51q11 10 41.5 24.5t80.5 32.5q41 11 45 20q8 16 -33 57l-44 38h-378l-120 124h805l25 4l57 3q41 7 73 56l11 25q0 27 -72 54q-35 14 -70 19t-67 5l-103 -2h-75l-61 -10q-20 0 -32.5 -1t-18.5 -3h-35
q-79 0 -157 22t-136 76q-17 14 -32 34.5t-26.5 44t-18 47.5t-6.5 46q0 24 3 40.5t9 27.5q7 26 28 49l17 7l37 6h19l14 -3q-58 -37 -58 -103l7 -52q3 -16 67 -48l78 -25l35 -3l174 15l219 7q128 0 198 -49q66 -36 106 -97q49 -71 49 -161l-2 -31h180l123 -124h-714z" />
    <glyph glyph-name="bn_ii" unicode="&#x988;" horiz-adv-x="1261" 
d="M1320 1148h-912q-2 -2 -2 -5l-3 -2q-7 -10 -12 -29l7 -44l10 -18l32 -10q24 0 66 -22q47 -16 84 -61q36 -42 52.5 -67.5t22.5 -48t4.5 -46t3.5 -55.5l61 77l28 29l44 37l106 81q42 29 98 52l202 -133l-124 -125q-12 -12 -25.5 -34t-30.5 -52l-66 -143l-30 -101l-14 -94
l-5 -82q0 -75 9.5 -127.5t39.5 -116.5l22 -49l42 -73l-104 46l-56 170l-28 112q-14 89 -14 176q0 103 26 192.5t75 199.5q-5 -12 -59 -76l-145 -168q-81 -110 -138 -166q-95 -89 -196 -120q-111 0 -185 105q-9 10 -37 84q-5 15 -7 29l-5 35l5 19l49 44q30 -135 101 -135
l44 11q33 7 71 38l106 112l39 54l12 73q0 135 -75 155l-45 9q-19 0 -51 -24q5 -63 -29.5 -113.5t-103.5 -50.5q-66 0 -115.5 46t-49.5 113q0 34 16 69l26 49l54 42q40 24 59 29l35 8l-57 95h-258l-123 124h1031q63 19 63 91q0 29 -43 44t-95 15l-68 -3l-99 -13l-86 -5
l-101 -2h-47l-49 -5h-61q-24 0 -39 3.5t-45 14.5q-31 12 -66 39t-49 41l-34 40q-15 19 -25 42l-17 83q0 65 31 110l45 35l42 -49q-12 -17 -22.5 -37t-12.5 -44l7 -34l23 -33q14 -14 52 -29l75 -9l106 7l126 10l89 2h26l47 5q32 0 62.5 -2.5t57.5 -9.5q55 -5 110 -34.5
t72 -52.5q15 -14 28.5 -34t25.5 -44l19 -54l9 -60l-3 -28h144z" />
    <glyph glyph-name="bn_u" unicode="&#x989;" horiz-adv-x="1264" 
d="M607 1148v-364l17 -63l30 -24l31 -11q36 0 114 112q77 112 127 112l33 -7q17 -8 33 -19t30 -28l54 -84q30 -51 52 -108.5t22 -129.5q0 -48 -9 -101.5t-30 -114.5q-38 -122 -138 -192q-50 -35 -113.5 -53t-141.5 -18h-35l-22 2q-170 0 -295 143q-18 20 -54 79l-89 156
l-24 65l-44 120q-10 35 -22.5 101.5t-29.5 168.5l-21 185l73 -40q0 -48 9 -104.5t28 -120.5l59 -162q18 -54 43.5 -98.5t57.5 -81.5l91 -111q43 -45 147 -79q51 -14 106 -14q104 0 182 43t117 111l37 69l17 60l3 26q0 15 -4 35t-12 42.5t-20 44t-26 35.5q-7 -32 -90 -115
q-30 -27 -55 -48l-48 -36q-87 -47 -145 -47q-35 0 -62.5 11t-48.5 31q-38 42 -49 119l-5 39v88v376h-504l-119 124h959l96 39l30 24q0 18 -14.5 36.5t-39.5 33.5t-61 24t-79 9l-103 -2h-75l-61 -10q-20 0 -33 -1t-19 -3h-34q-80 0 -157 22t-135 76q-48 38 -67 85l-15 42
l-4 49q0 27 6.5 52t16 45t19.5 31.5t19 9.5l56 -25q-19 -14 -33 -33l-16 -50q0 -69 79 -110q51 -23 89 -23l98 3l125 4l96 5l96 5q47 0 103 -14q60 -11 96 -35q104 -51 140 -160l13 -56l2 -73h160l122 -124h-732z" />
    <glyph glyph-name="bn_uu" unicode="&#x98a;" horiz-adv-x="1379" 
d="M762 1148v-338v-104q0 -51 19 -51q66 14 126 71q39 31 70 65t55 73l52 61q18 0 37 -19q37 -34 64.5 -67t48.5 -64q34 -59 51 -119.5t17 -121.5q0 -48 -9 -100t-29 -109q-38 -108 -171 -202q-127 -87 -284 -87q-40 0 -85 10t-91 30t-93 48t-90 64q-103 80 -194 260
q-32 63 -65.5 151t-68.5 201l-19 92l-9 112l2 31h14l50 -49l14 -64l28 -120l21 -76l52 -138q13 -32 31 -61t38 -57q64 -97 101 -132l83 -70q-24 28 -48 65t-48 85l-71 167l-30 91l-21 122l-22 174v30q0 9 -1 18t-4 22l71 -51q0 -90 22 -181l37 -119l9 -36l23 -52l17 -44
l25 -40l34 -59l39 -54l76 -79q20 -14 44 -26.5t52 -24.5l52 -12l54 -5q39 0 79.5 9.5t78 27t72 41.5t60.5 53l44 56q10 14 17 36.5t16 51.5l2 34q0 21 -3.5 37.5t-9.5 33.5l-47 87q-7 -33 -98 -116q-53 -45 -85.5 -68.5t-55 -35t-40.5 -14t-42 -5.5q-66 0 -118 44
q-44 45 -52 89l-14 84l-6 96v348h-636l-122 124h1039h56q52 0 59 16l5 38q0 44 -54 68q-27 11 -37 14q-17 6 -34 8.5t-37 2.5l-84 3l-81 -8l-108 -13l-115 -5q-105 -1 -193 8t-155 29t-112 51t-64 77l-19 47q-4 9 -7 26t-5 41q0 44 21 101l28 33l31 -26l28 -37l7 -15
q-17 -26 -25 -44t-8 -30q0 -7 2.5 -18t11 -22.5t25.5 -23.5t45 -21l54 -11l74 -3h96l76 11l238 22q77 0 173 -15q97 -10 152 -39q57 -21 113 -106q56 -78 56 -159l35 -3h52h61l47 3l120 -124h-683z" />
    <glyph glyph-name="bn_ri" unicode="&#x98b;" horiz-adv-x="1487" 
d="M1250 1148v-992l-38 46q0 21 -30 87l-42 98q-18 39 -38.5 67t-44.5 48q-19 18 -50 38.5t-76 42.5v-592l-42 45l-43 122l-58 103q-20 30 -43.5 57.5t-50.5 55.5q-10 6 -18 13t-17 15l-40 26q-19 14 -42 28q-12 7 -29 15l-34 19q-18 9 -36 16.5t-33 12.5l-143 33l-128 183
l131 99l75 49l210 113l142 72q-13 16 -31 33.5t-42 34.5q-5 4 -14.5 9t-21.5 10.5t-25.5 9t-25.5 3.5q-7 -16 -36.5 -40t-80.5 -58q-52 -31 -92.5 -46t-72.5 -15q-54 0 -92 3.5t-60 13.5q-71 25 -96 115l-5 39q0 26 9.5 50.5t26.5 43.5t40 30.5t49 11.5q52 0 86 -37
q24 -40 24 -84q160 14 256 170q42 -20 81.5 -48.5t78.5 -62.5q33 -29 63 -69.5t58 -90.5v424l122 -122v-658l57 -39l51 -42q28 -24 50 -52.5t39 -60.5v965l110 -90l8 -147h190l125 -124h-311zM811 908q-31 -6 -57.5 -17t-47.5 -25l-87 -59l-47 -27l-46 -32l-78 -64l124 -74
l72 -58l78 -77q21 -22 41 -48l48 -65v546z" />
    <glyph glyph-name="bn_li" unicode="&#x98c;" horiz-adv-x="1102" 
d="M1022 470l3 -31q0 -79 -53 -177.5t-154 -169.5q-44 -30 -98 -53.5t-108 -39t-102 -23.5t-80 -8l72 119l44 113l10 78q0 23 6 42.5t-2 34.5q-4 12 -4 21v23q0 12 -4 24t-17 25l-56 57q-5 5 -32 17t-56 7q-11 -3 -32.5 -6.5t-46 -10.5t-45.5 -19.5t-31 -34.5
q-13 -30 -13 -54q0 -23 21 -35l31 3q56 0 80.5 -31t24.5 -82q0 -42 -14 -79q-22 -57 -94 -57q-33 0 -60 15t-57 42q-35 32 -43.5 71.5t-15.5 86.5l-2 54q9 68 24 110t34.5 68t49.5 40.5t70 26.5q16 8 40 12l46 7q22 4 43 5t37 1q64 0 121.5 -38.5t106.5 -94.5
q24 -29 33 -58.5t10 -60.5t-2.5 -64t-3.5 -66q0 -14 -7.5 -32.5t-16 -36.5t-18 -35.5t-14.5 -27.5l157 116q68 54 68 145q0 75 -31.5 139.5t-103.5 130.5l-118 108q-37 35 -77 61l-75 50q-37 27 -70 52.5t-57 60.5q-54 76 -54 139l2 35q12 49 41 87q11 9 31 21t45 22.5
t46 16.5t33 6q22 0 51.5 1t47 -5t16.5 -24.5t-41 -55.5q-12 -12 -29.5 -28t-29.5 -29q-20 -51 -12.5 -77t12.5 -38l40 -56l137 -99q76 -56 126.5 -104t102.5 -119l41 -55q18 -27 32 -52.5t25.5 -56t18.5 -70.5z" />
    <glyph glyph-name="bn_e" unicode="&#x98f;" horiz-adv-x="1426" 
d="M1156 -48q-12 7 -23 54q-11 50 -23.5 82.5t-29.5 53t-38 31.5t-47 20q-24 7 -50 12t-56 5l-75 -3l-104 -14l-126 -18l-90 -5q-67 0 -118.5 18.5t-105.5 53.5q-37 24 -64 56.5t-46 70.5l-42 106q-15 66 -15 143l3 86l19 78l44 94l37 63l50 -51l-33 -54q-21 -40 -21 -57
l-3 -24l-9 -98l2 -65l14 -66q15 -42 66 -96q35 -34 119 -56q42 -10 72.5 -15t62.5 -5l51 5l77 10l91 5q137 0 223 -42l123 -99v895q0 20 -36 27l-45 -7l-54 -22q-16 -6 -33 -17t-36 -25l-81 -66q-44 -35 -73 -81.5t-45 -122.5l64 7l45 -7q15 -4 41 -52q6 -13 9 -33l11 -48
q0 -30 -11 -55.5t-31 -45.5q-14 -14 -30.5 -23t-33.5 -13l-62 -6q-50 0 -88.5 17.5t-65 46t-39.5 64.5t-13 74l3 30q13 86 50.5 165t98.5 151q41 48 121 111l157 72l47 14l49 3q22 0 46 -10t48 -30l56 -54q28 -28 42.5 -53t14.5 -45v-1197z" />
    <glyph glyph-name="bn_ai" unicode="&#x990;" horiz-adv-x="1487" 
d="M1414 1141q0 -180 -161 -280q-13 -9 -27.5 -27t-31.5 -42v-899l-56 56l-24 96q-20 72 -72 110t-150 38l-209 -18l-135 -10q-38 0 -67.5 3t-46.5 9q-64 16 -112 35.5t-83 43.5q-51 35 -84 101q-24 51 -35.5 109.5t-11.5 127.5q0 84 23 176q3 14 12 38t26 56l40 61l44 -57
l-27 -54l-20 -54l-2 -25l-12 -103q0 -29 3 -55.5t11.5 -51.5t24.5 -49.5t41 -49.5q36 -34 131 -59l78 -15l70 -2q102 14 176 14q72 0 128.5 -10.5t98.5 -31.5l120 -96v886q0 19 -37 26l-45 -7l-43 -17l-39 -22l-35 -27l-27 -23l-49 -49l-32 -31q-28 -31 -50 -72.5t-41 -91.5
l30 4l39 5q52 0 85 -56l16 -37l5 -42q0 -26 -11 -48.5t-27 -41t-36 -32.5t-38 -21l-63 -5q-96 0 -149 63.5t-53 172.5q0 18 9 51t26 79q36 94 98 170q13 17 39 40t64 50q14 10 33.5 22.5t44.5 27.5l33 18l32 19l71 23l73 9l58 -27q31 -15 49.5 -27.5t25.5 -22.5
q50 -55 50 -115q0 -57 19 -61l35 2l39 20q13 7 21 16t14 18l14 62l-7 63l-11 21q-36 88 -260 162l-272 90q-95 31 -108 37q-197 97 -197 258l2 35l23 54q24 49 73 98l22 30q5 8 23 5l66 -72l-40 -17l-34 -17q-38 -27 -56 -96q-16 -84 408 -211q120 -35 199 -69.5t118 -66.5
q72 -57 113 -140q13 -31 20 -62.5t7 -64.5z" />
    <glyph glyph-name="bn_o" unicode="&#x993;" horiz-adv-x="1356" 
d="M902 1218q108 0 179 -57q72 -49 120 -168q9 -19 9 -54q0 -44 -7 -74.5t-21 -84.5q-24 -89 -71 -135q29 -37 48 -68l35 -55l18 -57q7 -30 7 -71q0 -72 -27 -145q-20 -61 -81 -123q-56 -50 -119 -66q-33 -8 -71.5 -12.5t-82.5 -4.5q-93 0 -174 39q-52 24 -96 59l-134 132
q-21 21 -44.5 55t-52.5 81l-35 63l-51 106l-99 246l-91 286l84 -45l31 -101l33 -76q19 -52 46.5 -108.5t66.5 -117.5l54 -101q39 -74 93 -127t121 -102q32 -22 68 -41l69 -35q54 -21 124 -21q98 0 167.5 43.5t99.5 137.5l5 42q0 47 -30 84l-44 34q-57 -50 -113 -50
q-71 8 -105 41.5t-45 108.5q0 40 20 75q15 19 19.5 27.5t34.5 28.5q15 15 33.5 19.5t37.5 4.5l54 -7l45 -19q88 44 88 147q0 54 -34 95q-15 21 -40.5 30.5t-77.5 16.5q-68 0 -136 -24q-49 -17 -70 -32l-94 -64q-30 -22 -54 -61q52 -30 73 -124l3 -14v-12q0 -52 -36 -82
q-40 -24 -89 -24q-61 0 -115 37q-18 15 -42 59q-15 39 -15 85q0 68 24 108q77 134 209 202q74 35 138 52.5t140 17.5z" />
    <glyph glyph-name="bn_au" unicode="&#x994;" horiz-adv-x="1524" 
d="M1440 1004q0 -110 -106 -239l-138 -140q41 -69 68 -153q7 -24 11.5 -51t4.5 -54q0 -79 -25.5 -141t-84.5 -100q-38 -24 -74 -42t-71 -29q-31 -6 -67 -9t-78 -3q-58 0 -115.5 18t-115.5 55q-72 49 -170 157q-21 21 -46 54.5t-53 78.5l-87 172l-101 256l-79 265l77 -39
l63 -175q21 -54 49.5 -109t63.5 -114l74 -124l74 -87l88 -82q38 -31 83.5 -55t100.5 -43q73 -22 145 -22q89 0 152.5 37.5t86.5 119.5l5 27v20q0 21 -7.5 42.5t-22.5 42.5l-41 42q-12 -14 -25 -25t-30 -19l-64 -12l-47 2l-38 18q-17 11 -28.5 23.5t-18.5 26.5l-15 75
q0 82 69 133l31 15l45 5q20 0 38.5 -3t35.5 -9l27 -10q15 7 32 22.5t30 36.5t22 46t9 50q0 49 -44 101q-29 28 -103 28q-26 0 -42 -0.5t-32 -3t-34 -6.5l-50 -14q-52 -15 -73 -27l-81 -54q-10 -10 -23 -28l-34 -48l37 -32q32 -40 32 -87q0 -28 -10 -53t-26 -43t-39 -28
t-48 -10q-54 0 -113 38q-56 42 -56 150l2 57q0 19 17 49q60 138 211 206q64 30 132 45t143 15q109 0 185 -55t110 -164l3 -27q0 -52 -29 -118q-31 -63 -49 -74l93 80q93 114 93 216q0 16 -2 32t-8 29q-23 73 -125 127l-86 30l-113 32q-123 24 -217.5 58.5t-161.5 78.5
q-157 100 -157 237q-4 28 7 60t32.5 63t53.5 57.5t70 44.5l36 -33l30 -42q-58 -17 -83 -36.5t-25 -50.5q0 -19 10 -29q0 -74 103 -130l243 -84q120 -39 203 -76.5t129 -72.5q40 -30 70 -68.5t51 -84.5l24 -74l9 -73v-35z" />
    <glyph glyph-name="bn_ka" unicode="&#x995;" horiz-adv-x="1403" 
d="M856 1148v-92l24 4q122 0 258 -121q177 -151 177 -383q0 -49 -16 -90.5t-43.5 -72t-63.5 -47t-76 -16.5q-71 0 -131 67l-24 42l-7 41l7 44q4 13 10.5 24.5t16.5 22.5l37 35l73 12q54 0 96 -38l23 -24l7 22q0 50 -17 89q-24 71 -79 117q-40 42 -94 70q-70 36 -150 36
l-31 -2v-981l-44 45l-37 108q-10 31 -37 71t-69 91q-82 109 -157 147l-64 37l-81 35q-22 10 -59 18.5t-91 15.5l-170 209q45 34 102 74t129 85q126 77 219 119t243 91v95h-749l-126 124h1492l121 -124h-619zM732 885q-89 -27 -150 -61l-132 -73l-82 -57l-75 -55
q41 -17 72 -31t53 -30q10 -6 19 -12l20 -13l25 -19l32 -24q27 -21 56 -48.5t56 -62.5q24 -31 51 -70t55 -87v643z" />
    <glyph glyph-name="bn_kha" unicode="&#x996;" horiz-adv-x="1194" 
d="M1018 1148v-1241l-33 35l-21 40l-21 40l-17 45l-37 74l-29 47l-49 64q-43 50 -105 91q-87 54 -180.5 87t-190.5 47l-204 253l103 -9l90 7l94 20q61 18 109.5 44.5t86.5 61.5q54 53 54 101q0 42 -13 67t-48 53l-105 -99l-72 -39l-101 -36q-71 -21 -113 -21q-35 0 -67.5 11
t-56.5 29.5t-38 45.5t-14 60l2 61q2 9 8 20t16 24q38 49 98 49q66 0 99 -37q9 -13 14.5 -31t5.5 -42q51 7 71 19l110 96l82 77l76 -65l72 -63q16 -18 36 -47.5t44 -70.5q11 -23 17 -46.5t6 -49.5q0 -67 -34.5 -133.5t-115.5 -124.5l-67 -40l-54 -21l79 -42l75 -54
q66 -53 134 -126q26 -29 46.5 -58.5t37.5 -56.5v1231l70 -45l5 -75l15 -66q3 -6 12.5 -12t24.5 -13l144 -3l110 -133h-261z" />
    <glyph glyph-name="bn_ga" unicode="&#x997;" horiz-adv-x="1192" 
d="M1006 1148v-1290l-112 108v731l-24 78q-2 20 -11 38l-17 39q-16 44 -87 115l-101 86l-35 17l-54 24q-59 23 -101 16q-45 -9 -80 -18t-55 -22q-65 -37 -113 -143l56 12l80 10l66 -7q24 0 63 -22q109 -60 109 -160q0 -26 -3.5 -47.5t-9.5 -38.5q-3 -18 -20 -51t-48 -79
l-75 -114l-68 -82l-143 159l54 47l87 94l76 80q21 24 31 43t10 36q0 15 -9 24q-22 30 -59 30q-35 0 -118 -51q-80 -52 -121 -52q-23 0 -43 12q-51 31 -73.5 71.5t-22.5 90.5q0 82 61 173q46 66 103 105q42 24 90.5 37t106.5 13q43 0 88.5 -7.5t87 -20.5t76 -31t55.5 -40
l83 -79q28 -28 47 -55t32 -53t31 -70.5t42 -109.5l-21 136q-11 75 -17 134t-6 100l-2 340l74 -70l-5 -33q0 -20 5.5 -45.5t16.5 -52.5q7 -19 32 -29l81 -10l42 8l120 -124h-252z" />
    <glyph glyph-name="bn_gha" unicode="&#x998;" horiz-adv-x="1158" 
d="M971 1148l2 -1250l-59 56l-51 128q-37 83 -141 179q-57 48 -121.5 78.5t-136.5 44.5l-68 8l-65 2l-162 167l119 123q31 34 65.5 65t68.5 58l-46 -18l-47 -5q-83 0 -160 62q-31 24 -48 45t-23 41l-4 10q-6 16 -9 33.5t-3 38.5l7 70l29 64h-123l-120 124h1246l121 -124
h-271zM848 1148h-408q-52 7 -96 -29q-13 -13 -23.5 -28t-20.5 -35l-17 -63q0 -25 12.5 -48t32 -40t43.5 -27t46.5 -10t49.5 8.5t53 22t49.5 31.5t37.5 37l132 -131q-31 -18 -69.5 -49t-85.5 -73q-44 -42 -80.5 -82t-65.5 -78l88 -37q20 -6 37.5 -14.5t34.5 -20.5
q38 -19 66 -43l30 -28q15 -14 36 -37q34 -35 64 -72t54 -78v924z" />
    <glyph glyph-name="bn_nga" unicode="&#x999;" horiz-adv-x="1123" 
d="M1081 298q0 -150 -93 -250q-102 -111 -287 -111l-54 3l-49 7q-58 7 -117 37t-113 78.5t-102 113.5t-84 142l-49 110l-44 131l-28 117l-19 124l-23 167l65 -49q22 -106 37 -169.5t24 -84.5l61 -145q30 -62 67 -118.5t78 -103.5t87 -81.5t95 -52.5q71 -24 143 -24
q122 0 204 56q98 70 98 189q0 72 -71 150l-20 -32l-22 -20l-86 -66l-108 -71q-15 -8 -31 -11.5t-33 -3.5q-24 0 -49.5 11t-55.5 33l-40 32l-37 50q-33 52 -36 82v298l-65 47l-47 39l-90 80l-62 68l-34 42l-39 54l182 49l101 -189l29 -35l30 -27q16 45 33.5 77.5t34.5 52.5
q38 42 125 86q53 24 114 24q65 0 125 -28q56 -24 84 -84l9 -45l10 -45q0 -105 -115 -168q-100 -47 -214 -47q-82 0 -98 25v-222q0 -36 16.5 -57.5t58.5 -27.5q45 0 89 37l76 76l46 54l35 61q61 -22 110.5 -67.5t84.5 -113.5q31 -62 47 -124t16 -130zM823 1058q-11 24 -49 24
q-13 0 -25.5 -2t-26.5 -8l-42 -12q-54 -15 -96 -56q-20 -17 -35 -42.5t-28 -58.5q9 -18 63 -18l70 7q41 8 72.5 23t54.5 34t35 40.5t12 43.5q0 15 -5 25z" />
    <glyph glyph-name="bn_cha" unicode="&#x99a;" horiz-adv-x="1003" 
d="M293 1148q0 -10 1 -15t4 -11l14 -40l14 -37q12 -18 26.5 -35t33.5 -31l57 -42q35 -24 113 -52l230 -80q38 -21 63 -56t38 -70l7 -42q0 -24 -1 -40.5t-4 -25.5l-21 -76q-10 -35 -26 -71t-40 -74q-52 -78 -106 -139t-108 -104.5t-108 -66t-104 -22.5l-29 2q-52 7 -113 89
q-60 81 -60 140v899h-174l-120 124h1058l125 -124h-770zM617 669q-24 10 -40.5 17.5t-25.5 17.5q-51 29 -92 57t-63 51q-24 22 -48.5 55.5t-52.5 78.5v-694q0 -30 9 -46t40 -23q14 0 32 5.5t42 18.5q31 18 56.5 36.5t46.5 36.5l101 114q7 8 25 35t38 69q21 55 21 96v24
l-5 24z" />
    <glyph glyph-name="bn_chha" unicode="&#x99b;" horiz-adv-x="1111" 
d="M1196 -285q-242 256 -525 347l-148 47q-50 13 -110 25t-130 22l-121 225q64 -20 115.5 -29t93.5 -9l74 2l88 15q23 4 37 8t26 8.5t26 13.5l32 19q28 17 75 53.5t113 96.5l42 47q10 18 16.5 38t9.5 42q0 49 -38 106l-93 27l-76 15l7 -45q0 -72 -58.5 -139.5t-161.5 -127.5
q-82 -52 -159 -52l-45 7q-28 7 -53 23.5t-44.5 37.5t-31.5 45t-12 47v519h-152l-113 125h1195l113 -125h-923q15 -35 22.5 -56t17.5 -30q15 -18 133 -75q24 -9 55 -14t70 -5h42l44 10l31 5h26q122 0 213 -113q94 -112 94 -251q0 -22 -0.5 -35t-2.5 -26t-7 -30l-13 -42
q-10 -25 -26 -48.5t-40 -44.5q-35 -36 -148 -105l-73 -45l-59 -20l111 -54l51 -29q10 -2 21 -9.5t24 -17.5q27 -17 76.5 -59t121.5 -113l133 -131zM474 854q-55 14 -94 49l-78 43l-37 60v-354q0 -46 10 -56q12 -8 44 -8q24 4 41 11t29 16l41 30q114 84 114 157l-3 29z" />
    <glyph glyph-name="bn_ja" unicode="&#x99c;" horiz-adv-x="1454" 
d="M814 1148l-77 -41q-15 -68 69 -123l76 -29l91 -11l35 2l47 3q17 0 59 18l115 39l115 -118l70 -71q-46 -46 -112 -155q-80 -139 -80 -251l-12 -93v-62q0 -72 23 -157t69 -187q-22 0 -37 1t-22 4q-51 15 -63 27l-69 300l-20 111l-7 86q0 83 30 207q9 45 21 84t25 70l-27 5
l-69 -2q-52 0 -107.5 10t-106 28.5t-92.5 44.5t-68 58l-71 94q-21 23 -98 -68q-67 -86 -101 -185l-2 -17v-10q0 -86 91 -86l39 7q21 0 62 23l103 52l39 19q22 11 36 0q16 0 40 -24l35 -45q20 -24 38 -59t35 -81q35 -94 35 -148q0 -40 -12 -61q-24 -99 -72 -147
q-18 -18 -46.5 -37t-66.5 -37q-30 -13 -70 -22.5t-70 -9.5q-102 0 -202 52q-44 24 -86 63.5t-81 93.5q-44 61 -89 155l-38 105q-16 42 -26.5 99t-17.5 126l-3 115l-2 98v24l2 12l49 -38l20 -25q12 -21 12 -69v-49q0 -60 8 -89l38 -140q38 -112 124 -191q55 -50 91 -77
t64.5 -39t53 -14.5t56.5 -5.5q46 0 92 11.5t92 35.5q93 48 93 123q0 28 -16 58q-8 35 -50 42l-30 -7l-103 -39l-61 -12h-31q-28 0 -59 7t-62 23q-28 18 -56 49t-60 75q-44 77 -44 160q0 58 17 98q8 24 29.5 59.5t59.5 81.5l69 73h-509l-123 124h1529l120 -124h-690z" />
    <glyph glyph-name="bn_jha" unicode="&#x99d;" horiz-adv-x="1356" 
d="M1205 1148v-1079l-60 59l-36 109l-18 43l-24 42l-59 77q-59 63 -136 103v-578l-54 58l-46 110q-10 24 -31.5 58t-55.5 79q-66 83 -124.5 134.5t-114.5 81t-110 41.5t-110 14l-165 206l64 42l65 44q38 26 69 44l51 32l108 62q55 31 112 58l225 99v23v38h-755l-120 124h992
v-630q15 -6 31 -16.5t33 -27.5l47 -44l49 -56l44 -68v1070l59 -50l12 -78l6 -32l17 -44l37 -15q9 -3 24.5 -5.5t31.5 -4t31.5 -1.5t25.5 2l124 -124h-239zM755 895q-30 -10 -68.5 -26t-84.5 -40l-147 -83l-64 -40l-67 -46q53 -24 87.5 -43.5t55.5 -36.5l77 -66l54 -54
l63 -73q28 -35 51.5 -69t42.5 -69v646z" />
    <glyph glyph-name="bn_nya" unicode="&#x99e;" horiz-adv-x="1897" 
d="M1799 183q-27 -35 -61.5 -53.5t-81.5 -18.5q-42 0 -88 16.5t-100 47.5q-41 24 -81.5 55.5t-78.5 72.5q-12 6 -30 21.5t-42 39.5l-37 45l-3 -514l-58 59l-36 108q-10 38 -38 72q-46 52 -96 59l-81 5h-64l-56 -10q-85 -12 -142 -17.5t-86 -5.5l-52 3q-23 0 -37 0.5t-27 2
t-26.5 6t-35.5 11.5q-20 10 -44 22.5t-52 29.5q-31 21 -58 52.5t-50 69.5l-42 106q-14 58 -14 140l2 83l19 79l42 94l40 61l49 -49l-37 -59l-19 -52l-7 -44l-3 -59l7 -94q4 -18 13.5 -39t26.5 -45q48 -70 206 -108q52 -9 106 -14t122 -5q160 0 268 -37l140 -83v805l-12 47
q-7 37 -58 37q-28 0 -57 -14l-37 -23l-42 -29l-42 -32l-29 -32q-23 -18 -39.5 -37t-29.5 -39q-34 -56 -52 -120l67 7q22 0 41 -13q13 -4 35 -36l19 -44l8 -47q0 -30 -11 -54.5t-27.5 -42.5t-35.5 -28.5t-35 -10.5l-31 -2h-23q-96 0 -157 59q-24 31 -36.5 73.5t-12.5 96.5
q0 110 119 265q13 18 43 51l74 76q55 34 95.5 55.5t71.5 35t57.5 18.5t55.5 5l62 -30q35 -14 56.5 -28.5t31.5 -27.5q23 -20 37 -54q14 -22 14 -49v-275q8 30 40 78q17 30 36 56t43 47q58 71 118 111q78 49 145 49q83 0 167 -81q51 -44 76 -99t25 -109q0 -69 -27 -130
t-69 -107l69 -143q13 -42 18.5 -74t5.5 -53v-37l-12 -49q0 -17 -9 -35zM1733 350q19 30 26 71q0 35 -24 59l-49 49l-54 -27l-79 -25q-30 0 -57 9t-47 26t-32 41t-12 55q0 25 12 50.5t32 44.5t45 31t52 12q19 0 54 -16l30 3l49 -10l17 10q42 56 42 110q0 34 -20 63
q-49 61 -123 61l-42 -3q-10 0 -20.5 -4t-24.5 -14q-24 -7 -45.5 -17.5t-41.5 -27.5q-81 -52 -150 -143q-70 -88 -70 -155l4 -25q43 -167 228 -263q62 -29 138 -29q113 0 162 64z" />
    <glyph glyph-name="bn_Ta" unicode="&#x99f;" horiz-adv-x="1018" 
d="M253 1148v-823q0 -31 22 -64q25 -24 72 -24q26 0 58 11t68.5 36t79 66t89.5 101q55 75 66 155l-37 -5q-59 0 -111 36q-46 39 -46 103l4 40q21 68 64.5 97t97.5 29q14 0 24 -1.5t16 -3.5q78 -17 133 -103l24 -58l10 -85q0 -54 -7.5 -100.5t-22.5 -87t-39.5 -77
t-57.5 -72.5q-60 -63 -115.5 -109t-109.5 -77q-48 -32 -105 -42l-62 -8h-21q-30 0 -75 29q-25 15 -61 64q-24 31 -40 61.5t-26 61.5l-9 76v98v676h-143l-101 124h875v49q0 31 -8.5 52t-36.5 41q-57 32 -140 32l-103 -3h-73l-62 -9q-20 0 -32.5 -1.5t-18.5 -3.5h-35
q-79 0 -157.5 22t-132.5 76q-18 15 -34 36t-27 44t-18 46.5t-7 45.5q0 24 3 40.5t9 27.5q8 25 27 49q5 12 25 16l26 10v-23l6 -22q-30 -29 -30 -63l5 -33l12 -33l52 -40l44 -20l61 -12l70 4l85 5l126 5l127 8q65 0 115 -12.5t85 -36.5q38 -23 76 -64t62 -93
q9 -31 12.5 -55.5t3.5 -42.5v-42h134l98 -124h-863z" />
    <glyph glyph-name="bn_Tha" unicode="&#x9a0;" horiz-adv-x="995" 
d="M605 1148q35 -35 64 -77t56 -87l72 -167q18 -48 31 -90t23 -79l9 -161q0 -31 -3 -54.5t-9 -40.5l-27 -91q-7 -28 -18.5 -53.5t-28.5 -47.5q-25 -46 -56 -66q-23 -23 -55 -44.5t-79 -49.5q-67 -37 -139 -37l-47 5l-63 10q-36 7 -63 25q-33 14 -67.5 43.5t-68.5 71.5
q-29 34 -54 106q-10 34 -15.5 65t-5.5 68q0 35 4.5 64t13.5 53q35 11 64 22.5t49 24.5q25 13 51 32t52 46q96 99 135 173q20 42 29.5 80t9.5 82q0 42 -5.5 84.5t-18.5 87.5h-440l-125 126h488v31q-6 18 -63 101q-28 40 -52 90t-44 111q-17 60 -26 102t-9 69q0 70 40 141
q15 28 37.5 53.5t53.5 49.5l145 -124q-44 -20 -74 -36t-47 -33q-49 -47 -49 -135q0 -82 96 -228l88 -122l62 -73l415 3l131 -124h-467zM748 603q0 40 -9 88.5t-28.5 99.5t-47.5 103t-65 99l7 -103q0 -97 -35.5 -191.5t-102.5 -176.5q-40 -56 -115 -96l-77 -42l-47 -27
q-17 -9 -17 -61q0 -26 6 -53t17 -49.5t24.5 -38.5t29.5 -21l56 -18l50 -7l40 2l45 17l47 25q24 7 67 47q21 14 40 34t35 44l26 42l24 64q14 49 22 103.5t8 115.5z" />
    <glyph glyph-name="bn_Da" unicode="&#x9a1;" horiz-adv-x="1285" 
d="M607 1148v-476q47 0 132 56q43 30 76 65t57 73l22 31l32 35q36 -16 54 -35l50 -54q20 -27 40 -58.5t36 -66.5q41 -102 41 -199q0 -93 -36 -209q-38 -116 -155 -189q-61 -35 -136 -52t-161 -17q-169 0 -293 146q-20 24 -55 82l-88 155l-68 185q-11 35 -24 102.5t-28 167.5
l-19 185l71 -40q0 -48 9 -104.5t28 -120.5q6 -17 11.5 -38.5t14.5 -45.5l35 -78q27 -64 52.5 -112t53.5 -83l71 -86q50 -51 163 -89q50 -14 105 -14q48 0 94.5 11t86.5 31.5t72.5 47t51.5 57.5q21 31 34 66.5t23 74.5l-3 36q0 22 -15 62q-6 14 -19.5 37t-30.5 43
q-7 -37 -92 -115q-31 -27 -58 -49t-51 -37q-71 -45 -135 -45q-30 0 -55 11t-45 31q-24 30 -64 119l-5 214v216v51v22h-485l-120 124h1370l122 -124h-767z" />
    <glyph glyph-name="bn_Dha" unicode="&#x9a2;" horiz-adv-x="1020" 
d="M300 1148v-826q0 -30 14.5 -52.5t56.5 -29.5q23 0 50 11t58 35q75 53 170 170q25 28 36 68l18 86l-39 -4q-53 0 -108 36q-47 39 -47 106l7 52q4 22 14 41.5t28.5 36t45 26t62.5 9.5l32 -5l39 -7q12 0 24.5 -9t29.5 -26q17 -16 32 -34.5t28 -42.5q7 -17 12.5 -32t8.5 -31
l12 -76q0 -54 -6.5 -98.5t-19.5 -79.5q-13 -33 -37.5 -74.5t-63 -92t-86.5 -93.5t-108 -78l-103 -47l-62 -7q-24 -6 -58 14t-66.5 51t-58 67t-31.5 64l-2 872h-182l-118 124h1114l125 -124h-821z" />
    <glyph glyph-name="bn_Na" unicode="&#x9a3;" horiz-adv-x="1079" 
d="M910 1148v-1246l-136 138v538l2 143v32q0 17 -3 46.5t-23 66.5q-11 29 -31.5 60t-43 58.5t-46.5 48.5t-42 32q-18 10 -38.5 17.5t-44.5 13.5l-54 5q-85 0 -145 -56q-82 -75 -82 -157l-2 -42q0 -102 69 -165l59 -12l-7 30l-2 31q0 50 33 77q40 24 84 24q23 0 41.5 -2.5
t34 -12t29.5 -28.5t28 -53l10 -54q0 -67 -65 -117q-56 -52 -146 -52h-25q-124 0 -224 118q-84 114 -84 271q0 141 79 236t214 130l91 9q21 0 42 -3.5t41 -10.5l49 -25q26 -7 62 -59l37 -47q27 -31 51 -69.5t45 -80.5l63 -122l-9 68q-15 89 -22.5 152t-7.5 101v52v47v42v36
v30v73l-3 49l45 -49l27 -46q6 -30 16.5 -52t23.5 -39l66 -51h44l123 -124h-223z" />
    <glyph glyph-name="bn_ta" unicode="&#x9a4;" horiz-adv-x="1356" 
d="M-5 1148l-122 124h1405l131 -124h-1414zM1271 526q0 -124 -54 -223q-46 -85 -141 -155l-96 -49l-61 -23q-29 -7 -122 -7q-87 0 -178 40q-38 19 -66.5 35t-48.5 33l-44 45l-80 98l-94 152l-33 62l-21 46l-119 296q-13 31 -26 80.5t-28 120.5l72 -30l56 -134l103 -214
l90 -152l70 -96q22 -31 43.5 -54t41.5 -37l77 -59l82 -28l75 -9l79 7l66 18q32 11 69 35t79 63q11 10 21.5 25.5t22.5 35.5l32 59q12 24 17 49.5t5 49.5v26q0 10 -1 17.5t-3 14.5q0 23 -20 67t-57 81l-33 24l-40 28q-10 3 -23 6t-31 6q-23 0 -43.5 -3t-38.5 -9
q47 -62 47 -141q0 -59 -30.5 -104.5t-92.5 -62.5l-44 -7l-42 -2q-42 0 -76 18t-64 53q-29 40 -47 122l-5 47q0 69 35 119l47 54q38 38 93 59t113 21l56 -5l57 -9q75 -18 136.5 -61t111.5 -111l54 -98l29 -77q23 -79 23 -153z" />
    <glyph glyph-name="bn_tha" unicode="&#x9a5;" horiz-adv-x="1172" 
d="M996 1152l1 -1259l-75 103l-71 108q-28 44 -68.5 86t-97.5 81q-72 50 -183 98q-4 1 -15 4l-26 7q-15 5 -31 10l-34 7l-119 7l-193 256l66 -3l32 5l62 12q74 7 194 74q126 74 179 155q25 54 25 93q0 30 -12 56t-33 46.5t-49 32.5t-61 12q-17 0 -26.5 -1t-12.5 -4l-18 -7
l-99 -51q-41 -21 -54 -47l35 -42q30 -41 30 -83q0 -20 -11 -42t-31 -42l-52 -35l-61 -9q-41 0 -70 15t-48.5 40t-29 56t-9.5 64l5 33l12 47q36 111 157 173q61 31 123.5 47.5t129.5 16.5q112 0 207 -99q98 -95 98 -231q0 -60 -23 -118q-18 -50 -41.5 -88.5t-50.5 -68.5
q-48 -54 -175 -131q34 -7 58 -31l65 -40q41 -23 153 -125q45 -43 77 -81.5t52 -70.5v1312l66 -78l6 -23q0 -95 41 -118l72 -3l126 -126h-192z" />
    <glyph glyph-name="bn_da" unicode="&#x9a6;" horiz-adv-x="1175" 
d="M1248 1148h-990v-518l52 39l164 145q37 29 80 56l90 55l165 73l213 -160l-61 -129q-61 -148 -84 -276l-9 -85l-5 -131l5 -52l7 -39l2 -44l15 -64l15 -62l22 -61l-87 33l-40 124l-26 84l-19 104l-15 147l-3 52v51l3 64l8 61l34 138l-62 -24q-34 -13 -70 -35l-59 -34
q-23 -15 -49 -42q-47 -42 -84.5 -81t-63.5 -79q-37 -47 -63 -93.5t-43 -88.5l-165 170v702h-125l-120 124h1243z" />
    <glyph glyph-name="bn_dha" unicode="&#x9a7;" horiz-adv-x="1104" 
d="M1168 1148h-244v-1288l-32 54l-52 126q-14 47 -101 140q-83 91 -144 133q-93 63 -123 74q-89 43 -231 59l-145 193l209 159l56 38l45 35q-45 0 -74.5 4.5t-63.5 21.5q-54 25 -88 87l-20 42l-10 63q0 40 13 80.5t78 84.5q57 32 132 32q45 0 85.5 -28t45.5 -70l-5 -24
q-7 -33 -36 -52.5t-83 -19.5q-12 0 -21.5 1t-18.5 8l-26 21q-19 -12 -19 -69q0 -55 49.5 -91.5t110.5 -36.5q24 0 39 5l32 16l182 107l94 57v162h242zM802 217v668q-33 -12 -64.5 -25.5t-64.5 -33.5l-120 -73l-98 -69l-94 -81q69 -25 120 -67q25 -14 54 -36l63 -49
q66 -52 112 -108l45 -57z" />
    <glyph glyph-name="bn_na" unicode="&#x9a8;" horiz-adv-x="1102" 
d="M931 1148v-1280l-47 60l3 36q0 50 -11.5 112t-35.5 136q-43 146 -103 272q-18 38 -52 75l-78 75q-110 89 -199 89l-10 -21q69 -92 69 -155q0 -19 -1.5 -31t-3.5 -18q0 -14 -14 -42q-39 -80 -148 -80l-64 8q-64 9 -109 44q-32 34 -56 128l-5 52q0 61 23.5 113.5t63.5 89.5
t94.5 58t116.5 21l51 -2q21 0 61 -17q44 -11 96 -52q74 -53 141 -155q96 -148 96 -171v655h-837l-122 124h1168l127 -124h-214z" />
    <glyph glyph-name="bn_pa" unicode="&#x9aa;" horiz-adv-x="1315" 
d="M1150 1153v-1265l-118 108v626l-12 42l-28 71l-14 37l-40 66q-13 32 -31 42l-30 21l-420 -419l-174 65l106 113q11 9 16 26.5t5 41.5q0 22 -5 43.5t-16 39.5t-26 29.5t-34 11.5q-24 0 -36 -11q-15 -11 -117 -36q-13 0 -61 21q-42 27 -42 75q0 17 23 68q37 65 77.5 113.5
t84.5 83.5q116 85 288 85q82 0 154.5 -27.5t137.5 -85.5q49 -42 87.5 -94.5t66.5 -113.5l16 -50l17 -44l30 -73l-23 309v362l44 -28l8 -12q0 -60 30 -94l63 -31l35 -7l41 -13l69 -101zM774 1030q-7 14 -29 30l-42 29q-37 30 -113 30q-68 0 -121.5 -16.5t-95.5 -55.5
q-14 -14 -29 -35.5t-32 -49.5q42 0 68 -13q34 -7 52 -36q19 -23 37 -67q12 -24 21 -74l-6 -30z" />
    <glyph glyph-name="bn_pha" unicode="&#x9ab;" horiz-adv-x="1438" 
d="M344 1148q39 -28 81 -65l93 -85l80 -90l73 -91l-69 -59l-63 -52l-171 -142q20 -6 45.5 -19t60.5 -33l108 -71q68 -50 122 -107.5t93 -126.5v846q32 15 92 15l75 -3q12 -2 30.5 -4t43.5 -8.5t58.5 -19.5t75.5 -40q40 -23 72.5 -61t54.5 -84.5t34.5 -96t12.5 -94.5
q0 -67 -22.5 -111t-75.5 -78q-49 -27 -108 -27q-44 0 -76 19l-44 50q-13 31 -23 70q0 88 89 119l42 7q44 0 89 -37l-5 5l24 -14q7 -8 17 0l6 26q0 26 -9.5 54.5t-27.5 52.5t-44 42.5t-60 25.5l-103 12l-51 5q-40 0 -47 -14l2 -964l-49 44l-35 69q-18 37 -37.5 68t-40.5 55
q-23 29 -46 55t-47 46l-104 78q-61 42 -138.5 66.5t-165.5 24.5l-143 204l119 113l122 111l106 86l-57 42l-51 31l-84 16q-68 7 -94 19l-68 42l-38 35l-63 43l-120 124h1445l122 -124h-1108z" />
    <glyph glyph-name="bn_ba" unicode="&#x9ac;" horiz-adv-x="1091" 
d="M907 1148v-1267l-65 90l-26 62l-30 57l-29 51q-27 42 -51 72t-44.5 50.5t-55.5 45.5t-85 53q-15 8 -36 19l-42 22l-42 20l-37 18q-38 13 -76 18.5t-77 5.5l-157 223l148 101l154 91l212 104l100 42l118 39v83h-791l-120 124h1140l120 -124h-228zM786 868
q-66 -22 -134 -51.5t-136 -68.5l-113 -67l-91 -59q38 -16 76 -36t76 -44q38 -23 68.5 -46.5t67.5 -54.5l80 -79q24 -24 51 -59.5t55 -80.5v646z" />
    <glyph glyph-name="bn_bha" unicode="&#x9ad;" horiz-adv-x="1313" 
d="M5 1148l-123 124h1302l129 -124h-1308zM1246 613q0 -71 -9 -127.5t-29.5 -104.5t-53 -90.5t-80.5 -85.5l-52 -45q-26 -18 -50 -31t-48 -20q-96 -22 -164 -22q-54 0 -138 22q-45 14 -82 31t-68 35q-24 19 -54 51l-69 80l-63 88l-54 86q-21 37 -38 75l-42 93
q-10 27 -29 82.5t-44 137.5l-51 165l78 -24q9 -39 24.5 -81.5t36.5 -89.5l44 -96l35 -68q41 -74 87.5 -136t100.5 -112l63 -52l63 -40q23 -9 64.5 -19.5t102.5 -20.5l54 -3q81 0 155 36q50 24 94 70.5t81 121.5l12 96q0 73 -17 103q-6 15 -21 40.5t-39 60.5
q-20 -53 -80 -113q-20 -20 -58.5 -44.5t-96.5 -55.5l-63 -18h-60l-78 2q-24 0 -57 18q-53 14 -115 86q-44 50 -44 147l4 44q33 145 212 145q61 -7 108 -61q7 -9 12.5 -21t8.5 -26l9 -42q0 -21 -5.5 -39.5t-15.5 -33.5l-29 -39l54 9q160 93 219 239l143 -124
q132 -170 132 -279z" />
    <glyph glyph-name="bn_ma" unicode="&#x9ae;" horiz-adv-x="1160" 
d="M1229 1148h-265v-1253l-52 52l-32 110q-10 30 -24 58.5t-28 52.5q-26 63 -56 81q-42 40 -79 68t-67 45l-46 25v-13l-17 -17l-57 -47l-66 -34l-69 -10q-47 0 -88.5 15t-61.5 39l-34 42l-15 52l-8 56q0 44 23 89l41 63q30 30 67 40l66 17l57 5q74 0 88 -22
q0 78 -25.5 137.5t-104.5 118.5l-158 56q-108 30 -127 52l-27 21l-42 47l-22 54l-122 124h1226zM846 291v852h-571l165 -137l57 -54q14 -13 28 -34t31 -50q16 -27 29 -53t20 -52l21 -91q16 -57 16 -87l-6 -49l47 -43q7 -21 39 -45l77 -93z" />
    <glyph glyph-name="bn_ya" unicode="&#x9af;" horiz-adv-x="1093" 
d="M914 1148v-1258l-54 52q-22 66 -74 150q-43 80 -139 162q-54 48 -99 79t-84 46q-75 30 -216 30l-166 206l108 106l117 101l143 112l-113 64q-57 26 -147 44l-77 26l-83 39l-32 41l-123 124h1105l126 -124h-192zM791 1148h-472l67 -41l34 -23l37 -28l69 -63l49 -56
q20 -21 35 -37.5t26 -33.5l-24 -25l-18 -19l-28 -27l-30 -29q-15 -15 -30 -26q-10 -4 -72 -68l-92 -104q35 -9 65 -21.5t57 -29.5l54 -35l80 -59l92 -89l101 -124v938z" />
    <glyph glyph-name="bn_ra" unicode="&#x9b0;" horiz-adv-x="1057" 
d="M877 1148v-1246l-47 45l-110 204q-13 27 -38.5 58.5t-59.5 66.5q-58 57 -123 98l-113 59q-96 44 -201 44l-161 220l145 97l78 47q39 21 79 42l209 101l220 84v80h-753l-122 124h1061l126 -124h-190zM506 62q-33 -59 -96 -59q-22 0 -46 9.5t-43.5 27t-31.5 42t-12 54.5
q0 17 5.5 32.5t15.5 31.5q36 56 98 56q23 0 46.5 -9.5t42 -26t30 -39.5t11.5 -49q0 -14 -1.5 -21.5t-3.5 -13.5zM755 885l-87 -26l-56 -23l-131 -66l-108 -66l-96 -70l67 -28q18 -8 29 -13t19.5 -10t17.5 -11t22 -16l67 -49l73 -66l104 -111q10 -12 18.5 -23.5t17.5 -26.5
l18 -32l25 -43v680z" />
    <glyph glyph-name="bn_la" unicode="&#x9b2;" horiz-adv-x="1268" 
d="M1356 1148h-282v-1255l-128 115v680q0 26 -20 60q-14 36 -44 59l-17 12q-47 27 -91 27q-32 0 -64 -46l-14 -40l-2 -49l9 -61l-51 -20l-16 39l-10 19q-33 68 -66 96q-34 35 -128 59l-52 9q-73 0 -131.5 -44.5t-81.5 -128.5l-7 -52q0 -68 46 -115q47 -40 116 -52
q-34 54 -34 96q0 52 44 92t93 40q84 0 128 -94q12 -38 18 -61t9 -49l-5 -24q-22 -58 -72.5 -87.5t-116.5 -29.5q-49 0 -100.5 15.5t-81.5 31.5q-68 43 -122 124q-38 74 -38 170l8 81q9 59 33.5 108t60.5 83.5t77.5 54t86.5 19.5q86 0 166 -44l63 -52l43 -56q-7 10 5.5 32
t36 45.5t53 43t55.5 24.5q72 0 114 -42l46 -63l22 -33l38 -75v338h-952l-125 126h1354z" />
    <glyph glyph-name="bn_sha" unicode="&#x9b6;" horiz-adv-x="1280" 
d="M1374 1148h-256v-1253l-130 108l-3 779q0 47 -78 170q-77 120 -159 120q-52 0 -88 -29t-38 -67q20 -4 56 -42l37 -31q24 -20 41.5 -40t27.5 -39q22 -35 22 -73q0 -21 -1 -31.5t-3 -17.5l-16 -45q-5 -18 -12 -28.5t-22 -20.5q-58 -28 -103 -28q-84 0 -159 84l-26 40
l-14 -32q-28 -42 -74 -59l-66 -25l-45 -8l-33 5l-28 13l-37 32q-10 12 -19.5 28t-20.5 39l-9 61q0 40 15 66l34 47l51 56l65 52q22 19 46 23l-69 103l-37 21q-43 22 -71 22l-152 -2l-118 123h249q78 0 149 -44l57 -59l41 -59q23 -37 30 -67q44 96 97 141.5t149 80.5l29 7
l27 5q22 0 57 -26t89 -98l93 -141l52 -87l31 -61l-47 341v288l35 -30l44 -52q15 -21 15 -45l2 -37l25 -33l59 -21h19l30 2l36 -2z" />
    <glyph glyph-name="bn_Sha" unicode="&#x9b7;" horiz-adv-x="1104" 
d="M922 1148v-1246l-50 54l-32 57l-38 72q-18 37 -47.5 74t-66 71.5t-81 64.5t-93.5 53q-32 20 -58 33t-50 21l-84 12l-62 2l-164 214l94 86l96 84l112 95l69 49l-47 23l-54 14l-44 5l-47 -2h-47q-38 0 -67.5 3.5t-53 16t-41.5 34.5t-34 61q-3 11 -8 13q-6 13 -11 20.5
t-11 13.5l-34 37l-86 93h1199l108 -128h-267zM802 1148h-478l138 -95q41 -30 77.5 -65.5t67.5 -77.5l101 -91q65 -57 94 -61v390zM806 608l-103 106l-86 70l-15 14l-44 -30q-28 -21 -46.5 -36t-35.5 -35l-115 -121l96 -47l101 -71q29 -22 61.5 -49t65.5 -58t63 -64.5
t54 -67.5z" />
    <glyph glyph-name="bn_sa" unicode="&#x9b8;" horiz-adv-x="1250" 
d="M1042 1148v-1258l-120 137l2 532l-24 63l-54 80q-31 36 -74 36q-20 0 -35.5 -4t-30 -13.5t-29.5 -26t-33 -42.5l-172 -241q-50 -65 -76 -68l-49 -3h-30q-10 0 -17 1.5t-14 3.5l-38 17q-15 2 -33 18t-41 43l-61 94l-27 47l-22 44l81 78q0 -13 6.5 -31t20.5 -45l42 -63
q9 -10 21.5 -16t29.5 -9q30 0 61 32l54 71l107 143l-11 73q0 13 -1.5 25t-7.5 22q-11 33 -31 61.5t-47 52.5l-60 26q-35 10 -54 11t-29 1q-47 0 -76.5 3t-48.5 9.5t-32 15.5t-28 21l-39 57l-32 18l-110 108h1321l123 -124h-282zM922 1148h-531l69 -56q16 -14 32.5 -36.5
t30.5 -57.5q13 -37 19 -66t6 -52q0 -37 -4 -46l49 32q54 47 80 54l35 2q19 0 32.5 -2t24.5 -7.5t22.5 -15t26.5 -24.5l110 -127z" />
    <glyph glyph-name="bn_ha" unicode="&#x9b9;" horiz-adv-x="1032" 
d="M1118 -240l-96 91l-110 89q-38 27 -98 66l-141 86q-51 30 -105 55l-116 53q-44 17 -107.5 35.5t-142.5 35.5l-136 332l86 -49l99 -37q45 -13 92 -20t89 -7h55l43 8l40 9q36 7 59 24q37 16 64 32t44 33l49 38q42 42 42 94q0 23 -9.5 48.5t-30.5 57.5q-10 14 -30.5 28
t-46 24.5t-52.5 17t-52 6.5q-36 0 -51 -9q0 -65 -45 -124l-63 -59l-20 -16q-9 -9 -23 -16t-34.5 -12t-51.5 -5q-54 0 -90.5 28.5t-52.5 86.5l-2 33l6 37q7 31 48 76q40 54 131 88l93 32q14 8 -4 32q-41 52 -94 66h-354l-125 124h1108l121 -124h-576l20 -61q8 -23 27 -34
l20 -6q7 0 33 -8.5t73 -24.5q92 -35 164 -136q35 -52 52 -97.5t17 -99.5q0 -20 -1.5 -32.5t-3.5 -18.5q-22 -102 -94 -174q-71 -71 -245 -141l12 -21l123 -68l108 -75q79 -58 128 -113l167 -175l47 -167z" />
    <glyph glyph-name="bn_nukta" unicode="&#x9bc;" horiz-adv-x="734" 
d="M359 64q71 0 120 -44t49 -120q0 -65 -52 -119q-26 -19 -54 -30.5t-63 -11.5q-69 0 -118 47t-49 114q0 68 48 116t119 48z" />
    <glyph glyph-name="bn_aakaar" unicode="&#x9be;" horiz-adv-x="497" 
d="M580 1148h-273v-1285l-117 123v838v42v42q0 34 -5 49q-9 52 -30 81q-28 42 -80.5 77t-111.5 35l-31 -2l-126 124l49 4l49 3h37l59 -10q32 -2 58 -16t45 -33q40 -32 79 -115l22 -47l19 -52l16 -51l-40 279l-9 148v54q0 32 -5 56l49 -39l10 -64l9 -39l12 -27l28 -35l14 -14
h150z" />
    <glyph glyph-name="bn_ikaar" unicode="&#x9bf;" horiz-adv-x="467" 
d="M1069 1561q-31 27 -72 49.5t-95 39.5q-106 37 -160 44l-98 7q-60 0 -126 -14q-60 -7 -115 -45q-54 -34 -59 -44l-56 -66l-56 -86q-24 -45 -28 -69l47 -105h221l103 -119l-282 -5v-1267l-126 110l2 1157h-179l-123 124h315l-109 115q-17 17 -17 56q0 36 10 59l16 44
l67 104q27 39 43 56q24 20 68 45.5t106 55.5q65 30 162 30q68 0 139.5 -14.5t158.5 -49.5l108 -47q27 -12 51.5 -24.5t46.5 -29.5q35 -20 78.5 -56t96.5 -86l43 -47l28 -79z" />
    <glyph glyph-name="bn_iikaar" unicode="&#x9c0;" horiz-adv-x="497" 
d="M582 1148h-312v-1255l-120 117v1138h-202l-98 124h314l-31 93q-6 19 -14.5 41.5t-22.5 46.5l-25 44q-7 28 -31 52q-57 84 -141 126q-32 14 -76 30.5t-106 35.5l-113 21l-122 9l-59 -4h-57q-34 0 -57.5 -4.5t-53.5 -19.5q-22 -5 -47 -19l-61 -37l-10 -10l-9 -25
q0 -22 37 -36l71 -20l150 -8q127 0 201 -19l108 -23q45 -14 84 -61l45 -66l9 -59l-2 -49l-7 -55h-131l39 37q12 18 20 49q0 54 -83 82l-129 10h-68q-56 0 -98 2t-72 10q-32 4 -69 23t-79 46q-38 22 -60.5 59.5t-22.5 82.5q0 74 40 105l71 65q73 41 260 66l44 3l30 2h39
q27 0 48 -2.5t60 -14.5l170 -44q22 -7 45 -19l51 -26l99 -76q75 -54 139 -172q20 -35 37 -74l35 -83l31 -115h192z" />
    <glyph glyph-name="bn_ukaar" unicode="&#x9c1;" horiz-adv-x="2" 
d="M86 -525l-15 -9l-15 9l-28 39l-72 79l-18 18l-20 17q-18 16 -40 33l-47 37l-57 45l-49 30l-81 -75q-32 -24 -66.5 -39t-71.5 -15q-40 0 -78.5 10.5t-69.5 26.5t-51.5 37.5t-24.5 43.5l-7 62q0 57 49 113l50 39q10 6 27 12.5t41 12.5l54 7q58 0 96 -19l79 -47q11 -4 15 10
l2 30l-2 85l-3 72l61 -45q52 -69 52 -133l2 -31l-2 -37q-2 -13 -1.5 -21.5t3.5 -11.5l59 -49l57 -54l74 -75l56 -89l22 -45l20 -58v-15zM-427 -117q-24 7 -82 7q-48 0 -81 -22q-28 -23 -24 -62q7 -24 31 -33t69 -9q30 4 53.5 13t42.5 22q30 17 27 52z" />
    <glyph glyph-name="bn_uukaar" unicode="&#x9c2;" horiz-adv-x="2" 
d="M-152 -377q-28 -19 -64 -32t-82 -22l-44 -11l-41 -2q-57 0 -100.5 18.5t-74.5 74.5q-17 28 -26 56t-9 57q0 37 6 49q0 17 19 52q8 18 18.5 33.5t27.5 28t42.5 24t64.5 22.5l42 8l31 5q31 0 54 -18l-5 56l-7 63l42 -37l49 -52q19 -26 19 -86q0 -33 -16 -38l-50 11l-49 3
l-71 -8q-20 -4 -38.5 -11.5t-35.5 -20.5q-18 -11 -29 -37l-11 -52q0 -27 26 -47q44 -28 93 -28q18 0 36 3t35 9q24 3 41.5 8t30.5 11q31 7 66 32l329 -279q11 -12 25 -63q11 -44 7 -78z" />
    <glyph glyph-name="bn_rikaar" unicode="&#x9c3;" horiz-adv-x="2" 
d="M-319 -752l-67 68l-76 56l-110 74q-54 36 -108 68l-141 79l-131 75l359 260l45 122l100 -194l-277 -197q31 -17 68.5 -41.5t76.5 -57.5l104 -80l44 -28l36 -28q52 -38 59 -87z" />
    <glyph glyph-name="bn_rrikaar" unicode="&#x9c4;" horiz-adv-x="2" 
d="M-157 -749l-57 54l-63 47q-47 32 -92.5 54t-90.5 46l-117 68l-91 61l238 174l101 -52l-175 -129q28 -14 62 -34t66 -48l86 -52l37 -21l32 -25q45 -29 49 -71zM98 -534l-56 56l-64 47l-94 60l-90 55l-116 64l-110 63l188 124l38 98l68 -126l-106 -103q28 -14 58.5 -35
t63.5 -49l87 -64l37 -21l33 -25q41 -32 49 -71z" />
    <glyph glyph-name="bn_ekaar" unicode="&#x9c7;" horiz-adv-x="725" 
d="M631 1092q-121 -54 -169 -90q-60 -46 -104 -106.5t-72 -139.5l-33 -146l-17 -117l-4 -89l7 -94q3 -22 10.5 -48.5t18 -53t24.5 -50.5t32 -42q37 -32 108 -80q19 -9 49 -9h28l5 9l-30 24q-14 15 -24 35.5t-17 48.5v36q11 70 78 103l59 18q26 0 42 -10l37 -15
q14 -6 28.5 -19.5t25.5 -31.5t17.5 -39.5t6.5 -44.5q0 -25 -6 -50t-21 -49t-41 -46t-64 -40q-49 -16 -87 -16q-51 0 -101.5 14t-85.5 44q-123 102 -183 278q-21 67 -31.5 133.5t-10.5 134.5v66l7 92q0 44 59 176q31 65 76 132.5t106 137.5h-368l-124 124h790l120 -122z" />
    <glyph glyph-name="bn_aikaar" unicode="&#x9c8;" horiz-adv-x="710" 
d="M794 1148q-14 8 -39 8l-108 -15l-77 -19q-82 -42 -142.5 -83.5t-101.5 -83.5q-38 -43 -72 -115t-62 -178q-7 -28 -13 -58.5t-10 -61.5l-7 -112q0 -140 40 -228t108 -126q63 -28 96 -36l24 5l-12 19l-17 26q-6 9 -11 23.5t-10 37.5l9 54q7 30 45 61l35 20l42 5l37 -2
q21 0 36 -5.5t26 -15.5l34 -28q24 -24 37 -53.5t13 -63.5q0 -65 -68 -132q-13 -14 -32 -25t-40.5 -19.5t-44.5 -12.5t-45 -4l-58 2l-57 20q-17 7 -36.5 17.5t-40.5 26.5q-124 107 -183 275q-42 135 -42 271l2 71l7 86q0 24 16.5 69t47.5 110q31 67 76.5 134.5t103.5 135.5
h-310l-121 124h563q22 12 32 33q4 15 -1 34.5t-18 37.5t-34 32.5t-50 19.5l-120 14l-159 28l-114 54q-46 27 -83 87q-10 21 -15.5 42t-5.5 42q0 51 30 101l20 15l42 -41q-29 -17 -29 -52q0 -24 10.5 -46.5t38.5 -37.5l41 -17q42 -8 121 -8q95 0 155 -7q54 0 112.5 -23
t103.5 -68q44 -35 66 -104l9 -48l6 -55v-33h83l121 -124v0z" />
    <glyph glyph-name="bn_okaar" unicode="&#x9cb;" horiz-adv-x="1068" 
d="M1736 1148h-272v-1285l-118 123v838v42v42q0 34 -4 49q-9 52 -30 81q-28 42 -81 77t-111 35l-32 -2l-126 124l50 4l49 3h37l59 -10q32 -2 58 -16t45 -33q40 -32 79 -115l22 -47l19 -52l16 -51l-40 279l-10 148v54q0 32 -4 56l49 -39l9 -64l10 -39l12 -27l28 -35l14 -14
h150zM7 1150l-120 122h-789l123 -124h369q-62 -70 -107 -137.5t-76 -132.5q-59 -132 -59 -176l-7 -92v-66q0 -68 11 -134.5t31 -133.5q60 -176 184 -278q35 -30 85 -44t102 -14q37 0 86 16q39 18 64.5 40t40.5 46t21 49t6 50q0 23 -6.5 44.5t-17 39.5t-25 31.5t-29.5 19.5
l-37 15q-15 10 -42 10l-59 -18q-67 -33 -78 -103v-36q8 -28 18 -48.5t23 -35.5l30 -24l-5 -9h-27q-30 0 -49 9q-71 48 -108 80q-18 18 -32 42t-25 50.5t-18 53t-11 48.5l-7 94l5 89l17 117l32 146q29 79 73 139.5t104 106.5q48 36 169 90z" />
    <glyph glyph-name="bn_aukaar" unicode="&#x9cc;" horiz-adv-x="1068" 
d="M1382 1148v-1283l-134 131v1152h-199l-124 124h323q29 32 29 80q0 34 -19 62q-8 15 -23 23.5t-45 13t-79 6t-123 1.5h-92h-37h-29l-91 2q-41 0 -66 11q-56 9 -102.5 30t-84.5 53q-89 74 -89 180q0 75 45 145l27 21l54 -46q-19 -15 -30 -38q-9 -9 -17 -49q0 -13 1.5 -22.5
t3.5 -15.5l7 -28q8 -44 54 -59.5t128 -15.5h67l68 2h23l125 2l81 5h44l60 -7l58 -12l59 -25q88 -33 127 -150l14 -89l-9 -80h114l125 -124h-244zM-133 1092q-121 -54 -169 -90q-60 -46 -104 -106.5t-73 -139.5l-32 -146l-17 -117l-5 -89l7 -94q4 -22 11 -48.5t18 -53
t25 -50.5t32 -42q37 -32 108 -80q19 -9 49 -9h27l5 9l-30 24q-13 15 -23 35.5t-18 48.5v36q11 70 78 103l59 18q27 0 42 -10l37 -15q15 -6 29.5 -19.5t25 -31.5t17 -39.5t6.5 -44.5q0 -25 -6 -50t-21 -49t-40.5 -46t-64.5 -40q-49 -16 -86 -16q-52 0 -102 14t-85 44
q-124 102 -184 278q-20 67 -31 133.5t-11 134.5v66l7 92q0 44 59 176q31 65 76 132.5t107 137.5h-369l-123 124h789l120 -122z" />
    <glyph glyph-name="bn_hasanta" unicode="&#x9cd;" horiz-adv-x="2" 
d="M329 -393h-108l-371 234h169z" />
    <glyph glyph-name="bn_auMark" unicode="&#x9d7;" horiz-adv-x="539" 
d="M326 1148v-1283l-134 131v1152h-199l-124 124h323q29 32 29 80q0 34 -19 62q-8 15 -23 23.5t-45 13t-79 6t-123 1.5h-92h-37h-29l-91 2q-41 0 -66 11q-56 9 -102.5 30t-84.5 53q-89 74 -89 180q0 75 45 145l27 21l54 -46q-19 -15 -30 -38q-9 -9 -17 -49q0 -13 1.5 -22.5
t3.5 -15.5l7 -28q8 -44 54 -59.5t128 -15.5h67l68 2h23l125 2l81 5h44l60 -7l58 -12l59 -25q88 -33 127 -150l14 -89l-9 -80h114l125 -124h-244z" />
    <glyph glyph-name="bn_Ra" unicode="&#x9dc;" horiz-adv-x="1288" 
d="M612 1148v-324v-52l5 -68q7 -43 27 -47l29 7l23 12l92 70l63 56l49 62l36 49q23 29 37 29l22 -12q89 -81 143 -195l39 -113q15 -56 15 -117l-8 -101q-2 -23 -9 -49.5t-17 -53.5q-38 -118 -140 -202q-122 -91 -281 -91l-57 2q-22 0 -38.5 1t-29.5 2.5t-27 6t-32 11.5
q-53 21 -113 66q-88 72 -231 347l-40 90l-31 93q-23 69 -52 270l-20 185l74 -40q0 -96 36 -225l60 -162q8 -23 17.5 -47t23.5 -44l40 -66l89 -124q37 -41 86.5 -70.5t114.5 -47.5q52 -14 103 -14t101.5 14t94.5 38t79 55.5t54 68.5l35 64q14 34 14 70q0 87 -58 164
q-8 -30 -96 -108l-108 -84q-35 -24 -70 -36.5t-68 -12.5q-69 0 -114 46.5t-75 138.5l-7 28v87v373h-490l-122 124h1337l125 -124h-730zM838 -297q-40 -80 -123 -80q-62 0 -103 41q-42 38 -42 100q0 42 18 71.5t56 59.5q23 10 71 17q27 0 52 -10t45 -29t32 -44t12 -54
q0 -19 -4.5 -37t-13.5 -35z" />
    <glyph glyph-name="bn_Rha" unicode="&#x9dd;" horiz-adv-x="1034" 
d="M317 1148v-800q0 -27 14 -52q18 -22 45 -25q21 0 49.5 11.5t62.5 37.5t75.5 70t90.5 108l34 58l13 81l-40 -5q-50 0 -108 37q-44 37 -44 103l5 40q14 64 51 98q37 29 94 29l63 -7q35 -2 62.5 -30.5t55.5 -72.5q42 -71 42 -155q0 -35 -2 -63.5t-8 -49.5q-2 -23 -8 -47.5
t-22 -62.5q-14 -41 -92 -126q-91 -103 -170 -155q-21 -13 -51 -27t-72 -29l-63 -8q-32 0 -80 30q-9 5 -23.5 21.5t-30 41t-32.5 56t-31 67.5l-10 45l-2 56v75v650h-180l-123 124h1037l123 -124h-725zM577 -233q-14 -51 -56 -76q-17 -13 -37 -20t-41 -7q-29 0 -55 9.5
t-44.5 28t-30 44.5t-11.5 58q0 42 12 66q11 24 25.5 42.5t31.5 31.5l37 20l42 7q29 0 54 -9.5t44.5 -27t30.5 -43t11 -57.5q0 -23 -3.5 -39t-9.5 -28z" />
    <glyph glyph-name="bn_Ya" unicode="&#x9df;" horiz-adv-x="1106" 
d="M917 1148v-1265l-52 54q-17 42 -36 82.5t-43 74.5q-20 35 -53 75.5t-79 82.5q-50 46 -95 77t-91 49.5t-98 25.5t-117 7l-164 209l113 108l115 101l135 105q-9 4 -23 13.5t-31 26.5q-24 20 -65 33.5t-99 20.5t-104 23.5t-81 40.5q-11 7 -22 19.5t-25 29.5l-127 131h1110
l129 -124h-197zM530 25q-37 -59 -100 -59q-27 0 -51.5 11.5t-43.5 30t-30.5 43t-11.5 51.5q0 31 12 54.5t30 39t39.5 23t40.5 7.5q27 0 52 -10t44 -28t30.5 -41.5t11.5 -49.5q0 -28 -23 -72zM794 1148h-447l59 -38q32 -21 66 -63l84 -85l86 -101l-40 -42l-88 -79l-69 -68
l-96 -108l76 -28l49 -22q30 -13 65 -38t75 -60l92 -91q10 -12 24 -29l24 -34q13 -16 24 -33l16 -27v946z" />
    <glyph glyph-name="bn_rri" unicode="&#x9e0;" horiz-adv-x="1487" 
d="M1250 1049v-992l-38 46q0 21 -30 87l-42 98q-18 39 -38.5 67t-44.5 48q-19 18 -50 38.5t-76 42.5v-592l-42 45l-43 122l-58 103q-20 30 -43.5 57.5t-50.5 55.5q-10 6 -18 13t-17 15l-40 26q-19 14 -42 28q-12 7 -29 15l-34 19q-18 9 -36 16.5t-33 12.5l-143 33l-128 183
l131 99l75 49l210 113l142 72q-13 16 -31 33.5t-42 34.5q-5 4 -14.5 9t-21.5 10.5t-25.5 9t-25.5 3.5q-7 -16 -36.5 -40t-80.5 -58q-52 -31 -92.5 -46t-72.5 -15q-54 0 -92 3.5t-60 13.5q-71 25 -96 115l-5 39q0 26 9.5 50.5t26.5 43.5t40 30.5t49 11.5q52 0 86 -37
q24 -40 24 -84q160 14 256 170q42 -20 81.5 -48.5t78.5 -62.5q33 -29 63 -69.5t58 -90.5v424l122 -122v-658l57 -39l51 -42q28 -24 50 -52.5t39 -60.5v965l110 -90l8 -147h190l125 -124h-311zM811 809q-31 -6 -57.5 -17t-47.5 -25l-87 -59l-47 -27l-46 -32l-78 -64l124 -74
l72 -58l78 -77q21 -22 41 -48l48 -65v546zM610 -580l-67 68l-76 56l-110 74q-54 36 -108 68l-141 79l-131 75l359 260l45 122l100 -194l-277 -197q31 -17 68.5 -41.5t76.5 -57.5l104 -80l44 -28l36 -28q52 -38 59 -87z" />
    <glyph glyph-name="bn_lli" unicode="&#x9e1;" horiz-adv-x="1337" 
d="M1069 542q99 -65 143 -119q38 -56 41 -137q6 -103 -44.5 -176.5t-136.5 -111.5q-12 -2 -31 -10.5t-33 6.5q-11 7 -11 39q0 5 2 14.5t2 16.5q12 18 19 52.5t2 53.5q-12 70 -49 98q-27 42 -71 35q-42 -7 -74 -44q-7 -17 -14 -59q0 -52 14 -54q30 26 62 -1t27 -83
q-10 -66 -69 -66q-42 -5 -70 34t-36 98q0 32 5 67.5t20 70.5q17 35 40 58.5t51 37.5q61 32 118 -2q51 -20 80.5 -77t29.5 -127q0 -40 25 -17q64 63 67.5 125.5t-55.5 109.5q-49 37 -117 76.5t-141 73.5q-35 12 -59.5 26t-33.5 33q-10 -120 -70 -207t-163 -129
q-21 -5 -48 -14t-39 14q-18 14 -18 42v41q9 13 15 33.5t9.5 42.5t4.5 40.5t-1 28.5q-10 72 -61 131q-40 49 -98.5 42.5t-98.5 -70.5q-5 -7 -11 -27t-6 -53q-13 -42 17 -54q12 12 36.5 13t47.5 -13q19 -21 28.5 -55t5.5 -64q-15 -81 -99 -85q-56 -9 -88 42.5t-46 133.5
q-7 42 2.5 82t28.5 90q32 76 87.5 117t114.5 41q18 0 38 -5.5t43 -12.5q66 -29 107 -107.5t41 -162.5q-3 -35 5.5 -38.5t25.5 13.5q84 81 90 162t-70 151q-67 52 -156.5 101.5t-192.5 94.5q-105 39 -143.5 92t-43.5 116q-5 35 1 61t22 53q36 47 91 34q24 -10 42.5 -24
t23.5 -32q19 -74 -49 -99q-12 -44 91 -75q49 -12 107 -41l131 -63q64 -42 110.5 -78.5t73.5 -78.5q22 -13 32 -49q0 5 3 7q12 17 30.5 25t34.5 3.5t29.5 -16.5t16.5 -31q16 -49 -33 -77q-7 -27 69 -49l79 -34q44 -18 98 -44z" />
    <glyph glyph-name="bn_likaar" unicode="&#x9e2;" horiz-adv-x="558" 
d="M342 394q85 -49 121 -100.5t36 -121.5q5 -82 -37 -149t-115 -95q-12 -6 -32 -8.5t-32 10.5q-11 12 -5.5 29t5.5 23q7 16 14.5 49t2.5 49q-2 41 -40 85q-24 33 -66 25q-20 -2 -34.5 -13.5t-23.5 -28.5q-16 -16 -18 -49q-5 -37 15 -44q10 9 23 10.5t29 -10.5q12 -10 19 -32
t5 -44q-5 -27 -22.5 -41t-36.5 -16q-37 -5 -64 31t-32 90q-5 47 22 110q27 61 81 87q52 26 103 -3q47 -18 73 -67t26 -106q0 -16 3.5 -20t15.5 6q54 54 58 107t-47 95q-40 31 -100.5 65.5t-128.5 61.5q-66 30 -91 61.5t-27 73.5q-7 45 14 74q26 30 59 22q33 -9 40 -42
q12 -42 -28 -61q-7 -23 58 -44q31 -10 70.5 -27.5t86.5 -41.5z" />
    <glyph glyph-name="bn_llikaar" unicode="&#x9e3;" horiz-adv-x="1121" 
d="M907 672q83 -47 118 -106q14 -24 25.5 -56.5t13.5 -68.5q3 -86 -40.5 -156.5t-113.5 -101.5q-10 -6 -31 -13t-31 5q-13 13 -7.5 34.5t5.5 32.5q10 14 16 49.5t1 53.5q-3 22 -14 44t-28 44q-17 32 -64 27q-42 -7 -59 -46q-15 -15 -15 -52q-7 -37 13 -44q10 9 23 10.5
t26 -10.5q15 -12 22 -35.5t5 -42.5q-5 -30 -22.5 -45t-39.5 -18q-34 -5 -68 42q0 -96 -51.5 -173.5t-133.5 -110.5q-12 -7 -35 -7q-24 0 -42 14q-9 14 -4.5 33t4.5 28q6 10 11 26t7.5 33.5t3.5 34.5t-1 26q-3 30 -15.5 56t-31.5 52q-32 37 -79 30q-43 -5 -73 -51
q-5 -10 -10 -25t-7 -37q-3 -46 17 -54q9 10 27.5 11t30.5 -11q17 -14 26 -41.5t7 -51.5q-16 -71 -75 -73q-33 -6 -57.5 18.5t-38.5 66.5t-11.5 94.5t22.5 109.5q36 77 99 108q63 35 124 -3q52 -26 84 -85.5t32 -132.5q-3 -22 2 -26t23 9q63 69 68 134t-56 119
q-49 41 -122 83t-151 77q-86 34 -113 76t-32 91q-7 61 17 93q32 40 74 27q39 -10 46 -49q16 -62 -31 -78q-10 -30 66 -54q39 -16 86 -36.5t106 -50.5q49 -35 85.5 -66.5t57.5 -58.5q9 -27 21 -44q5 37 19 68q28 66 80 94q54 24 103 -2q47 -20 72.5 -71.5t25.5 -111.5
q0 -19 5 -21.5t17 7.5q54 54 58 109t-47 100q-40 37 -100.5 71t-129.5 64q-66 29 -90.5 64t-26.5 77q-3 43 14 75q23 33 59 24q32 -9 40 -41q12 -44 -28 -67q-7 -21 55 -47q34 -9 73.5 -27t88.5 -43z" />
    <glyph glyph-name="bn_shunya" unicode="&#x9e6;" horiz-adv-x="1231" 
d="M1088 475q-21 -168 -174 -303q-157 -136 -337 -136q-221 0 -354 190q-105 167 -105 370l7 85q27 167 168 286q146 120 317 120q37 0 79 -7.5t87 -23.5q78 -30 139 -81t103 -129q38 -69 56.5 -142t18.5 -152v-38zM943 674q0 64 -15 110.5t-48 81.5q-44 52 -135 73l-49 5
q-50 0 -100 -17.5t-102 -50.5q-109 -68 -157 -162l-57 -126q-14 -46 -19 -81t-5 -59q0 -32 4.5 -60t17 -54.5t34.5 -53t56 -54.5q30 -18 62 -28t67 -10q139 0 277 120q71 64 112.5 134.5t51.5 153.5z" />
    <glyph glyph-name="bn_ek" unicode="&#x9e7;" horiz-adv-x="1076" 
d="M572 -68l-61 -27q-27 -6 -52.5 -9t-48.5 -3q-48 0 -88 14l-39 23q-23 11 -41.5 26t-35.5 35q-9 18 -15 38.5t-9 42.5q0 30 13 62t37.5 61.5t58.5 55t77 43.5l42 7l35 2q33 0 69 -6t70 -17.5t63 -27.5t47 -38l54 57q16 29 16 69q0 100 -27 153l-47 59l-76 87l-127 133
l-177 167l-64 67q-23 26 -35.5 47.5t-16.5 38.5l-7 51l3 40l16 42q15 30 66 59q10 6 27 10.5t41 8.5q38 0 70 -26.5t54 -84.5l3 -28q0 -23 -1.5 -37.5t-3.5 -21.5l-5 -35l66 -64l87 -93l154 -183q84 -112 118 -225l16 -70l4 -71q0 -132 -76 -238q-66 -88 -195 -165z" />
    <glyph glyph-name="bn_dui" unicode="&#x9e8;" horiz-adv-x="1177" 
d="M1086 -203l-22 21q-10 11 -22 21q-4 3 -15 13l-32 24q-41 31 -94 67t-120 77q-79 50 -146 87.5t-141 72.5q-117 55 -290 91l-120 417q0 -16 17 -33l39 -37q38 -30 94 -58t132 -55l121 -40q17 -3 27 -5.5t18 -4t17 -2t23 -0.5q54 0 89 7l78 30q109 51 109 128
q0 10 -3.5 21.5t-9.5 24.5q-54 126 -213 212l-233 103q-114 62 -114 159q0 34 15 92l32 24q22 13 41 19t35 6q20 0 29 -5l37 -5q56 -19 66 -121l27 -7q12 -4 25 -10q23 -9 47 -22.5t51.5 -32t61.5 -46.5l79 -63q138 -120 138 -298l-5 -54q-8 -61 -20 -98t-36 -69
q-14 -16 -44 -42.5t-80 -65.5l-64 -32l-91 -30q39 -20 85.5 -52.5t104.5 -77.5l115 -88l71 -54l42 -40l113 -106l30 -157z" />
    <glyph glyph-name="bn_tin" unicode="&#x9e9;" horiz-adv-x="1248" 
d="M1182 564q0 -62 -5.5 -115t-18.5 -99l-32 -108q-26 -64 -68.5 -117t-97 -91.5t-119.5 -60t-133 -21.5q-218 0 -431 314q-69 106 -119 210t-79 210l-39 166l-28 176l106 -49q3 -42 11 -85.5t21 -81.5q14 -61 44 -131.5t71 -151.5q24 -45 54.5 -88.5t71.5 -85.5
q111 -127 219 -145l75 -8q156 0 279 128q48 60 74 123t26 132q0 108 -19.5 183.5t-56.5 123.5q-47 59 -200 112q9 -12 14.5 -28t11.5 -39l14 -78q0 -49 -24 -101.5t-84 -93.5l-49 -25l-57 -9q-85 0 -159 88q-13 14 -23.5 35.5t-21.5 51.5q-9 29 -14 55t-5 43q0 57 19 108
l20 49q30 45 55 73.5t54 45.5t65 24t86 7q79 10 157 -30t161 -127q65 -68 105.5 -165.5t61.5 -223.5z" />
    <glyph glyph-name="bn_chaar" unicode="&#x9ea;" horiz-adv-x="1222" 
d="M995 312q0 -155 -142 -258q-61 -42 -136.5 -68t-168.5 -38l-46 -2q-171 0 -300 118q-108 105 -108 226q0 17 1.5 31.5t7.5 24.5q46 135 169 204q20 10 47.5 19t63.5 19q-29 7 -53 16.5t-44 22.5q-153 89 -153 261q0 145 123 267q61 61 139.5 90.5t174.5 29.5l28 3
q151 0 255 -101q96 -93 96 -211l-3 -36q-15 -87 -81 -164q-33 -38 -66 -62t-65 -36q53 -14 95.5 -42t77.5 -66q88 -95 88 -248zM344 1084q-39 -39 -39 -96q0 -84 78 -162q38 -34 86.5 -59.5t107.5 -38.5l87 47l46 31q94 72 94 152q0 45 -21 84t-56.5 67.5t-82 45.5t-98.5 17
q-22 0 -34.5 -0.5t-24 -3t-24.5 -7.5l-36 -13q-42 -16 -83 -64zM821 264q0 103 -141 204q-111 73 -157 73q-17 0 -21 -5q-132 -88 -180 -157q-29 -46 -29 -108q0 -47 25 -88.5t90 -79.5q31 -13 64.5 -20t71.5 -7q94 0 178 45q21 11 39.5 32.5t35.5 52.5z" />
    <glyph glyph-name="bn_paanch" unicode="&#x9eb;" horiz-adv-x="1231" 
d="M1194 794q-22 -5 -38.5 -9.5t-34 -10.5t-36.5 -15l-46 -21q-85 -40 -157 -101q-90 -73 -134 -137q-28 -42 -43 -87t-15 -95v-29l6 -33q22 -144 160 -231l54 -24l78 -33q-56 -25 -108 -36l-128 -10q-49 0 -104.5 7.5t-111 21.5t-106.5 34.5t-88 45.5q-140 77 -206 206
q-57 107 -57 245l7 121q4 31 16.5 66.5t33.5 78.5q94 201 286 357q156 117 274 139l202 -47q-23 -6 -44 -22t-37.5 -38.5t-26 -48.5t-9.5 -53q0 -45 30 -80q4 -10 47 -21l83 -9l101 -61q42 -27 79.5 -43.5t72.5 -26.5zM853 802q-61 8 -84 27l-79 66q-22 23 -36 72l-18 73
q-44 -22 -93 -56.5t-95.5 -82t-87.5 -106.5t-70 -126q-27 -67 -41.5 -126t-14.5 -113q2 -31 2 -56t9 -52.5t32.5 -62t74.5 -82.5q135 -119 258 -150l70 -9q-61 57 -103 147q-20 46 -29 88t-9 77q0 180 110 322q79 101 204 150z" />
    <glyph glyph-name="bn_chhoi" unicode="&#x9ec;" horiz-adv-x="1187" 
d="M1133 384q-22 -160 -99 -275q-44 -61 -102 -102.5t-133 -62.5l-57 -9l-46 -3q-58 5 -109.5 17.5t-104 45t-111 91t-127.5 154.5q-48 72 -106 199q-49 119 -78 199t-41 125q-9 44 -14 97t-5 114l68 -32q20 -102 41.5 -181t47.5 -136q27 -55 73 -131t114 -174
q22 -31 53 -57.5t72 -50.5q35 -18 77.5 -32.5t95.5 -23.5l48 -3q121 0 209.5 58.5t125.5 182.5l9 50l3 46q0 92 -57 177q-10 -27 -33 -56t-55 -55.5t-70 -48t-80 -32.5l-81 -7q-74 0 -125.5 33t-90.5 84q-13 21 -22.5 47t-16.5 59l-47 330q-35 0 -59 17l-35 37
q-6 9 -10.5 24t-8.5 39q0 22 9.5 43.5t27.5 38t44 26.5t59 10q36 0 64 -14.5t46.5 -39.5t28.5 -60.5t10 -76.5v-389q0 -28 23 -51q17 -12 56 -19q58 0 123 66l69 81q34 37 58 80.5t41 93.5q55 -41 98 -92.5t73 -111.5t46 -125.5t16 -132.5v-30l-5 -51v0z" />
    <glyph glyph-name="bn_saat" unicode="&#x9ed;" horiz-adv-x="1238" 
d="M1147 -14q-7 -36 -45 -69l-40 -15l-65 -2q-27 7 -50 24t-40 42q-27 58 -27 126v439l-364 -5q-56 0 -150 72q-109 81 -134 186l-6 52q0 144 126 273.5t260 129.5q145 0 280 -143q138 -144 138 -279l-3 -28v-653q58 0 90.5 -24t32.5 -90zM884 740q0 72 -56 202t-130 168
q-66 14 -177 -75t-125 -152l-10 -89q0 -64 54 -78l62 -7l380 2z" />
    <glyph glyph-name="bn_aat" unicode="&#x9ee;" horiz-adv-x="1271" 
d="M1180 760q-26 -80 -138 -118l-130 -8q-102 0 -106 -33l8 -25q37 -77 37 -148q0 -148 -126 -277q-61 -65 -144.5 -113t-189.5 -79q-45 -7 -126 66q-81 74 -113 165v812q-56 0 -100 28q-40 33 -40 96q0 58 29 93t79 35q26 0 51.5 -10t47 -27t37 -40.5t21.5 -52.5l13 -128
v-297q10 17 28 35t48 38q31 23 57 35.5t46 18.5l61 5q53 0 96 -29q23 -12 50.5 -39.5t62.5 -74.5l23 -16l12 30q4 16 28 44q45 76 174 76q103 0 142 24l42 74l20 -7l7 -33l2 -46l-2 -29zM666 544q0 50 -66 93q-24 13 -50 19t-51 6q-24 0 -39.5 -1t-21.5 -4q-8 0 -22.5 -4
t-35.5 -14q-20 -6 -42 -18t-50 -31l2 -418l15 -46l14 -22q120 0 279 214q13 20 25 45t21 53q10 31 13.5 55t3.5 41z" />
    <glyph glyph-name="bn_noi" unicode="&#x9ef;" horiz-adv-x="1184" 
d="M1102 394q0 -160 -200 -302q-176 -124 -307 -124l41 237l2 42v32q0 15 -1.5 25.5t-5 20t-9.5 20.5q-10 24 -28 52.5t-38 50.5l-57 57q-9 7 -93 21q-42 8 -99 -70q-51 -77 -51 -155q0 -61 39 -89l31 2q58 0 82 -31t24 -81q0 -42 -14 -80q-23 -56 -94 -56q-35 0 -66 14.5
t-61 41.5q-67 64 -82 158l-2 55q0 62 16 120.5t46 107.5t72 88t93 64q63 27 117 27q131 0 228 -113q101 -114 101 -249q0 -56 -17 -97l118 81q69 55 69 145q0 149 -159 236l-347 139q-233 93 -335 227q-54 77 -54 139l3 35q7 27 17.5 48.5t24.5 38.5q38 44 84 44
q8 0 20.5 -3t26.5 -9t27 -16t24 -26q6 -12 9.5 -28t9.5 -39q0 -53 -35 -78l82 -77l359 -118q170 -74 272 -213q42 -61 71 -131.5t42 -151.5z" />
    <glyph glyph-name="bn_asamiba" unicode="&#x9f0;" horiz-adv-x="1086" 
d="M907 -112l-65 83l-26 62l-30 57l-29 51l-54 73q-20 28 -43.5 50t-54.5 44l-84 54l-157 79q-38 15 -75.5 19.5t-77.5 4.5l-157 223l148 101l154 91l212 104l100 42l118 39v83h-786l-118 124h1170l120 -124h-265v-1260zM786 526v342q-66 -22 -120 -48t-122 -64l-11 -8z
M786 390l-356 307l-27 -16l-91 -59q40 -16 76.5 -36t75.5 -44q38 -23 68.5 -46.5t67.5 -54.5l80 -79q26 -28 53 -62t53 -78v168z" />
    <glyph glyph-name="bn_asamira" unicode="&#x9f1;" horiz-adv-x="1057" 
d="M1109 1148h-232v-1246l-47 45l-110 204q-24 51 -98 125q-29 27 -60.5 53t-62.5 45l-113 59q-96 44 -201 44l-161 220l145 97q77 49 157 89l209 101l220 84v80h-753l-120 124h1101zM568 -21l-27 34q-8 14 -26 35t-40 42l-43 40l-34 33q-37 27 -87.5 44t-94.5 59
q-12 10 9 37t31 37q7 5 34 -6.5t60 -28t63 -35t39 -28.5q35 -32 53 -43t48 -41q5 -5 19 -25l30 -46l27 -43l13 -19zM755 205v680l-87 -26l-56 -23l-131 -66l-108 -66l-96 -70l67 -28q34 -16 46.5 -23t41.5 -27l67 -49l73 -66l104 -111q20 -24 34.5 -50t44.5 -75z" />
    <glyph glyph-name="bn_takamark" unicode="&#x9f2;" horiz-adv-x="1055" 
d="M956 -21q-74 201 -167 375.5t-212 324.5q-233 297 -511 431l194 105q120 -108 227.5 -240t206.5 -291q190 -320 312 -705h-50z" />
    <glyph glyph-name="bn_takasign" unicode="&#x9f3;" horiz-adv-x="943" 
d="M931 541q0 -145 -31 -216l-62 -111q-35 -81 -148 -166q-41 -30 -76.5 -52.5t-69.5 -31.5l-94 -12q-44 0 -67 14q-28 13 -56 34.5t-62 51.5q-59 66 -66 116l-7 199v194v42v19h-108l-114 136h232v275q0 45 -21 67t-66 31q-20 0 -34 -4t-20 -10l-24 49q-12 29 -15.5 51
t0.5 32q8 11 21 23.5t31 24t39 19t47 7.5l32 -5q59 -26 99 -89t40 -166v-87l4 -103v-49q0 -24 -2 -38.5t-4 -20.5h67l115 -143h-176l-4 -391q0 -50 33 -90q33 -30 88 -30q28 0 57.5 9.5t62.5 32.5q34 25 62 62t54 83l44 86l7 74l-29 -2q-162 0 -162 166l3 27q3 47 17.5 80
t36 52.5t49.5 28.5t59 9q17 0 33 -1.5t30 -7.5q71 -34 122 -124l26 -66q7 -18 7 -79z" />
    <glyph glyph-name="bn_currency1" unicode="&#x9f4;" horiz-adv-x="1062" 
d="M61 69q141 65 264 170.5t240 258.5q123 152 217.5 326t171.5 376h52q-124 -390 -323 -707q-96 -163 -198 -294.5t-227 -237.5z" />
    <glyph glyph-name="bn_currency2" unicode="&#x9f5;" horiz-adv-x="1175" 
d="M335 72q282 172 282 337q0 93 -61 167q-59 72 -138 72q-69 0 -69 -40q73 -96 73 -164q0 -72 -45.5 -125t-108.5 -53q-66 0 -116.5 60.5t-50.5 153.5q0 121 84 199q78 81 188.5 81t203.5 -105q94 -113 101 -281q82 96 158 212t144 248q64 135 107 251.5t60 219.5h49
q-56 -341 -250 -732q-98 -194 -197.5 -337.5t-202.5 -232.5z" />
    <glyph glyph-name="bn_currency3" unicode="&#x9f6;" horiz-adv-x="1325" 
d="M1264 1305q-26 -314 -146 -660q-123 -347 -307 -509q-182 -165 -398 -165q-148 0 -230 78.5t-82 226.5q0 180 152 180q5 0 18 -2l39 -3q27 -3 47.5 -4t36.5 -1q117 0 185 55t68 149q0 64 -33.5 107t-74.5 43q-33 0 -33 -28q0 -9 15 -34q18 -24 18 -59q0 -61 -44.5 -101
t-105.5 -40q-70 0 -116.5 47t-46.5 119q0 106 63 167t151 61q116 0 194 -86q79 -93 79 -226t-96 -230q-96 -96 -237 -96q-19 0 -41 1t-49 3.5t-42 2.5h-22q-69 0 -69 -40q0 -63 56.5 -100.5t138.5 -37.5q140 0 258 57q56 27 116 76.5t125 119.5q127 141 222 383.5t137 545.5
h54z" />
    <glyph glyph-name="bn_currency4" unicode="&#x9f7;" horiz-adv-x="902" 
d="M164 1254q45 0 68.5 -52t23.5 -139v-826q0 -42 12 -61.5t54 -19.5h2q0 -141 -92 -141q-99 0 -99 207v804q0 93 -77 93q15 135 108 135z" />
    <glyph glyph-name="bn_currency1less" unicode="&#x9f8;" horiz-adv-x="1403" 
d="M122 1030q0 94 -70 94q14 132 100.5 132t86.5 -176v-620q0 -56 29 -56q7 0 18.5 -3.5t25.5 6t34 39t48 92.5q75 180 108 293t61 145q24 35 57.5 47t57.5 12q91 0 91 -183v-623q0 -41 9.5 -61t51.5 -20h3q0 -138 -88 -138q-93 0 -93 204v603q0 56 -26 56q-7 0 -13 -21
t-26 -60q-17 -34 -39 -111.5t-81 -193.5q-24 -48 -41.5 -78t-29.5 -47l-22 -28q-8 -12 -18 -21q-32 -37 -72 -49t-70 -12q-92 0 -92 194v584z" />
    <glyph glyph-name="bn_currency16" unicode="&#x9f9;" horiz-adv-x="902" 
d="M347 637q0 93 68 170q75 71 190 71q103 0 172 -53t56 -156q-10 -71 -24.5 -108t-48.5 -77q-64 -70 -176 -70q-108 0 -172.5 60t-64.5 163zM742 667q0 63 -27 97t-91 28q-40 -3 -61.5 -15t-48.5 -39q-57 -57 -57 -148q0 -59 26 -81t82 -22q42 0 66.5 16t56.5 44
q30 24 39.5 51t14.5 69z" />
    <glyph glyph-name="bn_isshar" unicode="&#x9fa;" horiz-adv-x="880" 
d="M497 1114q-65 0 -92 38t-24.5 85t32.5 85t84 38q59 3 94 -32t35 -96q0 -44 -34 -81t-95 -37zM938 1156q-38 -76 -70.5 -131.5t-58.5 -90.5q-59 -75 -140.5 -128t-166.5 -58q-64 -6 -148 37.5t-169 146.5q-28 35 -47.5 84t-33 99.5t-21 95.5t-7.5 73q0 42 23 54t44 -38
q7 -19 18 -53t24.5 -71.5t28 -70.5t32.5 -49q52 -63 120 -93.5t133 -23.5q57 0 124 38.5t111 92.5q38 40 62.5 70.5t43.5 60.5l43 67l55 92q38 74 74.5 130t78.5 101q44 54 92 76t102 27q25 2 48 1t48 -3q49 -8 64 -30t20 -54q-2 -36 -10 -66t-32 -66q-12 2 -27 3t-32 -1
q5 59 4 89.5t-19 48.5q-29 19 -51 20.5t-60 -10.5q-33 -18 -59 -43t-53 -58q-33 -40 -80 -137z" />
    <glyph glyph-name="afii61664" unicode="&#x200c;" horiz-adv-x="0" 
d="M67 101h-147v1033h147v-1033z" />
    <glyph glyph-name="afii301" unicode="&#x200d;" horiz-adv-x="0" 
d="M357 670l-98 -79l-189 79l5 -542h-145l-5 542l-203 -120l-97 76l285 172l-219 118l99 77l208 -119l224 143l102 -74l-237 -145z" />
    <glyph glyph-name="uni25CC" unicode="&#x25cc;" horiz-adv-x="1213" 
d="M56 381l-44 169l131 20l45 -166zM19 658l54 154l128 -28l-54 -152zM152 914l167 103l82 -83l-167 -104zM476 1074h191v-108h-184zM848 1032l212 -118l-77 -88l-206 119zM1152 777l43 -217l-132 -15l-44 216zM1166 366l-118 -124l-106 67l116 121zM865 122l-205 -47
l-37 103l208 46zM387 102l-199 115l77 90l201 -116z" />
    <glyph glyph-name="bn_half_ka" horiz-adv-x="1403" 
d="M856 1148v-92l24 4q122 0 258 -121q177 -151 177 -383q0 -49 -16 -90.5t-43.5 -72t-63.5 -47t-76 -16.5q-71 0 -131 67l-24 42l-7 41l7 44q4 13 10.5 24.5t16.5 22.5l37 35l73 12q54 0 96 -38l23 -24l7 22q0 50 -17 89q-24 71 -79 117q-40 42 -94 70q-70 36 -150 36
l-31 -2v-981l-44 45l-37 108q-10 31 -37 71t-69 91q-82 109 -157 147l-64 37l-81 35q-22 10 -59 18.5t-91 15.5l-170 209q45 34 102 74t129 85q126 77 219 119t243 91v95h-749l-126 124h1492l121 -124h-619zM732 885q-89 -27 -150 -61l-132 -73l-82 -57l-75 -55
q41 -17 72 -31t53 -30q10 -6 19 -12l20 -13l25 -19l32 -24q27 -21 56 -48.5t56 -62.5q24 -31 51 -70t55 -87v643z" />
    <glyph glyph-name="bn_half_kha" horiz-adv-x="1194" 
d="M1018 1148v-1241l-33 35l-21 40l-21 40l-17 45l-37 74l-29 47l-49 64q-43 50 -105 91q-87 54 -180.5 87t-190.5 47l-204 253l103 -9l90 7l94 20q61 18 109.5 44.5t86.5 61.5q54 53 54 101q0 42 -13 67t-48 53l-105 -99l-72 -39l-101 -36q-71 -21 -113 -21q-35 0 -67.5 11
t-56.5 29.5t-38 45.5t-14 60l2 61q2 9 8 20t16 24q38 49 98 49q66 0 99 -37q9 -13 14.5 -31t5.5 -42q51 7 71 19l110 96l82 77l76 -65l72 -63q16 -18 36 -47.5t44 -70.5q11 -23 17 -46.5t6 -49.5q0 -67 -34.5 -133.5t-115.5 -124.5l-67 -40l-54 -21l79 -42l75 -54
q66 -53 134 -126q26 -29 46.5 -58.5t37.5 -56.5v1231l70 -45l5 -75l15 -66q3 -6 12.5 -12t24.5 -13l144 -3l110 -133h-261z" />
    <glyph glyph-name="bn_half_ga" horiz-adv-x="614" 
d="M781 976l-78 62l-93 46q-11 6 -28 10.5t-38 10.5l-54 5q-47 -9 -81.5 -18t-54.5 -22q-66 -37 -113 -143l57 12l78 10l67 -7q21 0 63 -22q108 -60 108 -160q0 -26 -3 -47.5t-9 -38.5q-3 -18 -20.5 -51t-48.5 -79l-39 -60l-42 -49l-63 -73l-121 145l44 37l77 83l73 87
q44 58 44 93q0 15 -9 24q-23 30 -59 30t-119 -51q-80 -52 -120 -52q-24 0 -44 12q-51 31 -73.5 71.5t-22.5 90.5q0 79 61 173q47 66 103 105q42 24 90.5 37t106.5 13q44 0 90.5 -8t88 -20.5t73.5 -30t50 -35.5l69 -49l20 -7l15 -18l44 -54v-148z" />
    <glyph glyph-name="bn_half_gha" horiz-adv-x="1158" 
d="M971 1148l2 -1250l-59 56l-51 128q-37 83 -141 179q-57 48 -121.5 78.5t-136.5 44.5l-68 8l-65 2l-162 167l119 123q31 34 65.5 65t68.5 58l-46 -18l-47 -5q-83 0 -160 62q-31 24 -48 45t-23 41l-4 10q-6 16 -9 33.5t-3 38.5l7 70l29 64h-123l-120 124h1246l121 -124
h-271zM848 1148h-408q-52 7 -96 -29q-13 -13 -23.5 -28t-20.5 -35l-17 -63q0 -25 12.5 -48t32 -40t43.5 -27t46.5 -10t49.5 8.5t53 22t49.5 31.5t37.5 37l132 -131q-31 -18 -69.5 -49t-85.5 -73q-44 -42 -80.5 -82t-65.5 -78l88 -37q20 -6 37.5 -14.5t34.5 -20.5
q38 -19 66 -43l30 -28q15 -14 36 -37q34 -35 64 -72t54 -78v924z" />
    <glyph glyph-name="bn_half_nga" horiz-adv-x="664" 
d="M929 465q0 -59 -29 -117q-13 -30 -28.5 -53.5t-36.5 -40.5q-21 -22 -50.5 -41t-62.5 -34t-67.5 -24t-64.5 -9t-58 2.5t-56 9.5q-24 7 -49.5 20.5t-53.5 31.5l-63 44l-66 68l-57 82l-42 73l-51 121l-40 153l-14 75l-12 84l-11 78l-3 68l65 -50l27 -121l21 -85l40 -106
q7 -24 16.5 -44t30.5 -52l44 -79l47 -54q38 -43 96 -86l78 -49l54 -17l49 -5l47 5q19 2 33.5 6.5t27.5 10.5l52 34q49 26 79 120q7 20 7 50q0 33 -10 49q-21 56 -54 89l-37 -50l-73 -61q-19 -14 -43 -22t-55 -8q-89 0 -165 59q-81 67 -81 192v61q0 21 1 37.5t3 29.5l10 54
l25 66l29 71q2 10 7.5 19.5t12.5 20.5h-400l-129 131h797q44 0 84.5 -8.5t71.5 -23t52.5 -34.5t30.5 -42l17 -72q0 -52 -25 -90t-62 -58l-75 -22l-80 -9q-30 0 -62 6t-60 16t-49.5 22t-29.5 24l-24 -49l-25 -78l-10 -65q0 -9 2.5 -28.5t11.5 -61.5q12 -39 84 -39
q24 0 50 9.5t54 29.5q33 22 51 59l33 64q116 -46 176 -155q7 -11 10.5 -19t7.5 -17.5t7 -22.5l10 -37q6 -22 9 -48.5t3 -57.5zM636 1156q-17 -4 -31.5 -9.5t-27.5 -15.5l-42 -35l-12 -33q0 -13 23 -35q22 -11 90 -22l72 -2l37 2l36 29q27 21 30 59l-12 20l-25 29l-35 13
l-51 5q-21 0 -33.5 -1t-18.5 -4z" />
    <glyph glyph-name="bn_half_cha" horiz-adv-x="546" 
d="M244 1148l4 -43q0 -21 15 -49l27 -45l39 -47l30 -27l32 -24l29 -16l42 -17q46 -20 122 -37l80 -14l44 -24l26 -33l16 -30l14 -38q8 -20 -2 -44l-17 -47l-32 -61l-35 -62l-64 -96q-24 -33 -50 -62.5t-58 -53.5l-61 -49l-69 -31l-59 -23l-27 5q-63 16 -103 79l-25 41
q-12 20 -22 43q-7 21 -11 41t-4 37v727h-125l-120 124h725l108 -124h-469zM535 686l-41 8l-40 17q-17 7 -27 17q-48 23 -66 47l-39 42l-36 37l-40 59v-490q0 -31 10 -49.5t42 -21.5q27 0 37 8l19 16l35 26l29 24l44 42l42 54q18 22 31 46t21 52l16 61z" />
    <glyph glyph-name="bn_half_chha" horiz-adv-x="1111" 
d="M1196 -285q-242 256 -525 347l-148 47q-50 13 -110 25t-130 22l-121 225q64 -20 115.5 -29t93.5 -9l74 2l88 15q23 4 37 8t26 8.5t26 13.5l32 19q28 17 75 53.5t113 96.5l42 47q10 18 16.5 38t9.5 42q0 49 -38 106l-93 27l-76 15l7 -45q0 -72 -58.5 -139.5t-161.5 -127.5
q-82 -52 -159 -52l-45 7q-28 7 -53 23.5t-44.5 37.5t-31.5 45t-12 47v519h-152l-113 125h1195l113 -125h-923q15 -35 22.5 -56t17.5 -30q15 -18 133 -75q24 -9 55 -14t70 -5h42l44 10l31 5h26q122 0 213 -113q94 -112 94 -251q0 -22 -0.5 -35t-2.5 -26t-7 -30l-13 -42
q-10 -25 -26 -48.5t-40 -44.5q-35 -36 -148 -105l-73 -45l-59 -20l111 -54l51 -29q10 -2 21 -9.5t24 -17.5q27 -17 76.5 -59t121.5 -113l133 -131zM474 854q-55 14 -94 49l-78 43l-37 60v-354q0 -46 10 -56q12 -8 44 -8q24 4 41 11t29 16l41 30q114 84 114 157l-3 29z" />
    <glyph glyph-name="bn_half_ja" horiz-adv-x="658" 
d="M476 1126q0 -31 18 -55.5t50 -44.5l56 -28q22 -7 66 -7q18 0 32.5 1t23.5 4l52 15l49 17v-108l-110 -25h-61q-50 6 -88 31t-77 55q-13 13 -30.5 35.5t-41.5 55.5l-56 -56l-33 -42l-24 -40l-12 -39l-2 -36l2 -25l8 -20q9 -16 51 -16q28 0 52 12l51 24q60 22 89 56
q36 -29 76 -76l35 -58q14 -32 14 -54q0 -30 -3.5 -58.5t-10 -52.5t-15.5 -42.5t-20 -29.5l-53 -50q-22 -19 -41.5 -30.5t-40.5 -16t-50 -4.5q-58 0 -108 17t-94.5 56t-83 102t-70.5 155l-29 98l-19 98l-18 131q22 -16 22 -28l20 -78l37 -96q24 -68 51 -118t54 -81l69 -71
l86 -44q13 -6 28 -9t36 -3q18 0 40 4t42.5 10.5t37.5 15t23 17.5q34 34 34 80q0 50 -37 82l-77 -38l-98 -16q-38 0 -80 15t-80 60q-24 33 -24 82q0 42 5 66.5t19 48.5l33 73q7 17 18.5 37t28.5 42h-298l-108 106h790l102 -106h-308z" />
    <glyph glyph-name="bn_half_jha" horiz-adv-x="1356" 
d="M1205 1148v-1079l-60 59l-36 109l-18 43l-24 42l-59 77q-59 63 -136 103v-578l-54 58l-46 110q-10 24 -31.5 58t-55.5 79q-66 83 -124.5 134.5t-114.5 81t-110 41.5t-110 14l-165 206l64 42l65 44q38 26 69 44l51 32l108 62q55 31 112 58l225 99v23v38h-755l-120 124h992
v-630q15 -6 31 -16.5t33 -27.5l47 -44l49 -56l44 -68v1070l59 -50l12 -78l6 -32l17 -44l37 -15q9 -3 24.5 -5.5t31.5 -4t31.5 -1.5t25.5 2l124 -124h-239zM755 895q-30 -10 -68.5 -26t-84.5 -40l-147 -83l-64 -40l-67 -46q53 -24 87.5 -43.5t55.5 -36.5l77 -66l54 -54
l63 -73q28 -35 51.5 -69t42.5 -69v646z" />
    <glyph glyph-name="bn_half_nya" horiz-adv-x="1897" 
d="M1799 183q-27 -35 -61.5 -53.5t-81.5 -18.5q-42 0 -88 16.5t-100 47.5q-41 24 -81.5 55.5t-78.5 72.5q-12 6 -30 21.5t-42 39.5l-37 45l-3 -514l-58 59l-36 108q-10 38 -38 72q-46 52 -96 59l-81 5h-64l-56 -10q-85 -12 -142 -17.5t-86 -5.5l-52 3q-23 0 -37 0.5t-27 2
t-26.5 6t-35.5 11.5q-20 10 -44 22.5t-52 29.5q-31 21 -58 52.5t-50 69.5l-42 106q-14 58 -14 140l2 83l19 79l42 94l40 61l49 -49l-37 -59l-19 -52l-7 -44l-3 -59l7 -94q4 -18 13.5 -39t26.5 -45q48 -70 206 -108q52 -9 106 -14t122 -5q160 0 268 -37l140 -83v805l-12 47
q-7 37 -58 37q-28 0 -57 -14l-37 -23l-42 -29l-42 -32l-29 -32q-23 -18 -39.5 -37t-29.5 -39q-34 -56 -52 -120l67 7q22 0 41 -13q13 -4 35 -36l19 -44l8 -47q0 -30 -11 -54.5t-27.5 -42.5t-35.5 -28.5t-35 -10.5l-31 -2h-23q-96 0 -157 59q-24 31 -36.5 73.5t-12.5 96.5
q0 110 119 265q13 18 43 51l74 76q55 34 95.5 55.5t71.5 35t57.5 18.5t55.5 5l62 -30q35 -14 56.5 -28.5t31.5 -27.5q23 -20 37 -54q14 -22 14 -49v-275q8 30 40 78q17 30 36 56t43 47q58 71 118 111q78 49 145 49q83 0 167 -81q51 -44 76 -99t25 -109q0 -69 -27 -130
t-69 -107l69 -143q13 -42 18.5 -74t5.5 -53v-37l-12 -49q0 -17 -9 -35zM1733 350q19 30 26 71q0 35 -24 59l-49 49l-54 -27l-79 -25q-30 0 -57 9t-47 26t-32 41t-12 55q0 25 12 50.5t32 44.5t45 31t52 12q19 0 54 -16l30 3l49 -10l17 10q42 56 42 110q0 34 -20 63
q-49 61 -123 61l-42 -3q-10 0 -20.5 -4t-24.5 -14q-24 -7 -45.5 -17.5t-41.5 -27.5q-81 -52 -150 -143q-70 -88 -70 -155l4 -25q43 -167 228 -263q62 -29 138 -29q113 0 162 64z" />
    <glyph glyph-name="bn_half_Ta" horiz-adv-x="1018" 
d="M253 1148v-823q0 -31 22 -64q25 -24 72 -24q26 0 58 11t68.5 36t79 66t89.5 101q55 75 66 155l-37 -5q-59 0 -111 36q-46 39 -46 103l4 40q21 68 64.5 97t97.5 29q14 0 24 -1.5t16 -3.5q78 -17 133 -103l24 -58l10 -85q0 -54 -7.5 -100.5t-22.5 -87t-39.5 -77
t-57.5 -72.5q-60 -63 -115.5 -109t-109.5 -77q-48 -32 -105 -42l-62 -8h-21q-30 0 -75 29q-25 15 -61 64q-24 31 -40 61.5t-26 61.5l-9 76v98v676h-143l-101 124h875v49q0 31 -8.5 52t-36.5 41q-57 32 -140 32l-103 -3h-73l-62 -9q-20 0 -32.5 -1.5t-18.5 -3.5h-35
q-79 0 -157.5 22t-132.5 76q-18 15 -34 36t-27 44t-18 46.5t-7 45.5q0 24 3 40.5t9 27.5q8 25 27 49q5 12 25 16l26 10v-23l6 -22q-30 -29 -30 -63l5 -33l12 -33l52 -40l44 -20l61 -12l70 4l85 5l126 5l127 8q65 0 115 -12.5t85 -36.5q38 -23 76 -64t62 -93
q9 -31 12.5 -55.5t3.5 -42.5v-42h134l98 -124h-863z" />
    <glyph glyph-name="bn_half_Tha" horiz-adv-x="995" 
d="M605 1148q35 -35 64 -77t56 -87l72 -167q18 -48 31 -90t23 -79l9 -161q0 -31 -3 -54.5t-9 -40.5l-27 -91q-7 -28 -18.5 -53.5t-28.5 -47.5q-25 -46 -56 -66q-23 -23 -55 -44.5t-79 -49.5q-67 -37 -139 -37l-47 5l-63 10q-36 7 -63 25q-33 14 -67.5 43.5t-68.5 71.5
q-29 34 -54 106q-10 34 -15.5 65t-5.5 68q0 35 4.5 64t13.5 53q35 11 64 22.5t49 24.5q25 13 51 32t52 46q96 99 135 173q20 42 29.5 80t9.5 82q0 42 -5.5 84.5t-18.5 87.5h-440l-125 126h488v31q-6 18 -63 101q-28 40 -52 90t-44 111q-17 60 -26 102t-9 69q0 70 40 141
q15 28 37.5 53.5t53.5 49.5l145 -124q-44 -20 -74 -36t-47 -33q-49 -47 -49 -135q0 -82 96 -228l88 -122l62 -73l415 3l131 -124h-467zM748 603q0 40 -9 88.5t-28.5 99.5t-47.5 103t-65 99l7 -103q0 -97 -35.5 -191.5t-102.5 -176.5q-40 -56 -115 -96l-77 -42l-47 -27
q-17 -9 -17 -61q0 -26 6 -53t17 -49.5t24.5 -38.5t29.5 -21l56 -18l50 -7l40 2l45 17l47 25q24 7 67 47q21 14 40 34t35 44l26 42l24 64q14 49 22 103.5t8 115.5z" />
    <glyph glyph-name="bn_half_Da" horiz-adv-x="1285" 
d="M607 1148v-476q47 0 132 56q43 30 76 65t57 73l22 31l32 35q36 -16 54 -35l50 -54q20 -27 40 -58.5t36 -66.5q41 -102 41 -199q0 -93 -36 -209q-38 -116 -155 -189q-61 -35 -136 -52t-161 -17q-169 0 -293 146q-20 24 -55 82l-88 155l-68 185q-11 35 -24 102.5t-28 167.5
l-19 185l71 -40q0 -48 9 -104.5t28 -120.5q6 -17 11.5 -38.5t14.5 -45.5l35 -78q27 -64 52.5 -112t53.5 -83l71 -86q50 -51 163 -89q50 -14 105 -14q48 0 94.5 11t86.5 31.5t72.5 47t51.5 57.5q21 31 34 66.5t23 74.5l-3 36q0 22 -15 62q-6 14 -19.5 37t-30.5 43
q-7 -37 -92 -115q-31 -27 -58 -49t-51 -37q-71 -45 -135 -45q-30 0 -55 11t-45 31q-24 30 -64 119l-5 214v216v51v22h-485l-120 124h1370l122 -124h-767z" />
    <glyph glyph-name="bn_half_Dha" horiz-adv-x="1020" 
d="M300 1148v-826q0 -30 14.5 -52.5t56.5 -29.5q23 0 50 11t58 35q75 53 170 170q25 28 36 68l18 86l-39 -4q-53 0 -108 36q-47 39 -47 106l7 52q4 22 14 41.5t28.5 36t45 26t62.5 9.5l32 -5l39 -7q12 0 24.5 -9t29.5 -26q17 -16 32 -34.5t28 -42.5q7 -17 12.5 -32t8.5 -31
l12 -76q0 -54 -6.5 -98.5t-19.5 -79.5q-13 -33 -37.5 -74.5t-63 -92t-86.5 -93.5t-108 -78l-103 -47l-62 -7q-24 -6 -58 14t-66.5 51t-58 67t-31.5 64l-2 872h-182l-118 124h1114l125 -124h-821z" />
    <glyph glyph-name="bn_half_Na" horiz-adv-x="570" 
d="M748 861q-9 34 -44.5 92t-98.5 107q-33 24 -89 45t-125 21q-157 0 -180 -128q-2 -14 -3.5 -30t-1.5 -34q0 -44 20 -98q25 -66 64 -66q12 0 8 12q-10 28 -10 56q0 106 125 106q21 0 32 -2q49 -3 76 -44.5t27 -92.5q0 -79 -54 -132t-133 -53q-12 0 -22 1t-22 4
q-157 32 -219 128q-51 83 -44 253q5 66 61 150q77 113 187 135q42 9 89 9q54 0 127 -36q80 -32 138.5 -97.5t110.5 -150.5l39 -136z" />
    <glyph glyph-name="bn_half_ta" horiz-adv-x="1356" 
d="M-5 1148l-122 124h1405l131 -124h-1414zM1271 526q0 -124 -54 -223q-46 -85 -141 -155l-96 -49l-61 -23q-29 -7 -122 -7q-87 0 -178 40q-38 19 -66.5 35t-48.5 33l-44 45l-80 98l-94 152l-33 62l-21 46l-119 296q-13 31 -26 80.5t-28 120.5l72 -30l56 -134l103 -214
l90 -152l70 -96q22 -31 43.5 -54t41.5 -37l77 -59l82 -28l75 -9l79 7l66 18q32 11 69 35t79 63q11 10 21.5 25.5t22.5 35.5l32 59q12 24 17 49.5t5 49.5v26q0 10 -1 17.5t-3 14.5q0 23 -20 67t-57 81l-33 24l-40 28q-10 3 -23 6t-31 6q-23 0 -43.5 -3t-38.5 -9
q47 -62 47 -141q0 -59 -30.5 -104.5t-92.5 -62.5l-44 -7l-42 -2q-42 0 -76 18t-64 53q-29 40 -47 122l-5 47q0 69 35 119l47 54q38 38 93 59t113 21l56 -5l57 -9q75 -18 136.5 -61t111.5 -111l54 -98l29 -77q23 -79 23 -153z" />
    <glyph glyph-name="bn_half_tha" horiz-adv-x="1172" 
d="M996 1152l1 -1259l-75 103l-71 108q-28 44 -68.5 86t-97.5 81q-72 50 -183 98q-4 1 -15 4l-26 7q-15 5 -31 10l-34 7l-119 7l-193 256l66 -3l32 5l62 12q74 7 194 74q126 74 179 155q25 54 25 93q0 30 -12 56t-33 46.5t-49 32.5t-61 12q-17 0 -26.5 -1t-12.5 -4l-18 -7
l-99 -51q-41 -21 -54 -47l35 -42q30 -41 30 -83q0 -20 -11 -42t-31 -42l-52 -35l-61 -9q-41 0 -70 15t-48.5 40t-29 56t-9.5 64l5 33l12 47q36 111 157 173q61 31 123.5 47.5t129.5 16.5q112 0 207 -99q98 -95 98 -231q0 -60 -23 -118q-18 -50 -41.5 -88.5t-50.5 -68.5
q-48 -54 -175 -131q34 -7 58 -31l65 -40q41 -23 153 -125q45 -43 77 -81.5t52 -70.5v1312l66 -78l6 -23q0 -95 41 -118l72 -3l126 -126h-192z" />
    <glyph glyph-name="bn_half_da" horiz-adv-x="1175" 
d="M1248 1148h-990v-518l52 39l164 145q37 29 80 56l90 55l165 73l213 -160l-61 -129q-61 -148 -84 -276l-9 -85l-5 -131l5 -52l7 -39l2 -44l15 -64l15 -62l22 -61l-87 33l-40 124l-26 84l-19 104l-15 147l-3 52v51l3 64l8 61l34 138l-62 -24q-34 -13 -70 -35l-59 -34
q-23 -15 -49 -42q-47 -42 -84.5 -81t-63.5 -79q-37 -47 -63 -93.5t-43 -88.5l-165 170v702h-125l-120 124h1243z" />
    <glyph glyph-name="bn_half_dha" horiz-adv-x="1104" 
d="M1168 1148h-244v-1288l-32 54l-52 126q-14 47 -101 140q-83 91 -144 133q-93 63 -123 74q-89 43 -231 59l-145 193l209 159l56 38l45 35q-45 0 -74.5 4.5t-63.5 21.5q-54 25 -88 87l-20 42l-10 63q0 40 13 80.5t78 84.5q57 32 132 32q45 0 85.5 -28t45.5 -70l-5 -24
q-7 -33 -36 -52.5t-83 -19.5q-12 0 -21.5 1t-18.5 8l-26 21q-19 -12 -19 -69q0 -55 49.5 -91.5t110.5 -36.5q24 0 39 5l32 16l182 107l94 57v162h242zM802 217v668q-33 -12 -64.5 -25.5t-64.5 -33.5l-120 -73l-98 -69l-94 -81q69 -25 120 -67q25 -14 54 -36l63 -49
q66 -52 112 -108l45 -57z" />
    <glyph glyph-name="bn_half_na" horiz-adv-x="492" 
d="M-32 1153l-90 123h606l91 -123h-607zM732 622l-73 106q-35 50 -47 59q-38 38 -84.5 61t-84.5 23l-28 -3q40 -27 40 -91q-6 -21 -19.5 -43t-33.5 -38t-46.5 -26t-57.5 -10q-64 0 -96 34l-40 52q-10 17 -16 33t-8 33q0 52 15.5 93t44.5 70t68.5 44.5t87.5 15.5
q95 0 187 -66l49 -44l41 -37l49 -54l42 -59l23 -47z" />
    <glyph glyph-name="bn_half_pa" horiz-adv-x="752" 
d="M664 1070l-40 24l-52 20l-63 10q-24 0 -46.5 -5t-42.5 -14q-19 -9 -37 -28l-34 -30q-32 -24 -59 -85q40 0 66 -13q35 -7 59 -39l35 -54l14 -39l3 -28v-24l243 273zM938 817l-38 39l-62 41l-36 13q-23 4 -40 -9l-386 -411l-123 81l106 103l27 32q9 14 12 45
q0 31 -12.5 57.5t-50.5 43.5q-31 0 -40 -6l-143 -41q-6 0 -21.5 5.5t-39.5 15.5q-42 26 -42 75q0 19 22 68q38 65 82.5 115t94.5 87q77 55 108 66q56 23 141 23q95 0 211 -68l78 -54l60 -51l61 -66l52 -72l19 -29v-143z" />
    <glyph glyph-name="bn_half_pha" horiz-adv-x="1438" 
d="M344 1148q39 -28 81 -65l93 -85l80 -90l73 -91l-69 -59l-63 -52l-171 -142q20 -6 45.5 -19t60.5 -33l108 -71q68 -50 122 -107.5t93 -126.5v846q32 15 92 15l75 -3q12 -2 30.5 -4t43.5 -8.5t58.5 -19.5t75.5 -40q40 -23 72.5 -61t54.5 -84.5t34.5 -96t12.5 -94.5
q0 -67 -22.5 -111t-75.5 -78q-49 -27 -108 -27q-44 0 -76 19l-44 50q-13 31 -23 70q0 88 89 119l42 7q44 0 89 -37l-5 5l24 -14q7 -8 17 0l6 26q0 26 -9.5 54.5t-27.5 52.5t-44 42.5t-60 25.5l-103 12l-51 5q-40 0 -47 -14l2 -964l-49 44l-35 69q-18 37 -37.5 68t-40.5 55
q-23 29 -46 55t-47 46l-104 78q-61 42 -138.5 66.5t-165.5 24.5l-143 204l119 113l122 111l106 86l-57 42l-51 31l-84 16q-68 7 -94 19l-68 42l-38 35l-63 43l-120 124h1445l122 -124h-1108z" />
    <glyph glyph-name="bn_half_ba" horiz-adv-x="1091" 
d="M907 1148v-1267l-65 90l-26 62l-30 57l-29 51q-27 42 -51 72t-44.5 50.5t-55.5 45.5t-85 53q-15 8 -36 19l-42 22l-42 20l-37 18q-38 13 -76 18.5t-77 5.5l-157 223l148 101l154 91l212 104l100 42l118 39v83h-791l-120 124h1140l120 -124h-228zM786 868
q-66 -22 -134 -51.5t-136 -68.5l-113 -67l-91 -59q38 -16 76 -36t76 -44q38 -23 68.5 -46.5t67.5 -54.5l80 -79q24 -24 51 -59.5t55 -80.5v646z" />
    <glyph glyph-name="bn_half_bha" horiz-adv-x="1313" 
d="M5 1148l-123 124h1302l129 -124h-1308zM1246 613q0 -71 -9 -127.5t-29.5 -104.5t-53 -90.5t-80.5 -85.5l-52 -45q-26 -18 -50 -31t-48 -20q-96 -22 -164 -22q-54 0 -138 22q-45 14 -82 31t-68 35q-24 19 -54 51l-69 80l-63 88l-54 86q-21 37 -38 75l-42 93
q-10 27 -29 82.5t-44 137.5l-51 165l78 -24q9 -39 24.5 -81.5t36.5 -89.5l44 -96l35 -68q41 -74 87.5 -136t100.5 -112l63 -52l63 -40q23 -9 64.5 -19.5t102.5 -20.5l54 -3q81 0 155 36q50 24 94 70.5t81 121.5l12 96q0 73 -17 103q-6 15 -21 40.5t-39 60.5
q-20 -53 -80 -113q-20 -20 -58.5 -44.5t-96.5 -55.5l-63 -18h-60l-78 2q-24 0 -57 18q-53 14 -115 86q-44 50 -44 147l4 44q33 145 212 145q61 -7 108 -61q7 -9 12.5 -21t8.5 -26l9 -42q0 -21 -5.5 -39.5t-15.5 -33.5l-29 -39l54 9q160 93 219 239l143 -124
q132 -170 132 -279z" />
    <glyph glyph-name="bn_half_ma" horiz-adv-x="694" 
d="M737 831q21 7 37 45q6 20 9 41.5t3 44.5q0 74 -23 126.5t-67 59.5h-401l17 -29q6 -7 11.5 -21.5t11.5 -34.5l26 -84q6 -13 20.5 -28t38.5 -36l89 -61l86 -30l66 -10q13 0 22 1.5t15 3.5zM590 642q-31 8 -66.5 28.5t-73.5 55.5l-94 91q4 -34 -7 -62.5t-32 -50.5t-48 -34.5
t-55 -12.5q-29 -3 -56 6t-48 27.5t-33.5 44t-12.5 54.5q0 124 118 153l29 4q21 4 28 16q2 6 2 13v18q0 23 -6 50t-18.5 50.5t-31.5 39t-45 15.5h-145l-110 124h917l120 -124h-94q20 -20 36.5 -45.5t27.5 -52.5q9 -28 14.5 -52.5t5.5 -55.5q0 -22 -1 -37t-4 -25
q0 -25 -13 -58q-7 -32 -27 -65t-44 -53q-45 -38 -80 -51.5t-77 -13.5h-32z" />
    <glyph glyph-name="bn_half_ya" horiz-adv-x="1093" 
d="M914 1148v-1258l-54 52q-22 66 -74 150q-43 80 -139 162q-54 48 -99 79t-84 46q-75 30 -216 30l-166 206l108 106l117 101l143 112l-113 64q-57 26 -147 44l-77 26l-83 39l-32 41l-123 124h1105l126 -124h-192zM791 1148h-472l67 -41l34 -23l37 -28l69 -63l49 -56
q20 -21 35 -37.5t26 -33.5l-24 -25l-18 -19l-28 -27l-30 -29q-15 -15 -30 -26q-10 -4 -72 -68l-92 -104q35 -9 65 -21.5t57 -29.5l54 -35l80 -59l92 -89l101 -124v938z" />
    <glyph glyph-name="bn_half_ra" horiz-adv-x="1057" 
d="M877 1148v-1246l-47 45l-110 204q-13 27 -38.5 58.5t-59.5 66.5q-58 57 -123 98l-113 59q-96 44 -201 44l-161 220l145 97l78 47q39 21 79 42l209 101l220 84v80h-753l-122 124h1061l126 -124h-190zM506 62q-33 -59 -96 -59q-22 0 -46 9.5t-43.5 27t-31.5 42t-12 54.5
q0 17 5.5 32.5t15.5 31.5q36 56 98 56q23 0 46.5 -9.5t42 -26t30 -39.5t11.5 -49q0 -14 -1.5 -21.5t-3.5 -13.5zM755 885l-87 -26l-56 -23l-131 -66l-108 -66l-96 -70l67 -28q18 -8 29 -13t19.5 -10t17.5 -11t22 -16l67 -49l73 -66l104 -111q10 -12 18.5 -23.5t17.5 -26.5
l18 -32l25 -43v680z" />
    <glyph glyph-name="bn_half_la" horiz-adv-x="727" 
d="M-160 1272h983l111 -129h-966zM934 751q-15 23 -45 43l-36 30q-17 10 -35.5 14.5t-41.5 4.5q-78 -7 -78 -117v-59l-42 -25l-14 27q-5 10 -8 15.5t-5 9.5l-61 90q-28 34 -61 54.5t-75 29.5l-78 10q-67 0 -112 -30.5t-68 -105.5l-7 -63q0 -61 36.5 -101t101.5 -64
q-17 24 -26 48t-9 48q0 26 11 47.5t29 36.5t42 23.5t51 8.5q65 0 101 -54q31 -54 31 -118q0 -42 -14 -64q-37 -52 -83.5 -75t-100.5 -23q-60 0 -111 29q-86 45 -135 135q-24 46 -35.5 93.5t-11.5 92.5q0 24 1.5 39t3.5 24q11 55 37 96.5t62 69t80 41.5t94 14q26 0 55 -7
t56.5 -17.5t52 -25t42.5 -30.5l82 -85l12 52l14 33q4 8 14 18t24.5 19t32 15.5t35.5 7.5q40 0 86 -22l70 -52q18 -11 28 -35l12 -19v-138z" />
    <glyph glyph-name="bn_half_sha" horiz-adv-x="694" 
d="M833 913q-10 20 -27 42l-32 43q-38 47 -66 66.5t-59 27.5l-39 7h-23q-21 0 -42.5 -20t-35.5 -51q6 -6 9.5 -11t7.5 -11l28 -31l33 -36q84 -68 84 -141q0 -60 -33 -92q-16 -13 -35 -20t-43 -7t-46 10.5t-42 31.5l-62 89q-20 -35 -35.5 -57.5t-25.5 -31.5
q-24 -21 -49.5 -31.5t-55.5 -10.5q-23 0 -43.5 10t-36 27.5t-24.5 38.5t-9 43q0 63 54 117l117 106q0 55 -108 93l-110 10l-79 84h143q20 -2 44 -6.5t52 -13.5q37 -8 61 -32l42 -34l54 -64l63 95l62 42q15 6 29.5 10.5t31.5 7.5q18 0 43.5 -6.5t54.5 -20.5t60 -37t61 -55
q26 -28 44.5 -51t29.5 -41l25 -60l-30 -108z" />
    <glyph glyph-name="bn_half_Sha" horiz-adv-x="582" 
d="M541 681l-93 -33l-45 -11l-30 -5q-19 0 -29 5q-86 0 -164 81q-17 18 -30 38.5t-23 43.5q-7 22 -12 46.5t-5 54.5q0 65 38.5 129t99.5 118h-295l-125 124h946l110 -119l-164 -5q29 -29 40 -64l9 -75q0 -79 -24 -129l-42 -70l-32 -30l-54 -45zM668 1056q0 30 -32 51l-43 22
l-47 12q-48 0 -94 -31q-46 -34 -39 -52l159 -143q22 0 39.5 12.5t30 32.5t19.5 45t7 51zM340 986q-8 7 -28 -5l-40 -32q-7 -7 -13.5 -16t-12.5 -23l-10 -32l15 -35l24 -41q24 -42 74 -42q39 0 94 45l49 31q13 13 10 28z" />
    <glyph glyph-name="bn_half_sa" horiz-adv-x="1170" 
d="M1234 1153h-188q28 -41 38 -78l20 -69l5 -60q0 -49 -18 -68l-29 -52l-44 -46l-66 -27l-50 -13l-39 -2l-57 8l-49 19l-37 15q-19 7 -32 20q-64 49 -105.5 115t-41.5 115l-37 -91l-32 -66l-47 -81q-27 -36 -66.5 -61t-65.5 -25q-21 0 -57 12q-13 8 -31 21.5t-41 32.5
l-51 59l-17 31q-7 14 -10 28l29 59l21 -15l16 -7q50 -44 76 -49q28 0 61 26t70 92q39 69 39 114q0 43 -30 43h-354l-98 119h1229zM990 1018q0 42 -26 83q-28 52 -64 52h-295q0 -52 29.5 -112t63.5 -89q32 -25 93 -44l35 -5h34l50 17q39 14 58 42q22 22 22 56z" />
    <glyph glyph-name="bn_half_ha" horiz-adv-x="1032" 
d="M1118 -240l-96 91l-110 89q-38 27 -98 66l-141 86q-51 30 -105 55l-116 53q-44 17 -107.5 35.5t-142.5 35.5l-136 332l86 -49l99 -37q45 -13 92 -20t89 -7h55l43 8l40 9q36 7 59 24q37 16 64 32t44 33l49 38q42 42 42 94q0 23 -9.5 48.5t-30.5 57.5q-10 14 -30.5 28
t-46 24.5t-52.5 17t-52 6.5q-36 0 -51 -9q0 -65 -45 -124l-63 -59l-20 -16q-9 -9 -23 -16t-34.5 -12t-51.5 -5q-54 0 -90.5 28.5t-52.5 86.5l-2 33l6 37q7 31 48 76q40 54 131 88l93 32q14 8 -4 32q-41 52 -94 66h-354l-125 124h1108l121 -124h-576l20 -61q8 -23 27 -34
l20 -6q7 0 33 -8.5t73 -24.5q92 -35 164 -136q35 -52 52 -97.5t17 -99.5q0 -20 -1.5 -32.5t-3.5 -18.5q-22 -102 -94 -174q-71 -71 -245 -141l12 -21l123 -68l108 -75q79 -58 128 -113l167 -175l47 -167z" />
    <glyph glyph-name="bn_half_Ra" horiz-adv-x="1288" 
d="M612 1148v-324v-52l5 -68q7 -43 27 -47l29 7l23 12l92 70l63 56l49 62l36 49q23 29 37 29l22 -12q89 -81 143 -195l39 -113q15 -56 15 -117l-8 -101q-2 -23 -9 -49.5t-17 -53.5q-38 -118 -140 -202q-122 -91 -281 -91l-57 2q-22 0 -38.5 1t-29.5 2.5t-27 6t-32 11.5
q-53 21 -113 66q-88 72 -231 347l-40 90l-31 93q-23 69 -52 270l-20 185l74 -40q0 -96 36 -225l60 -162q8 -23 17.5 -47t23.5 -44l40 -66l89 -124q37 -41 86.5 -70.5t114.5 -47.5q52 -14 103 -14t101.5 14t94.5 38t79 55.5t54 68.5l35 64q14 34 14 70q0 87 -58 164
q-8 -30 -96 -108l-108 -84q-35 -24 -70 -36.5t-68 -12.5q-69 0 -114 46.5t-75 138.5l-7 28v87v373h-490l-122 124h1337l125 -124h-730zM838 -297q-40 -80 -123 -80q-62 0 -103 41q-42 38 -42 100q0 42 18 71.5t56 59.5q23 10 71 17q27 0 52 -10t45 -29t32 -44t12 -54
q0 -19 -4.5 -37t-13.5 -35z" />
    <glyph glyph-name="bn_half_Rha" horiz-adv-x="1034" 
d="M317 1148v-800q0 -27 14 -52q18 -22 45 -25q21 0 49.5 11.5t62.5 37.5t75.5 70t90.5 108l34 58l13 81l-40 -5q-50 0 -108 37q-44 37 -44 103l5 40q14 64 51 98q37 29 94 29l63 -7q35 -2 62.5 -30.5t55.5 -72.5q42 -71 42 -155q0 -35 -2 -63.5t-8 -49.5q-2 -23 -8 -47.5
t-22 -62.5q-14 -41 -92 -126q-91 -103 -170 -155q-21 -13 -51 -27t-72 -29l-63 -8q-32 0 -80 30q-9 5 -23.5 21.5t-30 41t-32.5 56t-31 67.5l-10 45l-2 56v75v650h-180l-123 124h1037l123 -124h-725zM577 -233q-14 -51 -56 -76q-17 -13 -37 -20t-41 -7q-29 0 -55 9.5
t-44.5 28t-30 44.5t-11.5 58q0 42 12 66q11 24 25.5 42.5t31.5 31.5l37 20l42 7q29 0 54 -9.5t44.5 -27t30.5 -43t11 -57.5q0 -23 -3.5 -39t-9.5 -28z" />
    <glyph glyph-name="bn_half_Ya" horiz-adv-x="1106" 
d="M917 1148v-1265l-52 54q-17 42 -36 82.5t-43 74.5q-20 35 -53 75.5t-79 82.5q-50 46 -95 77t-91 49.5t-98 25.5t-117 7l-164 209l113 108l115 101l135 105q-9 4 -23 13.5t-31 26.5q-24 20 -65 33.5t-99 20.5t-104 23.5t-81 40.5q-11 7 -22 19.5t-25 29.5l-127 131h1110
l129 -124h-197zM530 25q-37 -59 -100 -59q-27 0 -51.5 11.5t-43.5 30t-30.5 43t-11.5 51.5q0 31 12 54.5t30 39t39.5 23t40.5 7.5q27 0 52 -10t44 -28t30.5 -41.5t11.5 -49.5q0 -28 -23 -72zM794 1148h-447l59 -38q32 -21 66 -63l84 -85l86 -101l-40 -42l-88 -79l-69 -68
l-96 -108l76 -28l49 -22q30 -13 65 -38t75 -60l92 -91q10 -12 24 -29l24 -34q13 -16 24 -33l16 -27v946z" />
    <glyph glyph-name="bn_half_asamiba" horiz-adv-x="1086" 
d="M907 -112l-65 83l-26 62l-30 57l-29 51l-54 73q-20 28 -43.5 50t-54.5 44l-84 54l-157 79q-38 15 -75.5 19.5t-77.5 4.5l-157 223l148 101l154 91l212 104l100 42l118 39v83h-786l-118 124h1170l120 -124h-265v-1260zM786 526v342q-66 -22 -120 -48t-122 -64l-11 -8z
M786 390l-356 307l-27 -16l-91 -59q40 -16 76.5 -36t75.5 -44q38 -23 68.5 -46.5t67.5 -54.5l80 -79q26 -28 53 -62t53 -78v168z" />
    <glyph glyph-name="bn_half_asamira" horiz-adv-x="696" 
d="M516 1148v-1096l-42 40l-98 176q-12 26 -35.5 53t-54.5 58q-28 25 -56 47l-56 39l-101 52q-45 17 -88.5 27t-92.5 10l-145 192l133 85l68 40q35 19 69 35l192 87l185 75v80h-416l-121 124h811l126 -124h-278zM216 172q-7 14 -24 32l-34 37l-36 38q-16 19 -26 31
q-35 24 -80.5 38t-86.5 49q-11 9 6.5 32.5t27.5 33.5q7 2 30.5 -7.5t53 -24.5t55 -31t38.5 -24q32 -26 47 -40t39 -40q6 -5 19 -22.5t26 -37.5l25 -38l11 -18l-66 -39zM394 908l-68 -23l-49 -17l-117 -58l-99 -59l-83 -60l57 -27q31 -12 41 -19.5t37 -22.5l61 -44l67 -56
l94 -96q19 -22 25 -37t34 -59v578z" />
    <glyph glyph-name="bn_k_hasanta" horiz-adv-x="1403" 
d="M1175 -497h-108l-371 234h169zM855 1049v-92l24 4q122 0 258 -121q177 -151 177 -383q0 -49 -16 -90.5t-43.5 -72t-63.5 -47t-76 -16.5q-71 0 -131 67l-24 42l-7 41l7 44q4 13 10.5 24.5t16.5 22.5l37 35l73 12q54 0 96 -38l23 -24l7 22q0 50 -17 89q-24 71 -79 117
q-40 42 -94 70q-70 36 -150 36l-31 -2v-981l-44 45l-37 108q-10 31 -37 71t-69 91q-82 109 -157 147l-64 37l-81 35q-22 10 -59 18.5t-91 15.5l-170 209q45 34 102 74t129 85q126 77 219 119t243 91v95h-749l-126 124h1492l121 -124h-619zM731 786q-89 -27 -150 -61
l-132 -73l-82 -57l-75 -55q41 -17 72 -31t53 -30q10 -6 19 -12l20 -13l25 -19l32 -24q27 -21 56 -48.5t56 -62.5q24 -31 51 -70t55 -87v643z" />
    <glyph glyph-name="bn_kh_hasanta" horiz-adv-x="1194" 
d="M1019 1049v-1241l-33 35l-21 40l-21 40l-17 45l-37 74l-29 47l-49 64q-43 50 -105 91q-87 54 -180.5 87t-190.5 47l-204 253l103 -9l90 7l94 20q61 18 109.5 44.5t86.5 61.5q54 53 54 101q0 42 -13 67t-48 53l-105 -99l-72 -39l-101 -36q-71 -21 -113 -21q-35 0 -67.5 11
t-56.5 29.5t-38 45.5t-14 60l2 61q2 9 8 20t16 24q38 49 98 49q66 0 99 -37q9 -13 14.5 -31t5.5 -42q51 7 71 19l110 96l82 77l76 -65l72 -63q16 -18 36 -47.5t44 -70.5q11 -23 17 -46.5t6 -49.5q0 -67 -34.5 -133.5t-115.5 -124.5l-67 -40l-54 -21l79 -42l75 -54
q66 -53 134 -126q26 -29 46.5 -58.5t37.5 -56.5v1231l70 -45l5 -75l15 -66q3 -6 12.5 -12t24.5 -13l144 -3l110 -133h-261zM1371 -492h-108l-371 234h169z" />
    <glyph glyph-name="bn_g_hasanta" horiz-adv-x="1192" 
d="M1005 1049v-1290l-112 108v731l-24 78q-2 20 -11 38l-17 39q-16 44 -87 115l-101 86l-35 17l-54 24q-59 23 -101 16q-45 -9 -80 -18t-55 -22q-65 -37 -113 -143l56 12l80 10l66 -7q24 0 63 -22q109 -60 109 -160q0 -26 -3.5 -47.5t-9.5 -38.5q-3 -18 -20 -51t-48 -79
l-75 -114l-68 -82l-143 159l54 47l87 94l76 80q21 24 31 43t10 36q0 15 -9 24q-22 30 -59 30q-35 0 -118 -51q-80 -52 -121 -52q-23 0 -43 12q-51 31 -73.5 71.5t-22.5 90.5q0 82 61 173q46 66 103 105q42 24 90.5 37t106.5 13q43 0 88.5 -7.5t87 -20.5t76 -31t55.5 -40
l83 -79q28 -28 47 -55t32 -53t31 -70.5t42 -109.5l-21 136q-11 75 -17 134t-6 100l-2 340l74 -70l-5 -33q0 -20 5.5 -45.5t16.5 -52.5q7 -19 32 -29l81 -10l42 8l120 -124h-252zM1240 -497h-108l-371 234h169z" />
    <glyph glyph-name="bn_gh_hasanta" horiz-adv-x="1158" 
d="M970 1049l2 -1250l-59 56l-51 128q-37 83 -141 179q-57 48 -121.5 78.5t-136.5 44.5l-68 8l-65 2l-162 167l119 123q31 34 65.5 65t68.5 58l-46 -18l-47 -5q-83 0 -160 62q-31 24 -48 45t-23 41l-4 10q-6 16 -9 33.5t-3 38.5l7 70l29 64h-123l-120 124h1246l121 -124
h-271zM847 1049h-408q-52 7 -96 -29q-13 -13 -23.5 -28t-20.5 -35l-17 -63q0 -25 12.5 -48t32 -40t43.5 -27t46.5 -10t49.5 8.5t53 22t49.5 31.5t37.5 37l132 -131q-31 -18 -69.5 -49t-85.5 -73q-44 -42 -80.5 -82t-65.5 -78l88 -37q20 -6 37.5 -14.5t34.5 -20.5
q38 -19 66 -43l30 -28q15 -14 36 -37q34 -35 64 -72t54 -78v924zM1332 -497h-108l-371 234h169z" />
    <glyph glyph-name="bn_ng_hasanta" horiz-adv-x="1123" 
d="M1080 204q0 -150 -93 -250q-102 -111 -287 -111l-54 3l-49 7q-58 7 -117 37t-113 78.5t-102 113.5t-84 142l-49 110l-44 131l-28 117l-19 124l-23 167l65 -49q22 -106 37 -169.5t24 -84.5l61 -145q30 -62 67 -118.5t78 -103.5t87 -81.5t95 -52.5q71 -24 143 -24
q122 0 204 56q98 70 98 189q0 72 -71 150l-20 -32l-22 -20l-86 -66l-108 -71q-15 -8 -31 -11.5t-33 -3.5q-24 0 -49.5 11t-55.5 33l-40 32l-37 50q-33 52 -36 82v298l-65 47l-47 39l-90 80l-62 68l-34 42l-39 54l182 49l101 -189l29 -35l30 -27q16 45 33.5 77.5t34.5 52.5
q38 42 125 86q53 24 114 24q65 0 125 -28q56 -24 84 -84l9 -45l10 -45q0 -105 -115 -168q-100 -47 -214 -47q-82 0 -98 25v-222q0 -36 16.5 -57.5t58.5 -27.5q45 0 89 37l76 76l46 54l35 61q61 -22 110.5 -67.5t84.5 -113.5q31 -62 47 -124t16 -130zM822 964q-11 24 -49 24
q-13 0 -25.5 -2t-26.5 -8l-42 -12q-54 -15 -96 -56q-20 -17 -35 -42.5t-28 -58.5q9 -18 63 -18l70 7q41 8 72.5 23t54.5 34t35 40.5t12 43.5q0 15 -5 25zM1405 -502h-108l-371 234h169z" />
    <glyph glyph-name="bn_ch_hasanta" horiz-adv-x="1003" 
d="M292 1049q0 -10 1 -15t4 -11l14 -40l14 -37q12 -18 26.5 -35t33.5 -31l57 -42q35 -24 113 -52l230 -80q38 -21 63 -56t38 -70l7 -42q0 -24 -1 -40.5t-4 -25.5l-21 -76q-10 -35 -26 -71t-40 -74q-52 -78 -106 -139t-108 -104.5t-108 -66t-104 -22.5l-29 2q-52 7 -113 89
q-60 81 -60 140v899h-174l-120 124h1058l125 -124h-770zM616 570q-24 10 -40.5 17.5t-25.5 17.5q-51 29 -92 57t-63 51q-24 22 -48.5 55.5t-52.5 78.5v-694q0 -30 9 -46t40 -23q14 0 32 5.5t42 18.5q31 18 56.5 36.5t46.5 36.5l101 114q7 8 25 35t38 69q21 55 21 96v24
l-5 24zM1121 -492h-108l-371 234h169z" />
    <glyph glyph-name="bn_chh_hasanta" horiz-adv-x="1111" 
d="M1198 -384q-242 256 -525 347l-148 47q-50 13 -110 25t-130 22l-121 225q64 -20 115.5 -29t93.5 -9l74 2l88 15q23 4 37 8t26 8.5t26 13.5l32 19q28 17 75 53.5t113 96.5l42 47q10 18 16.5 38t9.5 42q0 49 -38 106l-93 27l-76 15l7 -45q0 -72 -58.5 -139.5t-161.5 -127.5
q-82 -52 -159 -52l-45 7q-28 7 -53 23.5t-44.5 37.5t-31.5 45t-12 47v519h-152l-113 125h1195l113 -125h-923q15 -35 22.5 -56t17.5 -30q15 -18 133 -75q24 -9 55 -14t70 -5h42l44 10l31 5h26q122 0 213 -113q94 -112 94 -251q0 -22 -0.5 -35t-2.5 -26t-7 -30l-13 -42
q-10 -25 -26 -48.5t-40 -44.5q-35 -36 -148 -105l-73 -45l-59 -20l111 -54l51 -29q10 -2 21 -9.5t24 -17.5q27 -17 76.5 -59t121.5 -113l133 -131zM476 755q-55 14 -94 49l-78 43l-37 60v-354q0 -46 10 -56q12 -8 44 -8q24 4 41 11t29 16l41 30q114 84 114 157l-3 29z
M1150 -497h-108l-371 234h169z" />
    <glyph glyph-name="bn_j_hasanta" horiz-adv-x="1454" 
d="M813 1049l-77 -41q-15 -68 69 -123l76 -29l91 -11l35 2l47 3q17 0 59 18l115 39l115 -118l70 -71q-46 -46 -112 -155q-80 -139 -80 -251l-12 -93v-62q0 -72 23 -157t69 -187q-22 0 -37 1t-22 4q-51 15 -63 27l-69 300l-20 111l-7 86q0 83 30 207q9 45 21 84t25 70l-27 5
l-69 -2q-52 0 -107.5 10t-106 28.5t-92.5 44.5t-68 58l-71 94q-21 23 -98 -68q-67 -86 -101 -185l-2 -17v-10q0 -86 91 -86l39 7q21 0 62 23l103 52l39 19q22 11 36 0q16 0 40 -24l35 -45q20 -24 38 -59t35 -81q35 -94 35 -148q0 -40 -12 -61q-24 -99 -72 -147
q-18 -18 -46.5 -37t-66.5 -37q-30 -13 -70 -22.5t-70 -9.5q-102 0 -202 52q-44 24 -86 63.5t-81 93.5q-44 61 -89 155l-38 105q-16 42 -26.5 99t-17.5 126l-3 115l-2 98v24l2 12l49 -38l20 -25q12 -21 12 -69v-49q0 -60 8 -89l38 -140q38 -112 124 -191q55 -50 91 -77
t64.5 -39t53 -14.5t56.5 -5.5q46 0 92 11.5t92 35.5q93 48 93 123q0 28 -16 58q-8 35 -50 42l-30 -7l-103 -39l-61 -12h-31q-28 0 -59 7t-62 23q-28 18 -56 49t-60 75q-44 77 -44 160q0 58 17 98q8 24 29.5 59.5t59.5 81.5l69 73h-509l-123 124h1529l120 -124h-690z
M1692 -506h-108l-371 234h169z" />
    <glyph glyph-name="bn_jh_hasanta" horiz-adv-x="1356" 
d="M1199 1049v-1079l-60 59l-36 109l-18 43l-24 42l-59 77q-59 63 -136 103v-578l-54 58l-46 110q-10 24 -31.5 58t-55.5 79q-66 83 -124.5 134.5t-114.5 81t-110 41.5t-110 14l-165 206l64 42l65 44q38 26 69 44l51 32l108 62q55 31 112 58l225 99v23v38h-755l-120 124h992
v-630q15 -6 31 -16.5t33 -27.5l47 -44l49 -56l44 -68v1070l59 -50l12 -78l6 -32l17 -44l37 -15q9 -3 24.5 -5.5t31.5 -4t31.5 -1.5t25.5 2l124 -124h-239zM749 796q-30 -10 -68.5 -26t-84.5 -40l-147 -83l-64 -40l-67 -46q53 -24 87.5 -43.5t55.5 -36.5l77 -66l54 -54
l63 -73q28 -35 51.5 -69t42.5 -69v646zM1534 -497h-108l-371 234h169z" />
    <glyph glyph-name="bn_ny_hasanta" horiz-adv-x="1897" 
d="M1854 84q-27 -35 -61.5 -53.5t-81.5 -18.5q-42 0 -88 16.5t-100 47.5q-41 24 -81.5 55.5t-78.5 72.5q-12 6 -30 21.5t-42 39.5l-37 45l-3 -514l-58 59l-36 108q-10 38 -38 72q-46 52 -96 59l-81 5h-64l-56 -10q-85 -12 -142 -17.5t-86 -5.5l-52 3q-23 0 -37 0.5t-27 2
t-26.5 6t-35.5 11.5q-20 10 -44 22.5t-52 29.5q-31 21 -58 52.5t-50 69.5l-42 106q-14 58 -14 140l2 83l19 79l42 94l40 61l49 -49l-37 -59l-19 -52l-7 -44l-3 -59l7 -94q4 -18 13.5 -39t26.5 -45q48 -70 206 -108q52 -9 106 -14t122 -5q160 0 268 -37l140 -83v805l-12 47
q-7 37 -58 37q-28 0 -57 -14l-37 -23l-42 -29l-42 -32l-29 -32q-23 -18 -39.5 -37t-29.5 -39q-34 -56 -52 -120l67 7q22 0 41 -13q13 -4 35 -36l19 -44l8 -47q0 -30 -11 -54.5t-27.5 -42.5t-35.5 -28.5t-35 -10.5l-31 -2h-23q-96 0 -157 59q-24 31 -36.5 73.5t-12.5 96.5
q0 110 119 265q13 18 43 51l74 76q55 34 95.5 55.5t71.5 35t57.5 18.5t55.5 5l62 -30q35 -14 56.5 -28.5t31.5 -27.5q23 -20 37 -54q14 -22 14 -49v-275q8 30 40 78q17 30 36 56t43 47q58 71 118 111q78 49 145 49q83 0 167 -81q51 -44 76 -99t25 -109q0 -69 -27 -130
t-69 -107l69 -143q13 -42 18.5 -74t5.5 -53v-37l-12 -49q0 -17 -9 -35zM1788 251q19 30 26 71q0 35 -24 59l-49 49l-54 -27l-79 -25q-30 0 -57 9t-47 26t-32 41t-12 55q0 25 12 50.5t32 44.5t45 31t52 12q19 0 54 -16l30 3l49 -10l17 10q42 56 42 110q0 34 -20 63
q-49 61 -123 61l-42 -3q-10 0 -20.5 -4t-24.5 -14q-24 -7 -45.5 -17.5t-41.5 -27.5q-81 -52 -150 -143q-70 -88 -70 -155l4 -25q43 -167 228 -263q62 -29 138 -29q113 0 162 64zM1462 -497h-108l-371 234h169z" />
    <glyph glyph-name="bn_T_hasanta" horiz-adv-x="1018" 
d="M255 1049v-823q0 -31 22 -64q25 -24 72 -24q26 0 58 11t68.5 36t79 66t89.5 101q55 75 66 155l-37 -5q-59 0 -111 36q-46 39 -46 103l4 40q21 68 64.5 97t97.5 29q14 0 24 -1.5t16 -3.5q78 -17 133 -103l24 -58l10 -85q0 -54 -7.5 -100.5t-22.5 -87t-39.5 -77
t-57.5 -72.5q-60 -63 -115.5 -109t-109.5 -77q-48 -32 -105 -42l-62 -8h-21q-30 0 -75 29q-25 15 -61 64q-24 31 -40 61.5t-26 61.5l-9 76v98v676h-143l-101 124h875v49q0 31 -8.5 52t-36.5 41q-57 32 -140 32l-103 -3h-73l-62 -9q-20 0 -32.5 -1.5t-18.5 -3.5h-35
q-79 0 -157.5 22t-132.5 76q-18 15 -34 36t-27 44t-18 46.5t-7 45.5q0 24 3 40.5t9 27.5q8 25 27 49q5 12 25 16l26 10v-23l6 -22q-30 -29 -30 -63l5 -33l12 -33l52 -40l44 -20l61 -12l70 4l85 5l126 5l127 8q65 0 115 -12.5t85 -36.5q38 -23 76 -64t62 -93
q9 -31 12.5 -55.5t3.5 -42.5v-42h134l98 -124h-863zM959 -492h-108l-371 234h169z" />
    <glyph glyph-name="bn_Th_hasanta" horiz-adv-x="995" 
d="M607 1049q35 -35 64 -77t56 -87l72 -167q18 -48 31 -90t23 -79l9 -161q0 -31 -3 -54.5t-9 -40.5l-27 -91q-7 -28 -18.5 -53.5t-28.5 -47.5q-25 -46 -56 -66q-23 -23 -55 -44.5t-79 -49.5q-67 -37 -139 -37l-47 5l-63 10q-36 7 -63 25q-33 14 -67.5 43.5t-68.5 71.5
q-29 34 -54 106q-10 34 -15.5 65t-5.5 68q0 35 4.5 64t13.5 53q35 11 64 22.5t49 24.5q25 13 51 32t52 46q96 99 135 173q20 42 29.5 80t9.5 82q0 42 -5.5 84.5t-18.5 87.5h-440l-125 126h488v31q-6 18 -63 101q-28 40 -52 90t-44 111q-17 60 -26 102t-9 69q0 70 40 141
q15 28 37.5 53.5t53.5 49.5l145 -124q-44 -20 -74 -36t-47 -33q-49 -47 -49 -135q0 -82 96 -228l88 -122l62 -73l415 3l131 -124h-467zM750 504q0 40 -9 88.5t-28.5 99.5t-47.5 103t-65 99l7 -103q0 -97 -35.5 -191.5t-102.5 -176.5q-40 -56 -115 -96l-77 -42l-47 -27
q-17 -9 -17 -61q0 -26 6 -53t17 -49.5t24.5 -38.5t29.5 -21l56 -18l50 -7l40 2l45 17l47 25q24 7 67 47q21 14 40 34t35 44l26 42l24 64q14 49 22 103.5t8 115.5zM1087 -498h-108l-371 234h169z" />
    <glyph glyph-name="bn_D_hasanta" horiz-adv-x="1285" 
d="M606 1049v-476q47 0 132 56q43 30 76 65t57 73l22 31l32 35q36 -16 54 -35l50 -54q20 -27 40 -58.5t36 -66.5q41 -102 41 -199q0 -93 -36 -209q-38 -116 -155 -189q-61 -35 -136 -52t-161 -17q-169 0 -293 146q-20 24 -55 82l-88 155l-68 185q-11 35 -24 102.5t-28 167.5
l-19 185l71 -40q0 -48 9 -104.5t28 -120.5q6 -17 11.5 -38.5t14.5 -45.5l35 -78q27 -64 52.5 -112t53.5 -83l71 -86q50 -51 163 -89q50 -14 105 -14q48 0 94.5 11t86.5 31.5t72.5 47t51.5 57.5q21 31 34 66.5t23 74.5l-3 36q0 22 -15 62q-6 14 -19.5 37t-30.5 43
q-7 -37 -92 -115q-31 -27 -58 -49t-51 -37q-71 -45 -135 -45q-30 0 -55 11t-45 31q-24 30 -64 119l-5 214v216v51v22h-485l-120 124h1370l122 -124h-767zM1397 -492h-108l-371 234h169z" />
    <glyph glyph-name="bn_Dh_hasanta" horiz-adv-x="1020" 
d="M302 1049v-826q0 -30 14.5 -52.5t56.5 -29.5q23 0 50 11t58 35q75 53 170 170q25 28 36 68l18 86l-39 -4q-53 0 -108 36q-47 39 -47 106l7 52q4 22 14 41.5t28.5 36t45 26t62.5 9.5l32 -5l39 -7q12 0 24.5 -9t29.5 -26q17 -16 32 -34.5t28 -42.5q7 -17 12.5 -32t8.5 -31
l12 -76q0 -54 -6.5 -98.5t-19.5 -79.5q-13 -33 -37.5 -74.5t-63 -92t-86.5 -93.5t-108 -78l-103 -47l-62 -7q-24 -6 -58 14t-66.5 51t-58 67t-31.5 64l-2 872h-182l-118 124h1114l125 -124h-821zM989 -492h-108l-371 234h169z" />
    <glyph glyph-name="bn_N_hasanta" horiz-adv-x="1079" 
d="M870 1049v-1246l-136 138v538l2 143v32q0 17 -3 46.5t-23 66.5q-11 29 -31.5 60t-43 58.5t-46.5 48.5t-42 32q-18 10 -38.5 17.5t-44.5 13.5l-54 5q-85 0 -145 -56q-82 -75 -82 -157l-2 -42q0 -102 69 -165l59 -12l-7 30l-2 31q0 50 33 77q40 24 84 24q23 0 41.5 -2.5
t34 -12t29.5 -28.5t28 -53l10 -54q0 -67 -65 -117q-56 -52 -146 -52h-25q-124 0 -224 118q-84 114 -84 271q0 141 79 236t214 130l91 9q21 0 42 -3.5t41 -10.5l49 -25q26 -7 62 -59l37 -47q27 -31 51 -69.5t45 -80.5l63 -122l-9 68q-15 89 -22.5 152t-7.5 101v52v47v42v36
v30v73l-3 49l45 -49l27 -46q6 -30 16.5 -52t23.5 -39l66 -51h44l123 -124h-223zM1236 -492h-108l-371 234h169z" />
    <glyph glyph-name="bn_t_hasanta" horiz-adv-x="1367" 
d="M-5 1148l-122 124h1405l131 -124h-1414zM1271 526q0 -124 -54 -223q-46 -85 -141 -155l-96 -49l-61 -23q-29 -7 -122 -7q-87 0 -178 40q-38 19 -66.5 35t-48.5 33l-44 45l-80 98l-94 152l-33 62l-21 46l-119 296q-13 31 -26 80.5t-28 120.5l72 -30l56 -134l103 -214
l90 -152l70 -96q22 -31 43.5 -54t41.5 -37l77 -59l82 -28l75 -9l79 7l66 18q32 11 69 35t79 63q11 10 21.5 25.5t22.5 35.5l32 59q12 24 17 49.5t5 49.5v26q0 10 -1 17.5t-3 14.5q0 23 -20 67t-57 81l-33 24l-40 28q-10 3 -23 6t-31 6q-23 0 -43.5 -3t-38.5 -9
q47 -62 47 -141q0 -59 -30.5 -104.5t-92.5 -62.5l-44 -7l-42 -2q-42 0 -76 18t-64 53q-29 40 -47 122l-5 47q0 69 35 119l47 54q38 38 93 59t113 21l56 -5l57 -9q75 -18 136.5 -61t111.5 -111l54 -98l29 -77q23 -79 23 -153zM1268 -393h-108l-370 234h169z" />
    <glyph glyph-name="bn_th_hasanta" horiz-adv-x="1172" 
d="M995 1053l1 -1259l-75 103l-71 108q-28 44 -68.5 86t-97.5 81q-72 50 -183 98q-4 1 -15 4l-26 7q-15 5 -31 10l-34 7l-119 7l-193 256l66 -3l32 5l62 12q74 7 194 74q126 74 179 155q25 54 25 93q0 30 -12 56t-33 46.5t-49 32.5t-61 12q-17 0 -26.5 -1t-12.5 -4l-18 -7
l-99 -51q-41 -21 -54 -47l35 -42q30 -41 30 -83q0 -20 -11 -42t-31 -42l-52 -35l-61 -9q-41 0 -70 15t-48.5 40t-29 56t-9.5 64l5 33l12 47q36 111 157 173q61 31 123.5 47.5t129.5 16.5q112 0 207 -99q98 -95 98 -231q0 -60 -23 -118q-18 -50 -41.5 -88.5t-50.5 -68.5
q-48 -54 -175 -131q34 -7 58 -31l65 -40q41 -23 153 -125q45 -43 77 -81.5t52 -70.5v1312l66 -78l6 -23q0 -95 41 -118l72 -3l126 -126h-192zM1323 -492h-108l-371 234h169z" />
    <glyph glyph-name="bn_d_hasanta" horiz-adv-x="1175" 
d="M1247 1049h-990v-518l52 39l164 145q37 29 80 56l90 55l165 73l213 -160l-61 -129q-61 -148 -84 -276l-9 -85l-5 -131l5 -52l7 -39l2 -44l15 -64l15 -62l22 -61l-87 33l-40 124l-26 84l-19 104l-15 147l-3 52v51l3 64l8 61l34 138l-62 -24q-34 -13 -70 -35l-59 -34
q-23 -15 -49 -42q-47 -42 -84.5 -81t-63.5 -79q-37 -47 -63 -93.5t-43 -88.5l-165 170v702h-125l-120 124h1243zM1179 -492h-108l-371 234h169z" />
    <glyph glyph-name="bn_dh_hasanta" horiz-adv-x="1104" 
d="M1170 1049h-244v-1288l-32 54l-52 126q-14 47 -101 140q-83 91 -144 133q-93 63 -123 74q-89 43 -231 59l-145 193l209 159l56 38l45 35q-45 0 -74.5 4.5t-63.5 21.5q-54 25 -88 87l-20 42l-10 63q0 40 13 80.5t78 84.5q57 32 132 32q45 0 85.5 -28t45.5 -70l-5 -24
q-7 -33 -36 -52.5t-83 -19.5q-12 0 -21.5 1t-18.5 8l-26 21q-19 -12 -19 -69q0 -55 49.5 -91.5t110.5 -36.5q24 0 39 5l32 16l182 107l94 57v162h242zM804 118v668q-33 -12 -64.5 -25.5t-64.5 -33.5l-120 -73l-98 -69l-94 -81q69 -25 120 -67q25 -14 54 -36l63 -49
q66 -52 112 -108l45 -57zM1231 -492h-108l-371 234h169z" />
    </font>
</defs>
</svg>
