<?xml version="1.0" standalone="no"?>
<!DOCTYPE svg PUBLIC "-//W3C//DTD SVG 1.1//EN" "http://www.w3.org/Graphics/SVG/1.1/DTD/svg11.dtd" >
<svg xmlns="http://www.w3.org/2000/svg" xmlns:xlink="http://www.w3.org/1999/xlink" version="1.1">
<metadata>
Created by FontForge 20230101 at Fri Nov 19 11:33:44 2021
 By MD Maksudur Rahman Khan
Copyright 2019 The Baloo 2 Project Authors (https://github.com/EkType/Baloo2)
</metadata>
<defs>
<font id="BalooDa2-Regular" horiz-adv-x="0" >
  <font-face 
    font-family="Baloo Da 2"
    font-weight="400"
    font-stretch="normal"
    units-per-em="1000"
    panose-1="0 0 0 0 0 0 0 0 0 0"
    ascent="800"
    descent="-200"
    x-height="462"
    cap-height="613"
    bbox="-590 -579 1455 1029"
    underline-thickness="50"
    underline-position="-125"
    unicode-range="U+000D-FB04"
  />
<missing-glyph horiz-adv-x="645" 
d="M466 581h-286v-513h286v513zM99 589q0 28 15.5 44t43.5 16h328q29 0 44.5 -16t15.5 -44v-529q0 -28 -15.5 -44t-44.5 -16h-327q-28 0 -44 16t-16 44v529z" />
    <glyph glyph-name="fi" unicode="fi" horiz-adv-x="640" 
d="M142 436h212q3 -4 6 -12.5t3 -19.5q0 -16 -8 -24.5t-23 -8.5h-190v65zM156 382h-79v121q0 59 21.5 95.5t62 54t96.5 17.5q57 0 89.5 -15t32.5 -37q0 -11 -4.5 -20t-12.5 -17q-18 10 -45 16.5t-52 6.5q-61 0 -85 -25t-24 -80v-117zM157 426v-424q-5 -2 -15 -4.5t-22 -2.5
q-21 0 -32 8.5t-11 27.5v395h80zM467 608q0 21 15 35.5t37 14.5q23 0 37 -14.5t14 -35.5t-14 -35.5t-37 -14.5q-22 0 -37 14.5t-15 35.5zM559 264v-262q-5 -2 -15 -4.5t-22 -2.5q-21 0 -32 8.5t-11 27.5v233h80zM479 225v235q5 2 15.5 4.5t22.5 2.5q21 0 31.5 -8.5
t10.5 -28.5v-205h-80z" />
    <glyph glyph-name="fl" unicode="fl" horiz-adv-x="645" 
d="M142 436h212q3 -4 6 -12.5t3 -19.5q0 -16 -8 -24.5t-23 -8.5h-190v65zM156 382h-79v121q0 59 21.5 95.5t62 54t96.5 17.5q57 0 89.5 -15t32.5 -37q0 -11 -4.5 -20t-12.5 -17q-18 10 -45 16.5t-52 6.5q-61 0 -85 -25t-24 -80v-117zM157 426v-424q-5 -2 -15 -4.5t-22 -2.5
q-21 0 -32 8.5t-11 27.5v395h80zM562 252v-250q-5 -2 -15 -4.5t-22 -2.5q-21 0 -32 8.5t-11 27.5v233zM482 225v423q5 2 15.5 4.5t21.5 2.5q22 0 32.5 -8.5t10.5 -27.5v-405z" />
    <glyph glyph-name="f_f" unicode="ff" horiz-adv-x="783" 
d="M142 436h212q3 -4 6 -12.5t3 -19.5q0 -16 -8 -24.5t-23 -8.5h-190v65zM156 382h-79v121q0 59 21.5 95.5t62 54t96.5 17.5q57 0 89.5 -15t32.5 -37q0 -11 -4.5 -20t-12.5 -17q-18 10 -45 16.5t-52 6.5q-61 0 -85 -25t-24 -80v-117zM157 426v-424q-5 -2 -15 -4.5t-22 -2.5
q-21 0 -32 8.5t-11 27.5v395h80zM527 436h212q3 -4 6 -12.5t3 -19.5q0 -16 -8 -24.5t-23 -8.5h-190v65zM541 382h-79v121q0 59 21.5 95.5t62 54t96.5 17.5q57 0 89.5 -15t32.5 -37q0 -11 -4.5 -20t-12.5 -17q-18 10 -45 16.5t-52 6.5q-61 0 -85 -25t-24 -80v-117zM542 426
v-424q-5 -2 -15 -4.5t-22 -2.5q-21 0 -32 8.5t-11 27.5v395h80z" />
    <glyph glyph-name="f_f_i" unicode="ffi" horiz-adv-x="988" 
d="M142 436h212q3 -4 6 -12.5t3 -19.5q0 -16 -8 -24.5t-23 -8.5h-190v65zM156 382h-79v121q0 59 21.5 95.5t62 54t96.5 17.5q57 0 89.5 -15t32.5 -37q0 -11 -4.5 -20t-12.5 -17q-18 10 -45 16.5t-52 6.5q-61 0 -85 -25t-24 -80v-117zM157 426v-424q-5 -2 -15 -4.5t-22 -2.5
q-21 0 -32 8.5t-11 27.5v395h80zM493 436h212q3 -4 6 -12.5t3 -19.5q0 -16 -8 -24.5t-23 -8.5h-190v65zM507 382h-79v121q0 59 21.5 95.5t62 54t96.5 17.5q57 0 89.5 -15t32.5 -37q0 -11 -4.5 -20t-12.5 -17q-18 10 -45 16.5t-52 6.5q-61 0 -85 -25t-24 -80v-117zM508 426
v-424q-5 -2 -15 -4.5t-22 -2.5q-21 0 -32 8.5t-11 27.5v395h80zM815 608q0 21 15 35.5t37 14.5q23 0 37 -14.5t14 -35.5t-14 -35.5t-37 -14.5q-22 0 -37 14.5t-15 35.5zM907 264v-262q-5 -2 -15 -4.5t-22 -2.5q-21 0 -32 8.5t-11 27.5v233h80zM827 225v235q5 2 15.5 4.5
t22.5 2.5q21 0 31.5 -8.5t10.5 -28.5v-205h-80z" />
    <glyph glyph-name="f_f_l" unicode="ffl" horiz-adv-x="1029" 
d="M913 252v-250q-5 -2 -15 -4.5t-22 -2.5q-21 0 -32 8.5t-11 27.5v233zM833 225v423q5 2 15.5 4.5t21.5 2.5q22 0 32.5 -8.5t10.5 -27.5v-405zM142 436h212q3 -4 6 -12.5t3 -19.5q0 -16 -8 -24.5t-23 -8.5h-190v65zM156 382h-79v121q0 59 21.5 95.5t62 54t96.5 17.5
q57 0 89.5 -15t32.5 -37q0 -11 -4.5 -20t-12.5 -17q-18 10 -45 16.5t-52 6.5q-61 0 -85 -25t-24 -80v-117zM157 426v-424q-5 -2 -15 -4.5t-22 -2.5q-21 0 -32 8.5t-11 27.5v395h80zM493 436h212q3 -4 6 -12.5t3 -19.5q0 -16 -8 -24.5t-23 -8.5h-190v65zM507 382h-79v121
q0 59 21.5 95.5t62 54t96.5 17.5q57 0 89.5 -15t32.5 -37q0 -11 -4.5 -20t-12.5 -17q-18 10 -45 16.5t-52 6.5q-61 0 -85 -25t-24 -80v-117zM508 426v-424q-5 -2 -15 -4.5t-22 -2.5q-21 0 -32 8.5t-11 27.5v395h80z" />
    <glyph glyph-name=".notdef" horiz-adv-x="645" 
d="M466 581h-286v-513h286v513zM99 589q0 28 15.5 44t43.5 16h328q29 0 44.5 -16t15.5 -44v-529q0 -28 -15.5 -44t-44.5 -16h-327q-28 0 -44 16t-16 44v529z" />
    <glyph glyph-name="NULL" 
 />
    <glyph glyph-name="uni000D" unicode="&#xd;" horiz-adv-x="223" 
 />
    <glyph glyph-name="space" unicode=" " horiz-adv-x="200" 
 />
    <glyph glyph-name="exclam" unicode="!" horiz-adv-x="250" 
d="M164 582q0 -30 -0.5 -78.5t-2 -105t-3.5 -112t-4 -99.5q-6 -4 -14.5 -7t-18.5 -3q-14 0 -23 6t-10 19q-2 29 -4 80t-3 111.5t-1.5 118.5t-0.5 100q21 13 45 13q19 0 29.5 -10.5t10.5 -32.5zM66 45q0 24 15 40t41 16t41 -16t15 -40t-15 -40t-41 -16t-41 16t-15 40z" />
    <glyph glyph-name="quotedbl" unicode="&#x22;" horiz-adv-x="270" 
d="M101 418q-7 -3 -14.5 -4.5t-16.5 -1.5q-15 0 -23.5 7t-9.5 22l-6 174q18 10 39 10q18 0 27.5 -9.5t9.5 -29.5q0 -17 -1 -48t-2.5 -63.5t-2.5 -56.5zM234 418q-7 -3 -15.5 -4.5t-16.5 -1.5q-16 0 -23.5 7t-8.5 22l-7 174q9 5 18.5 7.5t21.5 2.5q18 0 27 -9.5t9 -30.5
q0 -16 -1 -47t-2 -63.5t-2 -56.5z" />
    <glyph glyph-name="numbersign" unicode="#" horiz-adv-x="667" 
d="M49 162q-2 6 -4 13.5t-2 15.5q0 17 8.5 25t24.5 8h518q2 -6 4 -13.5t2 -16.5q0 -16 -8.5 -24t-25.5 -8h-517zM79 396q-2 6 -4.5 13t-2.5 16q0 17 9 25t25 8h518q2 -6 4 -13.5t2 -16.5q0 -16 -8.5 -24t-25.5 -8h-517zM195 -3q-5 -1 -11.5 -1.5t-13.5 -0.5q-16 0 -25.5 8
t-9.5 24q0 10 3 24.5t6 24.5l112 535q5 1 12 1.5t13 0.5q16 0 25.5 -7.5t9.5 -24.5q0 -10 -3.5 -24t-5.5 -25zM411 -3q-5 -1 -11.5 -1.5t-13.5 -0.5q-16 0 -25.5 8t-9.5 24q0 10 3 24.5t5 24.5l113 535q5 1 12 1.5t13 0.5q16 0 25.5 -7.5t9.5 -24.5q0 -10 -3.5 -24t-5.5 -25
z" />
    <glyph glyph-name="dollar" unicode="$" horiz-adv-x="522" 
d="M294 25v-114q-4 -1 -12.5 -3t-19.5 -2q-19 0 -30 8.5t-11 24.5v86h73zM221 568v129q5 2 14 3.5t19 1.5q20 0 30 -8.5t10 -24.5v-101h-73zM257 55q67 0 101.5 30.5t34.5 78.5q0 41 -26.5 68t-83.5 43l-87 26q-42 13 -73 33.5t-47.5 51t-16.5 71.5q0 77 56 120.5t149 43.5
q54 0 96.5 -11.5t67 -29.5t24.5 -38q0 -13 -7 -23.5t-18 -16.5q-25 20 -67.5 35t-92.5 15q-58 0 -92 -25.5t-34 -69.5q0 -35 24.5 -57t79.5 -38l61 -18q79 -22 124.5 -64t45.5 -116q0 -79 -57.5 -128t-161.5 -49q-61 0 -106.5 13.5t-71 34t-25.5 40.5q0 17 10.5 28.5
t24.5 16.5q23 -22 65 -43.5t103 -21.5z" />
    <glyph glyph-name="percent" unicode="%" horiz-adv-x="772" 
d="M335 474q0 -65 -41 -103.5t-100 -38.5t-100 38.5t-41 103.5t41 103.5t100 38.5t100 -38.5t41 -103.5zM124 474q0 -39 19.5 -60.5t50.5 -21.5t50.5 21.5t19.5 60.5t-19.5 60.5t-50.5 21.5t-50.5 -21.5t-19.5 -60.5zM554 616q23 -3 36.5 -11.5t13.5 -22.5q0 -10 -4 -19.5
t-12 -20.5l-367 -549q-22 2 -36 12t-14 23q0 8 4 17t11 20zM719 135q0 -66 -41 -104.5t-100 -38.5q-58 0 -99.5 38.5t-41.5 104.5q0 65 41.5 103t99.5 38q59 0 100 -38t41 -103zM508 135q0 -40 19.5 -61.5t50.5 -21.5t50.5 21.5t19.5 61.5q0 38 -19.5 59.5t-50.5 21.5
t-50.5 -21.5t-19.5 -59.5z" />
    <glyph glyph-name="ampersand" unicode="&#x26;" horiz-adv-x="637" 
d="M480 68q-34 -37 -83 -60t-118 -23t-120.5 25t-80 70.5t-28.5 106.5q0 51 20.5 89.5t55.5 64.5t78 37l35 -59q-27 -6 -51.5 -22.5t-40.5 -44t-16 -66.5q0 -60 39.5 -96.5t109.5 -36.5q38 0 78.5 16t74.5 55l22 32q18 33 28.5 83t10.5 114q9 4 18.5 6.5t18.5 2.5
q20 0 30 -11.5t10 -33.5q0 -56 -16.5 -115t-45.5 -100zM565 -14q-20 0 -40 23l-306 320l-25 28q-31 32 -46 62.5t-15 65.5q0 41 18.5 71.5t54 47.5t86.5 17q53 0 80.5 -15t27.5 -38q0 -12 -6.5 -21.5t-14.5 -14.5q-16 9 -37.5 15t-44.5 6q-38 0 -60 -18.5t-22 -50.5
q0 -31 16 -55t46 -55l332 -345q-3 -20 -14 -31.5t-30 -11.5z" />
    <glyph glyph-name="quotesingle" unicode="'" horiz-adv-x="139" 
d="M103 418q-7 -2 -15.5 -4t-17.5 -2q-15 0 -23.5 7.5t-9.5 21.5l-6 174q8 5 17.5 7.5t22.5 2.5q19 0 28.5 -9.5t9.5 -30.5q0 -17 -1 -47.5t-2 -63t-3 -56.5z" />
    <glyph glyph-name="parenleft" unicode="(" horiz-adv-x="254" 
d="M204 -116q-16 0 -29 11.5t-27 31.5q-45 64 -69 149.5t-24 197.5q0 111 28 198.5t65 142.5q13 20 26.5 31t29.5 11q14 0 24.5 -8t15.5 -20q-54 -69 -83.5 -158.5t-29.5 -196.5t26.5 -193t86.5 -168q-5 -12 -15.5 -20.5t-24.5 -8.5z" />
    <glyph glyph-name="parenright" unicode=")" horiz-adv-x="254" 
d="M50 -116q16 0 29 11.5t27 31.5q45 64 69 149.5t24 197.5q0 111 -28 198.5t-65 142.5q-13 20 -26.5 31t-29.5 11q-14 0 -24.5 -8t-15.5 -20q54 -69 83.5 -158.5t29.5 -196.5t-26.5 -193t-86.5 -168q5 -12 15.5 -20.5t24.5 -8.5z" />
    <glyph glyph-name="asterisk" unicode="*" horiz-adv-x="299" 
d="M168 478l-145 48q-3 11 -3 21q0 14 8.5 23t21.5 9q5 0 10 -2t11 -4l75 -38zM100 391q-4 -1 -7 -1h-6q-19 0 -28.5 8.5t-9.5 20.5q0 8 3.5 15t8.5 12l52 58l68 6zM162 536l96 -115q-2 -13 -12.5 -22t-22.5 -9q-11 0 -20 8.5t-16 17.5l-52 74zM254 588q9 -4 17 -13.5
t8 -21.5t-7 -18t-18 -11l-84 -40l-46 31zM126 492l-5 148q5 3 13 6t18 3q13 0 21.5 -6t8.5 -20q0 -6 -1.5 -27t-3 -43.5t-1.5 -32.5z" />
    <glyph glyph-name="plus" unicode="+" horiz-adv-x="548" 
d="M58 266q-3 7 -5 14.5t-2 17.5q0 17 9.5 25.5t25.5 8.5h404q2 -6 4.5 -14t2.5 -17q0 -16 -9 -25.5t-26 -9.5h-404zM312 73q-7 -3 -15 -5t-19 -2q-20 0 -29.5 9t-9.5 31v415q8 3 16.5 5t20.5 2q19 0 27.5 -9t8.5 -31v-415z" />
    <glyph glyph-name="comma" unicode="," horiz-adv-x="145" 
d="M68 -94q-16 -27 -39 -27q-22 0 -36 17q9 26 20.5 61.5t21.5 72.5t15 64q8 4 17.5 6.5t20.5 2.5q18 0 28 -8.5t10 -28.5q0 -22 -10.5 -54.5t-24.5 -62t-23 -43.5z" />
    <glyph glyph-name="hyphen" unicode="-" horiz-adv-x="389" 
d="M61 228q-3 7 -5 14.5t-2 17.5q0 17 9.5 25.5t25.5 8.5h239q2 -6 4.5 -14t2.5 -17q0 -16 -9 -25.5t-26 -9.5h-239z" />
    <glyph glyph-name="period" unicode="." horiz-adv-x="141" 
d="M16 42q0 24 14.5 40t40.5 16t40 -16t14 -40q0 -23 -14 -39t-40 -16t-40.5 16t-14.5 39z" />
    <glyph glyph-name="slash" unicode="/" horiz-adv-x="305" 
d="M89 -105q-6 -1 -12 -1.5t-14 -0.5q-19 0 -29 9.5t-10 26.5q0 11 4 26t6 24l184 726q7 1 13 1.5t13 0.5q17 0 28 -8.5t11 -27.5q0 -11 -3 -24.5t-6 -25.5z" />
    <glyph glyph-name="zero" unicode="0" horiz-adv-x="583" 
d="M447 304q0 89 -21.5 143.5t-56.5 79.5t-78 25q-42 0 -77.5 -25.5t-56.5 -80.5t-21 -142q0 -120 41 -184.5t114 -64.5q74 0 115 64.5t41 184.5zM291 -13q-70 0 -123.5 34.5t-83.5 105t-30 177.5q0 115 34 184t88 100.5t115 31.5q62 0 116.5 -32t88 -101.5t33.5 -182.5
q0 -106 -30 -176.5t-83.5 -105.5t-124.5 -35z" />
    <glyph glyph-name="one" unicode="1" horiz-adv-x="357" 
d="M173 224v306l-128 -60q-13 5 -21.5 15t-8.5 25q0 29 36 44l140 61h19q20 0 32 -12t12 -32v-347h-81zM254 264v-265q-6 -2 -16 -4.5t-22 -2.5q-21 0 -32 9t-11 28v235h81z" />
    <glyph glyph-name="two" unicode="2" horiz-adv-x="508" 
d="M57 545q0 18 23 35.5t62 28.5t85 11q64 0 110 -21.5t71 -60.5t25 -92q0 -55 -30.5 -108t-104.5 -121l-163 -151h297q4 -4 7 -12.5t3 -19.5q0 -16 -8.5 -25t-22.5 -9h-353q-10 7 -15 17.5t-5 22.5q0 16 6 28.5t18 23.5l180 173q62 58 85 97.5t23 82.5q0 47 -32 77t-97 30
q-44 0 -78.5 -15t-57.5 -32q-11 5 -19.5 15t-8.5 25z" />
    <glyph glyph-name="three" unicode="3" horiz-adv-x="506" 
d="M217 621q95 0 153.5 -41.5t58.5 -124.5q0 -40 -16.5 -68.5t-39 -44.5t-40.5 -21q27 -8 53 -27.5t43.5 -50t17.5 -73.5q0 -60 -29 -100t-80 -60.5t-118 -20.5q-55 0 -97.5 11.5t-66.5 29.5t-24 38q0 14 7.5 24t19.5 17q26 -20 63.5 -36t97.5 -16q66 0 107 28.5t41 86.5
q0 51 -38 82t-110 31h-83q-4 5 -7 14.5t-3 19.5q0 11 3 20t7 14h76q74 0 105.5 27.5t31.5 72.5q0 49 -36 74.5t-98 25.5q-48 0 -84.5 -14.5t-60.5 -31.5q-10 5 -18 16t-8 24q0 18 23 35t62 28t87 11z" />
    <glyph glyph-name="four" unicode="4" horiz-adv-x="548" 
d="M323 609q9 2 20.5 3.5t20.5 1.5q14 0 26.5 -4t20.5 -14.5t8 -30.5v-350h100q3 -5 6 -13.5t3 -19.5q0 -16 -8 -25t-23 -9h-78v-150q-5 -1 -14.5 -3.5t-20.5 -2.5q-21 0 -32 9t-11 26v121h-289q-10 5 -17.5 18t-7.5 29q0 9 1.5 15.5t3.5 12.5zM344 530h-2l-222 -315h222z
" />
    <glyph glyph-name="five" unicode="5" horiz-adv-x="538" 
d="M177 549l-17 -189q17 9 47.5 17.5t64.5 8.5q60 0 108 -22.5t76.5 -66t28.5 -107.5q0 -58 -26.5 -104t-77 -72.5t-123.5 -26.5q-57 0 -100 13t-67 32t-24 37q0 16 10.5 28t21.5 16q22 -19 62 -39t97 -20q69 0 107 38.5t38 97.5q0 61 -39 95t-102 34q-35 0 -64 -11t-54 -25
q-27 2 -43.5 16.5t-16.5 37.5q0 6 0.5 15.5t1.5 18.5l17 191q2 21 13 33.5t32 12.5h56zM162 608h292q3 -4 6 -13t3 -19q0 -16 -8 -26t-23 -10h-270v68z" />
    <glyph glyph-name="six" unicode="6" horiz-adv-x="550" 
d="M455 561q0 -12 -6.5 -22.5t-16.5 -15.5q-22 11 -49.5 19.5t-59.5 8.5q-78 0 -131.5 -56t-56.5 -175q20 20 61.5 42.5t102.5 22.5q88 0 145 -50t57 -148q0 -62 -26.5 -107t-74 -69t-112.5 -24q-67 0 -120 30.5t-83.5 96t-30.5 171.5q0 94 22.5 158.5t60.5 103t86 56
t98 17.5q35 0 65.5 -7t49.5 -20t19 -32zM288 54q58 0 95 35.5t37 99.5q0 65 -37.5 96.5t-92.5 31.5t-95 -23.5t-63 -56.5l3 7q0 -85 40 -137.5t113 -52.5z" />
    <glyph glyph-name="seven" unicode="7" horiz-adv-x="458" 
d="M415 608q11 -6 17 -16.5t6 -23.5q0 -10 -2.5 -20t-8.5 -22l-251 -530q-6 -1 -11.5 -1h-11.5q-19 0 -33 9.5t-14 26.5q0 12 5 23.5t12 26.5l226 459h-316q-3 5 -6 13.5t-3 18.5q0 17 8 26.5t23 9.5h360z" />
    <glyph glyph-name="eight" unicode="8" horiz-adv-x="569" 
d="M272 338q72 14 108 41.5t36 73.5q0 47 -35 73.5t-96 26.5q-59 0 -95 -27t-36 -72q0 -38 20.5 -61t55 -34.5t75.5 -15.5l44 -15q41 -8 78 -28.5t60 -54.5t23 -85q0 -54 -28.5 -93t-79 -59.5t-117.5 -20.5q-68 0 -119 20.5t-79 59.5t-28 94q0 49 22.5 83.5t57.5 55.5t73 28
zM282 293q-64 -10 -103.5 -43.5t-39.5 -87.5q0 -51 39 -79.5t107 -28.5q65 0 105 28t40 81q0 58 -48.5 92t-129.5 39l-51 15q-58 16 -92.5 52t-34.5 94q0 51 26.5 88t74 57t110.5 20q98 0 154.5 -44.5t56.5 -122.5q0 -63 -42.5 -99t-103.5 -47z" />
    <glyph glyph-name="nine" unicode="9" horiz-adv-x="552" 
d="M82 49q0 12 6.5 23t16.5 16q19 -11 49.5 -21.5t72.5 -10.5q52 0 95 22t69 72.5t26 133.5q-9 -10 -29.5 -24.5t-51.5 -25.5t-72 -11q-56 0 -105 19.5t-78.5 62.5t-29.5 113q0 63 28 108.5t76 69.5t107 24q69 0 122 -31.5t83.5 -97t30.5 -168.5q0 -122 -34 -196t-94.5 -107
t-141.5 -33q-60 0 -103 16t-43 46zM275 290q51 0 90.5 25.5t52.5 56.5l-1 -11q0 89 -40.5 140.5t-114.5 51.5q-55 0 -92.5 -35.5t-37.5 -97.5q0 -69 42 -99.5t101 -30.5z" />
    <glyph glyph-name="colon" unicode=":" horiz-adv-x="189" 
d="M40 392q0 24 14.5 40t39.5 16q26 0 40.5 -16t14.5 -40t-14.5 -39.5t-40.5 -15.5q-25 0 -39.5 15.5t-14.5 39.5zM40 42q0 24 14 40t40 16t40.5 -16t14.5 -40q0 -23 -14.5 -39t-40.5 -16t-40 16t-14 39z" />
    <glyph glyph-name="semicolon" unicode=";" horiz-adv-x="202" 
d="M46 392q0 24 14 40t40 16t40.5 -16t14.5 -40t-14.5 -39.5t-40.5 -15.5t-40 15.5t-14 39.5zM89 -94q-16 -27 -39 -27q-22 0 -36 17q9 26 20.5 61.5t21.5 72.5t15 64q8 4 17.5 6.5t20.5 2.5q18 0 28 -8.5t10 -28.5q0 -22 -10.5 -54.5t-24.5 -62t-23 -43.5z" />
    <glyph glyph-name="less" unicode="&#x3c;" horiz-adv-x="473" 
d="M440 141q1 -5 1 -9v-9q0 -15 -10 -25t-27 -10q-7 0 -16 3.5t-19 9.5l-305 166q-10 15 -10 33q0 15 5 24.5t12 13.5l334 171q17 -6 25 -16t8 -22q0 -16 -10 -26t-26 -20l-270 -124z" />
    <glyph glyph-name="equal" unicode="=" horiz-adv-x="518" 
d="M58 363q-3 6 -5 14t-2 17q0 17 9.5 25.5t25.5 8.5h374q2 -6 4 -13.5t2 -17.5q0 -16 -9 -25t-26 -9h-373zM58 161q-3 6 -5 13.5t-2 17.5q0 17 9.5 25.5t25.5 8.5h374q2 -6 4 -14t2 -17q0 -16 -9 -25t-26 -9h-373z" />
    <glyph glyph-name="greater" unicode="&#x3e;" horiz-adv-x="460" 
d="M33 459q-1 5 -1 9.5v8.5q0 14 10 24.5t26 10.5q8 0 16.5 -3.5t18.5 -8.5l296 -166q10 -15 10 -34q0 -15 -4.5 -24t-12.5 -14l-324 -170q-17 5 -25 15.5t-8 22.5q0 16 10 26t26 19l260 127z" />
    <glyph glyph-name="question" unicode="?" horiz-adv-x="459" 
d="M115 200q-9 9 -14.5 20t-5.5 24q0 14 8 23t28 14l69 18q66 17 101.5 50.5t35.5 87.5q0 48 -34.5 82.5t-107.5 34.5q-40 0 -80.5 -12.5t-64.5 -32.5q-11 8 -17 19t-6 24q0 29 48 51t123 22q66 0 116 -24t78 -66t28 -97q0 -84 -51.5 -136t-155.5 -78zM104 45
q0 24 15.5 40.5t40.5 16.5q26 0 41.5 -16.5t15.5 -40.5t-15.5 -40t-41.5 -16q-25 0 -40.5 16t-15.5 40z" />
    <glyph glyph-name="at" unicode="@" horiz-adv-x="1000" 
d="M380 200q0 -64 32.5 -99t90.5 -35q35 0 63 15t54 46l12 -74q-21 -22 -55 -37.5t-85 -15.5q-87 0 -140.5 53t-53.5 147q0 72 29 123.5t80.5 78.5t120.5 27q35 0 68 -8t56 -20q41 -20 41 -49q0 -7 -0.5 -15t-1.5 -15l-26 -262h-79l28 284q-16 8 -39 13.5t-52 5.5
q-64 0 -103.5 -42.5t-39.5 -120.5zM608 37q5 15 11.5 27.5t14 19.5t16.5 7q12 -10 30.5 -20t45.5 -10q65 0 98 57.5t33 148.5q0 95 -42 167t-118.5 112.5t-180.5 40.5q-116 0 -202 -48t-133 -134t-47 -201q0 -109 44 -190t123.5 -125.5t184.5 -44.5q38 0 67 4.5t49 10.5
q6 -6 9.5 -14t3.5 -17q0 -15 -12.5 -26t-42 -17t-80.5 -6q-76 0 -141.5 19t-118 55.5t-89.5 88.5t-56.5 118t-19.5 144q0 101 32.5 183.5t93 141.5t145 91t189.5 32q98 0 176 -27.5t132.5 -78.5t83.5 -122t29 -158q0 -129 -53 -200t-157 -71q-31 0 -62.5 11t-55.5 31z" />
    <glyph glyph-name="A" unicode="A" horiz-adv-x="592" 
d="M294 545q-15 -42 -35.5 -100t-42 -119.5t-40.5 -114.5l-5 -15l-15 -45t-19 -56.5t-19 -55t-14 -41.5q-7 -3 -14.5 -4.5t-18.5 -1.5q-16 0 -28.5 8.5t-12.5 27.5q0 9 3 18.5t7 20.5q12 34 29.5 83t38.5 107t44 119t45 119t41 106q8 4 24 8t33 4q20 0 38.5 -6t23.5 -20
q24 -58 51.5 -131.5t55.5 -153t53.5 -154.5t45.5 -136q-7 -9 -18.5 -14.5t-25.5 -5.5q-19 0 -29 8.5t-17 28.5l-55 163l-8 28q-20 61 -41.5 123t-40 115t-30.5 87h-4zM158 229h279l16 -67h-321z" />
    <glyph glyph-name="B" unicode="B" horiz-adv-x="599" 
d="M420 283h-275v66h275v-66zM337 333q68 0 113 -22.5t67.5 -59.5t22.5 -83q0 -91 -65.5 -135t-186.5 -44q-27 0 -54 1.5t-53 5.5t-50 10q-42 12 -42 46v512q0 16 8.5 25t24.5 13q34 10 72.5 13.5t82.5 3.5q113 0 176 -40.5t63 -123.5q0 -42 -20.5 -77.5t-66 -57
t-121.5 -21.5l-9 50q66 0 100 27.5t34 76.5q0 50 -39.5 74.5t-116.5 24.5q-34 0 -60 -2.5t-48 -6.5v-476q24 -5 55.5 -8t63.5 -3q83 0 126 28t43 86q0 52 -38.5 82.5t-113.5 30.5z" />
    <glyph glyph-name="C" unicode="C" horiz-adv-x="588" 
d="M533 541q0 -13 -8.5 -23.5t-19.5 -15.5q-25 18 -60.5 34t-91.5 16q-61 0 -109.5 -28t-77 -83.5t-28.5 -137.5q0 -123 60.5 -185t157.5 -62q52 0 91 15t64 34q10 -4 19 -14.5t9 -24.5q0 -10 -5.5 -19.5t-18.5 -18.5q-23 -16 -63 -28.5t-102 -12.5q-83 0 -150.5 35.5
t-106.5 105.5t-39 175t40.5 176t107 106.5t145.5 35.5q55 0 97 -12t65.5 -30.5t23.5 -37.5z" />
    <glyph glyph-name="D" unicode="D" horiz-adv-x="652" 
d="M515 311q0 -125 -60 -189.5t-177 -64.5q-29 0 -56.5 2t-51.5 8v476q20 4 44 6t55 2q68 0 123.5 -24.5t89 -77t33.5 -138.5zM598 311q0 103 -41.5 171t-115 102.5t-171.5 34.5q-39 0 -78 -3t-70 -13q-16 -5 -24.5 -13.5t-8.5 -24.5v-514q0 -33 42 -46q36 -11 76.5 -13.5
t71.5 -2.5q97 0 168.5 35t111 106.5t39.5 180.5z" />
    <glyph glyph-name="E" unicode="E" horiz-adv-x="531" 
d="M170 366v-358q-4 -1 -15 -4.5t-22 -3.5q-20 0 -32 12.5t-12 31.5v322h81zM89 249v315q0 20 12 32t32 12q11 0 22 -3t15 -5v-352zM133 346h301q3 -4 6 -13t3 -19q0 -16 -8 -26t-23 -10h-279v68zM133 68h337q3 -4 6 -12.5t3 -19.5q0 -16 -8 -26t-23 -10h-315v68zM133 608
h332q3 -4 6 -13t3 -19q0 -16 -8 -26.5t-23 -10.5h-310v69z" />
    <glyph glyph-name="F" unicode="F" horiz-adv-x="517" 
d="M89 247v317q0 20 12 32t32 12q11 0 22 -3t15 -5v-354zM133 331h297q3 -5 6 -13.5t3 -18.5q0 -16 -8 -26.5t-23 -10.5h-275v69zM133 608h332q3 -4 6 -13t3 -19q0 -16 -8 -26.5t-23 -10.5h-310v69zM171 356v-355q-5 -1 -15.5 -3.5t-21.5 -2.5q-22 0 -33.5 9t-11.5 27v325
h82z" />
    <glyph glyph-name="G" unicode="G" horiz-adv-x="639" 
d="M570 70q0 -18 -10.5 -30.5t-31.5 -22.5q-25 -13 -69 -21.5t-89 -8.5q-93 0 -164.5 34t-111.5 104t-40 178q0 107 41.5 177.5t110.5 105.5t151 35q57 0 100 -12t67 -30t24 -37q0 -13 -8 -23.5t-19 -15.5q-27 18 -64 33.5t-95 15.5q-63 0 -114 -28t-80.5 -83.5
t-29.5 -137.5q0 -86 30.5 -140.5t83.5 -80.5t119 -26q36 0 68 6t50 15v184h-151q-3 5 -6 13.5t-3 18.5q0 17 8 26.5t23 9.5h167q18 0 30.5 -11.5t12.5 -30.5v-217z" />
    <glyph glyph-name="H" unicode="H" horiz-adv-x="654" 
d="M171 362v-360q-6 -2 -16 -4.5t-22 -2.5q-22 0 -33 9t-11 28v330h82zM89 295v311q5 2 15.5 4.5t22.5 2.5q22 0 33 -8.5t11 -28.5v-281h-82zM565 362v-360q-6 -2 -16 -4.5t-22 -2.5q-22 0 -33 9t-11 28v330h82zM483 295v311q5 2 15.5 4.5t22.5 2.5q22 0 33 -8.5t11 -28.5
v-281h-82zM138 274v68h388v-68h-388z" />
    <glyph glyph-name="I" unicode="I" horiz-adv-x="262" 
d="M171 363v-361q-5 -2 -15 -4.5t-22 -2.5q-22 0 -33 9t-11 28v331h81zM90 296v310q5 2 15.5 4.5t22.5 2.5q22 0 32.5 -8.5t10.5 -28.5v-280h-81z" />
    <glyph glyph-name="J" unicode="J" horiz-adv-x="385" 
d="M296 289v-141q0 -60 -22.5 -95t-59.5 -49.5t-80 -14.5q-56 0 -82.5 13.5t-26.5 35.5q0 14 6 24t11 15q15 -7 36.5 -13t43.5 -6q45 0 69 22t24 72v137h81zM215 265v341q5 2 15.5 4.5t21.5 2.5q22 0 33 -8.5t11 -28.5v-311h-81z" />
    <glyph glyph-name="K" unicode="K" horiz-adv-x="566" 
d="M215 350q106 -102 182.5 -182t129.5 -128q-1 -22 -13 -34.5t-30 -12.5q-17 0 -30.5 10t-27.5 23l-274 284zM145 300l301 312q26 -1 39 -13t13 -28q0 -13 -6.5 -24.5t-20.5 -23.5l-245 -241zM171 367v-366q-6 -2 -16 -4.5t-22 -2.5q-22 0 -33 9t-11 28v336h82zM89 300v306
q5 2 15.5 4.5t22.5 2.5q22 0 33 -8.5t11 -28.5v-276h-82z" />
    <glyph glyph-name="L" unicode="L" horiz-adv-x="501" 
d="M171 355v-347l-38 -8q-19 0 -31.5 12.5t-12.5 31.5v311h82zM133 70h325q5 -4 8 -13t3 -20q0 -17 -9 -27t-24 -10h-303v70zM89 295v311q5 2 15.5 4.5t22.5 2.5q22 0 33 -8.5t11 -28.5v-281h-82z" />
    <glyph glyph-name="M" unicode="M" horiz-adv-x="780" 
d="M435 158q-7 -5 -18.5 -9t-25.5 -4q-16 0 -28.5 5t-17.5 16q-53 112 -92.5 205t-63.5 154h-4q-3 -75 -6.5 -140t-7.5 -125.5t-7.5 -124t-8.5 -135.5q-6 -2 -15.5 -4t-20.5 -2q-22 0 -31 9.5t-9 25.5q0 12 2.5 55.5t6 106.5t8.5 134.5t10.5 141t10.5 125.5q8 7 23 13t34 6
q23 0 39 -9t25 -28q26 -51 52 -111t51 -120t48 -113h4q44 106 87.5 204t73.5 167q9 5 23 7.5t26 2.5q23 0 36.5 -7.5t17.5 -24.5t9 -58t10 -96.5t9.5 -116.5t8.5 -120t7.5 -106.5t4.5 -75.5q-9 -6 -19 -9t-23 -3q-15 0 -26.5 7.5t-13.5 27.5q-6 97 -11.5 191.5t-9.5 173.5
t-7 129h-4q-22 -55 -60 -141.5t-97 -223.5z" />
    <glyph glyph-name="N" unicode="N" horiz-adv-x="660" 
d="M157 545q4 -31 7 -73t4.5 -86.5t1.5 -84.5v-299q-5 -2 -15.5 -4.5t-21.5 -2.5q-22 0 -33 8.5t-11 27.5v508zM502 63q-10 84 -11.5 171.5t-1.5 169.5v202q6 2 16 4.5t22 2.5q22 0 33 -8.5t11 -27.5v-508zM571 103v-92q-9 -7 -23 -12t-31 -5q-24 0 -41 9.5t-31 34.5
l-190 320q-15 27 -33 59.5t-34 62t-25 48.5l-74 -19v87q8 8 22.5 13t31.5 5q24 0 41 -9.5t31 -34.5l191 -320q16 -27 33.5 -59.5t32.5 -62t24 -48.5l75 19v4z" />
    <glyph glyph-name="O" unicode="O" horiz-adv-x="689" 
d="M634 304q0 -104 -38 -174.5t-103.5 -106.5t-148.5 -36q-82 0 -148 36t-104 106.5t-38 174.5t39 174.5t104.5 106.5t146.5 36q82 0 147.5 -36t104 -106.5t38.5 -174.5zM551 304q0 119 -56.5 183.5t-150.5 64.5q-93 0 -149.5 -64.5t-56.5 -183.5t56 -183.5t150 -64.5
q95 0 151 64.5t56 183.5z" />
    <glyph glyph-name="P" unicode="P" horiz-adv-x="567" 
d="M267 285q80 0 124 33.5t44 101.5t-42.5 99.5t-121.5 31.5q-27 0 -53.5 -2.5t-47.5 -6.5v-257h97zM89 217v347q0 16 8.5 24.5t24.5 13.5q29 9 70.5 13t80.5 4q127 0 185.5 -53.5t58.5 -144.5q0 -62 -26.5 -108t-80.5 -71t-138 -25h-183zM171 256v-254q-6 -2 -16 -4.5
t-22 -2.5q-22 0 -33 9t-11 28v224h82z" />
    <glyph glyph-name="Q" unicode="Q" horiz-adv-x="690" 
d="M407 24q63 -36 105 -57t75.5 -35t70.5 -28q2 -7 2 -11.5v-8.5q0 -19 -11.5 -30.5t-32.5 -11.5q-32 0 -84 27.5t-117 72.5l-85 58zM634 304q0 -104 -38 -174.5t-103.5 -106.5t-148.5 -36q-82 0 -148 36t-104 106.5t-38 174.5t39 174.5t104.5 106.5t146.5 36
q82 0 147.5 -36t104 -106.5t38.5 -174.5zM551 304q0 119 -56.5 183.5t-150.5 64.5q-93 0 -149.5 -64.5t-56.5 -183.5t56 -183.5t150 -64.5q95 0 151 64.5t56 183.5z" />
    <glyph glyph-name="R" unicode="R" horiz-adv-x="589" 
d="M285 298q74 0 116 32t42 95q0 62 -44 94t-126 32q-27 0 -54.5 -2.5t-48.5 -6.5v-244h115zM89 230v334q0 16 8.5 24.5t24.5 13.5q29 9 71.5 13t82.5 4q125 0 187 -51t62 -143q0 -59 -27 -103t-80 -68t-133 -24h-196zM347 286q28 -35 58 -73t58 -74t50 -64.5t34 -44.5
q-4 -17 -17.5 -27t-27.5 -10q-17 0 -28 8.5t-23 24.5l-164 230zM171 252v-250q-6 -2 -16 -4.5t-22 -2.5q-22 0 -33 9t-11 28v220h82z" />
    <glyph glyph-name="S" unicode="S" horiz-adv-x="523" 
d="M257 55q67 0 101.5 30.5t34.5 78.5q0 41 -26.5 68t-83.5 43l-87 26q-42 13 -73 33.5t-47.5 51t-16.5 71.5q0 77 56 120.5t149 43.5q54 0 96.5 -11.5t67 -29.5t24.5 -38q0 -13 -7 -23.5t-18 -16.5q-25 20 -67.5 35t-92.5 15q-58 0 -92 -25.5t-34 -69.5q0 -35 24.5 -57
t79.5 -38l61 -18q79 -22 124.5 -64t45.5 -116q0 -79 -57.5 -128t-161.5 -49q-61 0 -106.5 13.5t-71 34t-25.5 40.5q0 17 10.5 28.5t24.5 16.5q23 -22 65 -43.5t103 -21.5z" />
    <glyph glyph-name="T" unicode="T" horiz-adv-x="523" 
d="M256 608h233q3 -4 6 -13t3 -19q0 -16 -8 -26.5t-23 -10.5h-206zM268 539h-234q-3 5 -6 14t-3 19q0 17 8 26.5t23 9.5h207zM302 566v-564q-5 -2 -15.5 -4.5t-21.5 -2.5q-22 0 -33 9t-11 28v534h81z" />
    <glyph glyph-name="U" unicode="U" horiz-adv-x="649" 
d="M324 -13q-75 0 -128 27.5t-80.5 78t-27.5 117.5v82h81v-75q0 -80 44.5 -120.5t110.5 -40.5t110.5 40.5t44.5 120.5v75h82v-82q0 -67 -27.5 -117.5t-80.5 -78t-129 -27.5zM88 251v355q5 2 15.5 4.5t22.5 2.5q22 0 32.5 -8.5t10.5 -28.5v-325h-81zM479 251v355
q5 2 15.5 4.5t22.5 2.5q22 0 33 -8.5t11 -28.5v-325h-82z" />
    <glyph glyph-name="V" unicode="V" horiz-adv-x="583" 
d="M347 8q-5 -4 -19 -8.5t-31 -4.5q-19 0 -34 5.5t-20 16.5q-16 31 -37.5 83t-46 116.5t-48.5 132t-44.5 131t-35.5 112.5q6 8 18 15t27 7q19 0 28 -9t15 -27q44 -130 85.5 -253t90.5 -248h4q29 76 60.5 164.5t61 182.5t52.5 183q7 4 15.5 5.5t18.5 1.5q18 0 29 -9t11 -27
q0 -15 -11 -56t-29.5 -97t-40.5 -118t-45 -121.5t-42 -106t-32 -71.5z" />
    <glyph glyph-name="W" unicode="W" horiz-adv-x="803" 
d="M359 457q8 4 20 7t25 3q20 0 33.5 -6.5t17.5 -19.5q25 -72 45.5 -133.5t39 -119t37.5 -118.5h4q19 90 37 175.5t35 173.5t31 188q14 7 34 7q19 0 30 -8.5t11 -25.5q0 -19 -5.5 -57.5t-15 -90t-22 -109t-26.5 -115t-28 -108.5t-27 -89q-9 -5 -23 -9.5t-32 -4.5
q-22 0 -37 7t-20 19q-14 35 -34 92.5t-41.5 126t-41.5 135.5q-19 -66 -41 -137t-42.5 -132t-36.5 -98q-7 -4 -21.5 -8.5t-32.5 -4.5q-22 0 -36.5 7.5t-19.5 18.5q-10 25 -24.5 75t-30.5 114.5t-31.5 134t-29 134t-21.5 114.5q7 7 19 13t26 6q18 0 28 -8.5t14 -28.5
q13 -63 25 -122t24.5 -119t26.5 -125.5t31 -140.5h4q14 45 27 86t27 84.5t30.5 95.5t37.5 121z" />
    <glyph glyph-name="X" unicode="X" horiz-adv-x="591" 
d="M254 295l-205 279q5 17 17 28.5t31 11.5q16 0 27 -9.5t23 -26.5l164 -235l23 -20l210 -291q-4 -17 -15.5 -28t-30.5 -11q-16 0 -26.5 8t-22.5 26l-181 262zM314 281l-205 -286q-4 -1 -9.5 -1.5t-10.5 -0.5q-20 0 -32 10t-12 26q0 13 6.5 24.5t16.5 24.5l187 245l27 25
l190 263q5 1 10 1.5t11 0.5q21 0 31.5 -10t10.5 -25q0 -10 -5.5 -21t-13.5 -22q-43 -58 -88 -116.5t-92 -117.5z" />
    <glyph glyph-name="Y" unicode="Y" horiz-adv-x="550" 
d="M243 218q-28 42 -58.5 88.5t-60 94.5t-56 94.5t-47.5 86.5q4 11 15 21.5t29 10.5q19 0 29.5 -10t21.5 -30q13 -23 29.5 -51.5t34.5 -60t36 -62.5t33.5 -58t27.5 -47h4q35 58 64 110t56 102t53 100q6 4 15 5.5t16 1.5q19 0 28.5 -9t9.5 -25q0 -10 -15.5 -42.5t-43.5 -81
t-66 -109.5t-84 -129h-71zM319 257v-255q-5 -2 -15.5 -4.5t-21.5 -2.5q-22 0 -33 9t-11 28v225h81z" />
    <glyph glyph-name="Z" unicode="Z" horiz-adv-x="557" 
d="M451 608h32q19 -16 19 -38q0 -14 -5.5 -25t-15.5 -25l-379 -520h-33q-8 7 -13.5 17t-5.5 21q0 14 5.5 25.5t15.5 24.5zM93 69h406q4 -5 7 -13.5t3 -19.5q0 -16 -8.5 -26t-22.5 -10h-388zM462 539h-395q-3 5 -6.5 14t-3.5 19q0 17 8.5 26.5t23.5 9.5h375z" />
    <glyph glyph-name="bracketleft" unicode="[" horiz-adv-x="268" 
d="M69 597h73v-657h-73v657zM252 -46l4 -14t2 -17q0 -16 -8.5 -24.5t-25.5 -8.5h-114q-20 0 -30.5 11t-10.5 30v23h183zM252 651q2 -6 4 -13t2 -17q0 -16 -8.5 -24.5t-25.5 -8.5h-155v23q0 19 10.5 29.5t30.5 10.5h142z" />
    <glyph glyph-name="backslash" unicode="\" horiz-adv-x="341" 
d="M300 -46q-7 -7 -19 -12.5t-23 -5.5q-13 0 -22 6t-13 20l-190 685q8 8 19.5 13t22.5 5q13 0 22 -6t13 -20z" />
    <glyph glyph-name="bracketright" unicode="]" horiz-adv-x="269" 
d="M199 -56h-73v658h73v-658zM16 588q-2 6 -4 13.5t-2 16.5q0 17 9 25t26 8h113q20 0 30.5 -10.5t10.5 -29.5v-23h-183zM16 -110q-2 6 -4 13.5t-2 16.5q0 17 9 25.5t26 8.5h154v-23q0 -19 -10.5 -30t-30.5 -11h-142z" />
    <glyph glyph-name="asciicircum" unicode="^" horiz-adv-x="463" 
d="M194 646q5 4 15 6.5t21 2.5q30 0 37 -14q14 -25 33.5 -63t40 -81t39 -83.5t29.5 -70.5q-5 -7 -15 -13t-22 -6q-16 0 -25.5 7t-17.5 26l-97 216h-7q-4 -9 -16 -35.5t-28 -62.5t-31.5 -73.5t-26.5 -69.5q-7 -4 -15.5 -6.5t-19.5 -2.5q-13 0 -23.5 7t-10.5 23q0 9 12.5 38.5
t31.5 69t39 79t36 69t21 37.5z" />
    <glyph glyph-name="underscore" unicode="_" horiz-adv-x="465" 
d="M6 -123q-2 6 -4 13.5t-2 17.5q0 17 9 25.5t26 8.5h423q2 -6 4.5 -14t2.5 -17q0 -16 -9 -25t-26 -9h-424z" />
    <glyph glyph-name="grave" unicode="`" horiz-adv-x="302" 
d="M59 634q-1 4 -1.5 7.5t-0.5 5.5q0 16 11 26t27 10q11 0 19.5 -4.5t15.5 -12.5l90 -113q-1 -16 -10 -25.5t-23 -9.5q-11 0 -18.5 4.5t-15.5 11.5z" />
    <glyph glyph-name="a" unicode="a" horiz-adv-x="499" 
d="M240 52q42 0 69.5 8.5t39.5 16.5v145l-124 -13q-52 -4 -77 -23t-25 -55q0 -37 29.5 -58t87.5 -21zM239 475q87 0 138 -39t51 -123v-237q0 -22 -8.5 -33.5t-25.5 -21.5q-24 -13 -64 -24t-90 -11q-94 0 -145.5 37t-51.5 107q0 65 43.5 99.5t120.5 41.5l142 14v28
q0 50 -30 73t-81 23q-41 0 -78.5 -12t-66.5 -27q-8 7 -14.5 16.5t-6.5 19.5q0 26 29 40q27 14 62.5 21.5t75.5 7.5z" />
    <glyph glyph-name="b" unicode="b" horiz-adv-x="549" 
d="M281 475q62 0 111.5 -26.5t78 -80.5t28.5 -137q0 -84 -29.5 -138t-81.5 -80t-121 -26q-49 0 -88.5 12t-64.5 26q-21 14 -29 26t-8 33v333h80v-333q15 -11 44 -21t66 -10q68 0 109.5 43t41.5 135q0 93 -42 135.5t-107 42.5q-40 0 -71 -15.5t-51 -35.5l-15 65
q22 17 59 34.5t90 17.5zM77 401v247q5 2 15.5 4.5t22.5 2.5q21 0 31.5 -8.5t10.5 -27.5v-218h-80z" />
    <glyph glyph-name="c" unicode="c" horiz-adv-x="478" 
d="M289 408q-68 0 -113 -46t-45 -132q0 -85 43.5 -131t114.5 -46q42 0 70 11.5t50 26.5q11 -6 18 -15t7 -22q0 -28 -41.5 -47.5t-103.5 -19.5q-69 0 -123.5 26.5t-85.5 80.5t-31 136q0 81 32 135.5t86.5 82t119.5 27.5q62 0 102.5 -21t40.5 -48q0 -12 -7 -21t-18 -14
q-22 15 -48.5 26t-67.5 11z" />
    <glyph glyph-name="d" unicode="d" horiz-adv-x="547" 
d="M390 415l80 1v-340q0 -19 -8.5 -30.5t-26.5 -22.5q-20 -13 -57 -24.5t-85 -11.5q-72 0 -127 25t-86 78.5t-31 138.5q0 87 30.5 141t82.5 79.5t114 25.5q39 0 74 -11t55 -27v-74q-19 19 -49.5 32.5t-71.5 13.5t-76 -17.5t-56 -57.5t-21 -107q0 -91 44 -132.5t117 -41.5
q35 0 57.5 7.5t40.5 18.5v336zM390 395v253q5 2 15.5 4.5t21.5 2.5q22 0 32.5 -8.5t10.5 -27.5v-223z" />
    <glyph glyph-name="e" unicode="e" horiz-adv-x="519" 
d="M100 243l302 41q-4 55 -38 90.5t-94 35.5q-62 0 -102.5 -44.5t-40.5 -127.5v-22q7 -80 52.5 -121.5t124.5 -41.5q42 0 76 14t54 30q11 -7 17.5 -16.5t6.5 -21.5q0 -19 -21.5 -35.5t-57 -26.5t-79.5 -10q-77 0 -133.5 28t-87 83.5t-30.5 135.5q0 57 16.5 101.5t46 75.5
t70.5 47.5t89 16.5q61 0 107.5 -26t73 -72.5t26.5 -106.5q0 -22 -10 -31.5t-28 -11.5l-336 -47z" />
    <glyph glyph-name="f" unicode="f" horiz-adv-x="399" 
d="M142 436h212q3 -4 6 -12.5t3 -19.5q0 -16 -8 -24.5t-23 -8.5h-190v65zM156 382h-79v121q0 59 21.5 95.5t62 54t96.5 17.5q57 0 89.5 -15t32.5 -37q0 -11 -4.5 -20t-12.5 -17q-18 10 -45 16.5t-52 6.5q-61 0 -85 -25t-24 -80v-117zM157 426v-424q-5 -2 -15 -4.5t-22 -2.5
q-21 0 -32 8.5t-11 27.5v395h80z" />
    <glyph glyph-name="g" unicode="g" horiz-adv-x="537" 
d="M267 14q-58 0 -107 22.5t-79 73.5t-30 135q0 76 29.5 127t81.5 77t119 26q46 0 84.5 -11.5t64.5 -28.5q15 -10 24.5 -22.5t9.5 -30.5v-309h-80v308q-17 11 -42.5 19.5t-60.5 8.5q-67 0 -108 -41t-41 -122q0 -90 41.5 -128t102.5 -38q44 0 71 15t43 33l4 -71
q-15 -16 -47.5 -29.5t-79.5 -13.5zM384 90h80v-110q0 -66 -28.5 -106t-78 -58t-111.5 -18q-50 0 -86 11t-49 18q-30 17 -30 43q0 14 6.5 23.5t16.5 14.5q21 -16 59.5 -29.5t82.5 -13.5q67 0 102.5 29t35.5 91v105z" />
    <glyph glyph-name="h" unicode="h" horiz-adv-x="551" 
d="M396 199v92q0 60 -33.5 89t-86.5 29q-39 0 -72.5 -15t-56.5 -36l-15 65q24 17 63.5 34.5t91.5 17.5q83 0 136 -45t53 -137v-94h-80zM157 264v-262q-5 -2 -15 -4.5t-22 -2.5q-21 0 -32 8.5t-11 27.5v233h80zM476 262v-260q-5 -2 -15.5 -4.5t-21.5 -2.5q-22 0 -32.5 8.5
t-10.5 27.5v232zM77 225v423q5 2 15.5 4.5t22.5 2.5q21 0 31.5 -8.5t10.5 -27.5v-394h-80z" />
    <glyph glyph-name="i" unicode="i" horiz-adv-x="241" 
d="M68 608q0 21 15 35.5t37 14.5q23 0 37 -14.5t14 -35.5t-14 -35.5t-37 -14.5q-22 0 -37 14.5t-15 35.5zM160 264v-262q-5 -2 -15 -4.5t-22 -2.5q-21 0 -32 8.5t-11 27.5v233h80zM80 225v235q5 2 15.5 4.5t22.5 2.5q21 0 31.5 -8.5t10.5 -28.5v-205h-80z" />
    <glyph glyph-name="j" unicode="j" horiz-adv-x="243" 
d="M6 -146q24 11 41 23t26.5 33.5t9.5 59.5v333h80v-348q0 -58 -20 -90.5t-46 -46t-45 -13.5q-25 0 -34.5 14.5t-11.5 34.5zM71 608q0 21 15 35.5t37 14.5q23 0 37 -14.5t14 -35.5t-14 -35.5t-37 -14.5q-22 0 -37 14.5t-15 35.5zM83 225v235q5 2 15.5 4.5t22.5 2.5
q21 0 31.5 -8.5t10.5 -28.5v-216z" />
    <glyph glyph-name="k" unicode="k" horiz-adv-x="487" 
d="M148 250l228 221q24 -1 37.5 -11.5t13.5 -27.5q0 -14 -8.5 -25t-24.5 -24l-196 -172zM202 270l254 -228q-2 -22 -13.5 -35t-30.5 -13q-15 0 -27.5 8t-25.5 21l-213 214zM157 256v-254q-5 -2 -15 -4.5t-22 -2.5q-21 0 -32 8.5t-11 27.5v237zM77 229v419q5 2 15.5 4.5
t22.5 2.5q21 0 31.5 -8.5t10.5 -27.5v-402z" />
    <glyph glyph-name="l" unicode="l" horiz-adv-x="246" 
d="M163 252v-250q-5 -2 -15 -4.5t-22 -2.5q-21 0 -32 8.5t-11 27.5v233zM83 225v423q5 2 15.5 4.5t21.5 2.5q22 0 32.5 -8.5t10.5 -27.5v-405z" />
    <glyph glyph-name="m" unicode="m" horiz-adv-x="816" 
d="M448 205h-80v109q0 49 -28.5 72t-75.5 23q-31 0 -60 -10t-49 -23v-171h-80v167q0 20 8.5 34t29.5 27q27 17 68.5 29.5t83.5 12.5q51 0 90 -15.5t58 -42.5q6 -6 10 -11t8 -13q7 -12 12 -31t5 -42v-115zM741 205h-80v109q0 49 -28 72t-75 23q-35 0 -67.5 -14.5t-58.5 -41.5
l-32 58q26 26 68 45t96 19t93.5 -17t61.5 -52t22 -88v-113zM155 258v-256q-5 -2 -15 -4.5t-22 -2.5q-21 0 -32 8.5t-11 27.5v227h80zM448 258v-256q-5 -2 -15.5 -4.5t-21.5 -2.5q-22 0 -32.5 8.5t-10.5 27.5v227h80zM741 258v-256q-5 -2 -15.5 -4.5t-21.5 -2.5
q-22 0 -32.5 8.5t-10.5 27.5v227h80z" />
    <glyph glyph-name="n" unicode="n" horiz-adv-x="550" 
d="M475 203h-80v98q0 56 -31.5 82t-84.5 26q-40 0 -71 -10t-53 -23v-173h-80v169q0 21 8.5 34.5t29.5 26.5q26 15 69 28.5t97 13.5q91 0 143.5 -41.5t52.5 -128.5v-102zM155 258v-256q-5 -2 -15 -4.5t-22 -2.5q-21 0 -32 8.5t-11 27.5v227h80zM475 258v-256
q-5 -2 -15.5 -4.5t-21.5 -2.5q-22 0 -32.5 8.5t-10.5 27.5v227h80z" />
    <glyph glyph-name="o" unicode="o" horiz-adv-x="553" 
d="M504 231q0 -74 -28 -129t-79 -85t-120 -30t-120.5 30t-79.5 85t-28 129q0 75 28.5 129.5t80 84.5t119.5 30t119 -30t79.5 -84.5t28.5 -129.5zM277 409q-67 0 -106.5 -47.5t-39.5 -130.5q0 -84 38.5 -131t107.5 -47q68 0 106.5 47.5t38.5 130.5t-38.5 130.5t-106.5 47.5z
" />
    <glyph glyph-name="p" unicode="p" horiz-adv-x="546" 
d="M272 -13q66 0 117 27t79.5 81.5t28.5 136.5q0 85 -31.5 138.5t-85 79t-119.5 25.5q-48 0 -85.5 -12.5t-64.5 -27.5q-22 -13 -29 -25t-7 -32v-330h80v332q20 11 45 20t61 9q41 0 76.5 -17t57 -55.5t21.5 -104.5q0 -94 -42.5 -136.5t-112.5 -42.5q-43 0 -73.5 14.5
t-50.5 33.5v-74q17 -15 54.5 -27.5t80.5 -12.5zM75 77v-227q0 -19 11 -28t32 -9q12 0 22 2.5t15 4.5v255z" />
    <glyph glyph-name="q" unicode="q" horiz-adv-x="546" 
d="M391 64v317q-17 11 -42.5 19.5t-60.5 8.5q-43 0 -78.5 -18t-57 -58t-21.5 -105q0 -92 43 -133.5t113 -41.5q36 0 66 12.5t47 29.5v-73q-20 -14 -50.5 -24.5t-74.5 -10.5q-65 0 -116.5 25t-80.5 78.5t-29 137.5t31.5 139t85 81.5t120.5 26.5q48 0 87 -12t65 -28
q15 -9 24 -22t9 -31v-319zM471 80v-263q-5 -2 -15.5 -4.5t-21.5 -2.5q-22 0 -32.5 9t-10.5 28v231z" />
    <glyph glyph-name="r" unicode="r" horiz-adv-x="382" 
d="M155 218h-80v152q0 23 8.5 36.5t28.5 26.5q26 17 71 29.5t100 12.5q80 0 80 -40q0 -10 -3 -18.5t-8 -14.5q-10 2 -26 4t-32 2q-46 0 -81 -9.5t-58 -22.5v-158zM155 252v-250q-5 -2 -15 -4.5t-22 -2.5q-21 0 -32 8.5t-11 27.5v233z" />
    <glyph glyph-name="s" unicode="s" horiz-adv-x="447" 
d="M401 123q0 -64 -47 -100t-136 -36q-76 0 -124 23.5t-48 51.5q0 12 6.5 23.5t19.5 18.5q27 -19 63 -35t82 -16q104 0 104 70q0 29 -17.5 47.5t-51.5 26.5l-83 22q-61 15 -89 46.5t-28 78.5q0 53 43 92t131 39q47 0 82 -9.5t54.5 -25t19.5 -33.5q0 -13 -6.5 -23t-17.5 -15
q-12 8 -30.5 17.5t-43.5 16t-55 6.5q-44 0 -71 -17t-27 -48q0 -22 15.5 -38.5t49.5 -24.5l69 -17q68 -16 102 -50.5t34 -90.5z" />
    <glyph glyph-name="t" unicode="t" horiz-adv-x="372" 
d="M156 264v-138q0 -40 23 -56.5t63 -16.5q17 0 38 6t35 14q6 -6 11 -15t5 -21q0 -22 -26 -36t-72 -14q-70 0 -113.5 31t-43.5 103v143h80zM117 452h203q3 -4 6 -13t3 -19q0 -16 -8 -25t-22 -9h-182v66zM76 234v362q5 2 15.5 4.5t22.5 2.5q21 0 31.5 -8.5t10.5 -27.5v-333
h-80z" />
    <glyph glyph-name="u" unicode="u" horiz-adv-x="550" 
d="M75 260h80v-87q0 -64 34 -92t94 -28q40 0 68 8.5t44 17.5v181h80v-178q0 -21 -5.5 -33.5t-26.5 -24.5q-22 -13 -63 -25t-98 -12q-66 0 -112.5 19.5t-70.5 60t-24 102.5v91zM395 208v252q5 2 15.5 4.5t21.5 2.5q22 0 32.5 -8.5t10.5 -28.5v-222h-80zM75 208v252
q5 2 15.5 4.5t22.5 2.5q21 0 31.5 -8.5t10.5 -28.5v-222h-80z" />
    <glyph glyph-name="v" unicode="v" horiz-adv-x="495" 
d="M421 471q17 0 27.5 -9t10.5 -26q0 -13 -11 -49t-29 -86t-39.5 -104.5t-44 -105t-41.5 -87.5q-5 -4 -17.5 -7t-26.5 -3q-17 0 -30 5.5t-18 15.5q-11 20 -28.5 58.5t-37.5 87.5t-40.5 101.5t-37.5 101t-28 85.5q7 10 19 16t24 6q18 0 28 -9t17 -30l62 -179q8 -23 21 -57
l26 -68t21 -57h4q40 101 75 199.5t60 192.5q13 8 34 8z" />
    <glyph glyph-name="w" unicode="w" horiz-adv-x="729" 
d="M366 344q-18 -63 -38.5 -126t-39.5 -118t-35 -95q-8 -5 -18 -8t-27 -3q-16 0 -29.5 5.5t-18.5 17.5q-10 20 -22.5 58t-26 87t-27.5 101.5t-25.5 101.5t-19.5 87q7 7 17.5 13t25.5 6q19 0 28.5 -10.5t13.5 -33.5q9 -42 20.5 -95t24 -105t23 -93.5t15.5 -61.5h4
q8 24 25 78.5t40.5 124.5t47.5 142q8 5 19 7.5t24 2.5q18 0 30 -6.5t16 -19.5q24 -69 45 -135.5t37 -118t23 -76.5h5q23 89 50 191t44 200q14 9 34 9q17 0 27 -8t10 -25q0 -11 -6.5 -42t-17.5 -73t-24.5 -89.5t-27.5 -92t-26.5 -80.5t-21.5 -56q-5 -4 -16.5 -7.5t-26.5 -3.5
q-41 0 -48 19q-14 36 -32 89.5t-37 116t-38 125.5z" />
    <glyph glyph-name="x" unicode="x" horiz-adv-x="482" 
d="M229 268q41 53 77 99t74 101q4 1 6 1h5q21 0 33 -9.5t12 -25.5q0 -11 -4.5 -21t-14.5 -23q-34 -42 -69.5 -85t-69.5 -84l-26 -22q-37 -49 -76 -101.5t-75 -102.5h-6.5h-7.5q-23 0 -34.5 10t-11.5 25q0 8 3.5 17t16.5 25q36 48 76 94.5t77 94.5zM281 247
q41 -54 82.5 -106.5t82.5 -105.5q-2 -19 -13 -30t-29 -11q-16 0 -27 8.5t-25 26.5q-30 42 -63.5 89t-63.5 88l-23 21q-44 53 -82 101t-78 99q4 20 15 31t27 11q17 0 27 -8.5t20 -22.5q30 -40 63 -87.5t69 -91.5z" />
    <glyph glyph-name="y" unicode="y" horiz-adv-x="489" 
d="M169 103q-17 32 -41 86.5t-49.5 122t-48.5 137.5q7 10 18.5 16t24.5 6q17 0 28 -9t18 -30q30 -84 63 -167t73 -172h4q21 42 44 105t44 133t35 132q7 3 15.5 5.5t18.5 2.5q17 0 28 -8.5t11 -25.5q0 -16 -9 -53.5t-24.5 -87t-36 -105t-44 -109t-47.5 -96.5
q-46 -85 -84 -130.5t-70 -45.5q-23 0 -35.5 12t-15.5 28q22 19 49.5 50.5t53 68t41.5 69.5q-17 5 -31.5 18t-32.5 47z" />
    <glyph glyph-name="z" unicode="z" horiz-adv-x="469" 
d="M61 0q-7 6 -11.5 15.5t-4.5 19.5q0 12 5.5 22.5t12.5 20.5l307 384h31q8 -7 12.5 -16t4.5 -20t-5 -21t-14 -21l-306 -384h-32zM390 396h-330q-3 5 -6 14t-3 19q0 17 8 25t22 8h309v-66zM67 65h349q3 -4 6 -12.5t3 -19.5q0 -16 -8 -24.5t-23 -8.5h-327v65z" />
    <glyph glyph-name="braceleft" unicode="{" horiz-adv-x="281" 
d="M122 275q33 -17 51.5 -51.5t18.5 -87.5v-131q0 -35 13.5 -49.5t42.5 -15.5q2 -6 2.5 -11.5t0.5 -11.5q0 -14 -9 -23t-27 -9q-42 0 -68.5 30t-26.5 90v123q0 53 -19 81.5t-57 34.5q-4 5 -5.5 14.5t-1.5 16.5t2 16t5 15q38 6 57 34.5t19 80.5v116q0 60 26.5 89.5t68.5 29.5
q18 0 27 -8.5t9 -23.5q0 -6 -0.5 -11.5t-2.5 -11.5q-29 0 -42.5 -14.5t-13.5 -50.5v-122q0 -53 -18.5 -87.5t-51.5 -51.5z" />
    <glyph glyph-name="bar" unicode="|" horiz-adv-x="251" 
d="M162 -180q-7 -3 -15.5 -5t-19.5 -2q-19 0 -28.5 9t-9.5 31v821q8 3 16 5t19 2q20 0 29 -9t9 -31v-821z" />
    <glyph glyph-name="braceright" unicode="}" horiz-adv-x="281" 
d="M159 275q-33 -17 -51.5 -51.5t-18.5 -87.5v-131q0 -35 -13.5 -49.5t-42.5 -15.5q-2 -6 -2.5 -11.5t-0.5 -11.5q0 -14 9 -23t27 -9q42 0 68.5 30t26.5 90v123q0 53 19 81.5t57 34.5q4 5 5.5 14.5t1.5 16.5t-2 16t-5 15q-38 6 -57 34.5t-19 80.5v116q0 60 -26.5 89.5
t-68.5 29.5q-18 0 -27 -8.5t-9 -23.5q0 -6 0.5 -11.5t2.5 -11.5q29 0 42.5 -14.5t13.5 -50.5v-122q0 -53 18.5 -87.5t51.5 -51.5z" />
    <glyph glyph-name="asciitilde" unicode="~" horiz-adv-x="448" 
d="M312 282q27 0 38.5 14.5t19.5 30.5q22 0 37.5 -12t15.5 -32q0 -31 -26 -50.5t-68 -19.5q-40 0 -74 10.5t-63 20.5t-56 10t-38.5 -14.5t-19.5 -30.5q-22 0 -37.5 12t-15.5 32q0 21 12 37t33.5 24.5t48.5 8.5q41 0 75 -10t63 -20.5t55 -10.5z" />
    <glyph glyph-name="uni00A0" unicode="&#xa0;" horiz-adv-x="200" 
 />
    <glyph glyph-name="exclamdown" unicode="&#xa1;" horiz-adv-x="250" 
d="M86 -126q0 30 0.5 78.5t2 105t3.5 112t4 99.5q6 4 14.5 7t18.5 3q14 0 23 -6t10 -19q2 -29 4 -80t3 -111.5t1.5 -118.5t0.5 -100q-21 -13 -45 -13q-19 0 -29.5 10.5t-10.5 32.5zM184 411q0 -24 -15 -40t-41 -16t-41 16t-15 40t15 40t41 16t41 -16t15 -40z" />
    <glyph glyph-name="cent" unicode="&#xa2;" horiz-adv-x="476" 
d="M306 28v-136q-4 -1 -13 -3t-19 -2q-19 0 -30 8.5t-11 24.5v108h73zM233 422v149q5 2 14 3.5t19 1.5q20 0 30 -8.5t10 -24.5v-121h-73zM289 408q-68 0 -113 -46t-45 -132q0 -85 43.5 -131t114.5 -46q42 0 70 11.5t50 26.5q11 -6 18 -15t7 -22q0 -28 -41.5 -47.5
t-104.5 -19.5q-69 0 -123 26.5t-85 80.5t-31 136q0 81 32 135.5t86.5 82t119.5 27.5q62 0 102.5 -21t40.5 -48q0 -12 -7.5 -21t-18.5 -14q-21 15 -47.5 26t-67.5 11z" />
    <glyph glyph-name="sterling" unicode="&#xa3;" horiz-adv-x="504" 
d="M85 263q-11 0 -19.5 7.5t-8.5 25.5q0 10 3 17.5t5 14.5h340q3 -7 5.5 -14.5t2.5 -17.5q0 -18 -8 -25.5t-21 -7.5h-299zM145 219q0 23 -3.5 59t-7.5 74.5t-4 65.5q0 72 27.5 116.5t73.5 65.5t101 21q65 0 96 -20.5t31 -40.5q0 -8 -5.5 -19.5t-17.5 -18.5q-22 15 -44.5 23
t-54.5 8q-64 0 -95.5 -36t-31.5 -110q0 -26 3.5 -63t6.5 -71.5t3 -55.5q0 -53 -14 -90t-41 -61h293q4 -7 6 -14.5t2 -18.5q0 -16 -8 -24.5t-21 -8.5h-340q-19 0 -32.5 11.5t-13.5 33.5q0 9 1 15q45 23 67.5 56t22.5 103z" />
    <glyph glyph-name="currency" unicode="&#xa4;" horiz-adv-x="525" 
d="M206 420l-54 65q-10 12 -21 23t-24 11t-26 -9t-21 -27l85 -101zM373 298q0 -58 -30.5 -89t-80.5 -31t-81 31t-31 89q0 57 31 88.5t81 31.5t80.5 -31.5t30.5 -88.5zM378 372l52 64q11 13 17.5 24.5t6.5 24.5q0 18 -14 28t-33 14l-81 -104zM447 298q0 59 -25 99.5t-67 61.5
t-93 21t-93 -21t-67 -61.5t-25 -99.5q0 -60 25 -100.5t67 -61.5t93 -21t93 21t67 61.5t25 100.5zM320 171l53 -64q10 -13 21.5 -24t23.5 -11q14 0 26.5 9t20.5 28l-85 101zM150 219l-53 -64q-10 -12 -17 -24t-7 -24q0 -18 14.5 -28.5t33.5 -14.5l81 104z" />
    <glyph glyph-name="yen" unicode="&#xa5;" horiz-adv-x="546" 
d="M205 323q-31 46 -63 95t-59 94t-46 80q7 9 18 17.5t26 8.5q17 0 27.5 -9.5t21.5 -30.5l143 -233h5q32 50 55 90t46 81t53 94q9 5 16.5 6.5t17.5 1.5q18 0 26.5 -9.5t8.5 -22.5q0 -9 -13.5 -35.5t-36.5 -64.5t-50.5 -81.5t-55.5 -85.5zM316 193v-192q-5 -1 -15.5 -3.5
t-21.5 -2.5q-22 0 -33.5 9t-11.5 27v162h82zM264 342h225q3 -7 5.5 -15t2.5 -17q0 -14 -7 -22t-18 -8h-228zM307 280h-248q-4 5 -7 13.5t-3 18.5q0 17 7.5 23.5t17.5 6.5h217zM59 148q-4 5 -7 13.5t-3 18.5q0 18 7.5 24t16.5 6h414q3 -5 5.5 -14.5t2.5 -17.5q0 -14 -7 -22
t-17 -8h-412z" />
    <glyph glyph-name="brokenbar" unicode="&#xa6;" horiz-adv-x="293" 
d="M162 310q-7 -3 -15.5 -5t-19.5 -2q-19 0 -28.5 9t-9.5 31v332q8 3 16 5t19 2q20 0 29 -9t9 -31v-332zM162 -180q-7 -3 -15.5 -5t-19.5 -2q-19 0 -28.5 9t-9.5 31v332q8 3 16 5t19 2q20 0 29 -9t9 -31v-332z" />
    <glyph glyph-name="section" unicode="&#xa7;" horiz-adv-x="504" 
d="M444 85q0 -61 -50 -95.5t-146 -34.5q-54 0 -96.5 10.5t-67 28t-24.5 36.5q0 14 7 24t18 17q34 -21 74 -36t89 -15q56 0 86.5 16.5t30.5 48.5q0 27 -19.5 40.5t-63.5 23.5l-91 20q-54 11 -91 40.5t-37 88.5q0 47 27.5 76t63.5 42l58 -30q-30 -11 -50.5 -32t-20.5 -54
q0 -28 20 -44.5t54 -23.5l92 -20q62 -13 99.5 -41t37.5 -86zM444 283q0 -34 -15 -59t-38.5 -41.5t-47.5 -25.5l-51 38q32 11 52.5 32t20.5 55q0 29 -20 44.5t-64 25.5l-90 18q-34 8 -62.5 21.5t-45 38t-16.5 64.5q0 61 47 94t131 33q49 0 87 -9t60 -23.5t22 -33.5
q0 -13 -6.5 -22.5t-14.5 -14.5q-18 9 -40.5 18t-49 14.5t-56.5 5.5q-47 0 -74 -15.5t-27 -46.5q0 -28 18.5 -41t51.5 -20l90 -18q62 -16 100 -44t38 -88z" />
    <glyph glyph-name="dieresis" unicode="&#xa8;" horiz-adv-x="374" 
d="M154 606q0 -19 -14 -33.5t-36 -14.5q-21 0 -34.5 14.5t-13.5 33.5q0 20 13.5 34t34.5 14q22 0 36 -14t14 -34zM327 606q0 -19 -14.5 -33.5t-35.5 -14.5q-20 0 -34.5 14.5t-14.5 33.5q0 20 14.5 34t34.5 14q21 0 35.5 -14t14.5 -34z" />
    <glyph glyph-name="copyright" unicode="&#xa9;" horiz-adv-x="713" 
d="M54 298q0 87 38 157.5t105.5 112t157.5 41.5t158.5 -41.5t107 -112t38.5 -157.5q0 -84 -38.5 -152t-107 -108t-158.5 -40t-157.5 40t-105.5 108t-38 152zM355 555q-74 0 -128 -33t-82.5 -90.5t-28.5 -133.5q0 -72 28.5 -127.5t82.5 -87t128 -31.5q75 0 128.5 31.5t82 87
t28.5 127.5q0 76 -28.5 133.5t-82 90.5t-128.5 33zM377 420q-42 0 -75 -27.5t-33 -89.5q0 -57 31.5 -86.5t79.5 -29.5q28 0 44 7t29 15q20 -11 20 -32q0 -16 -24.5 -32.5t-73.5 -16.5t-89 20t-64 59t-24 96q0 62 25.5 101t64.5 57.5t79 18.5q44 0 73 -15.5t29 -39.5
q0 -7 -6.5 -15t-14.5 -12q-14 8 -31 15t-40 7z" />
    <glyph glyph-name="ordfeminine" unicode="&#xaa;" horiz-adv-x="352" 
d="M174 358q21 0 39 4.5t27 9.5v80l-68 -7q-36 -4 -52 -13.5t-16 -27.5q0 -22 17 -34t53 -12zM171 620q56 0 93 -23t37 -87v-155q0 -9 -6.5 -16t-17.5 -13q-44 -21 -103 -21q-61 0 -96.5 23.5t-35.5 71.5q0 44 30 67t87 28l81 8v7q0 33 -17.5 45t-55.5 12q-25 0 -51 -8
t-43 -19q-7 4 -12.5 12t-5.5 18q0 11 5.5 17.5t15.5 12.5q15 8 41.5 14t53.5 6z" />
    <glyph glyph-name="guillemotleft" unicode="&#xab;" horiz-adv-x="469" 
d="M239 82q0 -15 -9.5 -27.5t-28.5 -12.5q-13 0 -24 8.5t-21 18.5l-111 123q-4 7 -7 15.5t-3 18.5q0 16 4 24.5t11 14.5l145 151q20 -4 29.5 -13.5t9.5 -22.5q0 -12 -6.5 -21.5t-20.5 -24.5l-106 -109zM429 82q0 -15 -9.5 -27.5t-27.5 -12.5q-13 0 -24.5 8.5t-20.5 18.5
l-112 123q-4 7 -7 15.5t-3 18.5q0 16 4 24.5t11 14.5l145 151q20 -4 29.5 -13.5t9.5 -22.5q0 -12 -6.5 -21.5t-20.5 -24.5l-105 -109z" />
    <glyph glyph-name="logicalnot" unicode="&#xac;" horiz-adv-x="542" 
d="M452 383q17 0 27.5 -9.5t10.5 -27.5v-164q-7 -3 -16 -5t-20 -2q-20 0 -29.5 9t-9.5 31v103h-357q-3 6 -5 14t-2 17q0 17 9.5 25.5t25.5 8.5h366z" />
    <glyph glyph-name="uni00AD" unicode="&#xad;" horiz-adv-x="389" 
d="M61 228q-3 7 -5 14.5t-2 17.5q0 17 9.5 25.5t25.5 8.5h239q2 -6 4.5 -14t2.5 -17q0 -16 -9 -25.5t-26 -9.5h-239z" />
    <glyph glyph-name="registered" unicode="&#xae;" horiz-adv-x="619" 
d="M58 377q0 68 31.5 124t88 90t131.5 34q74 0 131 -34t89 -90t32 -124t-32 -124.5t-89 -90t-131 -33.5q-75 0 -131.5 33.5t-88 90t-31.5 124.5zM113 377q0 -57 24.5 -102t68.5 -71t103 -26t103 26t68.5 71t24.5 102t-24.5 102t-68.5 71t-103 26t-103 -26t-68.5 -71
t-24.5 -102zM279 350v-80q-4 -1 -11 -1.5t-15 -0.5q-12 0 -19 4t-7 19v185q0 14 22 18q14 3 26 4t26 1q48 0 75 -19.5t27 -55.5q0 -25 -14.5 -42.5t-35.5 -24.5l57 -70q-2 -8 -10 -14t-19 -6q-10 0 -17.5 5t-15.5 15l-43 63h-26zM311 391q38 0 38 35q0 15 -12 23.5t-32 8.5
q-7 0 -13.5 -0.5t-12.5 -1.5v-65h32z" />
    <glyph glyph-name="macron" unicode="&#xaf;" horiz-adv-x="328" 
d="M40 570q-4 6 -7.5 14t-3.5 18q0 17 9 25t23 8h228q4 -6 7 -14.5t3 -17.5q0 -17 -8.5 -25t-23.5 -8h-227z" />
    <glyph glyph-name="degree" unicode="&#xb0;" horiz-adv-x="360" 
d="M321 489q0 -40 -19 -69.5t-51 -45.5t-70 -16q-62 0 -102 37.5t-40 93.5q0 40 19.5 69.5t51.5 45.5t70 16t70 -16t51.5 -45t19.5 -70zM180 561q-27 0 -49 -18.5t-22 -53.5t21.5 -54t49.5 -19q29 0 50 19t21 54t-22 53.5t-49 18.5z" />
    <glyph glyph-name="plusminus" unicode="&#xb1;" horiz-adv-x="548" 
d="M72 318q-2 6 -4 14t-2 17q0 17 9.5 25.5t25.5 8.5h374q2 -6 4 -13.5t2 -17.5q0 -16 -9 -25t-26 -9h-374zM72 0q-2 6 -4 14t-2 17q0 17 9.5 25.5t25.5 8.5h374q2 -6 4 -13.5t2 -17.5q0 -16 -9 -25t-26 -9h-374zM312 150q-7 -2 -15 -4.5t-19 -2.5q-20 0 -29.5 9.5
t-9.5 31.5v363q8 3 16.5 5t19.5 2q19 0 28 -9t9 -31v-364z" />
    <glyph glyph-name="uni00B2" unicode="&#xb2;" horiz-adv-x="276" 
d="M123 697q53 0 83 -26t30 -73q0 -31 -16.5 -59t-59.5 -63l-70 -56h148q3 -5 4.5 -11t1.5 -14q0 -10 -5.5 -17t-20.5 -7h-182q-6 6 -9.5 14t-3.5 18q0 14 4.5 22.5t11.5 14.5l87 77q24 21 38 41t14 40q0 25 -17 37t-41 12q-19 0 -37 -7t-32 -18q-7 4 -12 10.5t-5 17.5
q0 20 27.5 33.5t61.5 13.5z" />
    <glyph glyph-name="uni00B3" unicode="&#xb3;" horiz-adv-x="272" 
d="M134 559q20 0 33 11.5t13 29.5q0 22 -17.5 34.5t-47.5 12.5q-22 0 -41 -7t-31 -15q-7 5 -11.5 12t-4.5 17q0 19 28.5 31t65.5 12q56 0 86.5 -25t30.5 -66q0 -24 -13 -43t-36 -27q24 -8 38.5 -29t14.5 -48q0 -50 -35.5 -73t-86.5 -23q-43 0 -73 14.5t-30 34.5q0 11 5.5 19
t14.5 12q12 -10 31.5 -20t49.5 -10q29 0 47.5 13t18.5 38q0 20 -13.5 33t-36.5 13h-57q-4 5 -6 11.5t-2 13.5q0 16 8 24h57z" />
    <glyph glyph-name="acute" unicode="&#xb4;" horiz-adv-x="298" 
d="M187 687q22 -1 35.5 -12.5t13.5 -25.5q0 -13 -6 -22t-20 -22l-91 -89q-19 0 -31.5 10.5t-12.5 23.5q0 9 5 15.5t10 12.5z" />
    <glyph glyph-name="uni03BC" unicode="&#xb5;" horiz-adv-x="552" 
d="M157 223l-10 -158q4 -28 7 -78.5t3 -101.5v-69q-4 -1 -14.5 -3.5t-21.5 -2.5q-22 0 -33 9.5t-11 26.5v377h80zM119 259l38 1v-87q0 -64 35 -92t93 -28q40 0 68 8.5t44 17.5v181h80v-178q0 -21 -5.5 -33.5t-26.5 -24.5t-59.5 -24.5t-91.5 -12.5q-48 0 -88 14t-63.5 47.5
t-23.5 91.5v119zM397 208v252q5 2 15 4.5t22 2.5q21 0 32 -8.5t11 -28.5v-222h-80zM77 208v252q5 2 15.5 4.5t21.5 2.5q22 0 32.5 -8.5t10.5 -28.5v-222h-80z" />
    <glyph glyph-name="paragraph" unicode="&#xb6;" horiz-adv-x="441" 
d="M328 613q20 0 31.5 -7t11.5 -31v-644q-4 -1 -14.5 -3.5t-21.5 -2.5q-21 0 -32.5 8.5t-11.5 28.5v582h-66v-268q0 -12 -13 -20t-42 -8q-37 0 -73 19t-59 58.5t-23 100.5q0 64 28 105t73 61.5t97 20.5h115z" />
    <glyph glyph-name="periodcentered" unicode="&#xb7;" horiz-adv-x="141" 
d="M16 252q0 24 14.5 40t40.5 16t40 -16t14 -40q0 -23 -14 -39t-40 -16t-40.5 16t-14.5 39z" />
    <glyph glyph-name="cedilla" unicode="&#xb8;" horiz-adv-x="195" 
d="M111 17q28 -19 40 -45t12 -57q0 -48 -30 -76t-78 -28q-25 0 -38.5 9.5t-13.5 26.5q0 14 6 24h15q36 0 52.5 15.5t16.5 41.5q0 17 -7.5 37t-24.5 37z" />
    <glyph glyph-name="uni00B9" unicode="&#xb9;" horiz-adv-x="211" 
d="M100 628l-61 -29q-8 4 -15.5 12t-7.5 19q0 10 6 17t18 12l74 33h12q16 0 23.5 -8.5t7.5 -24.5v-286q-6 -3 -13 -4.5t-14 -1.5q-14 0 -22 6t-8 22v233z" />
    <glyph glyph-name="ordmasculine" unicode="&#xba;" horiz-adv-x="378" 
d="M333 462q0 -76 -39.5 -116.5t-104.5 -40.5q-64 0 -104.5 40t-40.5 118q0 77 41.5 117t103.5 40q65 0 104.5 -40.5t39.5 -117.5zM189 566q-37 0 -59.5 -27t-22.5 -76t22.5 -76t59.5 -27t59 26.5t22 75.5t-21.5 76.5t-59.5 27.5z" />
    <glyph glyph-name="guillemotright" unicode="&#xbb;" horiz-adv-x="469" 
d="M230 376q0 15 9.5 27.5t27.5 12.5q14 0 25 -8t20 -19l112 -123q5 -7 7.5 -15t2.5 -19q0 -16 -4 -24.5t-11 -14.5l-146 -151q-19 5 -28.5 14t-9.5 22q0 12 6.5 21.5t20.5 24.5l105 109zM40 376q0 15 9.5 27.5t27.5 12.5q14 0 25 -8t20 -19l112 -123q5 -7 7.5 -15t2.5 -19
q0 -16 -4 -24.5t-12 -14.5l-145 -151q-19 5 -28.5 14t-9.5 22q0 12 6.5 21.5t20.5 24.5l105 109z" />
    <glyph glyph-name="questiondown" unicode="&#xbf;" horiz-adv-x="459" 
d="M344 256q9 -9 14.5 -20t5.5 -24q0 -14 -8 -23t-28 -14l-69 -18q-66 -17 -101.5 -50.5t-35.5 -87.5q0 -48 34.5 -82.5t107.5 -34.5q40 0 80.5 12.5t64.5 32.5q11 -8 17 -19t6 -24q0 -29 -48 -51t-123 -22q-66 0 -116 24t-78 66t-28 97q0 84 51.5 136t155.5 78zM355 411
q0 -24 -15.5 -40.5t-40.5 -16.5q-26 0 -41.5 16.5t-15.5 40.5t15.5 40t41.5 16q25 0 40.5 -16t15.5 -40z" />
    <glyph glyph-name="Agrave" unicode="&#xc0;" horiz-adv-x="592" 
d="M294 545q-15 -42 -35.5 -100t-42 -119.5t-40.5 -114.5l-5 -15l-15 -45t-19 -56.5t-19 -55t-14 -41.5q-7 -3 -14.5 -4.5t-18.5 -1.5q-16 0 -28.5 8.5t-12.5 27.5q0 9 3 18.5t7 20.5q12 34 29.5 83t38.5 107t44 119t45 119t41 106q8 4 24 8t33 4q20 0 38.5 -6t23.5 -20
q24 -58 51.5 -131.5t55.5 -153t53.5 -154.5t45.5 -136q-7 -9 -18.5 -14.5t-25.5 -5.5q-19 0 -29 8.5t-17 28.5l-55 163l-8 28q-20 61 -41.5 123t-40 115t-30.5 87h-4zM158 229h279l16 -67h-321zM172 768q-1 4 -1 7v5q0 16 9.5 26.5t24.5 10.5q23 0 36 -18l84 -101
q-1 -16 -9.5 -25t-22.5 -9q-10 0 -17.5 4.5t-15.5 11.5z" />
    <glyph glyph-name="Aacute" unicode="&#xc1;" horiz-adv-x="592" 
d="M294 545q-15 -42 -35.5 -100t-42 -119.5t-40.5 -114.5l-5 -15l-15 -45t-19 -56.5t-19 -55t-14 -41.5q-7 -3 -14.5 -4.5t-18.5 -1.5q-16 0 -28.5 8.5t-12.5 27.5q0 9 3 18.5t7 20.5q12 34 29.5 83t38.5 107t44 119t45 119t41 106q8 4 24 8t33 4q20 0 38.5 -6t23.5 -20
q24 -58 51.5 -131.5t55.5 -153t53.5 -154.5t45.5 -136q-7 -9 -18.5 -14.5t-25.5 -5.5q-19 0 -29 8.5t-17 28.5l-55 163l-8 28q-20 61 -41.5 123t-40 115t-30.5 87h-4zM158 229h279l16 -67h-321zM376 820q22 -1 33.5 -11.5t11.5 -24.5t-5.5 -23t-19.5 -21l-85 -76
q-19 2 -29.5 10t-10.5 20q0 10 4 17t10 13z" />
    <glyph glyph-name="Acircumflex" unicode="&#xc2;" horiz-adv-x="592" 
d="M298 751q-16 -17 -39.5 -41.5t-52.5 -50.5q-17 2 -28 10.5t-11 22.5q0 12 7.5 21t18.5 20l59 59q22 22 47 22q16 0 27 -6.5t23 -19.5l82 -93q0 -15 -9.5 -24.5t-24.5 -9.5q-11 0 -21 6t-24 22zM294 545q-15 -42 -35.5 -100t-42 -119.5t-40.5 -114.5l-5 -15l-15 -45
t-19 -56.5t-19 -55t-14 -41.5q-7 -3 -14.5 -4.5t-18.5 -1.5q-16 0 -28.5 8.5t-12.5 27.5q0 9 3 18.5t7 20.5q12 34 29.5 83t38.5 107t44 119t45 119t41 106q8 4 24 8t33 4q20 0 38.5 -6t23.5 -20q24 -58 51.5 -131.5t55.5 -153t53.5 -154.5t45.5 -136q-7 -9 -18.5 -14.5
t-25.5 -5.5q-19 0 -29 8.5t-17 28.5l-55 163l-8 28q-20 61 -41.5 123t-40 115t-30.5 87h-4zM158 229h279l16 -67h-321z" />
    <glyph glyph-name="Atilde" unicode="&#xc3;" horiz-adv-x="592" 
d="M294 545q-15 -42 -35.5 -100t-42 -119.5t-40.5 -114.5l-5 -15l-15 -45t-19 -56.5t-19 -55t-14 -41.5q-7 -3 -14.5 -4.5t-18.5 -1.5q-16 0 -28.5 8.5t-12.5 27.5q0 9 3 18.5t7 20.5q12 34 29.5 83t38.5 107t44 119t45 119t41 106q8 4 24 8t33 4q20 0 38.5 -6t23.5 -20
q24 -58 51.5 -131.5t55.5 -153t53.5 -154.5t45.5 -136q-7 -9 -18.5 -14.5t-25.5 -5.5q-19 0 -29 8.5t-17 28.5l-55 163l-8 28q-20 61 -41.5 123t-40 115t-30.5 87h-4zM158 229h279l16 -67h-321zM230 786q28 0 50.5 -8.5t42 -17t36.5 -8.5q18 0 26.5 11t12.5 27h6
q18 0 32 -8.5t14 -29.5q0 -28 -20 -45t-53 -17q-28 0 -52 9t-44 17.5t-36 8.5q-18 0 -26 -11t-12 -28h-6q-18 0 -32 9t-14 29t10.5 33.5t28 21t36.5 7.5z" />
    <glyph glyph-name="Adieresis" unicode="&#xc4;" horiz-adv-x="592" 
d="M294 545q-15 -42 -35.5 -100t-42 -119.5t-40.5 -114.5l-5 -15l-15 -45t-19 -56.5t-19 -55t-14 -41.5q-7 -3 -14.5 -4.5t-18.5 -1.5q-16 0 -28.5 8.5t-12.5 27.5q0 9 3 18.5t7 20.5q12 34 29.5 83t38.5 107t44 119t45 119t41 106q8 4 24 8t33 4q20 0 38.5 -6t23.5 -20
q24 -58 51.5 -131.5t55.5 -153t53.5 -154.5t45.5 -136q-7 -9 -18.5 -14.5t-25.5 -5.5q-19 0 -29 8.5t-17 28.5l-55 163l-8 28q-20 61 -41.5 123t-40 115t-30.5 87h-4zM158 229h279l16 -67h-321zM259 738q0 -19 -14 -33.5t-36 -14.5q-21 0 -34.5 14.5t-13.5 33.5
q0 20 13.5 34t34.5 14q22 0 36 -14t14 -34zM432 738q0 -19 -14.5 -33.5t-35.5 -14.5q-20 0 -34.5 14.5t-14.5 33.5q0 20 14.5 34t34.5 14q21 0 35.5 -14t14.5 -34z" />
    <glyph glyph-name="Aring" unicode="&#xc5;" horiz-adv-x="592" 
d="M294 545q-15 -42 -35.5 -100t-42 -119.5t-40.5 -114.5l-5 -15l-15 -45t-19 -56.5t-19 -55t-14 -41.5q-7 -3 -14.5 -4.5t-18.5 -1.5q-16 0 -28.5 8.5t-12.5 27.5q0 9 3 18.5t7 20.5q12 34 29.5 83t38.5 107t44 119t45 119t41 106q8 4 24 8t33 4q20 0 38.5 -6t23.5 -20
q24 -58 51.5 -131.5t55.5 -153t53.5 -154.5t45.5 -136q-7 -9 -18.5 -14.5t-25.5 -5.5q-19 0 -29 8.5t-17 28.5l-55 163l-8 28q-20 61 -41.5 123t-40 115t-30.5 87h-4zM158 229h279l16 -67h-321zM191 744q0 39 28.5 65t77.5 26q50 0 78 -26t28 -65q0 -38 -28 -64t-78 -26
q-49 0 -77.5 26t-28.5 64zM251 744q0 -19 13 -30t33 -11t33.5 11t13.5 30q0 20 -13.5 31t-33.5 11t-33 -11t-13 -31z" />
    <glyph glyph-name="AE" unicode="&#xc6;" horiz-adv-x="844" 
d="M398 541l-176 -327l-23 -42l-91 -175q-7 -2 -12.5 -3.5t-16.5 -1.5q-20 0 -30 8.5t-10 23.5q0 9 4 19.5t11 23.5q11 21 34.5 64.5t55 102t67 123t70.5 128t65 116.5q8 5 21 8.5t30 3.5q14 0 26 -3t21 -8.5t12 -13.5l1 -47h-59zM165 229h268l16 -67h-311zM484 549v-541
q-4 -1 -15.5 -4.5t-22.5 -3.5q-19 0 -30.5 12.5t-11.5 31.5v505h80zM446 346h301q4 -4 7 -13t3 -19q0 -16 -8.5 -26t-22.5 -10h-280v68zM446 68h337q3 -4 6.5 -12.5t3.5 -19.5q0 -16 -8.5 -26t-22.5 -10h-316v68zM435 571q1 17 13.5 27t34.5 10h295q4 -4 7 -13t3 -19
q0 -16 -8.5 -26.5t-22.5 -10.5h-322v32z" />
    <glyph glyph-name="Ccedilla" unicode="&#xc7;" horiz-adv-x="588" 
d="M533 541q0 -13 -8.5 -23.5t-19.5 -15.5q-25 18 -60.5 34t-91.5 16q-61 0 -109.5 -28t-77 -83.5t-28.5 -137.5q0 -123 60.5 -185t157.5 -62q52 0 91 15t64 34q10 -4 19 -14.5t9 -24.5q0 -10 -5.5 -19.5t-18.5 -18.5q-23 -16 -63 -28.5t-102 -12.5q-83 0 -150.5 35.5
t-106.5 105.5t-39 175t40.5 176t107 106.5t145.5 35.5q55 0 97 -12t65.5 -30.5t23.5 -37.5zM357 17q28 -19 40 -45t12 -57q0 -48 -30 -76t-78 -28q-25 0 -38.5 9.5t-13.5 26.5q0 14 6 24h15q36 0 52.5 15.5t16.5 41.5q0 17 -7.5 37t-24.5 37z" />
    <glyph glyph-name="Egrave" unicode="&#xc8;" horiz-adv-x="542" 
d="M182 366v-358q-4 -1 -15 -4.5t-22 -3.5q-20 0 -32 12.5t-12 31.5v322h81zM101 249v315q0 20 12 32t32 12q11 0 22 -3t15 -5v-352zM145 346h301q3 -4 6 -13t3 -19q0 -16 -8 -26t-23 -10h-279v68zM145 68h337q3 -4 6 -12.5t3 -19.5q0 -16 -8 -26t-23 -10h-315v68zM145 608
h332q3 -4 6 -13t3 -19q0 -16 -8 -26.5t-23 -10.5h-310v69zM191 768q-1 4 -1 7v5q0 16 9.5 26.5t24.5 10.5q23 0 36 -18l84 -101q-1 -16 -9.5 -25t-22.5 -9q-10 0 -17.5 4.5t-15.5 11.5z" />
    <glyph glyph-name="Eacute" unicode="&#xc9;" horiz-adv-x="542" 
d="M182 366v-358q-4 -1 -15 -4.5t-22 -3.5q-20 0 -32 12.5t-12 31.5v322h81zM101 249v315q0 20 12 32t32 12q11 0 22 -3t15 -5v-352zM145 346h301q3 -4 6 -13t3 -19q0 -16 -8 -26t-23 -10h-279v68zM145 68h337q3 -4 6 -12.5t3 -19.5q0 -16 -8 -26t-23 -10h-315v68zM145 608
h332q3 -4 6 -13t3 -19q0 -16 -8 -26.5t-23 -10.5h-310v69zM370 820q22 -1 33.5 -11.5t11.5 -24.5t-5.5 -23t-19.5 -21l-85 -76q-19 2 -29.5 10t-10.5 20q0 10 4 17t10 13z" />
    <glyph glyph-name="Ecircumflex" unicode="&#xca;" horiz-adv-x="542" 
d="M182 366v-358q-4 -1 -15 -4.5t-22 -3.5q-20 0 -32 12.5t-12 31.5v322h81zM101 249v315q0 20 12 32t32 12q11 0 22 -3t15 -5v-352zM145 346h301q3 -4 6 -13t3 -19q0 -16 -8 -26t-23 -10h-279v68zM145 68h337q3 -4 6 -12.5t3 -19.5q0 -16 -8 -26t-23 -10h-315v68zM145 608
h332q3 -4 6 -13t3 -19q0 -16 -8 -26.5t-23 -10.5h-310v69zM296 751q-16 -17 -39.5 -41.5t-52.5 -50.5q-17 2 -28 10.5t-11 22.5q0 12 7.5 21t18.5 20l59 59q22 22 47 22q16 0 27 -6.5t23 -19.5l82 -93q0 -15 -9.5 -24.5t-24.5 -9.5q-11 0 -21 6t-24 22z" />
    <glyph glyph-name="Edieresis" unicode="&#xcb;" horiz-adv-x="542" 
d="M182 366v-358q-4 -1 -15 -4.5t-22 -3.5q-20 0 -32 12.5t-12 31.5v322h81zM101 249v315q0 20 12 32t32 12q11 0 22 -3t15 -5v-352zM145 346h301q3 -4 6 -13t3 -19q0 -16 -8 -26t-23 -10h-279v68zM145 68h337q3 -4 6 -12.5t3 -19.5q0 -16 -8 -26t-23 -10h-315v68zM145 608
h332q3 -4 6 -13t3 -19q0 -16 -8 -26.5t-23 -10.5h-310v69zM264 729q0 -19 -14 -33.5t-36 -14.5q-21 0 -34.5 14.5t-13.5 33.5q0 20 13.5 34t34.5 14q22 0 36 -14t14 -34zM437 729q0 -19 -14.5 -33.5t-35.5 -14.5q-20 0 -34.5 14.5t-14.5 33.5q0 20 14.5 34t34.5 14
q21 0 35.5 -14t14.5 -34z" />
    <glyph glyph-name="Igrave" unicode="&#xcc;" horiz-adv-x="262" 
d="M171 363v-361q-5 -2 -15 -4.5t-22 -2.5q-22 0 -33 9t-11 28v331h81zM90 296v310q5 2 15.5 4.5t22.5 2.5q22 0 32.5 -8.5t10.5 -28.5v-280h-81zM4 768q-1 4 -1 7v5q0 16 9.5 26.5t24.5 10.5q23 0 36 -18l84 -101q-1 -16 -9.5 -25t-22.5 -9q-10 0 -17.5 4.5t-15.5 11.5z
" />
    <glyph glyph-name="Iacute" unicode="&#xcd;" horiz-adv-x="262" 
d="M171 363v-361q-5 -2 -15 -4.5t-22 -2.5q-22 0 -33 9t-11 28v331h81zM90 296v310q5 2 15.5 4.5t22.5 2.5q22 0 32.5 -8.5t10.5 -28.5v-280h-81zM204 820q22 -1 33.5 -11.5t11.5 -24.5t-5.5 -23t-19.5 -21l-85 -76q-19 2 -29.5 10t-10.5 20q0 10 4 17t10 13z" />
    <glyph glyph-name="Icircumflex" unicode="&#xce;" horiz-adv-x="262" 
d="M171 363v-361q-5 -2 -15 -4.5t-22 -2.5q-22 0 -33 9t-11 28v331h81zM90 296v310q5 2 15.5 4.5t22.5 2.5q22 0 32.5 -8.5t10.5 -28.5v-280h-81zM132 751q-16 -17 -39.5 -41.5t-52.5 -50.5q-17 2 -28 10.5t-11 22.5q0 12 7.5 21t18.5 20l59 59q22 22 47 22q16 0 27 -6.5
t23 -19.5l82 -93q0 -15 -9.5 -24.5t-24.5 -9.5q-11 0 -21 6t-24 22z" />
    <glyph glyph-name="Idieresis" unicode="&#xcf;" horiz-adv-x="262" 
d="M171 363v-361q-5 -2 -15 -4.5t-22 -2.5q-22 0 -33 9t-11 28v331h81zM90 296v310q5 2 15.5 4.5t22.5 2.5q22 0 32.5 -8.5t10.5 -28.5v-280h-81zM94 729q0 -19 -14 -33.5t-36 -14.5q-21 0 -34.5 14.5t-13.5 33.5q0 20 13.5 34t34.5 14q22 0 36 -14t14 -34zM267 729
q0 -19 -14.5 -33.5t-35.5 -14.5q-20 0 -34.5 14.5t-14.5 33.5q0 20 14.5 34t34.5 14q21 0 35.5 -14t14.5 -34z" />
    <glyph glyph-name="Eth" unicode="&#xd0;" horiz-adv-x="682" 
d="M150 270h181q14 0 22.5 10t8.5 26q0 11 -3 19.5t-6 12.5h-203v-68zM213 338h-172q-14 0 -22.5 -9.5t-8.5 -26.5q0 -10 3 -18.5t7 -13.5h193v68zM544 311q0 -125 -60 -189.5t-177 -64.5q-29 0 -56.5 2t-51.5 8v476q20 4 44 6t55 2q68 0 123.5 -24.5t89 -77t33.5 -138.5z
M627 311q0 103 -41.5 171t-115 102.5t-171.5 34.5q-39 0 -78 -3t-70 -13q-16 -5 -24.5 -13.5t-8.5 -24.5v-514q0 -33 42 -46q36 -11 76.5 -13.5t71.5 -2.5q97 0 168.5 35t111 106.5t39.5 180.5z" />
    <glyph glyph-name="Ntilde" unicode="&#xd1;" horiz-adv-x="660" 
d="M157 545q4 -31 7 -73t4.5 -86.5t1.5 -84.5v-299q-5 -2 -15.5 -4.5t-21.5 -2.5q-22 0 -33 8.5t-11 27.5v508zM502 63q-10 84 -11.5 171.5t-1.5 169.5v202q6 2 16 4.5t22 2.5q22 0 33 -8.5t11 -27.5v-508zM571 103v-92q-9 -7 -23 -12t-31 -5q-24 0 -41 9.5t-31 34.5
l-190 320q-15 27 -33 59.5t-34 62t-25 48.5l-74 -19v87q8 8 22.5 13t31.5 5q24 0 41 -9.5t31 -34.5l191 -320q16 -27 33.5 -59.5t32.5 -62t24 -48.5l75 19v4zM250 786q28 0 50.5 -8.5t42 -17t36.5 -8.5q18 0 26.5 11t12.5 27h6q18 0 32 -8.5t14 -29.5q0 -28 -20 -45t-53 -17
q-28 0 -52 9t-44 17.5t-36 8.5q-18 0 -26 -11t-12 -28h-6q-18 0 -32 9t-14 29t10.5 33.5t28 21t36.5 7.5z" />
    <glyph glyph-name="Ograve" unicode="&#xd2;" horiz-adv-x="689" 
d="M634 304q0 -104 -38 -174.5t-103.5 -106.5t-148.5 -36q-82 0 -148 36t-104 106.5t-38 174.5t39 174.5t104.5 106.5t146.5 36q82 0 147.5 -36t104 -106.5t38.5 -174.5zM551 304q0 119 -56.5 183.5t-150.5 64.5q-93 0 -149.5 -64.5t-56.5 -183.5t56 -183.5t150 -64.5
q95 0 151 64.5t56 183.5zM223 768q-1 4 -1 7v5q0 16 9.5 26.5t24.5 10.5q23 0 36 -18l84 -101q-1 -16 -9.5 -25t-22.5 -9q-10 0 -17.5 4.5t-15.5 11.5z" />
    <glyph glyph-name="Oacute" unicode="&#xd3;" horiz-adv-x="689" 
d="M634 304q0 -104 -38 -174.5t-103.5 -106.5t-148.5 -36q-82 0 -148 36t-104 106.5t-38 174.5t39 174.5t104.5 106.5t146.5 36q82 0 147.5 -36t104 -106.5t38.5 -174.5zM551 304q0 119 -56.5 183.5t-150.5 64.5q-93 0 -149.5 -64.5t-56.5 -183.5t56 -183.5t150 -64.5
q95 0 151 64.5t56 183.5zM422 820q22 -1 33.5 -11.5t11.5 -24.5t-5.5 -23t-19.5 -21l-85 -76q-19 2 -29.5 10t-10.5 20q0 10 4 17t10 13z" />
    <glyph glyph-name="Ocircumflex" unicode="&#xd4;" horiz-adv-x="689" 
d="M634 304q0 -104 -38 -174.5t-103.5 -106.5t-148.5 -36q-82 0 -148 36t-104 106.5t-38 174.5t39 174.5t104.5 106.5t146.5 36q82 0 147.5 -36t104 -106.5t38.5 -174.5zM551 304q0 119 -56.5 183.5t-150.5 64.5q-93 0 -149.5 -64.5t-56.5 -183.5t56 -183.5t150 -64.5
q95 0 151 64.5t56 183.5zM343 751q-16 -17 -39.5 -41.5t-52.5 -50.5q-17 2 -28 10.5t-11 22.5q0 12 7.5 21t18.5 20l59 59q22 22 47 22q16 0 27 -6.5t23 -19.5l82 -93q0 -15 -9.5 -24.5t-24.5 -9.5q-11 0 -21 6t-24 22z" />
    <glyph glyph-name="Otilde" unicode="&#xd5;" horiz-adv-x="689" 
d="M634 304q0 -104 -38 -174.5t-103.5 -106.5t-148.5 -36q-82 0 -148 36t-104 106.5t-38 174.5t39 174.5t104.5 106.5t146.5 36q82 0 147.5 -36t104 -106.5t38.5 -174.5zM551 304q0 119 -56.5 183.5t-150.5 64.5q-93 0 -149.5 -64.5t-56.5 -183.5t56 -183.5t150 -64.5
q95 0 151 64.5t56 183.5zM272 786q28 0 50.5 -8.5t42 -17t36.5 -8.5q18 0 26.5 11t12.5 27h6q18 0 32 -8.5t14 -29.5q0 -28 -20 -45t-53 -17q-28 0 -52 9t-44 17.5t-36 8.5q-18 0 -26 -11t-12 -28h-6q-18 0 -32 9t-14 29t10.5 33.5t28 21t36.5 7.5z" />
    <glyph glyph-name="Odieresis" unicode="&#xd6;" horiz-adv-x="689" 
d="M634 304q0 -104 -38 -174.5t-103.5 -106.5t-148.5 -36q-82 0 -148 36t-104 106.5t-38 174.5t39 174.5t104.5 106.5t146.5 36q82 0 147.5 -36t104 -106.5t38.5 -174.5zM551 304q0 119 -56.5 183.5t-150.5 64.5q-93 0 -149.5 -64.5t-56.5 -183.5t56 -183.5t150 -64.5
q95 0 151 64.5t56 183.5zM306 729q0 -19 -14 -33.5t-36 -14.5q-21 0 -34.5 14.5t-13.5 33.5q0 20 13.5 34t34.5 14q22 0 36 -14t14 -34zM479 729q0 -19 -14.5 -33.5t-35.5 -14.5q-20 0 -34.5 14.5t-14.5 33.5q0 20 14.5 34t34.5 14q21 0 35.5 -14t14.5 -34z" />
    <glyph glyph-name="multiply" unicode="&#xd7;" horiz-adv-x="495" 
d="M436 141q-4 -13 -14.5 -24t-26.5 -11q-9 0 -17 4.5t-13 10.5l-128 143l-23 18l-152 162q4 13 14 25t25 12q10 0 18 -5.5t13 -11.5l129 -140l23 -19zM288 279l-32 -23l-155 -154q-13 5 -27 14.5t-14 24.5q0 9 6.5 17.5t13.5 15.5l131 128l29 19l151 158q12 -4 24 -13.5
t12 -25.5q0 -9 -5 -17t-12 -15z" />
    <glyph glyph-name="Oslash" unicode="&#xd8;" horiz-adv-x="689" 
d="M96 -16q-25 5 -36 17.5t-11 23.5q0 13 7 22.5t19 22.5l50 51l56 -45zM547 480l-46 57l80 89q20 -4 33.5 -14.5t13.5 -24.5q0 -9 -5.5 -19t-19.5 -27zM169 62l-34 67l351 392l47 -55zM634 304q0 -104 -38 -174.5t-103.5 -106.5t-148.5 -36q-82 0 -148 37t-104 108t-38 172
q0 104 39 174.5t104.5 106.5t146.5 36q82 0 147.5 -37t104 -108t38.5 -172zM552 304q0 116 -57 182t-151 66q-93 0 -150 -64.5t-57 -183.5q0 -115 56.5 -181.5t150.5 -66.5q95 0 151.5 64.5t56.5 183.5z" />
    <glyph glyph-name="Ugrave" unicode="&#xd9;" horiz-adv-x="649" 
d="M324 -13q-75 0 -128 27.5t-80.5 78t-27.5 117.5v82h81v-75q0 -80 44.5 -120.5t110.5 -40.5t110.5 40.5t44.5 120.5v75h82v-82q0 -67 -27.5 -117.5t-80.5 -78t-129 -27.5zM88 251v355q5 2 15.5 4.5t22.5 2.5q22 0 32.5 -8.5t10.5 -28.5v-325h-81zM479 251v355
q5 2 15.5 4.5t22.5 2.5q22 0 33 -8.5t11 -28.5v-325h-82zM198 768q-1 4 -1 7v5q0 16 9.5 26.5t24.5 10.5q23 0 36 -18l84 -101q-1 -16 -9.5 -25t-22.5 -9q-10 0 -17.5 4.5t-15.5 11.5z" />
    <glyph glyph-name="Uacute" unicode="&#xda;" horiz-adv-x="649" 
d="M324 -13q-75 0 -128 27.5t-80.5 78t-27.5 117.5v82h81v-75q0 -80 44.5 -120.5t110.5 -40.5t110.5 40.5t44.5 120.5v75h82v-82q0 -67 -27.5 -117.5t-80.5 -78t-129 -27.5zM88 251v355q5 2 15.5 4.5t22.5 2.5q22 0 32.5 -8.5t10.5 -28.5v-325h-81zM479 251v355
q5 2 15.5 4.5t22.5 2.5q22 0 33 -8.5t11 -28.5v-325h-82zM401 820q22 -1 33.5 -11.5t11.5 -24.5t-5.5 -23t-19.5 -21l-85 -76q-19 2 -29.5 10t-10.5 20q0 10 4 17t10 13z" />
    <glyph glyph-name="Ucircumflex" unicode="&#xdb;" horiz-adv-x="649" 
d="M324 -13q-75 0 -128 27.5t-80.5 78t-27.5 117.5v82h81v-75q0 -80 44.5 -120.5t110.5 -40.5t110.5 40.5t44.5 120.5v75h82v-82q0 -67 -27.5 -117.5t-80.5 -78t-129 -27.5zM88 251v355q5 2 15.5 4.5t22.5 2.5q22 0 32.5 -8.5t10.5 -28.5v-325h-81zM479 251v355
q5 2 15.5 4.5t22.5 2.5q22 0 33 -8.5t11 -28.5v-325h-82zM329 751q-16 -17 -39.5 -41.5t-52.5 -50.5q-17 2 -28 10.5t-11 22.5q0 12 7.5 21t18.5 20l59 59q22 22 47 22q16 0 27 -6.5t23 -19.5l82 -93q0 -15 -9.5 -24.5t-24.5 -9.5q-11 0 -21 6t-24 22z" />
    <glyph glyph-name="Udieresis" unicode="&#xdc;" horiz-adv-x="649" 
d="M324 -13q-75 0 -128 27.5t-80.5 78t-27.5 117.5v82h81v-75q0 -80 44.5 -120.5t110.5 -40.5t110.5 40.5t44.5 120.5v75h82v-82q0 -67 -27.5 -117.5t-80.5 -78t-129 -27.5zM88 251v355q5 2 15.5 4.5t22.5 2.5q22 0 32.5 -8.5t10.5 -28.5v-325h-81zM479 251v355
q5 2 15.5 4.5t22.5 2.5q22 0 33 -8.5t11 -28.5v-325h-82zM286 729q0 -19 -14 -33.5t-36 -14.5q-21 0 -34.5 14.5t-13.5 33.5q0 20 13.5 34t34.5 14q22 0 36 -14t14 -34zM459 729q0 -19 -14.5 -33.5t-35.5 -14.5q-20 0 -34.5 14.5t-14.5 33.5q0 20 14.5 34t34.5 14
q21 0 35.5 -14t14.5 -34z" />
    <glyph glyph-name="Yacute" unicode="&#xdd;" horiz-adv-x="550" 
d="M243 218q-28 42 -58.5 88.5t-60 94.5t-56 94.5t-47.5 86.5q4 11 15 21.5t29 10.5q19 0 29.5 -10t21.5 -30q13 -23 29.5 -51.5t34.5 -60t36 -62.5t33.5 -58t27.5 -47h4q35 58 64 110t56 102t53 100q6 4 15 5.5t16 1.5q19 0 28.5 -9t9.5 -25q0 -10 -15.5 -42.5t-43.5 -81
t-66 -109.5t-84 -129h-71zM319 257v-255q-5 -2 -15.5 -4.5t-21.5 -2.5q-22 0 -33 9t-11 28v225h81zM345 820q22 -1 33.5 -11.5t11.5 -24.5t-5.5 -23t-19.5 -21l-85 -76q-19 2 -29.5 10t-10.5 20q0 10 4 17t10 13z" />
    <glyph glyph-name="Thorn" unicode="&#xde;" horiz-adv-x="575" 
d="M170 428h109q76 0 119 -30t43 -93t-43 -93t-119 -30h-109v246zM89 113h209q113 0 168.5 53t55.5 139q0 89 -55.5 140.5t-168.5 51.5h-209v-384zM89 161v-130q0 -18 11.5 -27t33.5 -9q11 0 21.5 2.5t14.5 3.5v160h-81zM170 458v119q0 18 -11 27t-33 9q-11 0 -21.5 -2
t-15.5 -4v-149h81z" />
    <glyph glyph-name="germandbls" unicode="&#xdf;" horiz-adv-x="577" 
d="M80 285v190q0 63 26 106.5t70.5 66t100.5 22.5q57 0 102 -22.5t71.5 -68.5t26.5 -116q0 -34 -35 -48l-44 -17q-26 -13 -36.5 -25t-10.5 -33q0 -20 12 -34.5t44 -34.5q42 -24 70.5 -45.5t43 -47t14.5 -62.5q0 -67 -46 -100t-119 -33q-58 0 -90.5 18t-32.5 44q0 12 6.5 24
t19.5 17q19 -15 43 -25t57 -10q36 0 58.5 18.5t22.5 47.5q0 27 -17 46.5t-67 46.5q-49 26 -75 56.5t-26 74.5q0 41 21.5 68t63.5 45l43 18q0 56 -33.5 93t-87.5 37q-46 0 -81 -30t-35 -98v-189h-80zM160 372v-374l-14 -3.5t-21 -2.5q-22 0 -33.5 9.5t-11.5 27.5v343h80z" />
    <glyph glyph-name="agrave" unicode="&#xe0;" horiz-adv-x="499" 
d="M240 52q42 0 69.5 8.5t39.5 16.5v145l-124 -13q-52 -4 -77 -23t-25 -55q0 -37 29.5 -58t87.5 -21zM239 475q87 0 138 -39t51 -123v-237q0 -22 -8.5 -33.5t-25.5 -21.5q-24 -13 -64 -24t-90 -11q-94 0 -145.5 37t-51.5 107q0 65 43.5 99.5t120.5 41.5l142 14v28
q0 50 -30 73t-81 23q-41 0 -78.5 -12t-66.5 -27q-8 7 -14.5 16.5t-6.5 19.5q0 26 29 40q27 14 62.5 21.5t75.5 7.5zM118 634q-1 4 -1.5 7.5t-0.5 5.5q0 16 11 26t27 10q11 0 19.5 -4.5t15.5 -12.5l90 -113q-1 -16 -10 -25.5t-23 -9.5q-11 0 -18.5 4.5t-15.5 11.5z" />
    <glyph glyph-name="aacute" unicode="&#xe1;" horiz-adv-x="499" 
d="M240 52q42 0 69.5 8.5t39.5 16.5v145l-124 -13q-52 -4 -77 -23t-25 -55q0 -37 29.5 -58t87.5 -21zM239 475q87 0 138 -39t51 -123v-237q0 -22 -8.5 -33.5t-25.5 -21.5q-24 -13 -64 -24t-90 -11q-94 0 -145.5 37t-51.5 107q0 65 43.5 99.5t120.5 41.5l142 14v28
q0 50 -30 73t-81 23q-41 0 -78.5 -12t-66.5 -27q-8 7 -14.5 16.5t-6.5 19.5q0 26 29 40q27 14 62.5 21.5t75.5 7.5zM315 687q22 -1 35.5 -12.5t13.5 -25.5q0 -13 -6 -22t-20 -22l-91 -89q-19 0 -31.5 10.5t-12.5 23.5q0 9 5 15.5t10 12.5z" />
    <glyph glyph-name="acircumflex" unicode="&#xe2;" horiz-adv-x="499" 
d="M240 52q42 0 69.5 8.5t39.5 16.5v145l-124 -13q-52 -4 -77 -23t-25 -55q0 -37 29.5 -58t87.5 -21zM239 475q87 0 138 -39t51 -123v-237q0 -22 -8.5 -33.5t-25.5 -21.5q-24 -13 -64 -24t-90 -11q-94 0 -145.5 37t-51.5 107q0 65 43.5 99.5t120.5 41.5l142 14v28
q0 50 -30 73t-81 23q-41 0 -78.5 -12t-66.5 -27q-8 7 -14.5 16.5t-6.5 19.5q0 26 29 40q27 14 62.5 21.5t75.5 7.5zM243 618q-23 -28 -45.5 -51.5t-42.5 -46.5q-18 2 -30 11t-12 22q0 11 6.5 19.5t15.5 18.5l61 66q13 11 23.5 17t23.5 6q16 0 26.5 -6t20.5 -18l84 -100
q0 -13 -7.5 -23.5t-23.5 -10.5q-12 0 -19.5 5.5t-15.5 13.5z" />
    <glyph glyph-name="atilde" unicode="&#xe3;" horiz-adv-x="499" 
d="M240 52q42 0 69.5 8.5t39.5 16.5v145l-124 -13q-52 -4 -77 -23t-25 -55q0 -37 29.5 -58t87.5 -21zM239 475q87 0 138 -39t51 -123v-237q0 -22 -8.5 -33.5t-25.5 -21.5q-24 -13 -64 -24t-90 -11q-94 0 -145.5 37t-51.5 107q0 65 43.5 99.5t120.5 41.5l142 14v28
q0 50 -30 73t-81 23q-41 0 -78.5 -12t-66.5 -27q-8 7 -14.5 16.5t-6.5 19.5q0 26 29 40q27 14 62.5 21.5t75.5 7.5zM167 651q28 0 50.5 -8.5t42 -17t36.5 -8.5q18 0 26.5 11t12.5 27h6q18 0 32 -8.5t14 -29.5q0 -28 -20 -45t-53 -17q-28 0 -52 9t-44 17.5t-36 8.5
q-18 0 -26 -11t-12 -28h-6q-18 0 -32 9t-14 29t10.5 33.5t28 21t36.5 7.5z" />
    <glyph glyph-name="adieresis" unicode="&#xe4;" horiz-adv-x="499" 
d="M240 52q42 0 69.5 8.5t39.5 16.5v145l-124 -13q-52 -4 -77 -23t-25 -55q0 -37 29.5 -58t87.5 -21zM239 475q87 0 138 -39t51 -123v-237q0 -22 -8.5 -33.5t-25.5 -21.5q-24 -13 -64 -24t-90 -11q-94 0 -145.5 37t-51.5 107q0 65 43.5 99.5t120.5 41.5l142 14v28
q0 50 -30 73t-81 23q-41 0 -78.5 -12t-66.5 -27q-8 7 -14.5 16.5t-6.5 19.5q0 26 29 40q27 14 62.5 21.5t75.5 7.5zM211 601q0 -19 -14 -33.5t-36 -14.5q-21 0 -34.5 14.5t-13.5 33.5q0 20 13.5 34t34.5 14q22 0 36 -14t14 -34zM384 601q0 -19 -14.5 -33.5t-35.5 -14.5
q-20 0 -34.5 14.5t-14.5 33.5q0 20 14.5 34t34.5 14q21 0 35.5 -14t14.5 -34z" />
    <glyph glyph-name="aring" unicode="&#xe5;" horiz-adv-x="499" 
d="M240 52q42 0 69.5 8.5t39.5 16.5v145l-124 -13q-52 -4 -77 -23t-25 -55q0 -37 29.5 -58t87.5 -21zM239 475q87 0 138 -39t51 -123v-237q0 -22 -8.5 -33.5t-25.5 -21.5q-24 -13 -64 -24t-90 -11q-94 0 -145.5 37t-51.5 107q0 65 43.5 99.5t120.5 41.5l142 14v28
q0 50 -30 73t-81 23q-41 0 -78.5 -12t-66.5 -27q-8 7 -14.5 16.5t-6.5 19.5q0 26 29 40q27 14 62.5 21.5t75.5 7.5zM147 612q0 39 27.5 66t76.5 27q50 0 77 -27t27 -66t-27 -66t-77 -27q-49 0 -76.5 27t-27.5 66zM205 612q0 -22 13 -34t33 -12t33.5 12t13.5 34t-13.5 34
t-33.5 12t-33 -12t-13 -34z" />
    <glyph glyph-name="ae" unicode="&#xe6;" horiz-adv-x="811" 
d="M392 243l302 41q-5 55 -38.5 90.5t-93.5 35.5q-63 0 -103 -44.5t-40 -127.5v-22q6 -80 51.5 -121.5t124.5 -41.5q42 0 76 14t55 30q11 -7 17.5 -16.5t6.5 -21.5q0 -19 -21.5 -35.5t-57 -26.5t-79.5 -10q-109 0 -167 59.5t-58 155.5q0 5 -5.5 15.5t-5.5 16.5
q0 76 26 129.5t72.5 82.5t108.5 29q61 0 107.5 -26t73 -72.5t26.5 -106.5q0 -22 -10 -31.5t-28 -11.5l-336 -47zM240 52q42 0 69.5 8.5t39.5 16.5v145l-124 -13q-52 -4 -77 -23t-25 -55q0 -37 29.5 -58t87.5 -21zM239 475q82 0 128 -39.5t46 -122.5v-243q0 -22 -10.5 -36
t-27.5 -22q-22 -10 -53.5 -18t-81.5 -8q-94 0 -145.5 37t-51.5 107q0 65 43.5 99.5t120.5 41.5l142 14v28q0 50 -30 73t-81 23q-41 0 -78.5 -12t-66.5 -27q-8 7 -14.5 16.5t-6.5 19.5q0 26 29 40q27 14 62.5 21.5t75.5 7.5z" />
    <glyph glyph-name="ccedilla" unicode="&#xe7;" horiz-adv-x="478" 
d="M289 408q-68 0 -113 -46t-45 -132q0 -85 43.5 -131t114.5 -46q42 0 70 11.5t50 26.5q11 -6 18 -15t7 -22q0 -28 -41.5 -47.5t-103.5 -19.5q-69 0 -123.5 26.5t-85.5 80.5t-31 136q0 81 32 135.5t86.5 82t119.5 27.5q62 0 102.5 -21t40.5 -48q0 -12 -7 -21t-18 -14
q-22 15 -48.5 26t-67.5 11zM300 17q28 -19 40 -45t12 -57q0 -48 -30 -76t-78 -28q-25 0 -38.5 9.5t-13.5 26.5q0 14 6 24h15q36 0 52.5 15.5t16.5 41.5q0 17 -7.5 37t-24.5 37z" />
    <glyph glyph-name="egrave" unicode="&#xe8;" horiz-adv-x="519" 
d="M100 243l302 41q-4 55 -38 90.5t-94 35.5q-62 0 -102.5 -44.5t-40.5 -127.5v-22q7 -80 52.5 -121.5t124.5 -41.5q42 0 76 14t54 30q11 -7 17.5 -16.5t6.5 -21.5q0 -19 -21.5 -35.5t-57 -26.5t-79.5 -10q-77 0 -133.5 28t-87 83.5t-30.5 135.5q0 57 16.5 101.5t46 75.5
t70.5 47.5t89 16.5q61 0 107.5 -26t73 -72.5t26.5 -106.5q0 -22 -10 -31.5t-28 -11.5l-336 -47zM141 634q-1 4 -1.5 7.5t-0.5 5.5q0 16 11 26t27 10q11 0 19.5 -4.5t15.5 -12.5l90 -113q-1 -16 -10 -25.5t-23 -9.5q-11 0 -18.5 4.5t-15.5 11.5z" />
    <glyph glyph-name="eacute" unicode="&#xe9;" horiz-adv-x="519" 
d="M100 243l302 41q-4 55 -38 90.5t-94 35.5q-62 0 -102.5 -44.5t-40.5 -127.5v-22q7 -80 52.5 -121.5t124.5 -41.5q42 0 76 14t54 30q11 -7 17.5 -16.5t6.5 -21.5q0 -19 -21.5 -35.5t-57 -26.5t-79.5 -10q-77 0 -133.5 28t-87 83.5t-30.5 135.5q0 57 16.5 101.5t46 75.5
t70.5 47.5t89 16.5q61 0 107.5 -26t73 -72.5t26.5 -106.5q0 -22 -10 -31.5t-28 -11.5l-336 -47zM355 687q22 -1 35.5 -12.5t13.5 -25.5q0 -13 -6 -22t-20 -22l-91 -89q-19 0 -31.5 10.5t-12.5 23.5q0 9 5 15.5t10 12.5z" />
    <glyph glyph-name="ecircumflex" unicode="&#xea;" horiz-adv-x="519" 
d="M100 243l302 41q-4 55 -38 90.5t-94 35.5q-62 0 -102.5 -44.5t-40.5 -127.5v-22q7 -80 52.5 -121.5t124.5 -41.5q42 0 76 14t54 30q11 -7 17.5 -16.5t6.5 -21.5q0 -19 -21.5 -35.5t-57 -26.5t-79.5 -10q-77 0 -133.5 28t-87 83.5t-30.5 135.5q0 57 16.5 101.5t46 75.5
t70.5 47.5t89 16.5q61 0 107.5 -26t73 -72.5t26.5 -106.5q0 -22 -10 -31.5t-28 -11.5l-336 -47zM272 618q-23 -28 -45.5 -51.5t-42.5 -46.5q-18 2 -30 11t-12 22q0 11 6.5 19.5t15.5 18.5l61 66q13 11 23.5 17t23.5 6q16 0 26.5 -6t20.5 -18l84 -100q0 -13 -7.5 -23.5
t-23.5 -10.5q-12 0 -19.5 5.5t-15.5 13.5z" />
    <glyph glyph-name="edieresis" unicode="&#xeb;" horiz-adv-x="519" 
d="M100 243l302 41q-4 55 -38 90.5t-94 35.5q-62 0 -102.5 -44.5t-40.5 -127.5v-22q7 -80 52.5 -121.5t124.5 -41.5q42 0 76 14t54 30q11 -7 17.5 -16.5t6.5 -21.5q0 -19 -21.5 -35.5t-57 -26.5t-79.5 -10q-77 0 -133.5 28t-87 83.5t-30.5 135.5q0 57 16.5 101.5t46 75.5
t70.5 47.5t89 16.5q61 0 107.5 -26t73 -72.5t26.5 -106.5q0 -22 -10 -31.5t-28 -11.5l-336 -47zM232 601q0 -19 -14 -33.5t-36 -14.5q-21 0 -34.5 14.5t-13.5 33.5q0 20 13.5 34t34.5 14q22 0 36 -14t14 -34zM405 601q0 -19 -14.5 -33.5t-35.5 -14.5q-20 0 -34.5 14.5
t-14.5 33.5q0 20 14.5 34t34.5 14q21 0 35.5 -14t14.5 -34z" />
    <glyph glyph-name="igrave" unicode="&#xec;" horiz-adv-x="241" 
d="M160 343v-345l-14 -3.5t-21 -2.5q-22 0 -33.5 9.5t-11.5 27.5v314h80zM80 292v167q5 2 15 4t21 2q22 0 33 -9.5t11 -27.5v-136h-80zM-10 634q-1 4 -1.5 7.5t-0.5 5.5q0 16 11 26t27 10q11 0 19.5 -4.5t15.5 -12.5l90 -113q-1 -16 -10 -25.5t-23 -9.5q-11 0 -18.5 4.5
t-15.5 11.5z" />
    <glyph glyph-name="iacute" unicode="&#xed;" horiz-adv-x="241" 
d="M160 343v-345l-14 -3.5t-21 -2.5q-22 0 -33.5 9.5t-11.5 27.5v314h80zM80 292v167q5 2 15 4t21 2q22 0 33 -9.5t11 -27.5v-136h-80zM201 687q22 -1 35.5 -12.5t13.5 -25.5q0 -13 -6 -22t-20 -22l-91 -89q-19 0 -31.5 10.5t-12.5 23.5q0 9 5 15.5t10 12.5z" />
    <glyph glyph-name="icircumflex" unicode="&#xee;" horiz-adv-x="241" 
d="M160 343v-345l-14 -3.5t-21 -2.5q-22 0 -33.5 9.5t-11.5 27.5v314h80zM80 292v167q5 2 15 4t21 2q22 0 33 -9.5t11 -27.5v-136h-80zM123 618q-23 -28 -45.5 -51.5t-42.5 -46.5q-18 2 -30 11t-12 22q0 11 6.5 19.5t15.5 18.5l61 66q13 11 23.5 17t23.5 6q16 0 26.5 -6
t20.5 -18l84 -100q0 -13 -7.5 -23.5t-23.5 -10.5q-12 0 -19.5 5.5t-15.5 13.5z" />
    <glyph glyph-name="idieresis" unicode="&#xef;" horiz-adv-x="241" 
d="M160 343v-345l-14 -3.5t-21 -2.5q-22 0 -33.5 9.5t-11.5 27.5v314h80zM80 292v167q5 2 15 4t21 2q22 0 33 -9.5t11 -27.5v-136h-80zM83 601q0 -19 -14 -33.5t-36 -14.5q-21 0 -34.5 14.5t-13.5 33.5q0 20 13.5 34t34.5 14q22 0 36 -14t14 -34zM256 601q0 -19 -14.5 -33.5
t-35.5 -14.5q-20 0 -34.5 14.5t-14.5 33.5q0 20 14.5 34t34.5 14q21 0 35.5 -14t14.5 -34z" />
    <glyph glyph-name="eth" unicode="&#xf0;" horiz-adv-x="537" 
d="M337 530l-152 -54q-10 6 -17 16.5t-7 23.5q0 21 25 30l93 35l24 6l120 47q10 -7 17.5 -16.5t7.5 -23.5t-6 -20.5t-19 -11.5l-61 -23zM408 289q-22 38 -57 59.5t-78 21.5q-71 0 -106.5 -42t-35.5 -114q0 -73 38 -117t103 -44q67 0 100.5 45.5t33.5 121.5q0 34 -2.5 61.5
t-7.5 53.5q-2 16 -2.5 21t-1.5 8.5t-5 12.5q-19 46 -43.5 85t-59.5 69q-9 8 -13 13.5t-13 12.5q-26 20 -54.5 32.5t-58.5 21.5q0 19 10.5 33.5t31.5 14.5q30 0 67.5 -18.5t74.5 -48.5q7 -6 8.5 -7t8.5 -8q37 -37 69 -89t52 -115t20 -134q0 -83 -26 -139t-74 -84.5
t-116 -28.5q-101 0 -161.5 60.5t-60.5 166.5q0 77 30 126t78 72.5t102 23.5q56 0 96.5 -23.5t65.5 -60.5z" />
    <glyph glyph-name="ntilde" unicode="&#xf1;" horiz-adv-x="560" 
d="M485 203h-80v98q0 56 -31.5 82t-84.5 26q-40 0 -71 -10t-53 -23v-173h-80v169q0 21 8.5 34.5t29.5 26.5q26 15 69 28.5t97 13.5q91 0 143.5 -41.5t52.5 -128.5v-102zM165 258v-256q-5 -2 -15 -4.5t-22 -2.5q-21 0 -32 8.5t-11 27.5v227h80zM485 258v-256
q-5 -2 -15.5 -4.5t-21.5 -2.5q-22 0 -32.5 8.5t-10.5 27.5v227h80zM203 651q28 0 50.5 -8.5t42 -17t36.5 -8.5q18 0 26.5 11t12.5 27h6q18 0 32 -8.5t14 -29.5q0 -28 -20 -45t-53 -17q-28 0 -52 9t-44 17.5t-36 8.5q-18 0 -26 -11t-12 -28h-6q-18 0 -32 9t-14 29t10.5 33.5
t28 21t36.5 7.5z" />
    <glyph glyph-name="ograve" unicode="&#xf2;" horiz-adv-x="553" 
d="M504 231q0 -74 -28 -129t-79 -85t-120 -30t-120.5 30t-79.5 85t-28 129q0 75 28.5 129.5t80 84.5t119.5 30t119 -30t79.5 -84.5t28.5 -129.5zM277 409q-67 0 -106.5 -47.5t-39.5 -130.5q0 -84 38.5 -131t107.5 -47q68 0 106.5 47.5t38.5 130.5t-38.5 130.5t-106.5 47.5z
M149 634q-1 4 -1.5 7.5t-0.5 5.5q0 16 11 26t27 10q11 0 19.5 -4.5t15.5 -12.5l90 -113q-1 -16 -10 -25.5t-23 -9.5q-11 0 -18.5 4.5t-15.5 11.5z" />
    <glyph glyph-name="oacute" unicode="&#xf3;" horiz-adv-x="553" 
d="M504 231q0 -74 -28 -129t-79 -85t-120 -30t-120.5 30t-79.5 85t-28 129q0 75 28.5 129.5t80 84.5t119.5 30t119 -30t79.5 -84.5t28.5 -129.5zM277 409q-67 0 -106.5 -47.5t-39.5 -130.5q0 -84 38.5 -131t107.5 -47q68 0 106.5 47.5t38.5 130.5t-38.5 130.5t-106.5 47.5z
M371 687q22 -1 35.5 -12.5t13.5 -25.5q0 -13 -6 -22t-20 -22l-91 -89q-19 0 -31.5 10.5t-12.5 23.5q0 9 5 15.5t10 12.5z" />
    <glyph glyph-name="ocircumflex" unicode="&#xf4;" horiz-adv-x="553" 
d="M504 231q0 -74 -28 -129t-79 -85t-120 -30t-120.5 30t-79.5 85t-28 129q0 75 28.5 129.5t80 84.5t119.5 30t119 -30t79.5 -84.5t28.5 -129.5zM277 409q-67 0 -106.5 -47.5t-39.5 -130.5q0 -84 38.5 -131t107.5 -47q68 0 106.5 47.5t38.5 130.5t-38.5 130.5t-106.5 47.5z
M277 618q-23 -28 -45.5 -51.5t-42.5 -46.5q-18 2 -30 11t-12 22q0 11 6.5 19.5t15.5 18.5l61 66q13 11 23.5 17t23.5 6q16 0 26.5 -6t20.5 -18l84 -100q0 -13 -7.5 -23.5t-23.5 -10.5q-12 0 -19.5 5.5t-15.5 13.5z" />
    <glyph glyph-name="otilde" unicode="&#xf5;" horiz-adv-x="553" 
d="M504 231q0 -74 -28 -129t-79 -85t-120 -30t-120.5 30t-79.5 85t-28 129q0 75 28.5 129.5t80 84.5t119.5 30t119 -30t79.5 -84.5t28.5 -129.5zM277 409q-67 0 -106.5 -47.5t-39.5 -130.5q0 -84 38.5 -131t107.5 -47q68 0 106.5 47.5t38.5 130.5t-38.5 130.5t-106.5 47.5z
M206 651q28 0 50.5 -8.5t42 -17t36.5 -8.5q18 0 26.5 11t12.5 27h6q18 0 32 -8.5t14 -29.5q0 -28 -20 -45t-53 -17q-28 0 -52 9t-44 17.5t-36 8.5q-18 0 -26 -11t-12 -28h-6q-18 0 -32 9t-14 29t10.5 33.5t28 21t36.5 7.5z" />
    <glyph glyph-name="odieresis" unicode="&#xf6;" horiz-adv-x="553" 
d="M504 231q0 -74 -28 -129t-79 -85t-120 -30t-120.5 30t-79.5 85t-28 129q0 75 28.5 129.5t80 84.5t119.5 30t119 -30t79.5 -84.5t28.5 -129.5zM277 409q-67 0 -106.5 -47.5t-39.5 -130.5q0 -84 38.5 -131t107.5 -47q68 0 106.5 47.5t38.5 130.5t-38.5 130.5t-106.5 47.5z
M240 601q0 -19 -14 -33.5t-36 -14.5q-21 0 -34.5 14.5t-13.5 33.5q0 20 13.5 34t34.5 14q22 0 36 -14t14 -34zM413 601q0 -19 -14.5 -33.5t-35.5 -14.5q-20 0 -34.5 14.5t-14.5 33.5q0 20 14.5 34t34.5 14q21 0 35.5 -14t14.5 -34z" />
    <glyph glyph-name="divide" unicode="&#xf7;" horiz-adv-x="522" 
d="M58 266q-3 7 -5 14.5t-2 17.5q0 17 9.5 25.5t25.5 8.5h378q3 -6 5 -14t2 -17q0 -16 -9 -25.5t-26 -9.5h-378zM210 135q0 23 14.5 38t38.5 15t38.5 -15t14.5 -38q0 -22 -14.5 -37.5t-38.5 -15.5t-38.5 15.5t-14.5 37.5zM210 459q0 23 14.5 38t38.5 15t38.5 -15t14.5 -38
t-14.5 -38t-38.5 -15t-38.5 15t-14.5 38z" />
    <glyph glyph-name="oslash" unicode="&#xf8;" horiz-adv-x="553" 
d="M377 443l53 80q14 0 25 -4t17.5 -12t6.5 -20q0 -7 -6 -16l-48 -72zM121 -61q-15 0 -26.5 4.5t-17.5 12.5t-6 18q0 9 6 18l43 62l59 -29zM157 104l190 295l56 -26l-208 -326zM504 231q0 -74 -28 -129t-79 -85t-120 -30t-120.5 30t-79.5 85t-28 129q0 75 28.5 129.5
t80 84.5t119.5 30t119 -30t79.5 -84.5t28.5 -129.5zM277 409q-67 0 -107.5 -47.5t-40.5 -130.5q0 -84 39.5 -131t108.5 -47q68 0 107.5 47t39.5 131q0 83 -39.5 130.5t-107.5 47.5z" />
    <glyph glyph-name="ugrave" unicode="&#xf9;" horiz-adv-x="550" 
d="M75 260h80v-87q0 -64 34 -92t94 -28q40 0 68 8.5t44 17.5v181h80v-178q0 -21 -5.5 -33.5t-26.5 -24.5q-22 -13 -63 -25t-98 -12q-66 0 -112.5 19.5t-70.5 60t-24 102.5v91zM395 208v252q5 2 15.5 4.5t21.5 2.5q22 0 32.5 -8.5t10.5 -28.5v-222h-80zM75 208v252
q5 2 15.5 4.5t22.5 2.5q21 0 31.5 -8.5t10.5 -28.5v-222h-80zM144 634q-1 4 -1.5 7.5t-0.5 5.5q0 16 11 26t27 10q11 0 19.5 -4.5t15.5 -12.5l90 -113q-1 -16 -10 -25.5t-23 -9.5q-11 0 -18.5 4.5t-15.5 11.5z" />
    <glyph glyph-name="uacute" unicode="&#xfa;" horiz-adv-x="550" 
d="M75 260h80v-87q0 -64 34 -92t94 -28q40 0 68 8.5t44 17.5v181h80v-178q0 -21 -5.5 -33.5t-26.5 -24.5q-22 -13 -63 -25t-98 -12q-66 0 -112.5 19.5t-70.5 60t-24 102.5v91zM395 208v252q5 2 15.5 4.5t21.5 2.5q22 0 32.5 -8.5t10.5 -28.5v-222h-80zM75 208v252
q5 2 15.5 4.5t22.5 2.5q21 0 31.5 -8.5t10.5 -28.5v-222h-80zM356 687q22 -1 35.5 -12.5t13.5 -25.5q0 -13 -6 -22t-20 -22l-91 -89q-19 0 -31.5 10.5t-12.5 23.5q0 9 5 15.5t10 12.5z" />
    <glyph glyph-name="ucircumflex" unicode="&#xfb;" horiz-adv-x="550" 
d="M75 260h80v-87q0 -64 34 -92t94 -28q40 0 68 8.5t44 17.5v181h80v-178q0 -21 -5.5 -33.5t-26.5 -24.5q-22 -13 -63 -25t-98 -12q-66 0 -112.5 19.5t-70.5 60t-24 102.5v91zM395 208v252q5 2 15.5 4.5t21.5 2.5q22 0 32.5 -8.5t10.5 -28.5v-222h-80zM75 208v252
q5 2 15.5 4.5t22.5 2.5q21 0 31.5 -8.5t10.5 -28.5v-222h-80zM278 618q-23 -28 -45.5 -51.5t-42.5 -46.5q-18 2 -30 11t-12 22q0 11 6.5 19.5t15.5 18.5l61 66q13 11 23.5 17t23.5 6q16 0 26.5 -6t20.5 -18l84 -100q0 -13 -7.5 -23.5t-23.5 -10.5q-12 0 -19.5 5.5
t-15.5 13.5z" />
    <glyph glyph-name="udieresis" unicode="&#xfc;" horiz-adv-x="550" 
d="M75 260h80v-87q0 -64 34 -92t94 -28q40 0 68 8.5t44 17.5v181h80v-178q0 -21 -5.5 -33.5t-26.5 -24.5q-22 -13 -63 -25t-98 -12q-66 0 -112.5 19.5t-70.5 60t-24 102.5v91zM395 208v252q5 2 15.5 4.5t21.5 2.5q22 0 32.5 -8.5t10.5 -28.5v-222h-80zM75 208v252
q5 2 15.5 4.5t22.5 2.5q21 0 31.5 -8.5t10.5 -28.5v-222h-80zM236 601q0 -19 -14 -33.5t-36 -14.5q-21 0 -34.5 14.5t-13.5 33.5q0 20 13.5 34t34.5 14q22 0 36 -14t14 -34zM409 601q0 -19 -14.5 -33.5t-35.5 -14.5q-20 0 -34.5 14.5t-14.5 33.5q0 20 14.5 34t34.5 14
q21 0 35.5 -14t14.5 -34z" />
    <glyph glyph-name="yacute" unicode="&#xfd;" horiz-adv-x="489" 
d="M169 103q-17 32 -41 86.5t-49.5 122t-48.5 137.5q7 10 18.5 16t24.5 6q17 0 28 -9t18 -30q30 -84 63 -167t73 -172h4q21 42 44 105t44 133t35 132q7 3 15.5 5.5t18.5 2.5q17 0 28 -8.5t11 -25.5q0 -16 -9 -53.5t-24.5 -87t-36 -105t-44 -109t-47.5 -96.5
q-46 -85 -84 -130.5t-70 -45.5q-23 0 -35.5 12t-15.5 28q22 19 49.5 50.5t53 68t41.5 69.5q-17 5 -31.5 18t-32.5 47zM329 687q22 -1 35.5 -12.5t13.5 -25.5q0 -13 -6 -22t-20 -22l-91 -89q-19 0 -31.5 10.5t-12.5 23.5q0 9 5 15.5t10 12.5z" />
    <glyph glyph-name="thorn" unicode="&#xfe;" horiz-adv-x="553" 
d="M157 52v567q0 17 -10.5 26.5t-32.5 9.5q-11 0 -21.5 -2t-15.5 -4v-597h80zM274 -13q66 0 117 27t79.5 81.5t28.5 136.5q0 85 -31 138.5t-83 79t-116 25.5q-47 0 -85 -13.5t-58 -26.5l27 -56q20 12 47 21t63 9q41 0 76.5 -17t57 -55.5t21.5 -104.5q0 -94 -42.5 -136.5
t-112.5 -42.5q-43 0 -73.5 14.5t-50.5 33.5v-74q17 -15 54.5 -27.5t80.5 -12.5zM77 77v-227q0 -19 11 -28t32 -9q12 0 22 2.5t15 4.5v255z" />
    <glyph glyph-name="ydieresis" unicode="&#xff;" horiz-adv-x="489" 
d="M169 103q-17 32 -41 86.5t-49.5 122t-48.5 137.5q7 10 18.5 16t24.5 6q17 0 28 -9t18 -30q30 -84 63 -167t73 -172h4q21 42 44 105t44 133t35 132q7 3 15.5 5.5t18.5 2.5q17 0 28 -8.5t11 -25.5q0 -16 -9 -53.5t-24.5 -87t-36 -105t-44 -109t-47.5 -96.5
q-46 -85 -84 -130.5t-70 -45.5q-23 0 -35.5 12t-15.5 28q22 19 49.5 50.5t53 68t41.5 69.5q-17 5 -31.5 18t-32.5 47zM208 601q0 -19 -14 -33.5t-36 -14.5q-21 0 -34.5 14.5t-13.5 33.5q0 20 13.5 34t34.5 14q22 0 36 -14t14 -34zM381 601q0 -19 -14.5 -33.5t-35.5 -14.5
q-20 0 -34.5 14.5t-14.5 33.5q0 20 14.5 34t34.5 14q21 0 35.5 -14t14.5 -34z" />
    <glyph glyph-name="Amacron" unicode="&#x100;" horiz-adv-x="592" 
d="M165 690q-4 6 -7.5 14t-3.5 18q0 17 9 25t23 8h228q4 -6 7 -14.5t3 -17.5q0 -17 -8.5 -25t-23.5 -8h-227zM294 545q-15 -42 -35.5 -100t-42 -119.5t-40.5 -114.5l-5 -15l-15 -45t-19 -56.5t-19 -55t-14 -41.5q-7 -3 -14.5 -4.5t-18.5 -1.5q-16 0 -28.5 8.5t-12.5 27.5
q0 9 3 18.5t7 20.5q12 34 29.5 83t38.5 107t44 119t45 119t41 106q8 4 24 8t33 4q20 0 38.5 -6t23.5 -20q24 -58 51.5 -131.5t55.5 -153t53.5 -154.5t45.5 -136q-7 -9 -18.5 -14.5t-25.5 -5.5q-19 0 -29 8.5t-17 28.5l-55 163l-8 28q-20 61 -41.5 123t-40 115t-30.5 87h-4z
M158 229h279l16 -67h-321z" />
    <glyph glyph-name="amacron" unicode="&#x101;" horiz-adv-x="499" 
d="M240 52q42 0 69.5 8.5t39.5 16.5v145l-124 -13q-52 -4 -77 -23t-25 -55q0 -37 29.5 -58t87.5 -21zM239 475q87 0 138 -39t51 -123v-237q0 -22 -8.5 -33.5t-25.5 -21.5q-24 -13 -64 -24t-90 -11q-94 0 -145.5 37t-51.5 107q0 65 43.5 99.5t120.5 41.5l142 14v28
q0 50 -30 73t-81 23q-41 0 -78.5 -12t-66.5 -27q-8 7 -14.5 16.5t-6.5 19.5q0 26 29 40q27 14 62.5 21.5t75.5 7.5zM125 570q-4 6 -7.5 14t-3.5 18q0 17 9 25t23 8h228q4 -6 7 -14.5t3 -17.5q0 -17 -8.5 -25t-23.5 -8h-227z" />
    <glyph glyph-name="Abreve" unicode="&#x102;" horiz-adv-x="592" 
d="M294 545q-15 -42 -35.5 -100t-42 -119.5t-40.5 -114.5l-5 -15l-15 -45t-19 -56.5t-19 -55t-14 -41.5q-7 -3 -14.5 -4.5t-18.5 -1.5q-16 0 -28.5 8.5t-12.5 27.5q0 9 3 18.5t7 20.5q12 34 29.5 83t38.5 107t44 119t45 119t41 106q8 4 24 8t33 4q20 0 38.5 -6t23.5 -20
q24 -58 51.5 -131.5t55.5 -153t53.5 -154.5t45.5 -136q-7 -9 -18.5 -14.5t-25.5 -5.5q-19 0 -29 8.5t-17 28.5l-55 163l-8 28q-20 61 -41.5 123t-40 115t-30.5 87h-4zM158 229h279l16 -67h-321zM296 725q32 0 51.5 17t24.5 49q4 1 8 1.5t9 0.5q16 0 25.5 -9t9.5 -29
q0 -31 -32 -59.5t-96 -28.5q-66 0 -97 28.5t-31 59.5q0 20 9.5 29t25.5 9q5 0 9.5 -0.5t7.5 -1.5q5 -32 25 -49t51 -17z" />
    <glyph glyph-name="abreve" unicode="&#x103;" horiz-adv-x="499" 
d="M240 52q42 0 69.5 8.5t39.5 16.5v145l-124 -13q-52 -4 -77 -23t-25 -55q0 -37 29.5 -58t87.5 -21zM239 475q87 0 138 -39t51 -123v-237q0 -22 -8.5 -33.5t-25.5 -21.5q-24 -13 -64 -24t-90 -11q-94 0 -145.5 37t-51.5 107q0 65 43.5 99.5t120.5 41.5l142 14v28
q0 50 -30 73t-81 23q-41 0 -78.5 -12t-66.5 -27q-8 7 -14.5 16.5t-6.5 19.5q0 26 29 40q27 14 62.5 21.5t75.5 7.5zM253 599q32 0 51.5 17t24.5 49q4 1 8 1.5t9 0.5q16 0 25.5 -9t9.5 -29q0 -31 -32 -59.5t-96 -28.5q-66 0 -97 28.5t-31 59.5q0 20 9.5 29t25.5 9
q5 0 9.5 -0.5t7.5 -1.5q5 -32 25 -49t51 -17z" />
    <glyph glyph-name="Aogonek" unicode="&#x104;" horiz-adv-x="592" 
d="M556 5q-20 -14 -36 -32t-16 -46q0 -27 17.5 -40t46.5 -13h14q3 -6 4.5 -12t1.5 -11q0 -16 -11 -26t-37 -10q-44 0 -76 25.5t-32 70.5q0 30 12.5 51.5t29.5 35t30 18.5zM294 545q-15 -42 -35.5 -100t-42 -119.5t-40.5 -114.5l-5 -15l-15 -45t-19 -56.5t-19 -55t-14 -41.5
q-7 -3 -14.5 -4.5t-18.5 -1.5q-16 0 -28.5 8.5t-12.5 27.5q0 9 3 18.5t7 20.5q12 34 29.5 83t38.5 107t44 119t45 119t41 106q8 4 24 8t33 4q20 0 38.5 -6t23.5 -20q24 -58 51.5 -131.5t55.5 -153t53.5 -154.5t45.5 -136q-7 -9 -18.5 -14.5t-25.5 -5.5q-19 0 -29 8.5
t-17 28.5l-55 163l-8 28q-20 61 -41.5 123t-40 115t-30.5 87h-4zM158 229h279l16 -67h-321z" />
    <glyph glyph-name="aogonek" unicode="&#x105;" horiz-adv-x="499" 
d="M411 34q-32 -25 -52 -47.5t-20 -59.5q0 -27 17 -40t46 -13h15q3 -6 4.5 -12t1.5 -11q0 -16 -11 -26t-38 -10q-43 0 -75 25.5t-32 70.5q0 44 24 69t48 36zM240 52q42 0 69.5 8.5t39.5 16.5v145l-124 -13q-52 -4 -77 -23t-25 -55q0 -37 29.5 -58t87.5 -21zM239 475
q87 0 138 -39t51 -123v-237q0 -22 -8.5 -33.5t-25.5 -21.5q-24 -13 -64 -24t-90 -11q-94 0 -145.5 37t-51.5 107q0 65 43.5 99.5t120.5 41.5l142 14v28q0 50 -30 73t-81 23q-41 0 -78.5 -12t-66.5 -27q-8 7 -14.5 16.5t-6.5 19.5q0 26 29 40q27 14 62.5 21.5t75.5 7.5z" />
    <glyph glyph-name="Cacute" unicode="&#x106;" horiz-adv-x="588" 
d="M533 541q0 -13 -8.5 -23.5t-19.5 -15.5q-25 18 -60.5 34t-91.5 16q-61 0 -109.5 -28t-77 -83.5t-28.5 -137.5q0 -123 60.5 -185t157.5 -62q52 0 91 15t64 34q10 -4 19 -14.5t9 -24.5q0 -10 -5.5 -19.5t-18.5 -18.5q-23 -16 -63 -28.5t-102 -12.5q-83 0 -150.5 35.5
t-106.5 105.5t-39 175t40.5 176t107 106.5t145.5 35.5q55 0 97 -12t65.5 -30.5t23.5 -37.5zM409 820q22 -1 33.5 -11.5t11.5 -24.5t-5.5 -23t-19.5 -21l-85 -76q-19 2 -29.5 10t-10.5 20q0 10 4 17t10 13z" />
    <glyph glyph-name="cacute" unicode="&#x107;" horiz-adv-x="478" 
d="M289 408q-68 0 -113 -46t-45 -132q0 -85 43.5 -131t114.5 -46q42 0 70 11.5t50 26.5q11 -6 18 -15t7 -22q0 -28 -41.5 -47.5t-103.5 -19.5q-69 0 -123.5 26.5t-85.5 80.5t-31 136q0 81 32 135.5t86.5 82t119.5 27.5q62 0 102.5 -21t40.5 -48q0 -12 -7 -21t-18 -14
q-22 15 -48.5 26t-67.5 11zM357 687q22 -1 35.5 -12.5t13.5 -25.5q0 -13 -6 -22t-20 -22l-91 -89q-19 0 -31.5 10.5t-12.5 23.5q0 9 5 15.5t10 12.5z" />
    <glyph glyph-name="Ccircumflex" unicode="&#x108;" horiz-adv-x="588" 
d="M533 541q0 -13 -8.5 -23.5t-19.5 -15.5q-25 18 -60.5 34t-91.5 16q-61 0 -109.5 -28t-77 -83.5t-28.5 -137.5q0 -123 60.5 -185t157.5 -62q52 0 91 15t64 34q10 -4 19 -14.5t9 -24.5q0 -10 -5.5 -19.5t-18.5 -18.5q-23 -16 -63 -28.5t-102 -12.5q-83 0 -150.5 35.5
t-106.5 105.5t-39 175t40.5 176t107 106.5t145.5 35.5q55 0 97 -12t65.5 -30.5t23.5 -37.5zM342 751q-16 -17 -39.5 -41.5t-52.5 -50.5q-17 2 -28 10.5t-11 22.5q0 12 7.5 21t18.5 20l59 59q22 22 47 22q16 0 27 -6.5t23 -19.5l82 -93q0 -15 -9.5 -24.5t-24.5 -9.5
q-11 0 -21 6t-24 22z" />
    <glyph glyph-name="ccircumflex" unicode="&#x109;" horiz-adv-x="478" 
d="M289 408q-68 0 -113 -46t-45 -132q0 -85 43.5 -131t114.5 -46q42 0 70 11.5t50 26.5q11 -6 18 -15t7 -22q0 -28 -41.5 -47.5t-103.5 -19.5q-69 0 -123.5 26.5t-85.5 80.5t-31 136q0 81 32 135.5t86.5 82t119.5 27.5q62 0 102.5 -21t40.5 -48q0 -12 -7 -21t-18 -14
q-22 15 -48.5 26t-67.5 11zM277 618q-23 -28 -45.5 -51.5t-42.5 -46.5q-18 2 -30 11t-12 22q0 11 6.5 19.5t15.5 18.5l61 66q13 11 23.5 17t23.5 6q16 0 26.5 -6t20.5 -18l84 -100q0 -13 -7.5 -23.5t-23.5 -10.5q-12 0 -19.5 5.5t-15.5 13.5z" />
    <glyph glyph-name="Cdotaccent" unicode="&#x10a;" horiz-adv-x="588" 
d="M533 541q0 -13 -8.5 -23.5t-19.5 -15.5q-25 18 -60.5 34t-91.5 16q-61 0 -109.5 -28t-77 -83.5t-28.5 -137.5q0 -123 60.5 -185t157.5 -62q52 0 91 15t64 34q10 -4 19 -14.5t9 -24.5q0 -10 -5.5 -19.5t-18.5 -18.5q-23 -16 -63 -28.5t-102 -12.5q-83 0 -150.5 35.5
t-106.5 105.5t-39 175t40.5 176t107 106.5t145.5 35.5q55 0 97 -12t65.5 -30.5t23.5 -37.5zM387 730q0 -22 -14 -35.5t-37 -13.5q-22 0 -36 13.5t-14 35.5q0 23 14 36.5t36 13.5q23 0 37 -13.5t14 -36.5z" />
    <glyph glyph-name="cdotaccent" unicode="&#x10b;" horiz-adv-x="478" 
d="M289 408q-68 0 -113 -46t-45 -132q0 -85 43.5 -131t114.5 -46q42 0 70 11.5t50 26.5q11 -6 18 -15t7 -22q0 -28 -41.5 -47.5t-103.5 -19.5q-69 0 -123.5 26.5t-85.5 80.5t-31 136q0 81 32 135.5t86.5 82t119.5 27.5q62 0 102.5 -21t40.5 -48q0 -12 -7 -21t-18 -14
q-22 15 -48.5 26t-67.5 11zM321 607q0 -22 -14 -35.5t-37 -13.5q-22 0 -36 13.5t-14 35.5q0 23 14 36.5t36 13.5q23 0 37 -13.5t14 -36.5z" />
    <glyph glyph-name="Ccaron" unicode="&#x10c;" horiz-adv-x="588" 
d="M533 541q0 -13 -8.5 -23.5t-19.5 -15.5q-25 18 -60.5 34t-91.5 16q-61 0 -109.5 -28t-77 -83.5t-28.5 -137.5q0 -123 60.5 -185t157.5 -62q52 0 91 15t64 34q10 -4 19 -14.5t9 -24.5q0 -10 -5.5 -19.5t-18.5 -18.5q-23 -16 -63 -28.5t-102 -12.5q-83 0 -150.5 35.5
t-106.5 105.5t-39 175t40.5 176t107 106.5t145.5 35.5q55 0 97 -12t65.5 -30.5t23.5 -37.5zM348 721q17 18 40 42t48 51q18 -1 31 -10t13 -23q0 -12 -7.5 -21t-18.5 -20l-60 -60q-11 -10 -21.5 -15t-24.5 -5q-15 0 -26.5 6t-22.5 19l-83 88q0 19 9 29t24 10q11 0 21.5 -6
t23.5 -22z" />
    <glyph glyph-name="ccaron" unicode="&#x10d;" horiz-adv-x="478" 
d="M289 408q-68 0 -113 -46t-45 -132q0 -85 43.5 -131t114.5 -46q42 0 70 11.5t50 26.5q11 -6 18 -15t7 -22q0 -28 -41.5 -47.5t-103.5 -19.5q-69 0 -123.5 26.5t-85.5 80.5t-31 136q0 81 32 135.5t86.5 82t119.5 27.5q62 0 102.5 -21t40.5 -48q0 -12 -7 -21t-18 -14
q-22 15 -48.5 26t-67.5 11zM273 583l88 97q20 -1 31.5 -10.5t11.5 -23.5q0 -11 -7 -20t-18 -21l-63 -64q-10 -10 -20 -15t-24 -5q-9 0 -17.5 3t-16 9t-15.5 14l-85 93q0 10 4 18.5t11.5 14t17.5 5.5q13 0 21.5 -5.5t19.5 -18.5z" />
    <glyph glyph-name="Dcaron" unicode="&#x10e;" horiz-adv-x="652" 
d="M515 311q0 -125 -60 -189.5t-177 -64.5q-29 0 -56.5 2t-51.5 8v476q20 4 44 6t55 2q68 0 123.5 -24.5t89 -77t33.5 -138.5zM598 311q0 103 -41.5 171t-115 102.5t-171.5 34.5q-39 0 -78 -3t-70 -13q-16 -5 -24.5 -13.5t-8.5 -24.5v-514q0 -33 42 -46q36 -11 76.5 -13.5
t71.5 -2.5q97 0 168.5 35t111 106.5t39.5 180.5zM315 721q17 18 40 42t48 51q18 -1 31 -10t13 -23q0 -12 -7.5 -21t-18.5 -20l-60 -60q-11 -10 -21.5 -15t-24.5 -5q-15 0 -26.5 6t-22.5 19l-83 88q0 19 9 29t24 10q11 0 21.5 -6t23.5 -22z" />
    <glyph glyph-name="dcaron" unicode="&#x10f;" horiz-adv-x="624" 
d="M390 415l80 1v-340q0 -19 -8.5 -30.5t-26.5 -22.5q-20 -13 -57 -24.5t-85 -11.5q-72 0 -127 25t-86 78.5t-31 138.5q0 87 30.5 141t82.5 79.5t114 25.5q39 0 74 -11t55 -27v-74q-19 19 -49.5 32.5t-71.5 13.5t-76 -17.5t-56 -57.5t-21 -107q0 -91 44 -132.5t117 -41.5
q35 0 57.5 7.5t40.5 18.5v336zM390 395v253q5 2 15.5 4.5t21.5 2.5q22 0 32.5 -8.5t10.5 -27.5v-223zM589 516q-8 -10 -17.5 -14t-20.5 -4q-21 0 -31 13q14 35 26 72t15 65q9 4 17.5 5.5t18.5 1.5q16 0 26.5 -7.5t10.5 -22.5q0 -16 -7 -37.5t-17.5 -40.5t-20.5 -31z" />
    <glyph glyph-name="Dcroat" unicode="&#x110;" horiz-adv-x="691" 
d="M159 270h174q15 0 23.5 10t8.5 26q0 11 -3.5 19.5t-6.5 12.5h-196v-68zM223 338h-187q-14 0 -22.5 -9.5t-8.5 -26.5q0 -10 3 -18.5t7 -13.5h208v68zM554 311q0 -125 -60 -189.5t-177 -64.5q-29 0 -56.5 2t-51.5 8v476q20 4 44 6t55 2q68 0 123.5 -24.5t89 -77
t33.5 -138.5zM637 311q0 103 -41.5 171t-115 102.5t-171.5 34.5q-39 0 -78 -3t-70 -13q-16 -5 -24.5 -13.5t-8.5 -24.5v-514q0 -33 42 -46q36 -11 76.5 -13.5t71.5 -2.5q97 0 168.5 35t111 106.5t39.5 180.5z" />
    <glyph glyph-name="dcroat" unicode="&#x111;" horiz-adv-x="550" 
d="M287 527q-3 5 -5.5 12.5t-2.5 17.5q0 30 27 30h231q2 -4 5 -11.5t3 -16.5q0 -32 -28 -32h-230zM390 415l80 1v-340q0 -19 -8.5 -30.5t-26.5 -22.5q-20 -13 -57 -24.5t-85 -11.5q-72 0 -127 25t-86 78.5t-31 138.5q0 87 30.5 141t82.5 79.5t114 25.5q39 0 74 -11t55 -27
v-74q-19 19 -49.5 32.5t-71.5 13.5t-76 -17.5t-56 -57.5t-21 -107q0 -91 44 -132.5t117 -41.5q35 0 57.5 7.5t40.5 18.5v336zM390 395v254q5 2 15.5 4.5t21.5 2.5q22 0 32.5 -8.5t10.5 -27.5v-224z" />
    <glyph glyph-name="Emacron" unicode="&#x112;" horiz-adv-x="542" 
d="M182 366v-358q-4 -1 -15 -4.5t-22 -3.5q-20 0 -32 12.5t-12 31.5v322h81zM101 249v315q0 20 12 32t32 12q11 0 22 -3t15 -5v-352zM145 346h301q3 -4 6 -13t3 -19q0 -16 -8 -26t-23 -10h-279v68zM145 68h337q3 -4 6 -12.5t3 -19.5q0 -16 -8 -26t-23 -10h-315v68zM145 608
h332q3 -4 6 -13t3 -19q0 -16 -8 -26.5t-23 -10.5h-310v69zM162 690q-4 6 -7.5 14t-3.5 18q0 17 9 25t23 8h228q4 -6 7 -14.5t3 -17.5q0 -17 -8.5 -25t-23.5 -8h-227z" />
    <glyph glyph-name="emacron" unicode="&#x113;" horiz-adv-x="519" 
d="M100 243l302 41q-4 55 -38 90.5t-94 35.5q-62 0 -102.5 -44.5t-40.5 -127.5v-22q7 -80 52.5 -121.5t124.5 -41.5q42 0 76 14t54 30q11 -7 17.5 -16.5t6.5 -21.5q0 -19 -21.5 -35.5t-57 -26.5t-79.5 -10q-77 0 -133.5 28t-87 83.5t-30.5 135.5q0 57 16.5 101.5t46 75.5
t70.5 47.5t89 16.5q61 0 107.5 -26t73 -72.5t26.5 -106.5q0 -22 -10 -31.5t-28 -11.5l-336 -47zM145 570q-4 6 -7.5 14t-3.5 18q0 17 9 25t23 8h228q4 -6 7 -14.5t3 -17.5q0 -17 -8.5 -25t-23.5 -8h-227z" />
    <glyph glyph-name="Ebreve" unicode="&#x114;" horiz-adv-x="542" 
d="M182 366v-358q-4 -1 -15 -4.5t-22 -3.5q-20 0 -32 12.5t-12 31.5v322h81zM101 249v315q0 20 12 32t32 12q11 0 22 -3t15 -5v-352zM145 346h301q3 -4 6 -13t3 -19q0 -16 -8 -26t-23 -10h-279v68zM145 68h337q3 -4 6 -12.5t3 -19.5q0 -16 -8 -26t-23 -10h-315v68zM145 608
h332q3 -4 6 -13t3 -19q0 -16 -8 -26.5t-23 -10.5h-310v69zM302 726q32 0 51.5 17t24.5 49q4 1 8 1.5t9 0.5q16 0 25.5 -9t9.5 -29q0 -31 -32 -59.5t-96 -28.5q-66 0 -97 28.5t-31 59.5q0 20 9.5 29t25.5 9q5 0 9.5 -0.5t7.5 -1.5q5 -32 25 -49t51 -17z" />
    <glyph glyph-name="ebreve" unicode="&#x115;" horiz-adv-x="519" 
d="M100 243l302 41q-4 55 -38 90.5t-94 35.5q-62 0 -102.5 -44.5t-40.5 -127.5v-22q7 -80 52.5 -121.5t124.5 -41.5q42 0 76 14t54 30q11 -7 17.5 -16.5t6.5 -21.5q0 -19 -21.5 -35.5t-57 -26.5t-79.5 -10q-77 0 -133.5 28t-87 83.5t-30.5 135.5q0 57 16.5 101.5t46 75.5
t70.5 47.5t89 16.5q61 0 107.5 -26t73 -72.5t26.5 -106.5q0 -22 -10 -31.5t-28 -11.5l-336 -47zM271 599q32 0 51.5 17t24.5 49q4 1 8 1.5t9 0.5q16 0 25.5 -9t9.5 -29q0 -31 -32 -59.5t-96 -28.5q-66 0 -97 28.5t-31 59.5q0 20 9.5 29t25.5 9q5 0 9.5 -0.5t7.5 -1.5
q5 -32 25 -49t51 -17z" />
    <glyph glyph-name="Edotaccent" unicode="&#x116;" horiz-adv-x="542" 
d="M182 366v-358q-4 -1 -15 -4.5t-22 -3.5q-20 0 -32 12.5t-12 31.5v322h81zM101 249v315q0 20 12 32t32 12q11 0 22 -3t15 -5v-352zM145 346h301q3 -4 6 -13t3 -19q0 -16 -8 -26t-23 -10h-279v68zM145 68h337q3 -4 6 -12.5t3 -19.5q0 -16 -8 -26t-23 -10h-315v68zM145 608
h332q3 -4 6 -13t3 -19q0 -16 -8 -26.5t-23 -10.5h-310v69zM363 730q0 -22 -14 -35.5t-37 -13.5q-22 0 -36 13.5t-14 35.5q0 23 14 36.5t36 13.5q23 0 37 -13.5t14 -36.5z" />
    <glyph glyph-name="edotaccent" unicode="&#x117;" horiz-adv-x="519" 
d="M100 243l302 41q-4 55 -38 90.5t-94 35.5q-62 0 -102.5 -44.5t-40.5 -127.5v-22q7 -80 52.5 -121.5t124.5 -41.5q42 0 76 14t54 30q11 -7 17.5 -16.5t6.5 -21.5q0 -19 -21.5 -35.5t-57 -26.5t-79.5 -10q-77 0 -133.5 28t-87 83.5t-30.5 135.5q0 57 16.5 101.5t46 75.5
t70.5 47.5t89 16.5q61 0 107.5 -26t73 -72.5t26.5 -106.5q0 -22 -10 -31.5t-28 -11.5l-336 -47zM320 607q0 -22 -14 -35.5t-37 -13.5q-22 0 -36 13.5t-14 35.5q0 23 14 36.5t36 13.5q23 0 37 -13.5t14 -36.5z" />
    <glyph glyph-name="Eogonek" unicode="&#x118;" horiz-adv-x="542" 
d="M182 366v-358q-4 -1 -15 -4.5t-22 -3.5q-20 0 -32 12.5t-12 31.5v322h81zM101 249v315q0 20 12 32t32 12q11 0 22 -3t15 -5v-352zM145 346h301q3 -4 6 -13t3 -19q0 -16 -8 -26t-23 -10h-279v68zM145 68h337q3 -4 6 -12.5t3 -19.5q0 -16 -8 -26t-23 -10h-315v68zM145 608
h332q3 -4 6 -13t3 -19q0 -16 -8 -26.5t-23 -10.5h-310v69zM466 5q-21 -14 -36.5 -32t-15.5 -46q0 -27 17 -40t46 -13h15q3 -6 4.5 -12t1.5 -11q0 -16 -11 -26t-38 -10q-43 0 -75 25.5t-32 70.5q0 30 12 50.5t29 34.5t31 21z" />
    <glyph glyph-name="eogonek" unicode="&#x119;" horiz-adv-x="519" 
d="M100 243l302 41q-4 55 -38 90.5t-94 35.5q-62 0 -102.5 -44.5t-40.5 -127.5v-22q7 -80 52.5 -121.5t124.5 -41.5q42 0 76 14t54 30q11 -7 17.5 -16.5t6.5 -21.5q0 -19 -21.5 -35.5t-57 -26.5t-79.5 -10q-77 0 -133.5 28t-87 83.5t-30.5 135.5q0 57 16.5 101.5t46 75.5
t70.5 47.5t89 16.5q61 0 107.5 -26t73 -72.5t26.5 -106.5q0 -22 -10 -31.5t-28 -11.5l-336 -47zM402 5q-21 -14 -36.5 -32t-15.5 -46q0 -27 17 -40t46 -13h15q3 -6 4.5 -12t1.5 -11q0 -16 -11 -26t-38 -10q-43 0 -75 25.5t-32 70.5q0 30 12 50.5t29 34.5t31 21z" />
    <glyph glyph-name="Ecaron" unicode="&#x11a;" horiz-adv-x="542" 
d="M182 366v-358q-4 -1 -15 -4.5t-22 -3.5q-20 0 -32 12.5t-12 31.5v322h81zM101 249v315q0 20 12 32t32 12q11 0 22 -3t15 -5v-352zM145 346h301q3 -4 6 -13t3 -19q0 -16 -8 -26t-23 -10h-279v68zM145 68h337q3 -4 6 -12.5t3 -19.5q0 -16 -8 -26t-23 -10h-315v68zM145 608
h332q3 -4 6 -13t3 -19q0 -16 -8 -26.5t-23 -10.5h-310v69zM306 721q17 18 40 42t48 51q18 -1 31 -10t13 -23q0 -12 -7.5 -21t-18.5 -20l-60 -60q-11 -10 -21.5 -15t-24.5 -5q-15 0 -26.5 6t-22.5 19l-83 88q0 19 9 29t24 10q11 0 21.5 -6t23.5 -22z" />
    <glyph glyph-name="ecaron" unicode="&#x11b;" horiz-adv-x="519" 
d="M100 243l302 41q-4 55 -38 90.5t-94 35.5q-62 0 -102.5 -44.5t-40.5 -127.5v-22q7 -80 52.5 -121.5t124.5 -41.5q42 0 76 14t54 30q11 -7 17.5 -16.5t6.5 -21.5q0 -19 -21.5 -35.5t-57 -26.5t-79.5 -10q-77 0 -133.5 28t-87 83.5t-30.5 135.5q0 57 16.5 101.5t46 75.5
t70.5 47.5t89 16.5q61 0 107.5 -26t73 -72.5t26.5 -106.5q0 -22 -10 -31.5t-28 -11.5l-336 -47zM273 583l88 97q20 -1 31.5 -10.5t11.5 -23.5q0 -11 -7 -20t-18 -21l-63 -64q-10 -10 -20 -15t-24 -5q-9 0 -17.5 3t-16 9t-15.5 14l-85 93q0 10 4 18.5t11.5 14t17.5 5.5
q13 0 21.5 -5.5t19.5 -18.5z" />
    <glyph glyph-name="Gcircumflex" unicode="&#x11c;" horiz-adv-x="639" 
d="M570 70q0 -18 -10.5 -30.5t-31.5 -22.5q-25 -13 -69 -21.5t-89 -8.5q-93 0 -164.5 34t-111.5 104t-40 178q0 107 41.5 177.5t110.5 105.5t151 35q57 0 100 -12t67 -30t24 -37q0 -13 -8 -23.5t-19 -15.5q-27 18 -64 33.5t-95 15.5q-63 0 -114 -28t-80.5 -83.5
t-29.5 -137.5q0 -86 30.5 -140.5t83.5 -80.5t119 -26q36 0 68 6t50 15v184h-151q-3 5 -6 13.5t-3 18.5q0 17 8 26.5t23 9.5h167q18 0 30.5 -11.5t12.5 -30.5v-217zM345 751q-16 -17 -39.5 -41.5t-52.5 -50.5q-17 2 -28 10.5t-11 22.5q0 12 7.5 21t18.5 20l59 59q22 22 47 22
q16 0 27 -6.5t23 -19.5l82 -93q0 -15 -9.5 -24.5t-24.5 -9.5q-11 0 -21 6t-24 22z" />
    <glyph glyph-name="gcircumflex" unicode="&#x11d;" horiz-adv-x="537" 
d="M267 14q-58 0 -107 22.5t-79 73.5t-30 135q0 76 29.5 127t81.5 77t119 26q46 0 84.5 -11.5t64.5 -28.5q15 -10 24.5 -22.5t9.5 -30.5v-309h-80v308q-17 11 -42.5 19.5t-60.5 8.5q-67 0 -108 -41t-41 -122q0 -90 41.5 -128t102.5 -38q44 0 71 15t43 33l4 -71
q-15 -16 -47.5 -29.5t-79.5 -13.5zM384 90h80v-110q0 -66 -28.5 -106t-78 -58t-111.5 -18q-50 0 -86 11t-49 18q-30 17 -30 43q0 14 6.5 23.5t16.5 14.5q21 -16 59.5 -29.5t82.5 -13.5q67 0 102.5 29t35.5 91v105zM277 618q-23 -28 -45.5 -51.5t-42.5 -46.5q-18 2 -30 11
t-12 22q0 11 6.5 19.5t15.5 18.5l61 66q13 11 23.5 17t23.5 6q16 0 26.5 -6t20.5 -18l84 -100q0 -13 -7.5 -23.5t-23.5 -10.5q-12 0 -19.5 5.5t-15.5 13.5z" />
    <glyph glyph-name="Gbreve" unicode="&#x11e;" horiz-adv-x="639" 
d="M570 70q0 -18 -10.5 -30.5t-31.5 -22.5q-25 -13 -69 -21.5t-89 -8.5q-93 0 -164.5 34t-111.5 104t-40 178q0 107 41.5 177.5t110.5 105.5t151 35q57 0 100 -12t67 -30t24 -37q0 -13 -8 -23.5t-19 -15.5q-27 18 -64 33.5t-95 15.5q-63 0 -114 -28t-80.5 -83.5
t-29.5 -137.5q0 -86 30.5 -140.5t83.5 -80.5t119 -26q36 0 68 6t50 15v184h-151q-3 5 -6 13.5t-3 18.5q0 17 8 26.5t23 9.5h167q18 0 30.5 -11.5t12.5 -30.5v-217zM340 726q32 0 51.5 17t24.5 49q4 1 8 1.5t9 0.5q16 0 25.5 -9t9.5 -29q0 -31 -32 -59.5t-96 -28.5
q-66 0 -97 28.5t-31 59.5q0 20 9.5 29t25.5 9q5 0 9.5 -0.5t7.5 -1.5q5 -32 25 -49t51 -17z" />
    <glyph glyph-name="gbreve" unicode="&#x11f;" horiz-adv-x="537" 
d="M267 14q-58 0 -107 22.5t-79 73.5t-30 135q0 76 29.5 127t81.5 77t119 26q46 0 84.5 -11.5t64.5 -28.5q15 -10 24.5 -22.5t9.5 -30.5v-309h-80v308q-17 11 -42.5 19.5t-60.5 8.5q-67 0 -108 -41t-41 -122q0 -90 41.5 -128t102.5 -38q44 0 71 15t43 33l4 -71
q-15 -16 -47.5 -29.5t-79.5 -13.5zM384 90h80v-110q0 -66 -28.5 -106t-78 -58t-111.5 -18q-50 0 -86 11t-49 18q-30 17 -30 43q0 14 6.5 23.5t16.5 14.5q21 -16 59.5 -29.5t82.5 -13.5q67 0 102.5 29t35.5 91v105zM275 599q32 0 51.5 17t24.5 49q4 1 8 1.5t9 0.5
q16 0 25.5 -9t9.5 -29q0 -31 -32 -59.5t-96 -28.5q-66 0 -97 28.5t-31 59.5q0 20 9.5 29t25.5 9q5 0 9.5 -0.5t7.5 -1.5q5 -32 25 -49t51 -17z" />
    <glyph glyph-name="Gdotaccent" unicode="&#x120;" horiz-adv-x="639" 
d="M570 70q0 -18 -10.5 -30.5t-31.5 -22.5q-25 -13 -69 -21.5t-89 -8.5q-93 0 -164.5 34t-111.5 104t-40 178q0 107 41.5 177.5t110.5 105.5t151 35q57 0 100 -12t67 -30t24 -37q0 -13 -8 -23.5t-19 -15.5q-27 18 -64 33.5t-95 15.5q-63 0 -114 -28t-80.5 -83.5
t-29.5 -137.5q0 -86 30.5 -140.5t83.5 -80.5t119 -26q36 0 68 6t50 15v184h-151q-3 5 -6 13.5t-3 18.5q0 17 8 26.5t23 9.5h167q18 0 30.5 -11.5t12.5 -30.5v-217zM406 730q0 -22 -14 -35.5t-37 -13.5q-22 0 -36 13.5t-14 35.5q0 23 14 36.5t36 13.5q23 0 37 -13.5t14 -36.5
z" />
    <glyph glyph-name="gdotaccent" unicode="&#x121;" horiz-adv-x="537" 
d="M267 14q-58 0 -107 22.5t-79 73.5t-30 135q0 76 29.5 127t81.5 77t119 26q46 0 84.5 -11.5t64.5 -28.5q15 -10 24.5 -22.5t9.5 -30.5v-309h-80v308q-17 11 -42.5 19.5t-60.5 8.5q-67 0 -108 -41t-41 -122q0 -90 41.5 -128t102.5 -38q44 0 71 15t43 33l4 -71
q-15 -16 -47.5 -29.5t-79.5 -13.5zM384 90h80v-110q0 -66 -28.5 -106t-78 -58t-111.5 -18q-50 0 -86 11t-49 18q-30 17 -30 43q0 14 6.5 23.5t16.5 14.5q21 -16 59.5 -29.5t82.5 -13.5q67 0 102.5 29t35.5 91v105zM328 607q0 -22 -14 -35.5t-37 -13.5q-22 0 -36 13.5
t-14 35.5q0 23 14 36.5t36 13.5q23 0 37 -13.5t14 -36.5z" />
    <glyph glyph-name="uni0122" unicode="&#x122;" horiz-adv-x="639" 
d="M570 70q0 -18 -10.5 -30.5t-31.5 -22.5q-25 -13 -69 -21.5t-89 -8.5q-93 0 -164.5 34t-111.5 104t-40 178q0 107 41.5 177.5t110.5 105.5t151 35q57 0 100 -12t67 -30t24 -37q0 -13 -8 -23.5t-19 -15.5q-27 18 -64 33.5t-95 15.5q-63 0 -114 -28t-80.5 -83.5
t-29.5 -137.5q0 -86 30.5 -140.5t83.5 -80.5t119 -26q36 0 68 6t50 15v184h-151q-3 5 -6 13.5t-3 18.5q0 17 8 26.5t23 9.5h167q18 0 30.5 -11.5t12.5 -30.5v-217zM344 -201q-8 -10 -17.5 -14t-20.5 -4q-21 0 -31 13q14 35 26 72t15 65q9 4 17.5 5.5t18.5 1.5
q16 0 26.5 -7.5t10.5 -22.5q0 -16 -7 -37.5t-17.5 -40.5t-20.5 -31z" />
    <glyph glyph-name="uni0123" unicode="&#x123;" horiz-adv-x="537" 
d="M278 664q8 11 17.5 15.5t20.5 4.5q9 0 18.5 -4t14.5 -9q-16 -34 -27 -69.5t-15 -67.5q-7 -3 -16 -5t-18 -2q-16 0 -27 6.5t-11 18.5q0 18 6.5 39.5t16.5 41.5t20 31zM267 14q-58 0 -107 22.5t-79 73.5t-30 135q0 76 29.5 127t81.5 77t119 26q46 0 84.5 -11.5t64.5 -28.5
q15 -10 24.5 -22.5t9.5 -30.5v-309h-80v308q-17 11 -42.5 19.5t-60.5 8.5q-67 0 -108 -41t-41 -122q0 -90 41.5 -128t102.5 -38q44 0 71 15t43 33l4 -71q-15 -16 -47.5 -29.5t-79.5 -13.5zM384 90h80v-110q0 -66 -28.5 -106t-78 -58t-111.5 -18q-50 0 -86 11t-49 18
q-30 17 -30 43q0 14 6.5 23.5t16.5 14.5q21 -16 59.5 -29.5t82.5 -13.5q67 0 102.5 29t35.5 91v105z" />
    <glyph glyph-name="Hcircumflex" unicode="&#x124;" horiz-adv-x="645" 
d="M172 362v-360q-6 -2 -16 -4.5t-22 -2.5q-22 0 -33 9t-11 28v330h82zM90 295v311q5 2 15.5 4.5t22.5 2.5q22 0 33 -8.5t11 -28.5v-281h-82zM566 362v-360q-6 -2 -16 -4.5t-22 -2.5q-22 0 -33 9t-11 28v330h82zM484 295v311q5 2 15.5 4.5t22.5 2.5q22 0 33 -8.5t11 -28.5
v-281h-82zM139 274v68h388v-68h-388zM326 751q-16 -17 -39.5 -41.5t-52.5 -50.5q-17 2 -28 10.5t-11 22.5q0 12 7.5 21t18.5 20l59 59q22 22 47 22q16 0 27 -6.5t23 -19.5l82 -93q0 -15 -9.5 -24.5t-24.5 -9.5q-11 0 -21 6t-24 22z" />
    <glyph glyph-name="hcircumflex" unicode="&#x125;" horiz-adv-x="557" 
d="M375 199v92q0 60 -33.5 89t-86.5 29q-39 0 -72.5 -15t-56.5 -36l-15 65q24 17 63.5 34.5t91.5 17.5q83 0 136 -45t53 -137v-94h-80zM136 264v-262q-5 -2 -15 -4.5t-22 -2.5q-21 0 -32 8.5t-11 27.5v233h80zM455 262v-260q-5 -2 -15.5 -4.5t-21.5 -2.5q-22 0 -32.5 8.5
t-10.5 27.5v232zM56 225v423q5 2 15.5 4.5t22.5 2.5q21 0 31.5 -8.5t10.5 -27.5v-394h-80zM94 756q-16 -17 -39.5 -41.5t-52.5 -50.5q-17 2 -28 10.5t-11 22.5q0 12 7.5 21t18.5 20l59 59q22 22 47 22q16 0 27 -6.5t23 -19.5l82 -93q0 -15 -9.5 -24.5t-24.5 -9.5
q-11 0 -21 6t-24 22z" />
    <glyph glyph-name="Hbar" unicode="&#x126;" horiz-adv-x="654" 
d="M33 435q-3 5 -6 12.5t-3 17.5q0 32 29 32h569q2 -4 5 -12t3 -18q0 -18 -7.5 -25t-21.5 -7h-568zM175 362v-360q-6 -2 -16 -4.5t-22 -2.5q-22 0 -33 9t-11 28v330h82zM93 295v311q5 2 15.5 4.5t22.5 2.5q22 0 33 -8.5t11 -28.5v-281h-82zM569 362v-360q-6 -2 -16 -4.5
t-22 -2.5q-22 0 -33 9t-11 28v330h82zM487 295v311q5 2 15.5 4.5t22.5 2.5q22 0 33 -8.5t11 -28.5v-281h-82zM142 274v68h388v-68h-388z" />
    <glyph glyph-name="hbar" unicode="&#x127;" horiz-adv-x="558" 
d="M262 587q4 -5 6.5 -12t2.5 -17q0 -31 -28 -31h-230q-2 5 -5 12t-3 17q0 31 27 31h230zM396 199v92q0 60 -33.5 89t-86.5 29q-39 0 -72.5 -15t-56.5 -36l-15 65q24 17 63.5 34.5t91.5 17.5q83 0 136 -45t53 -137v-94h-80zM157 264v-262q-5 -2 -15 -4.5t-22 -2.5
q-21 0 -32 8.5t-11 27.5v233h80zM476 262v-260q-5 -2 -15.5 -4.5t-21.5 -2.5q-22 0 -32.5 8.5t-10.5 27.5v232zM77 225v424q5 2 15.5 4.5t22.5 2.5q21 0 31.5 -8.5t10.5 -27.5v-395h-80z" />
    <glyph glyph-name="Itilde" unicode="&#x128;" horiz-adv-x="262" 
d="M171 363v-361q-5 -2 -15 -4.5t-22 -2.5q-22 0 -33 9t-11 28v331h81zM90 296v310q5 2 15.5 4.5t22.5 2.5q22 0 32.5 -8.5t10.5 -28.5v-280h-81zM59 786q28 0 50.5 -8.5t42 -17t36.5 -8.5q18 0 26.5 11t12.5 27h6q18 0 32 -8.5t14 -29.5q0 -28 -20 -45t-53 -17q-28 0 -52 9
t-44 17.5t-36 8.5q-18 0 -26 -11t-12 -28h-6q-18 0 -32 9t-14 29t10.5 33.5t28 21t36.5 7.5z" />
    <glyph glyph-name="itilde" unicode="&#x129;" horiz-adv-x="241" 
d="M160 343v-345l-14 -3.5t-21 -2.5q-22 0 -33.5 9.5t-11.5 27.5v314h80zM80 292v167q5 2 15 4t21 2q22 0 33 -9.5t11 -27.5v-136h-80zM51 651q28 0 50.5 -8.5t42 -17t36.5 -8.5q18 0 26.5 11t12.5 27h6q18 0 32 -8.5t14 -29.5q0 -28 -20 -45t-53 -17q-28 0 -52 9t-44 17.5
t-36 8.5q-18 0 -26 -11t-12 -28h-6q-18 0 -32 9t-14 29t10.5 33.5t28 21t36.5 7.5z" />
    <glyph glyph-name="Imacron" unicode="&#x12a;" horiz-adv-x="262" 
d="M171 363v-361q-5 -2 -15 -4.5t-22 -2.5q-22 0 -33 9t-11 28v331h81zM90 296v310q5 2 15.5 4.5t22.5 2.5q22 0 32.5 -8.5t10.5 -28.5v-280h-81zM2 690q-4 6 -7.5 14t-3.5 18q0 17 9 25t23 8h228q4 -6 7 -14.5t3 -17.5q0 -17 -8.5 -25t-23.5 -8h-227z" />
    <glyph glyph-name="imacron" unicode="&#x12b;" horiz-adv-x="241" 
d="M160 343v-345l-14 -3.5t-21 -2.5q-22 0 -33.5 9.5t-11.5 27.5v314h80zM80 292v167q5 2 15 4t21 2q22 0 33 -9.5t11 -27.5v-136h-80zM-8 570q-4 6 -7.5 14t-3.5 18q0 17 9 25t23 8h228q4 -6 7 -14.5t3 -17.5q0 -17 -8.5 -25t-23.5 -8h-227z" />
    <glyph glyph-name="Iogonek" unicode="&#x12e;" horiz-adv-x="262" 
d="M171 2q-35 -27 -35 -68q0 -30 17.5 -46t46.5 -16h24q6 -10 6 -25q0 -16 -12 -27t-42 -11q-51 0 -82 30.5t-31 76.5q0 30 13 53.5t38 39.5zM171 363v-361q-5 -2 -15 -4.5t-22 -2.5q-22 0 -33 9t-11 28v331h81zM90 296v310q5 2 15.5 4.5t22.5 2.5q22 0 32.5 -8.5
t10.5 -28.5v-280h-81z" />
    <glyph glyph-name="iogonek" unicode="&#x12f;" horiz-adv-x="241" 
d="M160 2q-19 -13 -33.5 -31t-14.5 -44q0 -27 17 -40t46 -13h15q3 -6 4.5 -12t1.5 -11q0 -16 -11 -26t-38 -10q-43 0 -75 25.5t-32 70.5q0 30 12 50.5t29 34.5t31 21zM68 608q0 21 15 35.5t37 14.5q23 0 37 -14.5t14 -35.5t-14 -35.5t-37 -14.5q-22 0 -37 14.5t-15 35.5z
M160 264v-262q-5 -2 -15 -4.5t-22 -2.5q-21 0 -32 8.5t-11 27.5v233h80zM80 225v235q5 2 15.5 4.5t22.5 2.5q21 0 31.5 -8.5t10.5 -28.5v-205h-80z" />
    <glyph glyph-name="Idotaccent" unicode="&#x130;" horiz-adv-x="262" 
d="M171 363v-361q-5 -2 -15 -4.5t-22 -2.5q-22 0 -33 9t-11 28v331h81zM90 296v310q5 2 15.5 4.5t22.5 2.5q22 0 32.5 -8.5t10.5 -28.5v-280h-81zM180 730q0 -22 -14 -35.5t-37 -13.5q-22 0 -36 13.5t-14 35.5q0 23 14 36.5t36 13.5q23 0 37 -13.5t14 -36.5z" />
    <glyph glyph-name="dotlessi" unicode="&#x131;" horiz-adv-x="241" 
d="M160 343v-342l-14 -3.5t-21 -2.5q-22 0 -33.5 9.5t-11.5 26.5v312h80zM80 292v169q5 2 15 4t21 2q22 0 33 -9.5t11 -27.5v-138h-80z" />
    <glyph glyph-name="Jcircumflex" unicode="&#x134;" horiz-adv-x="372" 
d="M287 289v-141q0 -60 -22.5 -95t-59.5 -49.5t-80 -14.5q-56 0 -82.5 13.5t-26.5 35.5q0 14 6 24t11 15q15 -7 36.5 -13t43.5 -6q45 0 69 22t24 72v137h81zM206 265v341q5 2 15.5 4.5t21.5 2.5q22 0 33 -8.5t11 -28.5v-311h-81zM241 751q-16 -17 -39.5 -41.5t-52.5 -50.5
q-17 2 -28 10.5t-11 22.5q0 12 7.5 21t18.5 20l59 59q22 22 47 22q16 0 27 -6.5t23 -19.5l82 -93q0 -15 -9.5 -24.5t-24.5 -9.5q-11 0 -21 6t-24 22z" />
    <glyph glyph-name="jcircumflex" unicode="&#x135;" horiz-adv-x="238" 
d="M33 -132q26 13 36 32t10 56v361h81v-370q0 -70 -29 -103q-16 -19 -34 -27t-35 -8q-22 0 -35.5 12t-13.5 38zM79 292v167q5 2 15 4t21 2q22 0 33.5 -9.5t11.5 -27.5v-136h-81zM116 618q-23 -28 -45.5 -51.5t-42.5 -46.5q-18 2 -30 11t-12 22q0 11 6.5 19.5t15.5 18.5
l61 66q13 11 23.5 17t23.5 6q16 0 26.5 -6t20.5 -18l84 -100q0 -13 -7.5 -23.5t-23.5 -10.5q-12 0 -19.5 5.5t-15.5 13.5z" />
    <glyph glyph-name="uni0136" unicode="&#x136;" horiz-adv-x="557" 
d="M206 350q106 -102 182.5 -182t129.5 -128q-1 -22 -13 -34.5t-30 -12.5q-17 0 -30.5 10t-27.5 23l-274 284zM136 300l301 312q26 -1 39 -13t13 -28q0 -13 -6.5 -24.5t-20.5 -23.5l-245 -241zM162 367v-366q-6 -2 -16 -4.5t-22 -2.5q-22 0 -33 9t-11 28v336h82zM80 300v306
q5 2 15.5 4.5t22.5 2.5q22 0 33 -8.5t11 -28.5v-276h-82zM280 -201q-8 -10 -17.5 -14t-20.5 -4q-21 0 -31 13q14 35 26 72t15 65q9 4 17.5 5.5t18.5 1.5q16 0 26.5 -7.5t10.5 -22.5q0 -16 -7 -37.5t-17.5 -40.5t-20.5 -31z" />
    <glyph glyph-name="uni0137" unicode="&#x137;" horiz-adv-x="487" 
d="M148 250l228 221q24 -1 37.5 -11.5t13.5 -27.5q0 -14 -8.5 -25t-24.5 -24l-196 -172zM202 270l254 -228q-2 -22 -13.5 -35t-30.5 -13q-15 0 -27.5 8t-25.5 21l-213 214zM157 256v-254q-5 -2 -15 -4.5t-22 -2.5q-21 0 -32 8.5t-11 27.5v237zM77 229v419q5 2 15.5 4.5
t22.5 2.5q21 0 31.5 -8.5t10.5 -27.5v-402zM262 -201q-8 -10 -17.5 -14t-20.5 -4q-21 0 -31 13q14 35 26 72t15 65q9 4 17.5 5.5t18.5 1.5q16 0 26.5 -7.5t10.5 -22.5q0 -16 -7 -37.5t-17.5 -40.5t-20.5 -31z" />
    <glyph glyph-name="kgreenlandic" unicode="&#x138;" horiz-adv-x="487" 
d="M77 280v181q5 2 15 4t21 2q22 0 33 -9.5t11 -27.5v-150h-80zM148 249l237 222q25 -1 38.5 -12t13.5 -28q0 -13 -10 -24t-25 -24l-207 -177zM197 272l259 -230q-2 -22 -13.5 -35t-30.5 -13q-15 0 -27.5 8t-25.5 21l-213 212zM157 306v-304q-5 -2 -15 -4.5t-22 -2.5
q-21 0 -32 8.5t-11 27.5v275h80z" />
    <glyph glyph-name="Lacute" unicode="&#x139;" horiz-adv-x="501" 
d="M171 355v-347l-38 -8q-19 0 -31.5 12.5t-12.5 31.5v311h82zM133 70h325q5 -4 8 -13t3 -20q0 -17 -9 -27t-24 -10h-303v70zM89 295v311q5 2 15.5 4.5t22.5 2.5q22 0 33 -8.5t11 -28.5v-281h-82zM210 820q22 -1 33.5 -11.5t11.5 -24.5t-5.5 -23t-19.5 -21l-85 -76
q-19 2 -29.5 10t-10.5 20q0 10 4 17t10 13z" />
    <glyph glyph-name="lacute" unicode="&#x13a;" horiz-adv-x="246" 
d="M197 851q22 -1 33.5 -11.5t11.5 -24.5t-5.5 -23t-19.5 -21l-85 -76q-19 2 -29.5 10t-10.5 20q0 10 4 17t10 13zM163 252v-250q-5 -2 -15 -4.5t-22 -2.5q-21 0 -32 8.5t-11 27.5v233zM83 225v423q5 2 15.5 4.5t21.5 2.5q22 0 32.5 -8.5t10.5 -27.5v-405z" />
    <glyph glyph-name="uni013B" unicode="&#x13b;" horiz-adv-x="501" 
d="M171 355v-347l-38 -8q-19 0 -31.5 12.5t-12.5 31.5v311h82zM133 70h325q5 -4 8 -13t3 -20q0 -17 -9 -27t-24 -10h-303v70zM89 295v311q5 2 15.5 4.5t22.5 2.5q22 0 33 -8.5t11 -28.5v-281h-82zM271 -201q-8 -10 -17.5 -14t-20.5 -4q-21 0 -31 13q14 35 26 72t15 65
q9 4 17.5 5.5t18.5 1.5q16 0 26.5 -7.5t10.5 -22.5q0 -16 -7 -37.5t-17.5 -40.5t-20.5 -31z" />
    <glyph glyph-name="uni013C" unicode="&#x13c;" horiz-adv-x="246" 
d="M163 252v-250q-5 -2 -15 -4.5t-22 -2.5q-21 0 -32 8.5t-11 27.5v233zM83 225v423q5 2 15.5 4.5t21.5 2.5q22 0 32.5 -8.5t10.5 -27.5v-405zM115 -201q-8 -10 -17.5 -14t-20.5 -4q-21 0 -31 13q14 35 26 72t15 65q9 4 17.5 5.5t18.5 1.5q16 0 26.5 -7.5t10.5 -22.5
q0 -16 -7 -37.5t-17.5 -40.5t-20.5 -31z" />
    <glyph glyph-name="Lcaron" unicode="&#x13d;" horiz-adv-x="501" 
d="M171 355v-347l-38 -8q-19 0 -31.5 12.5t-12.5 31.5v311h82zM133 70h325q5 -4 8 -13t3 -20q0 -17 -9 -27t-24 -10h-303v70zM89 295v311q5 2 15.5 4.5t22.5 2.5q22 0 33 -8.5t11 -28.5v-281h-82zM347 474q-8 -10 -17.5 -14t-20.5 -4q-21 0 -31 13q14 35 26 72t15 65
q9 4 17.5 5.5t18.5 1.5q16 0 26.5 -7.5t10.5 -22.5q0 -16 -7 -37.5t-17.5 -40.5t-20.5 -31z" />
    <glyph glyph-name="lcaron" unicode="&#x13e;" horiz-adv-x="317" 
d="M163 252v-250q-5 -2 -15 -4.5t-22 -2.5q-21 0 -32 8.5t-11 27.5v233zM83 225v423q5 2 15.5 4.5t21.5 2.5q22 0 32.5 -8.5t10.5 -27.5v-405zM282 516q-8 -10 -17.5 -14t-20.5 -4q-21 0 -31 13q14 35 26 72t15 65q9 4 17.5 5.5t18.5 1.5q16 0 26.5 -7.5t10.5 -22.5
q0 -16 -7 -37.5t-17.5 -40.5t-20.5 -31z" />
    <glyph glyph-name="Ldot" unicode="&#x13f;" horiz-adv-x="501" 
d="M171 355v-347l-38 -8q-19 0 -31.5 12.5t-12.5 31.5v311h82zM133 70h325q5 -4 8 -13t3 -20q0 -17 -9 -27t-24 -10h-303v70zM89 295v311q5 2 15.5 4.5t22.5 2.5q22 0 33 -8.5t11 -28.5v-281h-82zM317 320q0 24 14.5 40t40.5 16t40 -16t14 -40q0 -23 -14 -39t-40 -16
t-40.5 16t-14.5 39z" />
    <glyph glyph-name="ldot" unicode="&#x140;" horiz-adv-x="316" 
d="M163 252v-250q-5 -2 -15 -4.5t-22 -2.5q-21 0 -32 8.5t-11 27.5v233zM83 225v423q5 2 15.5 4.5t21.5 2.5q22 0 32.5 -8.5t10.5 -27.5v-405zM227 302q0 24 14.5 40t40.5 16t40 -16t14 -40q0 -23 -14 -39t-40 -16t-40.5 16t-14.5 39z" />
    <glyph glyph-name="Lslash" unicode="&#x141;" horiz-adv-x="521" 
d="M37 223q-9 7 -18 18t-9 26q0 20 21 29l319 127q9 -6 18 -17.5t9 -25.5q0 -10 -5.5 -17.5t-15.5 -11.5zM201 355v-347l-38 -8q-19 0 -31.5 12.5t-12.5 31.5v311h82zM163 70h325q5 -4 8 -13t3 -20q0 -17 -9 -27t-24 -10h-303v70zM119 295v311q5 2 15.5 4.5t22.5 2.5
q22 0 33 -8.5t11 -28.5v-281h-82z" />
    <glyph glyph-name="lslash" unicode="&#x142;" horiz-adv-x="325" 
d="M37 239q-9 6 -18 17.5t-9 26.5q0 21 21 28l258 105q9 -6 17.5 -17.5t8.5 -26.5q0 -10 -5 -17t-15 -11zM202 252v-250q-5 -2 -15 -4.5t-22 -2.5q-21 0 -32 8.5t-11 27.5v233zM122 225v423q5 2 15.5 4.5t21.5 2.5q22 0 32.5 -8.5t10.5 -27.5v-405z" />
    <glyph glyph-name="Nacute" unicode="&#x143;" horiz-adv-x="651" 
d="M155 545q4 -31 7 -73t4.5 -86.5t1.5 -84.5v-299q-5 -2 -15.5 -4.5t-21.5 -2.5q-22 0 -33 8.5t-11 27.5v508zM500 63q-10 84 -11.5 171.5t-1.5 169.5v202q6 2 16 4.5t22 2.5q22 0 33 -8.5t11 -27.5v-508zM569 103v-92q-9 -7 -23 -12t-31 -5q-24 0 -41 9.5t-31 34.5
l-190 320q-15 27 -33 59.5t-34 62t-25 48.5l-74 -19v87q8 8 22.5 13t31.5 5q24 0 41 -9.5t31 -34.5l191 -320q16 -27 33.5 -59.5t32.5 -62t24 -48.5l75 19v4zM412 820q22 -1 33.5 -11.5t11.5 -24.5t-5.5 -23t-19.5 -21l-85 -76q-19 2 -29.5 10t-10.5 20q0 10 4 17t10 13z
" />
    <glyph glyph-name="nacute" unicode="&#x144;" horiz-adv-x="550" 
d="M475 203h-80v98q0 56 -31.5 82t-84.5 26q-40 0 -71 -10t-53 -23v-173h-80v169q0 21 8.5 34.5t29.5 26.5q26 15 69 28.5t97 13.5q91 0 143.5 -41.5t52.5 -128.5v-102zM155 258v-256q-5 -2 -15 -4.5t-22 -2.5q-21 0 -32 8.5t-11 27.5v227h80zM475 258v-256
q-5 -2 -15.5 -4.5t-21.5 -2.5q-22 0 -32.5 8.5t-10.5 27.5v227h80zM359 687q22 -1 35.5 -12.5t13.5 -25.5q0 -13 -6 -22t-20 -22l-91 -89q-19 0 -31.5 10.5t-12.5 23.5q0 9 5 15.5t10 12.5z" />
    <glyph glyph-name="uni0145" unicode="&#x145;" horiz-adv-x="651" 
d="M155 545q4 -31 7 -73t4.5 -86.5t1.5 -84.5v-299q-5 -2 -15.5 -4.5t-21.5 -2.5q-22 0 -33 8.5t-11 27.5v508zM500 63q-10 84 -11.5 171.5t-1.5 169.5v202q6 2 16 4.5t22 2.5q22 0 33 -8.5t11 -27.5v-508zM569 103v-92q-9 -7 -23 -12t-31 -5q-24 0 -41 9.5t-31 34.5
l-190 320q-15 27 -33 59.5t-34 62t-25 48.5l-74 -19v87q8 8 22.5 13t31.5 5q24 0 41 -9.5t31 -34.5l191 -320q16 -27 33.5 -59.5t32.5 -62t24 -48.5l75 19v4zM334 -201q-8 -10 -17.5 -14t-20.5 -4q-21 0 -31 13q14 35 26 72t15 65q9 4 17.5 5.5t18.5 1.5q16 0 26.5 -7.5
t10.5 -22.5q0 -16 -7 -37.5t-17.5 -40.5t-20.5 -31z" />
    <glyph glyph-name="uni0146" unicode="&#x146;" horiz-adv-x="550" 
d="M475 203h-80v98q0 56 -31.5 82t-84.5 26q-40 0 -71 -10t-53 -23v-173h-80v169q0 21 8.5 34.5t29.5 26.5q26 15 69 28.5t97 13.5q91 0 143.5 -41.5t52.5 -128.5v-102zM155 258v-256q-5 -2 -15 -4.5t-22 -2.5q-21 0 -32 8.5t-11 27.5v227h80zM475 258v-256
q-5 -2 -15.5 -4.5t-21.5 -2.5q-22 0 -32.5 8.5t-10.5 27.5v227h80zM272 -201q-8 -10 -17.5 -14t-20.5 -4q-21 0 -31 13q14 35 26 72t15 65q9 4 17.5 5.5t18.5 1.5q16 0 26.5 -7.5t10.5 -22.5q0 -16 -7 -37.5t-17.5 -40.5t-20.5 -31z" />
    <glyph glyph-name="Ncaron" unicode="&#x147;" horiz-adv-x="651" 
d="M155 545q4 -31 7 -73t4.5 -86.5t1.5 -84.5v-299q-5 -2 -15.5 -4.5t-21.5 -2.5q-22 0 -33 8.5t-11 27.5v508zM500 63q-10 84 -11.5 171.5t-1.5 169.5v202q6 2 16 4.5t22 2.5q22 0 33 -8.5t11 -27.5v-508zM569 103v-92q-9 -7 -23 -12t-31 -5q-24 0 -41 9.5t-31 34.5
l-190 320q-15 27 -33 59.5t-34 62t-25 48.5l-74 -19v87q8 8 22.5 13t31.5 5q24 0 41 -9.5t31 -34.5l191 -320q16 -27 33.5 -59.5t32.5 -62t24 -48.5l75 19v4zM335 721q17 18 40 42t48 51q18 -1 31 -10t13 -23q0 -12 -7.5 -21t-18.5 -20l-60 -60q-11 -10 -21.5 -15t-24.5 -5
q-15 0 -26.5 6t-22.5 19l-83 88q0 19 9 29t24 10q11 0 21.5 -6t23.5 -22z" />
    <glyph glyph-name="ncaron" unicode="&#x148;" horiz-adv-x="550" 
d="M475 203h-80v98q0 56 -31.5 82t-84.5 26q-40 0 -71 -10t-53 -23v-173h-80v169q0 21 8.5 34.5t29.5 26.5q26 15 69 28.5t97 13.5q91 0 143.5 -41.5t52.5 -128.5v-102zM155 258v-256q-5 -2 -15 -4.5t-22 -2.5q-21 0 -32 8.5t-11 27.5v227h80zM475 258v-256
q-5 -2 -15.5 -4.5t-21.5 -2.5q-22 0 -32.5 8.5t-10.5 27.5v227h80zM269 583l88 97q20 -1 31.5 -10.5t11.5 -23.5q0 -11 -7 -20t-18 -21l-63 -64q-10 -10 -20 -15t-24 -5q-9 0 -17.5 3t-16 9t-15.5 14l-85 93q0 10 4 18.5t11.5 14t17.5 5.5q13 0 21.5 -5.5t19.5 -18.5z" />
    <glyph glyph-name="napostrophe" unicode="&#x149;" horiz-adv-x="627" 
d="M552 203h-80v98q0 56 -31.5 82t-84.5 26q-40 0 -71 -10t-53 -23v-173h-80v169q0 21 8.5 34.5t29.5 26.5q26 15 69 28.5t97 13.5q91 0 143.5 -41.5t52.5 -128.5v-102zM232 258v-256q-5 -2 -15 -4.5t-22 -2.5q-21 0 -32 8.5t-11 27.5v227h80zM552 258v-256
q-5 -2 -15.5 -4.5t-21.5 -2.5q-22 0 -32.5 8.5t-10.5 27.5v227h80zM79 437q-7 -14 -15 -20.5t-22 -6.5q-9 0 -17.5 3.5t-14.5 7.5q5 25 10.5 60t10 71.5t6.5 66.5q9 3 18 4.5t20 1.5q17 0 27.5 -9.5t10.5 -29.5q0 -19 -6 -49t-14 -57.5t-14 -42.5z" />
    <glyph glyph-name="Omacron" unicode="&#x14c;" horiz-adv-x="689" 
d="M634 304q0 -104 -38 -174.5t-103.5 -106.5t-148.5 -36q-82 0 -148 36t-104 106.5t-38 174.5t39 174.5t104.5 106.5t146.5 36q82 0 147.5 -36t104 -106.5t38.5 -174.5zM551 304q0 119 -56.5 183.5t-150.5 64.5q-93 0 -149.5 -64.5t-56.5 -183.5t56 -183.5t150 -64.5
q95 0 151 64.5t56 183.5zM215 690q-4 6 -7.5 14t-3.5 18q0 17 9 25t23 8h228q4 -6 7 -14.5t3 -17.5q0 -17 -8.5 -25t-23.5 -8h-227z" />
    <glyph glyph-name="omacron" unicode="&#x14d;" horiz-adv-x="553" 
d="M504 231q0 -74 -28 -129t-79 -85t-120 -30t-120.5 30t-79.5 85t-28 129q0 75 28.5 129.5t80 84.5t119.5 30t119 -30t79.5 -84.5t28.5 -129.5zM277 409q-67 0 -106.5 -47.5t-39.5 -130.5q0 -84 38.5 -131t107.5 -47q68 0 106.5 47.5t38.5 130.5t-38.5 130.5t-106.5 47.5z
M154 570q-4 6 -7.5 14t-3.5 18q0 17 9 25t23 8h228q4 -6 7 -14.5t3 -17.5q0 -17 -8.5 -25t-23.5 -8h-227z" />
    <glyph glyph-name="Ohungarumlaut" unicode="&#x150;" horiz-adv-x="689" 
d="M634 304q0 -104 -38 -174.5t-103.5 -106.5t-148.5 -36q-82 0 -148 36t-104 106.5t-38 174.5t39 174.5t104.5 106.5t146.5 36q82 0 147.5 -36t104 -106.5t38.5 -174.5zM551 304q0 119 -56.5 183.5t-150.5 64.5q-93 0 -149.5 -64.5t-56.5 -183.5t56 -183.5t150 -64.5
q95 0 151 64.5t56 183.5zM305 818q22 -1 35 -11t13 -24t-6.5 -23.5t-18.5 -23.5l-60 -72q-19 0 -31 9.5t-12 22.5q0 9 4 16l8 14zM474 818q22 -1 35 -11t13 -24t-7 -23.5t-18 -23.5l-60 -72q-19 0 -31 9.5t-12 22.5q0 9 4 16l8 14z" />
    <glyph glyph-name="ohungarumlaut" unicode="&#x151;" horiz-adv-x="553" 
d="M504 231q0 -74 -28 -129t-79 -85t-120 -30t-120.5 30t-79.5 85t-28 129q0 75 28.5 129.5t80 84.5t119.5 30t119 -30t79.5 -84.5t28.5 -129.5zM277 409q-67 0 -106.5 -47.5t-39.5 -130.5q0 -84 38.5 -131t107.5 -47q68 0 106.5 47.5t38.5 130.5t-38.5 130.5t-106.5 47.5z
M249 687q22 -1 35 -11t13 -24q0 -13 -6.5 -23t-18.5 -24l-71 -89q-19 0 -31.5 9.5t-12.5 22.5q0 9 4 16t9 14zM417 687q22 -1 35 -11t13 -24q0 -13 -6.5 -23t-18.5 -24l-71 -89q-19 0 -31 9.5t-12 22.5q0 9 3.5 16t8.5 14z" />
    <glyph glyph-name="OE" unicode="&#x152;" horiz-adv-x="953" 
d="M593 366v-358q-5 -1 -15.5 -4.5t-21.5 -3.5q-21 0 -32.5 12.5t-11.5 31.5l-1 43v279h82zM511 249v275l1 40q0 20 11.5 32t32.5 12q11 0 21.5 -3t15.5 -5v-352zM555 346h301q3 -4 6.5 -13t3.5 -19q0 -16 -8.5 -26t-22.5 -10h-280v68zM556 68h336q3 -4 6 -12.5t3 -19.5
q0 -16 -8 -26t-23 -10h-314v68zM556 608h331q3 -4 6 -13t3 -19q0 -16 -8 -26.5t-23 -10.5h-309v69zM583 304q0 -113 -32.5 -183t-89 -102t-129.5 -32q-79 0 -142 35.5t-100 106t-37 175.5q0 104 37.5 174.5t101 106.5t141.5 36q50 0 94.5 -15.5t80 -51.5t55.5 -97t20 -153z
M540 304q0 124 -58 186t-148 62q-87 0 -142 -64.5t-55 -183.5t54.5 -183.5t142.5 -64.5q98 0 152 64.5t54 183.5z" />
    <glyph glyph-name="oe" unicode="&#x153;" horiz-adv-x="887" 
d="M493 231q0 -76 -27 -130.5t-76 -84t-116 -29.5q-69 0 -119.5 30t-78 85t-27.5 129q0 75 28 129.5t78.5 84.5t118.5 30q66 0 115 -28.5t76.5 -83t27.5 -132.5zM277 409q-67 0 -106.5 -47.5t-39.5 -130.5q0 -84 38.5 -131t107.5 -47q68 0 106.5 47.5t38.5 130.5
t-38.5 130.5t-106.5 47.5zM468 243l303 41q-5 55 -38.5 90.5t-93.5 35.5q-63 0 -103.5 -44.5t-40.5 -127.5l1 -22q6 -80 51.5 -121.5t124.5 -41.5q42 0 76 14t54 30q11 -7 18 -16.5t7 -21.5q0 -19 -21.5 -35.5t-57.5 -26.5t-80 -10q-109 0 -174.5 60t-65.5 187q0 77 27 131
t75 82t110 28q60 0 107 -26t73.5 -72.5t26.5 -106.5q0 -22 -10.5 -31.5t-28.5 -11.5l-336 -47z" />
    <glyph glyph-name="Racute" unicode="&#x154;" horiz-adv-x="589" 
d="M285 298q74 0 116 32t42 95q0 62 -44 94t-126 32q-27 0 -54.5 -2.5t-48.5 -6.5v-244h115zM89 230v334q0 16 8.5 24.5t24.5 13.5q29 9 71.5 13t82.5 4q125 0 187 -51t62 -143q0 -59 -27 -103t-80 -68t-133 -24h-196zM347 286q28 -35 58 -73t58 -74t50 -64.5t34 -44.5
q-4 -17 -17.5 -27t-27.5 -10q-17 0 -28 8.5t-23 24.5l-164 230zM171 252v-250q-6 -2 -16 -4.5t-22 -2.5q-22 0 -33 9t-11 28v220h82zM369 820q22 -1 33.5 -11.5t11.5 -24.5t-5.5 -23t-19.5 -21l-85 -76q-19 2 -29.5 10t-10.5 20q0 10 4 17t10 13z" />
    <glyph glyph-name="racute" unicode="&#x155;" horiz-adv-x="382" 
d="M155 218h-80v152q0 23 8.5 36.5t28.5 26.5q26 17 71 29.5t100 12.5q80 0 80 -40q0 -10 -3 -18.5t-8 -14.5q-10 2 -26 4t-32 2q-46 0 -81 -9.5t-58 -22.5v-158zM155 252v-250q-5 -2 -15 -4.5t-22 -2.5q-21 0 -32 8.5t-11 27.5v233zM288 687q22 -1 35.5 -12.5t13.5 -25.5
q0 -13 -6 -22t-20 -22l-91 -89q-19 0 -31.5 10.5t-12.5 23.5q0 9 5 15.5t10 12.5z" />
    <glyph glyph-name="uni0156" unicode="&#x156;" horiz-adv-x="589" 
d="M285 298q74 0 116 32t42 95q0 62 -44 94t-126 32q-27 0 -54.5 -2.5t-48.5 -6.5v-244h115zM89 230v334q0 16 8.5 24.5t24.5 13.5q29 9 71.5 13t82.5 4q125 0 187 -51t62 -143q0 -59 -27 -103t-80 -68t-133 -24h-196zM347 286q28 -35 58 -73t58 -74t50 -64.5t34 -44.5
q-4 -17 -17.5 -27t-27.5 -10q-17 0 -28 8.5t-23 24.5l-164 230zM171 252v-250q-6 -2 -16 -4.5t-22 -2.5q-22 0 -33 9t-11 28v220h82zM301 -201q-8 -10 -17.5 -14t-20.5 -4q-21 0 -31 13q14 35 26 72t15 65q9 4 17.5 5.5t18.5 1.5q16 0 26.5 -7.5t10.5 -22.5q0 -16 -7 -37.5
t-17.5 -40.5t-20.5 -31z" />
    <glyph glyph-name="uni0157" unicode="&#x157;" horiz-adv-x="382" 
d="M155 218h-80v152q0 23 8.5 36.5t28.5 26.5q26 17 71 29.5t100 12.5q80 0 80 -40q0 -10 -3 -18.5t-8 -14.5q-10 2 -26 4t-32 2q-46 0 -81 -9.5t-58 -22.5v-158zM155 252v-250q-5 -2 -15 -4.5t-22 -2.5q-21 0 -32 8.5t-11 27.5v233zM109 -201q-8 -10 -17.5 -14t-20.5 -4
q-21 0 -31 13q14 35 26 72t15 65q9 4 17.5 5.5t18.5 1.5q16 0 26.5 -7.5t10.5 -22.5q0 -16 -7 -37.5t-17.5 -40.5t-20.5 -31z" />
    <glyph glyph-name="Rcaron" unicode="&#x158;" horiz-adv-x="589" 
d="M285 298q74 0 116 32t42 95q0 62 -44 94t-126 32q-27 0 -54.5 -2.5t-48.5 -6.5v-244h115zM89 230v334q0 16 8.5 24.5t24.5 13.5q29 9 71.5 13t82.5 4q125 0 187 -51t62 -143q0 -59 -27 -103t-80 -68t-133 -24h-196zM347 286q28 -35 58 -73t58 -74t50 -64.5t34 -44.5
q-4 -17 -17.5 -27t-27.5 -10q-17 0 -28 8.5t-23 24.5l-164 230zM171 252v-250q-6 -2 -16 -4.5t-22 -2.5q-22 0 -33 9t-11 28v220h82zM296 721q17 18 40 42t48 51q18 -1 31 -10t13 -23q0 -12 -7.5 -21t-18.5 -20l-60 -60q-11 -10 -21.5 -15t-24.5 -5q-15 0 -26.5 6t-22.5 19
l-83 88q0 19 9 29t24 10q11 0 21.5 -6t23.5 -22z" />
    <glyph glyph-name="rcaron" unicode="&#x159;" horiz-adv-x="382" 
d="M155 218h-80v152q0 23 8.5 36.5t28.5 26.5q26 17 71 29.5t100 12.5q80 0 80 -40q0 -10 -3 -18.5t-8 -14.5q-10 2 -26 4t-32 2q-46 0 -81 -9.5t-58 -22.5v-158zM155 252v-250q-5 -2 -15 -4.5t-22 -2.5q-21 0 -32 8.5t-11 27.5v233zM218 583l88 97q20 -1 31.5 -10.5
t11.5 -23.5q0 -11 -7 -20t-18 -21l-63 -64q-10 -10 -20 -15t-24 -5q-9 0 -17.5 3t-16 9t-15.5 14l-85 93q0 10 4 18.5t11.5 14t17.5 5.5q13 0 21.5 -5.5t19.5 -18.5z" />
    <glyph glyph-name="Sacute" unicode="&#x15a;" horiz-adv-x="523" 
d="M257 55q67 0 101.5 30.5t34.5 78.5q0 41 -26.5 68t-83.5 43l-87 26q-42 13 -73 33.5t-47.5 51t-16.5 71.5q0 77 56 120.5t149 43.5q54 0 96.5 -11.5t67 -29.5t24.5 -38q0 -13 -7 -23.5t-18 -16.5q-25 20 -67.5 35t-92.5 15q-58 0 -92 -25.5t-34 -69.5q0 -35 24.5 -57
t79.5 -38l61 -18q79 -22 124.5 -64t45.5 -116q0 -79 -57.5 -128t-161.5 -49q-61 0 -106.5 13.5t-71 34t-25.5 40.5q0 17 10.5 28.5t24.5 16.5q23 -22 65 -43.5t103 -21.5zM329 820q22 -1 33.5 -11.5t11.5 -24.5t-5.5 -23t-19.5 -21l-85 -76q-19 2 -29.5 10t-10.5 20
q0 10 4 17t10 13z" />
    <glyph glyph-name="sacute" unicode="&#x15b;" horiz-adv-x="447" 
d="M401 123q0 -64 -47 -100t-136 -36q-76 0 -124 23.5t-48 51.5q0 12 6.5 23.5t19.5 18.5q27 -19 63 -35t82 -16q104 0 104 70q0 29 -17.5 47.5t-51.5 26.5l-83 22q-61 15 -89 46.5t-28 78.5q0 53 43 92t131 39q47 0 82 -9.5t54.5 -25t19.5 -33.5q0 -13 -6.5 -23t-17.5 -15
q-12 8 -30.5 17.5t-43.5 16t-55 6.5q-44 0 -71 -17t-27 -48q0 -22 15.5 -38.5t49.5 -24.5l69 -17q68 -16 102 -50.5t34 -90.5zM297 687q22 -1 35.5 -12.5t13.5 -25.5q0 -13 -6 -22t-20 -22l-91 -89q-19 0 -31.5 10.5t-12.5 23.5q0 9 5 15.5t10 12.5z" />
    <glyph glyph-name="Scircumflex" unicode="&#x15c;" horiz-adv-x="523" 
d="M257 55q67 0 101.5 30.5t34.5 78.5q0 41 -26.5 68t-83.5 43l-87 26q-42 13 -73 33.5t-47.5 51t-16.5 71.5q0 77 56 120.5t149 43.5q54 0 96.5 -11.5t67 -29.5t24.5 -38q0 -13 -7 -23.5t-18 -16.5q-25 20 -67.5 35t-92.5 15q-58 0 -92 -25.5t-34 -69.5q0 -35 24.5 -57
t79.5 -38l61 -18q79 -22 124.5 -64t45.5 -116q0 -79 -57.5 -128t-161.5 -49q-61 0 -106.5 13.5t-71 34t-25.5 40.5q0 17 10.5 28.5t24.5 16.5q23 -22 65 -43.5t103 -21.5zM271 751q-16 -17 -39.5 -41.5t-52.5 -50.5q-17 2 -28 10.5t-11 22.5q0 12 7.5 21t18.5 20l59 59
q22 22 47 22q16 0 27 -6.5t23 -19.5l82 -93q0 -15 -9.5 -24.5t-24.5 -9.5q-11 0 -21 6t-24 22z" />
    <glyph glyph-name="scircumflex" unicode="&#x15d;" horiz-adv-x="447" 
d="M401 123q0 -64 -47 -100t-136 -36q-76 0 -124 23.5t-48 51.5q0 12 6.5 23.5t19.5 18.5q27 -19 63 -35t82 -16q104 0 104 70q0 29 -17.5 47.5t-51.5 26.5l-83 22q-61 15 -89 46.5t-28 78.5q0 53 43 92t131 39q47 0 82 -9.5t54.5 -25t19.5 -33.5q0 -13 -6.5 -23t-17.5 -15
q-12 8 -30.5 17.5t-43.5 16t-55 6.5q-44 0 -71 -17t-27 -48q0 -22 15.5 -38.5t49.5 -24.5l69 -17q68 -16 102 -50.5t34 -90.5zM224 618q-23 -28 -45.5 -51.5t-42.5 -46.5q-18 2 -30 11t-12 22q0 11 6.5 19.5t15.5 18.5l61 66q13 11 23.5 17t23.5 6q16 0 26.5 -6t20.5 -18
l84 -100q0 -13 -7.5 -23.5t-23.5 -10.5q-12 0 -19.5 5.5t-15.5 13.5z" />
    <glyph glyph-name="Scedilla" unicode="&#x15e;" horiz-adv-x="523" 
d="M257 55q67 0 101.5 30.5t34.5 78.5q0 41 -26.5 68t-83.5 43l-87 26q-42 13 -73 33.5t-47.5 51t-16.5 71.5q0 77 56 120.5t149 43.5q54 0 96.5 -11.5t67 -29.5t24.5 -38q0 -13 -7 -23.5t-18 -16.5q-25 20 -67.5 35t-92.5 15q-58 0 -92 -25.5t-34 -69.5q0 -35 24.5 -57
t79.5 -38l61 -18q79 -22 124.5 -64t45.5 -116q0 -79 -57.5 -128t-161.5 -49q-61 0 -106.5 13.5t-71 34t-25.5 40.5q0 17 10.5 28.5t24.5 16.5q23 -22 65 -43.5t103 -21.5zM273 17q28 -19 40 -45t12 -57q0 -48 -30 -76t-78 -28q-25 0 -38.5 9.5t-13.5 26.5q0 14 6 24h15
q36 0 52.5 15.5t16.5 41.5q0 17 -7.5 37t-24.5 37z" />
    <glyph glyph-name="scedilla" unicode="&#x15f;" horiz-adv-x="447" 
d="M401 123q0 -64 -47 -100t-136 -36q-76 0 -124 23.5t-48 51.5q0 12 6.5 23.5t19.5 18.5q27 -19 63 -35t82 -16q104 0 104 70q0 29 -17.5 47.5t-51.5 26.5l-83 22q-61 15 -89 46.5t-28 78.5q0 53 43 92t131 39q47 0 82 -9.5t54.5 -25t19.5 -33.5q0 -13 -6.5 -23t-17.5 -15
q-12 8 -30.5 17.5t-43.5 16t-55 6.5q-44 0 -71 -17t-27 -48q0 -22 15.5 -38.5t49.5 -24.5l69 -17q68 -16 102 -50.5t34 -90.5zM248 17q28 -19 40 -45t12 -57q0 -48 -30 -76t-78 -28q-25 0 -38.5 9.5t-13.5 26.5q0 14 6 24h15q36 0 52.5 15.5t16.5 41.5q0 17 -7.5 37
t-24.5 37z" />
    <glyph glyph-name="Scaron" unicode="&#x160;" horiz-adv-x="523" 
d="M257 55q67 0 101.5 30.5t34.5 78.5q0 41 -26.5 68t-83.5 43l-87 26q-42 13 -73 33.5t-47.5 51t-16.5 71.5q0 77 56 120.5t149 43.5q54 0 96.5 -11.5t67 -29.5t24.5 -38q0 -13 -7 -23.5t-18 -16.5q-25 20 -67.5 35t-92.5 15q-58 0 -92 -25.5t-34 -69.5q0 -35 24.5 -57
t79.5 -38l61 -18q79 -22 124.5 -64t45.5 -116q0 -79 -57.5 -128t-161.5 -49q-61 0 -106.5 13.5t-71 34t-25.5 40.5q0 17 10.5 28.5t24.5 16.5q23 -22 65 -43.5t103 -21.5zM265 721q17 18 40 42t48 51q18 -1 31 -10t13 -23q0 -12 -7.5 -21t-18.5 -20l-60 -60
q-11 -10 -21.5 -15t-24.5 -5q-15 0 -26.5 6t-22.5 19l-83 88q0 19 9 29t24 10q11 0 21.5 -6t23.5 -22z" />
    <glyph glyph-name="scaron" unicode="&#x161;" horiz-adv-x="447" 
d="M401 123q0 -64 -47 -100t-136 -36q-76 0 -124 23.5t-48 51.5q0 12 6.5 23.5t19.5 18.5q27 -19 63 -35t82 -16q104 0 104 70q0 29 -17.5 47.5t-51.5 26.5l-83 22q-61 15 -89 46.5t-28 78.5q0 53 43 92t131 39q47 0 82 -9.5t54.5 -25t19.5 -33.5q0 -13 -6.5 -23t-17.5 -15
q-12 8 -30.5 17.5t-43.5 16t-55 6.5q-44 0 -71 -17t-27 -48q0 -22 15.5 -38.5t49.5 -24.5l69 -17q68 -16 102 -50.5t34 -90.5zM224 583l88 97q20 -1 31.5 -10.5t11.5 -23.5q0 -11 -7 -20t-18 -21l-63 -64q-10 -10 -20 -15t-24 -5q-9 0 -17.5 3t-16 9t-15.5 14l-85 93
q0 10 4 18.5t11.5 14t17.5 5.5q13 0 21.5 -5.5t19.5 -18.5z" />
    <glyph glyph-name="uni021A" unicode="&#x21a;" horiz-adv-x="523" 
d="M256 608h233q3 -4 6 -13t3 -19q0 -16 -8 -26.5t-23 -10.5h-206zM268 539h-234q-3 5 -6 14t-3 19q0 17 8 26.5t23 9.5h207zM302 566v-564q-5 -2 -15.5 -4.5t-21.5 -2.5q-22 0 -33 9t-11 28v534h81zM255 -201q-8 -10 -17.5 -14t-20.5 -4q-21 0 -31 13q14 35 26 72t15 65
q9 4 17.5 5.5t18.5 1.5q16 0 26.5 -7.5t10.5 -22.5q0 -16 -7 -37.5t-17.5 -40.5t-20.5 -31z" />
    <glyph glyph-name="uni021B" unicode="&#x21b;" horiz-adv-x="372" 
d="M156 264v-138q0 -40 23 -56.5t63 -16.5q17 0 38 6t35 14q6 -6 11 -15t5 -21q0 -22 -26 -36t-72 -14q-70 0 -113.5 31t-43.5 103v143h80zM117 452h203q3 -4 6 -13t3 -19q0 -16 -8 -25t-22 -9h-182v66zM76 234v362q5 2 15.5 4.5t22.5 2.5q21 0 31.5 -8.5t10.5 -27.5v-333
h-80zM200 -201q-8 -10 -17.5 -14t-20.5 -4q-21 0 -31 13q14 35 26 72t15 65q9 4 17.5 5.5t18.5 1.5q16 0 26.5 -7.5t10.5 -22.5q0 -16 -7 -37.5t-17.5 -40.5t-20.5 -31z" />
    <glyph glyph-name="Tcaron" unicode="&#x164;" horiz-adv-x="523" 
d="M256 608h233q3 -4 6 -13t3 -19q0 -16 -8 -26.5t-23 -10.5h-206zM268 539h-234q-3 5 -6 14t-3 19q0 17 8 26.5t23 9.5h207zM302 566v-564q-5 -2 -15.5 -4.5t-21.5 -2.5q-22 0 -33 9t-11 28v534h81zM261 721q17 18 40 42t48 51q18 -1 31 -10t13 -23q0 -12 -7.5 -21
t-18.5 -20l-60 -60q-11 -10 -21.5 -15t-24.5 -5q-15 0 -26.5 6t-22.5 19l-83 88q0 19 9 29t24 10q11 0 21.5 -6t23.5 -22z" />
    <glyph glyph-name="tcaron" unicode="&#x165;" horiz-adv-x="453" 
d="M156 264v-138q0 -40 23 -56.5t63 -16.5q17 0 38 6t35 14q6 -6 11 -15t5 -21q0 -22 -26 -36t-72 -14q-70 0 -113.5 31t-43.5 103v143h80zM117 452h203q3 -4 6 -13t3 -19q0 -16 -8 -25t-22 -9h-182v66zM76 234v362q5 2 15.5 4.5t22.5 2.5q21 0 31.5 -8.5t10.5 -27.5v-333
h-80zM428 516q-8 -10 -17.5 -14t-20.5 -4q-21 0 -31 13q14 35 26 72t15 65q9 4 17.5 5.5t18.5 1.5q16 0 26.5 -7.5t10.5 -22.5q0 -16 -7 -37.5t-17.5 -40.5t-20.5 -31z" />
    <glyph glyph-name="Utilde" unicode="&#x168;" horiz-adv-x="649" 
d="M324 -13q-75 0 -128 27.5t-80.5 78t-27.5 117.5v82h81v-75q0 -80 44.5 -120.5t110.5 -40.5t110.5 40.5t44.5 120.5v75h82v-82q0 -67 -27.5 -117.5t-80.5 -78t-129 -27.5zM88 251v355q5 2 15.5 4.5t22.5 2.5q22 0 32.5 -8.5t10.5 -28.5v-325h-81zM479 251v355
q5 2 15.5 4.5t22.5 2.5q22 0 33 -8.5t11 -28.5v-325h-82zM255 786q28 0 50.5 -8.5t42 -17t36.5 -8.5q18 0 26.5 11t12.5 27h6q18 0 32 -8.5t14 -29.5q0 -28 -20 -45t-53 -17q-28 0 -52 9t-44 17.5t-36 8.5q-18 0 -26 -11t-12 -28h-6q-18 0 -32 9t-14 29t10.5 33.5t28 21
t36.5 7.5z" />
    <glyph glyph-name="utilde" unicode="&#x169;" horiz-adv-x="551" 
d="M75 260h80v-87q0 -64 34 -92t94 -28q40 0 68 8.5t44 17.5v181h80v-178q0 -21 -5.5 -33.5t-26.5 -24.5q-22 -13 -63 -25t-98 -12q-66 0 -112.5 19.5t-70.5 60t-24 102.5v91zM395 208v252q5 2 15.5 4.5t21.5 2.5q22 0 32.5 -8.5t10.5 -28.5v-222h-80zM75 208v252
q5 2 15.5 4.5t22.5 2.5q21 0 31.5 -8.5t10.5 -28.5v-222h-80zM203 651q28 0 50.5 -8.5t42 -17t36.5 -8.5q18 0 26.5 11t12.5 27h6q18 0 32 -8.5t14 -29.5q0 -28 -20 -45t-53 -17q-28 0 -52 9t-44 17.5t-36 8.5q-18 0 -26 -11t-12 -28h-6q-18 0 -32 9t-14 29t10.5 33.5t28 21
t36.5 7.5z" />
    <glyph glyph-name="Umacron" unicode="&#x16a;" horiz-adv-x="649" 
d="M324 -13q-75 0 -128 27.5t-80.5 78t-27.5 117.5v82h81v-75q0 -80 44.5 -120.5t110.5 -40.5t110.5 40.5t44.5 120.5v75h82v-82q0 -67 -27.5 -117.5t-80.5 -78t-129 -27.5zM88 251v355q5 2 15.5 4.5t22.5 2.5q22 0 32.5 -8.5t10.5 -28.5v-325h-81zM479 251v355
q5 2 15.5 4.5t22.5 2.5q22 0 33 -8.5t11 -28.5v-325h-82zM197 690q-4 6 -7.5 14t-3.5 18q0 17 9 25t23 8h228q4 -6 7 -14.5t3 -17.5q0 -17 -8.5 -25t-23.5 -8h-227z" />
    <glyph glyph-name="umacron" unicode="&#x16b;" horiz-adv-x="550" 
d="M75 260h80v-87q0 -64 34 -92t94 -28q40 0 68 8.5t44 17.5v181h80v-178q0 -21 -5.5 -33.5t-26.5 -24.5q-22 -13 -63 -25t-98 -12q-66 0 -112.5 19.5t-70.5 60t-24 102.5v91zM395 208v252q5 2 15.5 4.5t21.5 2.5q22 0 32.5 -8.5t10.5 -28.5v-222h-80zM75 208v252
q5 2 15.5 4.5t22.5 2.5q21 0 31.5 -8.5t10.5 -28.5v-222h-80zM151 570q-4 6 -7.5 14t-3.5 18q0 17 9 25t23 8h228q4 -6 7 -14.5t3 -17.5q0 -17 -8.5 -25t-23.5 -8h-227z" />
    <glyph glyph-name="Ubreve" unicode="&#x16c;" horiz-adv-x="649" 
d="M324 -13q-75 0 -128 27.5t-80.5 78t-27.5 117.5v82h81v-75q0 -80 44.5 -120.5t110.5 -40.5t110.5 40.5t44.5 120.5v75h82v-82q0 -67 -27.5 -117.5t-80.5 -78t-129 -27.5zM88 251v355q5 2 15.5 4.5t22.5 2.5q22 0 32.5 -8.5t10.5 -28.5v-325h-81zM479 251v355
q5 2 15.5 4.5t22.5 2.5q22 0 33 -8.5t11 -28.5v-325h-82zM326 716q32 0 51.5 17t24.5 49q4 1 8 1.5t9 0.5q16 0 25.5 -9t9.5 -29q0 -31 -32 -59.5t-96 -28.5q-66 0 -97 28.5t-31 59.5q0 20 9.5 29t25.5 9q5 0 9.5 -0.5t7.5 -1.5q5 -32 25 -49t51 -17z" />
    <glyph glyph-name="ubreve" unicode="&#x16d;" horiz-adv-x="551" 
d="M75 260h80v-87q0 -64 34 -92t94 -28q40 0 68 8.5t44 17.5v181h80v-178q0 -21 -5.5 -33.5t-26.5 -24.5q-22 -13 -63 -25t-98 -12q-66 0 -112.5 19.5t-70.5 60t-24 102.5v91zM395 208v252q5 2 15.5 4.5t21.5 2.5q22 0 32.5 -8.5t10.5 -28.5v-222h-80zM75 208v252
q5 2 15.5 4.5t22.5 2.5q21 0 31.5 -8.5t10.5 -28.5v-222h-80zM275 599q32 0 51.5 17t24.5 49q4 1 8 1.5t9 0.5q16 0 25.5 -9t9.5 -29q0 -31 -32 -59.5t-96 -28.5q-66 0 -97 28.5t-31 59.5q0 20 9.5 29t25.5 9q5 0 9.5 -0.5t7.5 -1.5q5 -32 25 -49t51 -17z" />
    <glyph glyph-name="Uring" unicode="&#x16e;" horiz-adv-x="649" 
d="M324 -13q-75 0 -128 27.5t-80.5 78t-27.5 117.5v82h81v-75q0 -80 44.5 -120.5t110.5 -40.5t110.5 40.5t44.5 120.5v75h82v-82q0 -67 -27.5 -117.5t-80.5 -78t-129 -27.5zM88 251v355q5 2 15.5 4.5t22.5 2.5q22 0 32.5 -8.5t10.5 -28.5v-325h-81zM479 251v355
q5 2 15.5 4.5t22.5 2.5q22 0 33 -8.5t11 -28.5v-325h-82zM219 744q0 39 28.5 65t77.5 26q50 0 78 -26t28 -65q0 -38 -28 -64t-78 -26q-49 0 -77.5 26t-28.5 64zM279 744q0 -19 13 -30t33 -11t33.5 11t13.5 30q0 20 -13.5 31t-33.5 11t-33 -11t-13 -31z" />
    <glyph glyph-name="uring" unicode="&#x16f;" horiz-adv-x="550" 
d="M75 260h80v-87q0 -64 34 -92t94 -28q40 0 68 8.5t44 17.5v181h80v-178q0 -21 -5.5 -33.5t-26.5 -24.5q-22 -13 -63 -25t-98 -12q-66 0 -112.5 19.5t-70.5 60t-24 102.5v91zM395 208v252q5 2 15.5 4.5t21.5 2.5q22 0 32.5 -8.5t10.5 -28.5v-222h-80zM75 208v252
q5 2 15.5 4.5t22.5 2.5q21 0 31.5 -8.5t10.5 -28.5v-222h-80zM169 612q0 39 27.5 66t76.5 27q50 0 77 -27t27 -66t-27 -66t-77 -27q-49 0 -76.5 27t-27.5 66zM227 612q0 -22 13 -34t33 -12t33.5 12t13.5 34t-13.5 34t-33.5 12t-33 -12t-13 -34z" />
    <glyph glyph-name="Uhungarumlaut" unicode="&#x170;" horiz-adv-x="649" 
d="M324 -13q-75 0 -128 27.5t-80.5 78t-27.5 117.5v82h81v-75q0 -80 44.5 -120.5t110.5 -40.5t110.5 40.5t44.5 120.5v75h82v-82q0 -67 -27.5 -117.5t-80.5 -78t-129 -27.5zM88 251v355q5 2 15.5 4.5t22.5 2.5q22 0 32.5 -8.5t10.5 -28.5v-325h-81zM479 251v355
q5 2 15.5 4.5t22.5 2.5q22 0 33 -8.5t11 -28.5v-325h-82zM272 818q22 -1 35 -11t13 -24t-6.5 -23.5t-18.5 -23.5l-60 -72q-19 0 -31 9.5t-12 22.5q0 9 4 16l8 14zM441 818q22 -1 35 -11t13 -24t-7 -23.5t-18 -23.5l-60 -72q-19 0 -31 9.5t-12 22.5q0 9 4 16l8 14z" />
    <glyph glyph-name="uhungarumlaut" unicode="&#x171;" horiz-adv-x="550" 
d="M75 260h80v-87q0 -64 34 -92t94 -28q40 0 68 8.5t44 17.5v181h80v-178q0 -21 -5.5 -33.5t-26.5 -24.5q-22 -13 -63 -25t-98 -12q-66 0 -112.5 19.5t-70.5 60t-24 102.5v91zM395 208v252q5 2 15.5 4.5t21.5 2.5q22 0 32.5 -8.5t10.5 -28.5v-222h-80zM75 208v252
q5 2 15.5 4.5t22.5 2.5q21 0 31.5 -8.5t10.5 -28.5v-222h-80zM234 687q22 -1 35 -11t13 -24q0 -13 -6.5 -23t-18.5 -24l-71 -89q-19 0 -31.5 9.5t-12.5 22.5q0 9 4 16t9 14zM402 687q22 -1 35 -11t13 -24q0 -13 -6.5 -23t-18.5 -24l-71 -89q-19 0 -31 9.5t-12 22.5
q0 9 3.5 16t8.5 14z" />
    <glyph glyph-name="Uogonek" unicode="&#x172;" horiz-adv-x="649" 
d="M324 -13q-75 0 -128 27.5t-80.5 78t-27.5 117.5v82h81v-75q0 -80 44.5 -120.5t110.5 -40.5t110.5 40.5t44.5 120.5v75h82v-82q0 -67 -27.5 -117.5t-80.5 -78t-129 -27.5zM88 251v355q5 2 15.5 4.5t22.5 2.5q22 0 32.5 -8.5t10.5 -28.5v-325h-81zM479 251v355
q5 2 15.5 4.5t22.5 2.5q22 0 33 -8.5t11 -28.5v-325h-82zM389 5q-21 -14 -36.5 -32t-15.5 -46q0 -27 17 -40t46 -13h15q3 -6 4.5 -12t1.5 -11q0 -16 -11 -26t-38 -10q-43 0 -75 25.5t-32 70.5q0 30 12 50.5t29 34.5t31 21z" />
    <glyph glyph-name="uogonek" unicode="&#x173;" horiz-adv-x="550" 
d="M461 38q-34 -27 -55.5 -50.5t-21.5 -60.5q0 -27 17.5 -40t46.5 -13h15q3 -6 4.5 -12t1.5 -11q0 -16 -11.5 -26t-37.5 -10q-44 0 -76 25.5t-32 70.5q0 44 24.5 69t48.5 36zM75 260h80v-87q0 -64 34 -92t94 -28q40 0 68 8.5t44 17.5v181h80v-178q0 -21 -5.5 -33.5
t-26.5 -24.5q-10 -6 -24.5 -8.5t-31.5 -8.5q-18 -6 -45.5 -13t-59.5 -7q-66 0 -112.5 19.5t-70.5 60t-24 102.5v91zM395 208v252q5 2 15.5 4.5t21.5 2.5q22 0 32.5 -8.5t10.5 -28.5v-222h-80zM75 208v252q5 2 15.5 4.5t22.5 2.5q21 0 31.5 -8.5t10.5 -28.5v-222h-80z" />
    <glyph glyph-name="Wcircumflex" unicode="&#x174;" horiz-adv-x="799" 
d="M354 457q8 4 20 7t25 3q20 0 33.5 -6.5t17.5 -19.5q25 -72 45.5 -133.5t39 -119t37.5 -118.5h4q19 90 37 175.5t35 173.5t31 188q14 7 34 7q19 0 30 -8.5t11 -25.5q0 -19 -5.5 -57.5t-15 -90t-22 -109t-26.5 -115t-28 -108.5t-27 -89q-9 -5 -23 -9.5t-32 -4.5
q-22 0 -37 7t-20 19q-14 35 -34 92.5t-41.5 126t-41.5 135.5q-19 -66 -41 -137t-42.5 -132t-36.5 -98q-7 -4 -21.5 -8.5t-32.5 -4.5q-22 0 -36.5 7.5t-19.5 18.5q-10 25 -24.5 75t-30.5 114.5t-31.5 134t-29 134t-21.5 114.5q7 7 19 13t26 6q18 0 28 -8.5t14 -28.5
q13 -63 25 -122t24.5 -119t26.5 -125.5t31 -140.5h4q14 45 27 86t27 84.5t30.5 95.5t37.5 121zM404 740q-23 -28 -45.5 -51.5t-42.5 -46.5q-18 2 -30 11t-12 22q0 11 6.5 19.5t15.5 18.5l61 66q13 11 23.5 17t23.5 6q16 0 26.5 -6t20.5 -18l84 -100q0 -13 -7.5 -23.5
t-23.5 -10.5q-12 0 -19.5 5.5t-15.5 13.5z" />
    <glyph glyph-name="wcircumflex" unicode="&#x175;" horiz-adv-x="712" 
d="M356 344q-18 -63 -38.5 -126t-39.5 -118t-35 -95q-8 -5 -18 -8t-27 -3q-16 0 -29.5 5.5t-18.5 17.5q-10 20 -22.5 58t-26 87t-27.5 101.5t-25.5 101.5t-19.5 87q7 7 17.5 13t25.5 6q19 0 28.5 -10.5t13.5 -33.5q9 -42 20.5 -95t24 -105t23 -93.5t15.5 -61.5h4
q8 24 25 78.5t40.5 124.5t47.5 142q8 5 19 7.5t24 2.5q18 0 30 -6.5t16 -19.5q24 -69 45 -135.5t37 -118t23 -76.5h5q23 89 50 191t44 200q14 9 34 9q17 0 27 -8t10 -25q0 -11 -6.5 -42t-17.5 -73t-24.5 -89.5t-27.5 -92t-26.5 -80.5t-21.5 -56q-5 -4 -16.5 -7.5t-26.5 -3.5
q-41 0 -48 19q-14 36 -32 89.5t-37 116t-38 125.5zM358 618q-23 -28 -45.5 -51.5t-42.5 -46.5q-18 2 -30 11t-12 22q0 11 6.5 19.5t15.5 18.5l61 66q13 11 23.5 17t23.5 6q16 0 26.5 -6t20.5 -18l84 -100q0 -13 -7.5 -23.5t-23.5 -10.5q-12 0 -19.5 5.5t-15.5 13.5z" />
    <glyph glyph-name="Ycircumflex" unicode="&#x176;" horiz-adv-x="550" 
d="M243 218q-28 42 -58.5 88.5t-60 94.5t-56 94.5t-47.5 86.5q4 11 15 21.5t29 10.5q19 0 29.5 -10t21.5 -30q13 -23 29.5 -51.5t34.5 -60t36 -62.5t33.5 -58t27.5 -47h4q35 58 64 110t56 102t53 100q6 4 15 5.5t16 1.5q19 0 28.5 -9t9.5 -25q0 -10 -15.5 -42.5t-43.5 -81
t-66 -109.5t-84 -129h-71zM319 257v-255q-5 -2 -15.5 -4.5t-21.5 -2.5q-22 0 -33 9t-11 28v225h81zM276 751q-16 -17 -39.5 -41.5t-52.5 -50.5q-17 2 -28 10.5t-11 22.5q0 12 7.5 21t18.5 20l59 59q22 22 47 22q16 0 27 -6.5t23 -19.5l82 -93q0 -15 -9.5 -24.5t-24.5 -9.5
q-11 0 -21 6t-24 22z" />
    <glyph glyph-name="ycircumflex" unicode="&#x177;" horiz-adv-x="489" 
d="M169 103q-17 32 -41 86.5t-49.5 122t-48.5 137.5q7 10 18.5 16t24.5 6q17 0 28 -9t18 -30q30 -84 63 -167t73 -172h4q21 42 44 105t44 133t35 132q7 3 15.5 5.5t18.5 2.5q17 0 28 -8.5t11 -25.5q0 -16 -9 -53.5t-24.5 -87t-36 -105t-44 -109t-47.5 -96.5
q-46 -85 -84 -130.5t-70 -45.5q-23 0 -35.5 12t-15.5 28q22 19 49.5 50.5t53 68t41.5 69.5q-17 5 -31.5 18t-32.5 47zM251 618q-23 -28 -45.5 -51.5t-42.5 -46.5q-18 2 -30 11t-12 22q0 11 6.5 19.5t15.5 18.5l61 66q13 11 23.5 17t23.5 6q16 0 26.5 -6t20.5 -18l84 -100
q0 -13 -7.5 -23.5t-23.5 -10.5q-12 0 -19.5 5.5t-15.5 13.5z" />
    <glyph glyph-name="Ydieresis" unicode="&#x178;" horiz-adv-x="550" 
d="M243 218q-28 42 -58.5 88.5t-60 94.5t-56 94.5t-47.5 86.5q4 11 15 21.5t29 10.5q19 0 29.5 -10t21.5 -30q13 -23 29.5 -51.5t34.5 -60t36 -62.5t33.5 -58t27.5 -47h4q35 58 64 110t56 102t53 100q6 4 15 5.5t16 1.5q19 0 28.5 -9t9.5 -25q0 -10 -15.5 -42.5t-43.5 -81
t-66 -109.5t-84 -129h-71zM319 257v-255q-5 -2 -15.5 -4.5t-21.5 -2.5q-22 0 -33 9t-11 28v225h81zM242 729q0 -19 -14 -33.5t-36 -14.5q-21 0 -34.5 14.5t-13.5 33.5q0 20 13.5 34t34.5 14q22 0 36 -14t14 -34zM415 729q0 -19 -14.5 -33.5t-35.5 -14.5q-20 0 -34.5 14.5
t-14.5 33.5q0 20 14.5 34t34.5 14q21 0 35.5 -14t14.5 -34z" />
    <glyph glyph-name="Zacute" unicode="&#x179;" horiz-adv-x="557" 
d="M451 608h32q19 -16 19 -38q0 -14 -5.5 -25t-15.5 -25l-379 -520h-33q-8 7 -13.5 17t-5.5 21q0 14 5.5 25.5t15.5 24.5zM93 69h406q4 -5 7 -13.5t3 -19.5q0 -16 -8.5 -26t-22.5 -10h-388zM462 539h-395q-3 5 -6.5 14t-3.5 19q0 17 8.5 26.5t23.5 9.5h375zM349 820
q22 -1 33.5 -11.5t11.5 -24.5t-5.5 -23t-19.5 -21l-85 -76q-19 2 -29.5 10t-10.5 20q0 10 4 17t10 13z" />
    <glyph glyph-name="zacute" unicode="&#x17a;" horiz-adv-x="469" 
d="M61 0q-7 6 -11.5 15.5t-4.5 19.5q0 12 5.5 22.5t12.5 20.5l307 384h31q8 -7 12.5 -16t4.5 -20t-5 -21t-14 -21l-306 -384h-32zM390 396h-330q-3 5 -6 14t-3 19q0 17 8 25t22 8h309v-66zM67 65h349q3 -4 6 -12.5t3 -19.5q0 -16 -8 -24.5t-23 -8.5h-327v65zM318 687
q22 -1 35.5 -12.5t13.5 -25.5q0 -13 -6 -22t-20 -22l-91 -89q-19 0 -31.5 10.5t-12.5 23.5q0 9 5 15.5t10 12.5z" />
    <glyph glyph-name="Zdotaccent" unicode="&#x17b;" horiz-adv-x="557" 
d="M451 608h32q19 -16 19 -38q0 -14 -5.5 -25t-15.5 -25l-379 -520h-33q-8 7 -13.5 17t-5.5 21q0 14 5.5 25.5t15.5 24.5zM93 69h406q4 -5 7 -13.5t3 -19.5q0 -16 -8.5 -26t-22.5 -10h-388zM462 539h-395q-3 5 -6.5 14t-3.5 19q0 17 8.5 26.5t23.5 9.5h375zM333 730
q0 -22 -14 -35.5t-37 -13.5q-22 0 -36 13.5t-14 35.5q0 23 14 36.5t36 13.5q23 0 37 -13.5t14 -36.5z" />
    <glyph glyph-name="zdotaccent" unicode="&#x17c;" horiz-adv-x="469" 
d="M61 0q-7 6 -11.5 15.5t-4.5 19.5q0 12 5.5 22.5t12.5 20.5l307 384h31q8 -7 12.5 -16t4.5 -20t-5 -21t-14 -21l-306 -384h-32zM390 396h-330q-3 5 -6 14t-3 19q0 17 8 25t22 8h309v-66zM67 65h349q3 -4 6 -12.5t3 -19.5q0 -16 -8 -24.5t-23 -8.5h-327v65zM283 607
q0 -22 -14 -35.5t-37 -13.5q-22 0 -36 13.5t-14 35.5q0 23 14 36.5t36 13.5q23 0 37 -13.5t14 -36.5z" />
    <glyph glyph-name="Zcaron" unicode="&#x17d;" horiz-adv-x="557" 
d="M451 608h32q19 -16 19 -38q0 -14 -5.5 -25t-15.5 -25l-379 -520h-33q-8 7 -13.5 17t-5.5 21q0 14 5.5 25.5t15.5 24.5zM93 69h406q4 -5 7 -13.5t3 -19.5q0 -16 -8.5 -26t-22.5 -10h-388zM462 539h-395q-3 5 -6.5 14t-3.5 19q0 17 8.5 26.5t23.5 9.5h375zM284 721
q17 18 40 42t48 51q18 -1 31 -10t13 -23q0 -12 -7.5 -21t-18.5 -20l-60 -60q-11 -10 -21.5 -15t-24.5 -5q-15 0 -26.5 6t-22.5 19l-83 88q0 19 9 29t24 10q11 0 21.5 -6t23.5 -22z" />
    <glyph glyph-name="zcaron" unicode="&#x17e;" horiz-adv-x="469" 
d="M61 0q-7 6 -11.5 15.5t-4.5 19.5q0 12 5.5 22.5t12.5 20.5l307 384h31q8 -7 12.5 -16t4.5 -20t-5 -21t-14 -21l-306 -384h-32zM390 396h-330q-3 5 -6 14t-3 19q0 17 8 25t22 8h309v-66zM67 65h349q3 -4 6 -12.5t3 -19.5q0 -16 -8 -24.5t-23 -8.5h-327v65zM236 583l88 97
q20 -1 31.5 -10.5t11.5 -23.5q0 -11 -7 -20t-18 -21l-63 -64q-10 -10 -20 -15t-24 -5q-9 0 -17.5 3t-16 9t-15.5 14l-85 93q0 10 4 18.5t11.5 14t17.5 5.5q13 0 21.5 -5.5t19.5 -18.5z" />
    <glyph glyph-name="uni018F" unicode="&#x18f;" horiz-adv-x="650" 
d="M527 294l-396 -63q4 -49 26.5 -89.5t62.5 -64t97 -23.5q92 0 144 57.5t52 174.5v22q-4 81 -34 134t-78 79t-107 26q-58 0 -105 -22t-76 -51q-14 6 -24 15.5t-10 25.5q0 18 12 30.5t22 20.5q26 18 75 34t107 16t111.5 -18t96 -56.5t67.5 -99.5t25 -146q0 -97 -33.5 -166.5
t-95.5 -107t-149 -37.5t-147 35.5t-90.5 93.5t-30.5 126q0 28 13.5 40.5t35.5 15.5l421 67z" />
    <glyph glyph-name="florin" unicode="&#x192;" horiz-adv-x="506" 
d="M236 421h207q4 -4 7 -12.5t3 -19.5q0 -16 -8.5 -24.5t-22.5 -8.5h-186v65zM268 378l-31 -298q-8 -79 -45 -112t-102 -33q-42 0 -67.5 13.5t-25.5 36.5q0 11 4 20t11 14q17 -7 33.5 -12t38.5 -5q35 0 52 19.5t22 65.5l43 406q9 85 58 125.5t123 40.5q53 0 83.5 -15
t30.5 -38q0 -11 -4 -20t-11 -14q-19 8 -42 14t-53 6q-49 0 -74.5 -26t-31.5 -80l-12 -100v-8z" />
    <glyph glyph-name="Ohorn" unicode="&#x1a0;" horiz-adv-x="696" 
d="M634 304q0 -104 -38 -174.5t-103.5 -106.5t-148.5 -36q-82 0 -148 36t-104 106.5t-38 174.5t39 174.5t104.5 106.5t146.5 36q82 0 147.5 -36t104 -106.5t38.5 -174.5zM551 304q0 119 -56.5 183.5t-150.5 64.5q-93 0 -149.5 -64.5t-56.5 -183.5t56 -183.5t150 -64.5
q95 0 151 64.5t56 183.5zM533 478q-4 6 -5.5 23.5t-1.5 30.5q32 0 56.5 17t24.5 67v34q8 5 16.5 7t18.5 2q15 0 25.5 -8.5t10.5 -28.5v-12q0 -47 -19 -76.5t-48 -42.5t-61 -13h-17z" />
    <glyph glyph-name="ohorn" unicode="&#x1a1;" horiz-adv-x="581" 
d="M511 231q0 -74 -28 -129t-79 -85t-120 -30t-120.5 30t-79.5 85t-28 129q0 75 28.5 129.5t80 84.5t119.5 30t119 -30t79.5 -84.5t28.5 -129.5zM284 409q-67 0 -106.5 -47.5t-39.5 -130.5q0 -84 38.5 -131t107.5 -47q68 0 106.5 47.5t38.5 130.5t-38.5 130.5t-106.5 47.5z
M411 341q-4 6 -5.5 23.5t-1.5 30.5q32 0 56.5 17t24.5 67v34q8 5 16.5 7t18.5 2q15 0 25.5 -8.5t10.5 -28.5v-12q0 -47 -19 -76.5t-48 -42.5t-61 -13h-17z" />
    <glyph glyph-name="Uhorn" unicode="&#x1af;" horiz-adv-x="681" 
d="M324 -13q-75 0 -128 27.5t-80.5 78t-27.5 117.5v82h81v-75q0 -80 44.5 -120.5t110.5 -40.5t110.5 40.5t44.5 120.5v75h82v-82q0 -67 -27.5 -117.5t-80.5 -78t-129 -27.5zM88 251v355q5 2 15.5 4.5t22.5 2.5q22 0 32.5 -8.5t10.5 -28.5v-325h-81zM479 251v355
q5 2 15.5 4.5t22.5 2.5q22 0 33 -8.5t11 -28.5v-325h-82zM553 478q-4 6 -5.5 23.5t-1.5 30.5q32 0 56.5 17t24.5 67v34q8 5 16.5 7t18.5 2q15 0 25.5 -8.5t10.5 -28.5v-12q0 -47 -19 -76.5t-48 -42.5t-61 -13h-17z" />
    <glyph glyph-name="uhorn" unicode="&#x1b0;" horiz-adv-x="593" 
d="M75 260h80v-87q0 -64 34 -92t94 -28q40 0 68 8.5t44 17.5v181h80v-178q0 -21 -5.5 -33.5t-26.5 -24.5q-22 -13 -63 -25t-98 -12q-66 0 -112.5 19.5t-70.5 60t-24 102.5v91zM395 208v252q5 2 15.5 4.5t21.5 2.5q22 0 32.5 -8.5t10.5 -28.5v-222h-80zM75 208v252
q5 2 15.5 4.5t22.5 2.5q21 0 31.5 -8.5t10.5 -28.5v-222h-80zM457 341q-4 6 -5.5 23.5t-1.5 30.5q32 0 56.5 17t24.5 67v34q8 5 16.5 7t18.5 2q15 0 25.5 -8.5t10.5 -28.5v-12q0 -47 -19 -76.5t-48 -42.5t-61 -13h-17z" />
    <glyph glyph-name="Gcaron" unicode="&#x1e6;" horiz-adv-x="639" 
d="M570 70q0 -18 -10.5 -30.5t-31.5 -22.5q-25 -13 -69 -21.5t-89 -8.5q-93 0 -164.5 34t-111.5 104t-40 178q0 107 41.5 177.5t110.5 105.5t151 35q57 0 100 -12t67 -30t24 -37q0 -13 -8 -23.5t-19 -15.5q-27 18 -64 33.5t-95 15.5q-63 0 -114 -28t-80.5 -83.5
t-29.5 -137.5q0 -86 30.5 -140.5t83.5 -80.5t119 -26q36 0 68 6t50 15v184h-151q-3 5 -6 13.5t-3 18.5q0 17 8 26.5t23 9.5h167q18 0 30.5 -11.5t12.5 -30.5v-217zM349 721q17 18 40 42t48 51q18 -1 31 -10t13 -23q0 -12 -7.5 -21t-18.5 -20l-60 -60q-11 -10 -21.5 -15
t-24.5 -5q-15 0 -26.5 6t-22.5 19l-83 88q0 19 9 29t24 10q11 0 21.5 -6t23.5 -22z" />
    <glyph glyph-name="gcaron" unicode="&#x1e7;" horiz-adv-x="537" 
d="M267 14q-58 0 -107 22.5t-79 73.5t-30 135q0 76 29.5 127t81.5 77t119 26q46 0 84.5 -11.5t64.5 -28.5q15 -10 24.5 -22.5t9.5 -30.5v-309h-80v308q-17 11 -42.5 19.5t-60.5 8.5q-67 0 -108 -41t-41 -122q0 -90 41.5 -128t102.5 -38q44 0 71 15t43 33l4 -71
q-15 -16 -47.5 -29.5t-79.5 -13.5zM384 90h80v-110q0 -66 -28.5 -106t-78 -58t-111.5 -18q-50 0 -86 11t-49 18q-30 17 -30 43q0 14 6.5 23.5t16.5 14.5q21 -16 59.5 -29.5t82.5 -13.5q67 0 102.5 29t35.5 91v105zM277 583l88 97q20 -1 31.5 -10.5t11.5 -23.5q0 -11 -7 -20
t-18 -21l-63 -64q-10 -10 -20 -15t-24 -5q-9 0 -17.5 3t-16 9t-15.5 14l-85 93q0 10 4 18.5t11.5 14t17.5 5.5q13 0 21.5 -5.5t19.5 -18.5z" />
    <glyph glyph-name="uni0218" unicode="&#x218;" horiz-adv-x="523" 
d="M257 55q67 0 101.5 30.5t34.5 78.5q0 41 -26.5 68t-83.5 43l-87 26q-42 13 -73 33.5t-47.5 51t-16.5 71.5q0 77 56 120.5t149 43.5q54 0 96.5 -11.5t67 -29.5t24.5 -38q0 -13 -7 -23.5t-18 -16.5q-25 20 -67.5 35t-92.5 15q-58 0 -92 -25.5t-34 -69.5q0 -35 24.5 -57
t79.5 -38l61 -18q79 -22 124.5 -64t45.5 -116q0 -79 -57.5 -128t-161.5 -49q-61 0 -106.5 13.5t-71 34t-25.5 40.5q0 17 10.5 28.5t24.5 16.5q23 -22 65 -43.5t103 -21.5zM258 -201q-8 -10 -17.5 -14t-20.5 -4q-21 0 -31 13q14 35 26 72t15 65q9 4 17.5 5.5t18.5 1.5
q16 0 26.5 -7.5t10.5 -22.5q0 -16 -7 -37.5t-17.5 -40.5t-20.5 -31z" />
    <glyph glyph-name="uni0219" unicode="&#x219;" horiz-adv-x="447" 
d="M401 123q0 -64 -47 -100t-136 -36q-76 0 -124 23.5t-48 51.5q0 12 6.5 23.5t19.5 18.5q27 -19 63 -35t82 -16q104 0 104 70q0 29 -17.5 47.5t-51.5 26.5l-83 22q-61 15 -89 46.5t-28 78.5q0 53 43 92t131 39q47 0 82 -9.5t54.5 -25t19.5 -33.5q0 -13 -6.5 -23t-17.5 -15
q-12 8 -30.5 17.5t-43.5 16t-55 6.5q-44 0 -71 -17t-27 -48q0 -22 15.5 -38.5t49.5 -24.5l69 -17q68 -16 102 -50.5t34 -90.5zM229 -201q-8 -10 -17.5 -14t-20.5 -4q-21 0 -31 13q14 35 26 72t15 65q9 4 17.5 5.5t18.5 1.5q16 0 26.5 -7.5t10.5 -22.5q0 -16 -7 -37.5
t-17.5 -40.5t-20.5 -31z" />
    <glyph glyph-name="Wgrave" unicode="&#x1e80;" horiz-adv-x="799" 
d="M354 457q8 4 20 7t25 3q20 0 33.5 -6.5t17.5 -19.5q25 -72 45.5 -133.5t39 -119t37.5 -118.5h4q19 90 37 175.5t35 173.5t31 188q14 7 34 7q19 0 30 -8.5t11 -25.5q0 -19 -5.5 -57.5t-15 -90t-22 -109t-26.5 -115t-28 -108.5t-27 -89q-9 -5 -23 -9.5t-32 -4.5
q-22 0 -37 7t-20 19q-14 35 -34 92.5t-41.5 126t-41.5 135.5q-19 -66 -41 -137t-42.5 -132t-36.5 -98q-7 -4 -21.5 -8.5t-32.5 -4.5q-22 0 -36.5 7.5t-19.5 18.5q-10 25 -24.5 75t-30.5 114.5t-31.5 134t-29 134t-21.5 114.5q7 7 19 13t26 6q18 0 28 -8.5t14 -28.5
q13 -63 25 -122t24.5 -119t26.5 -125.5t31 -140.5h4q14 45 27 86t27 84.5t30.5 95.5t37.5 121zM266 768q-1 4 -1 7v5q0 16 9.5 26.5t24.5 10.5q23 0 36 -18l84 -101q-1 -16 -9.5 -25t-22.5 -9q-10 0 -17.5 4.5t-15.5 11.5z" />
    <glyph glyph-name="wgrave" unicode="&#x1e81;" horiz-adv-x="712" 
d="M356 344q-18 -63 -38.5 -126t-39.5 -118t-35 -95q-8 -5 -18 -8t-27 -3q-16 0 -29.5 5.5t-18.5 17.5q-10 20 -22.5 58t-26 87t-27.5 101.5t-25.5 101.5t-19.5 87q7 7 17.5 13t25.5 6q19 0 28.5 -10.5t13.5 -33.5q9 -42 20.5 -95t24 -105t23 -93.5t15.5 -61.5h4
q8 24 25 78.5t40.5 124.5t47.5 142q8 5 19 7.5t24 2.5q18 0 30 -6.5t16 -19.5q24 -69 45 -135.5t37 -118t23 -76.5h5q23 89 50 191t44 200q14 9 34 9q17 0 27 -8t10 -25q0 -11 -6.5 -42t-17.5 -73t-24.5 -89.5t-27.5 -92t-26.5 -80.5t-21.5 -56q-5 -4 -16.5 -7.5t-26.5 -3.5
q-41 0 -48 19q-14 36 -32 89.5t-37 116t-38 125.5zM216 634q-1 4 -1.5 7.5t-0.5 5.5q0 16 11 26t27 10q11 0 19.5 -4.5t15.5 -12.5l90 -113q-1 -16 -10 -25.5t-23 -9.5q-11 0 -18.5 4.5t-15.5 11.5z" />
    <glyph glyph-name="Wacute" unicode="&#x1e82;" horiz-adv-x="799" 
d="M354 457q8 4 20 7t25 3q20 0 33.5 -6.5t17.5 -19.5q25 -72 45.5 -133.5t39 -119t37.5 -118.5h4q19 90 37 175.5t35 173.5t31 188q14 7 34 7q19 0 30 -8.5t11 -25.5q0 -19 -5.5 -57.5t-15 -90t-22 -109t-26.5 -115t-28 -108.5t-27 -89q-9 -5 -23 -9.5t-32 -4.5
q-22 0 -37 7t-20 19q-14 35 -34 92.5t-41.5 126t-41.5 135.5q-19 -66 -41 -137t-42.5 -132t-36.5 -98q-7 -4 -21.5 -8.5t-32.5 -4.5q-22 0 -36.5 7.5t-19.5 18.5q-10 25 -24.5 75t-30.5 114.5t-31.5 134t-29 134t-21.5 114.5q7 7 19 13t26 6q18 0 28 -8.5t14 -28.5
q13 -63 25 -122t24.5 -119t26.5 -125.5t31 -140.5h4q14 45 27 86t27 84.5t30.5 95.5t37.5 121zM487 820q22 -1 33.5 -11.5t11.5 -24.5t-5.5 -23t-19.5 -21l-85 -76q-19 2 -29.5 10t-10.5 20q0 10 4 17t10 13z" />
    <glyph glyph-name="wacute" unicode="&#x1e83;" horiz-adv-x="712" 
d="M356 344q-18 -63 -38.5 -126t-39.5 -118t-35 -95q-8 -5 -18 -8t-27 -3q-16 0 -29.5 5.5t-18.5 17.5q-10 20 -22.5 58t-26 87t-27.5 101.5t-25.5 101.5t-19.5 87q7 7 17.5 13t25.5 6q19 0 28.5 -10.5t13.5 -33.5q9 -42 20.5 -95t24 -105t23 -93.5t15.5 -61.5h4
q8 24 25 78.5t40.5 124.5t47.5 142q8 5 19 7.5t24 2.5q18 0 30 -6.5t16 -19.5q24 -69 45 -135.5t37 -118t23 -76.5h5q23 89 50 191t44 200q14 9 34 9q17 0 27 -8t10 -25q0 -11 -6.5 -42t-17.5 -73t-24.5 -89.5t-27.5 -92t-26.5 -80.5t-21.5 -56q-5 -4 -16.5 -7.5t-26.5 -3.5
q-41 0 -48 19q-14 36 -32 89.5t-37 116t-38 125.5zM443 687q22 -1 35.5 -12.5t13.5 -25.5q0 -13 -6 -22t-20 -22l-91 -89q-19 0 -31.5 10.5t-12.5 23.5q0 9 5 15.5t10 12.5z" />
    <glyph glyph-name="Wdieresis" unicode="&#x1e84;" horiz-adv-x="799" 
d="M354 457q8 4 20 7t25 3q20 0 33.5 -6.5t17.5 -19.5q25 -72 45.5 -133.5t39 -119t37.5 -118.5h4q19 90 37 175.5t35 173.5t31 188q14 7 34 7q19 0 30 -8.5t11 -25.5q0 -19 -5.5 -57.5t-15 -90t-22 -109t-26.5 -115t-28 -108.5t-27 -89q-9 -5 -23 -9.5t-32 -4.5
q-22 0 -37 7t-20 19q-14 35 -34 92.5t-41.5 126t-41.5 135.5q-19 -66 -41 -137t-42.5 -132t-36.5 -98q-7 -4 -21.5 -8.5t-32.5 -4.5q-22 0 -36.5 7.5t-19.5 18.5q-10 25 -24.5 75t-30.5 114.5t-31.5 134t-29 134t-21.5 114.5q7 7 19 13t26 6q18 0 28 -8.5t14 -28.5
q13 -63 25 -122t24.5 -119t26.5 -125.5t31 -140.5h4q14 45 27 86t27 84.5t30.5 95.5t37.5 121zM364 729q0 -19 -14 -33.5t-36 -14.5q-21 0 -34.5 14.5t-13.5 33.5q0 20 13.5 34t34.5 14q22 0 36 -14t14 -34zM537 729q0 -19 -14.5 -33.5t-35.5 -14.5q-20 0 -34.5 14.5
t-14.5 33.5q0 20 14.5 34t34.5 14q21 0 35.5 -14t14.5 -34z" />
    <glyph glyph-name="wdieresis" unicode="&#x1e85;" horiz-adv-x="712" 
d="M356 344q-18 -63 -38.5 -126t-39.5 -118t-35 -95q-8 -5 -18 -8t-27 -3q-16 0 -29.5 5.5t-18.5 17.5q-10 20 -22.5 58t-26 87t-27.5 101.5t-25.5 101.5t-19.5 87q7 7 17.5 13t25.5 6q19 0 28.5 -10.5t13.5 -33.5q9 -42 20.5 -95t24 -105t23 -93.5t15.5 -61.5h4
q8 24 25 78.5t40.5 124.5t47.5 142q8 5 19 7.5t24 2.5q18 0 30 -6.5t16 -19.5q24 -69 45 -135.5t37 -118t23 -76.5h5q23 89 50 191t44 200q14 9 34 9q17 0 27 -8t10 -25q0 -11 -6.5 -42t-17.5 -73t-24.5 -89.5t-27.5 -92t-26.5 -80.5t-21.5 -56q-5 -4 -16.5 -7.5t-26.5 -3.5
q-41 0 -48 19q-14 36 -32 89.5t-37 116t-38 125.5zM318 599q0 -19 -14 -33.5t-36 -14.5q-21 0 -34.5 14.5t-13.5 33.5q0 20 13.5 34t34.5 14q22 0 36 -14t14 -34zM491 599q0 -19 -14.5 -33.5t-35.5 -14.5q-20 0 -34.5 14.5t-14.5 33.5q0 20 14.5 34t34.5 14q21 0 35.5 -14
t14.5 -34z" />
    <glyph glyph-name="Ygrave" unicode="&#x1ef2;" horiz-adv-x="550" 
d="M243 218q-28 42 -58.5 88.5t-60 94.5t-56 94.5t-47.5 86.5q4 11 15 21.5t29 10.5q19 0 29.5 -10t21.5 -30q13 -23 29.5 -51.5t34.5 -60t36 -62.5t33.5 -58t27.5 -47h4q35 58 64 110t56 102t53 100q6 4 15 5.5t16 1.5q19 0 28.5 -9t9.5 -25q0 -10 -15.5 -42.5t-43.5 -81
t-66 -109.5t-84 -129h-71zM319 257v-255q-5 -2 -15.5 -4.5t-21.5 -2.5q-22 0 -33 9t-11 28v225h81zM144 768q-1 4 -1 7v5q0 16 9.5 26.5t24.5 10.5q23 0 36 -18l84 -101q-1 -16 -9.5 -25t-22.5 -9q-10 0 -17.5 4.5t-15.5 11.5z" />
    <glyph glyph-name="ygrave" unicode="&#x1ef3;" horiz-adv-x="489" 
d="M169 103q-17 32 -41 86.5t-49.5 122t-48.5 137.5q7 10 18.5 16t24.5 6q17 0 28 -9t18 -30q30 -84 63 -167t73 -172h4q21 42 44 105t44 133t35 132q7 3 15.5 5.5t18.5 2.5q17 0 28 -8.5t11 -25.5q0 -16 -9 -53.5t-24.5 -87t-36 -105t-44 -109t-47.5 -96.5
q-46 -85 -84 -130.5t-70 -45.5q-23 0 -35.5 12t-15.5 28q22 19 49.5 50.5t53 68t41.5 69.5q-17 5 -31.5 18t-32.5 47zM120 634q-1 4 -1.5 7.5t-0.5 5.5q0 16 11 26t27 10q11 0 19.5 -4.5t15.5 -12.5l90 -113q-1 -16 -10 -25.5t-23 -9.5q-11 0 -18.5 4.5t-15.5 11.5z" />
    <glyph glyph-name="circumflex" unicode="&#x2c6;" horiz-adv-x="348" 
d="M176 618q-23 -28 -45.5 -51.5t-42.5 -46.5q-18 2 -30 11t-12 22q0 11 6.5 19.5t15.5 18.5l61 66q13 11 23.5 17t23.5 6q16 0 26.5 -6t20.5 -18l84 -100q0 -13 -7.5 -23.5t-23.5 -10.5q-12 0 -19.5 5.5t-15.5 13.5z" />
    <glyph glyph-name="caron" unicode="&#x2c7;" horiz-adv-x="350" 
d="M175 583l88 97q20 -1 31.5 -10.5t11.5 -23.5q0 -11 -7 -20t-18 -21l-63 -64q-10 -10 -20 -15t-24 -5q-9 0 -17.5 3t-16 9t-15.5 14l-85 93q0 10 4 18.5t11.5 14t17.5 5.5q13 0 21.5 -5.5t19.5 -18.5z" />
    <glyph glyph-name="breve" unicode="&#x2d8;" horiz-adv-x="336" 
d="M169 599q32 0 51.5 17t24.5 49q4 1 8 1.5t9 0.5q16 0 25.5 -9t9.5 -29q0 -31 -32 -59.5t-96 -28.5q-66 0 -97 28.5t-31 59.5q0 20 9.5 29t25.5 9q5 0 9.5 -0.5t7.5 -1.5q5 -32 25 -49t51 -17z" />
    <glyph glyph-name="dotaccent" unicode="&#x2d9;" horiz-adv-x="206" 
d="M152 607q0 -22 -14 -35.5t-37 -13.5q-22 0 -36 13.5t-14 35.5q0 23 14 36.5t36 13.5q23 0 37 -13.5t14 -36.5z" />
    <glyph glyph-name="ring" unicode="&#x2da;" horiz-adv-x="286" 
d="M36 612q0 39 27.5 66t76.5 27q50 0 77 -27t27 -66t-27 -66t-77 -27q-49 0 -76.5 27t-27.5 66zM94 612q0 -22 13 -34t33 -12t33.5 12t13.5 34t-13.5 34t-33.5 12t-33 -12t-13 -34z" />
    <glyph glyph-name="ogonek" unicode="&#x2db;" horiz-adv-x="235" 
d="M174 5q-21 -14 -36.5 -32t-15.5 -46q0 -27 17 -40t46 -13h15q3 -6 4.5 -12t1.5 -11q0 -16 -11 -26t-38 -10q-43 0 -75 25.5t-32 70.5q0 30 12 50.5t29 34.5t31 21z" />
    <glyph glyph-name="tilde" unicode="&#x2dc;" horiz-adv-x="374" 
d="M115 651q28 0 50.5 -8.5t42 -17t36.5 -8.5q18 0 26.5 11t12.5 27h6q18 0 32 -8.5t14 -29.5q0 -28 -20 -45t-53 -17q-28 0 -52 9t-44 17.5t-36 8.5q-18 0 -26 -11t-12 -28h-6q-18 0 -32 9t-14 29t10.5 33.5t28 21t36.5 7.5z" />
    <glyph glyph-name="hungarumlaut" unicode="&#x2dd;" horiz-adv-x="488" 
d="M166 687q22 -1 35 -11t13 -24q0 -13 -6.5 -23t-18.5 -24l-71 -89q-19 0 -31.5 9.5t-12.5 22.5q0 9 4 16t9 14zM334 687q22 -1 35 -11t13 -24q0 -13 -6.5 -23t-18.5 -24l-71 -89q-19 0 -31 9.5t-12 22.5q0 9 3.5 16t8.5 14z" />
    <glyph glyph-name="gravecomb" unicode="&#x300;" 
d="M-246 634q-1 4 -1.5 7.5t-0.5 5.5q0 16 11 26t27 10q11 0 19.5 -4.5t15.5 -12.5l90 -113q-1 -16 -10 -25.5t-23 -9.5q-11 0 -18.5 4.5t-15.5 11.5z" />
    <glyph glyph-name="acutecomb" unicode="&#x301;" 
d="M-113 687q22 -1 35.5 -12.5t13.5 -25.5q0 -13 -6 -22t-20 -22l-91 -89q-19 0 -31.5 10.5t-12.5 23.5q0 9 5 15.5t10 12.5z" />
    <glyph glyph-name="tildecomb" unicode="&#x303;" 
d="M-257 663q26 0 48 -8t41 -16t35 -8q20 0 30 11t14 24q22 -1 35.5 -10.5t13.5 -29.5q0 -25 -20 -42t-56 -17q-26 0 -48.5 8t-41 15.5t-34.5 7.5q-19 0 -29.5 -10.5t-14.5 -24.5q-22 1 -35.5 10.5t-13.5 30.5q0 17 9 30t26 21t41 8z" />
    <glyph glyph-name="hookabovecomb" unicode="&#x309;" 
d="M-134 696q25 0 46.5 -9t34.5 -27t13 -45q0 -35 -22 -52.5t-51 -20.5v-20q-4 -2 -11.5 -4t-18.5 -2q-15 0 -23 4.5t-8 12.5v27q0 14 6.5 20.5t20.5 6.5h7q37 0 37 27q0 11 -8.5 19.5t-28.5 8.5q-13 0 -25.5 -4.5t-23.5 -10.5q-7 3 -14 10t-7 19q0 20 25 30t51 10z" />
    <glyph glyph-name="dotbelowcomb" unicode="&#x323;" 
d="M-54 -129q0 -22 -14.5 -36t-37.5 -14q-22 0 -36 14t-14 36t14 36t36 14q23 0 37.5 -14t14.5 -36z" />
    <glyph glyph-name="capgrave" horiz-adv-x="271" 
d="M57 768q-1 4 -1 7v5q0 16 9.5 26.5t24.5 10.5q23 0 36 -18l84 -101q-1 -16 -9.5 -25t-22.5 -9q-10 0 -17.5 4.5t-15.5 11.5z" />
    <glyph glyph-name="capacute" horiz-adv-x="271" 
d="M190 820q22 -1 33.5 -11.5t11.5 -24.5t-5.5 -23t-19.5 -21l-85 -76q-19 2 -29.5 10t-10.5 20q0 10 4 17t10 13z" />
    <glyph glyph-name="caphungarumlaut" horiz-adv-x="298" 
d="M134 818q22 -1 35 -11t13 -24t-6.5 -23.5t-18.5 -23.5l-60 -72q-19 0 -31 9.5t-12 22.5q0 9 4 16l8 14zM303 818q22 -1 35 -11t13 -24t-7 -23.5t-18 -23.5l-60 -72q-19 0 -31 9.5t-12 22.5q0 9 4 16l8 14z" />
    <glyph glyph-name="capring" horiz-adv-x="272" 
d="M31 744q0 39 28.5 65t77.5 26q50 0 78 -26t28 -65q0 -38 -28 -64t-78 -26q-49 0 -77.5 26t-28.5 64zM91 744q0 -19 13 -30t33 -11t33.5 11t13.5 30q0 20 -13.5 31t-33.5 11t-33 -11t-13 -31z" />
    <glyph glyph-name="capcircumflex" horiz-adv-x="366" 
d="M185 751q-16 -17 -39.5 -41.5t-52.5 -50.5q-17 2 -28 10.5t-11 22.5q0 12 7.5 21t18.5 20l59 59q22 22 47 22q16 0 27 -6.5t23 -19.5l82 -93q0 -15 -9.5 -24.5t-24.5 -9.5q-11 0 -21 6t-24 22z" />
    <glyph glyph-name="capcaron" horiz-adv-x="366" 
d="M186 721q17 18 40 42t48 51q18 -1 31 -10t13 -23q0 -12 -7.5 -21t-18.5 -20l-60 -60q-11 -10 -21.5 -15t-24.5 -5q-15 0 -26.5 6t-22.5 19l-83 88q0 19 9 29t24 10q11 0 21.5 -6t23.5 -22z" />
    <glyph glyph-name="capdblgrave" horiz-adv-x="298" 
d="M47 773v3q0 21 10 30.5t25 9.5q11 0 19.5 -6.5t14.5 -14.5l68 -96q-3 -16 -12 -24t-22 -8q-11 0 -20 6t-15 14zM223 773v3q0 20 9.5 30t25.5 10q11 0 19.5 -6.5t14.5 -14.5l68 -96q-3 -16 -12 -24t-22 -8q-11 0 -19.5 6t-15.5 14z" />
    <glyph glyph-name="uni02BC" unicode="&#x2bc;" horiz-adv-x="127" 
d="M79 437q-7 -14 -15 -20.5t-22 -6.5q-9 0 -17.5 3.5t-14.5 7.5q5 25 10.5 60t10 71.5t6.5 66.5q9 3 18 4.5t20 1.5q17 0 27.5 -9.5t10.5 -29.5q0 -19 -6 -49t-14 -57.5t-14 -42.5z" />
    <glyph glyph-name="uni02BB" unicode="&#x2bb;" horiz-adv-x="129" 
d="M51 600q6 14 14.5 20.5t22.5 6.5q8 0 17 -3t14 -8q-4 -25 -10 -60t-10.5 -72t-6.5 -67q-9 -4 -17.5 -5.5t-19.5 -1.5q-18 0 -28.5 9.5t-10.5 29.5t6 50t14.5 58.5t14.5 42.5z" />
    <glyph glyph-name="uni02C9" unicode="&#x2c9;" horiz-adv-x="322" 
d="M40 570q-4 6 -7.5 14t-3.5 18q0 17 9 25t23 8h228q4 -6 7 -14.5t3 -17.5q0 -17 -8.5 -25t-23.5 -8h-227z" />
    <glyph glyph-name="uni02CB" unicode="&#x2cb;" horiz-adv-x="292" 
d="M56 634q-1 4 -1.5 7.5t-0.5 5.5q0 16 11 26t27 10q11 0 19.5 -4.5t15.5 -12.5l90 -113q-1 -16 -10 -25.5t-23 -9.5q-11 0 -18.5 4.5t-15.5 11.5z" />
    <glyph glyph-name="uni02BE" unicode="&#x2be;" horiz-adv-x="175" 
d="M90 523q0 35 -20 53.5t-53 18.5q-1 4 -2 10t-1 8q0 17 11.5 25.5t30.5 8.5q24 0 47.5 -13.5t39 -40.5t15.5 -70t-15.5 -70.5t-39 -41t-47.5 -13.5q-19 0 -30.5 9t-11.5 25q0 2 1 7.5t2 9.5q33 0 53 19.5t20 54.5z" />
    <glyph glyph-name="uni02BF" unicode="&#x2bf;" horiz-adv-x="175" 
d="M85 523q0 35 20 53.5t52 18.5q2 4 2.5 10t0.5 8q0 17 -10.5 25.5t-30.5 8.5q-24 0 -47.5 -13.5t-39 -40.5t-15.5 -70t15.5 -70.5t39 -41t47.5 -13.5q20 0 30.5 9t10.5 25q0 2 -0.5 7.5t-2.5 9.5q-32 0 -52 19.5t-20 54.5z" />
    <glyph glyph-name="uni02CA" unicode="&#x2ca;" horiz-adv-x="309" 
d="M185 687q22 -1 35.5 -12.5t13.5 -25.5q0 -13 -6 -22t-20 -22l-91 -89q-19 0 -31.5 10.5t-12.5 23.5q0 9 5 15.5t10 12.5z" />
    <glyph glyph-name="uni02CC" unicode="&#x2cc;" horiz-adv-x="382" 
d="M218 -272q-7 -3 -14.5 -5t-16.5 -2q-17 0 -25 8t-8 26v144q7 3 14 5t18 2q16 0 24 -8t8 -26v-144z" />
    <glyph glyph-name="uni02C8" unicode="&#x2c8;" horiz-adv-x="342" 
d="M218 526q-7 -3 -14.5 -5t-16.5 -2q-17 0 -25 8t-8 26v144q7 3 14 5t18 2q16 0 24 -8t8 -26v-144z" />
    <glyph glyph-name="uni0308" unicode="&#x308;" 
d="M154 606q0 -19 -14 -33.5t-36 -14.5q-21 0 -34.5 14.5t-13.5 33.5q0 20 13.5 34t34.5 14q22 0 36 -14t14 -34zM327 606q0 -19 -14.5 -33.5t-35.5 -14.5q-20 0 -34.5 14.5t-14.5 33.5q0 20 14.5 34t34.5 14q21 0 35.5 -14t14.5 -34z" />
    <glyph glyph-name="uni0307" unicode="&#x307;" 
d="M152 607q0 -22 -14 -35.5t-37 -13.5q-22 0 -36 13.5t-14 35.5q0 23 14 36.5t36 13.5q23 0 37 -13.5t14 -36.5z" />
    <glyph glyph-name="uni030B" unicode="&#x30b;" 
d="M157 687q22 -1 35 -11t13 -24q0 -13 -6.5 -23t-18.5 -24l-71 -89q-19 0 -31.5 9.5t-12.5 22.5q0 9 4 16t9 14zM325 687q22 -1 35 -11t13 -24q0 -13 -6.5 -23t-18.5 -24l-71 -89q-19 0 -31 9.5t-12 22.5q0 9 3.5 16t8.5 14z" />
    <glyph glyph-name="uni0302" unicode="&#x302;" 
d="M176 618q-23 -28 -45.5 -51.5t-42.5 -46.5q-18 2 -30 11t-12 22q0 11 6.5 19.5t15.5 18.5l61 66q13 11 23.5 17t23.5 6q16 0 26.5 -6t20.5 -18l84 -100q0 -13 -7.5 -23.5t-23.5 -10.5q-12 0 -19.5 5.5t-15.5 13.5z" />
    <glyph glyph-name="uni030C" unicode="&#x30c;" 
d="M175 583l88 97q20 -1 31.5 -10.5t11.5 -23.5q0 -11 -7 -20t-18 -21l-63 -64q-10 -10 -20 -15t-24 -5q-9 0 -17.5 3t-16 9t-15.5 14l-85 93q0 10 4 18.5t11.5 14t17.5 5.5q13 0 21.5 -5.5t19.5 -18.5z" />
    <glyph glyph-name="uni030C.alt" 
d="M91 516q-8 -10 -17.5 -14t-20.5 -4q-21 0 -31 13q14 35 26 72t15 65q9 4 17.5 5.5t18.5 1.5q16 0 26.5 -7.5t10.5 -22.5q0 -16 -7 -37.5t-17.5 -40.5t-20.5 -31z" />
    <glyph glyph-name="uni0306" unicode="&#x306;" 
d="M169 599q32 0 51.5 17t24.5 49q4 1 8 1.5t9 0.5q16 0 25.5 -9t9.5 -29q0 -31 -32 -59.5t-96 -28.5q-66 0 -97 28.5t-31 59.5q0 20 9.5 29t25.5 9q5 0 9.5 -0.5t7.5 -1.5q5 -32 25 -49t51 -17z" />
    <glyph glyph-name="uni030A" unicode="&#x30a;" 
d="M36 612q0 39 27.5 66t76.5 27q50 0 77 -27t27 -66t-27 -66t-77 -27q-49 0 -76.5 27t-27.5 66zM94 612q0 -22 13 -34t33 -12t33.5 12t13.5 34t-13.5 34t-33.5 12t-33 -12t-13 -34z" />
    <glyph glyph-name="uni0304" unicode="&#x304;" 
d="M40 570q-4 6 -7.5 14t-3.5 18q0 17 9 25t23 8h228q4 -6 7 -14.5t3 -17.5q0 -17 -8.5 -25t-23.5 -8h-227z" />
    <glyph glyph-name="uni030F" unicode="&#x30f;" 
d="M54 638v6q0 19 10.5 28t25.5 9q11 0 19 -5.5t15 -15.5l80 -113q-3 -16 -11 -24t-21 -8q-11 0 -19.5 6t-15.5 14zM222 638v6q0 19 10 28t25 9q11 0 19.5 -5.5t15.5 -15.5l80 -113q-3 -16 -11 -24t-21 -8q-11 0 -19 5.5t-16 14.5z" />
    <glyph glyph-name="uni0311" unicode="&#x311;" 
d="M169 749q-31 0 -51 -17t-25 -49q-4 -1 -8 -1.5t-9 -0.5q-16 0 -25.5 9.5t-9.5 28.5q0 32 32 60t96 28q66 0 97 -28.5t31 -59.5q0 -19 -9 -28.5t-26 -9.5q-5 0 -9.5 0.5t-7.5 1.5q-5 32 -24.5 49t-51.5 17z" />
    <glyph glyph-name="uni0312" unicode="&#x312;" 
d="M62 652q8 10 17.5 14t20.5 4q21 0 31 -13q-14 -34 -26 -71t-15 -66q-9 -4 -17.5 -5.5t-18.5 -1.5q-16 0 -26.5 7.5t-10.5 22.5q0 17 7 38t17.5 40.5t20.5 30.5z" />
    <glyph glyph-name="uni031B" unicode="&#x31b;" 
d="M4 341q-4 6 -5.5 23.5t-1.5 30.5q32 0 56.5 17t24.5 67v34q8 5 16.5 7t18.5 2q15 0 25.5 -8.5t10.5 -28.5v-12q0 -47 -19 -76.5t-48 -42.5t-61 -13h-17z" />
    <glyph glyph-name="uni0324" unicode="&#x324;" 
d="M154 -131q0 -19 -14 -33.5t-36 -14.5q-21 0 -34.5 14.5t-13.5 33.5q0 20 13.5 34t34.5 14q22 0 36 -14t14 -34zM327 -131q0 -19 -14.5 -33.5t-35.5 -14.5q-20 0 -34.5 14.5t-14.5 33.5q0 20 14.5 34t34.5 14q21 0 35.5 -14t14.5 -34z" />
    <glyph glyph-name="uni0326" unicode="&#x326;" 
d="M106 -201q-8 -10 -17.5 -14t-20.5 -4q-21 0 -31 13q14 35 26 72t15 65q9 4 17.5 5.5t18.5 1.5q16 0 26.5 -7.5t10.5 -22.5q0 -16 -7 -37.5t-17.5 -40.5t-20.5 -31z" />
    <glyph glyph-name="uni0327" unicode="&#x327;" 
d="M111 17q28 -19 40 -45t12 -57q0 -48 -30 -76t-78 -28q-25 0 -38.5 9.5t-13.5 26.5q0 14 6 24h15q36 0 52.5 15.5t16.5 41.5q0 17 -7.5 37t-24.5 37z" />
    <glyph glyph-name="uni0328" unicode="&#x328;" 
d="M174 5q-21 -14 -36.5 -32t-15.5 -46q0 -27 17 -40t46 -13h15q3 -6 4.5 -12t1.5 -11q0 -16 -11 -26t-38 -10q-43 0 -75 25.5t-32 70.5q0 30 12 50.5t29 34.5t31 21z" />
    <glyph glyph-name="uni032E" unicode="&#x32e;" 
d="M169 -129q32 0 51.5 17t24.5 49q4 1 8 1.5t9 0.5q16 0 25.5 -9t9.5 -29q0 -31 -32 -59.5t-96 -28.5q-66 0 -97 28.5t-31 59.5q0 20 9.5 29t25.5 9q5 0 9.5 -0.5t7.5 -1.5q5 -32 25 -49t51 -17z" />
    <glyph glyph-name="uni0331" unicode="&#x331;" 
d="M51 -183q-4 6 -7 14.5t-3 17.5q0 17 8.5 25t23.5 8h246q4 -6 7 -14.5t3 -17.5q0 -17 -8.5 -25t-23.5 -8h-246z" />
    <glyph glyph-name="acute.vit" horiz-adv-x="322" 
d="M169 839q19 -1 30.5 -11t11.5 -21q0 -13 -6.5 -21.5t-16.5 -19.5l-66 -72q-19 0 -29.5 9t-10.5 20q0 8 3 13.5t9 13.5z" />
    <glyph glyph-name="grave.vit" horiz-adv-x="282" 
d="M74 802q1 17 10.5 27t22.5 10q12 0 19.5 -6.5t16.5 -16.5l70 -89q-2 -17 -10.5 -25t-19.5 -8q-8 0 -14.5 4t-14.5 12z" />
    <glyph glyph-name="tilde.vit" horiz-adv-x="577" 
d="M192 805q22 0 43 -8t39.5 -16t30.5 -8q14 0 21.5 10t11.5 25h9q14 0 25.5 -8t11.5 -25q0 -24 -18.5 -40t-48.5 -16q-21 0 -43 8t-40 15.5t-29 7.5q-15 0 -22 -10t-12 -25h-9q-13 0 -25 8t-12 26q0 16 8.5 28.5t24 20t34.5 7.5z" />
    <glyph glyph-name="caron.vit" horiz-adv-x="350" 
d="M53 801q1 17 10 25.5t22 8.5q12 0 19 -5t16 -16l53 -62l78 83q19 -1 28.5 -9.5t9.5 -19.5q0 -13 -4.5 -19.5t-15.5 -17.5l-62 -63q-8 -9 -16 -12t-16 -3q-10 0 -18 5t-16 12z" />
    <glyph glyph-name="uni1E0C" unicode="&#x1e0c;" horiz-adv-x="652" 
d="M515 311q0 -125 -60 -189.5t-177 -64.5q-29 0 -56.5 2t-51.5 8v476q20 4 44 6t55 2q68 0 123.5 -24.5t89 -77t33.5 -138.5zM598 311q0 103 -41.5 171t-115 102.5t-171.5 34.5q-39 0 -78 -3t-70 -13q-16 -5 -24.5 -13.5t-8.5 -24.5v-514q0 -33 42 -46q36 -11 76.5 -13.5
t71.5 -2.5q97 0 168.5 35t111 106.5t39.5 180.5zM350 -129q0 -22 -14.5 -36t-37.5 -14q-22 0 -36 14t-14 36t14 36t36 14q23 0 37.5 -14t14.5 -36z" />
    <glyph glyph-name="uni1E0D" unicode="&#x1e0d;" horiz-adv-x="545" 
d="M390 415l80 1v-340q0 -19 -8.5 -30.5t-26.5 -22.5q-20 -13 -57 -24.5t-85 -11.5q-72 0 -127 25t-86 78.5t-31 138.5q0 87 30.5 141t82.5 79.5t114 25.5q39 0 74 -11t55 -27v-74q-19 19 -49.5 32.5t-71.5 13.5t-76 -17.5t-56 -57.5t-21 -107q0 -91 44 -132.5t117 -41.5
q35 0 57.5 7.5t40.5 18.5v336zM390 395v253q5 2 15.5 4.5t21.5 2.5q22 0 32.5 -8.5t10.5 -27.5v-223zM340 -129q0 -22 -14.5 -36t-37.5 -14q-22 0 -36 14t-14 36t14 36t36 14q23 0 37.5 -14t14.5 -36z" />
    <glyph glyph-name="uni1E0E" unicode="&#x1e0e;" horiz-adv-x="652" 
d="M515 311q0 -125 -60 -189.5t-177 -64.5q-29 0 -56.5 2t-51.5 8v476q20 4 44 6t55 2q68 0 123.5 -24.5t89 -77t33.5 -138.5zM598 311q0 103 -41.5 171t-115 102.5t-171.5 34.5q-39 0 -78 -3t-70 -13q-16 -5 -24.5 -13.5t-8.5 -24.5v-514q0 -33 42 -46q36 -11 76.5 -13.5
t71.5 -2.5q97 0 168.5 35t111 106.5t39.5 180.5zM163 -173q-4 6 -7 14.5t-3 17.5q0 17 8.5 25t23.5 8h246q4 -6 7 -14.5t3 -17.5q0 -17 -8.5 -25t-23.5 -8h-246z" />
    <glyph glyph-name="uni1E0F" unicode="&#x1e0f;" horiz-adv-x="545" 
d="M390 415l80 1v-340q0 -19 -8.5 -30.5t-26.5 -22.5q-20 -13 -57 -24.5t-85 -11.5q-72 0 -127 25t-86 78.5t-31 138.5q0 87 30.5 141t82.5 79.5t114 25.5q39 0 74 -11t55 -27v-74q-19 19 -49.5 32.5t-71.5 13.5t-76 -17.5t-56 -57.5t-21 -107q0 -91 44 -132.5t117 -41.5
q35 0 57.5 7.5t40.5 18.5v336zM390 395v253q5 2 15.5 4.5t21.5 2.5q22 0 32.5 -8.5t10.5 -27.5v-223zM143 -173q-4 6 -7 14.5t-3 17.5q0 17 8.5 25t23.5 8h246q4 -6 7 -14.5t3 -17.5q0 -17 -8.5 -25t-23.5 -8h-246z" />
    <glyph glyph-name="uni0237" unicode="&#x237;" horiz-adv-x="243" 
d="M6 -146q24 11 41 23t26.5 33.5t9.5 59.5v333h80v-345q0 -60 -20 -93t-46 -46.5t-45 -13.5q-25 0 -34.5 14.5t-11.5 34.5zM83 225v235q5 2 15.5 4.5t22.5 2.5q21 0 31.5 -8.5t10.5 -28.5v-216z" />
    <glyph glyph-name="uni0251" unicode="&#x251;" horiz-adv-x="552" 
d="M391 39v342q-15 10 -41.5 19t-61.5 9q-40 0 -76 -17.5t-58.5 -57t-22.5 -106.5q0 -91 40 -133t103 -42q44 0 77 17.5t43 37.5l20 -61q-18 -25 -58.5 -42.5t-92.5 -17.5q-57 0 -105.5 24t-78.5 77t-30 140q0 84 32 138.5t86 81.5t120 27q49 0 87.5 -12.5t63.5 -27.5
q13 -8 23 -20.5t10 -30.5v-318zM471 119q0 -38 9 -58t24 -36q-2 -16 -13.5 -27t-31.5 -11q-22 0 -39.5 20t-22.5 60z" />
    <glyph glyph-name="uni0259" unicode="&#x259;" horiz-adv-x="516" 
d="M412 220l-302 -41q6 -58 39.5 -92t93.5 -34q63 0 102.5 41.5t39.5 129.5v23q-6 85 -51.5 124t-115.5 39q-41 0 -76 -14t-55 -30q-12 7 -18.5 16.5t-6.5 21.5q0 19 22 35.5t58.5 26.5t79.5 10q77 0 131 -30t82 -85t28 -132q0 -59 -16 -104t-45.5 -75.5t-70 -46
t-89.5 -15.5q-64 0 -111 28t-72 75t-25 102q0 22 10 31.5t28 11.5l336 47z" />
    <glyph glyph-name="uni0261" unicode="&#x261;" horiz-adv-x="537" 
d="M267 14q-58 0 -107 22.5t-79 73.5t-30 135q0 76 29.5 127t81.5 77t119 26q46 0 84.5 -11.5t64.5 -28.5q15 -10 24.5 -22.5t9.5 -30.5v-309h-80v308q-17 11 -42.5 19.5t-60.5 8.5q-67 0 -108 -41t-41 -122q0 -90 41.5 -128t102.5 -38q44 0 71 15t43 33l4 -71
q-15 -16 -47.5 -29.5t-79.5 -13.5zM384 90h80v-110q0 -66 -28.5 -106t-78 -58t-111.5 -18q-50 0 -86 11t-49 18q-30 17 -30 43q0 14 6.5 23.5t16.5 14.5q21 -16 59.5 -29.5t82.5 -13.5q67 0 102.5 29t35.5 91v105z" />
    <glyph glyph-name="uni1E20" unicode="&#x1e20;" horiz-adv-x="639" 
d="M570 70q0 -18 -10.5 -30.5t-31.5 -22.5q-25 -13 -69 -21.5t-89 -8.5q-93 0 -164.5 34t-111.5 104t-40 178q0 107 41.5 177.5t110.5 105.5t151 35q57 0 100 -12t67 -30t24 -37q0 -13 -8 -23.5t-19 -15.5q-27 18 -64 33.5t-95 15.5q-63 0 -114 -28t-80.5 -83.5
t-29.5 -137.5q0 -86 30.5 -140.5t83.5 -80.5t119 -26q36 0 68 6t50 15v184h-151q-3 5 -6 13.5t-3 18.5q0 17 8 26.5t23 9.5h167q18 0 30.5 -11.5t12.5 -30.5v-217zM213 690q-4 6 -7.5 14t-3.5 18q0 17 9 25t23 8h228q4 -6 7 -14.5t3 -17.5q0 -17 -8.5 -25t-23.5 -8h-227z
" />
    <glyph glyph-name="uni1E21" unicode="&#x1e21;" horiz-adv-x="537" 
d="M267 14q-58 0 -107 22.5t-79 73.5t-30 135q0 76 29.5 127t81.5 77t119 26q46 0 84.5 -11.5t64.5 -28.5q15 -10 24.5 -22.5t9.5 -30.5v-309h-80v308q-17 11 -42.5 19.5t-60.5 8.5q-67 0 -108 -41t-41 -122q0 -90 41.5 -128t102.5 -38q44 0 71 15t43 33l4 -71
q-15 -16 -47.5 -29.5t-79.5 -13.5zM384 90h80v-110q0 -66 -28.5 -106t-78 -58t-111.5 -18q-50 0 -86 11t-49 18q-30 17 -30 43q0 14 6.5 23.5t16.5 14.5q21 -16 59.5 -29.5t82.5 -13.5q67 0 102.5 29t35.5 91v105zM143 570q-4 6 -7.5 14t-3.5 18q0 17 9 25t23 8h228
q4 -6 7 -14.5t3 -17.5q0 -17 -8.5 -25t-23.5 -8h-227z" />
    <glyph glyph-name="uni1E24" unicode="&#x1e24;" horiz-adv-x="645" 
d="M172 362v-360q-6 -2 -16 -4.5t-22 -2.5q-22 0 -33 9t-11 28v330h82zM90 295v311q5 2 15.5 4.5t22.5 2.5q22 0 33 -8.5t11 -28.5v-281h-82zM566 362v-360q-6 -2 -16 -4.5t-22 -2.5q-22 0 -33 9t-11 28v330h82zM484 295v311q5 2 15.5 4.5t22.5 2.5q22 0 33 -8.5t11 -28.5
v-281h-82zM139 274v68h388v-68h-388zM389 -129q0 -22 -14.5 -36t-37.5 -14q-22 0 -36 14t-14 36t14 36t36 14q23 0 37.5 -14t14.5 -36z" />
    <glyph glyph-name="uni1E25" unicode="&#x1e25;" horiz-adv-x="529" 
d="M375 199v92q0 60 -33.5 89t-86.5 29q-39 0 -72.5 -15t-56.5 -36l-15 65q24 17 63.5 34.5t91.5 17.5q83 0 136 -45t53 -137v-94h-80zM136 264v-262q-5 -2 -15 -4.5t-22 -2.5q-21 0 -32 8.5t-11 27.5v233h80zM455 262v-260q-5 -2 -15.5 -4.5t-21.5 -2.5q-22 0 -32.5 8.5
t-10.5 27.5v232zM56 225v423q5 2 15.5 4.5t22.5 2.5q21 0 31.5 -8.5t10.5 -27.5v-394h-80zM312 -129q0 -22 -14.5 -36t-37.5 -14q-22 0 -36 14t-14 36t14 36t36 14q23 0 37.5 -14t14.5 -36z" />
    <glyph glyph-name="uni1E2A" unicode="&#x1e2a;" horiz-adv-x="645" 
d="M172 362v-360q-6 -2 -16 -4.5t-22 -2.5q-22 0 -33 9t-11 28v330h82zM90 295v311q5 2 15.5 4.5t22.5 2.5q22 0 33 -8.5t11 -28.5v-281h-82zM566 362v-360q-6 -2 -16 -4.5t-22 -2.5q-22 0 -33 9t-11 28v330h82zM484 295v311q5 2 15.5 4.5t22.5 2.5q22 0 33 -8.5t11 -28.5
v-281h-82zM139 274v68h388v-68h-388zM336 -130q32 0 51.5 17t24.5 49q4 1 8 1.5t9 0.5q16 0 25.5 -9t9.5 -29q0 -31 -32 -59.5t-96 -28.5q-66 0 -97 28.5t-31 59.5q0 20 9.5 29t25.5 9q5 0 9.5 -0.5t7.5 -1.5q5 -32 25 -49t51 -17z" />
    <glyph glyph-name="uni1E2B" unicode="&#x1e2b;" horiz-adv-x="529" 
d="M375 199v92q0 60 -33.5 89t-86.5 29q-39 0 -72.5 -15t-56.5 -36l-15 65q24 17 63.5 34.5t91.5 17.5q83 0 136 -45t53 -137v-94h-80zM136 264v-262q-5 -2 -15 -4.5t-22 -2.5q-21 0 -32 8.5t-11 27.5v233h80zM455 262v-260q-5 -2 -15.5 -4.5t-21.5 -2.5q-22 0 -32.5 8.5
t-10.5 27.5v232zM56 225v423q5 2 15.5 4.5t22.5 2.5q21 0 31.5 -8.5t10.5 -27.5v-394h-80zM260 -130q32 0 51.5 17t24.5 49q4 1 8 1.5t9 0.5q16 0 25.5 -9t9.5 -29q0 -31 -32 -59.5t-96 -28.5q-66 0 -97 28.5t-31 59.5q0 20 9.5 29t25.5 9q5 0 9.5 -0.5t7.5 -1.5
q5 -32 25 -49t51 -17z" />
    <glyph glyph-name="uni1E36" unicode="&#x1e36;" horiz-adv-x="501" 
d="M171 355v-347l-38 -8q-19 0 -31.5 12.5t-12.5 31.5v311h82zM133 70h325q5 -4 8 -13t3 -20q0 -17 -9 -27t-24 -10h-303v70zM89 295v311q5 2 15.5 4.5t22.5 2.5q22 0 33 -8.5t11 -28.5v-281h-82zM324 -129q0 -22 -14.5 -36t-37.5 -14q-22 0 -36 14t-14 36t14 36t36 14
q23 0 37.5 -14t14.5 -36z" />
    <glyph glyph-name="uni1E37" unicode="&#x1e37;" horiz-adv-x="246" 
d="M163 252v-250q-5 -2 -15 -4.5t-22 -2.5q-21 0 -32 8.5t-11 27.5v233zM83 225v423q5 2 15.5 4.5t21.5 2.5q22 0 32.5 -8.5t10.5 -27.5v-405zM176 -129q0 -22 -14.5 -36t-37.5 -14q-22 0 -36 14t-14 36t14 36t36 14q23 0 37.5 -14t14.5 -36z" />
    <glyph glyph-name="uni1E38" unicode="&#x1e38;" horiz-adv-x="501" 
d="M171 355v-347l-38 -8q-19 0 -31.5 12.5t-12.5 31.5v311h82zM133 70h325q5 -4 8 -13t3 -20q0 -17 -9 -27t-24 -10h-303v70zM89 295v311q5 2 15.5 4.5t22.5 2.5q22 0 33 -8.5t11 -28.5v-281h-82zM15 690q-4 6 -7.5 14t-3.5 18q0 17 9 25t23 8h228q4 -6 7 -14.5t3 -17.5
q0 -17 -8.5 -25t-23.5 -8h-227zM324 -129q0 -22 -14.5 -36t-37.5 -14q-22 0 -36 14t-14 36t14 36t36 14q23 0 37.5 -14t14.5 -36z" />
    <glyph glyph-name="uni1E39" unicode="&#x1e39;" horiz-adv-x="246" 
d="M163 252v-250q-5 -2 -15 -4.5t-22 -2.5q-21 0 -32 8.5t-11 27.5v233zM83 225v423q5 2 15.5 4.5t21.5 2.5q22 0 32.5 -8.5t10.5 -27.5v-405zM-9 710q-4 6 -7.5 14t-3.5 18q0 17 9 25t23 8h228q4 -6 7 -14.5t3 -17.5q0 -17 -8.5 -25t-23.5 -8h-227zM175 -129
q0 -22 -14.5 -36t-37.5 -14q-22 0 -36 14t-14 36t14 36t36 14q23 0 37.5 -14t14.5 -36z" />
    <glyph glyph-name="uni1E3A" unicode="&#x1e3a;" horiz-adv-x="501" 
d="M171 355v-347l-38 -8q-19 0 -31.5 12.5t-12.5 31.5v311h82zM133 70h325q5 -4 8 -13t3 -20q0 -17 -9 -27t-24 -10h-303v70zM89 295v311q5 2 15.5 4.5t22.5 2.5q22 0 33 -8.5t11 -28.5v-281h-82zM133 -173q-4 6 -7 14.5t-3 17.5q0 17 8.5 25t23.5 8h246q4 -6 7 -14.5
t3 -17.5q0 -17 -8.5 -25t-23.5 -8h-246z" />
    <glyph glyph-name="uni1E3B" unicode="&#x1e3b;" horiz-adv-x="246" 
d="M163 252v-250q-5 -2 -15 -4.5t-22 -2.5q-21 0 -32 8.5t-11 27.5v233zM83 225v423q5 2 15.5 4.5t21.5 2.5q22 0 32.5 -8.5t10.5 -27.5v-405zM-10 -173q-4 6 -7 14.5t-3 17.5q0 17 8.5 25t23.5 8h246q4 -6 7 -14.5t3 -17.5q0 -17 -8.5 -25t-23.5 -8h-246z" />
    <glyph glyph-name="uni1E42" unicode="&#x1e42;" horiz-adv-x="780" 
d="M435 158q-7 -5 -18.5 -9t-25.5 -4q-16 0 -28.5 5t-17.5 16q-53 112 -92.5 205t-63.5 154h-4q-3 -75 -6.5 -140t-7.5 -125.5t-7.5 -124t-8.5 -135.5q-6 -2 -15.5 -4t-20.5 -2q-22 0 -31 9.5t-9 25.5q0 12 2.5 55.5t6 106.5t8.5 134.5t10.5 141t10.5 125.5q8 7 23 13t34 6
q23 0 39 -9t25 -28q26 -51 52 -111t51 -120t48 -113h4q44 106 87.5 204t73.5 167q9 5 23 7.5t26 2.5q23 0 36.5 -7.5t17.5 -24.5t9 -58t10 -96.5t9.5 -116.5t8.5 -120t7.5 -106.5t4.5 -75.5q-9 -6 -19 -9t-23 -3q-15 0 -26.5 7.5t-13.5 27.5q-6 97 -11.5 191.5t-9.5 173.5
t-7 129h-4q-22 -55 -60 -141.5t-97 -223.5zM445 -129q0 -22 -14.5 -36t-37.5 -14q-22 0 -36 14t-14 36t14 36t36 14q23 0 37.5 -14t14.5 -36z" />
    <glyph glyph-name="uni1E43" unicode="&#x1e43;" horiz-adv-x="797" 
d="M448 205h-80v109q0 49 -28.5 72t-75.5 23q-31 0 -60 -10t-49 -23v-171h-80v167q0 20 8.5 34t29.5 27q27 17 68.5 29.5t83.5 12.5q51 0 90 -15.5t58 -42.5q6 -6 10 -11t8 -13q7 -12 12 -31t5 -42v-115zM741 205h-80v109q0 49 -28 72t-75 23q-35 0 -67.5 -14.5t-58.5 -41.5
l-32 58q26 26 68 45t96 19t93.5 -17t61.5 -52t22 -88v-113zM155 258v-256q-5 -2 -15 -4.5t-22 -2.5q-21 0 -32 8.5t-11 27.5v227h80zM448 258v-256q-5 -2 -15.5 -4.5t-21.5 -2.5q-22 0 -32.5 8.5t-10.5 27.5v227h80zM741 258v-256q-5 -2 -15.5 -4.5t-21.5 -2.5
q-22 0 -32.5 8.5t-10.5 27.5v227h80zM458 -129q0 -22 -14.5 -36t-37.5 -14q-22 0 -36 14t-14 36t14 36t36 14q23 0 37.5 -14t14.5 -36z" />
    <glyph glyph-name="uni1E44" unicode="&#x1e44;" horiz-adv-x="651" 
d="M155 545q4 -31 7 -73t4.5 -86.5t1.5 -84.5v-299q-5 -2 -15.5 -4.5t-21.5 -2.5q-22 0 -33 8.5t-11 27.5v508zM500 63q-10 84 -11.5 171.5t-1.5 169.5v202q6 2 16 4.5t22 2.5q22 0 33 -8.5t11 -27.5v-508zM569 103v-92q-9 -7 -23 -12t-31 -5q-24 0 -41 9.5t-31 34.5
l-190 320q-15 27 -33 59.5t-34 62t-25 48.5l-74 -19v87q8 8 22.5 13t31.5 5q24 0 41 -9.5t31 -34.5l191 -320q16 -27 33.5 -59.5t32.5 -62t24 -48.5l75 19v4zM382 730q0 -22 -14 -35.5t-37 -13.5q-22 0 -36 13.5t-14 35.5q0 23 14 36.5t36 13.5q23 0 37 -13.5t14 -36.5z" />
    <glyph glyph-name="uni1E45" unicode="&#x1e45;" horiz-adv-x="550" 
d="M475 203h-80v98q0 56 -31.5 82t-84.5 26q-40 0 -71 -10t-53 -23v-173h-80v169q0 21 8.5 34.5t29.5 26.5q26 15 69 28.5t97 13.5q91 0 143.5 -41.5t52.5 -128.5v-102zM155 258v-256q-5 -2 -15 -4.5t-22 -2.5q-21 0 -32 8.5t-11 27.5v227h80zM475 258v-256
q-5 -2 -15.5 -4.5t-21.5 -2.5q-22 0 -32.5 8.5t-10.5 27.5v227h80zM318 607q0 -22 -14 -35.5t-37 -13.5q-22 0 -36 13.5t-14 35.5q0 23 14 36.5t36 13.5q23 0 37 -13.5t14 -36.5z" />
    <glyph glyph-name="uni1E46" unicode="&#x1e46;" horiz-adv-x="660" 
d="M157 545q4 -31 7 -73t4.5 -86.5t1.5 -84.5v-299q-5 -2 -15.5 -4.5t-21.5 -2.5q-22 0 -33 8.5t-11 27.5v508zM502 63q-10 84 -11.5 171.5t-1.5 169.5v202q6 2 16 4.5t22 2.5q22 0 33 -8.5t11 -27.5v-508zM571 103v-92q-9 -7 -23 -12t-31 -5q-24 0 -41 9.5t-31 34.5
l-190 320q-15 27 -33 59.5t-34 62t-25 48.5l-74 -19v87q8 8 22.5 13t31.5 5q24 0 41 -9.5t31 -34.5l191 -320q16 -27 33.5 -59.5t32.5 -62t24 -48.5l75 19v4zM387 -129q0 -22 -14.5 -36t-37.5 -14q-22 0 -36 14t-14 36t14 36t36 14q23 0 37.5 -14t14.5 -36z" />
    <glyph glyph-name="uni1E47" unicode="&#x1e47;" horiz-adv-x="550" 
d="M475 203h-80v98q0 56 -31.5 82t-84.5 26q-40 0 -71 -10t-53 -23v-173h-80v169q0 21 8.5 34.5t29.5 26.5q26 15 69 28.5t97 13.5q91 0 143.5 -41.5t52.5 -128.5v-102zM155 258v-256q-5 -2 -15 -4.5t-22 -2.5q-21 0 -32 8.5t-11 27.5v227h80zM475 258v-256
q-5 -2 -15.5 -4.5t-21.5 -2.5q-22 0 -32.5 8.5t-10.5 27.5v227h80zM323 -129q0 -22 -14.5 -36t-37.5 -14q-22 0 -36 14t-14 36t14 36t36 14q23 0 37.5 -14t14.5 -36z" />
    <glyph glyph-name="uni1E48" unicode="&#x1e48;" horiz-adv-x="660" 
d="M157 545q4 -31 7 -73t4.5 -86.5t1.5 -84.5v-299q-5 -2 -15.5 -4.5t-21.5 -2.5q-22 0 -33 8.5t-11 27.5v508zM502 63q-10 84 -11.5 171.5t-1.5 169.5v202q6 2 16 4.5t22 2.5q22 0 33 -8.5t11 -27.5v-508zM571 103v-92q-9 -7 -23 -12t-31 -5q-24 0 -41 9.5t-31 34.5
l-190 320q-15 27 -33 59.5t-34 62t-25 48.5l-74 -19v87q8 8 22.5 13t31.5 5q24 0 41 -9.5t31 -34.5l191 -320q16 -27 33.5 -59.5t32.5 -62t24 -48.5l75 19v4zM205 -173q-4 6 -7 14.5t-3 17.5q0 17 8.5 25t23.5 8h246q4 -6 7 -14.5t3 -17.5q0 -17 -8.5 -25t-23.5 -8h-246z
" />
    <glyph glyph-name="uni1E49" unicode="&#x1e49;" horiz-adv-x="550" 
d="M475 203h-80v98q0 56 -31.5 82t-84.5 26q-40 0 -71 -10t-53 -23v-173h-80v169q0 21 8.5 34.5t29.5 26.5q26 15 69 28.5t97 13.5q91 0 143.5 -41.5t52.5 -128.5v-102zM155 258v-256q-5 -2 -15 -4.5t-22 -2.5q-21 0 -32 8.5t-11 27.5v227h80zM475 258v-256
q-5 -2 -15.5 -4.5t-21.5 -2.5q-22 0 -32.5 8.5t-10.5 27.5v227h80zM151 -173q-4 6 -7 14.5t-3 17.5q0 17 8.5 25t23.5 8h246q4 -6 7 -14.5t3 -17.5q0 -17 -8.5 -25t-23.5 -8h-246z" />
    <glyph glyph-name="uni1E5A" unicode="&#x1e5a;" horiz-adv-x="589" 
d="M285 298q74 0 116 32t42 95q0 62 -44 94t-126 32q-27 0 -54.5 -2.5t-48.5 -6.5v-244h115zM89 230v334q0 16 8.5 24.5t24.5 13.5q29 9 71.5 13t82.5 4q125 0 187 -51t62 -143q0 -59 -27 -103t-80 -68t-133 -24h-196zM347 286q28 -35 58 -73t58 -74t50 -64.5t34 -44.5
q-4 -17 -17.5 -27t-27.5 -10q-17 0 -28 8.5t-23 24.5l-164 230zM171 252v-250q-6 -2 -16 -4.5t-22 -2.5q-22 0 -33 9t-11 28v220h82zM350 -129q0 -22 -14.5 -36t-37.5 -14q-22 0 -36 14t-14 36t14 36t36 14q23 0 37.5 -14t14.5 -36z" />
    <glyph glyph-name="uni1E5B" unicode="&#x1e5b;" horiz-adv-x="393" 
d="M166 218h-80v152q0 23 8.5 36.5t28.5 26.5q26 17 71 29.5t100 12.5q80 0 80 -40q0 -10 -3 -18.5t-8 -14.5q-10 2 -26 4t-32 2q-46 0 -81 -9.5t-58 -22.5v-158zM166 252v-250q-5 -2 -15 -4.5t-22 -2.5q-21 0 -32 8.5t-11 27.5v233zM177 -129q0 -22 -14.5 -36t-37.5 -14
q-22 0 -36 14t-14 36t14 36t36 14q23 0 37.5 -14t14.5 -36z" />
    <glyph glyph-name="uni1E5C" unicode="&#x1e5c;" horiz-adv-x="589" 
d="M285 298q74 0 116 32t42 95q0 62 -44 94t-126 32q-27 0 -54.5 -2.5t-48.5 -6.5v-244h115zM89 230v334q0 16 8.5 24.5t24.5 13.5q29 9 71.5 13t82.5 4q125 0 187 -51t62 -143q0 -59 -27 -103t-80 -68t-133 -24h-196zM347 286q28 -35 58 -73t58 -74t50 -64.5t34 -44.5
q-4 -17 -17.5 -27t-27.5 -10q-17 0 -28 8.5t-23 24.5l-164 230zM171 252v-250q-6 -2 -16 -4.5t-22 -2.5q-22 0 -33 9t-11 28v220h82zM160 690q-4 6 -7.5 14t-3.5 18q0 17 9 25t23 8h228q4 -6 7 -14.5t3 -17.5q0 -17 -8.5 -25t-23.5 -8h-227zM350 -129q0 -22 -14.5 -36
t-37.5 -14q-22 0 -36 14t-14 36t14 36t36 14q23 0 37.5 -14t14.5 -36z" />
    <glyph glyph-name="uni1E5D" unicode="&#x1e5d;" horiz-adv-x="385" 
d="M158 218h-80v152q0 23 8.5 36.5t28.5 26.5q26 17 71 29.5t100 12.5q80 0 80 -40q0 -10 -3 -18.5t-8 -14.5q-10 2 -26 4t-32 2q-46 0 -81 -9.5t-58 -22.5v-158zM158 252v-250q-5 -2 -15 -4.5t-22 -2.5q-21 0 -32 8.5t-11 27.5v233zM86 570q-4 6 -7.5 14t-3.5 18q0 17 9 25
t23 8h228q4 -6 7 -14.5t3 -17.5q0 -17 -8.5 -25t-23.5 -8h-227zM177 -129q0 -22 -14.5 -36t-37.5 -14q-22 0 -36 14t-14 36t14 36t36 14q23 0 37.5 -14t14.5 -36z" />
    <glyph glyph-name="uni1E5E" unicode="&#x1e5e;" horiz-adv-x="589" 
d="M285 298q74 0 116 32t42 95q0 62 -44 94t-126 32q-27 0 -54.5 -2.5t-48.5 -6.5v-244h115zM89 230v334q0 16 8.5 24.5t24.5 13.5q29 9 71.5 13t82.5 4q125 0 187 -51t62 -143q0 -59 -27 -103t-80 -68t-133 -24h-196zM347 286q28 -35 58 -73t58 -74t50 -64.5t34 -44.5
q-4 -17 -17.5 -27t-27.5 -10q-17 0 -28 8.5t-23 24.5l-164 230zM171 252v-250q-6 -2 -16 -4.5t-22 -2.5q-22 0 -33 9t-11 28v220h82zM173 -173q-4 6 -7 14.5t-3 17.5q0 17 8.5 25t23.5 8h246q4 -6 7 -14.5t3 -17.5q0 -17 -8.5 -25t-23.5 -8h-246z" />
    <glyph glyph-name="uni1E5F" unicode="&#x1e5f;" horiz-adv-x="393" 
d="M166 218h-80v152q0 23 8.5 36.5t28.5 26.5q26 17 71 29.5t100 12.5q80 0 80 -40q0 -10 -3 -18.5t-8 -14.5q-10 2 -26 4t-32 2q-46 0 -81 -9.5t-58 -22.5v-158zM166 252v-250q-5 -2 -15 -4.5t-22 -2.5q-21 0 -32 8.5t-11 27.5v233zM85 -173q-4 6 -7 14.5t-3 17.5
q0 17 8.5 25t23.5 8h246q4 -6 7 -14.5t3 -17.5q0 -17 -8.5 -25t-23.5 -8h-246z" />
    <glyph glyph-name="uni1E60" unicode="&#x1e60;" horiz-adv-x="531" 
d="M270 55q67 0 101.5 30.5t34.5 78.5q0 41 -26.5 68t-83.5 43l-87 26q-42 13 -73 33.5t-47.5 51t-16.5 71.5q0 77 56 120.5t149 43.5q54 0 96.5 -11.5t67 -29.5t24.5 -38q0 -13 -7 -23.5t-18 -16.5q-25 20 -67.5 35t-92.5 15q-58 0 -92 -25.5t-34 -69.5q0 -35 24.5 -57
t79.5 -38l61 -18q79 -22 124.5 -64t45.5 -116q0 -79 -57.5 -128t-161.5 -49q-61 0 -106.5 13.5t-71 34t-25.5 40.5q0 17 10.5 28.5t24.5 16.5q23 -22 65 -43.5t103 -21.5zM324 730q0 -22 -14 -35.5t-37 -13.5q-22 0 -36 13.5t-14 35.5q0 23 14 36.5t36 13.5q23 0 37 -13.5
t14 -36.5z" />
    <glyph glyph-name="uni1E61" unicode="&#x1e61;" horiz-adv-x="447" 
d="M401 123q0 -64 -47 -100t-136 -36q-76 0 -124 23.5t-48 51.5q0 12 6.5 23.5t19.5 18.5q27 -19 63 -35t82 -16q104 0 104 70q0 29 -17.5 47.5t-51.5 26.5l-83 22q-61 15 -89 46.5t-28 78.5q0 53 43 92t131 39q47 0 82 -9.5t54.5 -25t19.5 -33.5q0 -13 -6.5 -23t-17.5 -15
q-12 8 -30.5 17.5t-43.5 16t-55 6.5q-44 0 -71 -17t-27 -48q0 -22 15.5 -38.5t49.5 -24.5l69 -17q68 -16 102 -50.5t34 -90.5zM270 607q0 -22 -14 -35.5t-37 -13.5q-22 0 -36 13.5t-14 35.5q0 23 14 36.5t36 13.5q23 0 37 -13.5t14 -36.5z" />
    <glyph glyph-name="uni1E62" unicode="&#x1e62;" horiz-adv-x="531" 
d="M270 55q67 0 101.5 30.5t34.5 78.5q0 41 -26.5 68t-83.5 43l-87 26q-42 13 -73 33.5t-47.5 51t-16.5 71.5q0 77 56 120.5t149 43.5q54 0 96.5 -11.5t67 -29.5t24.5 -38q0 -13 -7 -23.5t-18 -16.5q-25 20 -67.5 35t-92.5 15q-58 0 -92 -25.5t-34 -69.5q0 -35 24.5 -57
t79.5 -38l61 -18q79 -22 124.5 -64t45.5 -116q0 -79 -57.5 -128t-161.5 -49q-61 0 -106.5 13.5t-71 34t-25.5 40.5q0 17 10.5 28.5t24.5 16.5q23 -22 65 -43.5t103 -21.5zM323 -129q0 -22 -14.5 -36t-37.5 -14q-22 0 -36 14t-14 36t14 36t36 14q23 0 37.5 -14t14.5 -36z" />
    <glyph glyph-name="uni1E63" unicode="&#x1e63;" horiz-adv-x="447" 
d="M401 123q0 -64 -47 -100t-136 -36q-76 0 -124 23.5t-48 51.5q0 12 6.5 23.5t19.5 18.5q27 -19 63 -35t82 -16q104 0 104 70q0 29 -17.5 47.5t-51.5 26.5l-83 22q-61 15 -89 46.5t-28 78.5q0 53 43 92t131 39q47 0 82 -9.5t54.5 -25t19.5 -33.5q0 -13 -6.5 -23t-17.5 -15
q-12 8 -30.5 17.5t-43.5 16t-55 6.5q-44 0 -71 -17t-27 -48q0 -22 15.5 -38.5t49.5 -24.5l69 -17q68 -16 102 -50.5t34 -90.5zM273 -129q0 -22 -14.5 -36t-37.5 -14q-22 0 -36 14t-14 36t14 36t36 14q23 0 37.5 -14t14.5 -36z" />
    <glyph glyph-name="uni1E6C" unicode="&#x1e6c;" horiz-adv-x="523" 
d="M256 608h233q3 -4 6 -13t3 -19q0 -16 -8 -26.5t-23 -10.5h-206zM268 539h-234q-3 5 -6 14t-3 19q0 17 8 26.5t23 9.5h207zM302 566v-564q-5 -2 -15.5 -4.5t-21.5 -2.5q-22 0 -33 9t-11 28v534h81zM315 -129q0 -22 -14.5 -36t-37.5 -14q-22 0 -36 14t-14 36t14 36t36 14
q23 0 37.5 -14t14.5 -36z" />
    <glyph glyph-name="uni1E6D" unicode="&#x1e6d;" horiz-adv-x="372" 
d="M156 264v-138q0 -40 23 -56.5t63 -16.5q17 0 38 6t35 14q6 -6 11 -15t5 -21q0 -22 -26 -36t-72 -14q-70 0 -113.5 31t-43.5 103v143h80zM117 452h203q3 -4 6 -13t3 -19q0 -16 -8 -25t-22 -9h-182v66zM76 234v362q5 2 15.5 4.5t22.5 2.5q21 0 31.5 -8.5t10.5 -27.5v-333
h-80zM252 -129q0 -22 -14.5 -36t-37.5 -14q-22 0 -36 14t-14 36t14 36t36 14q23 0 37.5 -14t14.5 -36z" />
    <glyph glyph-name="uni1E6E" unicode="&#x1e6e;" horiz-adv-x="523" 
d="M256 608h233q3 -4 6 -13t3 -19q0 -16 -8 -26.5t-23 -10.5h-206zM268 539h-234q-3 5 -6 14t-3 19q0 17 8 26.5t23 9.5h207zM302 566v-564q-5 -2 -15.5 -4.5t-21.5 -2.5q-22 0 -33 9t-11 28v534h81zM131 -173q-4 6 -7 14.5t-3 17.5q0 17 8.5 25t23.5 8h246q4 -6 7 -14.5
t3 -17.5q0 -17 -8.5 -25t-23.5 -8h-246z" />
    <glyph glyph-name="uni1E6F" unicode="&#x1e6f;" horiz-adv-x="372" 
d="M156 264v-138q0 -40 23 -56.5t63 -16.5q17 0 38 6t35 14q6 -6 11 -15t5 -21q0 -22 -26 -36t-72 -14q-70 0 -113.5 31t-43.5 103v143h80zM117 452h203q3 -4 6 -13t3 -19q0 -16 -8 -25t-22 -9h-182v66zM76 234v362q5 2 15.5 4.5t22.5 2.5q21 0 31.5 -8.5t10.5 -27.5v-333
h-80zM73 -173q-4 6 -7 14.5t-3 17.5q0 17 8.5 25t23.5 8h246q4 -6 7 -14.5t3 -17.5q0 -17 -8.5 -25t-23.5 -8h-246z" />
    <glyph glyph-name="uni1E8E" unicode="&#x1e8e;" horiz-adv-x="550" 
d="M243 218q-28 42 -58.5 88.5t-60 94.5t-56 94.5t-47.5 86.5q4 11 15 21.5t29 10.5q19 0 29.5 -10t21.5 -30q13 -23 29.5 -51.5t34.5 -60t36 -62.5t33.5 -58t27.5 -47h4q35 58 64 110t56 102t53 100q6 4 15 5.5t16 1.5q19 0 28.5 -9t9.5 -25q0 -10 -15.5 -42.5t-43.5 -81
t-66 -109.5t-84 -129h-71zM319 257v-255q-5 -2 -15.5 -4.5t-21.5 -2.5q-22 0 -33 9t-11 28v225h81zM325 736q0 -22 -14 -35.5t-37 -13.5q-22 0 -36 13.5t-14 35.5q0 23 14 36.5t36 13.5q23 0 37 -13.5t14 -36.5z" />
    <glyph glyph-name="uni1E8F" unicode="&#x1e8f;" horiz-adv-x="489" 
d="M169 103q-17 32 -41 86.5t-49.5 122t-48.5 137.5q7 10 18.5 16t24.5 6q17 0 28 -9t18 -30q30 -84 63 -167t73 -172h4q21 42 44 105t44 133t35 132q7 3 15.5 5.5t18.5 2.5q17 0 28 -8.5t11 -25.5q0 -16 -9 -53.5t-24.5 -87t-36 -105t-44 -109t-47.5 -96.5
q-46 -85 -84 -130.5t-70 -45.5q-23 0 -35.5 12t-15.5 28q22 19 49.5 50.5t53 68t41.5 69.5q-17 5 -31.5 18t-32.5 47zM295 607q0 -22 -14 -35.5t-37 -13.5q-22 0 -36 13.5t-14 35.5q0 23 14 36.5t36 13.5q23 0 37 -13.5t14 -36.5z" />
    <glyph glyph-name="uni1E92" unicode="&#x1e92;" horiz-adv-x="557" 
d="M451 608h32q19 -16 19 -38q0 -14 -5.5 -25t-15.5 -25l-379 -520h-33q-8 7 -13.5 17t-5.5 21q0 14 5.5 25.5t15.5 24.5zM93 69h406q4 -5 7 -13.5t3 -19.5q0 -16 -8.5 -26t-22.5 -10h-388zM462 539h-395q-3 5 -6.5 14t-3.5 19q0 17 8.5 26.5t23.5 9.5h375zM325 -129
q0 -22 -14.5 -36t-37.5 -14q-22 0 -36 14t-14 36t14 36t36 14q23 0 37.5 -14t14.5 -36z" />
    <glyph glyph-name="uni1E93" unicode="&#x1e93;" horiz-adv-x="469" 
d="M61 0q-7 6 -11.5 15.5t-4.5 19.5q0 12 5.5 22.5t12.5 20.5l307 384h31q8 -7 12.5 -16t4.5 -20t-5 -21t-14 -21l-306 -384h-32zM390 396h-330q-3 5 -6 14t-3 19q0 17 8 25t22 8h309v-66zM67 65h349q3 -4 6 -12.5t3 -19.5q0 -16 -8 -24.5t-23 -8.5h-327v65zM279 -129
q0 -22 -14.5 -36t-37.5 -14q-22 0 -36 14t-14 36t14 36t36 14q23 0 37.5 -14t14.5 -36z" />
    <glyph glyph-name="uni1E97" unicode="&#x1e97;" horiz-adv-x="372" 
d="M156 264v-138q0 -40 23 -56.5t63 -16.5q17 0 38 6t35 14q6 -6 11 -15t5 -21q0 -22 -26 -36t-72 -14q-70 0 -113.5 31t-43.5 103v143h80zM117 452h203q3 -4 6 -13t3 -19q0 -16 -8 -25t-22 -9h-182v66zM76 234v362q5 2 15.5 4.5t22.5 2.5q21 0 31.5 -8.5t10.5 -27.5v-333
h-80zM75 693q0 -19 -14 -33.5t-36 -14.5q-21 0 -34.5 14.5t-13.5 33.5q0 20 13.5 34t34.5 14q22 0 36 -14t14 -34zM248 693q0 -19 -14.5 -33.5t-35.5 -14.5q-20 0 -34.5 14.5t-14.5 33.5q0 20 14.5 34t34.5 14q21 0 35.5 -14t14.5 -34z" />
    <glyph glyph-name="uni1E9E" unicode="&#x1e9e;" horiz-adv-x="604" 
d="M80 285v112q0 72 29 122t80.5 76t119.5 26q53 0 93.5 -16t68 -38.5t41.5 -43.5q8 -11 12 -20t4 -20q0 -10 -6 -20t-21 -24l-125 -106q49 0 92 -19.5t70 -58t27 -96.5q0 -54 -22.5 -93.5t-64 -61t-100.5 -21.5q-52 0 -89.5 18t-37.5 44q0 12 6.5 24t19.5 17q17 -15 42 -25
t55 -10q45 0 77 28t32 80q0 57 -38.5 86.5t-96.5 29.5h-48q-10 8 -16.5 23t-6.5 31v3v3l167 151q-19 26 -51.5 46.5t-83.5 20.5q-40 0 -74 -17.5t-54.5 -52.5t-20.5 -87v-111h-80zM160 363v-365l-14 -3.5t-21 -2.5q-22 0 -33.5 9.5t-11.5 27.5v334h80z" />
    <glyph glyph-name="uni1EA0" unicode="&#x1ea0;" horiz-adv-x="592" 
d="M294 542q-15 -42 -35.5 -100t-42 -119.5t-40.5 -114.5l-5 -15l-15 -45t-19 -56.5t-19 -55t-14 -41.5q-7 -3 -14.5 -4.5t-18.5 -1.5q-16 0 -28.5 8.5t-12.5 27.5q0 9 3 18.5t7 20.5q12 34 29.5 83t38.5 107t44 119t45 119t41 106q8 4 24 8t33 4q20 0 38.5 -6t23.5 -20
q24 -58 51.5 -131.5t55.5 -153t53.5 -154.5t45.5 -136q-7 -9 -18.5 -14.5t-25.5 -5.5q-19 0 -29 8.5t-17 28.5l-55 163l-8 28q-20 61 -41.5 123t-40 115t-30.5 87h-4zM158 226h279l16 -67h-321zM350 -129q0 -22 -14.5 -36t-37.5 -14q-22 0 -36 14t-14 36t14 36t36 14
q23 0 37.5 -14t14.5 -36z" />
    <glyph glyph-name="uni1EA1" unicode="&#x1ea1;" horiz-adv-x="499" 
d="M240 52q42 0 69.5 8.5t39.5 16.5v145l-124 -13q-52 -4 -77 -23t-25 -55q0 -37 29.5 -58t87.5 -21zM239 475q87 0 138 -39t51 -123v-237q0 -22 -8.5 -33.5t-25.5 -21.5q-24 -13 -64 -24t-90 -11q-94 0 -145.5 37t-51.5 107q0 65 43.5 99.5t120.5 41.5l142 14v28
q0 50 -30 73t-81 23q-41 0 -78.5 -12t-66.5 -27q-8 7 -14.5 16.5t-6.5 19.5q0 26 29 40q27 14 62.5 21.5t75.5 7.5zM300 -129q0 -22 -14.5 -36t-37.5 -14q-22 0 -36 14t-14 36t14 36t36 14q23 0 37.5 -14t14.5 -36z" />
    <glyph glyph-name="uni01CD" unicode="&#x1cd;" horiz-adv-x="592" 
d="M294 545q-15 -42 -35.5 -100t-42 -119.5t-40.5 -114.5l-5 -15l-15 -45t-19 -56.5t-19 -55t-14 -41.5q-7 -3 -14.5 -4.5t-18.5 -1.5q-16 0 -28.5 8.5t-12.5 27.5q0 9 3 18.5t7 20.5q12 34 29.5 83t38.5 107t44 119t45 119t41 106q8 4 24 8t33 4q20 0 38.5 -6t23.5 -20
q24 -58 51.5 -131.5t55.5 -153t53.5 -154.5t45.5 -136q-7 -9 -18.5 -14.5t-25.5 -5.5q-19 0 -29 8.5t-17 28.5l-55 163l-8 28q-20 61 -41.5 123t-40 115t-30.5 87h-4zM158 229h279l16 -67h-321zM296 721q17 18 40 42t48 51q18 -1 31 -10t13 -23q0 -12 -7.5 -21t-18.5 -20
l-60 -60q-11 -10 -21.5 -15t-24.5 -5q-15 0 -26.5 6t-22.5 19l-83 88q0 19 9 29t24 10q11 0 21.5 -6t23.5 -22z" />
    <glyph glyph-name="uni01CE" unicode="&#x1ce;" horiz-adv-x="499" 
d="M240 52q42 0 69.5 8.5t39.5 16.5v145l-124 -13q-52 -4 -77 -23t-25 -55q0 -37 29.5 -58t87.5 -21zM239 475q87 0 138 -39t51 -123v-237q0 -22 -8.5 -33.5t-25.5 -21.5q-24 -13 -64 -24t-90 -11q-94 0 -145.5 37t-51.5 107q0 65 43.5 99.5t120.5 41.5l142 14v28
q0 50 -30 73t-81 23q-41 0 -78.5 -12t-66.5 -27q-8 7 -14.5 16.5t-6.5 19.5q0 26 29 40q27 14 62.5 21.5t75.5 7.5zM255 583l88 97q20 -1 31.5 -10.5t11.5 -23.5q0 -11 -7 -20t-18 -21l-63 -64q-10 -10 -20 -15t-24 -5q-9 0 -17.5 3t-16 9t-15.5 14l-85 93q0 10 4 18.5
t11.5 14t17.5 5.5q13 0 21.5 -5.5t19.5 -18.5z" />
    <glyph glyph-name="uni1EA2" unicode="&#x1ea2;" horiz-adv-x="592" 
d="M294 545q-15 -42 -35.5 -100t-42 -119.5t-40.5 -114.5l-5 -15l-15 -45t-19 -56.5t-19 -55t-14 -41.5q-7 -3 -14.5 -4.5t-18.5 -1.5q-16 0 -28.5 8.5t-12.5 27.5q0 9 3 18.5t7 20.5q12 34 29.5 83t38.5 107t44 119t45 119t41 106q8 4 24 8t33 4q20 0 38.5 -6t23.5 -20
q24 -58 51.5 -131.5t55.5 -153t53.5 -154.5t45.5 -136q-7 -9 -18.5 -14.5t-25.5 -5.5q-19 0 -29 8.5t-17 28.5l-55 163l-8 28q-20 61 -41.5 123t-40 115t-30.5 87h-4zM158 229h279l16 -67h-321zM302 834q25 0 46.5 -9t34.5 -27t13 -45q0 -35 -22 -52.5t-51 -20.5v-20
q-4 -2 -11.5 -4t-18.5 -2q-15 0 -23 4.5t-8 12.5v27q0 14 6.5 20.5t20.5 6.5h7q37 0 37 27q0 11 -8.5 19.5t-28.5 8.5q-13 0 -25.5 -4.5t-23.5 -10.5q-7 3 -14 10t-7 19q0 20 25 30t51 10z" />
    <glyph glyph-name="uni1EA3" unicode="&#x1ea3;" horiz-adv-x="499" 
d="M240 52q42 0 69.5 8.5t39.5 16.5v145l-124 -13q-52 -4 -77 -23t-25 -55q0 -37 29.5 -58t87.5 -21zM239 475q87 0 138 -39t51 -123v-237q0 -22 -8.5 -33.5t-25.5 -21.5q-24 -13 -64 -24t-90 -11q-94 0 -145.5 37t-51.5 107q0 65 43.5 99.5t120.5 41.5l142 14v28
q0 50 -30 73t-81 23q-41 0 -78.5 -12t-66.5 -27q-8 7 -14.5 16.5t-6.5 19.5q0 26 29 40q27 14 62.5 21.5t75.5 7.5zM250 691q25 0 46.5 -9t34.5 -27t13 -45q0 -35 -22 -52.5t-51 -20.5v-20q-4 -2 -11.5 -4t-18.5 -2q-15 0 -23 4.5t-8 12.5v27q0 14 6.5 20.5t20.5 6.5h7
q37 0 37 27q0 11 -8.5 19.5t-28.5 8.5q-13 0 -25.5 -4.5t-23.5 -10.5q-7 3 -14 10t-7 19q0 20 25 30t51 10z" />
    <glyph glyph-name="uni1EA4" unicode="&#x1ea4;" horiz-adv-x="592" 
d="M491 915q19 -1 30 -11t11 -21q0 -13 -6 -21.5t-16 -19.5l-66 -72q-19 0 -29.5 9t-10.5 20q0 8 3 13.5t9 13.5zM294 545q-15 -42 -35.5 -100t-42 -119.5t-40.5 -114.5l-5 -15l-15 -45t-19 -56.5t-19 -55t-14 -41.5q-7 -3 -14.5 -4.5t-18.5 -1.5q-16 0 -28.5 8.5
t-12.5 27.5q0 9 3 18.5t7 20.5q12 34 29.5 83t38.5 107t44 119t45 119t41 106q8 4 24 8t33 4q20 0 38.5 -6t23.5 -20q24 -58 51.5 -131.5t55.5 -153t53.5 -154.5t45.5 -136q-7 -9 -18.5 -14.5t-25.5 -5.5q-19 0 -29 8.5t-17 28.5l-55 163l-8 28q-20 61 -41.5 123t-40 115
t-30.5 87h-4zM158 229h279l16 -67h-321zM298 741q-16 -17 -39.5 -41.5t-52.5 -50.5q-17 2 -28 10.5t-11 22.5q0 12 7.5 21t18.5 20l59 59q22 22 47 22q16 0 27 -6.5t23 -19.5l82 -93q0 -15 -9.5 -24.5t-24.5 -9.5q-11 0 -21 6t-24 22z" />
    <glyph glyph-name="uni1EA5" unicode="&#x1ea5;" horiz-adv-x="499" 
d="M448 791q19 -1 30.5 -11t11.5 -21q0 -13 -6 -21.5t-17 -19.5l-66 -72q-19 0 -29.5 9t-10.5 20q0 8 3 13.5t9 13.5zM255 618q-23 -28 -45.5 -51.5t-42.5 -46.5q-18 2 -30 11t-12 22q0 11 6.5 19.5t15.5 18.5l61 66q13 11 23.5 17t23.5 6q16 0 26.5 -6t20.5 -18l84 -100
q0 -13 -7.5 -23.5t-23.5 -10.5q-12 0 -19.5 5.5t-15.5 13.5zM240 52q42 0 69.5 8.5t39.5 16.5v145l-124 -13q-52 -4 -77 -23t-25 -55q0 -37 29.5 -58t87.5 -21zM239 475q87 0 138 -39t51 -123v-237q0 -22 -8.5 -33.5t-25.5 -21.5q-24 -13 -64 -24t-90 -11q-94 0 -145.5 37
t-51.5 107q0 65 43.5 99.5t120.5 41.5l142 14v28q0 50 -30 73t-81 23q-41 0 -78.5 -12t-66.5 -27q-8 7 -14.5 16.5t-6.5 19.5q0 26 29 40q27 14 62.5 21.5t75.5 7.5z" />
    <glyph glyph-name="uni1EA6" unicode="&#x1ea6;" horiz-adv-x="592" 
d="M355 878q1 17 10.5 27t22.5 10q12 0 20 -6.5t16 -16.5l71 -89q-2 -17 -11 -25t-19 -8q-9 0 -15.5 4t-13.5 12zM294 545q-15 -42 -35.5 -100t-42 -119.5t-40.5 -114.5l-5 -15l-15 -45t-19 -56.5t-19 -55t-14 -41.5q-7 -3 -14.5 -4.5t-18.5 -1.5q-16 0 -28.5 8.5
t-12.5 27.5q0 9 3 18.5t7 20.5q12 34 29.5 83t38.5 107t44 119t45 119t41 106q8 4 24 8t33 4q20 0 38.5 -6t23.5 -20q24 -58 51.5 -131.5t55.5 -153t53.5 -154.5t45.5 -136q-7 -9 -18.5 -14.5t-25.5 -5.5q-19 0 -29 8.5t-17 28.5l-55 163l-8 28q-20 61 -41.5 123t-40 115
t-30.5 87h-4zM158 229h279l16 -67h-321zM298 741q-16 -17 -39.5 -41.5t-52.5 -50.5q-17 2 -28 10.5t-11 22.5q0 12 7.5 21t18.5 20l59 59q22 22 47 22q16 0 27 -6.5t23 -19.5l82 -93q0 -15 -9.5 -24.5t-24.5 -9.5q-11 0 -21 6t-24 22z" />
    <glyph glyph-name="uni1EA7" unicode="&#x1ea7;" horiz-adv-x="499" 
d="M312 754q1 17 10.5 27t22.5 10q12 0 19.5 -6.5t16.5 -16.5l70 -89q-2 -17 -10.5 -25t-19.5 -8q-8 0 -14.5 4t-14.5 12zM240 52q42 0 69.5 8.5t39.5 16.5v145l-124 -13q-52 -4 -77 -23t-25 -55q0 -37 29.5 -58t87.5 -21zM239 475q87 0 138 -39t51 -123v-237
q0 -22 -8.5 -33.5t-25.5 -21.5q-24 -13 -64 -24t-90 -11q-94 0 -145.5 37t-51.5 107q0 65 43.5 99.5t120.5 41.5l142 14v28q0 50 -30 73t-81 23q-41 0 -78.5 -12t-66.5 -27q-8 7 -14.5 16.5t-6.5 19.5q0 26 29 40q27 14 62.5 21.5t75.5 7.5zM255 618q-23 -28 -45.5 -51.5
t-42.5 -46.5q-18 2 -30 11t-12 22q0 11 6.5 19.5t15.5 18.5l61 66q13 11 23.5 17t23.5 6q16 0 26.5 -6t20.5 -18l84 -100q0 -13 -7.5 -23.5t-23.5 -10.5q-12 0 -19.5 5.5t-15.5 13.5z" />
    <glyph glyph-name="uni1EA8" unicode="&#x1ea8;" horiz-adv-x="592" 
d="M449 918q32 0 56.5 -16t24.5 -52q0 -31 -20 -46t-46 -17v-23q-4 -2 -10 -3.5t-14 -1.5q-13 0 -18.5 4t-5.5 11v26q0 12 4 18t15 6h9q36 0 36 25q0 11 -8 18t-25 7q-12 0 -23 -4t-22 -11q-17 9 -17 28q0 14 19 22.5t45 8.5zM294 545q-15 -42 -35.5 -100t-42 -119.5
t-40.5 -114.5l-5 -15l-15 -45t-19 -56.5t-19 -55t-14 -41.5q-7 -3 -14.5 -4.5t-18.5 -1.5q-16 0 -28.5 8.5t-12.5 27.5q0 9 3 18.5t7 20.5q12 34 29.5 83t38.5 107t44 119t45 119t41 106q8 4 24 8t33 4q20 0 38.5 -6t23.5 -20q24 -58 51.5 -131.5t55.5 -153t53.5 -154.5
t45.5 -136q-7 -9 -18.5 -14.5t-25.5 -5.5q-19 0 -29 8.5t-17 28.5l-55 163l-8 28q-20 61 -41.5 123t-40 115t-30.5 87h-4zM158 229h279l16 -67h-321zM298 741q-16 -17 -39.5 -41.5t-52.5 -50.5q-17 2 -28 10.5t-11 22.5q0 12 7.5 21t18.5 20l59 59q22 22 47 22q16 0 27 -6.5
t23 -19.5l82 -93q0 -15 -9.5 -24.5t-24.5 -9.5q-11 0 -21 6t-24 22z" />
    </font>
</defs>
</svg>
