<?xml version="1.0" standalone="no"?>
<!DOCTYPE svg PUBLIC "-//W3C//DTD SVG 1.1//EN" "http://www.w3.org/Graphics/SVG/1.1/DTD/svg11.dtd" >
<svg xmlns="http://www.w3.org/2000/svg" xmlns:xlink="http://www.w3.org/1999/xlink" version="1.1">
<metadata>
Created by FontForge 20160407 at Mon Oct 31 13:59:32 2016
 By Jimmy Wärting
Copyright (c) 2016 by Chandan Acharja. All rights reserved.

Font Design &#38; Develop by Chandan Acharja,
Department of Graphic Design, Faculty of Fine Arts, University of Dhaka.
Web: www.charuchandan.com
Email: chandan0112@gmail.com
Cell: +8801956834106, +8801704580102
</metadata>
<defs>
<font id="CharuChandan3DUnicode" horiz-adv-x="0" >
  <font-face 
    font-family="Charu Chandan 3D Unicode"
    font-weight="400"
    font-stretch="normal"
    units-per-em="2048"
    panose-1="2 0 5 0 0 0 0 0 0 0"
    ascent="1638"
    descent="-410"
    x-height="1097"
    cap-height="1471"
    bbox="-1514.8 -1028 3218 2441"
    underline-thickness="70"
    underline-position="-385"
    unicode-range="U+000D-25CC"
  />
<missing-glyph horiz-adv-x="1340" 
d="M347 526l202 229l-200 226l106 100l29 -34l33 -32l131 -149q19 21 36.5 42t37.5 43q29 32 58 65.5t57 64.5l106 -100l-2 -2l60 -60l-200 -226l202 -229l-101 -96l-60 60l-2 -2l-138 155l-187 -213l-62 58zM459 1495l59 -59v-94h-260v-1258h201v-6l59 -59v-100h-350
l-59 59h-6v1523h356v-6zM842 1501h356v-6l59 -59v-1517h-350l-59 59h-6v106h260v1258h-195l-59 59h-6v100zM452 447l194 220l195 -220l83 80l-201 228l199 225l-84 80l-192 -218l-192 218l-84 -80l199 -225l-201 -228zM857 1416h260v-1347h-260v-76h326v1493h-326v-70z
M444 1486h-326v-1493h326v76h-260v1347h260v70z" />
    <glyph glyph-name=".notdef" horiz-adv-x="1340" 
d="M347 526l202 229l-200 226l106 100l29 -34l33 -32l131 -149q19 21 36.5 42t37.5 43q29 32 58 65.5t57 64.5l106 -100l-2 -2l60 -60l-200 -226l202 -229l-101 -96l-60 60l-2 -2l-138 155l-187 -213l-62 58zM459 1495l59 -59v-94h-260v-1258h201v-6l59 -59v-100h-350
l-59 59h-6v1523h356v-6zM842 1501h356v-6l59 -59v-1517h-350l-59 59h-6v106h260v1258h-195l-59 59h-6v100zM452 447l194 220l195 -220l83 80l-201 228l199 225l-84 80l-192 -218l-192 218l-84 -80l199 -225l-201 -228zM857 1416h260v-1347h-260v-76h326v1493h-326v-70z
M444 1486h-326v-1493h326v76h-260v1347h260v70z" />
    <glyph glyph-name="NULL" 
 />
    <glyph glyph-name="NULL" 
 />
    <glyph glyph-name="nonmarkingreturn" unicode="&#xd;" horiz-adv-x="744" 
 />
    <glyph glyph-name="space" unicode=" " horiz-adv-x="744" 
 />
    <glyph glyph-name="Charu_Chandan.002" unicode="!" horiz-adv-x="929" 
d="M433 89q0 42 11 71.5t30 47.5t45 26.5t56 8.5q38 0 69 -13.5t50 -45.5l43 -42q18 -18 28.5 -46t10.5 -69q0 -40 -11 -68.5t-29.5 -47t-44 -27t-54.5 -8.5t-55 9t-45 28l-43 43q-28 17 -44.5 49.5t-16.5 83.5zM508 401q-40 18 -32 86q7 73 18 258q2 27 3 63.5t1 72.5
q0 175 -18 456v-1q-3 13 -4 25.5t-1 25.5q0 99 102 99q21 0 50 -5.5t68 -18.5q0 -2 -0.5 -2.5t-0.5 -2.5l60 -59q-24 -167 -24 -435q0 -167 9 -380q4 -61 5.5 -106.5t1.5 -74.5q0 -62 -16 -65q-4 -1 -11 -1h-14q-5 0 -10.5 -0.5t-11.5 -0.5q-14 -1 -35 -0.5t-41 1.5h-11
q-24 1 -39 16zM448 89q0 -37 10 -63t27 -43t40 -25t50 -8q26 0 49.5 8t40.5 25t27 43t10 63q0 38 -10 64.5t-27 43t-40.5 24t-49.5 7.5q-27 0 -50 -7.5t-40 -24t-27 -43t-10 -64.5zM665 644q-23 549 14 808q-221 69 -184 -112q26 -412 14.5 -596t-18.5 -257.5t44.5 -76
t84.5 -1.5t46 2.5t-1 232.5z" />
    <glyph glyph-name="Charu_Chandan.003" unicode="&#x22;" horiz-adv-x="734" 
d="M520 1695l59 -59v-51l-6 -62v-165q0 -13 -10 -23q-67 -56 -99 -56h-14l-60 59h-4l-2 -3q-67 -56 -99 -56h-14l-59 59h-5l-8 19v33q6 40 6 63q3 40 3 80v40q-2 11 -2.5 22.5t-0.5 19.5q0 10 4.5 16t10.5 11q31 27 57.5 43t42.5 16h21v-6l54 -56l4 3q31 27 57.5 43t42.5 16
h21v-6zM505 1686h-6q-29 0 -91 -56q-9 -6 -9 -15q0 -17 3 -41v-41q0 -39 -3 -80q0 -24 -6 -65v-27l3 -8h6q29 0 91 53q6 6 6 14v166l6 62v38zM326 1686h-6q-29 0 -91 -56q-9 -6 -9 -15q0 -17 3 -41v-41q0 -39 -3 -80q0 -24 -6 -65v-27l3 -8h6q29 0 91 53q6 6 6 14v166l6 62
v38z" />
    <glyph glyph-name="Charu_Chandan.004" unicode="#" horiz-adv-x="1456" 
d="M619 563h6q60 0 117 0.5t126 2.5q4 89 6 154t3 117q-51 -1 -113 -3t-142 -5q-2 -56 -2.5 -105.5t-0.5 -98.5v-62zM859 346q-48 -1 -104.5 -2.5t-128.5 -3.5q3 -58 8 -112t11 -99q-67 -22 -107 -22q-46 0 -69 23l-48 48q-40 21 -40 84q0 11 1.5 26.5t4.5 28.5v12h-28
q-14 -3 -28.5 -4.5t-25.5 -1.5q-46 0 -69 23l-48 47q-40 21 -40 82q0 41 25 112q49 -7 105.5 -12t118.5 -8q3 78 4.5 139t2.5 112q-12 0 -23.5 -0.5t-21.5 -1.5q-14 -2 -25.5 -3.5t-23.5 -1.5q-50 0 -74 24l-48 47q-40 22 -40 83q0 42 25 113q49 -7 103 -12.5t123 -8.5
l-18 140q-9 86 59 91q22 1 44.5 1h33.5h22.5t16.5 -1q10 -3 13 -14l55 -54q9 -9 9 -56q0 -22 -0.5 -48.5t-2.5 -63.5h31h99.5t106.5 2q-5 39 -8.5 75.5t-6.5 66.5q-4 41 11.5 64.5t47.5 25.5q23 2 45 2.5t32 0.5q17 0 27.5 -0.5t17.5 -1.5q6 -1 9 -14l54 -53q10 -10 10 -60
q0 -20 -0.5 -42.5t-2.5 -53.5q67 3 105 3q29 0 44 -3.5t17 -14.5l56 -56q3 -3 3 -8q0 -6 0.5 -14.5t0.5 -22.5t-0.5 -33t-1.5 -46q-1 -32 -23.5 -46.5t-64.5 -9.5l-147 18q-2 -53 -2 -102v-97v-58q32 2 59 2.5t46 0.5q70 0 75 -17v-3l57 -56q2 -2 2 -4q3 -12 3 -40
q0 -26 -3 -78q-2 -31 -25.5 -44.5t-64.5 -9.5q-33 3 -65 6t-76 8q4 -57 8.5 -111t10.5 -99q-67 -22 -107 -22q-47 0 -70 23l-48 48q-41 22 -41 87q0 13 1 26t4 27v3q0 1 0.5 1.5t0.5 2.5zM547 548q-4 158 1 354q225 9 344 9q0 -123 -10 -360q-184 -5 -335 -3zM877 421
q-2 -52 -5 -107q-36 -183 171 -115q-12 94 -19 216q88 -10 155 -16q74 -8 77 43.5t3 76.5t-3 37t-234 0h-3q-4 157 1 350q90 -11 159 -19q74 -9 75.5 44.5t1.5 78.5t-1 37q-2 12 -230 -3q15 225 2 228q-14 2 -37.5 2t-76.5 -2.5t-45 -74.5q6 -67 18 -157q-184 -5 -334 -2
q15 234 3.5 235t-37 1t-78.5 -1t-44 -75q8 -67 19 -156q-133 6 -232 20q-71 -207 112 -172q66 3 125 6q-1 -122 -9 -344q-129 6 -228 19q-71 -207 112 -168q58 2 111 5q-2 -46 -4 -94q-39 -183 168 -115q-12 93 -18 214q208 7 325 8z" />
    <glyph glyph-name="Charu_Chandan.005" unicode="%" horiz-adv-x="1608" 
d="M448 1072q0 -12 0.5 -21.5t2.5 -18.5q10 0 23 5l8 3q30 15 54.5 40.5t44.5 59.5v-1q10 21 15.5 49.5t6.5 56.5l-5 18h-7q-14 0 -38 -6l-29 -16h1q-52 -39 -72 -114h-1q-3 -16 -3.5 -29.5t-0.5 -25.5zM1022 105q0 -11 0.5 -20.5t2.5 -17.5q5 1 11 2t12 3l8 3
q30 14 54.5 38.5t44.5 58.5v-1q10 23 15.5 52t6.5 57l-5 16q-2 0 -4 0.5t-4 0.5q-8 0 -17 -1t-20 -4l-29 -16q-49 -38 -71 -117h-1q-3 -16 -3.5 -29.5t-0.5 -24.5zM216 1176q17 222 218 270q54 2 94 -4.5t64 -19.5q34 -18 65.5 -42.5t53.5 -53.5l35 -34q11 -11 19.5 -21.5
t16.5 -22.5q41 -65 38 -149q-6 -101 -75 -173q-37 -37 -84.5 -59t-106.5 -27q-51 0 -109 21q-23 14 -42 29t-35 31l-28 27q-51 40 -79 85.5t-39 96.5zM790 211q17 218 218 268q54 2 94 -5t64 -20q33 -17 67 -42.5t56 -54.5l34 -33q19 -19 33 -40q41 -67 38 -149
q-6 -105 -75 -177q-74 -69 -190 -86q-53 0 -110 22q-23 14 -41.5 28.5t-34.5 30.5l-24 24q-54 40 -83 86.5t-40 95.5zM1284 1345q86 -46 115 -91l39 -38q36 -36 36 -73q0 -53 -73 -100q-319 -277 -632 -608q-157 -166 -247 -263t-114 -127q-26 -32 -52.5 -44.5t-50.5 -2.5
q-32 13 -54 36l-39 39q-25 17 -42 41q-28 38 -33 60q-2 6 11.5 23.5t37.5 43t57.5 57.5t72.5 67q111 108 218 213.5t204.5 203.5t183.5 185t154.5 159.5t117.5 127.5t73 87zM488 1331q110 29 130 -83q0 -65 -23 -115q-42 -74 -107 -107h-3l-6 -3q-32 -12 -53 -3h-6
q-20 9 -38 56q-15 45 -3 116q21 80 77 121zM1062 366q110 27 130 -83q0 -65 -23 -118q-42 -74 -107 -104h-3l-6 -3q-32 -11 -53 -5h-6q-20 11 -38 59q-15 41 -3 112q21 80 77 124zM237 1133q12 -57 47.5 -107t103.5 -92q56 -20 103 -20q113 11 184 82q65 68 71 166
q3 80 -36 142q-44 65 -124 104q-47 26 -148 23q-192 -47 -207 -254zM811 165q12 -53 47.5 -105t103.5 -93q56 -21 103 -21q113 15 184 83q65 68 71 169q3 79 -36 142q-44 65 -124 100q-47 27 -148 24q-192 -48 -207 -252zM1278 1331q-162 -216 -952 -977
q-178 -156 -173.5 -175.5t29.5 -55t66.5 -52t89 43t361 391t633.5 609.5q159 103 -54 216z" />
    <glyph glyph-name="Charu_Chandan.006" unicode="&#x26;" horiz-adv-x="1246" 
d="M449 1065q0 -31 8 -63t25 -67l16 13l61 46q45 36 63.5 78.5t18.5 91.5q0 43 -16 75q-22 8 -46 8q-62 0 -95 -51q-35 -51 -35 -131zM497 148q58 0 115 20.5t107 60.5l-255 338h-1q-69 -69 -92.5 -129t-23.5 -112q0 -43 8.5 -80t26.5 -67q46 -31 115 -31zM52 383
q0 63 17.5 120t48.5 104q30 43 75 89.5t105 94.5q-33 48 -57.5 90.5t-40.5 83t-23.5 80t-7.5 80.5q0 175 94 270q94 97 257 97q147 0 239 -95l25 -29l35 -35q90 -92 90 -226q0 -51 -10.5 -94t-31.5 -80.5t-52.5 -71.5t-72.5 -68l-103 -83l223 -294q26 55 40 124t14 150h202
v-6l59 -59q0 -275 -131 -451l188 -248h-269l-59 59h-4l-24 31q-72 -54 -153 -82.5t-172 -28.5q-197 0 -317 114l-35 34q-15 12 -29 26q-120 117 -120 304zM375 1127q0 82 37.5 138t104.5 56q65 0 102 -46t37 -111q0 -53 -18.5 -97t-69.5 -84l-103 -80q-45 64 -67.5 119
t-22.5 105zM497 133q-106 0 -165 72.5t-59 182.5q0 54 25 116.5t97 134.5l21 17l323 -430q-54 -46 -116 -69.5t-126 -23.5zM67 383q0 -181 115 -292.5t309 -111.5q95 0 179.5 32t159.5 94l79 -105h239l-179 236q67 86 100.5 196.5t33.5 242.5h-172q0 -84 -18 -158t-50 -132
l-6 -1l-296 390l111 90q80 66 121.5 136.5t41.5 168.5q0 129 -87 218.5t-228 89.5q-156 0 -246 -91.5t-90 -260.5q0 -82 33 -161t101 -176q-125 -98 -188 -190t-63 -215z" />
    <glyph glyph-name="Charu_Chandan.007" unicode="'" horiz-adv-x="747" 
d="M465 1695l59 -59v-51l-6 -62v-165q0 -13 -10 -23q-67 -56 -99 -56h-14l-59 59h-5l-8 19v33q6 40 6 63q3 40 3 80v40q-2 11 -2.5 22.5t-0.5 19.5q0 10 4.5 16t10.5 11q31 27 57.5 43t42.5 16h21v-6zM450 1686h-6q-29 0 -91 -56q-9 -6 -9 -15q0 -17 3 -41v-41q0 -39 -3 -80
q0 -24 -6 -65v-27l3 -8h6q29 0 91 53q6 6 6 14v166l6 62v38z" />
    <glyph glyph-name="Charu_Chandan.008" unicode="(" horiz-adv-x="921" 
d="M658 -278q-26 22 -50.5 44t-47.5 45q-45 39 -85.5 80t-78.5 86q-92 113 -149 236q-27 60 -48 131.5t-33 140.5q-10 54 -15.5 115t-5.5 121q0 17 0.5 35t1.5 36q2 78 13.5 155t31.5 148t49 140t68 136q85 146 183 235.5t213 140.5l4 4h51q-4 -4 -6 -5l60 -60
q-31 -26 -50.5 -43.5t-32.5 -30.5q-202 -184 -293 -424h1q-65 -257 -65 -497q0 -13 0.5 -26t0.5 -25q34 -365 260 -625q33 -32 68.5 -62.5t75.5 -59.5l-2 -2l60 -60q-91 -110 -160 -113q-5 0 -10.5 1t-8.5 3zM301 701q-8 270 64 552q93 246 296 430q24 24 58 53h-5l-3 -3
q-117 -50 -210.5 -137t-178.5 -233q-75 -131 -115 -272q-40 -144 -45 -299q-8 -160 19 -304q24 -144 80 -269q58 -123 146 -232q88 -104 195 -192q5 -3 13 -3q62 3 142 99q-406 298 -456 810z" />
    <glyph glyph-name="Charu_Chandan.009" unicode=")" horiz-adv-x="960" 
d="M582 753q0 119 -17 244t-50 258q-42 107 -105 202.5t-148 180.5q-12 10 -25.5 22t-30.5 26l-38 37l-32 28h62v-7l1 -1q118 -53 207 -136q15 -14 30 -30t29 -33l18 -17q43 -43 83.5 -98t80.5 -122q77 -136 116 -275q20 -71 31.5 -147t14.5 -155q1 -17 1.5 -36t0.5 -35
q0 -59 -5.5 -120t-15.5 -115q-12 -71 -32.5 -140.5t-48.5 -131.5q-30 -63 -67 -121t-82 -114q-44 -51 -92.5 -99.5t-104.5 -94.5q-12 -5 -21 -5q-51 3 -115 67l-25 25q-39 29 -83 83q97 72 175.5 163.5t137 195.5t96 218t53.5 232v25q0 7 0.5 14t0.5 12zM532 1253
q72 -282 64 -552q-51 -512 -456 -810q80 -96 141 -99q8 0 14 3q106 88 194 192q88 109 147 232q56 125 80 269q27 144 19 304q-6 155 -46 299q-40 141 -114 272q-86 146 -179 233t-211 137l-2 3h-6q35 -29 59 -53q203 -184 296 -430z" />
    <glyph glyph-name="Charu_Chandan.010" unicode="*" horiz-adv-x="1425" 
d="M786 1041q34 68 62 116t47 70l3.5 3.5l3.5 3.5q9 11 15 11q15 -5 34 -17l63 -41q15 -11 23 -25l48 -48q15 -15 15 -36q0 -24 -24 -55h1q-20 -26 -40 -52.5t-40 -52.5l-21 -27h1q-11 -14 -26.5 -40t-38.5 -64q29 1 58.5 1.5t58.5 2.5q54 3 97.5 4.5t71.5 1.5q68 0 71 -15
v-3l56 -56q2 -2 2 -3q1 -9 2 -19.5t1 -21.5q0 -24 -3 -76q-4 -63 -86 -54l-164 21h-1q-19 2 -55.5 3t-91.5 1h-56q35 -58 74 -121.5t84 -136.5h1q46 -52 46 -95q0 -76 -150 -104l-58 58q-2 -1 -5 -1q-49 119 -135 283l-64 -118t-62 -117h-1q-33 -93 -91 -93q-44 0 -102 58
l-30 29q-27 21 -63 62q45 57 93.5 129t102.5 160q-45 -1 -94 -2.5t-104 -3.5q-14 -2 -25.5 -3.5t-23.5 -1.5q-49 0 -71 23l-47 46q-39 21 -39 80q0 38 24 107q78 -11 180.5 -17.5t231.5 -8.5q-12 22 -25 42t-27 42q-8 14 -17 27.5t-17 27.5l-23 36q-65 99 -92.5 154
t-13.5 65l19 13l10 5l7 4l58 32q14 7 30 7q31 0 54 -36l44 -44q13 -13 24 -38l67 -152q11 -30 50 -99q15 26 30 54t31 57zM793 771q85 151 113 188q59 76 100.5 132t-1.5 84t-62 40t-31 16.5t-112 -196.5q-61 -112 -117 -210q-94 158 -112 202q-39 88 -67 152.5t-72.5 41
t-65 -35t-30.5 -19t113 -196.5q65 -105 121 -199q-270 3 -427 25q-68 -197 109 -162q184 6 325 9q-142 -237 -240 -365q136 -157 195 11q86 161 152 284q131 -234 190 -381q206 41 88 177q-98 157 -171 278q180 2 226 -4q96 -12 165 -20.5t72 43t3 75t-1.5 35.5t-225.5 0
q-126 -4 -237 -5z" />
    <glyph glyph-name="Charu_Chandan.011" unicode="+" horiz-adv-x="1422" 
d="M848 1205q-12 -82 -18.5 -186t-7.5 -233h41q38 0 66 1t47 3q61 6 115 11t90 10q69 8 87 -32l50 -49q15 -15 16 -41q3 -56 3 -80q0 -27 -3 -39q-5 -15 -67 -15q-30 0 -76 1.5t-109 5.5q-5 0 -13 0.5t-13 0.5q-125 4 -234 6q1 -108 6 -228q0 -7 0.5 -13t0.5 -13
q4 -59 6 -106t2 -76q0 -67 -18 -69l-38 -3q-14 -1 -33.5 -0.5t-46.5 2.5q-25 2 -39 16l-50 49q-39 20 -33 88q2 25 4.5 51t5.5 52l10 103q2 20 2.5 52t0.5 68v27q-124 -2 -226.5 -8t-183.5 -17l-60 59h-4q-13 36 -18.5 64.5t-5.5 48.5q0 97 101 97q12 0 25 -1.5t25 -3.5
l76 -4q78 -4 141.5 -7t125.5 -5q-2 75 -5.5 161.5t-8.5 188.5v-1q-6 28 -6 54q0 98 97 98q20 0 48.5 -5.5t65.5 -18.5q0 -2 -0.5 -2.5t-0.5 -2.5zM748 643q128 -2 273 -7q236 -14 239 -1t3 36.5t-3 78.5t-78 46t-205 -21q-62 -6 -229 -2q0 304 25 486q-213 71 -174 -115
q9 -214 14 -367q-151 5 -360 16q-186 35 -115 -174q181 24 478 24q3 -161 -2 -222q-12 -130 -19.5 -205.5t45.5 -78.5t78 -1.5t38.5 3t-1.5 237.5q-5 142 -7 267z" />
    <glyph glyph-name="Charu_Chandan.012" unicode="," horiz-adv-x="713" 
d="M204 -85l-5 -3q-2 61 11 113t39 94q26 38 56.5 68.5t59.5 45.5q22 11 45.5 16.5t32.5 5.5h11q11 -10 19 -19.5t16 -19.5l36 -36q34 -34 46 -72q0 -9 -2 -19l-3 -7v-2v1q39 -62 39 -153v-4q-14 -197 -284 -380q-12 0 -17 5l-55 55q-26 6 -2 33q81 75 127 142.5t57 121.5
q-1 11 -1.5 24t-2.5 27q-34 -41 -90 -65l1 -1q-23 -13 -46 -18q-6 -3 -16 -7t-12 -6zM531 -10q0 88 -37 147l-3 6l3 9q3 11 3 17q-12 37 -49 71h-5q-9 0 -30 -4.5t-41 -15.5q-57 -29 -109.5 -109.5t-49.5 -174.5q6 3 14 6q20 5 43 17h2q97 42 125 144l17 -22q37 -97 32 -182
q-17 -116 -188 -272q-8 -9 -3 -9q262 179 276 369v3z" />
    <glyph glyph-name="Charu_Chandan.013" unicode="-" horiz-adv-x="1227" 
d="M181 599q-20 59 -20 103q0 98 101 98q13 0 25 -1.5t25 -3.5h-1q220 -21 349 -21q23 0 47 0.5t41 2.5q23 2 50.5 4.5t51.5 5.5l103 10q65 6 87 -34l50 -49q14 -16 17 -39q2 -25 2.5 -45.5t0.5 -32.5q0 -26 -3 -41q-5 -15 -64 -15q-30 0 -77 2t-111 6q-54 4 -106.5 5.5
t-105.5 1.5q-98 0 -193 -6t-191 -19l-13 8l-51 51zM195 605q293 39 599 18q236 -15 239 -1.5t3 37t-3 78t-78.5 46t-205.5 -20.5t-439 18q-186 35 -115 -175z" />
    <glyph glyph-name="Charu_Chandan.014" unicode="." horiz-adv-x="503" 
d="M103 150q0 42 11 71.5t30 47.5t45 26.5t56 8.5q38 0 69 -13.5t50 -45.5l43 -42q18 -18 28.5 -46t10.5 -69q0 -40 -11 -68.5t-29.5 -47t-44 -27t-54.5 -8.5t-55 9t-45 28l-43 42q-28 17 -44.5 50t-16.5 84zM118 150q0 -37 10 -63t27 -43t40 -25t50 -8q26 0 49.5 8t40.5 25
t27 43t10 63q0 38 -10 64.5t-27 43t-40.5 24t-49.5 7.5q-27 0 -50 -7.5t-40 -24t-27 -43t-10 -64.5z" />
    <glyph glyph-name="Charu_Chandan.015" unicode="/" horiz-adv-x="1246" 
d="M925 1692q124 -16 157 -69l48 -48q22 -22 22 -54q0 -37 -36 -87q-123 -252 -239.5 -502.5t-229.5 -507.5q-113 -255 -175 -398.5t-73 -176.5q-26 -75 -75 -75q-45 0 -82 26q-12 8 -21.5 15.5t-16.5 14.5l-35 35q-14 9 -23.5 18.5t-15.5 17.5q-8 12 16 70.5t77 156.5
q146 312 265 571t206.5 457t142 332t72.5 195zM924 1677q-70 -246 -687 -1555q-105 -197 -94.5 -212t45 -38.5t75 -23.5t63.5 66.5t248 577t470 1011.5q106 144 -120 174z" />
    <glyph glyph-name="Charu_Chandan.016" unicode=":" horiz-adv-x="713" 
d="M221 1136q0 42 11 71.5t30 47.5t45 26.5t56 8.5q38 0 69 -13.5t50 -45.5l43 -42q18 -18 28.5 -46t10.5 -69q0 -40 -11 -68.5t-29.5 -47t-44 -27t-54.5 -8.5t-55 9t-45 28l-43 42q-28 17 -44.5 50t-16.5 84zM221 338q0 42 11 71.5t30 47.5t45 26.5t56 8.5q38 0 69 -13.5
t50 -45.5l43 -42q18 -18 28.5 -46t10.5 -69q0 -40 -11 -68.5t-29.5 -47t-44 -27t-54.5 -8.5t-55 9t-45 28l-43 42q-28 17 -44.5 50t-16.5 84zM236 338q0 -37 10 -63t27 -43t40 -25t50 -8q26 0 49.5 8t40.5 25t27 43t10 63q0 38 -10 64.5t-27 43t-40.5 24t-49.5 7.5
q-27 0 -50 -7.5t-40 -24t-27 -43t-10 -64.5zM236 1136q0 -37 10 -63t27 -43t40 -25t50 -8q26 0 49.5 8t40.5 25t27 43t10 63q0 38 -10 64.5t-27 43t-40.5 24t-49.5 7.5q-27 0 -50 -7.5t-40 -24t-27 -43t-10 -64.5z" />
    <glyph glyph-name="Charu_Chandan.017" unicode=";" horiz-adv-x="768" 
d="M206 483q0 46 12 78t32.5 51.5t48.5 28.5t61 9q41 0 74.5 -14.5t54.5 -47.5l42 -42q20 -20 31 -50t11 -75q0 -43 -12 -74t-32 -51t-48 -29.5t-59 -9.5q-32 0 -60 10t-48 30l-43 42q-30 19 -47.5 54.5t-17.5 89.5zM217 -85l-5 -3q-2 61 11 113t39 94q26 38 56.5 68.5
t59.5 45.5q22 11 45.5 16.5t32.5 5.5h11q11 -10 19 -19.5t16 -19.5l36 -36q34 -34 46 -72q0 -9 -2 -19l-3 -7v-1q39 -62 39 -153v-4q-14 -197 -284 -380q-12 0 -17 5l-55 55q-26 6 -2 33q81 75 127 142.5t57 121.5q-1 11 -1.5 24t-2.5 27q-34 -41 -90 -65l1 -1
q-23 -13 -46 -18q-6 -3 -16 -7t-12 -6zM221 483q0 -40 11 -68.5t29.5 -47.5t43.5 -27.5t55 -8.5q28 0 54 8.5t44.5 27.5t29.5 47.5t11 68.5q0 42 -11 71t-29.5 47t-44.5 26t-54 8q-30 0 -55 -8t-43.5 -26t-29.5 -47t-11 -71zM544 -10q0 88 -37 147l-3 6l3 9q3 11 3 17
q-12 37 -49 71h-5q-9 0 -30 -4.5t-41 -15.5q-57 -29 -109.5 -109.5t-49.5 -174.5q6 3 14 6q20 5 43 17h2q97 42 125 144l17 -22q37 -97 32 -182q-17 -116 -188 -272q-8 -9 -3 -9q262 179 276 369v3z" />
    <glyph glyph-name="Charu_Chandan.018" unicode="&#x3c;" horiz-adv-x="978" 
d="M116 461l-10 6v171l752 389v-8l59 -59v-220l-486 -234l427 -203v-5l59 -59v-220l-746 388zM843 810v192l-722 -374v-151l722 -376v192l-505 240l-65 14v6l65 14z" />
    <glyph glyph-name="Charu_Chandan.019" unicode="=" horiz-adv-x="1559" 
d="M257 784q-11 32 -15.5 58.5t-4.5 49.5q0 103 103 103q13 0 24.5 -1.5t23.5 -3.5h-1q298 -21 474 -21q70 0 121 3q84 6 151.5 11t103.5 9q32 2 53.5 -6.5t32.5 -29.5l49 -48q18 -18 19 -48q3 -65 3 -84q0 -22 -3 -35q-5 -15 -64 -15q-30 0 -77 2t-111 6q-91 4 -173.5 5.5
t-158.5 1.5q-142 0 -259 -6t-213 -19l-13 8l-51 51zM257 409q-11 32 -15.5 58.5t-4.5 49.5q0 103 103 103q13 0 24.5 -1.5t23.5 -3.5h-1q298 -21 474 -21q70 0 121 3q84 6 151.5 11t103.5 9q67 6 87 -35l49 -48q17 -17 18 -44q2 -30 2.5 -50t0.5 -34q0 -15 -0.5 -24
t-2.5 -16q-5 -15 -64 -15q-30 0 -77 2t-111 6q-91 4 -173.5 5.5t-158.5 1.5q-142 0 -259 -6t-213 -19l-13 8l-51 51zM271 415q293 39 807 18q236 -15 239 -1.5t3 37t-3 83t-78.5 51t-255.5 -20.5t-597 18q-186 35 -115 -185zM271 790q293 39 807 18q236 -15 239 -1.5t3 32
t-3 83t-78.5 56t-255.5 -20.5t-597 18q-186 35 -115 -185z" />
    <glyph glyph-name="Charu_Chandan.020" unicode="&#x3e;" horiz-adv-x="1012" 
d="M108 787l-9 5v223l773 -390v-5l59 -59v-166l-767 -388l-60 59l-5 -2v224l508 239l-443 205zM639 559l63 -15v-6l-63 -13l-525 -247v-189l743 375v152l-743 374v-188z" />
    <glyph glyph-name="Charu_Chandan.021" unicode="?" horiz-adv-x="1577" 
d="M674 -89q-2 2 -2 3zM623 -33q2 -3 5 -5zM590 59q0 40 12.5 66.5t34.5 41.5l-1 1l-4 4v-1l-48 53q-2 0 -2.5 0.5t-1.5 0.5q-49 53 -43 124q14 125 129 229q42 36 77.5 63.5t64.5 44.5l128 68q185 69 215 162q17 59 17 108q0 26 -4 51.5t-12 50.5q-12 29 -27.5 56.5
t-35.5 51.5q-67 55 -163 85l1 -1q-10 2 -19 2h-17q-77 0 -117 -45t-40 -131v-17t1 -18q17 -3 22 -16l49 -53q5 -7 5 -15q6 -40 10.5 -71t8.5 -54q4 -26 8 -46q-71 -82 -237 -106l-53 57h-3l-12 13q-20 31 -33.5 75.5t-18.5 100.5q-1 11 -1.5 23t-0.5 23q0 97 32 173q0 1 1 2
t1 2q13 45 43 90.5t74 87.5q47 42 114 67.5t152 31.5q177 12 317 -125q16 -16 29.5 -31t25.5 -32l18 -20q107 -118 107 -269v-18.5t-1 -17.5q-10 -124 -82 -193q-33 -32 -75 -57.5t-93 -45.5h1l-118 -56q-176 -79 -211 -183q-2 -14 -3.5 -26.5t-1.5 -23.5q0 -75 55 -139
l-47 51l46 -50l7 -7q-63 -40 -113 -61q29 -5 53 -18.5t38 -39.5l38 -41q14 -16 22.5 -38.5t8.5 -53.5q0 -36 -11 -60.5t-29.5 -40t-42.5 -22.5t-50 -7q-32 0 -59.5 9t-46.5 29l-8 9l2 -2l-34 36q-22 16 -35 42t-13 67zM605 59q0 -32 10.5 -54.5t26.5 -37t38 -20.5t49 -6
q24 0 46 6t38 20.5t26.5 37t10.5 54.5q0 33 -10.5 55t-26.5 36.5t-38 20.5t-46 6q-27 0 -49 -6t-38 -20.5t-26.5 -36.5t-10.5 -55zM1083 756q98 38 164.5 101.5t77.5 184.5q15 183 -122 316t-305.5 121t-257 -94.5t-112.5 -171.5l-3 -6q-38 -91 -29 -212q9 -109 50 -168
l3 -6q156 23 221 97l-26 165q0 12 -15 12q-21 3 -50 3q-33 154 19 230.5t176 61.5q224 -67 292 -259q35 -104 0 -219q-33 -100 -221 -171l-130 -68q-56 -32 -139 -106q-112 -101 -124 -219v-3q-6 -62 35 -106q77 -12 210 74q-71 77 -50 195q38 112 218 192z" />
    <glyph glyph-name="Charu_Chandan.022" unicode="@" horiz-adv-x="1720" 
d="M717 282q0 -95 21 -149q10 -3 22 -3q52 0 96 29.5t78 104.5v8.5t1 8.5v5q0 2 0.5 3.5t0.5 3.5l38 484q-6 1 -11.5 1.5t-10.5 0.5q-103 0 -159 -105.5t-73 -320.5q-3 -39 -3 -71zM103 715q25 127 72 237q26 62 58.5 117t71.5 103q214 265 565 265q332 0 517 -223l22 -21
q34 -34 61 -71q172 -229 172 -617v-29t-1 -30q-9 -220 -114 -379q-105 -162 -315 -162q-39 0 -73.5 15t-61.5 42l-35 35q-22 14 -39 34q-88 -125 -231 -125q-88 0 -149 61l-37 36q-44 32 -76 90q-51 96 -51 244q0 39 3 80q21 259 129 417q111 161 269 161q50 0 90.5 -7
t70.5 -20q28 -12 61 -33t73 -50h9l-1 -6l5 -4l55 -55l-1 -4l4 -3l-4 -4l-46 -579q-1 -13 -1.5 -26.5t-0.5 -24.5q0 -22 1 -39.5t5 -31.5h4q102 0 162 109q32 57 50.5 131t22.5 161q1 16 1 36v35q0 157 -32.5 284.5t-92.5 221.5l-33 40q-66 51 -150 78t-184 27
q-273 0 -438 -222q-166 -223 -180 -593q-1 -18 -1.5 -36t-0.5 -35q0 -157 34.5 -285.5t100.5 -226.5q4 -6 8 -11.5t8 -10.5q69 -63 156 -96t190 -33q74 0 155 21q82 21 151 63l3 -10l57 -57l41 -130q-34 -24 -75.5 -42t-88.5 -30q-45 -11 -92.5 -17.5t-91.5 -6.5
q-152 0 -275.5 49t-217.5 143l-15 15q-57 46 -105 108q-88 116 -133 272.5t-45 349.5v34t1 34q6 122 29 237zM646 416q17 219 76.5 328t167.5 109q28 0 53.5 -7t49.5 -18l-42 -535q-1 -11 -1.5 -18.5t-0.5 -13.5q-37 -83 -84.5 -114.5t-104.5 -31.5q-66 0 -95.5 79.5
t-18.5 221.5zM1567 509q14 424 -168.5 668.5t-528.5 244.5q-343 0 -553.5 -259.5t-227.5 -684.5q-16 -432 174 -681.5t539 -249.5q88 0 181 23.5t153 65.5l-34 107q-56 -34 -137.5 -55t-159.5 -21q-282 0 -434 220.5t-135 590.5q13 373 182.5 600t447.5 227q299 0 441 -210
t127 -586q-8 -182 -73.5 -299t-176.5 -117q-40 0 -65 42.5t-17 157.5l46 577h-5l3 3q-72 55 -130.5 81t-155.5 26q-151 0 -256.5 -154.5t-126.5 -409.5q-17 -196 47.5 -316t185.5 -120q82 0 145 42.5t106 128.5q19 -82 69 -127t120 -45q203 0 305.5 157t111.5 373z" />
    <glyph glyph-name="Charu_Chandan.023" unicode="[" horiz-adv-x="902" 
d="M144 -20v27q0 10 0.5 16.5t2.5 11.5v8q7 138 10.5 270.5t5.5 264.5q-2 41 -2.5 106.5t-0.5 143.5v37q0 77 3 283v144q1 29 1 59v62q0 64 -1 133.5t-3 147.5v16l-10 10h-4q-32 32 -32 78q0 9 1 19t3 21q8 6 17.5 8t20.5 2h294q138 0 260 -90q15 -15 25 -30l35 -34
q41 -41 35 -61q-12 -7 -38 -7h-401v-317l6 -527q2 -112 4 -229.5t4 -229.5l17 -17l7 -17l8 -225q2 -10 2.5 -18.5t0.5 -13.5v-7l5 -60q171 -3 293 -90q19 -17 27 -31l39 -39q31 -30 27 -49q-13 -13 -39 -13h-375q-13 0 -28 3q-18 -3 -59 -3q-22 0 -38 14l-21 21h-6
q-13 3 -25 7t-22 8l-57 57l-8 3q0 10 1.5 26t3.5 30v17l3 16zM151 -61l-3 -16v-16q-5 -33 -5 -44q11 -5 38 -11l16 -2l11 -17q11 -16 35 -16q25 0 0 5h14l11 6l11 -3q32 -8 51 -8h375q22 0 27 5q3 14 -27 41q-122 87 -296 87h-52l-5 35q-5 36 -11 101v8q0 8 -3 30
q-5 139 -8 226q-3 8 -5 10l-19 14l-8 470q-3 223 -6 527v329h413q22 0 27 3q3 10 -27 40q-122 90 -255 90h-294q-19 0 -24 -3q-11 -65 19 -95h24v-41q6 -231 3 -402v-144q-5 -274 -3 -320v-3q0 -166 3 -247v-3q-3 -258 -16 -532v-11q-3 -3 -3 -25v-27z" />
    <glyph glyph-name="Charu_Chandan.024" unicode="\" horiz-adv-x="1108" 
d="M240 1693q0 -3 2 -7l58 -58q74 -256 688 -1561l1 -1q107 -203 93 -225q-13 -18 -48 -41q-18 -12 -39 -19t-43 -7q-23 0 -42 19l-46 46q-31 16 -51 71q-14 38 -76.5 182.5t-171.5 392.5q-113 257 -229.5 507.5t-239.5 502.5q-36 50 -36 88q0 84 180 110zM916 122
q-617 1309 -687 1555q-226 -30 -120 -174q245 -501 470 -1011.5t248 -577t63.5 -66.5t75 23.5t45 38.5t-94.5 212z" />
    <glyph glyph-name="Charu_Chandan.025" unicode="]" horiz-adv-x="922" 
d="M123 1689q-5 1 -8 5q-6 22 36 64q121 90 260 90h294q23 0 38 -10q0 -4 1 -5l58 -58q2 -11 3 -21t1 -18q0 -45 -30 -75h-16v-29q-2 -78 -3 -147.5t-1 -133.5v-62t1 -59v-144q1 -47 1.5 -90.5t1 -80.5t0.5 -65.5v-46.5v-40q0 -165 -3 -250q2 -127 5.5 -262.5t10.5 -269.5
v-9q3 -9 3 -27v-27l8 -39l3 -16v-16q2 -16 3.5 -29t1.5 -25q-10 -4 -22 -8t-25 -7l-12 -1l-8 -12q-15 -22 -45 -22q-38 0 -54 3q-17 -3 -33 -3h-375q-26 0 -39 13l-52 52q-4 2 -7.5 4.5t-5.5 4.5q-4 22 34 58q126 90 304 90h38l4 21q3 18 6 43t5 57v8q0 5 0.5 14t2.5 18
q1 26 1.5 56t2.5 56l4 114l7 17l17 13q1 54 1.5 116t2.5 116l4 230l6 527v255h-336q-28 0 -38 7zM702 -20v27q0 22 -3 25v11q-13 274 -16 532v3q3 81 3 247v3q2 46 -3 320v144q-3 171 3 402v41h24q30 30 19 95q-5 3 -24 3h-294q-133 0 -255 -90q-30 -30 -27 -40q5 -3 27 -3
h413v-329q-3 -304 -6 -527l-8 -470l-19 -14q-2 -2 -5 -10q-3 -87 -8 -226q-3 -22 -3 -30v-8q-5 -65 -11 -101l-5 -35h-52q-174 0 -296 -87q-30 -27 -27 -41q5 -5 27 -5h375q19 0 51 8l11 3l11 -6h12q-23 -5 2 -5q24 0 35 16l11 17l16 2q27 6 38 11q0 11 -5 44v16l-3 16z" />
    <glyph glyph-name="Charu_Chandan.026" unicode="{" horiz-adv-x="959" 
d="M152 770q-6 5 -12 9.5t-12 9.5q60 19 107.5 38t71.5 33q38 26 60 68.5t20 94.5q-5 105 -70 270q-27 69 -27 129q0 35 9 67t26 62q64 116 243 202q43 20 83 29t78 9q14 0 25.5 -1t22.5 -4v-5l59 -59v-22q-155 -42 -272 -151h-1q-63 -65 -63 -139q0 -29 9 -59
q72 -227 81 -304q6 -26 6 -53q0 -145 -201 -281l6 -8l31 -30q74 -74 98 -169q23 -90 23 -219q0 -43 -3 -91q-12 -125 -12 -193q0 -10 -0.5 -18t0.5 -16l1 -1q8 -38 26 -70q53 -41 133 -66l-9 -2l60 -60l-55 -15q-4 -2 -7.5 -3t-5.5 -2q-63 -24 -98 -24q-38 0 -72 8
q-37 11 -63 37l-40 40q-43 28 -67 86q-13 32 -20 74.5t-7 93.5q0 19 1 39.5t3 42.5q5 57 8 107t3 93q0 45 -3.5 84t-9.5 70q-16 60 -43.5 116t-68.5 103l-7 6zM494 1620q119 111 272 153q-13 3 -37 3q-71 0 -155 -37q-175 -84 -235 -195q-64 -106 -8 -246q66 -168 71 -274
q3 -121 -87 -177q-47 -29 -153 -63q129 -90 169 -280q24 -118 2 -358q-13 -161 22 -243q31 -77 97 -95q32 -8 69 -8q34 0 97 24q3 0 11 5q8 3 13 5q-142 43 -177 193q-5 68 11 232q10 187 -20 306t-144 206q-2 2 -5 2q253 164 209 333q-8 74 -80 303q-37 116 58 211z" />
    <glyph glyph-name="Charu_Chandan.027" unicode="|" horiz-adv-x="843" 
d="M454 166q-39 16 -31 83q7 70 18 248q2 27 2.5 65t0.5 78q0 100 -4 240.5t-13 326.5v-1q-2 13 -3.5 24.5t-1.5 23.5q0 96 99 96q19 0 47.5 -5.5t66.5 -17.5q0 -2 -0.5 -2.5t-0.5 -2.5l60 -59q-12 -80 -17.5 -196.5t-5.5 -271.5q0 -198 9 -457q3 -56 5 -97.5t2 -69.5
q0 -67 -18 -69l-44 -3q-17 -1 -37 -0.5t-46 2.5q-25 2 -38 15zM606 399q-23 668 13 918q-213 66 -177 -108q25 -535 14 -712.5t-18 -248t43 -73.5t81.5 -1.5t44 3t-0.5 222.5z" />
    <glyph glyph-name="Charu_Chandan.028" unicode="}" horiz-adv-x="966" 
d="M125 1788q13 3 43 3q76 0 162 -38q142 -69 211 -156l29 -29q39 -39 61 -80h-1q36 -60 36 -128q0 -59 -27 -128q-65 -165 -70 -271q-2 -59 21 -101q25 -14 70 -32.5t108 -38.5l-5 -4l60 -59q-69 -49 -116 -123t-67 -163q-12 -63 -12 -156q0 -42 2.5 -92t7.5 -107
q2 -22 3 -43.5t1 -41.5q0 -101 -26 -164q-17 -39 -44 -65.5t-62 -36.5q-34 -8 -72 -8q-18 0 -42 5.5t-56 18.5l-14 6l1 -1l-55 15l-58 58l-15 4q185 57 218 197v-1q1 8 1 17v20q0 68 -12 193q-3 48 -3 91q0 130 23 220q29 111 131 197q-11 8 -20 16.5t-17 17.5l-21 21
q-139 115 -139 234q0 31 7 55q5 37 25 114t55 190q9 30 9 58q0 29 -12.5 59t-32.5 57q-99 78 -221 111l-58 58q-3 0 -7 2v29zM131 1773q153 -42 272 -153q95 -95 58 -211q-71 -229 -79 -303q-45 -169 208 -333q-3 0 -5 -2q-114 -87 -144 -206t-20 -306q16 -164 11 -232
q-35 -150 -177 -193q5 -2 13 -5q8 -5 11 -5q63 -24 97 -24q37 0 69 8q66 18 98 95q34 82 21 243q-21 240 2 358q40 190 169 280q-105 34 -153 63q-90 56 -87 177q5 106 71 274q56 140 -8 246q-60 111 -234 195q-85 37 -156 37q-24 0 -37 -3z" />
    <glyph glyph-name="Charu_Chandan.029" unicode="&#x2013;" horiz-adv-x="1119" 
d="M121 521q-20 59 -20 103q0 98 101 98q13 0 25 -1.5t25 -3.5h-1q220 -21 349 -21q23 0 47 0.5t41 2.5q23 2 50.5 4.5t51.5 5.5l103 10q65 6 87 -34l50 -49q14 -16 17 -39q2 -25 2.5 -45.5t0.5 -32.5q0 -26 -3 -41q-5 -15 -64 -15q-30 0 -77 2t-111 6q-54 4 -106.5 5.5
t-105.5 1.5q-98 0 -193 -6t-191 -19l-13 8l-51 51zM135 527q293 39 599 18q236 -15 239 -1.5t3 37t-3 78t-78.5 46t-205.5 -20.5t-439 18q-186 35 -115 -175z" />
    <glyph glyph-name="Charu_Chandan.030" unicode="&#x2014;" horiz-adv-x="1232" 
d="M121 845q-19 54 -19 94q0 90 95 90q25 0 45 -4h-1q139 -10 246 -15t185 -5q57 0 99 3q75 5 132 10t89 9q30 3 51 -3.5t31 -24.5l51 -51q13 -13 15 -38q3 -51 3 -73q0 -14 -0.5 -22t-2.5 -14q-5 -15 -65 -15q-27 0 -68.5 1.5t-97.5 5.5q-76 4 -149.5 5.5t-139.5 1.5
q-125 0 -229.5 -6t-191.5 -17l-13 8l-51 51zM135 851q266 35 713 16q215 -13 218 -1t3 33.5t-3 71.5t-71.5 41.5t-222 -19t-532.5 16.5q-170 32 -105 -159z" />
    <glyph glyph-name="Charu_Chandan.031" unicode="&#x2018;" horiz-adv-x="715" 
d="M78 1430q13 197 285 383q29 0 26 -14l57 -56q7 -7 -11 -25q-167 -154 -183 -265q-2 -14 -1.5 -26.5t1.5 -26.5q35 43 96 71l43 17q8 3 17.5 8t16.5 8v-9l59 -58q4 -116 -51 -201q-54 -83 -114 -113h-1q-22 -13 -44 -17t-31 -4h-11l-8 7l-51 52h-4q-46 41 -57 82
q0 14 3 25l1 3q-19 31 -28.5 70.5t-9.5 84.5v4zM93 1426q0 -88 37 -148l3 -6l-3 -8q-3 -11 -3 -17q11 -37 48 -71h6q8 0 29.5 4.5t41.5 15.5q57 28 109.5 109t49.5 175q-6 -3 -14 -6q-20 -6 -43 -17h-3q-96 -43 -125 -145l-17 23q-37 96 -31 182q17 116 187 272q9 9 3 9
q-261 -179 -275 -369v-3z" />
    <glyph glyph-name="Charu_Chandan.032" unicode="&#x2019;" horiz-adv-x="798" 
d="M344 1472l-5 -2q-2 61 11 113t39 94q26 38 56.5 68.5t59.5 45.5q22 11 45.5 16.5t32.5 5.5h11q11 -10 19 -19.5t16 -19.5l36 -36q34 -34 46 -72q0 -9 -2 -19l-3 -7v-2v1q39 -62 39 -153v-4q-14 -197 -284 -380q-12 0 -17 5l-55 55q-26 5 -2 33q81 75 127 142.5t57 121.5
q-1 11 -1.5 23t-2.5 26q-34 -42 -90 -64h1q-23 -13 -46 -18q-6 -3 -16 -7t-12 -6zM671 1548q0 88 -37 147l-3 6l3 9q3 11 3 17q-12 37 -49 71h-5q-9 0 -30 -4.5t-41 -15.5q-57 -29 -109.5 -109.5t-49.5 -174.5q6 3 14 6q20 5 43 17h2q97 42 125 144l17 -22q37 -97 32 -182
q-17 -116 -188 -272q-8 -9 -3 -9q262 179 276 369v3z" />
    <glyph glyph-name="Charu_Chandan.033" unicode="&#x201c;" horiz-adv-x="1148" 
d="M88 1430q13 197 285 383q29 0 26 -14l57 -56q7 -7 -11 -25q-167 -154 -183 -265q-2 -14 -1.5 -26.5t1.5 -26.5q35 43 96 71l43 17q8 3 17.5 8t16.5 8v-9l48 -48q24 187 283 365q24 0 24 -14l56 -56q8 -8 -8 -24q-79 -75 -127 -143t-56 -123q-3 -27 0 -56q18 23 42 42
t54 33q10 5 23.5 10t25.5 9l29 8v-7l59 -59q2 -112 -53 -196t-113 -113q-22 -14 -44.5 -17.5t-31.5 -3.5h-11l-8 7l-51 52h-4q-46 41 -57 82q0 16 3 22q0 2 1 4v-1q0 1 0.5 1t0.5 1q-22 36 -31 82q-6 -32 -18 -61t-28 -55q-54 -83 -114 -113h-1q-22 -13 -44 -17t-31 -4h-11
q-3 2 -5.5 5t-4.5 5l-49 49h-4q-46 41 -57 82q0 14 3 25l1 3q-19 31 -28.5 70.5t-9.5 84.5v4zM496 1426q0 -88 37 -148l2 -6l-2 -8q-3 -12 -3 -17q11 -37 48 -71h6q8 0 29.5 4t41.5 16q56 28 108.5 109t50.5 174l-15 -5q-20 -6 -42 -17h-3q-97 -43 -125 -145l-17 23
q-37 96 -31 181q17 117 187 273q9 8 3 8q-261 -178 -275 -369v-2zM103 1426q0 -88 37 -148l3 -6l-3 -8q-3 -11 -3 -17q11 -37 48 -71h6q8 0 29.5 4.5t41.5 15.5q57 28 109.5 109t49.5 175q-6 -3 -14 -6q-20 -6 -43 -17h-3q-96 -43 -125 -145l-17 23q-37 96 -31 182
q17 116 187 272q9 9 3 9q-261 -179 -275 -369v-3z" />
    <glyph glyph-name="Charu_Chandan.034" unicode="&#x201d;" horiz-adv-x="1316" 
d="M805 1639l1 -1h-1v1zM1157 1737q35 -35 45 -70q0 -11 -3 -23h-1q0 -2 -0.5 -3t-0.5 -2q18 -30 28.5 -69t10.5 -84v-4q-13 -196 -283 -380q-12 0 -17 5l-55 55q-14 2 -13.5 11.5t12.5 21.5q77 73 124.5 141.5t57.5 121.5q1 13 0.5 26.5t-2.5 28.5q-35 -46 -92 -70
q-9 -4 -20 -8.5t-28 -9.5q-1 0 -8 -4.5t-16 -10.5l-54 54q-24 -187 -282 -362q-12 0 -17 5l-55 55q-26 5 -2 33q81 75 127 142.5t57 121.5q-1 11 -1.5 23t-2.5 26q-34 -42 -90 -64h1q-23 -13 -46 -18q-6 -3 -16 -7t-12 -6l-60 59l-5 -2q-2 61 11 113t39 94q26 38 56.5 68.5
t59.5 45.5q22 11 45.5 16.5t32.5 5.5h11q11 -10 19 -19.5t16 -19.5l36 -36q34 -34 46 -72q0 -9 -2 -19l-3 -7v-2q22 -34 31 -79q12 67 45 118q26 41 56 70t59 44q23 12 46 16.5t32 4.5h12q12 -11 21.5 -21.5t16.5 -21.5l23 -22l7 -8zM1162 1548q0 88 -37 147l-2 6l2 8
q3 12 3 17q-11 37 -48 71h-6q-8 0 -29.5 -4t-41.5 -15q-56 -29 -108.5 -110t-49.5 -174q5 3 14 5q20 6 42 17h3q97 43 125 145l17 -23q37 -96 31 -181q-17 -117 -187 -273q-9 -8 -3 -8q261 179 275 369v3zM770 1548q0 88 -37 147l-3 6l3 9q3 11 3 17q-12 37 -49 71h-5
q-9 0 -30 -4.5t-41 -15.5q-57 -29 -109.5 -109.5t-49.5 -174.5q6 3 14 6q20 5 43 17h2q97 42 125 144l17 -22q37 -97 32 -182q-17 -116 -188 -272q-8 -9 -3 -9q262 179 276 369v3z" />
    <glyph glyph-name="Charu_Chandan.035" unicode="&#x200c;" 
d="M-93 -239q-50 26 -41 119q10 106 27 372q2 40 3.5 95t1.5 117q0 151 -6.5 363.5t-19.5 491.5v-1q-9 42 -9 79q0 130 121 130q27 0 63.5 -8t82.5 -25q0 -2 -0.5 -2.5t-0.5 -2.5l60 -59q-17 -121 -26 -298.5t-9 -416.5q0 -146 3.5 -312.5t9.5 -357.5q5 -89 8 -154t3 -107
q0 -88 -21 -88q-3 0 -5.5 -0.5t-6.5 -0.5l-40 -3q-6 0 -13.5 -0.5t-15.5 -0.5q-30 0 -75 3q-28 1 -47 20zM93 106q-33 1003 21 1378q-281 100 -227 -162q38 -804 21 -1070.5t-27.5 -373t59.5 -110.5t103 -2t52 4t-2 336z" />
    <glyph glyph-name="Charu_Chandan.036" unicode="&#x200d;" 
d="M-407 1765q4 9 16 17.5t29 12.5q17 5 37 8.5t40 3.5q37 0 72 -7q69 -27 116 -65l101 -85l101 85q24 20 53 35.5t64 29.5q35 7 72 7q42 0 77 -12q17 -4 28.5 -12.5t16.5 -18.5l51 -51q6 -6 9 -14v-8q-7 -15 -25 -29h1l-230 -191l82 -67l87 -73q14 -12 25 -29l42 -41
q11 -11 22 -30q-11 -13 -30 -23t-45 -19q-24 -8 -49 -8q-35 0 -70 14q-27 10 -54.5 23.5t-47.5 27.5q-7 -105 -11 -243t-4 -296q0 -289 12 -662q5 -89 8 -154t3 -107q0 -88 -21 -88q-3 0 -5.5 -0.5t-6.5 -0.5l-40 -3q-6 0 -13.5 -0.5t-15.5 -0.5q-30 0 -75 3q-28 1 -47 20
l-47 47q-50 26 -41 119q10 106 27 372q2 40 3.5 95t1.5 117q0 136 -4.5 321.5t-15.5 426.5q-11 -5 -22 -9t-23 -8q-35 -14 -70 -14q-25 0 -49 8q-20 7 -37 16t-28 19l-46 46q-20 13 -27 26q7 17 27 35l119 98l113 94l-168 139l-45 45l-18 15q-9 8 -16 17t-15 22zM-395 1758
l2 -2q5 -11 20 -23l249 -207l-249 -206q-15 -12 -20 -23l-2 -2q14 -17 65 -33t111 6q69 24 115 62l3 2l2 -10q38 -804 21 -1070.5t-27.5 -373t59.5 -110.5t103 -2t52 4t-2 336q-27 825 5 1225l1 -1q46 -38 115 -62q60 -22 111 -6t65 33l-2 2q-5 11 -20 23l-250 206l250 207
q15 12 20 23l2 2l-2 2q-4 14 -34 20q-59 22 -144 5q-64 -25 -109 -61l-111 -92l-110 92q-45 36 -109 61q-85 17 -144 -5q-30 -6 -34 -20z" />
    <glyph glyph-name="Charu_Chandan.037" unicode="&#x25cc;" horiz-adv-x="1349" 
d="M1134 566q-15 7 -25 23q-14 22 -8 45q13 52 13 107q0 23 18 41q17 17 40 17q25 0 42 -16l9 -13l51 -51q15 -18 15 -41q0 -67 -14 -132q-9 -43 -54 -43h-5.5t-8.5 2l1 -1q-15 4 -26 15zM692 210q-6 24 9 45q7 9 15.5 15.5t20.5 9.5q27 5 52.5 13.5t50.5 19.5q21 9 44 1
t32 -29l46 -45l4 -4q5 -5 10 -15q5 -11 5.5 -21.5t-4.5 -21.5h-1q-8 -21 -27 -31q-31 -14 -62.5 -24t-64.5 -17h-1q-3 -2 -5.5 -1.5t-4.5 0.5q-25 0 -39 14l-50 50q-24 11 -30 41zM112 835q-17 9 -27 26q-9 22 -4 43q9 32 22 63t29 60q7 11 16 18.5t21 10.5q23 5 52 -10
q8 -6 16 -21l48 -48q11 -11 15 -25q2 -10 0.5 -21.5t-6.5 -20.5q-12 -22 -22.5 -47.5t-18.5 -51.5q-10 -40 -54 -40q-5 0 -8.5 0.5t-6.5 1.5q-12 3 -23 14zM254 1101q-15 20 -14 41q1 12 6.5 22t13.5 18q53 47 110 77q22 10 44 4q23 -6 35 -29l49 -49q4 -6 8 -13l2 -1
q10 -22 3 -42h1q-6 -22 -28 -34q-24 -12 -46 -27.5t-42 -32.5q-16 -14 -36 -14q-23 0 -39 16l-50 49q-5 3 -9 6.5t-9 8.5h1zM970 321q-16 19 -16 41q0 26 18 41q17 17 34 38t33 46q15 19 36 25q24 6 46 -9q16 -13 21 -24l48 -47q12 -10 15 -25q4 -25 -8 -45
q-17 -26 -38.5 -51.5t-46.5 -50.5q-16 -16 -38 -16t-39 17h-1l-51 50l-11 9zM81 574q-17 59 -22 132q-1 23 15 42q15 17 40 19q12 1 22.5 -3.5t18.5 -11.5q9 -9 13 -17l52 -51q12 -12 14 -33q2 -27 6.5 -54t12.5 -53q6 -21 -4 -42q-7 -12 -13 -17q8 -3 14.5 -8.5t12.5 -12.5
q3 -5 6.5 -9.5t8.5 -9.5l38 -37l7 -8q2 -4 8 -12l5 -4q10 -8 14 -18l47 -46h-1q2 -1 2.5 -2t2.5 -3q5 -6 8 -12t5 -13q6 6 16 11q21 9 44 1q24 -9 49.5 -16t53.5 -11q12 -2 21.5 -8.5t16.5 -14.5l4 -8l52 -51l4 -5q6 -8 9.5 -19.5t1.5 -21.5q-1 -20 -19 -34q-17 -13 -36 -13
h-8q-32 5 -64.5 14t-64.5 20q-11 4 -18 12l-49 48q-19 9 -28 30q-4 8 -4 12q-14 -13 -34 -13t-36 14q-8 7 -15 13.5t-15 14.5l-26 25l-8 7q-50 44 -90 98q-7 9 -9.5 21.5t-1.5 21.5q3 24 21 37q-14 3 -21 12l-51 50q-22 11 -28 37zM530 1219q-8 7 -13 15t-7 19
q-1 13 2.5 23.5t9.5 20.5q15 20 38 23q20 3 42.5 4.5t42.5 1.5q12 0 24.5 -0.5t23.5 -1.5q23 -2 39 -20l9 -13l51 -51q9 -10 12 -23q0 15 5 28q11 22 34 30t44 -1q27 -13 56.5 -31t57.5 -39q11 -10 17 -21l50 -49q12 -12 15 -29v-11t-1 -10q5 1 9 0.5t9 -1.5q21 -5 36 -24
l6 -10l47 -46l7 -8q18 -27 32.5 -57t26.5 -63q7 -20 -2 -42q-9 -20 -31 -28q-8 -4 -19 -4q-23 0 -37 14l-51 50q-19 10 -28 34q-9 22 -21.5 47t-26.5 48q-5 10 -8 23t0 21v3h-3q-19 0 -34 12l1 -1q-47 36 -93 56q-9 4 -17 12l-48 47q-20 10 -29 32q-2 4 -2 7v-7
q-1 -11 -6.5 -20t-13.5 -17q-8 -7 -19 -10t-21 -3q-9 1 -20.5 1.5t-20.5 0.5q-17 0 -32.5 -1.5t-32.5 -3.5q-4 -1 -10 -1q-20 0 -36 14q-1 0 -3 2l-4 4l3 -2l-47 46q-8 4 -13 10zM540 1230q12 -11 28 -11q3 0 6 1q55 8 111 3q18 -2 31 10q14 12 16 29q1 18 -11 32
q-11 14 -29 15q-65 5 -130 -4q-18 -2 -28 -17q-11 -14 -9 -32q3 -16 15 -26zM1101 904q10 -29 40 -29q8 0 15 3q17 6 24 22q8 16 2 33q-22 62 -58 117q-10 15 -27 18q-18 4 -33 -6q-15 -9 -18 -27q-4 -17 6 -32q30 -47 49 -99zM265 1110q13 -15 33 -15q16 0 28 11
q42 36 91 62q16 9 21 26q6 17 -3 33q-8 16 -25 21t-33 -3q-58 -31 -107 -74q-14 -12 -15 -30q-1 -17 10 -31zM271 308q12 -11 28 -11q20 0 32 15q12 14 11 32t-15 29q-42 37 -75 82q-10 14 -28 17t-32 -8q-15 -10 -17 -28q-3 -18 7 -32q39 -53 89 -96zM569 174q16 0 29 10
q12 11 14 27q3 18 -8 32t-29 17q-55 8 -106 28q-17 6 -33 -1q-17 -7 -23 -24q-7 -16 0 -33q8 -16 24 -23q61 -23 126 -33h6zM96 578q9 -31 42 -31q6 0 12 2q17 5 26 21q8 16 3 33q-15 53 -19 109q-1 18 -14 29q-13 12 -31 11t-30 -14t-11 -31q4 -66 22 -129zM981 331
q13 -13 31 -13t30 12q47 46 83 101q9 15 6 33q-4 17 -19 27t-33 6q-17 -4 -27 -19q-30 -47 -70 -86q-13 -12 -13 -30t12 -31zM940 1124q11 -9 26 -9q21 0 34 17q11 14 9 32q-3 18 -17 29q-52 40 -111 67q-17 7 -33 1q-17 -6 -25 -22q-7 -17 -1 -34q7 -16 23 -24
q50 -23 95 -57zM707 214q7 -35 42 -35q5 0 9 1q64 13 124 40q16 8 22 25q7 16 -1 33q-7 16 -24 22t-33 -1q-51 -23 -105 -34q-18 -4 -28 -19t-6 -32zM125 847q6 -2 12 -2q33 0 42 31q15 53 43 102q9 15 4 33q-5 17 -21 26q-15 8 -32 4q-18 -5 -27 -21q-32 -57 -50 -120
q-5 -17 3 -33q9 -15 26 -20zM1149 578q5 -1 10 -1q34 0 42 34q14 63 14 129v1q0 18 -12 31q-13 12 -31 12t-30 -12q-13 -13 -13 -31v-1q0 -56 -13 -110q-4 -17 6 -33q9 -15 27 -19z" />
    <glyph glyph-name="Charu_Chandan.038" unicode="&#x964;" horiz-adv-x="1005" 
d="M614 116q-39 16 -31 83q7 70 18 248q2 27 2.5 65t0.5 78q0 100 -4 240.5t-13 326.5v-1q-2 13 -3.5 24.5t-1.5 23.5q0 96 99 96q19 0 47.5 -5.5t66.5 -17.5q0 -2 -0.5 -2.5t-0.5 -2.5l60 -59q-12 -80 -17.5 -196.5t-5.5 -271.5q0 -198 9 -457q3 -56 5 -97.5t2 -69.5
q0 -67 -18 -69l-44 -3q-17 -1 -37 -0.5t-46 2.5q-25 2 -38 15zM766 349q-23 668 13 918q-213 66 -177 -108q25 -535 14 -712.5t-18 -248t43 -73.5t81.5 -1.5t44 3t-0.5 222.5z" />
    <glyph glyph-name="Charu_Chandan.039" unicode="&#x965;" horiz-adv-x="1175" 
d="M817 166q-39 16 -31 83q7 70 18 248q2 27 2.5 65t0.5 78q0 100 -4 240.5t-13 326.5v-1q-2 13 -3.5 24.5t-1.5 23.5q0 96 99 96q19 0 47.5 -5.5t66.5 -17.5q0 -2 -0.5 -2.5t-0.5 -2.5l60 -59q-12 -81 -17.5 -200.5t-5.5 -279.5q0 -97 1.5 -208t6.5 -237q4 -59 5.5 -102
t1.5 -71q0 -60 -17 -63l-44 -3q-17 -1 -37 -0.5t-46 2.5q-25 2 -38 15zM368 166q-39 16 -31 83q7 70 18 248q2 27 2.5 65t0.5 78q0 100 -4 240.5t-13 326.5v-1q-2 13 -3.5 24.5t-1.5 23.5q0 96 99 96q19 0 47.5 -5.5t66.5 -17.5q0 -2 -0.5 -2.5t-0.5 -2.5l60 -59
q-12 -80 -17.5 -196.5t-5.5 -271.5q0 -198 9 -457q3 -56 5 -97.5t2 -69.5q0 -67 -18 -69l-44 -3q-17 -1 -37 -0.5t-46 2.5q-25 2 -38 15zM520 399q-23 668 13 918q-213 66 -177 -108q25 -535 14 -712.5t-18 -248t43 -73.5t81.5 -1.5t44 3t-0.5 222.5zM968 399
q-22 668 14 918q-213 66 -177 -108q25 -535 14 -712.5t-18 -248t43 -73.5t81.5 -1.5t44 3t-1.5 222.5z" />
    <glyph glyph-name="Charu_Chandan.040" unicode="&#x981;" 
d="M-280 2154l79 -51q-87 -352 -311 -395q-151 -24 -300 86v2q-14 6 -27.5 16.5t-27.5 21.5q-102 102 -134 277l174 93l2 -12t1 -12l89 -81q2 67 36.5 96t84.5 29q38 0 65.5 -14.5t41.5 -46.5l76 -73l12 -11q5 17 5 26zM-387 2087q-5 -26 -29 -67q-44 -78 -108 -116
q-84 -44 -191 -12q-123 62 -138 265l-116 -61q20 -140 122 -241q111 -91 245 -67q207 43 283 334zM-707 2096q0 -29 7 -46.5t20.5 -29t30.5 -17.5t35 -6q20 0 36.5 6t27.5 17.5t18.5 29t7.5 46.5t-7 46.5t-18.5 29t-28 17.5t-36.5 6q-18 0 -35 -6t-30 -17.5t-20.5 -29
t-7.5 -46.5z" />
    <glyph glyph-name="Charu_Chandan.041" unicode="&#x982;" horiz-adv-x="1119" 
d="M418 971q7 -2 13 -2h11q11 0 22 2t22 5l9 3q83 37 128 115q11 25 18 59t8 65q-3 14 -7 27.5t-9 24.5q-11 3 -21 3q-28 0 -68 -14h1l-36 -19q-30 -23 -52.5 -55.5t-35.5 -73.5q-13 -40 -13 -80q0 -33 10 -59v-1zM1118 188l52 -52l7 -11q1 -37 -3.5 -70.5t-15.5 -61
t-28 -47.5t-40 -30q-11 -5 -21 -6.5t-18 -1.5q-11 0 -20 2t-17 10q-22 11 -58 47v-1l-50 46l-2 2l-2 2l-329 231q-63 42 -139 88t-163 94q-91 51 -157 89t-109 66l1 -1q-8 4 -14 10l-47 47q-1 0 -3 2h1q-25 14 -25 34q0 26 40 63q30 21 58 38t58 34q175 -134 333.5 -238
t294.5 -174h42q55 -38 94.5 -62t63.5 -35q43 -31 209 -102zM190 1111q0 287 256 352q61 2 106 -6t74 -23q84 -41 138 -110l30 -30q11 -11 21.5 -23t19.5 -26q46 -77 43 -170q-8 -116 -86 -197q-85 -85 -218 -99q-70 -3 -127 14t-103 63l-34 33q-37 28 -66 70q-50 74 -54 151
v1zM477 1332q160 58 187 -112q0 -75 -27 -132q-47 -85 -136 -123h-3l-7 -3q-41 -14 -81.5 -3.5t-64.5 71.5t3 147.5t92 134.5zM1103 187q-163 71 -208 102q-51 23 -156 95h-41q-279 143 -625 408q-58 -31 -106 -65q-54 -51 -17 -71q85 -55 265.5 -155t302.5 -182l330 -231
l54 -51q34 -34 55 -44q23 -21 67.5 -4t63 71.5t15.5 126.5zM205 1111q4 -75 51.5 -143t110.5 -93.5t144 -21.5q129 13 211 95q75 78 82 190q3 92 -41 163q-51 75 -143 119q-54 31 -170 28q-245 -62 -245 -337z" />
    <glyph glyph-name="Charu_Chandan.042" unicode="&#x983;" horiz-adv-x="877" 
d="M392 196q0 -14 1 -26t4 -23q16 0 31 7l8 3q33 16 59.5 43t47.5 63q11 25 17 55.5t7 60.5l-4 12l-4 12q-2 0 -5 0.5t-5 0.5q-15 0 -39 -6l-35 -19q-55 -41 -77 -123h-1q-3 -17 -4 -32t-1 -28zM392 954q0 -14 1 -26t4 -23q16 0 31 7l8 3q33 16 59.5 43t47.5 63q11 24 17 55
t7 61l-4 12l-4 12q-2 0 -5 0.5t-5 0.5q-15 0 -39 -6l-35 -19q-55 -41 -77 -123h-1q-3 -17 -4 -32t-1 -28zM150 1063q16 236 234 289q54 2 98 -5.5t71 -20.5q39 -20 72.5 -46t58.5 -59l31 -31q20 -20 38 -46q43 -74 40 -160q-6 -108 -80 -185q-81 -81 -205 -93q-58 0 -117 23
q-50 31 -84 66l-20 19q-57 43 -88.5 92t-42.5 104zM150 305q16 236 234 289q54 2 98 -5.5t71 -20.5q39 -20 72.5 -46t58.5 -59l31 -31q20 -20 38 -46q43 -74 40 -160q-6 -108 -80 -185q-81 -81 -205 -93q-58 0 -117 23q-50 31 -84 66l-20 19q-57 43 -88.5 92t-42.5 104z
M442 471q118 32 140 -89q0 -70 -25 -125q-45 -79 -115 -114h-3l-6 -3q-36 -13 -58 -4h-6q-22 10 -42 61q-16 48 -3 124q23 86 83 131zM442 1229q118 32 140 -89q0 -71 -25 -125q-45 -79 -115 -114h-3l-6 -3q-36 -13 -58 -4h-6q-22 10 -42 61q-16 48 -3 124q23 86 83 131z
M171 257q13 -60 51.5 -114t111.5 -99q60 -22 111 -22q121 12 198 89q70 73 76 178q3 86 -38 153q-48 70 -134 112q-51 28 -159 25q-207 -51 -223 -274zM171 1015q13 -60 51.5 -114t111.5 -99q60 -22 111 -22q121 12 198 89q70 73 76 178q3 86 -38 153q-48 70 -134 112
q-51 28 -159 25q-207 -51 -223 -274z" />
    <glyph glyph-name="Charu_Chandan.043" unicode="&#x985;" horiz-adv-x="2316" 
d="M-59 1431h1975l5 -414l-2 -370q-189 110 -302 118q-6 40 -59 155t-206 230q-210 127 -488 118q-103 0 -132.5 -19t-8.5 -34l20 -9v-26q33 -363 -23 -680v-3q47 -21 126.5 -16.5t141.5 36.5q30 207 -14 234l-62 21l-3 369q97 3 253.5 -63t243.5 -214.5t68 -311
t-147.5 -271.5t-302.5 -133q-36 -6 -68 -6q-474 15 -657 443l15 18q-24 83 -53 217q-124 20 -233 -27l-6 -15v-3q71 -225 183 -379q260 -325 689 -339q74 0 148 6q280 29 439 162q157 139 157 390v38q139 -15 266 -133l9 -9q-3 -224 -24 -400l-18 -139l59 -24q124 -9 148 21
q41 18 50 27q-23 91 -29 159l-6 188q0 3 -6 6l-21 9l-3 21q-3 203 0 390q3 118 3 293q3 260 3 339l3 30h319l-43 -74h-203l-2 -19q0 -80 -3 -338v-74t-0.5 -81.5t-1 -77t-1.5 -60.5q-1 -44 -1.5 -95t-0.5 -96q0 -49 0.5 -98t1.5 -99v-3l24 -23q3 -3 4 -6l2 -6l6 -188
q3 -34 11 -74t19 -88q-16 -16 -57 -35q-13 -11 -39 -17.5t-63 -6.5q-12 0 -26.5 0.5t-28.5 1.5l-69 28l-57 57l-8 3l19 150q10 84 16 183.5t8 203.5q-45 33 -91.5 52t-94.5 26v-24q0 -256 -161 -399q-162 -137 -446 -165q-74 -6 -149 -6q-376 12 -624 260l-12 11
q-34 29 -66 62t-61 71q-57 78 -103 174.5t-83 217.5l10 25q84 37 172 37q44 0 85 -7q0 -2 0.5 -4t0.5 -4l58 -57q14 -67 29 -127.5t27 -102.5l-14 -19q18 -43 39.5 -80.5t46.5 -71.5q95 -97 220 -150t275 -61q14 1 33 2.5t33 3.5q171 24 294 129q59 50 95.5 119t47.5 142
q2 14 3 30t1 28q0 128 -70 244q-14 23 -29 44.5t-32 40.5q-26 20 -54 35.5t-59 29.5q-75 32 -131.5 47.5t-104.5 14.5l2 -305q8 -5 16 -20l48 -48q25 -25 25 -101q0 -28 -3 -64t-10 -82q-34 -17 -72 -28t-80 -13t-77 3.5t-64 21.5l-55 55q-4 1 -10 5q18 106 27.5 212
t9.5 215q0 129 -12 261v13l-8 8l-4 2q-40 28 6 59q34 22 142 22h18q5 0 9.5 0.5t9.5 0.5q131 0 244.5 -30t213.5 -90q95 -72 152 -143l14 -13q74 -74 106 -145l38 -89q49 -11 106 -35.5t129 -66.5v84.5t1 85.5v40t0.5 47.5t0.5 47.5v40l-3 201q-1 32 -1.5 67.5t-0.5 71.5
h-2003zM9 1549h2450l-9 -15h-2450z" />
    <glyph glyph-name="Charu_Chandan.044" unicode="&#x986;" horiz-adv-x="2824" 
d="M-59 1431h1975l5 -414l-2 -370q-189 110 -302 118q-6 40 -59 155t-206 230q-210 127 -488 118q-103 0 -132.5 -19t-8.5 -34l20 -9v-26q33 -363 -23 -680v-3q47 -21 126.5 -16.5t141.5 36.5q30 207 -14 234l-62 21l-3 369q97 3 253.5 -63t243.5 -214.5t68 -311
t-147.5 -271.5t-302.5 -133q-36 -6 -68 -6q-474 15 -657 443l15 18q-24 83 -53 217q-124 20 -233 -27l-6 -15v-3q71 -225 183 -379q260 -325 689 -339q74 0 148 6q280 29 439 162q157 139 157 390v38q139 -15 266 -133l9 -9q-3 -224 -24 -400l-18 -139l59 -24q124 -9 148 21
q41 18 50 27q-23 91 -29 159l-6 188q0 3 -6 6l-21 9l-3 21q-3 203 0 390q3 118 3 293q3 260 3 339l3 30h380l6 -411l-3 -367l-6 -135q-3 -238 -23 -408l-18 -138l59 -24q132 -8 155 21q41 18 50 26q-23 91 -29 159l-6 182q0 3 -6 6l-20 9l-3 20q-3 217 0 402q3 118 3 291
q3 258 3 337l2 30h296l-43 -74h-180q-1 -4 -1 -9v-9q0 -79 -3 -337v-73t-0.5 -81.5t-1 -76.5t-1.5 -60q-1 -43 -1.5 -95t-0.5 -98q0 -51 0.5 -102t1.5 -105v-3l23 -22q3 -3 4 -6l2 -6l6 -182q3 -31 10.5 -72t20.5 -91q-8 -7 -22.5 -15.5t-35.5 -17.5q-27 -24 -111 -24
q-11 0 -25 0.5t-28 1.5l-69 28l-57 57l-8 3l19 149q9 84 15 188t8 219l6 135l3 367l-5 337h-293l-2 -19q0 -80 -3 -338v-74t-0.5 -81.5t-1 -77t-1.5 -60.5q-1 -44 -1.5 -95t-0.5 -96q0 -49 0.5 -98t1.5 -99v-3l24 -23q3 -3 4 -6l2 -6l6 -188q3 -34 11 -74t19 -88
q-16 -16 -57 -35q-13 -11 -39 -17.5t-63 -6.5q-12 0 -26.5 0.5t-28.5 1.5l-69 28l-57 57l-8 3l19 150q10 84 16 183.5t8 203.5q-45 33 -91.5 52t-94.5 26v-24q0 -256 -161 -399q-162 -137 -446 -165q-74 -6 -149 -6q-376 12 -624 260l-12 11q-34 29 -66 62t-61 71
q-57 78 -103 174.5t-83 217.5l10 25q84 37 172 37q44 0 85 -7q0 -2 0.5 -4t0.5 -4l58 -57q14 -67 29 -127.5t27 -102.5l-14 -19q18 -43 39.5 -80.5t46.5 -71.5q95 -97 220 -150t275 -61q14 1 33 2.5t33 3.5q171 24 294 129q59 50 95.5 119t47.5 142q2 14 3 30t1 28
q0 128 -70 244q-14 23 -29 44.5t-32 40.5q-26 20 -54 35.5t-59 29.5q-75 32 -131.5 47.5t-104.5 14.5l2 -305q8 -5 16 -20l48 -48q25 -25 25 -101q0 -28 -3 -64t-10 -82q-34 -17 -72 -28t-80 -13t-77 3.5t-64 21.5l-55 55q-4 1 -10 5q18 106 27.5 212t9.5 215q0 129 -12 261
v13l-8 8l-4 2q-40 28 6 59q34 22 142 22h18q5 0 9.5 0.5t9.5 0.5q131 0 244.5 -30t213.5 -90q95 -72 152 -143l14 -13q74 -74 106 -145l38 -89q49 -11 106 -35.5t129 -66.5v84.5t1 85.5v40t0.5 47.5t0.5 47.5v40l-3 201q-1 32 -1.5 67.5t-0.5 71.5h-2003zM9 1549h2971
l-9 -15h-2971z" />
    <glyph glyph-name="Charu_Chandan.045" unicode="&#x987;" horiz-adv-x="1459" 
d="M-166 1431h422q26 -224 -33 -552q17 -6 48 -6h17q101 -2 183 82q54 65 37 119l-48 37l-37 8q-8 164 -8 237v66q415 0 545 -210q116 -240 -27 -442t-459 -236h-9l-8 3h-17l-14 9q-65 51 -133 90q-5 3 -17 3q-39 0 -107 -11.5t-144 -61.5l223 -88q232 -113 503 -260v-20
q192 -93 367 -209l65 -45q23 -20 40 -31q33 8 81 73q29 57 27.5 91t-1.5 37q-91 25 -147 50l-9 6q-84 37 -152 73l-20 -14l-22 12q-142 62 -305 152l-113 62l155 51q181 43 294 148.5t141 286.5q14 141 -48 272.5t-184 217.5h640l-43 -74h-493l11 -14l22 -21
q36 -36 67.5 -79t52.5 -87q26 -54 38.5 -112t12.5 -115v-26.5t-2 -25.5q-14 -93 -50.5 -166t-93.5 -127.5t-132.5 -92t-167.5 -59.5h-1l-91 -30q83 -45 158.5 -83.5t137.5 -64.5l15 -8q5 3 10.5 7.5t10.5 7.5q34 -18 76 -38.5t84 -39.5l7 -5q29 -14 68.5 -26.5t87.5 -26.5
v-5l59 -59v-15t1 -30q2 -39 -29 -99q-52 -70 -92 -79q-26 17 -46 34q-15 11 -32.5 22.5t-32.5 22.5q-86 57 -179.5 110t-192.5 101l-44 44q-123 66 -234.5 123.5t-217.5 109.5h-1l-243 97l-58 57l-11 5q48 32 93.5 51.5t80.5 26.5q32 6 60.5 9t49.5 3q16 0 24 -5
q31 -18 67.5 -43t71.5 -52q2 -2 5 -2h18l6 -3h5q67 10 133 31.5t125 51.5t108 67.5t82 79.5q36 53 56 110.5t20 115.5q0 48 -13 97.5t-37 102.5v-1q-12 19 -27 36q-146 105 -431 108v-54q0 -33 0.5 -78.5t3.5 -111.5l28 -21q0 -2 0.5 -3t0.5 -3l58 -57q20 -66 -38 -135
q-86 -88 -192 -86h-17q-32 0 -62 11l-57 56l-9 4q22 125 33 228t11 188q0 18 -0.5 36t-1.5 35h-456zM-98 1549h1077q68 74 68 148q0 28 -11 59t-30 60q-53 34 -136 52q-101 21 -219 21q-26 0 -52.5 -1t-54.5 -3q-92 -6 -180 -26t-174 -53h1q-177 -89 -212 -54l-52 52
q-14 5 -19 19q-5 21 20 37.5t78 29.5q201 79 387 122t338 43q81 0 150 -12t121 -34q56 -20 107.5 -57t90.5 -83l27 -27q25 -25 45 -52q52 -64 52 -155q0 -21 -2.5 -42.5t-7.5 -43.5h314l-9 -15h-413l33 71q34 155 -39 240q-79 110 -203 150q-105 45 -266 45
q-308 0 -720 -164q-94 -22 -88 -48q14 -42 201 51q172 68 357 80.5t329 -17t203 -108.5q111 -158 -28 -300h-1092z" />
    <glyph glyph-name="Charu_Chandan.046" unicode="&#x988;" horiz-adv-x="1641" 
d="M3 222q0 -2 2 -2zM841 1308q86 -87 115 -187q65 67 114.5 126t84.5 110h-360q7 -7 13 -14l12 -14zM1800 1534h-629q57 147 -4.5 263.5t-191.5 172.5t-285 56q-239 0 -639 -158q-95 -32 -84 -46q0 -46 196 49q164 63 323 63q198 9 383 -58v-3q89 -37 152 -121
q69 -92 61 -181l-6 -37h-1207l9 15h1185l4 23q3 41 -11.5 84.5t-46.5 86.5l-18 21q-16 11 -32 21t-33 18h-1q-158 58 -330 58h-23.5t-23.5 -1q-157 0 -319 -62h1q-178 -85 -207 -56l-54 54q-16 6 -17 23q-5 14 21.5 30t72.5 33q94 36 185 65.5t174 50t155.5 32t129.5 11.5
q159 0 291 -57q100 -44 160 -122l22 -21l-3 2l11 -10q20 -20 37 -43t31 -49q33 -62 33 -135q0 -29 -6 -57h542zM1698 1357h-398q8 -5 16.5 -11t16.5 -12l50 -35l-3 -2l60 -60q-97 -78 -178.5 -157.5t-145.5 -158.5q-57 -70 -86.5 -153.5t-29.5 -177.5v-15t1 -15
q5 -104 31.5 -186t89.5 -145.5t156 -80t238 12.5l16 -20l93 -193q-261 17 -406 79.5t-202 121.5l-18 18q-197 151 -231 429q-132 -143 -238 -269t-189 -238h-20q-15 -2 -28.5 -3t-26.5 -1q-66 0 -100 27q-28 4 -54 16t-47 32l-42 42q-7 5 -13 9.5t-11 10.5q112 80 228.5 181
t239.5 225q112 112 180 205t90 152q11 46 11 81q0 65 -32 127q-9 19 -21 36.5t-26 34.5q-161 91 -290 91h-22t-21 -2q-7 -38 -7 -139q0 -22 -0.5 -43t0.5 -45q15 -9 20 -22l52 -51q12 -12 9 -27q-3 -18 -11.5 -40t-22.5 -48q-25 -32 -56 -57t-66 -41q-23 -11 -44.5 -15.5
t-41.5 -4.5q-11 0 -21 1t-22 5q-14 1 -21 9l-53 53q-25 10 -18 44q19 94 29 188.5t10 186.5v50h-305l43 74h273q17 -251 -35 -502q-6 -26 17 -29q55 -17 122.5 13t116.5 94q26 49 32 83q6 29 -78 43q-8 231 6 292q155 23 351 -90q81 -63 115 -135q52 -101 22 -219
t-273.5 -363t-456.5 -397q32 -29 86 -35q44 -37 150 -23h15q187 251 503 588q-11 -421 283 -609q230 -107 473 -112l-24 117q-329 -56 -475 133q-95 128 -105.5 341t118 370t312.5 307l-35 25q-28 24 -57 35q-20 14 -84 14q-80 -132 -285 -331q18 228 -210 390h1053z" />
    <glyph glyph-name="Charu_Chandan.047" unicode="&#x989;" horiz-adv-x="1769" 
d="M1918 1534h-652l34 54q60 138 -14 257t-182 152q-135 45 -298 45q-313 0 -725 -165q-103 -27 -87 -45q-7 -54 204 45q154 54 354 76.5t411 -40.5q201 -84 192 -304l-3 -75h-1188l9 15h1164l3 60q4 119 -61 200q-14 8 -28.5 15.5t-30.5 15.5l-1 1q-152 44 -298 44
q-55 0 -106 -6q-197 -22 -350 -75q-70 -33 -117 -49t-70 -16q-18 0 -27 9l-53 53q-16 7 -19 24q-3 10 2 18q5 10 22 19q26 15 73 29q202 79 388.5 122.5t341.5 43.5q78 0 157.5 -13t145.5 -33q40 -14 79.5 -42.5t73.5 -66.5l35 -35q17 -17 32 -36t29 -42q21 -35 32 -70
t11 -73q0 -48 -17 -97h543zM2529 1520l3 2q-1 -1 -3 -2zM1816 1357h-823l-2 -34q-7 -81 -10.5 -157.5t-3.5 -150.5q0 -77 3.5 -149.5t10.5 -143.5q227 85 367 375q21 -19 41.5 -40t40.5 -45l13 -12q87 -85 158 -216q88 -161 82 -346q-6 -191 -161 -341
q-77 -76 -186.5 -124.5t-234.5 -68.5q-83 -12 -168 -12q-101 0 -279 52q-92 35 -171.5 86.5t-148.5 120.5l-14 14q-52 45 -98 98q-187 232 -224 459q17 17 42.5 29.5t53.5 20.5q17 5 34 6.5t36 1.5q15 0 28.5 -1t26.5 -4l104 -35l19 -73l42 -152l-7 -7h1l-10 -13l5 -19l-1 1
q16 -51 37.5 -95t47.5 -84q87 -93 205.5 -153t261.5 -83q17 0 41.5 2t42.5 4q86 16 172 60t158 112q47 64 74.5 137.5t27.5 143.5q0 126 -73 265l-55 -65h-1q-69 -89 -165 -158q-48 -35 -91 -57.5t-77 -32.5q-39 -18 -80 -18q-55 0 -112 33l-22 19l-38 38l-27 23
q14 107 21 217.5t7 228.5q0 82 -3.5 167t-9.5 176h-862l43 74h829l3 -45q36 -454 -12 -812l18 -15q93 -54 180 -12q67 18 164.5 88.5t163.5 155.5l82 96q249 -367 27 -656q-154 -148 -340 -178q-45 -6 -88 -6q-487 66 -623 488l-6 24l13 18l3 3q-37 138 -46 165
q15 -3 -48 15q-57 12 -117 -3t-84 -39q36 -219 219 -445q151 -175 355 -253q187 -54 283 -54q82 0 166 12q259 36 415 190q151 147 157 332t-80 340t-176 233q-151 -316 -428 -385l-12 48q-36 298 -6 650l3 45h938z" />
    <glyph glyph-name="Charu_Chandan.048" unicode="&#x98a;" horiz-adv-x="1937" 
d="M588 113q-380 247 -479 578q-12 12 -34.5 10.5t-49.5 -10.5q75 -298 418 -499q72 -42 145 -79zM-89 1431h999l3 -44q36 -455 -12 -813l18 -15q93 -54 180 -12q67 18 164.5 88.5t163.5 155.5l82 96q250 -367 27 -656q-154 -148 -340 -178q-46 -6 -88 -6q-487 66 -623 488
l-6 24l12 18l3 3q-36 139 -45 166q15 -3 -48 15q-57 12 -117.5 -3t-84.5 -39q36 -220 220 -446q151 -175 355 -253q187 -54 283 -54q81 0 166 12q259 36 415 190q151 147 157 332t-80 340t-176 234q-151 -316 -428 -386l-12 49q-36 298 -6 650l3 44h961l-43 -74h-845l-2 -33
q-7 -81 -10.5 -157.5t-3.5 -150.5q0 -77 3.5 -149.5t10.5 -144.5q227 87 367 377q45 -40 84 -88l9 -8q43 -43 83 -97.5t77 -121.5q88 -161 82 -346q-6 -191 -161 -341q-77 -76 -186.5 -124.5t-234.5 -68.5q-42 -6 -84.5 -9t-83.5 -3q-101 0 -279 52q-52 20 -100 45t-93 55
l-2 -4q-37 19 -73.5 39t-72.5 41q-66 39 -122 81t-103 89l-7 7q-202 171 -261 404q21 6 39.5 11t32.5 5q25 0 44 -19q0 -2 2 -6l57 -57q49 -170 174 -315l16 -16t17 -16q-170 217 -205 435q17 17 42.5 29.5t53.5 20.5q17 5 34.5 6.5t36.5 1.5q15 0 28.5 -1t26.5 -4l104 -30
l19 -78l16.5 -60.5t24.5 -92.5l-7 -7h1l-9 -13l5 -19l-1 1q16 -51 37.5 -95t47.5 -84q87 -93 205.5 -153t261.5 -83q17 0 41.5 2t42.5 4q86 16 172 60t158 112q47 64 74.5 137.5t27.5 143.5q0 126 -73 265l-55 -65h-1q-69 -89 -165 -158q-48 -35 -91 -57.5t-77 -32.5
q-39 -18 -80 -18q-55 0 -112 33l-22 19l-38 38l-27 23q14 107 21 218t7 229q0 82 -3.5 166.5t-9.5 175.5h-1032zM-21 1549h1335q0 15 1 30.5t1 30.5q2 60 -14 110t-48 90q-14 8 -28.5 15.5t-30.5 15.5l-1 1q-152 44 -297 44q-26 0 -53.5 -1.5t-53.5 -4.5q-97 -11 -187 -30.5
t-163 -45.5h1q-70 -33 -117 -49t-70 -16q-11 0 -17 2t-11 6l-54 53q-18 6 -18 28q-8 16 19 32.5t78 30.5q202 80 389 123.5t342 43.5q36 0 76 -3.5t79.5 -10t77.5 -15t70 -17.5q40 -14 79.5 -42.5t73.5 -66.5l35 -35q17 -17 32 -36t29 -42q43 -71 43 -144q0 -46 -17 -97h565
l-9 -15h-674l34 54q60 139 -14 258t-182 152q-136 45 -298 45q-313 0 -726 -166q-102 -27 -87 -45q-6 -54 205 45q153 55 353.5 77.5t410.5 -40.5q202 -85 193 -304l-3 -76h-1358z" />
    <glyph glyph-name="Charu_Chandan.049" unicode="&#x98b;" horiz-adv-x="1892" 
d="M1056 975q-109 -91 -199.5 -172t-165.5 -155q204 -26 355 -202zM1074 1117q-4 -240 -14 -713q-206 273 -526 226q195 209 540 487zM1964 1431l-42 -74h-161l-2 -18v-59.5t-0.5 -80.5t-1 -94.5t-1.5 -102.5v-73t-0.5 -81.5t-1 -76.5t-1.5 -59q-1 -43 -1.5 -95t-0.5 -98
q0 -51 0.5 -102t1.5 -105v-4l23 -22q3 -3 4 -6l2 -6l6 -182q3 -34 11 -73.5t19 -87.5q-16 -16 -57 -35q-26 -23 -105 -23q-13 0 -27.5 0.5t-29.5 1.5l-71 27l-57 57l-8 3l19 149q3 26 6 55.5t5 58.5q-2 4 -2 7q-11 63 -33.5 117t-53.5 95q-51 34 -105 52q0 -41 1 -83t1 -83
l21 -21q3 -3 5 -10q3 -33 3 -92q0 -74 3 -96q2 -22 10.5 -63.5t23.5 -104.5q-17 -14 -30 -19q-27 -20 -71 -33.5t-101 -18.5l-20 17q-44 17 -75 23l-58 58q-2 0 -3.5 0.5t-3.5 0.5l7 73q-6 114 -46 210.5t-108 168.5q-11 8 -22.5 14.5t-22.5 13.5q-42 23 -84 34.5t-86 11.5
q-16 0 -45 -2.5t-67 -6.5q-4 -2 -6.5 -2t-7.5 -2q-38 -38 -76 -78.5t-78 -85.5q-18 -9 -71 5q-26 8 -49 31l-40 39q-42 27 -81 102q223 201 415 373t349 311q-9 49 -38 98q-5 8 -10.5 15t-11.5 15l-23 14q-44 -138 -118.5 -234.5t-183.5 -159.5q-56 -22 -88 -22
q-25 0 -36 13l-52 51q-8 4 -15 13q-99 278 -181 443l9 10q2 2 3 5t3 5q57 51 125 59q31 4 51.5 4.5t28.5 -2.5q12 -7 22 -25l48 -47q28 -28 49 -133l-32 -30q8 -38 30 -92l18 10l-1 -1q77 67 122.5 157.5t57.5 198.5l-7 36q78 -12 219 -110q13 -11 23.5 -23t21.5 -25l29 -29
q22 -23 39.5 -46.5t30.5 -50.5l43 39v94l3 106q9 49 61 49q44 0 122 -42v-5l59 -59v-111l-3 -117q-3 -20 -3 -543l-1 -80q63 -12 114.5 -36t90.5 -59l6 119l3 367l-6 410l-13 113l20 12q21 18 48 28.5t56 11.5q71 3 88 -35l11 -11h315l-9 -15h-322l-9 20q-14 29 -73 26.5
t-97 -38.5l-12 -8l12 -103l6 -411l-3 -367l-6 -135v-19q-93 109 -295 125l2 147q0 525 3 545l3 115v103q-138 73 -153 0l-3 -103v-100q-47 -42 -98 -87q-17 131 -113 216q-138 94 -191 103l3 -15q-21 -229 -185 -369l-56 -33q-64 129 -76 194q29 26 32 29q-23 112 -52 126
q-9 3 -71 -4t-114 -54l-6 -9l-3 -3q76 -153 176 -434q20 -24 111 11q215 124 300 400q79 -36 127 -115q33 -54 42 -111q-313 -278 -762 -681q44 -82 92.5 -95.5t60.5 -7.5q79 88 155 164l18 6q79 9 114 9q91 0 176 -47q259 -141 270 -481l-6 -59q15 -3 68 -23l17 -15
q109 9 162 50q15 6 23 12q-29 114 -32 164q-3 23 -3 97q0 58 -3 91q0 3 -6 6l-20 11l-2 197q77 -19 144 -72q107 -84 137 -268l2 -8q-5 -61 -11 -116l-18 -138l59 -23q132 -9 155 20q41 18 50 27q-23 91 -29 158l-6 182q0 3 -6 6l-20 9l-3 21q-3 217 0 402q3 117 3 290
q3 258 3 338l3 29h276z" />
    <glyph glyph-name="Charu_Chandan.050" unicode="&#x98c;" horiz-adv-x="1359" 
d="M412 1416q25 3 53 3q172 0 377 -139q96 -77 169 -162l3 -2q115 -115 179 -237t78 -246q6 -59 6 -114q0 -112 -25.5 -199t-73.5 -150q-60 -75 -131.5 -121.5t-152.5 -62.5q-62 -12 -130 -12q-45 0 -91 8.5t-94 26.5q-75 30 -131.5 56.5t-98.5 51.5l-51 50l-19 12l48 20h-1
q48 29 93.5 79t88.5 124q11 17 24 41.5t27 57.5l4 4q1 8 5 19q2 9 6 22t9 30q-41 -7 -74 -17t-55 -21l-6 -4v-7q3 -11 3 -33q0 -13 -11 -24q-47 -8 -79.5 -14t-49.5 -11h-1q-23 -6 -27 -6q-10 0 -22 12l-49 49q-9 4 -16 12q-7 12 -40 45q-42 41 -61 142l7 14v-1q3 11 11 19
q134 47 260.5 72t246.5 28q36 -17 61 -55l37 -36q11 -11 20.5 -24.5t18.5 -30.5q26 -61 26 -111q0 -39 -14 -74h1q-20 -71 -58.5 -148t-95.5 -162q18 -2 35.5 -3.5t31.5 -1.5q151 0 263 97q66 51 100.5 123.5t39.5 168.5q1 9 1 17.5v17.5q0 173 -92 321q-14 23 -31 45
t-36 42q-80 63 -187 108h1l-9 3l-3 -9l-14 -29q-13 2 -42.5 4.5t-76.5 5.5q-78 3 -92 17l-53 52q-11 5 -14 10h1q-6 7 -14 26t-14 48t-10 66.5t-2 82.5zM414 1401q-3 -89 11 -145.5t26 -68.5q6 -10 85 -13q92 -6 111 -9l9 19l6 21l21 -6q221 -92 325 -260.5t93.5 -365.5
t-145.5 -302q-116 -101 -273 -101q-67 0 -150 19l-36 9l24 28q132 186 175 339q30 80 -10 172q-33 61 -70 79q-233 -6 -496 -98q-3 -3 -3 -9l-6 -12q18 -92 55 -130t43 -48q6 -6 12 -6t25 6q36 10 128 25q3 3 3 12v3q0 19 -3 28v15l12 9q74 40 236 52q-46 -165 -49 -168
q-30 -67 -52 -101q-89 -150 -187 -208l-21 -9q61 -37 208 -95q92 -34 181 -34q67 0 128 12q159 31 277 179.5t90.5 454.5t-364.5 575q-229 156 -419 132z" />
    <glyph glyph-name="Charu_Chandan.051" unicode="&#x98f;" horiz-adv-x="1764" 
d="M1348 1176q-7 21 -10.5 42.5t-5.5 42.5q-148 115 -295 115q-23 0 -47 -3q-229 -26 -312 -145q-66 -94 -66 -211q0 -14 1 -29t3 -30q8 -35 24.5 -69t40.5 -66q62 -58 150 -97l51 173l-30 31q-43 24 -38 86q19 72 96 107q52 24 99 24q19 0 34 -3q29 -8 51.5 -15.5
t37.5 -16.5l-2 -5l60 -59l-59 -200q-23 -84 -39 -183t-24 -193v-29q-314 28 -490 205l-21 21q-96 78 -158 196q-23 62 -34 116.5t-11 105.5q0 201 168 354q152 112 376 112h22.5t22.5 -1q106 -6 215 -38t207 -88l17 -4l22 -3q19 -6 48 -20t69 -38q5 -3 10.5 -8.5t11.5 -13.5
l4 -8l47 -46l9 -10q11 -16 11 -67q0 -49 -24 -190l-12 -12l-6 -53q-3 -82 -4.5 -160t-1.5 -146q0 -175 10 -303t29 -209q27 -111 30.5 -170t-18.5 -61q-6 -2 -18 -6.5t-30 -9.5q-14 -2 -34.5 -4t-42.5 -4q-5 -1 -13.5 -1.5t-16.5 -0.5t-18.5 0.5t-21.5 1.5q-48 4 -126 60
l-51 51l-13 9l-5 5q-40 28 -92 49q-117 60 -240 75q-63 9 -121 9q-192 0 -383 -101q-24 -10 -54 -10q-36 0 -78 12q-64 12 -119 38q-26 12 -38 24l-47 46q-47 28 -17 58q193 64 506 85h36q149 0 323.5 -24t370.5 -69l36 -8q9 248 19 493.5t19 493.5zM1347 1272q3 -42 16 -92
l-39 -1010l-54 12q-420 99 -725 93q-309 -21 -501 -84q-15 -15 39 -40.5t117 -37.5q42 -12 75 -12q27 0 42 6q198 105 395 105q60 0 123 -9q123 -15 246 -78q108 -42 162 -114q75 -54 118.5 -57t67.5 0q42 3 81 9q30 9 42 15h3q30 -6 -24 216t-33 821l6 57l12 12v3
q24 135 24 183t-9 60t-18 18q-78 46 -111 56v1l-42 6q-201 117 -417 126q-249 12 -413 -108q-243 -222 -120 -552q171 -321 584 -359v17q15 204 63 378q36 120 57 192q-18 12 -73.5 24t-124.5 -19.5t-87 -97.5q-3 -57 36 -72l42 -12l-66 -222q-263 108 -299 312
q-21 156 64 279t321 150q214 25 420 -175z" />
    <glyph glyph-name="Charu_Chandan.052" unicode="&#x990;" horiz-adv-x="2021" 
d="M1348 1176q-7 21 -10.5 42.5t-5.5 42.5q-148 115 -295 115q-23 0 -47 -3q-229 -26 -312 -145q-66 -94 -66 -211q0 -14 1 -29t3 -30q8 -35 24.5 -69t40.5 -66q62 -58 150 -97l51 173l-30 31q-43 24 -38 86q19 72 96 107q52 24 99 24q19 0 34 -3q29 -8 51.5 -15.5
t37.5 -16.5l-2 -5l60 -59l-59 -200q-23 -84 -39 -183t-24 -193v-29q-314 28 -490 205l-21 21q-96 78 -158 196q-23 62 -34 116.5t-11 105.5q0 201 168 354q152 112 376 112h22.5t22.5 -1q106 -6 215 -38t207 -88l17 -4l22 -3q19 -6 48 -20t69 -38q5 -3 10.5 -8.5t11.5 -13.5
l4 -8l47 -46l9 -10q11 -16 11 -67q0 -49 -24 -190l-12 -12l-6 -53q-2 -49 -3.5 -92.5t-2.5 -85.5q59 46 95 108t55 139q-1 89 -15.5 179t-40.5 178t-64 171t-87 157q-57 72 -86 123t-29 79t25 33q27 6 57 -34l46 -46q22 -23 48 -78q77 -107 139 -209.5t107 -197.5t73 -180.5
t38 -157.5q3 -27 4 -54t1 -52q0 -220 -103 -338q-107 -120 -259 -157q4 -100 12.5 -174t22.5 -129q55 -227 12 -231q-6 -2 -18 -6.5t-30 -9.5q-14 -2 -34.5 -4t-42.5 -4q-5 -1 -13.5 -1.5t-16.5 -0.5t-18.5 0.5t-21.5 1.5q-48 4 -126 60l-51 51l-13 9l-5 5q-40 28 -92 49
q-117 60 -240 75q-63 9 -121 9q-192 0 -383 -101q-24 -10 -54 -10q-36 0 -78 12q-64 12 -119 38q-26 12 -38 24l-47 46q-47 28 -17 58q193 64 506 85h36q149 0 323.5 -24t370.5 -69l36 -8q9 248 19 493.5t19 493.5zM1347 1272q3 -42 16 -92l-39 -1010l-54 12
q-420 99 -725 93q-309 -21 -501 -84q-15 -15 39 -40.5t117 -37.5q42 -12 75 -12q27 0 42 6q198 105 395 105q60 0 123 -9q123 -15 246 -78q108 -42 162 -114q75 -54 118.5 -57t67.5 0q42 3 81 9q30 9 42 15h3q30 -6 -24 216q-27 111 -35 316q155 35 262 155
q124 142 95.5 435t-355.5 740q-45 97 -75 88q-57 -15 97 -212q214 -317 211 -698q-47 -207 -239 -307q0 138 6 304l6 57l12 12v3q24 135 24 183t-9 60t-18 18q-78 46 -111 56v1l-42 6q-201 117 -417 126q-249 12 -413 -108q-243 -222 -120 -552q171 -321 584 -359v17
q15 204 63 378q36 120 57 192q-18 12 -73.5 24t-124.5 -19.5t-87 -97.5q-3 -57 36 -72l42 -12l-66 -222q-263 108 -299 312q-21 156 64 279t321 150q214 25 420 -175z" />
    <glyph glyph-name="Charu_Chandan.053" unicode="&#x993;" horiz-adv-x="1636" 
d="M1288 462q0 49 -13 100q-14 -8 -29 -16.5t-31 -15.5q-88 -39 -188.5 -68t-215.5 -48l-60 59h-4l-99 172l47 -9q269 21 411 103.5t154 224.5q1 9 1.5 18.5t0.5 17.5q0 123 -81 230l-8 10q-80 53 -207 53q-33 0 -70 -3.5t-76 -10.5l56 -157q34 -9 55 -43l44 -44
q15 -15 26 -42q2 -11 3 -22.5t1 -23.5q0 -66 -49 -106q-32 -25 -57 -41t-45 -21q-20 -6 -37.5 -7t-33.5 1l-58 58q-5 0 -7 1q-9 36 -22.5 89.5t-30.5 115.5q-24 86 -59.5 176t-79.5 178v-1l-18 29q204 98 376 98q180 0 338 -93q31 -25 57.5 -50t48.5 -52l25 -24
q147 -147 147 -336q0 -36 -6 -77t-20 -86q-13 -29 -31 -60.5t-38 -57.5q32 -59 53.5 -129.5t36.5 -156.5q2 -14 2 -28v-27q0 -141 -67 -241q-141 -207 -403 -207q-54 0 -112.5 8.5t-121.5 25.5q-151 41 -296 186l-6 6q-53 44 -107 106q-253 298 -337 833v31q59 -25 103 -63
q17 -17 31.5 -33t28.5 -32l6 -5q146 -146 154 -254q8 -87 40 -179.5t88 -188.5q12 -33 46 -73l15 -14q96 -90 231 -117h-1q34 -3 65 -3q91 0 170 23.5t139 66.5q57 47 91 110.5t34 135.5zM1257 670q125 -305 -85 -466q-147 -108 -384 -90q-138 27 -238.5 121.5t-124.5 154.5
q-114 195 -129 372q-6 105 -156 252q-42 36 -78 51v-6q84 -531 333 -825q165 -189 339 -234q432 -117 624 168q78 117 63 288q-28 168 -92 287q43 56 74 127q93 318 -183 537q-315 186 -690 6l9 -15q93 -183 141 -357q33 -123 51 -195q21 -3 58.5 7.5t97.5 58.5t39 144
q-24 63 -96 51l-87 243q330 63 450 -111q96 -126 82.5 -276t-153 -237t-427.5 -105l-18 3q75 -129 78 -135q219 36 393 114q60 27 109 67z" />
    <glyph glyph-name="Charu_Chandan.054" unicode="&#x994;" horiz-adv-x="1942" 
d="M725 831q-5 0 -7 1q-9 36 -22.5 89.5t-30.5 115.5q-24 86 -59.5 176t-79.5 178v-1l-18 29q204 98 376 98q180 0 338 -93q31 -25 57.5 -50t48.5 -52l25 -24q147 -147 147 -336v-5q33 40 56 87t37 100q-1 89 -15.5 179t-40.5 178t-64 171t-87 157q-57 72 -86 123t-29 79
t25 33q29 6 60 -38l43 -42q21 -21 49 -77q77 -107 138.5 -209.5t106.5 -198t73 -181t38 -157.5q3 -27 4 -54t1 -52q0 -220 -103 -338q-53 -59 -114.5 -98t-136.5 -57q13 -38 22.5 -80t17.5 -87q2 -14 2 -28v-27q0 -141 -67 -241q-141 -207 -403 -207q-54 0 -112.5 8.5
t-121.5 25.5q-151 41 -296 186l-6 6q-53 44 -107 106q-253 298 -337 833v31q59 -25 103 -63q17 -17 31.5 -33t28.5 -32l6 -5q146 -146 154 -254q8 -87 40 -179.5t88 -188.5q12 -33 46 -73l15 -14q96 -90 231 -117h-1q34 -3 65 -3q91 0 170 23.5t139 66.5q57 47 91 110.5
t34 135.5q0 47 -12 101q-31 -20 -61 -33q-88 -39 -188.5 -68t-215.5 -48l-60 59h-4l-99 172l47 -9q269 21 411 103.5t154 224.5q1 9 1.5 18.5t0.5 17.5q0 123 -81 230l-8 10q-80 53 -207 53q-33 0 -70 -3.5t-76 -10.5l56 -157q34 -9 55 -43l44 -44q15 -15 26 -42
q2 -11 3 -22.5t1 -23.5q0 -66 -49 -106q-32 -25 -57 -41t-45 -21q-20 -6 -37.5 -7t-33.5 1zM1392 846q6 12 11 24q93 318 -183 537q-315 186 -690 6l9 -15q93 -183 141 -357q33 -123 51 -195q21 -3 58.5 7.5t97.5 58.5t39 144q-24 63 -96 51l-87 243q330 63 450 -111
q96 -126 82.5 -276t-153 -237t-427.5 -105l-18 3q75 -129 78 -135q219 36 393 114q60 27 109 67q125 -305 -85 -466q-147 -108 -384 -90q-138 27 -238.5 121.5t-124.5 154.5q-114 195 -129 372q-6 105 -156 252q-42 36 -78 51v-6q84 -531 333 -825q165 -189 339 -234
q432 -117 624 168q78 117 63 288q-16 97 -44 177q153 35 258 154q124 142 95.5 435t-354.5 740q-46 97 -76 88q-57 -15 97 -212q214 -317 211 -698q-44 -195 -216 -294z" />
    <glyph glyph-name="Charu_Chandan.055" unicode="&#x995;" horiz-adv-x="1823" 
d="M968 1357h-65q-112 -146 -209.5 -277.5t-183.5 -252.5q124 -5 232.5 -54.5t208.5 -148.5q8 304 12.5 482t4.5 237v14zM345 733q-6 -4 -3 -4zM346 734l12 3v4zM983 1343q0 -120 -18 -754q-256 270 -593 214l47 67q179 254 416 561h148v-88zM-146 1431h779l-44 -64
q-150 -238 -370 -485q-80 -94 -127 -143q-20 -21 -76 -80q56 -114 151 -140q14 0 26 6q47 67 135 205l12 14l17 6q94 6 129 6q91 0 176 -47q199 -108 297 -382l3 -6v-6l-29 -272l-6 -59q15 -3 67 -23l18 -15q108 9 161 50q15 6 24 12q-30 114 -33 164q-3 23 -3 96
q0 59 -2 92q0 3 -6 6l-21 12v23q-3 167 0 370q0 526 3 546l3 59q308 -88 408 -297v-3q8 -68 -21 -94l-26 -6q-12 0 -18 -3q-29 -20 -64 -79q-30 -50 -30 -70q35 -59 135 -94q53 -18 73 -18q41 0 56 12q29 29 35 61q31 297 -115 435t-324 211h700l-43 -74h-483
q82 -53 160 -126q18 -18 36 -41l24 -23q2 -1 2.5 -2t2.5 -3q120 -119 120 -340q0 -49 -6 -101q-8 -36 -40 -68q-20 -15 -63 -15q-23 0 -77 19q-74 25 -115 66l-41 40q-36 26 -52 56q0 14 9 36.5t23 46.5q17 28 35.5 50.5t34.5 33.5q4 2 10.5 3.5t11.5 1.5q5 1 11 2.5t11 2.5
q6 8 10.5 20.5t4.5 29.5q0 6 -0.5 13t-1.5 15q-29 56 -79 107q-48 36 -108.5 65.5t-132.5 51.5l-2 -46q-3 -20 -3 -543q-1 -51 -1.5 -99t-0.5 -95t0.5 -90.5t1.5 -85.5v-9l22 -22q3 -3 5 -9q1 -17 1.5 -41.5t0.5 -51.5q0 -73 3 -95q3 -45 35 -169q-10 -8 -16.5 -11.5
t-14.5 -6.5q-27 -20 -71 -33.5t-101 -18.5l-20 17q-23 9 -40 14t-34 9l-58 58q-2 0 -3.5 0.5t-3.5 0.5l7 73l29 271q0 1 -0.5 2t-0.5 2q-32 81 -76.5 153.5t-98.5 129.5q-13 9 -26 17.5t-27 16.5q-42 23 -84 34.5t-86 11.5q-34 0 -128 -6l-12 -4l-8 -10q-44 -68 -79 -121.5
t-58 -86.5q-18 -9 -37 -9q-55 15 -97 57l-36 35q-55 40 -96 124l84 88q23 25 55 60t72 83q210 235 356 465h-753zM-78 1549h2093l-9 -15h-2093z" />
    <glyph glyph-name="Charu_Chandan.056" unicode="&#x996;" horiz-adv-x="1577" 
d="M650 1360q-4 4 -7.5 8t-8.5 8zM1692 1431l-42 -74h-220q-1 -4 -1 -9v-9q0 -79 -3 -337v-73t-0.5 -81.5t-1 -76.5t-1.5 -60q-1 -43 -1.5 -95t-0.5 -98q0 -51 0.5 -102t1.5 -105v-3l23 -22q3 -3 4 -6l2 -6l6 -182q3 -31 10.5 -72t20.5 -91q-8 -7 -22.5 -15.5t-35.5 -17.5
q-27 -24 -111 -24q-11 0 -25 0.5t-28 1.5l-69 28l-57 57l-8 3l19 149q3 24 5.5 48.5t4.5 51.5q-38 77 -77 136.5t-80 104.5q-71 52 -148 52q-61 0 -143 -31h1l-12 -6l-6 -6h1q-48 -54 -103 -113t-115 -119q-153 0 -193 34q-14 7 -25 18l-46 46q-25 16 -36 41.5t-6 59.5
q199 137 324.5 233.5t179.5 153.5q48 54 73.5 100.5t25.5 81.5q2 16 3 30t1 28q0 72 -29 142.5t-80 132.5l-10 7q2 -26 3 -49.5t1 -46.5q0 -41 -3 -75.5t-10 -62.5q-23 -95 -81 -167q-58 -70 -128 -81l-60 59h-3q-63 82 -144.5 181.5t-169.5 202.5q72 163 189 176l12 -16
l49 -49l51 -68l53 -75l-14 -14l-19 -17q3 -5 7 -12.5t6 -12.5l-1 1q6 -11 13.5 -23t17.5 -25q11 -10 21 -10q6 0 13 3t12 8l6 18q25 50 25 152q0 18 -1 41.5t-3 46.5q-5 32 -13.5 74t-19.5 88q104 0 209 -39q52 -29 93.5 -63.5t73.5 -76.5l22 -21q122 -122 137 -304
q1 -11 1 -22.5v-22.5q0 -56 -9.5 -107t-29.5 -96q-17 -38 -49 -87t-78 -106q84 -11 168 -55.5t164 -118.5l2 53l6 135l3 367l-6 410l-13 113l20 12q20 17 44.5 29t50.5 14q80 -1 97 -38l11 -11h373l-9 -15h-380l-9 20q-13 28 -82 29q-50 -5 -88 -41l-12 -8l12 -103l6 -411
l-3 -367l-6 -135q-1 -46 -2 -89q-242 247 -496 187q158 179 203.5 283.5t36.5 241.5q-23 258 -258 390q-102 38 -184 38h-3q23 -79 32 -146q15 -173 -23 -249l-6 -18q-15 -18 -38 -18q-18 0 -44 27q-9 12 -18 17l-3 3q-38 44 -59 82l-17 33l26 23l6 6h-3q-12 23 -44 67
l-47 62q-99 -12 -164 -158q176 -206 302 -370q59 9 114.5 76.5t77.5 161.5t7 255l56 -38q179 -167 150 -390q0 -77 -103 -189.5t-501 -385.5q-9 -59 44 -85q35 -32 181 -32q118 120 214 228l9 9l12 6q82 32 147 32q208 0 382 -363q-4 -56 -10 -105l-18 -138l59 -24
q132 -8 155 21q41 18 50 26q-23 91 -29 159l-6 182q0 3 -6 6l-20 9l-3 20q-3 217 0 402q3 118 3 291q3 258 3 337l2 30h335z" />
    <glyph glyph-name="Charu_Chandan.057" unicode="&#x997;" horiz-adv-x="1518" 
d="M1249 1593q3 -1 6 -1q1 1 3 1h-9zM1653 1431l-41 -72h-227q-3 -89 -4.5 -247.5t-3.5 -393.5q0 -261 3 -373v-11l23 -23l9 -196q2 -23 9.5 -65.5t21.5 -102.5l-35 -21h-12l-10 -11q-11 -12 -34 -21.5t-55 -16.5q-8 -4 -17 -4q-42 0 -61 19l-12 12l-11 1q-26 3 -49 14
l-54 54l-9 4l12 73v-1l9 79q6 51 11.5 128.5t9.5 178t6.5 221.5t4.5 259q-15 100 -53 189t-100 158q-155 125 -325 125h-14.5t-14.5 -1h-13q-57 -16 -114 -65.5t-109 -131.5h19q59 0 106 -5.5t82 -16.5q49 -15 80.5 -34t42.5 -39l43 -43q14 -14 17 -27q3 -30 -7 -115
t-48 -221q-9 -30 -17.5 -59t-16.5 -54.5t-15 -45.5t-11 -30q-14 -14 -32.5 -22.5t-42.5 -8.5q-31 0 -79.5 15t-118.5 49l-54 53l-11 6l30 33q176 169 176 338q0 32 -7 66q0 3 -1 5q-18 7 -42 11.5t-53 7.5q-95 9 -184 9q-19 0 -85 36l-35 21l-50 50l-13 8v29
q77 100 150.5 174t137.5 118q44 29 101.5 45t129.5 16h52q144 -20 268.5 -77.5t233.5 -157.5v225q-5 44 100 57l1 3h20v-1q14 -2 27 -4.5t26 -6.5h15v-6l41 -41h352l-9 -15h-399v47q-3 0 -9 3q-19 7 -50 8q-103 -12 -100 -43v-261q-223 214 -519 255h-50q-140 0 -222 -58
q-130 -86 -282 -285v-15q12 -8 29 -17q65 -35 79 -35q91 0 185 -9q162 -15 170 -91q44 -211 -173 -419l-17 -18q105 -50 161 -54.5t82 22.5q18 44 59 187.5t49.5 221.5t5.5 107v3q-11 38 -115 70t-319 15l30 61q117 197 246 229h15q196 12 373.5 -134.5t209.5 -407.5
q-6 -578 -32 -789l-9 -79l-11 -62q14 -6 38 -9l17 -3l12 -14q15 -15 53 -15q11 0 11 3q65 12 86 35l14 15h15q15 9 23 14q-26 112 -29 162v3l-9 190l-3 3l-20 12v23q-3 112 -3 373q3 481 9 653h339z" />
    <glyph glyph-name="Charu_Chandan.058" unicode="&#x998;" horiz-adv-x="1328" 
d="M970 1359h-678l-5 -4q-40 -26 -54 -91q-4 -17 -4 -36q0 -30 10 -57q39 -18 106 -18h13q5 3 9.5 7.5t9.5 7.5q12 9 63 15q12 1 25 1h48q12 0 23 -1h32l-3 -6l59 -57q-51 -105 -89.5 -185t-56.5 -120l-26 -52l-5 -11q13 1 25 1.5t24 0.5q121 0 234 -41.5t223 -129.5z
M203 1190q1 -2 2 -2.5t2 -1.5zM967 552q-297 249 -637 167l50 109l26 52q36 80 138 288h-9q-44 3 -93 0q-47 -6 -56 -12l-24 -18h-17q-126 0 -163 60.5t-22 129t59 97.5l9 6h759zM-60 1549h1611l-9 -15h-1611zM-128 1431h238q-58 -99 -55 -193q0 -82 41 -129l3 -3
q52 -67 161 -70l73 -3q-61 -126 -143.5 -259.5t-158.5 -244.5l3 -3q53 -18 103 -21q20 -3 52 -3q15 0 39 32q23 41 64 115l12 20l20 3q27 3 50 3q164 15 352 -90.5t238 -413.5l-18 -126q-6 -35 -6 -59q12 -6 35 -12l18 -3l12 -11q16 -14 40 -15q-3 1 24 3h3q47 6 70 32
q12 12 27 15h3q14 9 23 15q-29 114 -32 164l-9 187h-3l-20 12v27q-3 114 -3 369q0 478 6 621v41h349l-42 -72h-234v-30q-6 -143 -6 -620q0 -255 3 -369v-10l23 -22l9 -193q2 -23 10.5 -66.5t23.5 -103.5l-37 -22q-15 -3 -22 -10l1 -1q-2 -1 -2.5 -2t-1.5 -2l-65 -30
q-5 0 -7 -1h-4l-1 -1l-24 -3q-28 0 -48 17l-8 8l-3 2l-17 2q-10 3 -20.5 7t-21.5 9l-55 54l-9 4q0 19 2 37.5t4 33.5l18 122q-19 100 -54.5 184t-86.5 143l-27 18q-80 46 -156.5 68.5t-148.5 22.5q-11 0 -20.5 -0.5t-20.5 -1.5q-23 0 -48 -3h-1l-14 -2l-9 -15h1l-63 -114
q-30 -39 -51 -39q-16 0 -30 0.5t-24 2.5q-49 3 -107 23l-56 54l-6 3l-15 15q38 56 80 121t84 132q27 46 54 92.5t52 93.5q-35 7 -65 21t-52 36l-45 43q-19 14 -32 30q-1 1 -2 1q-46 54 -46 140q-3 57 20 121h-230z" />
    <glyph glyph-name="Charu_Chandan.059" unicode="&#x999;" horiz-adv-x="1789" 
d="M1064 720l1 -19q34 13 66 30q-14 -5 -29 -7.5t-30 -2.5zM1094 1064q0 27 -19 53q-8 5 -16.5 10t-17.5 11l9 -169q22 26 37 62q7 17 7 33zM790 976l2 -16t3 -16q7 -4 21 -7q1 23 1 46.5v46.5q0 57 -2 114t-6 116v13q5 44 106 47q37 2 80.5 -7.5t87.5 -27.5q77 -33 123 -94
l36 -35q24 -24 39 -51q20 -37 29 -77.5t7 -79.5q-2 -21 -7.5 -41t-15.5 -40q69 82 126 201q39 -33 78 -80l22 -21q81 -82 149 -206h-1q86 -157 80 -338q-2 -90 -44 -175.5t-112 -157.5q-76 -72 -180.5 -121t-231.5 -66q-50 -6 -99 -6q-77 0 -160.5 16.5t-161.5 44.5
q-139 53 -247 161l-15 15q-88 73 -155 174q-231 354 -255 615q66 18 110 18q15 0 30.5 -2t27.5 -4q32 -7 54.5 -9.5t36.5 1.5l2 -8l58 -58l48 -178l-7 -7h1l-8 -13q1 -5 1.5 -9.5t2.5 -8.5q31 -117 75.5 -212.5t101.5 -170.5q80 -83 177 -133.5t210 -69.5q17 0 40.5 2
t40.5 4h-1q88 15 170.5 57.5t152.5 109.5q48 63 73 132t25 141q0 62 -17 125t-52 130l-52 -62h-1q-66 -84 -161 -153q-45 -32 -88.5 -55t-75.5 -33q-39 -18 -80 -18q-49 0 -105 31l-24 22l-35 34l-4 3l-26 24q7 48 12 93t8 92q-38 14 -70 31l-1 1q-17 9 -32.5 19.5
t-27.5 23.5l-38 38q-41 30 -65 74.5t-29 103.5q3 24 3 69q0 53 -3.5 137t-10.5 196q32 27 81.5 44.5t100.5 14.5q20 -3 42 -17l-1 -4l60 -59l-4 -48l-9 -103l-3 -41q-6 -75 -9 -139.5t-2 -102.5zM965 1223q176 -94 136.5 -196.5t-121.5 -105.5q-9 249 -15 302zM1009 795
q82 5 155.5 68t78.5 148q6 77 -35 150t-130.5 110t-162.5 34q-88 -3 -91 -33v-11q12 -176 6 -343q-108 20 -114 120q-3 76 11 243l3 41l9 103l3 41q-9 6 -29 9q-47 3 -92.5 -12t-71.5 -38q20 -320 11 -396q12 -132 122 -187q72 -37 144 -48q-6 -118 -22 -237l17 -15
q91 -52 176 -11q65 17 160 86t160 151l79 94q243 -358 26 -639q-149 -144 -331 -173q-44 -6 -85 -6q-475 65 -636 660l-6 23l12 18l3 3q-36 135 -44 161q-15 -3 -82.5 11.5t-149.5 -8.5q23 -244 252 -595q138 -208 346 -286t416 -54q253 35 405 184q147 144 152.5 324.5
t-78 331.5t-171.5 227q-146 -308 -416 -376l-12 47q-5 41 -8 78z" />
    <glyph glyph-name="Charu_Chandan.060" unicode="&#x99a;" horiz-adv-x="1232" 
d="M362 1050l2 -56l18 -637v-50l486 493q-228 80 -329 129q-109 53 -173 117q-3 1 -4 4zM311 213l-3 206q-3 117 -18 637l-3 88q68 -80 195.5 -141.5t439.5 -167.5zM-151 1431h271l6 -43q26 -371 38 -1025l-9 -12l-14 -302l-6 -35v-6q44 -53 120 -62q41 0 53 21
q53 76 235 269.5t572 551.5v3q-9 42 -320 153q-440 162 -472 409l-6 78h1052l-43 -74h-934l5 -64q9 -60 49 -119q62 -62 152 -116.5t202 -99.5q138 -50 224 -93.5t103 -73.5l49 -48q13 -13 14 -21q-196 -180 -340.5 -319.5t-235.5 -236.5t-149.5 -163.5t-84.5 -104.5l-1 1
q-15 -27 -63 -27q-71 9 -118 56l-37 37q-11 8 -21.5 17.5t-19.5 20.5v14l6 35q2 36 3.5 75t3.5 76l7 153l9 11q-6 303 -15 556t-21 434h-307zM-83 1549h1520l-9 -15h-1520z" />
    <glyph glyph-name="Charu_Chandan.061" unicode="&#x99b;" horiz-adv-x="1345" 
d="M376 1150q2 -135 4.5 -260.5t4.5 -256.5q94 87 181 166t178 160l-131 51q-73 28 -237 140zM799 988q-234 -208 -486 -441l-11 688q178 -123 253.5 -152t243.5 -95zM-151 1431h283q38 -437 41 -536l-5 -148l-11 -11l-14 -291q-11 -74 -14 -76q9 -25 57 -60.5t89 -35.5
q24 107 419 433q72 55 201 151l21 16l25 -14q93 -68 132 -150q46 -181 -291 -332l-14 -6l-13 3h-11q-55 0 -129 -33q-55 -36 -85 -57q44 -28 104 -58q107 -52 148 -77q8 -5 19 -14l346 -246q57 -22 104 148v19q-110 57 -206 110l-30 5l-118 82q-24 22 -16 50
q291 173 310 247t-41 164q-20 30 -187 200l36 39q8 8 -14 38l-5 11v3q-28 30 -107 66q-42 13 -50 13h-19q-315 83 -439 291l-35 56h1170l-43 -74h-1044l24 -38l14 -22t15 -22q64 -59 151 -103t191 -73h15q8 0 58 -15q79 -35 111 -73l3 -6l48 -48l8 -9l6 -12q27 -38 12 -53
l-26 -30q22 -23 41.5 -43.5t34.5 -37.5q40 -42 68 -73t35 -40q23 -35 35.5 -69t12.5 -65q0 -20 -5 -40q-21 -78 -311 -251l-1 -2l34 -24t34 -23l-1 1l17 -3q10 -2 14 -2q48 -26 104 -56t111 -59v-5l59 -59v-30q-50 -184 -124 -155l-344 245l-19 15q-17 11 -54.5 30t-92.5 46
q-30 15 -60 32t-61 37l-49 48l-19 13q15 11 45 31.5t58 38.5q79 36 139 36h14l9 -2h1q1 0 1 0.5t1 0.5t2 1l5 2h-1q288 129 288 275q0 15 -5 37q-21 38 -54 76l-9 8l-5 4l-12 6l-15 -12q-63 -47 -114.5 -85.5t-86.5 -65.5q-390 -321 -416 -435q-55 0 -106 37q-21 15 -35 29
l-37 36q-22 17 -35.5 33t-18.5 31l6 16q-1 6 1 23q1 17 6 43q2 35 3.5 73t3.5 73l7 148l11 11q0 14 0.5 35.5t1.5 35.5l3 72q-2 46 -10.5 158t-24.5 304h-317zM-83 1549h1651l-9 -15h-1651z" />
    <glyph glyph-name="Charu_Chandan.062" unicode="&#x99c;" horiz-adv-x="2133" 
d="M2344 1534h-2357l9 15h2357zM2242 1357h-766q12 -44 38 -84q95 -82 270 -138h32q22 13 46.5 20.5t49.5 7.5q17 0 35.5 -3.5t34.5 -9.5q12 -3 21.5 -7t13.5 -9q0 -2 0.5 -3.5t0.5 -3.5l58 -58q7 -44 -24 -68l-8 -4l-7 -15q-129 -255 -129 -657v-12l22 -22q-7 -76 32 -374
q-29 -5 -54.5 -7.5t-45.5 -2.5q-87 0 -127 40l-45 44q-44 28 -52 88q0 470 120 832l32 71q-262 57 -444 241l-29 29q-27 24 -52 50t-49 55h-178l-24 -36q-69 -80 -105.5 -193.5t-42.5 -261.5h25q169 0 269 65q66 42 117.5 95t87.5 116l24 -29l39 -38q45 -49 80 -118t59 -154
q14 -50 21 -105t7 -112q0 -76 -12 -155q-16 -108 -65.5 -193.5t-134.5 -139.5q-90 -54 -193 -84.5t-210 -37.5q-30 -3 -62 -3q-188 -3 -386 88q-100 47 -186 133l-35 35q-47 42 -87 90.5t-71 99.5q-60 101 -99 226t-49 260q55 26 108 26q50 0 107 -18l33 -13l1 -6l58 -58
l13 -94l23 -92l-19 -18l6 -19q42 -158 115 -274l2 -1q10 -17 21.5 -32.5t23.5 -30.5q41 -41 92 -75q103 -71 294 -71q14 0 34 3q235 17 353 200q83 128 83 291q0 38 -5 79t-14 83l-3 12q-131 -94 -244 -136t-216 -40q-172 3 -222 53l-48 48q-33 21 -36 52q14 151 45.5 298.5
t78.5 284.5h-804l43 74h805q-120 -308 -153 -657q9 -74 229.5 -78.5t509.5 216.5l30 -123q58 -273 -66 -464.5t-363 -207.5q-19 -3 -37 -3q-196 0 -303 74q-120 83 -200 205q-76 120 -119 279l-7 25l19 18l-22 86l-12 89h-3l-21 9q-114 34 -194 -3q19 -266 145 -469
q113 -202 309.5 -292.5t380.5 -87.5q30 0 61 3q218 12 398 120q166 107 194 325q30 199 -16 367.5t-125 254.5q-65 -113 -200 -199t-377 -62q-3 353 153 536l25 39h209q239 -345 653 -391l-59 -135l-3 -3q-116 -352 -116 -821q18 -129 233 -92q-37 285 -31 358l-21 13v27
q0 405 132 666l6 15l12 6q24 18 18 52v3q-3 0 -24 6q-83 31 -157 -15h-39q-335 104 -383 311h886z" />
    <glyph glyph-name="Charu_Chandan.063" unicode="&#x99d;" horiz-adv-x="1784" 
d="M959 1357h-64q-112 -145 -209.5 -276t-182.5 -250q198 -2 338 -106l101 -101q8 304 12.5 482t4.5 238v13zM338 735l12 3v4zM337 734q-6 -4 -3 -4zM974 1344q0 -121 -18 -754l-120 120q-191 141 -472 94l47 68q179 252 416 559h147v-87zM1203 1540l-3 -287q-3 -20 -3 -543
q-1 -17 -1 -32.5v-29.5q63 -14 116.5 -39.5t95.5 -62.5l5 107l3 367l-6 410l-13 113l20 12q20 17 44.5 29t50.5 14q80 -1 97 -38l11 -11h374l-9 -15h-381l-9 20q-13 28 -82 29q-50 -5 -88 -41l-12 -8l12 -103l6 -411l-3 -367l-6 -135v-4q-103 110 -300 131q0 62 1 127
q0 525 3 545l2 223h75zM1202 1534h-1228l9 15h1219v-15zM-85 1431h710l-44 -64q-150 -237 -369 -484q-80 -94 -127 -143q-20 -21 -64 -71q6 -67 50 -108t88 -41q14 0 26 6q47 67 135 205l12 14l17 6q94 6 129 6q91 0 176 -47q200 -108 296 -381l3 -6v-6l-29 -272l-6 -59
q15 -3 68 -23l17 -15q109 9 161 50q15 6 24 12q-29 114 -32 164q-3 23 -3 96q0 59 -3 91q0 3 -6 6l-21 12v23q-1 80 -2 167q76 -16 161 -74q98 -68 131 -227q-5 -85 -14 -158l-18 -138l59 -24q132 -8 155 21q41 18 50 26q-23 91 -29 159l-6 182q0 3 -6 6l-20 9l-3 20
q-3 217 0 402q3 118 3 291q3 258 3 337l2 30h337l-43 -74h-221q-1 -4 -1 -9v-9q0 -79 -3 -337v-73t-0.5 -81.5t-1 -76.5t-1.5 -60q-1 -43 -1.5 -95t-0.5 -98q0 -51 0.5 -102t1.5 -105v-3l23 -22q3 -3 4 -6l2 -6l6 -182q3 -31 10.5 -72t20.5 -91q-8 -7 -22.5 -15.5
t-35.5 -17.5q-27 -24 -111 -24q-11 0 -25 0.5t-28 1.5l-69 28l-57 57l-8 3l19 149q5 36 8.5 74t5.5 80q-11 48 -30.5 90.5t-44.5 75.5q-33 23 -64.5 37.5t-63.5 22.5q0 -38 1 -75.5t1 -75.5v-9l22 -22q3 -3 5 -9q2 -16 2.5 -39.5t0.5 -52.5q0 -73 3 -95q2 -23 10.5 -65.5
t23.5 -104.5q-8 -7 -14.5 -10t-16.5 -7q-27 -20 -70.5 -33.5t-100.5 -18.5l-20 17q-44 17 -75 23l-58 58q-2 0 -3.5 0.5t-3.5 0.5l7 73l29 271q0 1 -0.5 2t-0.5 2q-31 81 -74.5 152.5t-97.5 128.5q-14 9 -27.5 18t-27.5 17q-42 23 -84 34.5t-86 11.5q-34 0 -128 -6l-12 -4
l-8 -10q-44 -68 -79 -121.5t-58 -86.5q-18 -9 -34 -9q-49 0 -96 44l-41 41q-11 7 -23 19q-48 45 -55 124l68 76q23 25 55 60t72 83q105 119 193 234t162 230h-684z" />
    <glyph glyph-name="Charu_Chandan.064" unicode="&#x99e;" horiz-adv-x="2227" 
d="M1668 685h-6v101q81 0 118 8q129 27 129 151q0 5 -0.5 12t-1.5 15q-3 10 -6 19t-7 17q-21 8 -42.5 12.5t-44.5 4.5q-48 0 -100 -19q-69 -25 -139 -212q-1 -41 -1.5 -78.5t-0.5 -74.5q0 -26 0.5 -49.5t0.5 -47.5l21 -49q8 -23 15.5 -41.5t17.5 -35.5q13 -8 25 -12
q52 -19 99 -19q49 0 101 22q43 19 61 91v-1q1 8 1.5 14.5t0.5 12.5q0 44 -17 76q-21 10 -49 16q-37 8 -116 8zM1614 1202q19 4 38.5 6t40.5 2h22t23 -2q45 -5 89 -16.5t79 -28.5q74 -37 117 -95l2 -2l32 -31q64 -64 79 -156q3 -15 3 -34q0 -44 -27 -85t-84 -79
q6 -7 11.5 -13.5t10.5 -14.5l31 -30q58 -58 58 -121q0 -19 -3 -34q-13 -70 -61 -129t-118 -95q-32 -16 -72 -25.5t-85 -14.5q-11 -2 -23 -2h-23q-35 0 -68.5 6t-64.5 20h-1q-9 4 -18 7.5t-17 8.5q4 -31 9 -58t11 -51q27 -111 30.5 -170t-18.5 -61q-6 -2 -18 -6.5t-30 -9.5
q-14 -2 -34.5 -4t-42.5 -4q-5 -1 -13.5 -1.5t-16.5 -0.5t-18.5 0.5t-21.5 1.5q-48 4 -126 60l-51 51l-13 9l-5 5q-40 28 -92 49q-117 60 -240 75q-63 9 -121 9q-192 0 -383 -101q-24 -10 -54 -10q-36 0 -78 12q-64 12 -119 38q-26 12 -38 24l-47 46q-47 28 -17 58
q193 64 506 85h36q149 0 323.5 -24t370.5 -69l36 -8q9 248 19 493.5t19 493.5q-7 21 -10.5 42.5t-5.5 42.5q-145 115 -295 115q-23 0 -47 -3q-229 -26 -312 -145q-66 -94 -66 -211q0 -14 1 -29t3 -30q8 -35 24.5 -69t40.5 -66q62 -58 150 -97l51 173l-30 31q-43 24 -38 86
q19 72 96 107q52 24 99 24q19 0 34 -3q29 -8 51.5 -15.5t37.5 -16.5l-2 -5l60 -59l-59 -200q-23 -84 -39 -183t-24 -193v-29q-314 28 -490 205l-21 21q-96 78 -158 196q-23 62 -34 116.5t-11 105.5q0 201 168 354q152 112 376 112h22.5t22.5 -1q106 -6 215 -38t207 -88
l17 -4l22 -3q19 -6 48 -20t69 -38q5 -3 10.5 -8.5t11.5 -13.5l4 -8l47 -46l9 -10q11 -16 11 -67v-6zM1493 604q-2 115 1 254q72 194 147 221q110 41 211 -3q51 -21 70 -100q17 -166 -138 -197q-35 -8 -107 -8v-71q72 0 107 -8q155 -31 138 -197q-19 -79 -70 -100
q-102 -44 -211 -3q-81 29 -126 161zM1509 329q25 -16 55 -28q77 -33 172 -23q91 9 154 39q148 71 172 215q3 16 3 32q0 92 -133 172q133 79 133 171q0 16 -3 32q-23 144 -162 210q-73 35 -164 44q-95 10 -171 -23q-20 -8 -38 -18q13 83 13 118q0 48 -9 60t-18 18
q-78 46 -111 56v1l-42 6q-201 117 -417 126q-249 12 -413 -108q-243 -222 -120 -552q171 -321 584 -359v17q15 204 63 378q36 120 57 192q-18 12 -73.5 24t-124.5 -19.5t-87 -97.5q-3 -57 36 -72l42 -12l-66 -222q-263 108 -299 312q-21 156 64 279t321 150q214 25 420 -175
q3 -42 16 -92l-39 -1010l-54 12q-420 99 -725 93q-309 -21 -501 -84q-15 -15 39 -40.5t117 -37.5q42 -12 75 -12q27 0 42 6q198 105 395 105q60 0 123 -9q123 -15 246 -78q108 -42 162 -114q75 -54 118.5 -57t67.5 0q42 3 81 9q30 9 42 15h3q30 -6 -24 216q-14 56 -22 135z
" />
    <glyph glyph-name="Charu_Chandan.065" unicode="&#x99f;" horiz-adv-x="1449" 
d="M343 -50q-11 1 -24.5 2.5t-26 3t-16.5 2.5q-3 2 -7 6l-7 7l-11 11h-5l-7 3q-16 4 -33 15l-52 52q-5 2 -13 8q6 45 11.5 84.5t10.5 65.5q3 9 3 18v209l13 7q-8 351 -17 579t-20 334h-318l43 74h281l6 -40q24 -179 40 -955l-13 -9v-199q0 -10 -3 -19q-9 -52 -21 -141
q9 -6 24 -9l6 -3h7l15 -15q24 -25 67 -28q17 -3 15 -3q56 0 77 12l16 6h12q162 -18 279 -18q374 0 555 172q85 79 91 223q10 138 -49 264q-110 172 -326 219.5t-293 10.5l10 -3l3 -31q21 -202 0 -521h55q79 3 122 27.5t64.5 75t21.5 106.5l-70 3v199l89 -19
q162 -39 214 -199q52 -153 -67 -312q-126 -126 -292 -135h-3q-220 3 -420 116l-16 15v22l-15 595q-9 138 -15 547v46h1249l-42 -74h-1133v-34q6 -409 15 -547l15 -583q85 -39 179.5 -62.5t184.5 -25.5q76 8 150 41t131 88q39 53 59.5 106t20.5 104q0 43 -15 88
q-19 54 -49 92q-40 26 -92 38h-1l-73 16v-110h11v-6l59 -59q0 -32 -6 -63.5t-17.5 -58.5t-28.5 -48.5t-40 -34.5q-44 -25 -128 -28h-68l-59 59h-6q5 80 8 159.5t3 145.5q0 64 -2.5 121.5t-7.5 108.5l-1 4l-24 24l-12 4q35 18 67.5 26t64.5 8q40 0 92 -7t112 -20
q97 -22 175 -69.5t134 -120.5l18 -17q20 -20 37 -41t32 -45q25 -54 38 -110.5t13 -116.5q0 -9 -0.5 -20.5t-1.5 -20.5q-4 -73 -27 -131t-68 -100q-184 -175 -563 -175q-57 0 -129.5 5t-150.5 13h-9l-12 -4q-5 -1 -26 -1.5t-57 -0.5zM-65 1549h950q0 15 1 31t1 31
q4 120 -59 200q-30 19 -66 36l-1 1q-78 23 -154 34.5t-152 11.5q-53 0 -105 -6q-103 -11 -191.5 -31t-164.5 -47q-141 -66 -191 -66q-19 0 -28 9l-53 53q-16 7 -19 26q-8 17 18 34t81 31q205 81 395.5 125.5t348.5 44.5q83 0 161 -12t147 -35q45 -16 90.5 -52.5t82.5 -82.5
l23 -22q16 -16 30.5 -33t26.5 -35q43 -71 43 -146q0 -51 -18 -100h520l-9 -15h-628l34 55q61 141 -14 262t-186 155q-137 46 -303 46q-319 0 -739 -169q-104 -27 -89 -46q-6 -55 209 46q156 56 360 79t418 -42q206 -86 197 -309l-3 -77h-973z" />
    <glyph glyph-name="Charu_Chandan.066" unicode="&#x9a0;" horiz-adv-x="1483" 
d="M1047 955q-38 69 -96 141.5t-134 146.5q-14 13 -28 25t-29 25l1 -1l-64 49l10 -67q1 -15 1 -31.5v-31.5q0 -461 -216 -771h-1q-33 -55 -55 -97t-34 -72q-34 -64 -23 -84v-1q35 -23 83.5 -43.5t110.5 -37.5h3l81 -10q179 0 262 55q84 50 146 145q88 116 88 274
q0 81 -27 180t-75 202zM1065 957q201 -423 9 -676q-58 -91 -146 -143q-88 -58 -271 -58l-82 10h-6v3q-222 54 -261 146q-16 30 24 106q21 52 88 164q228 329 213 825l-15 97l88 -67q250 -207 356 -404zM-151 1431h626l18 -119q25 -219 -73 -465q-100 -240 -325 -517
q-73 -85 -43 -152q21 -52 140 -104q177 -100 426 -100q55 0 109 6q250 21 434 176.5t178 428.5v3q-31 210 -183 435q-149 229 -365 408h847l-43 -74h-698q32 -30 61 -61t58 -63q120 -124 212 -265q75 -113 122 -224.5t63 -218.5q6 -282 -182 -440q-93 -78 -204 -123
t-237 -56q-53 -6 -110 -6q-251 0 -432 102l1 -1q-82 36 -120 74l-43 43q-17 14 -29.5 27t-18.5 27q-10 22 -10 47q0 29 14.5 59t41.5 62q49 63 96.5 130t90 134t77 130t58.5 118q38 96 57.5 189t19.5 181q0 21 -1.5 44t-3.5 44l-7 47h-665zM-83 1549h468q-55 98 -55 191
q0 30 7 61.5t18 58.5q31 74 88.5 148t137 144.5t179.5 136.5t217 126q11 5 26 12t34 14l12 -18l49 -48q21 -27 21 -45q0 -30 -37 -58q-177 -60 -296.5 -156.5t-182.5 -225.5q-5 -27 -8 -54t-3 -51q0 -117 62 -212l29 -24h1023l-9 -15h-1018l-70 58q-125 152 -79 365
q124 265 483 387q52 39 19 79q-31 -12 -49 -22q-490 -243 -614 -547q-64 -146 42 -320h-503z" />
    <glyph glyph-name="Charu_Chandan.067" unicode="&#x9a1;" horiz-adv-x="1720" 
d="M-141 1431h853l6 -43q37 -411 -13 -780l22 -15q43 -19 83 -22q32 -3 29 -3q94 4 201 50q108 55 210 182l90 105q151 -352 19.5 -573.5t-347.5 -261.5q-47 -6 -90 -6q-186 0 -279 52q-256 146 -371 452l-6 25l12 21h3q-15 44 -27 87l-22 87q-3 0 -25 6q-37 19 -161 -25
l-9 -9q43 -263 192 -461q155 -195 368 -263q161 -47 248 -47q80 -9 253.5 25t334.5 177q127 136 139 321q25 208 -68 393q-50 93 -112 152l-49 46q-25 -89 -116 -206.5t-212 -186.5l-65 -31l-9 62q-38 341 -7 647l7 43h854l-43 -74h-738l-4 -16l-2 -16q-7 -68 -10.5 -138
t-3.5 -141q0 -78 3.5 -158.5t11.5 -163.5q57 32 110 79.5t97 101.5q41 54 72.5 113.5t46.5 111.5l67 -62q11 -11 22 -23t22 -26l22 -21q60 -59 109 -150q74 -145 74 -310q0 -23 -1 -45t-4 -45q-12 -188 -143 -328q-163 -145 -341 -180q-137 -27 -217 -27q-11 0 -21 0.5
t-18 1.5q-45 2 -109.5 13.5t-141.5 33.5q-167 52 -301 186l-10 10q-34 29 -66 61.5t-61 70.5q-151 202 -196 474l18 18q47 16 81 24.5t57 8.5q20 0 34 -7v1q22 -6 34 -6l2 -8l57 -57l24 -96q6 -22 13 -45.5t12 -45.5l-12 -21l5 -21l-1 1q52 -141 139 -251q77 -78 167 -130
h-1q91 -50 272 -50q43 0 88 6h-1q104 21 189 84.5t148 169.5q60 100 60 228q0 101 -37 218l-48 -55h-1q-102 -127 -213 -185q-38 -17 -90 -26.5t-116 -12.5q1 0 -13 1.5t-32.5 3t-36.5 3t-26 2.5l-11 5l-28 19l-53 52l-12 9q30 220 30 447q0 74 -3.5 152.5t-10.5 156.5h-889
zM-73 1549h1936l-9 -15h-1936z" />
    <glyph glyph-name="Charu_Chandan.068" unicode="&#x9a2;" horiz-adv-x="1439" 
d="M328 -60q-10 1 -23.5 2.5t-26 3t-16.5 2.5q-3 2 -7 6l-7 7l-11 11h-5l-8 3q-16 4 -33 15l-52 52q-5 2 -13 8q6 45 11.5 84.5t10.5 65.5q3 9 3 18v209l13 7q-8 355 -17 586t-20 337h-277l43 74h240l6 -40q24 -179 40 -965l-13 -9v-199q0 -10 -3 -19q-9 -52 -21 -141
q9 -6 24 -9l7 -3h6l15 -15q25 -25 67 -28q17 -3 15 -3q56 0 77 12l16 6h12q162 -18 279 -18q374 0 555 172q86 79 92 223q9 138 -49 261v3q-111 172 -327 219.5t-292 10.5l9 -3l3 -31q21 -202 0 -521q119 -9 170 21.5t78 107.5q6 21 12 80h-24l-43 3v199l89 -18
q162 -40 214 -200q53 -153 -67 -312q-126 -126 -291 -135h-3q-221 3 -406 116l-15 16v21l-15 595q-10 168 -16 557v46h1249l-43 -74h-1132v-34q3 -195 7 -333.5t9 -223.5l15 -585q80 -39 169 -61.5t180 -24.5q75 8 149 41t131 88q80 106 80 209q0 45 -15 89q-18 52 -48 91
q-39 26 -93 40h-1l-73 15v-110h9q0 -2 -0.5 -3t-0.5 -3l60 -59q-7 -71 -14 -96q-29 -80 -83 -114q-44 -25 -125 -25q-12 0 -31 1t-33 2l-59 58q-2 0 -3.5 0.5t-2.5 0.5q5 80 8 159t3 145q0 64 -2.5 121.5t-7.5 108.5l-1 5l-22 22l-13 5q35 18 67.5 26t64.5 8q41 0 92.5 -7
t110.5 -20q95 -21 171.5 -67.5t133.5 -119.5l19 -18q42 -42 73 -92q26 -54 38 -110t12 -116v-19t-1 -19q-4 -73 -27.5 -131t-68.5 -100q-184 -175 -563 -175q-57 0 -129.5 5t-150.5 13h-9l-12 -4q-5 -1 -26 -1.5t-57 -0.5zM-39 1549h1690l-9 -15h-1690z" />
    <glyph glyph-name="Charu_Chandan.069" unicode="&#x9a3;" horiz-adv-x="1434" 
d="M1613 1431l-42 -74h-259v-29q-6 -261 -6 -777v-219l30 -30l9 -187q3 -31 10.5 -74t20.5 -99l-17.5 -10.5t-14.5 -7.5l-17 -7l-3 -4q-29 -29 -140 -40q-5 2 -10 4.5t-12 7.5l-8 7l1 -2l-10 10l-12 2l-48 12l-58 58l-7 2l9 71l12 85q9 94 15 205t9 228l3 4q0 37 0.5 78.5
t0.5 83v80v69.5v131.5t-1 116.5v-2q-31 47 -61 86.5t-61 71.5q-108 89 -219 89q-7 0 -16 -0.5t-17 -1.5q-110 -14 -187.5 -49t-117.5 -93q-65 -92 -65 -206q0 -14 1 -29t3 -29q7 -34 22.5 -67t38.5 -63q31 -29 68 -53t81 -43l50 171l-27 26q-44 25 -40 87q10 35 34.5 61.5
t59.5 43.5q23 11 48 17t48 6q8 0 17.5 -0.5t17.5 -2.5q27 -5 50 -13.5t37 -18.5q-1 -1 -1 -4l59 -59q-10 -35 -25.5 -86t-33.5 -110h1q-23 -85 -38.5 -178.5t-22.5 -189.5v-30q-310 29 -482 201l-27 27q-91 76 -150 188q-44 118 -44 218q0 196 164 346q149 110 370 110h23
t23 -1q50 -4 103.5 -15.5t106.5 -29.5t104.5 -43t98.5 -57l-1 1q0 8 -1 14.5t-1 13.5l-6 107l15 27q44 41 99 44q64 5 83 -34v-1l24 -24h408l-9 -15h-435l-3 35q-14 27 -67 24q-50 -3 -88 -38l-12 -21l6 -103q1 -21 3 -47l-21 3q-197 135 -408 144q-244 12 -406 -106
q-238 -217 -117 -540q167 -315 573 -353v18q14 199 61 370q36 117 56 188q-17 12 -71.5 23.5t-122 -19t-85.5 -95.5q-3 -56 35 -71l41 -11l-64 -218q-259 106 -294 306q-21 153 63 273.5t314.5 147t451.5 -313.5q3 -221 0 -566l-3 -6q-6 -238 -24 -429v-3l-12 -82l-8 -59
q14 -3 38 -9l14 -3l12 -11q19 -13 23 -15q104 9 127 32l6 9l21 9q14 6 23 12q-23 100 -29 167l-9 180v3l-30 11v27q-2 679 6 993v41h375z" />
    <glyph glyph-name="Charu_Chandan.070" unicode="&#x9a4;" horiz-adv-x="1730" 
d="M700 1191v-29q32 -367 -23 -664v-3q119 -53 288 32q0 192 -43 218l-62 18l-2 344q122 8 253 -44q146 -64 227 -210q85 -145 67 -306q-17 -154 -142 -265q-123 -108 -292 -128q-49 -6 -67 -6q-102 0 -212 44q-257 96 -394 387l15 21q-29 108 -50 210q-119 23 -227 -27
l-6 -14v-3q67 -216 178 -370q111 -155 314.5 -252.5t466.5 -73.5q271 29 425 157q152 140 157 323q12 359 -282 586q-195 140 -472 131q-187 -18 -137 -67zM1945 1534h-1993l9 15h1993zM671 483l-11 6q18 100 27.5 202.5t9.5 208.5q0 124 -12 261v18l-4 3l-7 4
q-20 20 -20 35q0 46 162 61h17q5 0 8.5 0.5t8.5 0.5q132 0 243 -34t205 -101q76 -59 130 -125l14 -13q213 -213 203 -522q-5 -188 -161 -332q-79 -65 -186 -105t-246 -55q-26 -2 -51.5 -3.5t-51.5 -1.5q-205 0 -370 79q-146 70 -245 170l-15 15q-72 60 -123 132
q-57 78 -102 173t-80 211l11 23q42 20 83 29t82 9q38 0 86 -9q0 -2 0.5 -4t0.5 -4l58 -57q11 -51 25 -109.5t28 -112.5l-14 -20q20 -44 42.5 -81.5t48.5 -72.5q51 -53 109.5 -92.5t122.5 -63.5q109 -43 207 -43q16 0 66 6q163 19 283 124q57 51 91.5 118t45.5 137q3 27 3 55
q0 127 -68 242q-29 52 -66 92q-21 16 -43.5 29t-47.5 24h-1q-111 44 -215 44q-8 0 -10 0.5t-10 -0.5q0 -72 0.5 -140.5t1.5 -138.5q10 -8 17 -21l47 -47q41 -40 41 -229q-113 -57 -201 -57q-29 0 -57.5 6.5t-55.5 21.5zM1843 1357h-1993l43 74h1993z" />
    <glyph glyph-name="Charu_Chandan.071" unicode="&#x9a5;" horiz-adv-x="1436" 
d="M1565 1431l-42 -74h-209l-2 -27q-3 -60 -4.5 -214t-1.5 -403q-3 -102 -3 -191q0 -91 3 -169v-11l20 -20q4 -4 7 -10l8 -189q3 -38 10.5 -83.5t18.5 -99.5q-7 -4 -16.5 -10.5t-24.5 -17.5l-1 1q-33 -25 -110 -43q-61 0 -90 31l-2 2l-60 10l-60 60h-5l17 103q12 71 15 164
v7q-11 39 -28 75t-42 66l-7 5q-56 35 -120.5 51.5t-138.5 16.5q-36 0 -76 -3h-7l-260 -240q-21 -3 -43 -3q-22 13 -40 26t-32 27l-33 33q-85 61 -81 145q261 117 449 339q106 115 106 241q0 20 -3.5 41t-8.5 44q-12 38 -36.5 74t-58.5 70q-23 15 -47.5 28.5t-52.5 27.5
q-63 -62 -93 -116t-30 -105q0 -9 0.5 -18t2.5 -17l31 -1l6 -11l54 -54q30 -56 30 -98q0 -56 -54 -90q-62 -37 -118 -37q-15 0 -30 2.5t-32 7.5l-57 57q-3 0 -7 2q-28 66 -41 124t-13 112q0 34 5 65t16 61q27 75 62 129.5t80 91.5q90 74 133 74q86 0 184 -62q78 -50 145 -132
l7 -7l-4 5l9 -9q20 -20 38.5 -41.5t35.5 -45.5q40 -62 58.5 -119t15.5 -113q0 -159 -140 -343q153 -12 273 -97q11 186 16.5 350.5t5.5 308.5q0 188 -9 346q5 11 20 21t36 19q15 8 30 12.5t26 6.5q62 3 77 -28l13 -13h379l-9 -15h-384l-12 20q-9 24 -61 21q-21 -3 -53 -18
q-41 -17 -47 -29v-3q24 -398 -14 -1028q-147 120 -358 112l-73 -3q212 229 210 423q6 106 -72 224q-73 102 -167 162t-176 60q-38 0 -123 -70t-137.5 -215t29.5 -344q82 -24 165.5 27.5t21.5 165.5l-58 3q-114 146 93 345q221 -98 273 -272q50 -179 -97 -340
q-190 -225 -445 -339q-3 -82 111 -147q15 0 36 3l260 240h12q41 3 76 3q149 0 265 -70t148 -214v-11q-3 -97 -15 -166t-15 -89l53 -9q26 -32 82 -32q79 18 107 39.5t34 24.5q-21 97 -27 176l-8 187q-3 6 -6 6l-21 15v23q-6 158 0 360q0 507 6 618l3 38h324z" />
    <glyph glyph-name="Charu_Chandan.072" unicode="&#x9a6;" horiz-adv-x="1094" 
d="M101 629q1 -3 4 -4zM1357 1534h-1405l9 15h1405zM1255 1357h-865q-1 -15 -1.5 -32.5t-0.5 -31.5q-3 -90 -3 -194q0 -79 1 -165t6 -180q165 76 245 178.5t80 235.5v20q82 51 137 51q31 0 67 -18l-1 -5l60 -59l-10 -148v-1q0 -14 -0.5 -28.5t-2.5 -26.5v-389q0 -157 3 -221
v-6l23 -22l12 -201q3 -31 10.5 -73.5t20.5 -94.5q-16 -13 -33 -19l-21 -11l-4 -3l1 -1q-12 -13 -37 -22t-67 -14q-6 -3 -16 -3q-40 -11 -58 8l-15 15l-6 1q-9 1 -22 4t-27 8l-58 58l-7 2l22 149q11 123 17.5 239.5t8.5 219.5q0 48 0.5 92.5t0.5 90.5q-175 -203 -352 -248
l2 -2q7 -7 -54 -7l-2 1v-4h-29q-40 7 -64 31l-11 11h-1q-2 1 -4.5 2t-5.5 2l-8 4q-11 3 -23 17l-44 44q-8 4 -21 17q8 32 13.5 68.5t8.5 74.5q3 22 3 95q2 29 3.5 56.5t3.5 44.5l19 14v20q-2 72 -7.5 160t-15.5 196h-276l43 74h242l3 -38q23 -237 26 -392v-26l-20 -15h-3
q0 -35 -3 -94q0 -73 -3 -96q-6 -76 -21 -138q6 -6 15 -9l6 -3q6 -2 12 -5l8 -3l6 -9q18 -21 59 -29h25q-16 3 4 3h6q243 35 477 365l-3 -365q-3 -208 -26 -460v-3l-21 -135q15 -5 38 -8l18 -3l9 -15q14 -15 47 -6q14 0 14 3q79 9 100 32l6 6l23 12q15 6 23 12
q-23 96 -29 163l-12 194l-20 11l-3 24q-3 64 -3 222v390q3 26 3 55l9 141q-67 35 -173 -32v-12q0 -302 -410 -460l-3 85q-14 328 -5 562l2 76h982z" />
    <glyph glyph-name="Charu_Chandan.073" unicode="&#x9a7;" horiz-adv-x="1375" 
d="M1007 1357h-65q-113 -146 -211 -278.5t-183 -252.5q269 -5 442 -200q8 303 12.5 480t4.5 236v15zM1022 1342q0 -120 -18 -754q-214 268 -592 214l47 69q178 252 416 560h147v-89zM725 1549h869l-9 -15h-860v15zM739 1545l-67 -114l-44 -65q-27 -43 -56 -86
q-20 -10 -43 -15q-59 -14 -129.5 33t-85.5 115t6 127l20 2q39 6 52.5 37t36.5 113l-3 3q-58 35 -159 32q-12 -3 -14 -6q-33 -32 -59 -108t9 -195q38 -90 125 -147q80 -53 199 -55q-117 -165 -269 -334q-79 -94 -126 -144q-20 -21 -64 -70q6 -68 50 -109t88 -41q14 0 26 6
q47 67 136 205l11 15l18 6q94 5 129 5q91 0 176 -46q199 -109 297 -381l2 -6v-6l-29 -273l-6 -59q15 -3 68 -23l17 -15q109 9 161 50q15 6 24 12q-29 114 -32 164q-3 23 -3 97q0 59 -3 91q0 3 -6 6l-21 12v23q-3 167 0 369q0 525 3 546l3 59v56h348l-42 -74h-232v-45l-3 -61
q-3 -21 -3 -543q-1 -51 -1.5 -99.5t-0.5 -94.5q0 -47 0.5 -90t1.5 -85v-9l22 -22q3 -3 5 -9q2 -16 2.5 -39.5t0.5 -52.5q0 -74 3 -96q2 -23 10.5 -65.5t23.5 -104.5q-8 -7 -14.5 -10t-16.5 -7q-27 -20 -70.5 -33.5t-100.5 -18.5l-20 17q-44 17 -75 23l-58 58q-2 0 -3.5 0.5
t-3.5 0.5l7 73l29 273v5h-1q-57 159 -152 263q-36 28 -75 51q-40 20 -84 32.5t-86 12.5q-17 0 -48 -1.5t-79 -3.5q-4 -2 -5.5 -1.5t-6.5 -1.5q-2 -3 -4.5 -6t-4.5 -6q-45 -69 -80 -121.5t-58 -86.5q-18 -9 -34 -9q-49 0 -96 44l-41 41q-11 7 -23 19q-47 44 -55 125
q17 20 33 37.5t26 28.5l9 9q46 49 126 144q60 67 114.5 133.5t105.5 133.5q-23 7 -44 17t-40 23q-29 19 -55 45l-26 26q-38 29 -67.5 65.5t-46.5 79.5q-20 69 -20 125q0 42 12 78q11 35 29 65.5t33 47.5q7 8 21 11q105 3 170 -34l12 -12q-1 -1 -1 -3l60 -60
q-13 -47 -22.5 -76t-16.5 -45q-16 -37 -61 -44l-13 -1q-9 -29 -9 -61q0 -13 1 -25.5t4 -26.5h1q2 -11 5 -20.5t8 -18.5q2 -2 3.5 -2.5t3.5 -1.5q64 -42 117 -31q20 3 37 13l4 5q2 3 4 6.5t4 5.5q11 15 21 31.5t20 32.5l44 64l-1 -1l64 108h17zM628 1331v-6l-1 -2z" />
    <glyph glyph-name="Charu_Chandan.074" unicode="&#x9a8;" horiz-adv-x="1409" 
d="M1642 1534h-1690l9 15h1690zM1540 1357h-246q-2 -8 -2 -15.5t-2 -15.5q-6 -234 -6 -665v-157t1 -169v-5l29 -29l9 -186q2 -32 10 -75t21 -98l-17.5 -10.5t-14.5 -7.5l-17 -7l-3 -4q-31 -31 -141 -40q-6 2 -11.5 5.5t-12.5 8.5l-13 13l-13 2l-49 12l-59 59l-6 1l11 72
q1 11 2 21t3 21l6 42q9 94 15 206.5t9 227.5l3 3l-6 227q-152 79 -313 79q-18 0 -36 -1t-37 -3q-221 -26 -305 -142q-30 -46 -47.5 -100t-17.5 -109q0 -14 1 -27.5t3 -27.5q12 -70 56 -129q61 -55 154 -96q8 29 17 57.5t17 57.5l16 54l-26 28q-45 24 -41 86q20 71 94 106
q47 23 96 23q20 0 35 -3q60 -14 87 -33q-1 -1 -1 -4l59 -59q-10 -35 -25.5 -85.5t-33.5 -109.5h1q-23 -85 -38.5 -178.5t-22.5 -190.5v-30q-308 28 -482 202l-24 23q-94 79 -154 191q-43 114 -43 216q0 198 165 348q149 110 369 110h23t23 -1q103 -5 210 -21t202 -43
q5 -2 7.5 -2t5.5 -1q2 0 10 -2q2 45 2 88v85q0 59 -1 108.5t-3 98.5h-1192l43 74h1159q15 -205 6 -473l-41 9q-198 55 -409 64q-244 12 -405 -106q-239 -217 -119 -540q169 -315 574 -353v18q14 199 61 371q36 117 56 187q-17 12 -71.5 24t-122 -19t-85.5 -96q-3 -55 35 -70
l42 -12l-65 -218q-258 106 -294 306q-20 153 63.5 273.5t314 146.5t451.5 -109l12 -11l6 -259l-3 -5q-6 -239 -24 -430v-3l-11 -82l-9 -59q15 -3 38 -9l15 -3l11 -11q18 -13 22 -15q105 9 128 32l6 9l21 9q14 6 23 12q-23 99 -29 167l-9 180v3l-29 12v26q-3 678 5 993l6 41
h361z" />
    <glyph glyph-name="Charu_Chandan.075" unicode="&#x9aa;" horiz-adv-x="1474" 
d="M617 1375q-68 -19 -126.5 -62.5t-105.5 -111.5q135 -12 212 -47q91 -43 102 -70l48 -48q5 -5 8 -9t4 -9q6 -29 6 -62q0 -16 -1.5 -32t-3.5 -33q97 75 179.5 135.5t151.5 107.5l-38 39q-212 185 -436 202zM617 758q95 191 68 320q-6 21 -94 62t-256 50l-67 3
q106 209 285 256q288 -18 561 -318q-191 -126 -497 -373zM1573 1431l-42 -74h-179l-2 -30q-3 -38 -3 -311q-3 -191 -3 -311q0 -256 3 -362v-8l23 -23l9 -200q3 -33 11 -75.5t21 -95.5l-34 -18q-7 -2 -13.5 -5t-11.5 -10q-10 -10 -34.5 -17t-69.5 -12q-6 -6 -28 -6
q-24 0 -43 19l-12 12l-11 1q-28 3 -46 13l-55 55l-10 5q0 36 9 69l12 80q10 125 16.5 239t9.5 216v173q1 19 2 48.5t1 71.5q-250 -162 -411 -379q-14 -11 -38.5 -17.5t-58.5 -7.5q-68 -2 -175 66l-51 50l-16 11l27 34q155 161 155 324q0 14 -1.5 27.5t-3.5 27.5
q-60 31 -153 41q-43 4 -77 6t-60 2q-22 0 -83 34q-8 5 -16.5 10t-18.5 10l-55 55l-10 5v34q54 83 110 146.5t108 103.5q63 47 138 72t162 25q11 0 25 -0.5t26 -2.5q94 -5 216.5 -60.5t266.5 -161.5v72q0 93 -3 128q-5 58 99 69q71 0 91 -35l1 -2l13 -13h342l-9 -15h-348
l-12 24q-15 26 -77 26q-88 -9 -85 -53q3 -35 3 -129v-103q-306 235 -499 238q-27 3 -50 3q-168 0 -291 -94q-103 -77 -212 -244v-18q12 -6 29 -17h3q56 -33 74 -33q53 0 138 -8q162 -18 226 -95q44 -205 -150 -408l-17 -21q94 -58 158.5 -56.5t85.5 18.5q188 253 499 435
v-97q0 -103 -3 -147v-173q-6 -206 -26 -456v-3l-12 -79q-9 -35 -9 -56q12 -6 36 -9l17 -3l12 -14q15 -15 35 -15q3 0 -3 3q106 9 130 32v3q11 9 26 12h3q12 6 21 12q-24 97 -30 164l-9 194h-3l-20 15v23q-3 106 -3 362q0 120 3 311q0 274 3 312l3 41h294z" />
    <glyph glyph-name="Charu_Chandan.076" unicode="&#x9ab;" horiz-adv-x="1740" 
d="M451 1193q0 2 -2 2v-1zM-39 1549h1979l-9 -15h-1979zM-107 1431h155q18 0 112 -23t199 -114q144 -91 128 -306.5t-433 -518.5q-3 -5 -6 -8l-3 -12q9 -9 27 -18h3q66 -45 135 -47l23 9h6q24 3 41 18q38 41 147 185l17 20l24 -3q387 -32 499 -405v-14q0 -12 -24 -217l53 -9
l12 -18q85 -15 126 16t47 37q-24 94 -27 158v3l-8 197h-3l-21 12v23q-3 114 -3 364v3q3 284 12 402v44h44q176 14 246 -38l3 -6q65 -88 9 -214l-26 -3q-12 -3 -15 -3q-100 -88 -91 -115q18 -29 57.5 -61.5t94 -39.5t65.5 4l3 3q24 24 30 56q46 247 35 299q-15 88 -90 120.5
t-160 42.5t-355 2l-14 -784q-153 220 -481 194q102 176 129 343q29 235 -200 422h1457l-43 -74h-1313l15 -18l21 -21q73 -74 106.5 -152t33.5 -167q0 -27 -3 -54q-21 -127 -86 -263q111 -8 198.5 -49.5t150.5 -116.5q2 93 3.5 186.5t3.5 187.5l7 381q62 2 121 3t102 1
q50 0 87.5 -1.5t60.5 -4.5q43 -5 86 -16.5t79 -27.5q39 -21 67 -58l42 -41q19 -19 31.5 -42.5t17.5 -52.5t-3.5 -105t-31.5 -198q-8 -36 -34 -62l-3 -3q-5 -5 -15 -8t-24 -3q-8 0 -17.5 0.5t-19.5 2.5q-28 4 -53 14.5t-47 27.5q-8 6 -14 12l-12 12l-31 30l-7 6
q-41 35 -60 65q-13 39 98 138q6 0 18 3l19 2q21 51 21 94q0 16 -3.5 31.5t-9.5 30.5q-51 17 -124 17q-33 0 -70 -3h-32v-33q-5 -60 -7.5 -159.5t-4.5 -244.5q0 -250 3 -364v-3l24 -24l8 -207q3 -65 28 -162q-6 -6 -16.5 -14.5t-16.5 -13.5q-5 -4 -10.5 -7.5t-9.5 -7.5
q-32 -24 -82 -24q-25 0 -59 6l-20 20l-50 8l-59 59l-6 1q13 108 19 164.5t6 64.5v13q-46 144 -142 240q-112 77 -281 92l-18 2l-12 -14q-54 -72 -91.5 -118.5t-57.5 -68.5q-18 -16 -48 -21h-4l-22 -9q-38 1 -74.5 13.5t-73.5 35.5l1 -1q-18 9 -35 26l-40 39q-6 5 -12.5 10
t-12.5 12l4 21l16 18q201 146 305.5 273.5t117.5 230.5q1 9 1.5 21t0.5 21q0 116 -54 188l-8 6q-99 87 -193 110q-48 11 -74.5 17t-34.5 6h-260z" />
    <glyph glyph-name="Charu_Chandan.077" unicode="&#x9ac;" horiz-adv-x="1368" 
d="M969 1357h-64q-112 -146 -210 -277t-184 -251q137 -2 246.5 -52t194.5 -147q8 299 12.5 477t4.5 237v13zM984 1344q0 -121 -18 -755q-205 273 -592 215l46 67q180 252 418 560h146v-87zM-107 1431h742l-44 -64q-150 -238 -370 -484q-79 -94 -126 -145q-20 -20 -62 -64
q27 -123 135 -156q15 0 27 6q47 68 135 205l11 15l18 6q94 6 129 6q91 0 177 -47q199 -109 296 -381l3 -6v-6l-30 -273l-6 -59q15 -3 68 -23l17 -15q109 9 162 50q15 6 24 12q-29 114 -32 164q-3 23 -3 97q0 59 -3 91q0 3 -6 6l-21 12v23q-2 167 0 370q0 525 3 546l3 114
h355l-43 -74h-239l-2 -104q-3 -21 -3 -544q-1 -51 -1 -99v-95v-90.5t1 -85.5v-9l22 -22q3 -3 5 -9q2 -16 2.5 -39.5t0.5 -52.5q0 -74 3 -96q2 -23 10.5 -65.5t23.5 -104.5q-8 -7 -14.5 -10t-16.5 -7q-27 -20 -71 -33.5t-101 -18.5l-20 17q-44 17 -75 23l-58 58
q-2 0 -3.5 0.5t-3.5 0.5l7 73l30 272q-1 0 -1 1v2q-30 84 -71 152t-92 122q-30 23 -64 43q-41 21 -85 33.5t-86 12.5q-33 0 -127 -6q-4 -2 -5.5 -1.5t-6.5 -1.5l-9 -13q-90 -138 -137 -207q-18 -9 -36 -9q-50 15 -85 50l-37 36q-68 47 -90 148l67 70q23 26 55 62.5t71 82.5
q209 233 356 464h-716zM-39 1549h1602l-9 -15h-1602z" />
    <glyph glyph-name="Charu_Chandan.078" unicode="&#x9ad;" horiz-adv-x="1809" 
d="M1565 905q-81 141 -198 210v-9q-98 -258 -397 -371q-45 6 -57 24q-45 50 12 221l9 33h39q23 0 41 3q0 15 -3 33v24l9 95l-3 3q3 12 0 15q-26 24 -96.5 57t-103.5 33h-18l-15 -12h-3q-78 -374 -45 -610q60 -57 129 -72q242 27 514 329l60 -108q120 -308 -66 -532
q-116 -150 -296 -174q-227 -18 -368 45q-287 126 -410 383l-24 54l54 12q-6 27 -27 126q-12 66 -24 92q-173 18 -248 -26l-3 -12q51 -261 207 -446q158 -198 411 -271t459 -37q222 44 374 194q275 329 87 694zM1087 1132q6 -6 5 -20l2 -2l-9 -100v-21q3 -18 3 -45
q-15 -2 -28.5 -3.5t-24.5 -1.5h-29q-2 -6 -4 -12.5t-4 -12.5q-15 -46 -23 -83t-8 -66v-15h1q138 54 236.5 147t147.5 211v34q91 -55 161 -139l22 -21q59 -59 102 -133l1 -1q77 -148 77 -295q0 -213 -166 -412q-156 -155 -381 -198q-68 -12 -144 -12q-74 0 -155.5 13
t-164.5 36q-208 60 -357 209l-26 25q-26 23 -51 48.5t-47 52.5q-78 94 -132 209.5t-80 246.5l5 21q64 37 171 37q41 0 101 -6q1 -2 2 -4.5t2 -5.5l56 -55q8 -17 15 -42t13 -58l30 -138l-52 -12l18 -40q38 -78 90 -143q53 -51 115.5 -94t137.5 -75q108 -48 265 -48
q22 0 46.5 1t48.5 3q86 12 158 54t128 114q110 134 110 294q0 49 -13 108t-33 115l-6 11q-130 -137 -253.5 -211.5t-240.5 -88.5q-72 16 -138 78l-35 34q-15 12 -30 27q-6 39 -8.5 78t-2.5 81q0 100 14 215t45 249l25 21h22q17 0 46 -9t63 -25q69 -32 101 -61l6 -10z
M1878 1357h-2028l43 74h2028zM1980 1534h-2028l9 15h2028z" />
    <glyph glyph-name="Charu_Chandan.079" unicode="&#x9ae;" horiz-adv-x="1386" 
d="M544 1087v-19.5t-1 -18.5h18t18 -1q103 -5 209 -21t201 -43q5 -2 7.5 -2t5.5 -1q2 0 10 -2q2 43 2 83.5v79.5q0 61 -1 112.5t-4 102.5h-555q60 -80 86 -185q2 -21 3 -42.5t1 -42.5zM457 1030q21 83 9 199q-29 118 -99 202h653q14 -205 6 -471l-41 9q-197 55 -407 64
q-63 3 -121 -3zM1603 1534h-1651l9 15h1651zM1501 1357h-239q-2 -9 -2 -17t-2 -16q-4 -117 -5.5 -283.5t-1.5 -386.5v-152t1 -163v-4l29 -29l9 -195q3 -33 10.5 -77t20.5 -98l-32 -15l-17 -7l-3 -4q-29 -29 -143 -40l-25 17l-10 10l-12 2l-48 12l-58 58l-7 2l9 71l12 85
q8 97 14.5 208.5t9.5 226.5q0 2 2 6v28t-0.5 33.5t-1 34t-0.5 29.5l-3 103q-76 38 -154 59t-155 21q-18 0 -37 -1.5t-38 -3.5q-223 -25 -304 -141q-65 -95 -65 -208q0 -14 1 -27.5t3 -27.5q5 -35 19 -67t35 -61q32 -27 70.5 -51.5t84.5 -44.5q8 26 16 53.5t16 53.5l19 60
l-29 29q-43 25 -39 86q19 69 94 105q47 23 96 23q20 0 35 -3q59 -14 87 -32l-2 -5l60 -59l-58 -195q-21 -81 -37.5 -178.5t-24.5 -188.5v-29q-307 29 -478 200l-23 22q-95 80 -154 192q-44 116 -44 217q0 197 164 346q69 53 152 79q0 2 1 3.5t1 3.5l4 21q6 30 6 57
q0 43 -16.5 86t-45.5 81q-69 49 -179 86h-239l43 74h134q163 -51 236 -130q104 -113 76 -256q-4 -22 -7 -39q-87 -26 -158 -78q-237 -217 -117 -539q166 -313 570 -351v17q15 199 62 369q35 117 56 187q-18 12 -72 24t-121.5 -19t-85.5 -95q-3 -56 36 -71l41 -11l-65 -217
q-258 106 -293 305q-20 152 63.5 272t313 146.5t449.5 -108.5l12 -12l5 -257l-2 -6q-6 -237 -24 -436v-3l-12 -82l-8 -59q14 -3 38 -9l14 -3l12 -11q19 -14 22 -15q104 9 127 32l6 9l21 9q14 6 23 11q-23 100 -29 167l-9 188v3l-29 11v27q-3 676 6 987l6 43h354z" />
    <glyph glyph-name="Charu_Chandan.080" unicode="&#x9af;" horiz-adv-x="1383" 
d="M741 987q-9 -72 -44 -152.5t-95 -163.5q106 -3 204 -40.5t189 -112.5q2 108 2.5 206.5t0.5 186.5q0 137 -1.5 245.5t-4.5 200.5h-434l12 -15l14 -13q86 -86 125 -172t32 -170zM1010 487q-246 217 -560 156q199 220 217 407.5t-205 380.5h542q15 -322 6 -944zM-26 1549
h1682l-9 -15h-1682zM-99 1423q161 -4 222 -10q172 -18 290.5 -134.5t106.5 -195.5q18 -68 -23 -138q-44 -88 -149.5 -207t-325.5 -256q108 -109 167 -97h12l6 3h11q21 3 47 23q41 44 129 159l36 14q404 35 574 -355l3 -8v-12l-26 -220q11 -6 32 -9l21 -3l11 -14
q10 -16 62 -18q-8 1 12 3q49 12 70 35l15 15h5l9 3q18 6 27 11q-33 115 -36 162v3l-8 187q0 3 -3 6l-21 12l-3 23q-3 173 0 367q3 114 3 308q3 269 3 315l3 36h405l-43 -74h-289l-2 -24v-1q0 -47 -3 -314v-80q0 -44 -0.5 -87t-1 -80.5t-1.5 -60.5q-1 -45 -1.5 -96t-0.5 -93
q0 -46 0.5 -90t1.5 -86l1 -10l17 -17q9 -9 9 -16q2 -48 4 -95l4 -94v-1q3 -44 39 -168q-17 -9 -38 -16l-12 -4h-2l-11 -10l1 -1q-13 -13 -37 -26l5 -5q5 -5 -43 -8l-14 -3q-54 2 -70 19l-15 15l-13 1q-20 3 -43 15l-55 55l-10 5l27 229v9l-1 1l-1 1v2q-58 123 -139 203
q-123 87 -295 87q-14 0 -30.5 -0.5t-32.5 -2.5q-8 -3 -14.5 -6t-14.5 -6q-44 -57 -76 -96t-54 -63q-28 -22 -52 -25h-10l-6 -3h-13q-65 -12 -182 105l-18 17q-13 11 -27 24t-28 28q118 73 202 138.5t136 124.5q52 58 88.5 108t58.5 95q27 48 27 91q0 9 -1 18.5t-4 20.5
q9 68 -79 162q-102 81 -242 96q-79 8 -324 13z" />
    <glyph glyph-name="Charu_Chandan.081" unicode="&#x9b0;" horiz-adv-x="1331" 
d="M952 1357h-64q-112 -146 -210 -277t-184 -251q137 -2 246.5 -52t194.5 -147q8 299 12.5 477t4.5 237v13zM967 1344q0 -121 -18 -755q-205 273 -592 215l46 67q180 252 418 560h146v-87zM-124 1431h742l-44 -64q-150 -238 -370 -484q-79 -94 -126 -145q-20 -20 -62 -64
q27 -123 135 -156q15 0 27 6q47 68 135 205l11 15l18 6q94 6 129 6q91 0 177 -47q199 -109 296 -381l3 -6v-6l-30 -273l-6 -59q15 -3 68 -23l17 -15q109 9 162 50q15 6 24 12q-29 114 -32 164q-3 23 -3 97q0 59 -3 91q0 3 -6 6l-21 12v23q-2 167 0 370q0 525 3 546l3 114
h355l-43 -74h-239l-2 -104q-3 -21 -3 -544q-1 -51 -1 -99v-95v-90.5t1 -85.5v-9l22 -22q3 -3 5 -9q2 -16 2.5 -39.5t0.5 -52.5q0 -74 3 -96q2 -23 10.5 -65.5t23.5 -104.5q-8 -7 -14.5 -10t-16.5 -7q-27 -20 -71 -33.5t-101 -18.5l-20 17q-44 17 -75 23l-58 58
q-2 0 -3.5 0.5t-3.5 0.5l7 73l30 272q-1 0 -1 1v2q-30 84 -71 152t-92 122q-30 23 -64 43q-41 21 -85 33.5t-86 12.5q-33 0 -127 -6q-4 -2 -5.5 -1.5t-6.5 -1.5l-9 -13q-90 -138 -137 -207q-18 -9 -36 -9q-50 15 -85 50l-37 36q-68 47 -90 148l67 70q23 26 55 62.5t71 82.5
q209 233 356 464h-716zM-56 1549h1602l-9 -15h-1602zM510 432q47 0 83 -18.5t59 -51.5l41 -42q22 -22 34 -52.5t12 -67.5q0 -73 -47 -120q-48 -48 -120 -48q-37 0 -67 12t-52 34l-39 40q-35 22 -54 59t-19 85q0 38 12 69t34.5 53.5t53.5 35t69 12.5zM510 417
q-69 0 -111.5 -43t-42.5 -112t42.5 -112.5t111.5 -43.5q68 0 111.5 43.5t43.5 112.5t-43.5 112t-111.5 43z" />
    <glyph glyph-name="Charu_Chandan.082" unicode="&#x9b2;" horiz-adv-x="1642" 
d="M-107 1431h1355v-425q-117 162 -202 144q-107 -31 -175 -154q-170 151 -344 154q-220 -3 -346 -126q-202 -217 -100 -540q141 -313 487 -351v17q21 217 56 327t53 180q-56 50 -142.5 38.5t-107.5 -87.5q-3 -56 65 -94l-50 -173q-202 82 -234 281q-18 153 56.5 273
t265.5 133q160 11 306 -110q-36 -102 -36 -143q32 -44 85 -77q44 -26 67 -32q35 302 148 318t142 -95v-26q0 -487 -20 -736v-6q-3 -6 -6 -29q-3 -30 -6 -47q-3 -21 -9 -50v-9q12 -6 36 -9l20 -3l12 -14q12 -15 29 -15q24 0 44 3q59 6 79 32h3q9 12 27 15q14 9 23 14
q-26 115 -32 165q-3 61 -9 190v3l-21 12v23q-11 238 -5.5 592.5t8.5 395.5v41h342l-43 -74h-225v-30q-3 -41 -9 -395q-1 -47 -1 -103v-99q0 -112 1.5 -209t5.5 -181v-10l21 -21l9 -196q3 -23 11.5 -66t22.5 -106l-33 -20q-8 -2 -13.5 -4t-10.5 -6q-23 -29 -87 -37
q-20 -3 -46 -3q-9 0 -18 4.5t-17 12.5l-14 14l-14 1q-28 3 -46 13l-55 55l-10 5v22q6 30 9 49l6 46q0 2 0.5 3t0.5 3q2 10 2.5 17t2.5 12q10 125 15 307.5t5 427.5v22q-2 6 -4 11.5t-4 10.5q-24 8 -55 3q-106 -15 -140 -322q-32 9 -83 38q-33 20 -62 49l-31 30
q-18 14 -34 30.5t-29 34.5q0 20 6.5 52t21.5 77q-54 30 -109 43.5t-111 11.5q-86 -8 -154 -41.5t-103 -85.5q-27 -46 -42 -99t-15 -110q0 -28 3 -56q12 -79 52 -139q21 -18 45.5 -33t52.5 -28l20 67q6 19 11 37t10 38l-4 4q-62 41 -57 104q23 86 120 98h-1q8 2 17.5 2h17.5
q35 0 67 -12t61 -38q0 -1 -0.5 -1.5t-0.5 -1.5l60 -60q-9 -35 -24 -84t-32 -104q-17 -53 -30.5 -135t-24.5 -189v-29q-240 27 -383 170l-28 27q-101 85 -163 221q-36 115 -36 213q0 198 138 345q131 128 357 131q87 -2 170.5 -37t168.5 -108q34 54 79 92t97 53
q43 9 90 -18.5t101 -95.5v306h-1383zM-39 1549h1864l-9 -15h-1864z" />
    <glyph glyph-name="Charu_Chandan.083" unicode="&#x9b6;" horiz-adv-x="1508" 
d="M-89 1428q309 18 384 -53.5t54 -183.5q-20 -135 -264 -311q-58 -41 135 -105q88 -29 176 100q73 108 94 231q47 -234 117 -308q15 -29 82 -23q71 6 144 56q3 3 3 8q-12 21 -68 106q-58 91 -79 138q-17 50 -20 105q-3 71 53 129q55 59 128 59q156 -29 273 -229l12 -26
q3 -545 -38 -1000q0 -26 -15 -85q-6 -38 -9 -56q6 -2 21 -2q14 -3 20 -3l15 -3l9 -12q12 -18 73 -15h3q70 3 91 33q9 8 26 14h3q18 12 21 15q-24 102 -30 155q-3 18 -3 103q-2 35 -2 85q0 3 -6 3l-18 14v24q-3 70 -3 554q3 410 6 486h318l-43 -74h-202q-2 -46 -2.5 -163.5
t-2.5 -310.5q0 -484 3 -554v-10l20 -20q4 -4 4 -11q0 -25 0.5 -46.5t1.5 -38.5q0 -84 3 -102q3 -24 11 -64t21 -97l-33 -21q-7 -2 -12 -5t-9 -5q-12 -17 -37.5 -26.5t-65.5 -11.5q-61 -3 -81 16l-14 14h-3q-5 0 -11.5 0.5t-11.5 2.5q-17 0 -32 5l-58 58q-3 0 -7 2l11 74
q15 58 15 79q19 214 28.5 444.5t9.5 482.5v68l-10 23v-1q-37 62 -81 109q-57 40 -119 54q-65 0 -117 -55q-53 -56 -50 -120q2 -28 6.5 -53t11.5 -48h1q11 -24 29.5 -57.5t46.5 -76.5l2 -2l19 -30l51 -80q0 -12 -11 -23q-36 -25 -73.5 -39t-73.5 -17q-62 -5 -86 19l-50 49
q-16 8 -22 21q-39 42 -68 119q-24 -55 -58 -103q-75 -110 -154 -110q-11 0 -19.5 1.5t-16.5 3.5q-107 35 -141 70l-45 44q-35 24 -35 46q0 18 19 31q115 84 181.5 161t76.5 140q2 11 3 22t1 21q0 32 -45 76.5t-189 44.5q-51 0 -269 1zM-98 1547q129 4 173 4q179 0 294 -86
q38 -26 98 -96q27 -29 47 -64q1 5 2 9.5t3 9.5l4 10q26 69 74.5 111.5t114.5 59.5q39 9 59 9q151 0 324 -198l11 -10l19 -20v1q0 2 0.5 4t0.5 4q1 8 1 19.5v26.5q0 32 -1 79t-3 111q0 11 16.5 22.5t45.5 23.5q10 5 23.5 8t24.5 3q32 0 69 -23l3 -8l8 -8h372l-8 -15h-378
l-9 21q-50 32 -99 8q-53 -20 -53 -32q6 -190 3 -237l-3 -50q-200 255 -367 255q-14 0 -55 -9q-129 -29 -179 -161l-3 -9l-41 -141q-21 206 -132 273q-137 112 -466 82z" />
    <glyph glyph-name="Charu_Chandan.084" unicode="&#x9b7;" horiz-adv-x="1407" 
d="M741 947q-12 -66 -45.5 -135t-87.5 -141q106 -3 204 -40.5t189 -112.5q3 159 3 295q-67 34 -130.5 66.5t-132.5 67.5zM600 1321q53 -53 84.5 -103.5t48.5 -103.5q68 -40 136 -81t135 -81q0 126 -1.5 223t-4.5 182h-431q6 -7 12 -13.5t11 -13.5zM1010 1431q9 -197 9 -506
l-350 209q-28 147 -201 297h542zM1016 487q-246 217 -560 156q187 206 214 384l349 -175q0 -167 -3 -365zM-111 1424q171 -4 240 -11q172 -19 290.5 -135t121.5 -189.5t-38 -143.5q-44 -88 -149.5 -207t-325.5 -256q108 -109 167 -97h12l6 3h11q21 3 47 23q41 44 129 159
l36 14q404 35 574 -355l3 -8v-12l-26 -220q12 -6 32 -9l21 -3l11 -14q10 -16 62 -18q-8 1 12 3q49 12 70 35l15 15h6l8 3q18 6 27 11q-33 115 -35 162v3l-9 187q0 3 -3 6l-21 12l-3 23q-3 173 0 367q3 114 3 308q3 270 3 314l3 37h318l-42 -74h-203l-2 -26v-48.5t-0.5 -71.5
t-1 -90t-1.5 -103v-80t-0.5 -87t-1 -80.5t-1.5 -60.5q-1 -45 -1.5 -96t-0.5 -93q0 -46 0.5 -90t1.5 -86l1 -10l17 -17q9 -9 9 -15l9 -191q1 -38 38 -168q-8 -4 -17.5 -7.5t-20.5 -7.5l1 -1l-10 -4h-5l-11 -10l1 -1q-16 -18 -47 -30q5 -6 -28 -9l-13 13l-1 -16q-52 1 -70 19
l-15 15l-13 1q-21 3 -43 14l-55 55l-10 5l27 230v9q-1 0 -1 1t-0.5 1t-0.5 2q-58 123 -139 203q-123 87 -295 87q-14 0 -30.5 -0.5t-32.5 -2.5q-8 -3 -14.5 -6t-14.5 -6q-44 -57 -76 -96t-54 -63q-28 -22 -52 -25h-10l-6 -3h-13q-65 -12 -182 105l-18 17q-13 11 -27 24
t-28 28q118 73 202 138.5t136 124.5q52 58 88.5 108t58.5 95q40 69 37 137q-3 58 -87 148q-105 87 -249 102q-70 8 -344 13zM-40 1549h1615l-8 -15h-1615z" />
    <glyph glyph-name="Charu_Chandan.085" unicode="&#x9b8;" horiz-adv-x="1488" 
d="M451 1357q100 -111 160.5 -236.5t80.5 -265.5q17 1 34.5 1.5t34.5 0.5q201 0 338 -110q8 130 11 236t3 194q0 52 -1.5 97t-3.5 83h-657zM1121 1384q18 -209 -9 -668q-182 165 -485 115q-18 341 -265 600h759v-47zM-107 1431h207l15 -11q353 -271 379 -598
q15 -197 -100 -376v-3l-3 -3q-126 -139 -342 -136q-40 -100 -20 -135q250 59 424 215q150 153 177 409q314 15 476 -271l9 -12l-3 -14q-12 -206 -26 -374q0 -32 -12 -82q-6 -36 -9 -59q15 -6 41 -9l18 -3l9 -15q106 -17 154.5 13.5t57.5 36.5q-27 112 -30 165q-3 24 -6 100
v88l-6 6l-20 12l-3 24q-3 114 -3 370q6 536 9 618l3 44h302l-43 -74h-186l-2 -33q-3 -86 -9 -617q0 -255 3 -369l1 -11l13 -13h-1l2 -1l14 -14v-92q3 -73 6 -99q2 -24 10 -66.5t22 -104.5l-66 -41q-38 -22 -91 -22q-16 0 -35 1.5t-41 5.5l-16 16l-5 1h-1q-25 3 -52 14
l-57 57l-8 3l10 75q12 49 12 76q7 85 13.5 179t12.5 197q0 1 1 3.5t1 3.5l-4 5q-37 63 -78 110q-125 99 -294 99q-8 0 -10 -0.5t-10 -0.5q-28 -251 -180 -406q-89 -79 -197.5 -134t-239.5 -86l-59 59q-2 -1 -5 -1q-12 21 -12 45q0 30 32 122q108 -2 191.5 31.5t145.5 99.5
q2 7 4 9q98 150 98 319q0 11 -0.5 21t-1.5 23q-14 123 -77.5 245t-173.5 234l-58 48l-2 1q-7 4 -9 8h-309zM-39 1549h1698l-9 -15h-1698z" />
    <glyph glyph-name="Charu_Chandan.086" unicode="&#x9b9;" horiz-adv-x="1336" 
d="M-39 1549h1615l-9 -15h-1615zM-107 1431h313q26 -224 -33 -552q16 -6 48 -6h16q102 -3 184 82q54 65 37 119l-48 37l-37 8q-8 164 -8 237v67q415 0 545 -211q115 -240 -27.5 -442t-458.5 -236h-9l-8 3h-17l-14 9q-65 50 -133 90q-6 3 -17 3q-39 0 -107 -11.5t-144 -62.5
l223 -87q232 -113 503 -260v-20q192 -93 367 -209l65 -45q22 -20 39 -31q34 8 82 73q28 57 27 91t-1 37q-91 25 -147 50l-9 6q-84 37 -152 73l-20 -14l-23 12q-141 62 -305 152l-113 62l156 51q181 42 293.5 148t141.5 287q14 141 -48 272.5t-184 217.5h638l-43 -74h-491
l11 -14l22 -21q36 -36 67.5 -79t52.5 -87q26 -54 38.5 -112t12.5 -115v-26.5t-2 -25.5q-15 -93 -51.5 -166t-93 -128t-132 -92.5t-167.5 -58.5h-1l-92 -30q84 -45 160 -83.5t136 -64.5l16 -8q5 3 10.5 7.5t10.5 7.5q34 -18 76 -38.5t84 -39.5l7 -5q29 -14 68.5 -26.5
t87.5 -26.5v-5l59 -59v-15t1 -30q2 -39 -29 -99q-52 -71 -93 -79q-14 9 -24.5 17.5t-20.5 16.5l-65 45q-86 57 -179.5 110t-192.5 101l-44 44q-123 66 -234.5 123.5t-217.5 109.5h-1l-243 96l-57 57l-12 5q49 32 94 52t80 27q32 6 60.5 9t49.5 3q14 0 26 -6q34 -20 67 -42
t66 -48l10 -6h17l6 -3h5q147 20 263 77.5t184 152.5q76 107 76 227q0 95 -49 199v-1q-11 18 -27 37q-144 105 -431 108v-55q0 -33 0.5 -78.5t3.5 -111.5l28 -21q0 -2 0.5 -3t0.5 -3l58 -57q20 -66 -38 -135q-86 -89 -193 -86h-16q-32 0 -62 11l-57 56l-9 4q22 125 33 228
t11 188q0 18 -0.5 36t-1.5 35h-347z" />
    <glyph glyph-name="Charu_Chandan.087" unicode="&#x9bc;" 
d="M-896 -120q47 0 83 -18.5t59 -51.5l41 -42q22 -22 34 -52.5t12 -67.5q0 -73 -47 -120q-48 -48 -120 -48q-37 0 -67 12t-52 34l-39 40q-35 22 -54 59t-19 85q0 38 12 69t34.5 53.5t53.5 35t69 12.5zM-896 -135q-69 0 -111.5 -43t-42.5 -112t42.5 -112.5t111.5 -43.5
q68 0 111.5 43.5t43.5 112.5t-43.5 112t-111.5 43z" />
    <glyph glyph-name="Charu_Chandan.088" unicode="&#x9bd;" horiz-adv-x="1158" 
d="M-48 1534l9 15h823l-1 -6l60 -59l-7 -96q29 -27 50 -54l23 -22q34 -34 62 -73t48 -83q26 -54 38.5 -112t12.5 -115v-26.5t-2 -25.5q-15 -93 -51.5 -166t-93 -128t-132 -92.5t-167.5 -58.5h-1l-92 -30q84 -45 160 -83.5t136 -64.5l16 -8q5 3 10.5 7.5t10.5 7.5
q34 -18 76 -38.5t84 -39.5l7 -5q29 -14 68.5 -26.5t87.5 -26.5v-5l59 -59v-15t1 -30q2 -39 -29 -99q-52 -71 -93 -79q-14 9 -24.5 17.5t-20.5 16.5l-65 45q-86 57 -179.5 110t-192.5 101l-44 44q-123 66 -234.5 123.5t-217.5 109.5h-1l-243 96l-57 57l-12 5q49 32 94 52
t80 27q32 6 60.5 9t49.5 3q14 0 26 -6q34 -20 67 -42t66 -48l10 -6h17l6 -3h5q147 20 263 77.5t184 152.5q76 107 76 227q0 95 -49 199v-1q-6 10 -13 19t-15 18q-72 53 -179 78.5t-251 27.5v-53q0 -33 0.5 -78.5t3.5 -111.5l28 -21q0 -2 0.5 -3t0.5 -3l58 -57
q20 -66 -38 -135q-86 -89 -193 -86h-16q-32 0 -62 11l-57 56l-9 4q22 125 33 228t11 188q0 18 -0.5 36t-1.5 35h-239l42 74h206q26 -224 -33 -552q16 -6 48 -6h16q102 -3 184 82q54 65 37 119l-48 37l-37 8q-8 164 -8 237v65q415 0 545 -209q115 -240 -27.5 -442
t-458.5 -236h-9l-8 3h-17l-14 9q-65 50 -133 90q-6 3 -17 3q-39 0 -107 -11.5t-144 -62.5l223 -87q232 -113 503 -260v-20q192 -93 367 -209l65 -45q22 -20 39 -31q34 8 82 73q28 57 27 91t-1 37q-91 25 -147 50l-9 6q-84 37 -152 73l-20 -14l-23 12q-141 62 -305 152
l-113 62l156 51q181 42 293.5 148t141.5 287q14 141 -48 272.5t-184 215.5l6 105h-816z" />
    <glyph glyph-name="Charu_Chandan.089" unicode="&#x9be;" horiz-adv-x="586" 
d="M-107 1431h307l6 -411l-3 -367l-6 -135q-3 -238 -23 -408l-18 -138l59 -24q132 -8 155 21q41 18 50 26q-23 91 -29 159l-6 182q0 3 -6 6l-20 9l-3 20q-3 217 0 402q3 118 3 291q3 258 3 337l2 30h354l-43 -74h-238q-1 -4 -1 -9v-9q0 -79 -3 -337v-73t-0.5 -81.5t-1 -76.5
t-1.5 -60q-1 -43 -1.5 -95t-0.5 -98q0 -51 0.5 -102t1.5 -105v-3l23 -22q3 -3 4 -6l2 -6l6 -182q3 -31 10.5 -72t20.5 -91q-8 -7 -22.5 -15.5t-35.5 -17.5q-27 -24 -111 -24q-11 0 -25 0.5t-28 1.5l-69 28l-57 57l-8 3l19 149q9 84 15 188t8 219l6 135l3 367l-5 337h-336z
M-39 1549h825l-9 -15h-825z" />
    <glyph glyph-name="Charu_Chandan.090" unicode="&#x9bf;" horiz-adv-x="564" 
d="M768 1534h-430l-3 41q-20 156 36 306q141 253 492.5 244.5t727.5 -176.5q62 -33 94 -15q39 32 30 71q-9 14 -44 29l-277 68q-303 73 -473 91q-162 24 -277 9q-262 -24 -373 -168q-83 -91 -106 -212q-24 -120 11 -235l12 -53h-236l9 15h209q-2 8 -4 17t-4 17
q-11 35 -16.5 71.5t-5.5 71.5q0 24 2.5 50t7.5 49q12 60 40.5 116t68.5 102q22 26 49.5 49.5t60.5 42.5q9 5 18 9.5t18 9.5q51 24 110 40t127 23q22 3 47 4.5t51 1.5q42 0 88 -3.5t94 -11.5q86 -10 210 -33t266 -58l276 -68q43 -18 56 -39v-2l53 -52q2 -2 3 -4t3 -4
q10 -49 -33 -85q-41 -23 -109 13l-1 1q-375 167 -721 174q-169 5 -290.5 -57t-190.5 -180q-19 -54 -29.5 -109t-10.5 -111v-22.5t1 -22.5h372zM666 1357h-237l-2 -18q-3 -51 -4.5 -217.5t-1.5 -449.5q2 -64 2.5 -155t0.5 -198v-1l26 -26q2 -38 3.5 -82.5t4.5 -89.5l1 -1
q3 -12 3 -20q2 -32 8.5 -72.5t17.5 -92.5q-13 -6 -50 -35l-1 1q-33 -26 -100 -26h-15t-16 1q-91 6 -123 37l-49 49q-9 5 -16 12l11 49q5 20 9 44t6 45q8 132 15.5 267t13.5 266l3 713h-326l43 74h298l-3 -788q-12 -265 -29 -533q-6 -52 -15 -92l-9 -40q24 -23 110.5 -29
t123.5 22t43 31q-21 94 -24 158q0 6 -3 18q-6 91 -9 168l-26 12v23q0 224 -3 353q0 577 6 668l3 29h353z" />
    <glyph glyph-name="Charu_Chandan.091" unicode="&#x9c0;" horiz-adv-x="564" 
d="M180 1571q7 38 10.5 73t3.5 70q0 36 -4 73.5t-12 72.5q-25 58 -70 108q-66 46 -159 70q-89 18 -201 18q-102 0 -226 -15q95 -26 172 -63.5t137 -82.5q51 -41 94 -91l21 -21q20 -20 38 -42t33 -46q39 -66 56 -146h103zM189 1534h-176l-6 32q-15 109 -62 185
q-47 73 -123 132q-199 158 -599 194q429 85 667 35q226 -56 302 -247q32 -138 3 -296zM-176 1527q4 17 5 29q1 15 1 28q0 56 -21 105.5t-61 94.5q-17 13 -36.5 25t-41.5 24q-131 55 -256.5 87.5t-251.5 43.5q-15 3 -25 3l-9 9h-9l-59 59h-5q-9 26 -4 36q5 7 17.5 15t26.5 13
q73 28 160 51.5t172 37.5q88 14 180.5 22t182.5 8h23q155 0 281 -45q125 -46 200 -136l12 -15l21 -20q6 -7 11.5 -12.5t10.5 -12.5l5 -4q110 -113 110 -289q0 -63 -15 -135h337l-9 -15h-421q94 322 -73 493q-71 88 -194 132t-276 44h-23q-182 0 -361 -30q-179 -29 -329 -88
q-29 -11 -35 -20q-3 -6 0 -15h9l6 -9q8 0 23 -3q250 -23 511 -132q261 -138 226 -379h-16zM-189 1432l-1 -1h373v-352q-3 -203 -6 -338v-161l-6 -9v-3q-6 -205 -26 -449v-3q0 -6 -3 -26q-3 -30 -9 -47q-3 -21 -9 -50v-6q15 -6 36 -9l17 -3l12 -14q12 -15 50 -15q23 0 -9 3
q59 6 91 15q29 8 38 17h3q6 12 15 15l6 3q17 6 23 12q-23 91 -26 158q-6 59 -9 185q0 3 -3 3l-21 12v26q-8 161 0 355v305q3 327 3 348l3 28h364l-42 -74h-249l-2 -17q0 -33 -0.5 -124.5t-2.5 -222.5v-306q-2 -49 -3 -94.5t-1 -90.5t1 -87t3 -82v-9l20 -20q4 -4 4 -12
q3 -125 9 -184q3 -66 27 -162q-7 -7 -15 -11t-17 -8l1 -1l-4 -2q-5 -2 -8.5 -5t-8.5 -8q-3 -2 -6 -4.5t-8 -4.5l-114 -30q-39 0 -57 18l-13 13l-11 1q-22 3 -46 13l-56 56l-9 4v19q6 27 9 50q6 18 9 45q3 19 3 28q10 123 16.5 237.5t9.5 220.5l6 7v157l6 338v278h-324
l-59 59q-4 6 2 16h24z" />
    <glyph glyph-name="Charu_Chandan.092" unicode="&#x9c1;" 
d="M106 -208q3 -2 5.5 -5t4.5 -5zM-692 -388q0 -45 25 -95q34 -17 83 -26q9 -1 17 -1h16q86 0 139.5 35.5t76.5 103.5q11 38 11 72q0 38 -14.5 76t-41.5 74l-67 -8q-84 -19 -137 -48t-76 -71q-32 -55 -32 -112zM-808 -515q-36 27 -61 61q-21 31 -36 66t-20 73v-1
q-2 8 -2.5 17.5t-0.5 18.5q0 55 32 101h-1q79 129 297 175q54 10 105.5 15t104.5 5q125 0 279 -56q66 -31 114.5 -68t81.5 -79l31 -31q13 -13 23.5 -26t20.5 -27q33 -46 54.5 -94t27.5 -96v-5l3 -3l16 -18q14 -29 14 -73q0 -12 -1 -24.5t-3 -24.5l-2 -4q-13 -22 -43 -22
q-55 0 -164 71l-52 51l-13 9q0 19 10 41q5 19 7.5 38t2.5 36q0 35 -9.5 70.5t-26.5 70.5v-1q-7 12 -15 22.5t-17 21.5q-51 36 -115 56v-1q-13 2 -20 3t-12.5 2.5t-12.5 2.5t-20 3q54 -58 79.5 -123t23.5 -136q-2 -50 -16 -89.5t-37 -65.5q-104 -113 -256 -113q-13 0 -28 0.5
t-29 2.5q-93 11 -163.5 39t-118.5 76zM-586 -524q-103 16 -140 74q-77 117 -6 242q49 88 220 125l82 9q160 -140 108.5 -302.5t-264.5 -147.5zM197 -545q12 68 -9 115l-9 11l-11 6v12q-12 94 -80 185q-64 94 -208 164q-144 53 -270 53q-100 0 -206 -20q-214 -47 -288 -168
q-38 -55 -26 -126q11 -73 53 -132q88 -121 302 -144q29 -3 56 -3q150 0 247 109q47 50 50 147q5 155 -127 277l103 -17q156 -53 220 -165q59 -113 27 -228q-9 -20 -9 -26v-3q156 -94 185 -47z" />
    <glyph glyph-name="Charu_Chandan.093" unicode="&#x9c2;" 
d="M-364 -4h1l56 13l8 -5l-4 -2l59 -59q-141 -50 -171 -106v1q-12 -25 -18.5 -48.5t-6.5 -46.5q0 -36 15 -72q14 -5 31 -8.5t37 -5.5q59 6 105 35t66 75q4 13 6 29.5t2 29.5l-16 18l138 32q74 -70 136 -133t116 -120q71 -72 126 -135t97 -117q-11 -11 -14.5 -13t-7.5 0
q-14 -2 -28.5 -4t-29.5 -2q-34 0 -69 8.5t-70 24.5l-56 56q-3 2 -9 4q-62 100 -152 199q-13 -21 -32 -42q-38 -47 -88 -71.5t-110 -24.5q-24 0 -45 3q-136 15 -209 88l-36 36q-37 28 -60 62q-35 54 -43 119q-4 32 1.5 62.5t21.5 54.5v-1q26 45 68 86.5t105 82.5l9 -6
l-10 -13q-111 -71 -159 -157q-30 -47 -21 -107q8 -62 41 -112q67 -102 232 -121q22 -3 43 -3q115 0 189 92q24 27 42 57q142 -140 224 -272q96 -45 191 -24q3 -2 4 0q-130 169 -401 427l-106 -25q1 -2 3 -4q1 -34 -9 -68q-45 -112 -184 -121q-99 9 -127 58q-59 99 -5 205
q27 52 124 91z" />
    <glyph glyph-name="Charu_Chandan.094" unicode="&#x9c3;" 
d="M-226 -23l15 8v-2l59 -59v-18q-101 -73 -184 -143t-147 -139q107 -40 205.5 -83t192.5 -91v-5l59 -59q0 -7 -3 -12.5t-9 -7.5q-79 -61 -189 -61q-216 137 -524 257l-56 57l-12 4q255 226 365 387q12 9 26 14l-7 -20q-4 -2 -8 -5q-110 -162 -347 -371q290 -113 504 -249
q106 0 183 60q3 0 3 2q-223 113 -497 207q137 158 371 326v3z" />
    <glyph glyph-name="Charu_Chandan.095" unicode="&#x9c4;" horiz-adv-x="3" 
d="M-46 -10q2 -1 2.5 -2t1.5 -2l2 -2v-18q-101 -73 -184 -143t-147 -139q107 -40 205.5 -83t192.5 -91v-5l59 -59q0 -8 -2.5 -14t-9.5 -7q-78 -60 -189 -60q-46 29 -94.5 57.5t-101.5 55.5q-14 -15 -26 -29.5t-22 -28.5q94 -47 190.5 -100.5t199.5 -116.5v-5l59 -59
q0 -20 -10 -21q-40 -38 -88 -55.5t-106 -17.5q-215 208 -522 278l-57 58l-11 2q44 47 88.5 96t87.5 100l-56 22t-55 21l-57 57q-3 2 -11 4q255 226 365 387q13 9 28 15l-4 -18q-7 -4 -13 -8q-110 -162 -347 -371q101 -39 193 -82q-94 -111 -190 -214q291 -67 504 -273
q107 0 184 73q3 0 3 3q-224 137 -440 240l-37 10q27 44 85 109q108 -55 202 -115q106 0 183 60q3 0 3 2q-223 113 -497 207q137 158 370 335q15 6 16 4v-4z" />
    <glyph glyph-name="Charu_Chandan.096" unicode="&#x9c7;" horiz-adv-x="720" 
d="M879 1534h-849l9 15h849zM777 1357h-75l-7 -7q-153 -147 -286 -679q-74 -242 -74 -391q0 -94 26 -147q67 -49 125 -74t106 -27l12 6q34 10 67 10q44 -9 75.5 -23t48.5 -33q4 -5 8 -9.5t7 -9.5l45 -45q35 -38 30 -66q-4 -19 -50 -19q-49 0 -145 15q-89 14 -159.5 38.5
t-119.5 59.5q-25 18 -50 43l-26 26q-42 32 -74.5 73.5t-55.5 87.5q-14 2 -29 4t-32 6q-25 6 -45 26l-43 43q-27 16 -46 51q-18 46 -6 68q14 13 30.5 36.5t34 55t35.5 69t35 78.5q17 45 40 116t50.5 164t59 207.5t66.5 246.5h-427l43 74h416l-9 -48q-150 -576 -225 -764.5
t-135 -242.5q-9 -17 6 -54q26 -45 61.5 -52t61 -10t64.5 -51q48 -111 145 -180.5t274 -96.5t181 -5.5t-27 55.5t-116 51q-28 0 -59 -9l-9 -5l-8 -3q-105 3 -255.5 118t-0.5 603q134 535 287 682l11 12h186z" />
    <glyph glyph-name="Charu_Chandan.097" unicode="&#x9c8;" horiz-adv-x="720" 
d="M910 1534h-296l29 54q56 116 -23 278q-173 252 -658 394q-54 12 -80 12h-8l-3 -6l-17 -6q-11 -3 -20 -8q37 -63 111 -68q102 -9 184 -33t157.5 -65t188.5 -158q71 -93 52.5 -199.5t-106.5 -194.5h-319l9 15h305q37 40 62.5 86.5t33.5 94.5q4 20 4 42q0 38 -13.5 75
t-38.5 71l-23 23q-56 48 -99 72q-37 20 -75 36.5t-79 27.5q-84 24 -182 33q-53 3 -95 43l-40 40q-17 11 -31.5 27.5t-27.5 37.5q11 5 20.5 9.5t16.5 6.5l11 4q2 6 5 9h17q30 0 84 -12q223 -66 380 -153.5t251 -201.5l17 -16q45 -45 78 -93q48 -99 48 -181q0 -22 -3.5 -42
t-9.5 -39h192zM809 1358q-99 -1 -70 -1h-34l-7 -7q-154 -145 -286 -679q-74 -242 -74 -391q0 -95 26 -147q133 -99 228 -102q4 0 6 2l10 6q31 9 63 9q4 0 12 -2q1 0 1 -0.5t1 -0.5q75 -6 112 -49q5 -5 8.5 -9.5t6.5 -9.5l45 -45q18 -20 25.5 -38t5.5 -32q-4 -19 -50 -19
q-47 0 -146 15q-180 27 -294 126q-12 11 -23 21t-22 21l-11 11q-6 4 -8 7q-96 87 -126 142q-14 2 -29.5 4t-32.5 6q-23 4 -42 24l-44 44q-26 15 -46 50q-16 46 -6 70q61 55 134 240q17 43 40 114t51 165.5t59.5 209t66.5 244.5h-359l42 74h351l-11 -48q-151 -575 -226 -764
t-135 -243q-8 -17 6 -54q25 -45 60.5 -52t61 -10t65.5 -51q20 -57 130.5 -153.5t288 -123.5t182 -5.5t-28.5 59.5t-104 44q-5 3 -11 3q-28 0 -60 -9l-8 -5l-9 -3q-105 3 -255 118t0 603q133 536 287 682l11 12h213z" />
    <glyph glyph-name="Charu_Chandan.098" unicode="&#x9cb;" horiz-adv-x="2400" 
d="M1720 566q-15 7 -25 23q-14 22 -8 45q13 52 13 107q0 23 18 41q17 17 40 17q25 0 42 -16l9 -13l51 -51q15 -18 15 -41q0 -67 -14 -132q-9 -43 -54 -43h-5.5t-8.5 2l1 -1q-15 4 -26 15zM1278 210q-6 24 9 45q7 9 15.5 15.5t20.5 9.5q27 5 52.5 13.5t50.5 19.5q21 9 44 1
t32 -29l46 -45l4 -4q5 -5 10 -15q5 -11 5.5 -21.5t-4.5 -21.5h-1q-8 -21 -27 -31q-31 -14 -62.5 -24t-64.5 -17h-1q-3 -2 -5.5 -1.5t-4.5 0.5q-25 0 -39 14l-50 50q-24 11 -30 41zM698 835q-17 9 -27 26q-9 22 -4 43q9 32 22 63t29 60q7 11 16 18.5t21 10.5q23 5 52 -10
q8 -6 16 -21l48 -48q11 -11 15 -25q2 -10 0.5 -21.5t-6.5 -20.5q-12 -22 -22.5 -47.5t-18.5 -51.5q-10 -40 -54 -40q-5 0 -8.5 0.5t-6.5 1.5q-12 3 -23 14zM840 1101q-15 20 -14 41q1 12 6.5 22t13.5 18q53 47 110 77q22 10 44 4q23 -6 35 -29l49 -49q4 -6 8 -13l2 -1
q10 -22 3 -42h1q-6 -22 -28 -34q-24 -12 -46 -27.5t-42 -32.5q-16 -14 -36 -14q-23 0 -39 16l-50 49q-5 3 -9 6.5t-9 8.5h1zM1556 321q-16 19 -16 41q0 26 18 41q17 17 34 38t33 46q15 19 36 25q24 6 46 -9q16 -13 21 -24l48 -47q12 -10 15 -25q4 -25 -8 -45
q-17 -26 -38.5 -51.5t-46.5 -50.5q-16 -16 -38 -16t-39 17h-1l-51 50l-11 9zM667 574q-17 59 -22 132q-1 23 15 42q15 17 40 19q12 1 22.5 -3.5t18.5 -11.5q9 -9 13 -17l52 -51q12 -12 14 -33q2 -27 6.5 -54t12.5 -53q6 -21 -4 -42q-7 -12 -13 -17q8 -3 14.5 -8.5
t12.5 -12.5q3 -5 6.5 -9.5t8.5 -9.5l38 -37l7 -8q2 -4 8 -12l5 -4q10 -8 14 -18l47 -46h-1q2 -1 2.5 -2t2.5 -3q11 -14 13 -25q6 6 16 11q21 9 44 1q24 -9 49.5 -16t53.5 -11q12 -2 21.5 -8.5t16.5 -14.5l4 -8l52 -51l4 -5q6 -8 9.5 -19.5t1.5 -21.5q-1 -20 -19 -34
q-17 -13 -36 -13h-8q-32 5 -64.5 14t-64.5 20q-11 4 -18 12l-49 48q-19 9 -28 30q-4 8 -4 12q-14 -13 -34 -13t-36 14q-8 7 -15 13.5t-15 14.5l-26 25l-8 7q-50 44 -90 98q-7 9 -9.5 21.5t-1.5 21.5q3 24 21 37q-14 3 -21 12l-51 50q-22 11 -28 37zM1116 1219q-8 7 -13 15
t-7 19q-1 13 2.5 23.5t9.5 20.5q15 20 38 23q20 3 42.5 4.5t42.5 1.5q12 0 24.5 -0.5t23.5 -1.5q23 -2 39 -20l9 -13l51 -51q9 -10 12 -23q0 15 5 28q11 22 34 30t44 -1q27 -13 56.5 -31t57.5 -39q11 -10 17 -21l50 -49q12 -12 15 -29v-11t-1 -10q5 1 9 0.5t9 -1.5
q21 -5 36 -24l6 -10l47 -46l7 -8q18 -27 32.5 -57t26.5 -63q7 -20 -2 -42q-9 -20 -31 -28q-8 -4 -19 -4q-23 0 -37 14l-51 50q-19 10 -28 34q-9 22 -21.5 47t-26.5 48q-5 10 -8 23t0 21v3h-3q-19 0 -34 12l1 -1q-47 36 -93 56q-9 4 -17 12l-48 47q-20 10 -29 32q-2 4 -2 7
v-7q-1 -11 -6.5 -20t-13.5 -17q-8 -7 -19 -10t-21 -3q-9 1 -20.5 1.5t-20.5 0.5q-17 0 -32.5 -1.5t-32.5 -3.5q-4 -1 -10 -1q-20 0 -36 14q-1 0 -3 2l-4 4l3 -2l-47 46q-8 4 -13 10zM1126 1230q12 -11 28 -11q3 0 6 1q55 8 111 3q18 -2 31 10q14 12 16 29q1 18 -11 32
q-11 14 -29 15q-65 5 -130 -4q-18 -2 -28 -17q-11 -14 -9 -32q3 -16 15 -26zM1687 904q10 -29 40 -29q8 0 15 3q17 6 24 22q8 16 2 33q-22 62 -58 117q-10 15 -27 18q-18 4 -33 -6q-15 -9 -18 -27q-4 -17 6 -32q30 -47 49 -99zM851 1110q13 -15 33 -15q16 0 28 11
q42 36 91 62q16 9 21 26q6 17 -3 33q-8 16 -25 21t-33 -3q-58 -31 -107 -74q-14 -12 -15 -30q-1 -17 10 -31zM857 308q12 -11 28 -11q20 0 32 15q12 14 11 32t-15 29q-42 37 -75 82q-10 14 -28 17t-32 -8q-15 -10 -17 -28q-3 -18 7 -32q39 -53 89 -96zM1155 174q16 0 29 10
q12 11 14 27q3 18 -8 32t-29 17q-55 8 -106 28q-17 6 -33 -1q-17 -7 -23 -24q-7 -16 0 -33q8 -16 24 -23q61 -23 126 -33h6zM682 578q9 -31 42 -31q6 0 12 2q17 5 26 21q8 16 3 33q-15 53 -19 109q-1 18 -14 29q-13 12 -31 11t-30 -14t-11 -31q4 -66 22 -129zM1567 331
q13 -13 31 -13t30 12q47 46 83 101q9 15 6 33q-4 17 -19 27t-33 6q-17 -4 -27 -19q-30 -47 -70 -86q-13 -12 -13 -30t12 -31zM1526 1124q11 -9 26 -9q21 0 34 17q11 14 9 32q-3 18 -17 29q-52 40 -111 67q-17 7 -33 1q-17 -6 -25 -22q-7 -17 -1 -34q7 -16 23 -24
q50 -23 95 -57zM1293 214q7 -35 42 -35q5 0 9 1q64 13 124 40q16 8 22 25q7 16 -1 33q-7 16 -24 22t-33 -1q-51 -23 -105 -34q-18 -4 -28 -19t-6 -32zM711 847q6 -2 12 -2q33 0 42 31q15 53 43 102q9 15 4 33q-5 17 -21 26q-15 8 -32 4q-18 -5 -27 -21q-32 -57 -50 -120
q-5 -17 3 -33q9 -15 26 -20zM1735 578q5 -1 10 -1q34 0 42 34q14 63 14 129v1q0 18 -12 31q-13 12 -31 12t-30 -12q-13 -13 -13 -31v-1q0 -56 -13 -110q-4 -17 6 -33q9 -15 27 -19zM879 1534h-849l9 15h849zM777 1357h-75l-7 -7q-153 -147 -286 -679q-74 -242 -74 -391
q0 -94 26 -147q67 -49 125 -74t106 -27l12 6q34 10 67 10q44 -9 75.5 -23t48.5 -33q4 -5 8 -9.5t7 -9.5l45 -45q35 -38 30 -66q-4 -19 -50 -19q-49 0 -145 15q-89 14 -159.5 38.5t-119.5 59.5q-25 18 -50 43l-26 26q-42 32 -74.5 73.5t-55.5 87.5q-14 2 -29 4t-32 6
q-25 6 -45 26l-43 43q-27 16 -46 51q-18 46 -6 68q14 13 30.5 36.5t34 55t35.5 69t35 78.5q17 45 40 116t50.5 164t59 207.5t66.5 246.5h-427l43 74h416l-9 -48q-150 -576 -225 -764.5t-135 -242.5q-9 -17 6 -54q26 -45 61.5 -52t61 -10t64.5 -51q48 -111 145 -180.5
t274 -96.5t181 -5.5t-27 55.5t-116 51q-28 0 -59 -9l-9 -5l-8 -3q-105 3 -255.5 118t-0.5 603q134 535 287 682l11 12h186zM1753 1431h307l6 -411l-3 -367l-6 -135q-3 -238 -23 -408l-18 -138l59 -24q132 -8 155 21q41 18 50 26q-23 91 -29 159l-6 182q0 3 -6 6l-20 9l-3 20
q-3 217 0 402q3 118 3 291q3 258 3 337l2 30h354l-43 -74h-238q-1 -4 -1 -9v-9q0 -79 -3 -337v-73t-0.5 -81.5t-1 -76.5t-1.5 -60q-1 -43 -1.5 -95t-0.5 -98q0 -51 0.5 -102t1.5 -105v-3l23 -22q3 -3 4 -6l2 -6l6 -182q3 -31 10.5 -72t20.5 -91q-8 -7 -22.5 -15.5
t-35.5 -17.5q-27 -24 -111 -24q-11 0 -25 0.5t-28 1.5l-69 28l-57 57l-8 3l19 149q9 84 15 188t8 219l6 135l3 367l-5 337h-336zM1821 1549h825l-9 -15h-825z" />
    <glyph glyph-name="Charu_Chandan.099" unicode="&#x9cc;" horiz-adv-x="2430" 
d="M1154 2063l-4 3zM1397 2043l4 -3zM1203 2030q5 -3 10.5 -6t10.5 -5q-5 2 -10.5 5t-10.5 6zM1720 566q-15 7 -25 23q-14 22 -8 45q13 52 13 107q0 23 18 41q17 17 40 17q25 0 42 -16l9 -13l51 -51q15 -18 15 -41q0 -67 -14 -132q-9 -43 -54 -43h-5.5t-8.5 2l1 -1
q-15 4 -26 15zM1278 210q-6 24 9 45q7 9 15.5 15.5t20.5 9.5q27 5 52.5 13.5t50.5 19.5q21 9 44 1t32 -29l46 -45l4 -4q5 -5 10 -15q5 -11 5.5 -21.5t-4.5 -21.5h-1q-8 -21 -27 -31q-31 -14 -62.5 -24t-64.5 -17h-1q-3 -2 -5.5 -1.5t-4.5 0.5q-25 0 -39 14l-50 50
q-24 11 -30 41zM698 835q-17 9 -27 26q-9 22 -4 43q9 32 22 63t29 60q7 11 16 18.5t21 10.5q23 5 52 -10q8 -6 16 -21l48 -48q11 -11 15 -25q2 -10 0.5 -21.5t-6.5 -20.5q-12 -22 -22.5 -47.5t-18.5 -51.5q-10 -40 -54 -40q-5 0 -8.5 0.5t-6.5 1.5q-12 3 -23 14zM840 1101
q-15 20 -14 41q1 12 6.5 22t13.5 18q53 47 110 77q22 10 44 4q23 -6 35 -29l49 -49q4 -6 8 -13l2 -1q10 -22 3 -42h1q-6 -22 -28 -34q-24 -12 -46 -27.5t-42 -32.5q-16 -14 -36 -14q-23 0 -39 16l-50 49q-5 3 -9 6.5t-9 8.5h1zM1556 321q-16 19 -16 41q0 26 18 41
q17 17 34 38t33 46q15 19 36 25q24 6 46 -9q16 -13 21 -24l48 -47q12 -10 15 -25q4 -25 -8 -45q-17 -26 -38.5 -51.5t-46.5 -50.5q-16 -16 -38 -16t-39 17h-1l-51 50l-11 9zM667 574q-17 59 -22 132q-1 23 15 42q15 17 40 19q12 1 22.5 -3.5t18.5 -11.5q9 -9 13 -17l52 -51
q12 -12 14 -33q2 -27 6.5 -54t12.5 -53q6 -21 -4 -42q-7 -12 -13 -17q8 -3 14.5 -8.5t12.5 -12.5q3 -5 6.5 -9.5t8.5 -9.5l38 -37l7 -8q2 -4 8 -12l5 -4q10 -8 14 -18l47 -46h-1q2 -1 2.5 -2t2.5 -3q11 -14 13 -25q6 6 16 11q21 9 44 1q24 -9 49.5 -16t53.5 -11
q12 -2 21.5 -8.5t16.5 -14.5l4 -8l52 -51l4 -5q6 -8 9.5 -19.5t1.5 -21.5q-1 -20 -19 -34q-17 -13 -36 -13h-8q-32 5 -64.5 14t-64.5 20q-11 4 -18 12l-49 48q-19 9 -28 30q-4 8 -4 12q-14 -13 -34 -13t-36 14q-8 7 -15 13.5t-15 14.5l-26 25l-8 7q-50 44 -90 98
q-7 9 -9.5 21.5t-1.5 21.5q3 24 21 37q-14 3 -21 12l-51 50q-22 11 -28 37zM1116 1219q-8 7 -13 15t-7 19q-1 13 2.5 23.5t9.5 20.5q15 20 38 23q20 3 42.5 4.5t42.5 1.5q12 0 24.5 -0.5t23.5 -1.5q23 -2 39 -20l9 -13l51 -51q9 -10 12 -23q0 15 5 28q11 22 34 30t44 -1
q27 -13 56.5 -31t57.5 -39q11 -10 17 -21l50 -49q12 -12 15 -29v-11t-1 -10q5 1 9 0.5t9 -1.5q21 -5 36 -24l6 -10l47 -46l7 -8q18 -27 32.5 -57t26.5 -63q7 -20 -2 -42q-9 -20 -31 -28q-8 -4 -19 -4q-23 0 -37 14l-51 50q-19 10 -28 34q-9 22 -21.5 47t-26.5 48
q-5 10 -8 23t0 21v3h-3q-19 0 -34 12l1 -1q-47 36 -93 56q-9 4 -17 12l-48 47q-20 10 -29 32q-2 4 -2 7v-7q-1 -11 -6.5 -20t-13.5 -17q-8 -7 -19 -10t-21 -3q-9 1 -20.5 1.5t-20.5 0.5q-17 0 -32.5 -1.5t-32.5 -3.5q-4 -1 -10 -1q-20 0 -36 14q-1 0 -3 2l-4 4l3 -2l-47 46
q-8 4 -13 10zM1126 1230q12 -11 28 -11q3 0 6 1q55 8 111 3q18 -2 31 10q14 12 16 29q1 18 -11 32q-11 14 -29 15q-65 5 -130 -4q-18 -2 -28 -17q-11 -14 -9 -32q3 -16 15 -26zM1687 904q10 -29 40 -29q8 0 15 3q17 6 24 22q8 16 2 33q-22 62 -58 117q-10 15 -27 18
q-18 4 -33 -6q-15 -9 -18 -27q-4 -17 6 -32q30 -47 49 -99zM851 1110q13 -15 33 -15q16 0 28 11q42 36 91 62q16 9 21 26q6 17 -3 33q-8 16 -25 21t-33 -3q-58 -31 -107 -74q-14 -12 -15 -30q-1 -17 10 -31zM857 308q12 -11 28 -11q20 0 32 15q12 14 11 32t-15 29
q-42 37 -75 82q-10 14 -28 17t-32 -8q-15 -10 -17 -28q-3 -18 7 -32q39 -53 89 -96zM1155 174q16 0 29 10q12 11 14 27q3 18 -8 32t-29 17q-55 8 -106 28q-17 6 -33 -1q-17 -7 -23 -24q-7 -16 0 -33q8 -16 24 -23q61 -23 126 -33h6zM682 578q9 -31 42 -31q6 0 12 2
q17 5 26 21q8 16 3 33q-15 53 -19 109q-1 18 -14 29q-13 12 -31 11t-30 -14t-11 -31q4 -66 22 -129zM1567 331q13 -13 31 -13t30 12q47 46 83 101q9 15 6 33q-4 17 -19 27t-33 6q-17 -4 -27 -19q-30 -47 -70 -86q-13 -12 -13 -30t12 -31zM1526 1124q11 -9 26 -9q21 0 34 17
q11 14 9 32q-3 18 -17 29q-52 40 -111 67q-17 7 -33 1q-17 -6 -25 -22q-7 -17 -1 -34q7 -16 23 -24q50 -23 95 -57zM1293 214q7 -35 42 -35q5 0 9 1q64 13 124 40q16 8 22 25q7 16 -1 33q-7 16 -24 22t-33 -1q-51 -23 -105 -34q-18 -4 -28 -19t-6 -32zM711 847q6 -2 12 -2
q33 0 42 31q15 53 43 102q9 15 4 33q-5 17 -21 26q-15 8 -32 4q-18 -5 -27 -21q-32 -57 -50 -120q-5 -17 3 -33q9 -15 26 -20zM1735 578q5 -1 10 -1q34 0 42 34q14 63 14 129v1q0 18 -12 31q-13 12 -31 12t-30 -12q-13 -13 -13 -31v-1q0 -56 -13 -110q-4 -17 6 -33
q9 -15 27 -19zM879 1534h-849l9 15h849zM777 1357h-75l-7 -7q-153 -147 -286 -679q-74 -242 -74 -391q0 -94 26 -147q67 -49 125 -74t106 -27l12 6q34 10 67 10q44 -9 75.5 -23t48.5 -33q4 -5 8 -9.5t7 -9.5l45 -45q35 -38 30 -66q-4 -19 -50 -19q-49 0 -145 15
q-89 14 -159.5 38.5t-119.5 59.5q-25 18 -50 43l-26 26q-42 32 -74.5 73.5t-55.5 87.5q-14 2 -29 4t-32 6q-25 6 -45 26l-43 43q-27 16 -46 51q-18 46 -6 68q14 13 30.5 36.5t34 55t35.5 69t35 78.5q17 45 40 116t50.5 164t59 207.5t66.5 246.5h-427l43 74h416l-9 -48
q-150 -576 -225 -764.5t-135 -242.5q-9 -17 6 -54q26 -45 61.5 -52t61 -10t64.5 -51q48 -111 145 -180.5t274 -96.5t181 -5.5t-27 55.5t-116 51q-28 0 -59 -9l-9 -5l-8 -3q-105 3 -255.5 118t-0.5 603q134 535 287 682l11 12h186zM2090 1902q0 1 -1 1zM2641 1534h-390l11 55
q61 233 -24.5 363.5t-174.5 148.5q-109 37 -261.5 5t-240.5 -32q-146 0 -228 20l-3 3h-6q-132 71 -141 267h-20q-50 0 -103 -9q-59 -17 -82 -44q161 -325 434 -325q138 -10 300 28q202 47 296 -17q52 -36 81 -94q23 -46 32 -105q18 -97 -23 -232l-9 -32h-251l9 15h232
q2 5 2.5 10.5t2.5 10.5q27 91 27 166q0 15 -1 29.5t-4 29.5q-12 79 -52 135q-25 16 -57 23t-71 7q-31 0 -69 -5.5t-80 -14.5q-63 -14 -125 -22t-119 -8q-15 0 -30.5 0.5t-29.5 1.5q-174 3 -305 134l-40 40q-48 42 -90 98.5t-78 128.5q17 19 40.5 34t53.5 23q52 9 109 9h34
q0 -2 0.5 -3.5t0.5 -3.5l58 -58q6 -118 50 -187q5 -4 11 -8t12 -7h6l4 -4q44 -9 99 -14t123 -5q83 0 238 32q70 15 135 15q35 0 69.5 -6t62.5 -14q75 -18 146 -104l29 -28q36 -36 68 -87q52 -81 52 -195q0 -34 -5 -73.5t-15 -79.5h309zM2539 1357h-222q-2 -42 -2.5 -128
t-2.5 -220v-308q0 -252 3 -364l27 -27l8 -200q2 -23 9 -65t20 -104q-16 -8 -30 -19q-15 -3 -25 -16h-6q-10 -8 -26 -14l-100 -21q-39 0 -61 18l-13 13l-5 1q-15 2 -27.5 5t-22.5 9l-54 54l-11 6q0 38 6 74q14 48 14 77q24 240 27 445l8 21v160q3 120 3 311l3 292h-323l42 74
h296q0 -100 -3 -366v-3q0 -188 -3 -308v-164l-8 -21q-3 -202 -27 -442q0 -35 -14 -82q-6 -36 -6 -59q11 -6 41 -9l14 -3l9 -14q18 -15 53 -15q20 0 -6 3q106 6 126 32h6q9 12 26 15q12 9 21 14q-24 112 -27 162v3l-8 190h-3l-24 12v23q-3 112 -3 364v308q3 284 6 360h337z
" />
    <glyph glyph-name="Charu_Chandan.100" unicode="&#x9cd;" horiz-adv-x="3" 
d="M-169 -312q14 -9 35.5 -17.5t52.5 -19.5v-5l59 -59v-16q-3 -107 -90 -151l-49 50l-11 9q-1 0 -2 -1l-16 18q-52 39 -100.5 73t-90.5 62l-31 32l-56 37l-1 1q-9 6 -18 13t-19 12l-34 21q-6 0 -9 3l-56 56q-11 1 -13 14q-10 37 -10 74q0 15 2.5 29.5t9.5 28.5q16 0 24 -7
l12 -5q19 -18 45.5 -38t60.5 -43v1q31 -20 77 -48.5t107 -64.5l8 -5q4 1 8 2.5t8 2.5q15 -11 33 -22t38 -22l15 -9t8 -4zM-178 -323q-8 3 -24 13q-41 23 -67 41l-15 -5l-13 8q-123 74 -185 113q-70 46 -106 80q-2 2 -10 5q0 2 -2 2q-3 3 -6 3q-15 -39 3 -113q0 -3 3 -3
l38 -23l39 -26l80 -54l12 -7v-11q90 -61 204 -149l36 -33l20 -21q72 36 75 136v8q-54 18 -80 34z" />
    <glyph glyph-name="Charu_Chandan.101" unicode="&#x9d7;" horiz-adv-x="586" 
d="M204 1902q0 1 -1 1zM755 1534h-390l11 55q61 233 -24.5 363.5t-174.5 148.5q-109 37 -261.5 5t-240.5 -32q-146 0 -228 20l-3 3h-6q-132 71 -141 267h-20q-50 0 -103 -9q-59 -17 -82 -44q161 -325 434 -325q138 -10 300 28q202 47 296 -17q52 -36 81 -94q23 -46 32 -105
q18 -97 -23 -232l-9 -32h-251l9 15h232q2 5 2.5 10.5t2.5 10.5q27 91 27 166q0 15 -1 29.5t-4 29.5q-12 79 -52 135q-25 16 -57 23t-71 7q-31 0 -69 -5.5t-80 -14.5q-63 -14 -125 -22t-119 -8q-15 0 -30.5 0.5t-29.5 1.5q-174 3 -305 134l-40 40q-48 42 -90 98.5t-78 128.5
q17 19 40.5 34t53.5 23q52 9 109 9h34q0 -2 0.5 -3.5t0.5 -3.5l58 -58q6 -118 50 -187q5 -4 11 -8t12 -7h6l4 -4q44 -9 99 -14t123 -5q83 0 238 32q70 15 135 15q35 0 69.5 -6t62.5 -14q75 -18 146 -104l29 -28q36 -36 68 -87q52 -81 52 -195q0 -34 -5 -73.5t-15 -79.5h309z
M653 1357h-222q-2 -42 -2.5 -128t-2.5 -220v-308q0 -252 3 -364l27 -27l8 -200q2 -23 9 -65t20 -104q-16 -8 -30 -19q-15 -3 -25 -16h-6q-10 -8 -26 -14l-100 -21q-39 0 -61 18l-13 13l-5 1q-15 2 -27.5 5t-22.5 9l-54 54l-11 6q0 38 6 74q14 48 14 77q24 240 27 445l8 21
v160q3 120 3 311l3 292h-323l42 74h296q0 -100 -3 -366v-3q0 -188 -3 -308v-164l-8 -21q-3 -202 -27 -442q0 -35 -14 -82q-6 -36 -6 -59q11 -6 41 -9l14 -3l9 -14q18 -15 53 -15q20 0 -6 3q106 6 126 32h6q9 12 26 15q12 9 21 14q-24 112 -27 162v3l-8 190h-3l-24 12v23
q-3 112 -3 364v308q3 284 6 360h337z" />
    <glyph glyph-name="Charu_Chandan.102" unicode="&#x9dc;" horiz-adv-x="1710" 
d="M829 -120q47 0 83 -18.5t58 -51.5l42 -42q22 -22 34 -52.5t12 -67.5q0 -72 -48 -120t-119 -48q-37 0 -67 12t-52 34l-40 40q-34 22 -53 59t-19 85q0 38 12 69t34.5 53.5t53.5 35t69 12.5zM829 -135q-69 0 -111.5 -43t-42.5 -112t42.5 -112.5t111.5 -43.5q68 0 111.5 43.5
t43.5 112.5t-43.5 112t-111.5 43zM-141 1431h853l6 -43q37 -411 -13 -780l22 -15q43 -19 83 -22q32 -3 29 -3q94 4 201 50q108 55 210 182l90 105q151 -352 19.5 -573.5t-347.5 -261.5q-47 -6 -90 -6q-186 0 -279 52q-256 146 -371 452l-6 25l12 21h3q-15 44 -27 87l-22 87
q-3 0 -25 6q-37 19 -161 -25l-9 -9q43 -263 192 -461q155 -195 368 -263q161 -47 248 -47q80 -9 253.5 25t334.5 177q127 136 139 321q25 208 -68 393q-50 93 -112 152l-49 46q-25 -89 -116 -206.5t-212 -186.5l-65 -31l-9 62q-38 341 -7 647l7 43h854l-43 -74h-738l-4 -16
l-2 -16q-7 -68 -10.5 -138t-3.5 -141q0 -78 3.5 -158.5t11.5 -163.5q57 32 110 79.5t97 101.5q41 54 72.5 113.5t46.5 111.5l67 -62q11 -11 22 -23t22 -26l22 -21q60 -59 109 -150q74 -145 74 -310q0 -23 -1 -45t-4 -45q-12 -188 -143 -328q-163 -145 -341 -180
q-137 -27 -217 -27q-11 0 -21 0.5t-18 1.5q-45 2 -109.5 13.5t-141.5 33.5q-167 52 -301 186l-10 10q-34 29 -66 61.5t-61 70.5q-151 202 -196 474l18 18q47 16 81 24.5t57 8.5q20 0 34 -7v1q22 -6 34 -6l2 -8l57 -57l24 -96q6 -22 13 -45.5t12 -45.5l-12 -21l5 -21l-1 1
q52 -141 139 -251q77 -78 167 -130h-1q91 -50 272 -50q43 0 88 6h-1q104 21 189 84.5t148 169.5q60 100 60 228q0 101 -37 218l-48 -55h-1q-102 -127 -213 -185q-38 -17 -90 -26.5t-116 -12.5q1 0 -13 1.5t-32.5 3t-36.5 3t-26 2.5l-11 5l-28 19l-53 52l-12 9q30 220 30 447
q0 74 -3.5 152.5t-10.5 156.5h-889zM-73 1549h1936l-9 -15h-1936z" />
    <glyph glyph-name="Charu_Chandan.103" unicode="&#x9dd;" horiz-adv-x="1439" 
d="M308 -60q-10 1 -23.5 2.5t-26 3t-16.5 2.5q-3 2 -7 6l-7 7l-11 11h-5l-8 3q-16 4 -33 15l-52 52q-5 2 -13 8q6 45 11.5 84.5t10.5 65.5q3 9 3 18v209l13 7q-8 355 -17 586t-20 337h-277l43 74h240l6 -40q24 -179 40 -965l-13 -9v-199q0 -10 -3 -19q-9 -52 -21 -141
q9 -6 24 -9l7 -3h6l15 -15q25 -25 67 -28q17 -3 15 -3q56 0 77 12l16 6h12q162 -18 279 -18q374 0 555 172q86 79 92 223q9 138 -49 261v3q-111 172 -327 219.5t-292 10.5l9 -3l3 -31q21 -202 0 -521q119 -9 170 21.5t78 107.5q6 21 12 80h-24l-43 3v199l89 -18
q162 -40 214 -200q53 -153 -67 -312q-126 -126 -291 -135h-3q-221 3 -406 116l-15 16v21l-15 595q-10 168 -16 557v46h1249l-43 -74h-1132v-34q3 -195 7 -333.5t9 -223.5l15 -585q80 -39 169 -61.5t180 -24.5q75 8 149 41t131 88q80 106 80 209q0 45 -15 89q-18 52 -48 91
q-39 26 -93 40h-1l-73 15v-110h9q0 -2 -0.5 -3t-0.5 -3l60 -59q-7 -71 -14 -96q-29 -80 -83 -114q-44 -25 -125 -25q-12 0 -31 1t-33 2l-59 58q-2 0 -3.5 0.5t-2.5 0.5q5 80 8 159t3 145q0 64 -2.5 121.5t-7.5 108.5l-1 5l-22 22l-13 5q35 18 67.5 26t64.5 8q41 0 92.5 -7
t110.5 -20q95 -21 171.5 -67.5t133.5 -119.5l19 -18q42 -42 73 -92q26 -54 38 -110t12 -116v-19t-1 -19q-4 -73 -27.5 -131t-68.5 -100q-184 -175 -563 -175q-57 0 -129.5 5t-150.5 13h-9l-12 -4q-5 -1 -26 -1.5t-57 -0.5zM-59 1549h1690l-9 -15h-1690zM504 -121
q47 0 83 -18.5t59 -51.5l41 -42q22 -22 34 -52.5t12 -67.5q0 -73 -47 -120q-48 -48 -120 -48q-37 0 -67 12t-52 34l-39 40q-35 22 -54 59t-19 85q0 38 12 69t34.5 53.5t53.5 35t69 12.5zM504 -136q-69 0 -111.5 -43t-42.5 -112t42.5 -112.5t111.5 -43.5q68 0 111.5 43.5
t43.5 112.5t-43.5 112t-111.5 43z" />
    <glyph glyph-name="Charu_Chandan.104" unicode="&#x9df;" horiz-adv-x="1382" 
d="M697 987q-9 -72 -44 -152.5t-95 -163.5q106 -3 204 -40.5t189 -112.5q2 108 2.5 206.5t0.5 186.5q0 137 -1.5 245.5t-4.5 200.5h-434l12 -15l14 -13q86 -86 125 -172t32 -170zM966 487q-246 217 -560 156q199 220 217 407.5t-205 380.5h542q15 -322 6 -944zM-70 1549
h1682l-9 -15h-1682zM-143 1423q161 -4 222 -10q172 -18 290.5 -134.5t106.5 -195.5q18 -68 -23 -138q-44 -88 -149.5 -207t-325.5 -256q108 -109 167 -97h12l6 3h11q21 3 47 23q41 44 129 159l36 14q404 35 574 -355l3 -8v-12l-26 -220q11 -6 32 -9l21 -3l11 -14
q10 -16 62 -18q-8 1 12 3q49 12 70 35l15 15h5l9 3q18 6 27 11q-33 115 -36 162v3l-8 187q0 3 -3 6l-21 12l-3 23q-3 173 0 367q3 114 3 308q3 269 3 315l3 36h405l-43 -74h-289l-2 -24v-1q0 -47 -3 -314v-80q0 -44 -0.5 -87t-1 -80.5t-1.5 -60.5q-1 -45 -1.5 -96t-0.5 -93
q0 -46 0.5 -90t1.5 -86l1 -10l17 -17q9 -9 9 -16q2 -48 4 -95l4 -94v-1q3 -44 39 -168q-17 -9 -38 -16l-12 -4h-2l-11 -10l1 -1q-13 -13 -37 -26l5 -5q5 -5 -43 -8l-14 -3q-54 2 -70 19l-15 15l-13 1q-20 3 -43 15l-55 55l-10 5l27 229v9l-1 1l-1 1v2q-58 123 -139 203
q-123 87 -295 87q-14 0 -30.5 -0.5t-32.5 -2.5q-8 -3 -14.5 -6t-14.5 -6q-44 -57 -76 -96t-54 -63q-28 -22 -52 -25h-10l-6 -3h-13q-65 -12 -182 105l-18 17q-13 11 -27 24t-28 28q118 73 202 138.5t136 124.5q52 58 88.5 108t58.5 95q27 48 27 91q0 9 -1 18.5t-4 20.5
q9 68 -79 162q-102 81 -242 96q-79 8 -324 13zM514 327q47 0 83 -18.5t59 -51.5l41 -42q22 -22 34 -52.5t12 -67.5q0 -73 -47 -120q-48 -48 -120 -48q-37 0 -67 12t-52 34l-39 40q-35 22 -54 59t-19 85q0 38 12 69t34.5 53.5t53.5 35t69 12.5zM514 312q-69 0 -111.5 -43
t-42.5 -112t42.5 -112.5t111.5 -43.5q68 0 111.5 43.5t43.5 112.5t-43.5 112t-111.5 43z" />
    <glyph glyph-name="Charu_Chandan.105" unicode="&#x9e0;" horiz-adv-x="1899" 
d="M1056 975q-109 -91 -199.5 -172t-165.5 -155q204 -26 355 -202zM1074 1117q-4 -240 -14 -713q-206 273 -526 226q195 209 540 487zM2029 1431l-42 -74h-226l-2 -18v-59.5t-0.5 -80.5t-1 -94.5t-1.5 -102.5v-73t-0.5 -81.5t-1 -76.5t-1.5 -59q-1 -43 -1.5 -95t-0.5 -98
q0 -51 0.5 -102t1.5 -105v-4l23 -22q3 -3 4 -6l2 -6l6 -182q3 -34 11 -73.5t19 -87.5q-16 -16 -57 -35q-26 -23 -105 -23q-13 0 -27.5 0.5t-29.5 1.5l-71 27l-57 57l-8 3l19 149q3 26 6 55.5t5 58.5q-2 4 -2 7q-11 63 -33.5 117t-53.5 95q-51 34 -105 52q0 -41 1 -83t1 -83
l21 -21q3 -3 5 -10q3 -33 3 -92q0 -74 3 -96q2 -22 10.5 -63.5t23.5 -104.5q-17 -14 -30 -19q-27 -19 -67.5 -32.5t-92.5 -18.5q-105 -87 -184 -169q107 -40 206.5 -83t193.5 -91v-5l59 -59q0 -8 -2.5 -14t-9.5 -7q-78 -60 -189 -60q-109 69 -239 133t-284 124l-57 57l-11 4
q113 101 204 197t147 171q-8 103 -44 188.5t-96 151.5q-14 11 -28.5 21t-29.5 19q-41 21 -84.5 33.5t-85.5 12.5q-16 0 -45 -2.5t-67 -6.5q-4 -2 -6.5 -2t-7.5 -2q-38 -38 -76 -78.5t-78 -85.5q-18 -9 -71 5q-26 8 -49 31l-40 39q-42 27 -81 102q226 203 416.5 374
t348.5 311q-5 23 -15.5 49t-23.5 48l-23 31l-22 13q-44 -138 -118.5 -234.5t-183.5 -159.5q-56 -22 -88 -22q-25 0 -36 13l-52 51q-8 4 -15 13q-99 278 -181 443l9 10q2 2 3 5t3 5q57 51 125 59q31 4 51.5 4.5t28.5 -2.5q12 -7 22 -25l48 -47q28 -28 49 -133l-32 -30
q8 -38 30 -92l18 10l-1 -1q77 67 122.5 157.5t57.5 198.5l-7 36q78 -12 219 -110q13 -11 23.5 -23t21.5 -25l29 -29q22 -23 39.5 -46.5t30.5 -50.5l43 39v94l3 106q9 49 61 49q44 0 122 -42v-5l59 -59v-111l-3 -117q-3 -20 -3 -543l-1 -80q63 -12 114.5 -36t90.5 -59l6 119
l3 367l-6 410l-13 113l20 12q21 18 48 28.5t56 11.5q71 3 88 -35l11 -11h380l-9 -15h-387l-9 20q-14 29 -73 26.5t-97 -38.5l-12 -8l12 -103l6 -411l-3 -367l-6 -135v-19q-93 109 -295 125l2 147q0 525 3 545l3 115v103q-138 73 -153 0l-3 -103v-100q-47 -42 -98 -87
q-17 131 -113 216q-138 94 -191 103l3 -15q-21 -229 -185 -369l-56 -33q-64 129 -76 194q29 26 32 29q-23 112 -52 126q-9 3 -71 -4t-114 -54l-6 -9l-3 -3q76 -153 176 -434q20 -24 111 11q215 124 300 400q79 -36 127 -115q33 -54 42 -111q-313 -278 -762 -681
q44 -82 92.5 -95.5t60.5 -7.5q79 88 155 164l18 6q79 9 114 9q91 0 176 -47q250 -136 269 -458q-111 -157 -338 -358q290 -113 504 -249q106 0 183 60q3 0 3 2q-223 113 -497 207q93 107 230 218q105 10 157 50q15 6 23 12q-29 114 -32 164q-3 23 -3 97q0 58 -3 91q0 3 -6 6
l-20 11l-2 197q77 -19 144 -72q107 -84 137 -268l2 -8q-5 -61 -11 -116l-18 -138l59 -23q132 -9 155 20q41 18 50 27q-23 91 -29 158l-6 182q0 3 -6 6l-20 9l-3 21q-3 217 0 402q3 117 3 290q3 258 3 338l3 29h341z" />
    <glyph glyph-name="Charu_Chandan.106" unicode="&#x9e1;" horiz-adv-x="1463" 
d="M435 1314q0 -2 2 -2zM824 -179q-17 -60 -47.5 -126.5t-77.5 -140.5q6 0 12 -0.5t12 -0.5q112 0 200 79q106 88 115 257q1 8 1 16v16q0 115 -45 220q-42 -16 -86 -24q-32 -7 -66.5 -10t-69.5 -3q-20 0 -39.5 1t-39.5 4q25 -17 46 -47l37 -36q20 -20 37 -51
q11 -26 15.5 -49.5t4.5 -44.5q0 -29 -10 -59zM321 -172q-9 5 -18 14q-2 3 -10 13t-22 25q-35 36 -48 121l4 8q2 8 9 13l4 4q216 79 418 90q-20 5 -40.5 11t-40.5 14q-150 58 -225 105l-52 51q-5 3 -9 5.5t-8 5.5l40 18h-1q45 26 90 77t88 123q11 16 23.5 41t27.5 59
q1 3 7 22.5t17 56.5q-60 -12 -99 -32l-5 -5v-13q3 -11 3 -31q0 -9 -13 -22q-53 -9 -87 -15t-46 -10h1q-13 -5 -22.5 -6.5t-15.5 -1.5q-20 0 -38 18l-48 47q-5 3 -9.5 7t-9.5 9q-5 7 -39 42q-19 21 -34 54t-24 81l6 10q2 10 13 21q139 48 270 74t257 29q38 -20 69 -60l38 -38
q22 -23 39 -54q12 -29 18.5 -55.5t6.5 -50.5q0 -36 -13 -69h1q-40 -142 -159 -316q30 -3 56 -3q144 0 248 92q130 102 141 296q1 9 1 18v18q0 177 -92 325q-30 47 -64 84q-37 30 -79.5 55.5t-92.5 48.5l-1 -2l-15 -32q-17 2 -52.5 5.5t-80.5 6.5q-86 3 -107 22l-51 50
q-13 7 -17 13h1q-14 20 -27.5 80t-10.5 148q18 3 37 4t39 1q189 0 397 -142q100 -81 173 -164l11 -10q225 -227 246 -470q2 -29 3.5 -55.5t1.5 -52.5q0 -226 -99 -350q-18 -23 -36.5 -42.5t-36.5 -35.5q48 -72 74 -145t34 -148q2 -23 3 -47t1 -46q0 -196 -82 -307
q-101 -135 -244 -165q-55 -11 -113 -11q-83 0 -164 33q-60 24 -108 48t-84 47l-52 52l-18 11l45 15l-1 -1q35 25 71.5 68.5t70.5 103.5q18 31 43 89q1 2 4.5 14.5t11.5 41.5q-35 -10 -58 -24l-4 -4v-11q2 -10 2 -27q0 -8 -8 -20q-45 -8 -73 -13.5t-41 -9.5q-22 -7 -33 -7
q-19 0 -37 18zM964 232q6 -8 11 -17q87 -151 78 -327t-120 -267q-91 -83 -210 -83q-51 0 -116 15l-27 7l27 32q107 162 143 294q22 66 -8 142q-28 53 -67 74q-204 -6 -428 -89q-5 -4 -5 -8l-3 -7l-1 -2q14 -74 44 -106.5t35 -41.5q11 -11 26 -11q10 0 29 6q28 9 111 23
q3 5 3 9v2q0 15 -2 23v20l10 7q54 32 165 40q-39 -148 -42 -151q-25 -58 -43 -89q-74 -130 -150 -179l-13 -5q46 -29 169 -80q80 -32 159 -32q58 0 111 11q139 29 236.5 159.5t75.5 392.5q-13 150 -112 296q42 35 80 83q118 149 91 450.5t-365 571.5q-237 161 -449 134
q-3 -85 10.5 -140t25.5 -66q9 -16 100 -19q90 -6 125 -11l12 26l3 11q214 -89 319 -258q104 -169 93 -370t-146 -306q-110 -96 -258 -96q-63 0 -143 18l-33 8l31 36q131 185 174 337q28 76 -10 163q-33 62 -79 84q-245 -6 -516 -101q-5 -4 -5 -9l-1 -3l-4 -8
q17 -85 53.5 -122.5t42.5 -47.5q12 -12 28 -12q11 0 34 7q34 10 132 26q5 5 5 10v3q0 17 -3 26v22l11 8q68 37 208 47q-48 -169 -51 -173q-30 -67 -52 -101q-88 -149 -183 -205l-16 -6q56 -34 205 -93q97 -36 191 -36q70 0 134 13q64 12 120 41z" />
    <glyph glyph-name="Charu_Chandan.107" unicode="&#x9e2;" horiz-adv-x="452" 
d="M-163 -814l2 2l-1 1q0 -2 -1 -3zM-290 149q25 3 53 3q155 0 318 -110q44 -35 81 -70.5t69 -71.5l13 -13q93 -93 143.5 -188.5t61.5 -193.5q2 -22 3 -45t1 -43q0 -89 -21.5 -160t-59.5 -122q-48 -56 -111 -97.5t-128 -54.5q-55 -11 -112 -11q-78 0 -160 30
q-60 24 -108.5 47t-83.5 43l-54 54l-16 9l45 14q38 25 73 64.5t67 93.5q9 14 19.5 33.5t21.5 46.5l7 7l2 -2q0 10 7 39q-30 -9 -55 -21l-3 -2v-11q3 -8 3 -24q0 -7 -13 -20q-41 -7 -68 -12t-40 -9v1q-21 -7 -32 -7q-20 0 -35 15l-49 49q-4 2 -7.5 4.5t-7.5 6.5l-26 31
q-2 1 -4.5 4t-3.5 4q-15 17 -27.5 44.5t-20.5 65.5l5 8q1 3 2.5 7t6.5 11q228 79 434 83q38 -17 63 -53l39 -40q19 -19 33 -47q19 -41 19 -83q0 -28 -10 -54l1 -1q-17 -54 -45.5 -114.5t-73.5 -126.5q5 -1 9 -1h9q111 0 196 73q104 80 113 237q1 8 1 15v15q0 69 -19 134.5
t-56 125.5q-13 19 -27 37t-31 35q-51 37 -112 64l-12 -26q-20 2 -47 5t-65 5q-73 1 -89 17l-54 55q-7 3 -12 8q-11 14 -23.5 61.5t-9.5 115.5zM-288 134q-3 -68 8 -112t21 -53q7 -14 83 -16q73 -5 104 -9l10 22l2 7q169 -72 252 -206q85 -137 76 -299.5t-118 -246.5
q-89 -77 -206 -77q-50 0 -114 15l-26 6l26 30q106 149 141 271q22 61 -9 130q-26 50 -66 68q-199 -4 -421 -81q-3 -4 -3 -9l-4 -7q14 -67 43 -97.5t34 -38.5q11 -11 26 -11q10 0 29 6q27 8 107 21q5 5 5 8v3q0 12 -3 19v19l9 7q54 29 163 37q-39 -137 -42 -139
q-24 -55 -42 -82q-71 -120 -147 -165l-12 -5q44 -26 165 -74q79 -29 156 -29q57 0 110 11q136 26 232 146.5t74 362.5t-295 459q-193 131 -368 109z" />
    <glyph glyph-name="Charu_Chandan.108" unicode="&#x9e3;" horiz-adv-x="1133" 
d="M-102 -791q0 -2 -1 -3l2 2zM467 -135q0 -2 -1 -3l2 2zM340 825q25 3 53 3q155 0 318 -110q44 -35 81 -70.5t69 -72.5l13 -12q93 -93 143.5 -188.5t61.5 -193.5q2 -22 3 -45t1 -43q0 -89 -21.5 -160t-59.5 -122q-48 -56 -111 -97.5t-128 -54.5q-55 -11 -112 -11
q-78 0 -160 30l-25 10q18 -39 28.5 -80t14.5 -83q2 -22 3 -45t1 -43q0 -89 -21.5 -160t-59.5 -122q-48 -56 -111 -97.5t-128 -54.5q-55 -11 -112 -11q-78 0 -160 30q-60 24 -108.5 47t-83.5 43l-54 54l-16 9l45 14q38 25 73 64.5t67 93.5q9 14 19.5 33.5t21.5 46.5l7 7l2 -2
q0 10 7 39q-30 -9 -55 -21l-3 -2v-11q3 -8 3 -24q0 -7 -13 -20q-41 -7 -68 -12t-40 -9v1q-21 -7 -32 -7q-20 0 -35 15l-49 49q-4 2 -7.5 4.5t-7.5 6.5l-26 31q-2 1 -4.5 4t-3.5 4q-15 17 -27.5 44.5t-20.5 65.5l5 8q1 3 2.5 7t6.5 11q228 79 434 83q37 -16 62 -53l40 -40
q19 -19 33 -47q19 -41 19 -83q0 -28 -10 -54l1 -1q-17 -54 -46.5 -114.5t-72.5 -126.5q5 -1 9 -1h9q111 0 196 73q104 80 113 237q1 8 1 15v15q0 69 -19 134.5t-56 125.5q-13 19 -27 37t-31 35q-51 37 -112 64l-12 -26q-20 2 -46.5 5t-64.5 5q-74 1 -90 17l-54 55
q-7 3 -12 8q-6 7 -12.5 23.5t-12 41t-8 56t-0.5 68.5q17 2 33.5 3t32.5 1q154 0 326 -116q45 -35 82.5 -70t67.5 -71l17 -17q2 -2 5 -5.5t6 -5.5q23 22 43.5 51t43.5 65q9 14 19.5 33.5t21.5 46.5l7 7l1 -3q0 10 7 39q-31 -8 -54 -20l-3 -2v-11q3 -8 3 -24q0 -7 -13 -20
q-41 -7 -68 -12t-40 -9h-1q-23 -6 -31 -6q-19 0 -36 17l-47 47q-11 5 -17 13l-33 36q-16 17 -28 44.5t-20 66.5l5 8q1 3 2.5 7t6.5 11q228 79 434 83q36 -16 62 -54l40 -39q19 -19 33 -47q19 -41 19 -83q0 -28 -10 -55h1q-33 -111 -121 -241q5 -1 10 -1h10q111 0 196 73
q104 80 113 236q1 8 1 15v15q0 140 -75 260q-20 33 -50 66q-54 40 -120 71l-12 -26q-20 2 -47 5t-64 5h-1q-38 1 -59.5 5t-29.5 12l-55 54q-8 5 -11 9q-11 14 -23.5 61.5t-9.5 115.5zM342 810q-3 -68 8 -112t21 -53q7 -14 83 -16q73 -5 104 -9l10 22l2 7q169 -72 252 -207
q85 -136 76 -298.5t-118 -246.5q-89 -77 -206 -77q-50 0 -114 15l-26 6l26 30q106 149 141 271q22 61 -9 130q-26 50 -66 68q-199 -4 -421 -81q-3 -4 -3 -9l-4 -7q14 -67 43 -97.5t34 -38.5q11 -11 26 -11q10 0 29 6q27 8 107 21q5 5 5 8v3q0 12 -3 19v19l9 7q54 29 163 37
q-39 -137 -42 -139q-24 -55 -42 -82q-51 -86 -105 -133q-69 94 -182 183q-193 131 -368 109q-3 -68 8 -112t21 -53q7 -14 83 -16q73 -5 104 -9l10 22l2 7q169 -72 252 -206q85 -137 76 -299.5t-118 -246.5q-89 -77 -206 -77q-50 0 -114 15l-26 6l26 30q106 149 141 271
q22 61 -9 130q-26 50 -66 68q-199 -4 -421 -81q-3 -4 -3 -9l-4 -7q14 -67 43 -97.5t34 -38.5q11 -11 26 -11q10 0 29 6q27 8 107 21q5 5 5 8v3q0 12 -3 19v19l9 7q54 29 163 37q-39 -137 -42 -139q-24 -55 -42 -82q-71 -120 -147 -165l-12 -5q44 -26 165 -74q79 -29 156 -29
q57 0 110 11q136 26 232 146.5t74 362.5q-9 96 -57 187l55 -22q79 -29 156 -29q57 0 110 11q136 26 232 146.5t74 362.5t-295 459q-193 131 -368 109z" />
    <glyph glyph-name="Charu_Chandan.109" unicode="&#x9e6;" horiz-adv-x="1463" 
d="M475 274q48 -42 108 -73.5t127 -45.5q22 1 48.5 6.5t53.5 15.5q97 31 166.5 86.5t111.5 133.5q25 51 38.5 108.5t13.5 119.5q0 36 -5 76.5t-13 81.5q-20 80 -55.5 151.5t-83.5 127.5q-46 35 -102.5 58t-121.5 34q-35 -1 -87.5 -25t-114.5 -72h1q-183 -198 -186 -433
q0 -89 24 -174.5t70 -163.5zM680 1304q203 -3 328 -71q35 -25 66 -53.5t59 -60.5l23 -23q54 -54 95 -120t67 -140q54 -155 54 -297q0 -23 -1 -45.5t-4 -43.5q-21 -155 -88.5 -257.5t-180.5 -148.5q-140 -53 -300 -53q-225 0 -357 100q-26 19 -48 42l-25 24
q-63 50 -111.5 123.5t-83.5 162.5q-22 60 -34 120.5t-12 118.5q0 109 40 218q44 113 115 208t168 167q68 38 169 38q25 0 56 -7h-1q2 -2 4 -2h2zM300 686q3 238 189 441q136 107 212 101q183 -29 290 -149.5t148 -291.5q49 -232 -35 -396t-287 -228q-61 -23 -110 -23
q-215 41 -311 202t-96 344zM675 1289l-6 3q-29 6 -50 6q-98 0 -159 -35q-195 -145 -279 -368q-81 -218 6 -447q70 -186 199 -284.5t350 -98.5q156 0 296 52q220 90 261 397q23 177 -48 380.5t-240 322.5q-127 69 -325 72h-5z" />
    <glyph glyph-name="Charu_Chandan.110" unicode="&#x9e7;" horiz-adv-x="1374" 
d="M95 1469q584 -129 892 -403q25 -23 47 -45.5t42 -45.5l5 -4q166 -164 197 -328q10 -46 14.5 -89.5t4.5 -85.5q0 -308 -275 -445q-139 -70 -334 -70q-314 14 -470 168l-23 22q-36 28 -66 63l21 34q151 236 209 396l45 120l14 42q5 15 10 31t10 28q45 -8 99 -49v1
q48 -29 66 -51q1 -5 4 -7l47 -46q2 -2 3 -2.5t2 -2.5q37 -64 37 -132q0 -84 -57 -174q-9 -9 -19 -9q-23 0 -50 13l-23 10l-119 -239q38 -7 73.5 -10.5t69.5 -3.5q107 0 194.5 35t159.5 104q148 139 154 397v4q-8 52 -31.5 108t-58.5 102l-3 2q-32 29 -60 50.5t-51 36.5
q-217 142 -416 160q-120 15 -268 145l-34 33l-29 25q-43 53 -60 101l22 11h5zM85 1457q-7 0 0 -2v2zM91 1454q-4 0 -6 1v-1q15 -39 51 -84q147 -129 264 -144q201 -18 421 -162q69 -42 180 -150q78 -103 93 -217v-6q-6 -264 -159 -408q-222 -216 -607 -105l153 306l33 -15
q27 -12 45 -12q6 0 9 3q99 156 21 291q-15 18 -60 45q-48 37 -81 43l-30 -88l-45 -120q-60 -165 -210 -399l-15 -24v-3q150 -165 480 -180q190 0 328 69q339 168 249 606q-33 178 -228 355q-304 270 -886 399z" />
    <glyph glyph-name="Charu_Chandan.111" unicode="&#x9e8;" horiz-adv-x="1405" 
d="M1042 1162q7 -8 13 -16t11 -16q-5 8 -10.5 14.5t-10.5 14.5zM1255 175l59 -59v-50q6 -22 3 -53q-33 -53 -59 -58h-10q-3 -3 -3 -7q-16 -20 -38 -31l-49 34q-12 9 -25 19.5t-27 21.5l-1 1q-74 47 -156 95.5t-168 98.5l-36 35l-58 35l1 -1l-34 18q-51 27 -116 58t-141 63
l-36 16q-89 38 -145.5 63.5t-81.5 39.5l-54 54l-7 3.5t-6 3.5l30 30q88 73 155 56l243 -129q55 6 108 17t100.5 26t87 33.5t68.5 39.5q42 60 66 124.5t24 125.5q0 77 -35 158q-18 45 -49 82q-78 59 -199 96l1 -1q-41 6 -83 6q-62 0 -134 -12q-45 -8 -80 -12.5t-64 -6.5
l-59 59h-6q0 17 3.5 32t8.5 26q5 23 44 58q40 36 83 36h15q130 0 254 -33t234 -93q54 -31 101 -73q8 -8 16 -14.5t16 -14.5l62 -62q52 -52 77 -109q40 -90 40 -197q0 -21 -1.5 -43.5t-4.5 -42.5q-12 -78 -48.5 -135t-96.5 -89h-1q-110 -62 -308 -119q65 -33 114 -57.5
t84 -41.5l9 -4l7 3q3 2 7.5 3.5t12.5 1.5q21 -11 48 -24.5t59 -28.5l39 -18q24 -11 58.5 -23t81.5 -25v-5zM1240 169q-85 24 -131 45h-3q-9 6 -36 18q-64 30 -106 52h-3q-3 0 -6 -3l-12 -6l-15 6q-70 33 -200 100q-30 15 -43 24l-87 45q251 64 378 136q118 61 139 215
q22 149 -33 276q-51 118 -206 203q-221 124 -481 124h-15q-37 0 -73 -32t-39 -50q-12 -21 -12 -39q42 3 130 18q72 12 136 12q45 0 85 -6h3q251 -76 318 -245q94 -218 -58 -424q-124 -100 -375 -121h-6l-243 130q-57 15 -145 -58l-9 -9q45 -24 212 -96l36 -16
q161 -69 258 -121q9 -6 33 -18q51 -30 85 -48l15 -9v-16q172 -99 321 -193q27 -22 51 -40l43 -30q12 6 27 24l6 12h15q21 3 49 49q3 30 -3 48v43z" />
    <glyph glyph-name="Charu_Chandan.112" unicode="&#x9e9;" horiz-adv-x="1774" 
d="M705 496q-2 0 -6 2l-20 20q16 103 23 204t7 203q0 89 -5.5 181t-17.5 184l-2 13l-22 23l-13 4q91 54 161 54q441 0 657 -259l20 -20q82 -82 138 -199q70 -170 70 -343q0 -14 -0.5 -28t-1.5 -28v-1q-72 -469 -603 -541q-31 -4 -62 -6t-63 -2q-154 0 -311 51
q-135 48 -249 162l-10 9q-79 65 -150 164q-149 194 -199 473q82 70 140 70q32 0 65 -28v-5l59 -58q8 -69 64 -235q57 -157 146 -271q78 -80 168 -130q58 -23 119.5 -37t120.5 -14q21 0 43.5 1.5t44.5 5.5q81 16 164.5 60.5t152.5 113.5q56 67 86 149.5t32 176.5
q1 10 1.5 19.5t0.5 19.5q0 68 -21 143.5t-62 160.5l1 -1q-18 25 -37 47.5t-39 43.5q-75 62 -159.5 98t-178.5 44v-93q0 -83 -1.5 -155.5t-4.5 -141.5l8 -4v-5l59 -59v-62q-6 -74 -6 -130q0 -67 -22 -82q-8 -5 -29.5 -11.5t-53.5 -14.5q-25 -7 -58 -7q-20 0 -42 3t-45 11z
M1619 570q13 195 -67 393q-195 406 -742 406q-67 0 -125 -35l10 -3l6 -39q49 -393 -6 -770l10 -10q74 -22 137.5 -6t79.5 25.5t16 70.5q0 57 6 131v54q-13 7 -45 10l-25 9q9 160 9 353v106q304 -17 500 -299q96 -195 83 -351q-3 -195 -122 -336q-150 -150 -326 -179
q-170 -26 -336 45q-256 131 -381 473q-57 169 -64 233q-60 55 -175 -41q48 -266 195 -458q150 -204 339 -271q217 -71 431 -42q522 71 592 531z" />
    <glyph glyph-name="Charu_Chandan.113" unicode="&#x9ea;" horiz-adv-x="1331" 
d="M430 1008q5 -21 13 -41.5t20 -38.5q81 -69 225 -115q106 38 169 81t85 88q12 29 19 59t7 59q0 19 -2.5 38.5t-8.5 41.5q-11 25 -29 46q-17 10 -33 18q-42 13 -85 20.5t-85 7.5t-84.5 -8.5t-80.5 -22.5q-141 -85 -130 -233zM427 256q2 -22 10.5 -42.5t20.5 -40.5
q43 -29 81 -35q35 -9 69.5 -13t69.5 -4q37 0 77.5 5t82.5 14q79 32 121.5 96t42.5 158q0 31 -3 63v-1q-14 43 -48 83q-106 72 -299 106q-84 -38 -132 -104q-94 -125 -94 -257v-14.5t1 -13.5zM326 831q-107 85 -130 223q-1 8 -1 17v18q0 183 157 274h-1q110 67 335 64
q111 -2 193.5 -22t130.5 -52q33 -24 59 -59l35 -34q64 -66 84 -166q2 -12 3 -26t1 -26q0 -80 -40 -154q-23 -42 -73 -82t-131 -78q90 -58 143 -126l24 -23q38 -38 63.5 -79.5t37.5 -83.5q15 -59 15 -115q0 -68 -28 -127q-89 -154 -279 -203q-49 -12 -99.5 -18.5t-103.5 -6.5
q-45 0 -92.5 5.5t-93.5 14.5q-62 11 -110.5 32.5t-84.5 57.5l-40 39q-35 28 -60.5 66.5t-40.5 91.5q-12 48 -12 97q0 116 75 217q39 52 86 94t98 73q-50 28 -89 67zM427 179q-62 63 -74 137q-12 151 95 294q51 71 140 110q362 -62 425 -259q32 -258 -170 -335
q-163 -39 -309 -3q-50 9 -107 56zM689 797q-294 95 -333 270q-12 158 137 247q160 62 344 3q92 -36 134 -131q30 -110 -14.5 -209.5t-267.5 -179.5zM811 770q217 90 268.5 186.5t34.5 197.5q-21 124 -113 187q-89 68 -315 71q-223 3 -327 -62q-163 -95 -148 -294
q38 -226 309 -300q-143 -60 -245.5 -198t-60.5 -301q29 -101 93 -150.5t168 -66.5q199 -42 384.5 5.5t271.5 196.5q45 92 11 233t-221 251z" />
    <glyph glyph-name="Charu_Chandan.114" unicode="&#x9eb;" horiz-adv-x="1405" 
d="M803 331q-58 44 -88 97q-55 95 -55 191q0 41 9 80q3 17 17.5 42t37 55t52.5 63.5t65 68.5l3 3q-48 23 -88.5 52t-74.5 63l-36 35q-180 -158 -233 -316q-42 -122 -42 -233q0 -97 33 -184q12 -31 25.5 -58.5t30.5 -50.5q26 -23 53.5 -40t59.5 -28q82 -34 161 -34
q29 0 64 6.5t64 14.5q25 8 52.5 20.5t56.5 28.5q-86 43 -141 98zM358 135q-84 64 -135 163t-71 224q-3 20 -4 41.5t-1 41.5q0 249 193 544q198 258 364 332l19 -25l42 -41q81 -96 78 -184l-23 -15q-4 -20 -4 -39q0 -45 22 -82q52 -40 125 -59q45 36 89.5 64.5t89.5 51.5
q84 -18 111 -64l46 -45q32 -32 25 -81q-437 -251 -437 -434q0 -19 6 -40q11 -41 35 -76q106 -89 324 -135l-3 -4l60 -60q-31 -38 -72.5 -73t-92.5 -67q-49 -32 -98.5 -57t-93.5 -39q-32 -11 -66.5 -18.5t-64.5 -11.5q-11 -2 -23.5 -2.5t-23.5 -0.5q-146 0 -319 109
q-42 27 -76 61zM587 1162q110 -137 312 -200q-24 -22 -48 -45q-153 -150 -167 -221q-31 -132 44.5 -259.5t310.5 -207.5l-33 -19q-74 -45 -140 -66q-153 -49 -299 13q-164 60 -236.5 249t8.5 425q56 166 248 331zM966 1019q-105 26 -173 97q-67 69 -46 169q11 8 22 15
q3 76 -69 162q-152 -68 -347 -322q-224 -339 -185.5 -615.5t231.5 -399.5t358 -104q64 7 129 29q87 28 189.5 95t149.5 122q-350 76 -406 280.5t432 483.5q11 79 -108 105q-86 -43 -177 -117z" />
    <glyph glyph-name="Charu_Chandan.115" unicode="&#x9ec;" horiz-adv-x="1565" 
d="M1045 782q33 32 77 93.5t101 156.5q2 -4 5 -7.5t5 -8.5l53 -52q34 -48 62.5 -102.5t48.5 -102.5q53 -133 53 -287q0 -77 -12 -153q-20 -93 -66 -165.5t-112 -122.5q-56 -37 -136.5 -60.5t-172.5 -23.5h-23t-23 1q-109 6 -207.5 35.5t-176.5 80.5q-24 17 -47 35.5
t-44 39.5l-14 14q-130 103 -213 289q-47 111 -69 231.5t-20 253.5q18 14 38 17q34 9 80 9h34q35 -9 48 -35l47 -47q0 1 -0.5 1t-0.5 1l3 -3q19 -19 19 -55q-3 -395 176 -618q46 -45 110.5 -68.5t147.5 -26.5h12q216 0 297 109q73 95 102 216q18 72 18 142q0 29 -2.5 57
t-7.5 57v-1l-10 30q-205 -226 -353 -226q-77 0 -149 72l-30 30q-9 7 -18 14.5t-17 16.5q2 12 2 27v38v57.5t-1 76.5q0 42 8 105.5t22 140t32.5 161.5t40.5 171q5 32 36 32q13 0 175 -55l-2 -4l60 -60q-133 -280 -133 -565q0 -12 -0.5 -24.5t0.5 -24.5q78 23 147 87z
M1055 771q-100 -94 -224 -100q-36 364 121 693q-145 49 -154 49q-18 0 -21 -21q-106 -403 -103 -574t0 -195h3q90 -97 220.5 -44t302.5 256l49 -148q24 -137 -7 -264q-30 -124 -105 -221q-85 -115 -309 -115h-12q-173 6 -269 100q-242 230 -239 690q0 49 -46 61h-30
q-42 0 -76 -9q-18 -3 -27 -9q-3 -255 88 -472q94 -209 249.5 -312t378 -113.5t346.5 80.5q133 96 173 281q36 239 -40 433q-39 99 -100 187q-100 -169 -169 -233z" />
    <glyph glyph-name="Charu_Chandan.116" unicode="&#x9ed;" horiz-adv-x="1251" 
d="M451 803q49 -31 144.5 -49.5t238.5 -26.5q5 159 9.5 280t8.5 209q-41 14 -88 21t-102 7q-8 0 -17 -0.5t-17 -0.5q-167 -5 -224 -84h-1q-22 -38 -31.5 -75t-9.5 -75q0 -37 10 -77q17 -59 50 -109q15 -11 29 -20zM287 713q-80 63 -116 142q-38 85 -38 181q0 11 0.5 25
t2.5 26q7 55 31 111.5t63 104.5q83 102 321 116q106 0 222.5 -23t247.5 -68l1 -2q14 -2 21.5 -9t12.5 -17l50 -50q6 -7 9 -14q-7 -11 -31 -35q-16 -16 -16 -29t-2 -52t-6 -104q-4 -64 -6 -212.5t-4 -388.5q4 -6 6.5 -12t6.5 -11l10 -10q0 -67 8 -164.5t24 -228.5
q0 -15 -10 -16q-11 -5 -30.5 -9.5t-45.5 -7.5q-20 -3 -20 -6q-10 0 -25.5 2.5t-34.5 8.5l-1 1q-37 11 -54 28l-49 49q-9 5 -18 14q0 121 2.5 249t7.5 261l-103 -7q-178 0 -303 50q-63 36 -109 82zM849 711q-300 15 -405.5 79.5t-145.5 200.5v3q-32 118 34 234
q61 84 234 89.5t280 -49.5l23 -8q-8 -182 -20 -549zM956 30q52 6 72 17q3 0 3 3q-32 260 -32 390l-8 8l-15 26q3 477 10.5 605.5t7.5 154.5q0 17 20 37t26 29q-3 9 -23 12l-3 3q-254 89 -462 89q-231 -14 -310.5 -111t-90.5 -207q-12 -121 34 -225q49 -109 179 -182
q124 -49 298 -49l181 12v-46q-11 -280 -11 -537q14 -15 49 -25q33 -10 44 -10q0 1 31 6z" />
    <glyph glyph-name="Charu_Chandan.117" unicode="&#x9ee;" horiz-adv-x="1464" 
d="M380 152q67 -8 122.5 -13t100.5 -6q35 -2 84.5 10t100.5 31q36 20 60 41.5t35 45.5q26 67 26 129q0 56 -23 113q-12 29 -26 54t-31 46q-20 14 -43 24.5t-48 18.5q-81 33 -232 33q-63 0 -81 -3l-25 -2l-11 -307zM1266 941q11 3 23 7t21 11l3 -10l57 -57l24 -80l-1 1
q17 -27 -24 -116h-31q-117 -3 -183.5 -4.5t-72.5 -1.5l-137 2l24 -27l29 -29q114 -114 137 -279q3 -127 -58 -216q-137 -171 -377 -180q-87 -3 -156 -3q-61 0 -109 2.5t-84 7.5q-113 17 -124 28l-56 55q-8 3 -9 6l9 94q7 137 10.5 227t3.5 118l12 14v19q6 187 9 438v15l-2 6
l-2 4q-2 2 -6 5.5t-5 5.5q-3 85 -11.5 191.5t-21.5 220.5l84 22q49 3 117 -34v-5l59 -59v-26t-1 -54l-4 -357l-1 -26q175 -12 282 -12q180 0 345 27q20 3 60.5 12t98.5 23l23 5q19 7 45 9zM303 148q3 73 12 282l12 317l35 3q18 3 82 3q150 0 230 -32q158 -44 226 -212
q50 -120 -3 -253q-24 -55 -103 -96q-115 -45 -191 -42q-118 3 -300 30zM1320 874l-18 61q-5 -3 -32 -9q-26 -2 -44 -8l-23 -6q-112 -27 -162 -35q-165 -27 -347 -27q-117 0 -317 15l-41 6l3 94q5 411 5 429q-58 32 -97 29l-73 -18q26 -226 32 -396l9 -9l6 -15v-17
q-3 -250 -9 -438v-24l-12 -14q0 -56 -14 -341l-9 -88q3 -3 114.5 -19.5t346.5 -7.5t368 176q58 86 55 206q-32 221 -232 350l191 -3q12 0 256 6h23q39 82 21 100v3z" />
    <glyph glyph-name="Charu_Chandan.118" unicode="&#x9ef;" horiz-adv-x="1343" 
d="M409 1378q25 3 53 3q172 0 377 -139q96 -77 169 -162l3 -2q115 -115 179 -237t78 -246q6 -59 6 -114q0 -112 -25.5 -199t-73.5 -150q-60 -75 -131.5 -121.5t-152.5 -62.5q-62 -12 -130 -12q-45 0 -91 8.5t-94 26.5q-75 30 -131.5 56.5t-98.5 51.5l-51 50l-19 12l48 20h-1
q48 29 93.5 79t88.5 124q11 17 24 41.5t27 57.5l4 4q1 8 5 19q2 9 6 22t9 30q-41 -7 -74 -17t-55 -21l-6 -4v-7q3 -11 3 -33q0 -13 -11 -24q-47 -8 -79.5 -14t-49.5 -11h-1q-23 -6 -27 -6q-10 0 -22 12l-49 49q-9 4 -16 12q-7 12 -40 45q-42 41 -61 142l7 14v-1q3 11 11 19
q134 47 260.5 72t246.5 28q36 -17 61 -55l37 -36q11 -11 20.5 -24.5t18.5 -30.5q26 -61 26 -111q0 -39 -14 -74h1q-20 -71 -58.5 -148t-95.5 -162q18 -2 35.5 -3.5t31.5 -1.5q151 0 263 97q66 51 100.5 123.5t39.5 168.5q1 9 1 17.5v17.5q0 173 -92 321q-14 23 -31 45
t-36 42q-80 63 -187 108h1l-9 3l-3 -9l-14 -29q-13 2 -42.5 4.5t-76.5 5.5q-78 3 -92 17l-53 52q-11 5 -14 10h1q-6 7 -14 26t-14 48t-10 66.5t-2 82.5zM411 1363q-3 -89 11 -145.5t26 -68.5q6 -10 85 -13q92 -6 111 -9l9 19l6 21l21 -6q221 -92 325 -260.5t93.5 -365.5
t-145.5 -302q-116 -101 -273 -101q-67 0 -150 19l-36 9l24 28q132 186 175 339q30 80 -10 172q-33 61 -70 79q-233 -6 -496 -98q-3 -3 -3 -9l-6 -12q18 -92 55 -130t43 -48q6 -6 12 -6t25 6q36 10 128 25q3 3 3 12v3q0 19 -3 28v15l12 9q74 40 236 52q-46 -165 -49 -168
q-30 -67 -52 -101q-89 -150 -187 -208l-21 -9q61 -37 208 -95q92 -34 181 -34q67 0 128 12q159 31 277 179.5t90.5 454.5t-364.5 575q-229 156 -419 132z" />
    <glyph glyph-name="Charu_Chandan.119" unicode="&#x9f0;" horiz-adv-x="1355" 
d="M855 1094q26 -8 53.5 -21t54.5 -31q3 115 4.5 191t1.5 111v13h-64q-54 -70 -97.5 -127t-86.5 -115h1q35 0 69.5 -5.5t63.5 -15.5zM511 829q137 -2 247 -52.5t194 -147.5q0 8 0.5 14.5t0.5 14.5q2 42 2.5 80t1.5 76q-11 18 -23 35t-26 33q-10 7 -19 13.5t-20 12.5l1 -1
q-82 37 -162 37q-31 0 -64.5 -6t-64.5 -16zM509 994q158 54 304 -14q104 -59 159 -161q-2 -105 -6 -230q-205 273 -592 215l46 67q43 60 89 123zM977 1013q-58 48 -126 66q-119 42 -279 0q122 166 266 352h146v-87q0 -73 -7 -331zM-107 1431h742l-44 -64
q-150 -238 -370 -484q-79 -94 -126 -145q-20 -20 -62 -64q27 -123 135 -156q15 0 27 6q47 68 135 205l11 15l18 6q94 6 129 6q91 0 177 -47q199 -109 296 -381l3 -6v-6l-30 -273l-6 -59q15 -3 68 -23l17 -15q109 9 162 50q15 6 24 12q-29 114 -32 164q-3 23 -3 97
q0 59 -3 91q0 3 -6 6l-21 12v23q-2 167 0 370q0 525 3 546l3 114h341l-43 -74h-225l-2 -104q-3 -21 -3 -544q-1 -51 -1 -99v-95v-90.5t1 -85.5v-9l22 -22q3 -3 5 -9q2 -16 2.5 -39.5t0.5 -52.5q0 -74 3 -96q2 -23 10.5 -65.5t23.5 -104.5q-8 -7 -14.5 -10t-16.5 -7
q-27 -20 -71 -33.5t-101 -18.5l-20 17q-44 17 -75 23l-58 58q-2 0 -3.5 0.5t-3.5 0.5l7 73l30 272q-1 0 -1 1v2q-30 84 -71 152t-92 122q-30 23 -64 43q-41 21 -85 33.5t-86 12.5q-33 0 -127 -6q-4 -2 -5.5 -1.5t-6.5 -1.5l-9 -13q-90 -138 -137 -207q-18 -9 -36 -9
q-50 15 -85 50l-37 36q-68 47 -90 148l67 70q23 26 55 62.5t71 82.5q209 233 356 464h-716zM-39 1549h1588l-9 -15h-1588z" />
    <glyph glyph-name="Charu_Chandan.120" unicode="&#x9f1;" horiz-adv-x="1349" 
d="M969 1357h-64q-112 -146 -210 -277t-184 -251q137 -2 246.5 -52t194.5 -147q8 299 12.5 477t4.5 237v13zM391 601q47 -12 98 -37q152 -65 205 -210q33 -119 -12 -233l101 -70q16 37 27 80q31 155 -30 261q-62 130 -256 216q-59 27 -116 46zM984 1344q0 -121 -18 -755
q-205 273 -592 215l46 67q180 252 418 560h146v-87zM-19 1431h654l-44 -64q-150 -238 -370 -484q-79 -94 -126 -145q-20 -20 -62 -64q27 -123 135 -156q15 0 27 6q47 68 135 205l11 15l18 6q94 6 129 6q91 0 177 -47q199 -109 296 -381l3 -6v-6l-30 -273l-6 -59
q15 -3 68 -23l17 -15q109 9 162 50q15 6 24 12q-29 114 -32 164q-3 23 -3 97q0 59 -3 91q0 3 -6 6l-21 12v23q-2 167 0 370q0 525 3 546l3 114h364l-43 -74h-248l-2 -104q-3 -21 -3 -544q-1 -51 -1 -99v-95v-90.5t1 -85.5v-9l22 -22q3 -3 5 -9q2 -16 2.5 -39.5t0.5 -52.5
q0 -74 3 -96q2 -23 10.5 -65.5t23.5 -104.5q-8 -7 -14.5 -10t-16.5 -7q-27 -20 -71 -33.5t-101 -18.5l-20 17q-44 17 -75 23l-58 58q-2 0 -3.5 0.5t-3.5 0.5l7 73l30 272q-1 0 -1 1v2q-30 84 -71 152t-92 122q-30 23 -64 43q-41 21 -85 33.5t-86 12.5q-33 0 -127 -6
q-4 -2 -5.5 -1.5t-6.5 -1.5l-3 -4q32 -11 64.5 -23.5t57.5 -23.5q72 -32 128 -72.5t94 -86.5l32 -32q45 -45 69 -96l-1 1q43 -77 43 -168q0 -47 -11 -102q-5 -21 -13.5 -44.5t-20.5 -50.5l-120 83l-50 50l-16 11q29 75 29 139q0 23 -3.5 47t-9.5 48q-20 54 -54 97
q-18 13 -38 23.5t-42 21.5q-25 12 -52 21.5t-56 17.5l-58 58q-4 0 -8 2l14 45q-39 -60 -70 -106t-51 -76q-18 -9 -36 -9q-50 15 -85 50l-37 36q-68 47 -90 148l67 70q23 26 55 62.5t71 82.5q209 233 356 464h-628zM49 1549h1523l-9 -15h-1523z" />
    <glyph glyph-name="Charu_Chandan.121" unicode="&#x9f2;" horiz-adv-x="1223" 
d="M49 1564v5h3l10 10q1 2 3 4.5t7 7.5q146 49 332 49q51 0 104 -3q110 -11 208.5 -40.5t186.5 -78.5q43 -36 81 -73t73 -75l9 -9q63 -63 113 -129.5t87 -138.5q50 -113 78.5 -225.5t37.5 -225.5q2 -26 3 -50.5t1 -47.5q0 -198 -72 -280l-14 -3q-30 13 -53 36l-42 41
q-75 54 -78 167q7 19 13.5 49t12 66t9.5 76t7 81q-3 84 -27 169.5t-70 170.5q-38 76 -87 131q-7 5 -13.5 9.5t-13.5 9.5q-203 138 -425 138q-8 0 -16 -0.5t-16 -0.5q-69 -2 -142.5 -12t-153.5 -29l-60 60q-1 0 -1.5 -0.5t-1.5 -0.5q-49 51 -69 92q-14 17 -21 40h-2zM65 1561
l-2 -2l1 7zM1243 334q85 97 65 369q-18 223 -115 447q-98 190 -295 353q-177 97 -391 119q-250 16 -428 -44q-2 -2 -4 -6l-10 -11q6 -25 24 -43q18 -35 58 -79q149 34 292 39q244 10 464 -139q113 -72 183 -215q95 -173 98 -348q-10 -187 -42 -273q5 -125 101 -169z" />
    <glyph glyph-name="Charu_Chandan.122" unicode="&#x9f3;" horiz-adv-x="1608" 
d="M1273 380q1 -18 0 -42q-18 -87 -102 -130q-11 -14 -68 -17h-17q-32 0 -52 10l-56 55l-9 5q15 130 15 234q0 45 -3 87.5t-8 82.5v6q-27 14 -7 41q22 25 113 28q45 2 101 -12.5t113 -41.5q69 -32 119 -94l34 -34q37 -37 61 -86q25 -50 35.5 -104t7.5 -108q-6 -118 -76 -185
h-1q-56 -93 -216 -122q-66 -9 -132 -9q-158 0 -309 53q-15 9 -27 21l-41 40q-26 15 -44.5 44.5t-29.5 71.5q-20 43 -17 86q15 152 23.5 296t10.5 275q-12 17 -15 46v7.5t-1 10.5q0 3 -0.5 6.5t-0.5 8.5q-2 40 -4.5 80.5t-4.5 81.5h-285l-59 59h-11q63 53 145 87t169 40h48
l-2 5l1 -1l-15 18q-78 59 -185 73q-23 3 -41 3q-144 0 -241 -124l-7 -5q-20 -17 -42 -3l-2 1q-7 3 -9 7l-51 51q-29 16 -16 34l-1 -1q15 27 26 43.5t17 18.5q85 84 179 133t194 54q78 0 146 -31q97 -49 147 -117l30 -29q56 -56 77 -130h293l-8 -6l60 -59q-44 -29 -79.5 -50
t-64.5 -33q-59 -25 -162 -38h-6v-10q-3 -179 -10.5 -396.5t-20.5 -477.5q0 -15 2.5 -29t8.5 -27q19 -11 41 -17q61 -21 129 -21q18 0 40.5 2t42.5 6q52 12 94.5 46t65.5 90q9 31 14 59t5 53q0 42 -13.5 79.5t-39.5 69.5q-27 19 -55 33q1 -5 0.5 -10.5t0.5 -10.5
q2 -16 4 -31.5t4 -31.5v-18l46 -46q1 -1 2 -1.5t2 -2.5zM689 179q22 -83 75 -111q141 -50 299 -50q64 0 130 9q155 27 208 116v3h3q66 63 72 177q8 105 -42 206.5t-147 142.5q-119 58 -207 53q-86 -3 -103 -22q-11 -14 11 -20v-16q22 -169 -3 -397q9 -5 39 -5h17q61 3 58 14
l3 2q80 39 97 122q2 20 0 36q-11 14 -45 9q-5 36 -5 41v20q-3 25 -8 63l-3 42q260 -116 180 -380v-2q-53 -122 -172 -145q-44 -8 -86 -8q-69 0 -133 22q-127 36 -122 150q25 518 31 873v22h16q103 14 159.5 37.5t109.5 59.5h-307q-6 183 -197 277q-67 30 -139 30
q-205 -11 -379 -199q0 3 -25 -42q-3 -5 11 -13q14 -9 28 2h2l3 3q116 147 293.5 126t271.5 -156l11 -28h-69q-83 -6 -155 -32t-119 -65h327v-19q11 -217 13.5 -248.5t14.5 -40.5q-3 -268 -34 -579q-3 -39 17 -80z" />
    <glyph glyph-name="Charu_Chandan.123" unicode="&#x9f4;" horiz-adv-x="1335" 
d="M1113 1476q4 133 98 188q5 -6 10.5 -12.5t10.5 -13.5l41 -40q88 -91 88 -297q0 -43 -3 -89q-18 -228 -136 -452t-310 -347q-169 -108 -386 -130q-48 -3 -96 -3q-174 0 -311 46q-10 5 -13 8l-52 51q-10 5 -12 8t-4 7l1 -1q-3 4 -7.5 8t-7.5 8l1 8q0 66 96 143
q76 -18 149.5 -28t144.5 -13q117 -2 233 31t222 105q55 36 99.5 85.5t78.5 114.5q21 39 38.5 83t31 88t23 87.5t14.5 82.5q-5 86 -16 157t-25 112zM1128 1476q32 -86 42 -274q-13 -175 -108 -348q-70 -132 -183 -205q-220 -148 -464 -139q-143 6 -292 40q-83 -66 -83 -127
l-1 -3l12 -13q2 -5 4 -6q178 -60 408 -44q214 22 381 128q188 120 305 343q117 224 135 447q20 272 -75 370q-76 -45 -81 -169z" />
    <glyph glyph-name="Charu_Chandan.124" unicode="&#x9f5;" horiz-adv-x="1481" 
d="M1494 1623q6 29 23 48q18 22 44 37l20 -2q8 2 20 -4l4 -8l56 -56q26 -52 26 -126q0 -87 -37 -205h1q-25 -116 -77 -239t-131 -255h1q-131 -245 -299 -435q-78 -85 -162.5 -146.5t-169.5 -97.5q-36 -17 -77.5 -26t-84.5 -9q-69 0 -136 18q-36 13 -68.5 26.5t-59.5 29.5
q-63 35 -115 87l-26 25q-19 16 -36 32.5t-32 35.5q-51 63 -83 116t-40 91l42 -2q110 2 258 89q77 47 132 113q-28 10 -54.5 15.5t-49.5 6.5q-5 -11 -9 -19l-7 -14q-10 -18 -172 30l-58 57l-7 3q-4 2 -8.5 9t-7.5 18t-4 30t-2 50q2 22 14 46t26.5 44t27.5 33t16 14
q116 -20 206.5 -47t153.5 -56q55 -27 95 -49t47 -30q5 -5 8.5 -9t5.5 -8l47 -47h-1q20 -20 16 -31q-7 -83 -101 -178q-120 -118 -280 -182h1l-30 -14q44 -33 85 -57q46 -25 96.5 -39t99.5 -14q19 0 40 2t41 6q39 16 79 40t79 53.5t75.5 64.5t68.5 73q77 113 140.5 213.5
t104.5 172.5q41 74 76 153t64 163q29 85 49.5 168t31.5 161q0 8 1 15.5t3 15.5zM1371 881q156 260 206 491q66 211 13 319q-3 1 -7 0l-17 2l-1 -2q-66 -33 -60 -99q-22 -159 -82 -333.5t-139.5 -318.5t-247.5 -388q-139 -169 -309 -236q-152 -31 -289 46q-59 33 -122 89
l-48 41l55 27q158 63 276 180q90 91 97 172q3 5 -11.5 20t-138 75t-353.5 101q-4 -1 -20 -20.5t-32 -46.5t-18 -55q1 -60 5.5 -75t9.5 -18q151 -45 157 -34.5t18 38.5q102 1 214 -71q-64 -90 -164 -151q-153 -90 -266 -91l-23 2q12 -58 115 -182q59 -72 142 -118
q53 -30 118 -52q172 -46 297 14q171 71 328 241q163 186 297 433z" />
    <glyph glyph-name="Charu_Chandan.125" unicode="&#x9f6;" horiz-adv-x="1688" 
d="M1554 1720q6 29 23 48q18 22 44 37l19 -2q6 2 11 0.5t13 -5.5q0 -2 0.5 -3.5t0.5 -3.5l58 -57q4 -20 6 -40.5t2 -41.5q0 -33 -6.5 -75.5t-17.5 -89.5t-27 -96.5t-34 -98.5q-53 -134 -103.5 -255t-98.5 -223v-1q-131 -245 -299 -435q-78 -85 -162.5 -146.5t-169.5 -97.5
q-61 -29 -125.5 -46.5t-122.5 -20.5q-9 -1 -20 -1h-19q-45 0 -80.5 7t-58.5 20q-32 19 -67 54l-20 19q-36 26 -73.5 70t-72.5 105q-83 142 -99 219l42 -2q110 2 258 89q77 47 132 113q-28 10 -54.5 15.5t-49.5 6.5q-5 -11 -9 -19l-7 -14q-10 -18 -172 30l-58 57l-7 3
q-4 2 -8.5 9t-7.5 18t-4 30t-2 50q2 22 14 46t26.5 44t27.5 33t16 14q116 -20 206.5 -47t153.5 -56q55 -27 95 -49t47 -30q5 -5 8.5 -9t5.5 -8l47 -47h-1q20 -20 16 -31q-7 -83 -101 -178q-120 -118 -280 -182h1l-45 -22q14 -50 38 -91q60 -42 147 -42q40 0 89.5 11
t102.5 28q78 32 157.5 92.5t144.5 138.5q38 55 73.5 109t67 103.5t58 93.5t46.5 80q39 72 84 168t86 197q20 51 37.5 102t32 99.5t25 93t16.5 82.5q0 8 1 15.5t3 15.5zM1371 881q96 205 202.5 477.5t76.5 429.5q-3 1 -7 0l-17 2l-1 -2q-66 -33 -60 -99q-22 -159 -112 -382
t-169.5 -367t-247.5 -388q-139 -169 -309 -236q-372 -132 -459 176l55 27q158 63 276 180q90 91 97 172q3 5 -11.5 20t-138 75t-353.5 101q-4 -1 -20 -20.5t-32 -46.5t-18 -55q1 -60 5.5 -75t9.5 -18q151 -45 157 -34.5t18 38.5q102 1 214 -71q-64 -90 -164 -151
q-153 -90 -266 -91l-23 2q12 -58 93 -196t164 -184q53 -30 171.5 -24t243.5 66q171 71 328 241q163 186 297 433z" />
    <glyph glyph-name="Charu_Chandan.126" unicode="&#x9f7;" horiz-adv-x="542" 
d="M63 1292q20 185 150 197q47 7 88 -51l40 -39q17 -17 31 -41q16 -28 24.5 -65t8.5 -82q0 -11 -0.5 -24t-1.5 -26l-18 -821q1 -27 2.5 -50t5.5 -43q6 11 13 26.5t15 36.5l6 -15l56 -55l37 -81q4 -167 -186 -163q-38 4 -64 31l-43 42q-87 52 -87 284v34l19 765q7 38 7 68
v11.5t-1 10.5q-7 -1 -15.5 -3t-21.5 -5l-60 59q-2 0 -2.5 -0.5t-2.5 -0.5zM215 1474q-118 -11 -135 -162q128 31 94 -163l-19 -762q-8 -305 118 -317q177 -5 173 148l-24 53q-31 -89 -69 -46.5t-42 177.5l18 822q10 124 -29 190.5t-85 59.5z" />
    <glyph glyph-name="Charu_Chandan.127" unicode="&#x9f8;" horiz-adv-x="1072" 
d="M183 1196v6q1 14 1.5 27t0.5 24q0 30 -3 51l-32 -16l-60 59l-6 -3l29 164q90 43 139 41q31 -1 54.5 -15.5t38.5 -39.5l41 -41q11 -11 20 -26q8 -17 12.5 -77.5t4.5 -165.5q0 -89 -3 -208t-8 -271q31 48 73 123q52 93 86.5 153.5t49.5 85.5q16 27 33 49t36.5 38t42.5 24
t52 6q65 -7 98 -57l42 -42q12 -14 20 -27l1 -1q27 -52 36 -98q5 -23 7 -75.5t3 -132.5l-4 -430q0 -9 -0.5 -17.5t-0.5 -16.5q0 -15 -0.5 -27t1.5 -21l28 -15l-2 -4l60 -59q-56 -158 -164 -150h-1q-24 0 -41 19l-49 48q-31 19 -51 76q-26 77 -23 192l24 464q0 2 -0.5 3.5
t-0.5 3.5q-11 -17 -19 -31.5t-14 -27.5q-11 -21 -29 -53t-42 -71t-53 -83.5t-62 -90.5q-35 -47 -69.5 -74t-63.5 -32q-29 -3 -51.5 -0.5t-36.5 12.5q-7 5 -14 10.5t-15 13.5l-35 35q-23 15 -60 60q-14 20 -22 56.5t-8 93.5v15q0 4 0.5 8t0.5 9zM190 667q-4 -133 26.5 -173
t56.5 -56t80.5 -10t124 101.5t116 175.5t69 121.5t64.5 108.5t57 -125l-24 -464q-3 -114 22 -186.5t66 -74.5q99 -8 149 132q-32 18 -46 25.5t-27 27.5t-10 113l4 430q-1 162 -9.5 206.5t-35 93.5t-89.5 56q-51 4 -85 -28t-64.5 -81.5t-136 -238t-134.5 -197.5q-31 1 -29 54
q28 756 -0.5 805t-82.5 51q-44 1 -125 -36l-23 -125q111 61 94 -177z" />
    <glyph glyph-name="Charu_Chandan.128" unicode="&#x9f9;" horiz-adv-x="960" 
d="M468 409q65 0 115.5 29.5t83.5 82.5q25 43 38.5 92.5t13.5 100.5q0 44 -11 97q-28 110 -77 183q-32 22 -58.5 33.5t-44.5 11.5q-2 0 -10 -2q-25 -2 -55.5 -17t-65.5 -40l-12 -10q-50 -57 -77.5 -128.5t-35.5 -158.5q-1 -8 -1 -15v-15q0 -51 11.5 -101t37.5 -104
q54 -35 136 -39h12zM663 1116q68 -42 112 -101l23 -23q16 -17 30 -34t26 -36l1 -1q82 -109 82 -263q0 -46 -6 -91q-58 -212 -210 -273h1q-86 -37 -185 -37q-74 0 -135 18t-106 51q-12 8 -23.5 18t-22.5 21l-30 29q-42 32 -76.5 81t-57.5 108q-15 41 -23.5 81.5t-8.5 80.5
q0 37 7 74t21 73q29 77 82 142t128 113q46 26 105 26q25 0 39 -5v-1h2q62 -1 118 -14t107 -37zM456 394q-144 8 -203 103l-1 2q-63 124 -54 247q16 179 118 296l2 2l10 8q75 53 124 59q6 2 14 2q53 0 149 -74q73 -75 108 -224q35 -168 -43 -302q-71 -119 -212 -119h-12z
M783 976q-48 78 -127 127q-98 47 -218 49h-4l-4 2q-13 4 -33 4q-57 0 -97 -24q-147 -95 -204 -247q-55 -146 4 -299q47 -126 141 -190q88 -67 234 -67q94 0 180 36q145 58 202 266q29 206 -74 343z" />
    <glyph glyph-name="Charu_Chandan.129" unicode="&#x9fa;" horiz-adv-x="1090" 
d="M589 1483l-9 6q-14 11 -23.5 24.5t-16.5 28.5q-6 15 -3 59q7 79 80 123q28 12 54 12q8 0 16.5 -2t18.5 -5l6 -4l-1 1q36 -12 58 -46l45 -44q20 -20 31 -56q5 -18 5 -51l-11 -35q-15 -43 -52 -65h1q-35 -24 -71 -24q-39 0 -73 24l-10 9zM765 1394q46 35 228 287
q46 63 84.5 116t67.5 94t48 68t25 37q2 -8 2 -12l59 -58q30 -85 -251 -492h-1q-56 -88 -102 -150.5t-84 -95.5q-81 -75 -176 -75q-11 0 -21 1t-21 3q-29 5 -56.5 15.5t-53.5 24.5q-21 16 -39.5 32t-35.5 33l-18 17q-57 48 -94 96q-22 32 -37 60.5t-23 48.5q-12 23 -22 54
t-15 69q5 28 96 33q14 1 30 -1t30 -6t22.5 -8.5t12.5 -13.5l1 -3l53 -53q4 -4 5 -7l14 -40l9 -25q14 -38 35 -73q20 -13 46 -20.5t56 -8.5q64 9 131 58zM776 1592q0 30 -5 47q-17 59 -67 74h-2l-2 3q-35 12 -75 -5q-66 -40 -73 -111q-3 -40 2 -52q12 -29 35 -47
q31 -22 66 -22q32 0 64 22q33 20 47 59zM774 1383q-65 -48 -133 -57q-91 3 -140 56.5t-71.5 118.5t-22.5 61q-3 10 -26 16q-29 10 -55 7q-79 -4 -82 -19q10 -69 36 -115q13 -36 59 -107q45 -59 113 -111q59 -32 111 -42q113 -19 208 68q74 65 185 244q277 402 258 458
q-26 -39 -208.5 -289t-231.5 -289z" />
    <glyph glyph-name="Charu_Chandan.130" horiz-adv-x="744" 
d="M871 1534h-449l-34 -151q-150 -576 -225.5 -764.5t-134.5 -242.5q-9 -17 6 -54q25 -45 60.5 -52t61 -10t64.5 -51q49 -111 145.5 -180.5t274 -96.5t181.5 -5.5t-27 55.5t-116 51q-29 0 -60 -9l-9 -5l-8 -3q-105 3 -255.5 118t0.5 603q133 535 286 680l11 12h167l-42 -74
h-57l-7 -7q-152 -146 -285 -677q-75 -242 -75 -391q0 -93 28 -148q131 -95 229 -100l12 6q34 10 68 10q44 -9 75.5 -23t48.5 -33q4 -5 8 -9.5t7 -9.5l45 -45q35 -38 30 -66q-4 -19 -50 -19q-47 0 -146 15q-179 27 -279 98q-13 10 -25.5 20.5t-23.5 22.5l-23 22
q-42 32 -75.5 74t-58.5 91q-14 2 -29 4t-32 6q-23 4 -42 24l-44 44q-24 13 -46 49q-19 48 -7 70q60 55 134 240q18 44 42 117.5t52.5 172t61.5 218t69 255.5l34 163h473z" />
    <glyph glyph-name="Charu_Chandan.131" horiz-adv-x="768" 
d="M962 1429l-42 -74h-215l-7 -7q-154 -142 -286 -677q-74 -242 -74 -391q0 -95 26 -147q133 -99 228 -102q4 0 6 2l10 6q31 9 63 9q4 0 12 -2q1 0 1 -0.5t1 -0.5q75 -6 112 -49q5 -5 8.5 -9.5t6.5 -9.5l45 -45q18 -20 25.5 -38t5.5 -32q-4 -19 -50 -19q-47 0 -146 15
q-180 27 -294 126l-4 4q-11 10 -21 19t-20 19l-11 11q-6 4 -8 7q-96 87 -126 142q-14 2 -29.5 4t-32.5 6q-23 4 -42 24l-44 44q-26 15 -46 50q-16 46 -6 70q61 55 134 240q17 43 41.5 118.5t53.5 175t62 219t68 250.5l7 29q8 32 15.5 68t13.5 65h13q37 40 62.5 86.5
t33.5 94.5q4 20 4 42q0 38 -13.5 75t-38.5 71l-23 23q-56 48 -99 72q-37 20 -75 36.5t-79 27.5q-84 24 -182 33q-53 3 -95 43l-40 40q-17 11 -31.5 27.5t-27.5 37.5q11 5 20.5 9.5t16.5 6.5l11 4q2 6 5 9h17q30 0 84 -12q223 -66 380 -153.5t251 -201.5l17 -16
q45 -45 78 -93q48 -99 48 -181q0 -22 -3.5 -42t-9.5 -39h305l-9 -15h-409l29 54q56 116 -23 278q-173 252 -658 394q-54 12 -80 12h-8l-3 -6l-17 -6q-11 -3 -20 -8q37 -63 111 -68q102 -9 184 -33t157.5 -65t188.5 -158q71 -93 52.5 -199.5t-106.5 -194.5h-5l-34 -151
q-151 -575 -226 -764t-135 -243q-8 -17 6 -54q25 -45 60.5 -52t61 -10t65.5 -51q20 -57 130.5 -153.5t288 -123.5t182 -5.5t-28.5 59.5t-104 44q-5 3 -11 3q-28 0 -60 -9l-8 -5l-9 -3q-105 3 -255 118t0 603q133 536 287 680l11 12h325z" />
    <glyph glyph-name="Charu_Chandan.132" horiz-adv-x="3" 
d="M-399 1880q9 3 26 15q18 10 35 20.5t31 20.5l18 -5q1 0 1 1q4 4 5 4q60 35 107.5 64.5t76.5 48.5v-1q33 23 60 43t47 39l14 7l-1 -1q5 4 11 4.5t11 0.5l4 -9l56 -56q12 -27 12 -56q0 -17 -2.5 -34.5t-7.5 -37.5q-2 -12 -13 -12q-8 -5 -17 -10.5t-17 -10.5
q-10 -6 -19.5 -13t-19.5 -13h1l-80 -54l-8 -4v-11q-45 -31 -97.5 -68.5t-109.5 -82.5l-35 -32l-26 -28q-13 7 -24 14.5t-20 16.5l-39 39q-69 47 -72 143v18q29 10 50 18.5t35 16.5v-1zM-396 1864q-26 -16 -80 -34v-8q3 -100 75 -136l20 21l36 33q113 88 203 149v11l13 7
l80 54l39 26l38 23q3 0 3 3q18 74 2 113q-2 0 -5 -3q-2 0 -2 -2q-8 -3 -11 -5q-36 -34 -105 -80q-62 -39 -185 -113l-13 -8l-16 5q-25 -18 -67 -41q-15 -10 -23 -13z" />
    <glyph glyph-name="Charu_Chandan.133" horiz-adv-x="1822" 
d="M968 1357h-65q-112 -146 -209.5 -277.5t-183.5 -252.5q124 -5 232.5 -54.5t208.5 -148.5q8 304 12.5 482t4.5 237v14zM345 733q-6 -4 -3 -4zM346 734l12 3v4zM983 1343q0 -120 -18 -754q-256 270 -593 214l47 67q179 254 416 561h148v-88zM-107 1431h740l-44 -64
q-150 -238 -370 -485q-80 -94 -127 -143q-20 -21 -76 -80q56 -114 151 -140q14 0 26 6q47 67 135 205l12 14l17 6q94 6 129 6q91 0 176 -47q199 -108 297 -382l3 -6v-6l-29 -272l-6 -59q15 -3 67 -23l18 -15q108 9 161 50q15 6 24 12q-30 114 -33 164q-3 23 -3 96
q0 59 -2 92q0 3 -6 6l-21 12v23q-3 167 0 370q0 526 3 546l3 59q308 -88 408 -297v-3q8 -68 -21 -94l-26 -6q-12 0 -18 -3q-29 -20 -64 -79q-30 -50 -30 -70q35 -59 135 -94q53 -18 73 -18q41 0 56 12q29 29 35 61q31 297 -115 435t-324 211h704l-43 -74h-487
q82 -53 160 -126q18 -18 36 -41l24 -23q2 -1 2.5 -2t2.5 -3q120 -119 120 -340q0 -49 -6 -101q-8 -36 -40 -68q-20 -15 -63 -15q-23 0 -77 19q-74 25 -115 66l-41 40q-36 26 -52 56q0 14 9 36.5t23 46.5q17 28 35.5 50.5t34.5 33.5q4 2 10.5 3.5t11.5 1.5q5 1 11 2.5t11 2.5
q6 8 10.5 20.5t4.5 29.5q0 6 -0.5 13t-1.5 15q-29 56 -79 107q-48 36 -108.5 65.5t-132.5 51.5l-2 -46q-3 -20 -3 -543q-1 -51 -1.5 -99t-0.5 -95t0.5 -90.5t1.5 -85.5v-9l22 -22q3 -3 5 -9q1 -17 1.5 -41.5t0.5 -51.5q0 -73 3 -95q3 -45 35 -169q-10 -8 -16.5 -11.5
t-14.5 -6.5q-27 -20 -71 -33.5t-101 -18.5l-20 17q-23 9 -40 14t-34 9l-58 58q-2 0 -3.5 0.5t-3.5 0.5l7 73l29 271q0 1 -0.5 2t-0.5 2q-32 81 -76.5 153.5t-98.5 129.5q-13 9 -26 17.5t-27 16.5q-42 23 -84 34.5t-86 11.5q-34 0 -128 -6l-12 -4l-8 -10q-44 -68 -79 -121.5
t-58 -86.5q-18 -9 -37 -9q-55 15 -97 57l-36 35q-55 40 -96 124l84 88q23 25 55 60t72 83q210 235 356 465h-714zM-39 1549l2058 1l-9 -16h-2058z" />
    <glyph glyph-name="Charu_Chandan.134" horiz-adv-x="4" 
d="M-149 968v-6l59 -59q-1 -54 -1 -106.5v-91.5v-158q-1 -23 -1.5 -47t-0.5 -50t0.5 -52.5t1.5 -54.5v-11l23 -23l9 -264v-1q2 -24 9.5 -65t21.5 -98l-35 -19l-7 -7l-15 -14q-26 -18 -81 -26q-8 0 -14.5 -0.5t-11.5 -1.5q-17 1 -30.5 5t-24.5 10l-12 9l-16 3q-27 3 -50 14
l-54 55q-4 1 -12 5l14 53v-1l9 94q3 29 5.5 61t4.5 69q-22 52 -61 97q-22 15 -47.5 28t-54.5 24l-3 1h-1l-1 1q-68 21 -125 21q-111 0 -168 -87q-37 -49 -37 -114v-16t2 -17q3 -20 9.5 -39t17.5 -36l4 -3l23 40l20 34l-9 7q-35 24 -30 68q3 11 13.5 25.5t27.5 27.5
q41 31 110 29q68 -1 133 -75q0 -1 -0.5 -1t-0.5 -1l44 -44l15 -16q-56 -75 -102.5 -153.5t-86.5 -161.5l-2 -2v-5q-23 -23 -55 -23q-37 0 -92 23q-26 17 -50.5 36.5t-47.5 42.5l-15 15l-24 22t-25 23q-82 79 -95 171v-1q-7 41 -7 83q0 22 1.5 40t6.5 35q14 54 43 99.5
t73 77.5t111 49.5t142 19.5q8 1 18 1h18q136 0 293 -80l27 -21q0 12 1 23.5t1 22.5v92.5t1 81.5v10t-1 10q0 5 -0.5 9.5t-0.5 8.5l2 3q1 75 1 126v80v66l15 -15v-51q0 -57 -1 -206q-1 -2 -2 -3q1 -16 2 -38q-1 -76 -1 -174q-1 -35 -3 -75l-49 37q-173 89 -320 77
q-157 0 -245 -66q-84 -62 -110 -169q-16 -63 -1.5 -151t90.5 -162l2 -2q42 -44 91 -74q97 -41 132 -8v5l3 3q81 170 184 310q-51 59 -113.5 60.5t-100.5 -26.5q-30 -23 -35 -46q-3 -31 24 -51l20 -13l-58 -102q-98 71 -110 160.5t37 155.5q62 92 178 92q58 0 126 -21h2l3 -2
q176 -63 239 -221q-4 -74 -10 -133l-9 -94l-11 -42q14 -6 38 -9l17 -3l15 -11q18 -11 48 -13q10 2 25 2q53 8 79 26l11 10l10 10h3q15 9 23 14q-26 107 -29 157v3l-9 258l-3 3l-20 12v23q-3 112 0 204v158q0 78 1 186z" />
    <glyph glyph-name="Charu_Chandan.135" horiz-adv-x="3" 
d="M-175 10q49 32 85 77q-38 -45 -85 -77zM-744 181l-12 7q13 80 19 159t6 159q0 57 -3 115t-10 116l-1 10l-14 14l-16 8q74 37 131 37q358 0 529 -212l23 -23q52 -52 92 -124q46 -116 46 -192q0 -8 -0.5 -15.5t-1.5 -15.5q-10 -160 -125.5 -254t-329.5 -123
q-35 -5 -70.5 -8t-69.5 -3q-78 0 -198 34q-137 39 -238 140l-22 22q-47 39 -91 93q-115 138 -154 337q35 26 70 39.5t73 13.5q19 0 42.5 -4t49.5 -12l5 -10l55 -55q5 -11 10 -26.5t9 -35.5q4 -32 9.5 -59t11.5 -49l-35 -10l14 -29q18 -38 38.5 -71.5t45.5 -64.5
q55 -52 119 -86l6 -4l-1 1q96 -30 185 -30q29 0 58 3q60 11 120 41.5t102 71.5q37 46 58 89.5t23 80.5q2 65 -12 121.5t-45 107.5q-3 5 -7 11t-9 12q-9 7 -18.5 13t-20.5 12q-44 27 -91 44.5t-105 27.5v-36v-90t-2 -84l8 -3v-5l59 -59v-45q-6 -53 -6 -92q0 -31 -10 -40
l-1 -2q-11 -9 -33.5 -19t-51.5 -18q-24 -7 -56 -7q-41 0 -90 15l-14 8zM-30 287q11 82 -40 211q-160 293 -574 293q-51 0 -96 -22l8 -3l3 -28q31 -276 -11 -541l8 -5q77 -23 136 -6t76 31l2 3l3 3q6 2 6 30q0 40 6 93v37q-12 6 -34 8l-37 6q6 113 6 234v50
q121 -19 214 -75.5t124 -112.5h2q60 -104 57 -237q-3 -81 -85 -180q-98 -98 -231 -118h-2q-116 -14 -248 28l-6 3q-180 96 -270 293l-20 42l37 11q-9 31 -17 93q-9 42 -17 59q-121 37 -208 -31q36 -186 149 -321q113 -143 281 -191q122 -34 195 -34q67 0 138 11h3
q422 54 442 366z" />
    <glyph glyph-name="Charu_Chandan.136" horiz-adv-x="1398" 
d="M1560 1431l-42 -74h-253l-2 -27q-3 -60 -4.5 -214t-1.5 -403q-3 -102 -3 -191q0 -91 3 -169v-11l20 -20q4 -4 7 -10l8 -189q3 -38 10.5 -83.5t18.5 -99.5q-7 -4 -16.5 -10.5t-24.5 -17.5l-1 1q-33 -25 -110 -43q-61 0 -90 31l-2 2l-60 10l-60 60h-5l17 103q12 71 15 164
v7q-11 39 -28 75t-42 66l-7 5q-56 35 -120.5 51.5t-138.5 16.5q-36 0 -76 -3h-7l-260 -240q-21 -3 -43 -3q-22 13 -40 26t-32 27l-33 33q-85 61 -81 145q261 117 449 339q106 115 106 241q0 20 -3.5 41t-8.5 44q-12 38 -36.5 74t-58.5 70q-23 15 -47.5 28.5t-52.5 27.5
q-63 -62 -93 -116t-30 -105q0 -9 0.5 -18t2.5 -17l31 -1l6 -11l54 -54q30 -56 30 -98q0 -56 -54 -90q-62 -37 -118 -37q-15 0 -30 2.5t-32 7.5l-57 57q-3 0 -7 2q-28 66 -41 124t-13 112q0 34 5 65t16 61q27 75 62 129.5t80 91.5q90 74 133 74q86 0 184 -62q78 -50 145 -132
l7 -7l-4 5l9 -9q20 -20 38.5 -41.5t35.5 -45.5q40 -62 58.5 -119t15.5 -113q0 -159 -140 -343q153 -12 273 -97q11 186 16.5 350.5t5.5 308.5q0 188 -9 346q5 11 20 21t36 19q15 8 30 12.5t26 6.5q62 3 77 -28l13 -13h423l-9 -15h-428l-12 20q-9 24 -61 21q-21 -3 -53 -18
q-41 -17 -47 -29v-3q24 -398 -14 -1028q-147 120 -358 112l-73 -3q212 229 210 423q6 106 -72 224q-73 102 -167 162t-176 60q-38 0 -123 -70t-137.5 -215t29.5 -344q82 -24 165.5 27.5t21.5 165.5l-58 3q-114 146 93 345q221 -98 273 -272q50 -179 -97 -340
q-190 -225 -445 -339q-3 -82 111 -147q15 0 36 3l260 240h12q41 3 76 3q149 0 265 -70t148 -214v-11q-3 -97 -15 -166t-15 -89l53 -9q26 -32 82 -32q79 18 107 39.5t34 24.5q-21 97 -27 176l-8 187q-3 6 -6 6l-21 15v23q-6 158 0 360q0 507 6 618l3 38h368z" />
    <glyph glyph-name="Charu_Chandan.137" horiz-adv-x="1403" 
d="M1560 1431l-42 -74h-253l-2 -27q-3 -60 -4.5 -214t-1.5 -403q-3 -102 -3 -191q0 -91 3 -169v-11l20 -20q4 -4 7 -10l8 -189q3 -38 10.5 -83.5t18.5 -99.5q-7 -4 -16.5 -10.5t-24.5 -17.5l-1 1q-33 -25 -110 -43q-61 0 -90 31l-2 2l-60 10l-60 60h-5l17 103q12 71 15 164
v7q-11 39 -28 75t-42 66l-7 5q-56 35 -120.5 51.5t-138.5 16.5q-36 0 -76 -3h-7l-260 -240q-21 -3 -43 -3q-22 13 -40 26t-32 27l-33 33q-85 61 -81 145q261 117 449 339q106 115 106 241q0 20 -3.5 41t-8.5 44q-12 38 -36.5 74t-58.5 70q-23 15 -47.5 28.5t-52.5 27.5
q-63 -62 -93 -116t-30 -105q0 -9 0.5 -18t2.5 -17l31 -1l6 -11l54 -54q30 -56 30 -98q0 -56 -54 -90q-62 -37 -118 -37q-15 0 -30 2.5t-32 7.5l-57 57q-3 0 -7 2q-28 66 -41 124t-13 112q0 34 5 65t16 61q27 75 62 129.5t80 91.5q90 74 133 74q86 0 184 -62q78 -50 145 -132
l7 -7l-4 5l9 -9q20 -20 38.5 -41.5t35.5 -45.5q40 -62 58.5 -119t15.5 -113q0 -159 -140 -343q153 -12 273 -97q11 186 16.5 350.5t5.5 308.5q0 188 -9 346q5 11 20 21t36 19q15 8 30 12.5t26 6.5q62 3 77 -28l13 -13h423l-9 -15h-428l-12 20q-9 24 -61 21q-21 -3 -53 -18
q-41 -17 -47 -29v-3q24 -398 -14 -1028q-147 120 -358 112l-73 -3q212 229 210 423q6 106 -72 224q-73 102 -167 162t-176 60q-38 0 -123 -70t-137.5 -215t29.5 -344q82 -24 165.5 27.5t21.5 165.5l-58 3q-114 146 93 345q221 -98 273 -272q50 -179 -97 -340
q-190 -225 -445 -339q-3 -82 111 -147q15 0 36 3l260 240h12q41 3 76 3q149 0 265 -70t148 -214v-11q-3 -97 -15 -166t-15 -89l53 -9q26 -32 82 -32q79 18 107 39.5t34 24.5q-21 97 -27 176l-8 187q-3 6 -6 6l-21 15v23q-6 158 0 360q0 507 6 618l3 38h368z" />
    <glyph glyph-name="Charu_Chandan.138" horiz-adv-x="1398" 
d="M1007 1357h-65q-113 -146 -211 -278.5t-183 -252.5q269 -5 442 -200q8 303 12.5 480t4.5 236v15zM1022 1342q0 -120 -18 -754q-214 268 -592 214l47 69q178 252 416 560h147v-89zM1630 1549l-9 -15h-890l-59 -103l-44 -65q-27 -43 -56 -86q-20 -10 -43 -15
q-59 -14 -129.5 33t-85.5 115t6 127l20 2q39 6 52.5 37t36.5 113l-3 3q-58 35 -159 32q-12 -3 -14 -6q-33 -32 -59 -108t9 -195q38 -90 125 -147q80 -53 199 -55q-117 -165 -269 -334q-79 -94 -126 -144q-20 -21 -64 -70q6 -68 50 -109t88 -41q14 0 26 6q47 67 136 205
l11 15l18 6q94 5 129 5q91 0 176 -46q199 -109 297 -381l2 -6v-6l-29 -273l-6 -59q15 -3 68 -23l17 -15q109 9 161 50q15 6 24 12q-29 114 -32 164q-3 23 -3 97q0 59 -3 91q0 3 -6 6l-21 12v23q-3 167 0 369q0 525 3 546l3 59v56h384l-42 -74h-268v-45l-3 -61
q-3 -21 -3 -543q-1 -51 -1.5 -99.5t-0.5 -94.5q0 -47 0.5 -90t1.5 -85v-9l22 -22q3 -3 5 -9q2 -16 2.5 -39.5t0.5 -52.5q0 -74 3 -96q2 -23 10.5 -65.5t23.5 -104.5q-8 -7 -14.5 -10t-16.5 -7q-27 -20 -70.5 -33.5t-100.5 -18.5l-20 17q-44 17 -75 23l-58 58q-2 0 -3.5 0.5
t-3.5 0.5l7 73l29 273v5h-1q-57 159 -152 263q-36 28 -75 51q-40 20 -84 32.5t-86 12.5q-17 0 -48 -1.5t-79 -3.5q-4 -2 -5.5 -1.5t-6.5 -1.5q-2 -3 -4.5 -6t-4.5 -6q-45 -69 -80 -121.5t-58 -86.5q-18 -9 -34 -9q-49 0 -96 44l-41 41q-11 7 -23 19q-47 44 -55 125
q17 20 33 37.5t26 28.5l9 9q46 49 126 144q60 67 114.5 133.5t105.5 133.5q-23 7 -44 17t-40 23q-29 19 -55 45l-26 26q-38 29 -67.5 65.5t-46.5 79.5q-20 69 -20 125q0 42 12 78q11 35 29 65.5t33 47.5q7 8 21 11q105 3 170 -34l12 -12q-1 -1 -1 -3l60 -60
q-13 -47 -22.5 -76t-16.5 -45q-16 -37 -61 -44l-13 -1q-9 -29 -9 -61q0 -13 1 -25.5t4 -26.5h1q2 -11 5 -20.5t8 -18.5q2 -2 3.5 -2.5t3.5 -1.5q64 -42 117 -31q20 3 37 13l4 5q2 3 4 6.5t4 5.5q11 15 21 31.5t20 32.5l44 64l-1 -1l65 113v-1h907z" />
    <glyph glyph-name="Charu_Chandan.139" horiz-adv-x="1062" 
d="M1218 418v-5l59 -59v-22l23 -23q6 -157 16 -263.5t24 -163.5l-35 -19l-2 -1l1 -1q-8 -13 -28 -24q-27 -13 -74 -21h-6q-2 -1 -5 -1h-5h-5q-2 -1 -4 -1h-3q-16 1 -29 5t-24 10l-12 9l-16 3q-27 3 -50 14l-55 55q-3 1 -5.5 2t-5.5 3l14 53l9 92q3 29 5.5 61t4.5 69
q-12 26 -27 50.5t-34 45.5q-23 16 -48 29t-54 24l-3 1h-1l-1 1q-68 21 -125 21q-111 0 -168 -87q-37 -49 -37 -114v-16t2 -17q2 -20 9 -39t18 -36l4 -3l23 40l20 34l-9 7q-35 24 -30 68q3 11 13.5 25.5t27.5 27.5q41 31 109 29q70 -1 134 -75l-1 -1l45 -45l14 -16
q-56 -75 -102.5 -153.5t-86.5 -161.5l-2 -2v-5q-23 -23 -55 -23q-37 0 -92 23q-27 17 -51 36.5t-47 42.5l-15 15q-13 11 -25 22t-24 23q-79 76 -96 170q-3 21 -5 41t-2 40q0 44 9 77q14 54 43 99.5t73 77.5t111 49.5t142 19.5q8 1 18 1h18q136 0 292 -79l28 -22q2 24 5 47
t8 46l11 -24q-8 -39 -10 -98l-49 37q-173 89 -320 77q-157 0 -245 -66q-84 -62 -110 -169q-16 -63 -1.5 -151t90.5 -162l2 -2q42 -44 91 -74q97 -41 132 -8v5l3 3q81 170 184 310q-51 59 -113.5 60.5t-100.5 -26.5q-30 -23 -35 -46q-3 -31 24 -51l20 -13l-58 -102
q-98 71 -110 160.5t37 155.5q62 92 178 92q58 0 126 -21h2l3 -2q176 -63 239 -221q-4 -74 -10 -133l-9 -93l-11 -42q14 -6 38 -9l17 -3l15 -11q18 -11 48 -13q1 0 3 1h8q5 0 9 1h5q44 7 70 20v1q16 8 24 19l6 6h3q15 9 23 14q-26 106 -38 417l-3 3z" />
    <glyph glyph-name="Charu_Chandan.140" 
d="M-360 467q-92 -86 -166.5 -170t-134.5 -170q86 -16 166.5 -55t152.5 -101q-9 187 -13.5 295.5t-4.5 144.5v56zM-1025 -55q-60 43 -70 109q99 103 192.5 206t178.5 203q88 102 151 164t96 82q26 13 56 25t56 21q26 8 73 17t116 20v-6l59 -59q-1 -146 -1 -249.5v-152.5
l10 -339l19 -19q4 -42 14.5 -122.5t27.5 -194.5q-40 -52 -135 -67q-13 -2 -24.5 -3t-21.5 -1q-37 0 -53 16l-50 51q-21 9 -26 32q-30 130 -113 221q-54 38 -121.5 62t-151.5 34l-94 -158q-103 21 -150 70zM-345 411q0 -75 20 -476q-204 192 -458 187q155 247 435 492z
M-182 34l-10 353q0 97 1 388q-118 -18 -169.5 -34t-109.5 -46q-63 -33 -243 -242q-169 -199 -366 -404q18 -103 175 -136l93 157q402 -48 469 -389q6 -39 96 -24q91 15 124 57q-33 226 -40 308z" />
    <glyph glyph-name="Charu_Chandan.141" 
d="M-936 96q6 -8 14 -14zM-253 707q27 -23 59 -61l21 -21q23 -23 46.5 -54.5t45.5 -66.5q28 -47 43.5 -101t15.5 -112q0 -17 -1 -33.5t-3 -32.5v-1q-12 -145 -107 -249q-107 -111 -323 -149q-59 -6 -115 -6q-75 0 -145.5 12t-131.5 34q-61 23 -119 60.5t-109 88.5l-15 15
q-53 42 -96 96q-113 140 -155 340q58 31 141 31q24 0 50.5 -2t57.5 -7l3 -8l57 -57q15 -48 15 -60q1 -14 5 -36.5t10 -51.5l-42 -14l22 -50l-1 1q13 -20 26.5 -40t28.5 -38q36 -35 76 -62.5t82 -48.5q82 -37 186 -37q17 0 35.5 1t36.5 3h-1q71 17 130.5 52.5t103.5 82.5
q35 43 54 93.5t19 107.5q0 18 -1.5 38t-5.5 41q-68 -73 -137 -111.5t-135 -38.5q-17 0 -32 2t-30 6q-32 8 -64.5 23t-61.5 35l-52 52q-4 2 -7.5 4.5t-7.5 5.5l11 9l-14 41q-19 64 -19 159q0 113 32 273h46q72 0 181 -66l2 -8l57 -57q6 -35 8.5 -62.5t2.5 -50.5
q0 -11 -0.5 -21t-3.5 -27h-56q-3 -8 -6 -16.5t-5 -16.5q-6 -32 -6 -56q0 -29 8 -56h7q91 22 158.5 91t102.5 183zM-262 695q-75 -238 -270 -282h-11q-43 0 -59 36q-34 64 -17 156l14 42h55q7 50 -8 142v3q-102 58 -167 58h-33q-54 -264 -11 -412l16 -50l-5 -3
q47 -33 111 -48q181 -47 368 193q108 -251 -30 -415q-93 -104 -241 -140q-158 -17 -267 34q-173 83 -279 259l-27 61l44 15q-11 49 -13 80q0 11 -12 50q-145 23 -220 -17q39 -186 148 -321q114 -142 270 -197q167 -62 387 -39q210 36 315 145q92 100 104 243q20 155 -53 272
q-54 87 -109 135z" />
    <glyph glyph-name="Charu_Chandan.142" 
d="M-174 112v-9l59 -59q-1 -43 -1 -89v-74v-56.5t2 -34.5q8 -131 22 -223.5t32 -147.5q-164 -3 -239 50l-53 54l-12 7q-6 18 -17 36q-8 5 -17 8t-19 7q-57 25 -128 43.5t-150 29.5q-16 2 -34 3t-35 1q-71 0 -153.5 -15.5t-177.5 -47.5v-1q-20 -9 -40.5 -13.5t-41.5 -6.5
q-22 -2 -49.5 7.5t-59.5 28.5q-28 17 -43 32l-38 39q-50 36 -47 67q53 18 110 31.5t115 22.5t114.5 14t109.5 6q20 2 45 2.5t45 0.5q236 0 467 -93l54 -24q7 31 11.5 107t6.5 197l15 -8q-4 -279 -25 -315l-67 29q-271 110 -551 89q-223 0 -436 -70q-3 -19 58 -55.5
t102 -33.5t78 19q243 82 406.5 60.5t281.5 -73.5q92 -36 122 -115q70 -49 214 -46q-33 98 -50 358q-4 44 -1 234z" />
    <glyph glyph-name="Charu_Chandan.143" horiz-adv-x="3" 
d="M-234 1073v-9l59 -59v-317q0 -179 0.5 -296t1.5 -182l5 -5q8 -8 8 -23q2 -60 3.5 -99.5t1.5 -58.5q2 -15 6.5 -39.5t12.5 -58.5q3 -26 -26 -44l-7 -3.5t-2 -0.5q-24 -27 -87 -36q-46 -9 -66 11l-5 5q-25 5 -35 15l-52 52q-22 12 -22 34l6 45q2 16 3 26.5t1 16.5
q3 71 5 141.5t3 148.5q-36 25 -62 25q-22 0 -37 -15q-65 -69 -66 -193h-18q-12 0 -30.5 4.5t-43.5 15.5q-44 19 -66 41l-42 42q-35 23 -41 48q0 15 3 27l2 6l3 12l-32 16q-31 16 -77 16q-29 0 -53 -5t-47 -16q-93 -70 -99 -155q0 -58 22 -101l14 -8t15 -7q2 4 3.5 8.5
t3.5 6.5l11 22l7 11q0 1 1 2t1 1.5t1 1.5l-10 10l-8 5q-6 4 -11 10.5t-7 17.5q33 65 111 73q75 7 128 -61l43 -43q5 -5 9 -10.5t9 -11.5q-29 -38 -58.5 -95.5t-61.5 -133.5v1q-5 -11 -8.5 -19t-8.5 -19l21 -22h-33q-59 -12 -158 30q-57 24 -101 68l-32 32q-55 41 -93 107
q-38 65 -38 149q0 28 4 58.5t12 60.5q22 80 81 137t156 87q41 10 87 10q116 0 260 -93v-1q9 -6 16 -12t16 -12q17 46 55 73.5t100 20.5q53 -8 147 -93v454l15 -7v-482q-110 106 -164 113q-65 8 -98 -21.5t-46 -81.5l-50 36q-141 91 -251 91q-43 0 -82 -9
q-187 -59 -227 -213.5t20 -256.5t156 -142.5t150 -28.5h8l-6 7l19 45q64 153 116 224q-42 55 -111 49t-96 -61l-2 -2q4 -5 12 -10l31 -19l-17 -31l-24 -50q-135 53 -133 198q6 92 104 164h2q46 23 105 23q50 0 87 -19q46 -19 102 -78l-6 -24q0 -2 -2 -7q-3 -12 -3 -19
q8 -31 77 -62q46 -19 69 -19h6q2 117 69 189q64 61 185 -73q-2 -155 -8 -297q0 -14 -4 -45q-4 -29 -6 -45q0 -19 40 -26q16 -24 61 -15q64 10 81 34q2 0 7 2q26 17 24 31q-16 66 -19 102q0 38 -5 159q0 14 -13 21q-3 176 -2 777z" />
    <glyph glyph-name="Charu_Chandan.144" horiz-adv-x="1823" 
d="M968 1357h-65q-112 -146 -209.5 -277.5t-183.5 -252.5q124 -5 232.5 -54.5t208.5 -148.5q8 304 12.5 482t4.5 237v14zM346 734l12 3v4zM345 733q-6 -4 -3 -4zM983 1343q0 -120 -18 -754q-256 270 -593 214l47 67q179 254 416 561h148v-88zM1940 1357h-519
q82 -53 160 -126q18 -18 36 -41l24 -23q2 -1 2.5 -2t2.5 -3q120 -119 120 -340q0 -49 -6 -101q-8 -36 -40 -68q-20 -15 -63 -15q-23 0 -77 19q-74 25 -115 66l-41 40q-36 26 -52 56q0 14 9 36.5t23 46.5q17 28 35.5 50.5t34.5 33.5q4 2 10.5 3.5t11.5 1.5q5 1 11 2.5t11 2.5
q6 8 10.5 20.5t4.5 29.5q0 6 -0.5 13t-1.5 15q-29 56 -79 107q-48 36 -108.5 65.5t-132.5 51.5l-2 -46q-3 -20 -3 -543q-1 -51 -1.5 -99t-0.5 -95t0.5 -90.5t1.5 -85.5v-9l22 -22q3 -3 5 -9q1 -17 1.5 -41.5t0.5 -51.5q0 -73 3 -95q3 -45 35 -169q-10 -8 -16.5 -11.5
t-14.5 -6.5q-27 -20 -71 -33.5t-101 -18.5l-20 17q-23 9 -40 14t-34 9l-58 58q-2 0 -3.5 0.5t-3.5 0.5l7 73l29 271q0 1 -0.5 2t-0.5 2q-32 81 -76.5 153.5t-98.5 129.5q-13 9 -26 17.5t-27 16.5q-42 23 -84 34.5t-86 11.5q-34 0 -128 -6l-12 -4l-8 -10q-44 -68 -79 -121.5
t-58 -86.5q-18 -9 -37 -9q-55 15 -97 57l-36 35q-55 40 -96 124l84 88q23 25 55 60t72 83q210 235 356 465h-691l43 74h717l-44 -64q-150 -238 -370 -485q-80 -94 -127 -143q-20 -21 -76 -80q56 -114 151 -140q14 0 26 6q47 67 135 205l12 14l17 6q94 6 129 6q91 0 176 -47
q199 -108 297 -382l3 -6v-6l-29 -272l-6 -59q15 -3 67 -23l18 -15q108 9 161 50q15 6 24 12q-30 114 -33 164q-3 23 -3 96q0 59 -2 92q0 3 -6 6l-21 12v23q-3 167 0 370q0 526 3 546l3 59q308 -88 408 -297v-3q8 -68 -21 -94l-26 -6q-12 0 -18 -3q-29 -20 -64 -79
q-30 -50 -30 -70q35 -59 135 -94q53 -18 73 -18q41 0 56 12q29 29 35 61q31 297 -115 435t-324 211h736zM2042 1534h-2067l9 15l2067 1z" />
    <glyph glyph-name="Charu_Chandan.145" horiz-adv-x="1534" 
d="M1679 1431l-42 -74h-243q-1 -4 -1 -9v-9q0 -79 -3 -337v-73t-0.5 -81.5t-1 -76.5t-1.5 -60q-1 -43 -1.5 -95t-0.5 -98q0 -51 0.5 -102t1.5 -105v-3l23 -22q3 -3 4 -6l2 -6l6 -182q3 -31 10.5 -72t20.5 -91q-8 -7 -22.5 -15.5t-35.5 -17.5q-27 -24 -111 -24q-11 0 -25 0.5
t-28 1.5l-68 44l-51 51l-14 9l18 133q3 24 5.5 48.5t4.5 51.5q-38 78 -77 138t-81 105q-73 50 -147 50q-61 0 -143 -31h1l-12 -6l-6 -6h1q-48 -54 -103 -113t-115 -119q-153 0 -193 34q-14 7 -25 18l-46 46q-25 16 -36 41.5t-6 59.5q199 137 324.5 233.5t179.5 153.5
q48 54 73.5 100.5t25.5 81.5q2 16 3 30t1 28q0 72 -29 142.5t-80 132.5l-10 7q2 -26 3 -49.5t1 -46.5q0 -41 -3 -75.5t-10 -62.5q-23 -95 -81 -167q-58 -70 -128 -81l-60 59h-3q-63 82 -144.5 181.5t-169.5 202.5q72 163 189 176l12 -16l49 -49l51 -68l53 -75l-14 -14
l-19 -17q3 -5 7 -12.5t6 -12.5l-1 1q6 -11 13.5 -23t17.5 -25q11 -10 21 -10q6 0 13 3t12 8l6 18q25 50 25 152q0 18 -1 41.5t-3 46.5q-5 32 -13.5 74t-19.5 88q104 0 209 -39q52 -29 93.5 -63.5t73.5 -76.5l22 -21q122 -122 137 -304q1 -11 1 -22.5v-22.5q0 -56 -9.5 -107
t-29.5 -96q-17 -38 -49 -87t-78 -106q84 -11 168 -55.5t164 -118.5l2 53l6 135l3 367l-6 410l-13 113l20 12q20 17 44.5 29t50.5 14q80 -1 97 -38l11 -11h396l-9 -15h-403l-9 20q-13 28 -82 29q-50 -5 -88 -41l-12 -8l12 -103l6 -411l-3 -367l-6 -135q-1 -46 -2 -89
q-242 247 -496 187q158 179 203.5 283.5t36.5 241.5q-23 258 -258 390q-102 38 -184 38h-3q23 -79 32 -146q15 -173 -23 -249l-6 -18q-15 -18 -38 -18q-18 0 -44 27q-9 12 -18 17l-3 3q-38 44 -59 82l-17 33l26 23l6 6h-3q-12 23 -44 67l-47 62q-99 -12 -164 -158
q176 -206 302 -370q59 9 114.5 76.5t77.5 161.5t7 255l56 -38q179 -167 150 -390q0 -77 -103 -189.5t-501 -385.5q-9 -59 44 -85q35 -32 181 -32q118 120 214 228l9 9l12 6q82 32 147 32q208 0 382 -363q-4 -56 -10 -105l-17 -124l58 -38q132 -8 155 21q41 18 50 26
q-23 91 -29 159l-6 182q0 3 -6 6l-20 9l-3 20q-3 217 0 402q3 118 3 291q3 258 3 337l2 30h358z" />
    <glyph glyph-name="Charu_Chandan.146" horiz-adv-x="732" 
d="M1141 1066q-335 236 -553 284q-35 3 -62 3q-94 0 -170 -67l-35 -27q-103 -88 -223 -229q-12 -23 0 -46h3q14 -21 102 -21h50q150 38 273 -23l6 -9v-9q-6 -106 -106 -188q-91 -79 -149 -111q155 -74 281 -24q115 203 103 367q-9 38 -73 56q-109 26 -294 6q124 176 229 228
l9 3h9q210 -8 476 -336l-10 -11q-25 30 -49 57q-39 43 -77 80q-77 65 -146 98t-132 38h-9q-1 0 -2 -1t-2 -1q-73 -37 -154 -132h4q45 0 83 -3t69 -11q62 -18 79 -53l46 -45q13 -13 18 -31q1 -8 1 -16.5v-18.5q0 -77 -26.5 -163t-81.5 -182q-60 -23 -114 -23q-83 0 -202 55
l-56 56l-13 6q85 47 173 123q40 34 64.5 70t32.5 77q-21 5 -42.5 8.5t-43.5 3.5q-51 0 -109 -15h-53q-89 0 -114 25l-53 53q-7 4 -14 12q-8 14 -8 28q0 15 8 29q123 144 227 234l35 27q39 33 85.5 52t94.5 19q35 0 68 -3q211 -47 557 -288z" />
    </font>
</defs>
</svg>
